<?xml version="1.0" encoding="utf-8"?>
<!-- Generator: Adobe Illustrator 25.2.1, SVG Export Plug-In . SVG Version: 6.00 Build 0)  -->
<svg version="1.1" xmlns="http://www.w3.org/2000/svg" xmlns:xlink="http://www.w3.org/1999/xlink" x="0px" y="0px"
	 viewBox="0 0 56 56" style="enable-background:new 0 0 56 56;" xml:space="preserve">
<style type="text/css">
	.st0{display:none;}
	.st1{display:inline;fill:#2A2A2A;}
	.st2{fill:#2A2A2A;}
	.st3{fill:#FFFFFF;}
	.st4{fill:none;stroke:#FFFFFF;stroke-width:3;stroke-linecap:round;stroke-linejoin:round;stroke-miterlimit:10;}
	.st5{fill:none;stroke:#FFFFFF;stroke-width:3;stroke-linecap:round;stroke-linejoin:round;}
	.st6{fill:none;}
	.st7{fill:#FF002B;}
	.st8{fill:url(#SVGID_1_);}
	.st9{fill:url(#SVGID_2_);}
	.st10{clip-path:url(#SVGID_4_);}
	.st11{fill:#FF0606;}
</style>
<g id="FOND" class="st0">
</g>
<g id="Calque_1">
	<g>
		<path class="st2" d="M28,28.1c0-1.2,0-2,0-2.9c0.1-1.7,1.3-2.6,2.8-2.4c0.6,0.1,1.3,0,1.9-0.3c2.3-1.2,4.8-0.1,5.7,2.3
			c1.1,3,2.7,5.6,5.9,6.9c0.6,0.2,1.1,0.5,1.6,0.8c1.1,0.5,1.7,1.3,1.1,2.4c-0.5,1.1-1.5,1.1-2.5,0.6c-1.5-0.8-3.1-1.5-4.9-2.3
			c0,1.1,0.1,2.1,0,3c-0.1,1.3,0.1,3-0.5,4c-1.3,2-1,4-1,6.1c0,2.3,0,4.7,0,7c0,1.7-1,2.8-2.4,2.8c-1.5,0-2.5-1.1-2.5-2.8
			c0-3.4,0-6.7,0-10.1c0-0.4,0.1-0.9-0.1-1.1c-1.6-1.8-1.3-3.9-1.2-6c-3,0.6-3.9-0.2-3.7-3.2c0.1-0.8,0-1.5,0-2.6
			c-1.9,1.8-3.2,0.5-4.5-0.6c-0.8-0.8-1.7-1.5-2.9-2.1c0.6,3.7,1.1,7.3,1.7,11.1c-0.9,0.1-1.6,0.1-2.6,0.2c0,3.2,0,6.4,0,9.6
			c0,1.4,0,2.8,0,4.2c-0.1,1.8-1.4,2.7-3.1,2.1c-0.4-0.1-0.9-0.2-1.3,0c-2,0.6-3.3-0.3-3.3-2.4c0-3.9,0-7.8,0-11.7
			c0-0.6,0-1.2,0-1.8c-0.8-0.1-1.3-0.1-2.1-0.2c0.3-1.5,0.4-3,0.8-4.3c1.5-5.3,1-10.5,0.1-15.8c-0.1-0.9-0.3-1.7-0.4-2.6
			c-0.3-2.4,1.2-4.6,3.5-5.1c2.4-0.5,4.4,1,5.4,3.3c1.5,3.6,3.2,7.2,5.1,10.6C25.2,26.1,26.7,26.9,28,28.1"/>
		<path class="st2" d="M12.3,5c0-2.7,2-4.7,4.7-4.8c2.6,0,4.8,2,4.8,4.7c0,2.7-2.1,4.9-4.8,4.9C14.4,9.8,12.3,7.7,12.3,5"/>
		<path class="st2" d="M34.9,20.9c-2.1,0-3.7-1.7-3.7-3.8c0-2,1.7-3.7,3.8-3.7c2,0,3.7,1.7,3.7,3.8C38.7,19.4,37,21,34.9,20.9"/>
	</g>
	<rect x="0" y="0" class="st6" width="56" height="56"/>
</g>
</svg>
