<?xml version="1.0" encoding="UTF-8"?>
<svg xmlns="http://www.w3.org/2000/svg" xmlns:xlink="http://www.w3.org/1999/xlink" viewBox="0 0 56 56">
  <defs>
    <style>
      .cls-1 {
        stroke-width: 0px;
      }

      .cls-1, .cls-2, .cls-3, .cls-4, .cls-5 {
        fill: none;
      }

      .cls-2 {
        stroke: url(#Dégradé_sans_nom_172);
      }

      .cls-2, .cls-3, .cls-4, .cls-5 {
        stroke-linecap: round;
        stroke-linejoin: round;
        stroke-width: 2px;
      }

      .cls-3 {
        stroke: url(#Dégradé_sans_nom_75-3);
      }

      .cls-4 {
        stroke: url(#Dégradé_sans_nom_75-2);
      }

      .cls-5 {
        stroke: url(#Dégradé_sans_nom_75);
      }
    </style>
    <linearGradient id="Dégradé_sans_nom_75" data-name="Dégradé sans nom 75" x1="43.23" y1="31.76" x2="50.2" y2="19.67" gradientUnits="userSpaceOnUse">
      <stop offset="0" stop-color="#e1000f"/>
      <stop offset=".99" stop-color="#ff1717"/>
    </linearGradient>
    <linearGradient id="Dégradé_sans_nom_75-2" data-name="Dégradé sans nom 75" x1="47.81" y1="36.51" x2="54.22" y2="25.4" xlink:href="#Dégradé_sans_nom_75"/>
    <linearGradient id="Dégradé_sans_nom_172" data-name="Dégradé sans nom 172" x1="8.72" y1="52.73" x2="37.27" y2="3.27" gradientUnits="userSpaceOnUse">
      <stop offset="0" stop-color="#6a6af4"/>
      <stop offset=".18" stop-color="#8585f6"/>
      <stop offset="1" stop-color="#9797f7"/>
    </linearGradient>
    <linearGradient id="Dégradé_sans_nom_75-3" data-name="Dégradé sans nom 75" x1="8.37" y1="32.44" x2="14.62" y2="21.61" xlink:href="#Dégradé_sans_nom_75"/>
  </defs>
  <g id="ICONES">
    <polyline class="cls-5" points="36.98 27 54.98 27 46.9 18.92"/>
    <line class="cls-4" x1="47.05" y1="34.92" x2="54.98" y2="26.99"/>
    <path class="cls-2" d="m9,22V5.98c0-1.64,1.33-2.98,2.98-2.98h22.05c1.64,0,2.98,1.33,2.98,2.98v44.03c0,1.64-1.33,2.98-2.98,2.98H11.97c-1.64,0-2.98-1.33-2.98-2.98v-19.02"/>
    <line class="cls-3" x1=".99" y1="27.03" x2="22" y2="27.03"/>
  </g>
  <g id="Cadres">
    <rect class="cls-1" x="0" y="0" width="56" height="56"/>
  </g>
</svg>