<svg width="48" height="48" viewBox="0 0 48 48" fill="none" xmlns="http://www.w3.org/2000/svg">
<g clip-path="url(#clip0_4523_39966)">
<path d="M0 5V42.6114H29.2029L0 5ZM16.6886 37.4771H7.42286C6.85714 37.4771 6.40286 37.0229 6.40286 36.4571V24.32C6.40286 23.3257 7.68 22.9143 8.26286 23.72L17.52 35.8571C18.0086 36.5343 17.52 37.4771 16.6886 37.4771Z" fill="#161616"/>
<path d="M34.2846 5C26.7075 5 20.5703 11.1371 20.5703 18.7143H47.9989C47.9989 11.1371 41.8617 5 34.2846 5ZM28.7132 15.86C28.7132 12.7829 31.2075 10.2886 34.2846 10.2886C37.3617 10.2886 39.856 12.7829 39.856 15.86H28.7132Z" fill="#161616"/>
</g>
<defs>
<clipPath id="clip0_4523_39966">
<rect width="48" height="48" fill="white"/>
</clipPath>
</defs>
</svg>
