<?xml version="1.0" encoding="UTF-8"?>
<svg xmlns="http://www.w3.org/2000/svg" xmlns:xlink="http://www.w3.org/1999/xlink" viewBox="0 0 56 56">
  <defs>
    <style>
      .cls-1 {
        stroke-width: 0px;
      }

      .cls-1, .cls-2, .cls-3, .cls-4, .cls-5, .cls-6, .cls-7, .cls-8 {
        fill: none;
      }

      .cls-2 {
        stroke: url(#Dégradé_sans_nom_172);
      }

      .cls-2, .cls-3, .cls-4, .cls-5, .cls-6, .cls-7, .cls-8 {
        stroke-linecap: round;
        stroke-linejoin: round;
        stroke-width: 2px;
      }

      .cls-3 {
        stroke: url(#Dégradé_sans_nom_75-2);
      }

      .cls-4 {
        stroke: url(#Dégradé_sans_nom_75);
      }

      .cls-5 {
        stroke: url(#Dégradé_sans_nom_172-3);
      }

      .cls-6 {
        stroke: url(#Dégradé_sans_nom_172-4);
      }

      .cls-7 {
        stroke: url(#Dégradé_sans_nom_172-5);
      }

      .cls-8 {
        stroke: url(#Dégradé_sans_nom_172-2);
      }
    </style>
    <linearGradient id="Dégradé_sans_nom_172" data-name="Dégradé sans nom 172" x1="11.25" y1="40.56" x2="26.59" y2="14" gradientUnits="userSpaceOnUse">
      <stop offset="0" stop-color="#6a6af4"/>
      <stop offset=".18" stop-color="#8585f6"/>
      <stop offset="1" stop-color="#9797f7"/>
    </linearGradient>
    <linearGradient id="Dégradé_sans_nom_172-2" data-name="Dégradé sans nom 172" x1="12.64" y1="53.55" x2="21.8" y2="37.68" xlink:href="#Dégradé_sans_nom_172"/>
    <linearGradient id="Dégradé_sans_nom_75" data-name="Dégradé sans nom 75" x1="17.51" y1="9.32" x2="22.5" y2=".68" gradientUnits="userSpaceOnUse">
      <stop offset="0" stop-color="#e1000f"/>
      <stop offset=".99" stop-color="#ff1717"/>
    </linearGradient>
    <linearGradient id="Dégradé_sans_nom_75-2" data-name="Dégradé sans nom 75" x1="38" y1="21.48" x2="42.01" y2="14.53" xlink:href="#Dégradé_sans_nom_75"/>
    <linearGradient id="Dégradé_sans_nom_172-3" data-name="Dégradé sans nom 172" x1="30.82" y1="51.74" x2="45.81" y2="25.79" xlink:href="#Dégradé_sans_nom_172"/>
    <linearGradient id="Dégradé_sans_nom_172-4" data-name="Dégradé sans nom 172" x1="30.82" y1="34.78" x2="36.53" y2="24.89" xlink:href="#Dégradé_sans_nom_172"/>
    <linearGradient id="Dégradé_sans_nom_172-5" data-name="Dégradé sans nom 172" x1="43.11" y1="32.36" x2="45.88" y2="27.57" xlink:href="#Dégradé_sans_nom_172"/>
  </defs>
  <g id="ICONES">
    <path class="cls-2" d="m8.63,37.9c2.65-2.65,5.48-10.7,5.34-13.04s-4-13.85,4.03-13.85c6,0,4.22,7.55,5.99,10.55s6.59,7.41,4.45,8.98c-1.6,1.18-2.45-.54-8.45-8.54,0,5.26,4.51,13.64,6.08,15.92"/>
    <path class="cls-8" d="m23.23,39.67c-.84.25-1.66.34-2.23.34v12.02c0,1.66-1.34,3-3,3h0c-1.66,0-3-1.34-3-3v-12.02s-1.05,0-2.35-.24"/>
    <circle class="cls-4" cx="20" cy="5" r="3.99"/>
    <circle class="cls-3" cx="40" cy="18" r="3.01"/>
    <path class="cls-5" d="m34.98,33.38v4.63c0,1.33.82,2.45,2.02,2.85v.16s0,11.98,0,11.98c0,1.11.9,2,2,2s2-.9,2-2v-27.09c0-1.66-1.35-3.01-3.01-3.01s-3.01,1.35-3.01,3.01v1.91"/>
    <path class="cls-6" d="m34.98,34.84c-.31.11-.64.16-.98.16h0c-1.66,0-3-1.34-3-3v-3.99c0-1.66,1.34-3,3-3h0c.38,0,.73.07,1.07.19"/>
    <path class="cls-7" d="m41,25.91c0,1.73,3,6.1,7,8.1"/>
  </g>
  <g id="Cadres">
    <rect class="cls-1" x="0" y="0" width="56" height="56"/>
  </g>
</svg>