<svg width="24" height="23" viewBox="0 0 24 23" fill="none" xmlns="http://www.w3.org/2000/svg">
<path d="M20.5722 22.7184H3.4306C3.19484 22.7184 3.00195 22.5255 3.00195 22.2898V8.20013C3.00195 7.96438 3.19484 7.77148 3.4306 7.77148C3.66636 7.77148 3.85925 7.96438 3.85925 8.20013V21.8611H20.1436V8.20013C20.1436 7.96438 20.3365 7.77148 20.5722 7.77148C20.808 7.77148 21.0009 7.96438 21.0009 8.20013V22.2898C21.0009 22.5255 20.808 22.7184 20.5722 22.7184Z" fill="black"/>
<path d="M0.644251 11.0205C0.464218 11.0205 0.284186 10.9434 0.155592 10.7976C-0.075878 10.5276 -0.0458727 10.1204 0.224176 9.88891L11.5833 0.154313C11.8234 -0.0514378 12.1792 -0.0514378 12.4192 0.154313L23.7741 9.88891C24.0441 10.1204 24.0741 10.5276 23.8427 10.7976C23.6112 11.0677 23.204 11.0977 22.9382 10.8662L11.9991 1.49169L1.06433 10.8662C0.944304 10.9691 0.794277 11.0205 0.644251 11.0205Z" fill="black"/>
<path d="M14.1452 10.9352H9.85443C9.61867 10.9352 9.42578 10.7423 9.42578 10.5065V6.21576C9.42578 5.98 9.61867 5.78711 9.85443 5.78711H14.1452C14.381 5.78711 14.5738 5.98 14.5738 6.21576V10.5065C14.5738 10.7423 14.381 10.9352 14.1452 10.9352ZM10.2831 10.0779H13.7165V6.64441H10.2831V10.0779Z" fill="black"/>
<path d="M14.1456 22.7188C13.9098 22.7188 13.7169 22.5259 13.7169 22.2901V16.5205C13.7169 15.5732 12.9454 14.8016 11.998 14.8016C11.0507 14.8016 10.2792 15.5732 10.2792 16.5205V22.2901C10.2792 22.5259 10.0863 22.7188 9.85052 22.7188C9.61477 22.7188 9.42188 22.5259 9.42188 22.2901V16.5205C9.42188 15.1017 10.5749 13.9443 11.998 13.9443C13.4212 13.9443 14.5742 15.0974 14.5742 16.5205V22.2901C14.5742 22.5259 14.3813 22.7188 14.1456 22.7188Z" fill="black"/>
<path d="M3.4306 8.41929C3.19484 8.41929 3.00195 8.2264 3.00195 7.99064V1.50091C3.00195 1.26516 3.19484 1.07227 3.4306 1.07227H6.85979C7.09554 1.07227 7.28843 1.26516 7.28843 1.50091V5.11013C7.28843 5.34589 7.09554 5.53878 6.85979 5.53878C6.62403 5.53878 6.43114 5.34589 6.43114 5.11013V1.92956H3.85925V7.99064C3.85925 8.2264 3.66636 8.41929 3.4306 8.41929Z" fill="black"/>
<path d="M20.5722 22.7184H3.4306C3.19484 22.7184 3.00195 22.5255 3.00195 22.2898V8.20013C3.00195 7.96438 3.19484 7.77148 3.4306 7.77148C3.66636 7.77148 3.85925 7.96438 3.85925 8.20013V21.8611H20.1436V8.20013C20.1436 7.96438 20.3365 7.77148 20.5722 7.77148C20.808 7.77148 21.0009 7.96438 21.0009 8.20013V22.2898C21.0009 22.5255 20.808 22.7184 20.5722 22.7184Z" fill="black"/>
<path d="M0.644251 11.0205C0.464218 11.0205 0.284186 10.9434 0.155592 10.7976C-0.075878 10.5276 -0.0458727 10.1204 0.224176 9.88891L11.5833 0.154313C11.8234 -0.0514378 12.1792 -0.0514378 12.4192 0.154313L23.7741 9.88891C24.0441 10.1204 24.0741 10.5276 23.8427 10.7976C23.6112 11.0677 23.204 11.0977 22.9382 10.8662L11.9991 1.49169L1.06433 10.8662C0.944304 10.9691 0.794277 11.0205 0.644251 11.0205Z" fill="black"/>
<path d="M14.1452 10.9352H9.85443C9.61867 10.9352 9.42578 10.7423 9.42578 10.5065V6.21576C9.42578 5.98 9.61867 5.78711 9.85443 5.78711H14.1452C14.381 5.78711 14.5738 5.98 14.5738 6.21576V10.5065C14.5738 10.7423 14.381 10.9352 14.1452 10.9352ZM10.2831 10.0779H13.7165V6.64441H10.2831V10.0779Z" fill="black"/>
<path d="M14.1456 22.7188C13.9098 22.7188 13.7169 22.5259 13.7169 22.2901V16.5205C13.7169 15.5732 12.9454 14.8016 11.998 14.8016C11.0507 14.8016 10.2792 15.5732 10.2792 16.5205V22.2901C10.2792 22.5259 10.0863 22.7188 9.85052 22.7188C9.61477 22.7188 9.42188 22.5259 9.42188 22.2901V16.5205C9.42188 15.1017 10.5749 13.9443 11.998 13.9443C13.4212 13.9443 14.5742 15.0974 14.5742 16.5205V22.2901C14.5742 22.5259 14.3813 22.7188 14.1456 22.7188Z" fill="black"/>
<path d="M3.4306 8.41929C3.19484 8.41929 3.00195 8.2264 3.00195 7.99064V1.50091C3.00195 1.26516 3.19484 1.07227 3.4306 1.07227H6.85979C7.09554 1.07227 7.28843 1.26516 7.28843 1.50091V5.11013C7.28843 5.34589 7.09554 5.53878 6.85979 5.53878C6.62403 5.53878 6.43114 5.34589 6.43114 5.11013V1.92956H3.85925V7.99064C3.85925 8.2264 3.66636 8.41929 3.4306 8.41929Z" fill="black"/>
</svg>
