<svg width="48" height="48" viewBox="0 0 48 48" fill="none" xmlns="http://www.w3.org/2000/svg">
<g clip-path="url(#clip0_4523_40075)">
<path d="M44.5714 10.0629H44.6895L44.7023 10.0565C46.2601 10.1161 47.5086 11.3952 47.5086 12.9743V16.4105L29.6429 22.7905V22.6686C29.6429 21.681 28.8447 20.8829 27.8571 20.8829H20.1343C19.1467 20.8829 18.3486 21.681 18.3486 22.6686V22.7906L0.5 16.419V12.9829C0.5 11.3741 1.80961 10.0629 3.42857 10.0629H14.5629H15.0629V9.56286V5.28571C15.0629 3.20406 16.7596 1.5 18.8486 1.5H29.1257C31.2153 1.5 32.9114 3.19614 32.9114 5.28571V9.56286V10.0629H33.4114H44.5714ZM31.6971 10.0629H32.1971V9.56286V5.28571C32.1971 3.59637 30.8258 2.21429 29.1257 2.21429H18.8486C17.1592 2.21429 15.7771 3.58563 15.7771 5.28571V9.56286V10.0629H16.2771H31.6971Z" fill="white" stroke="white"/>
<path d="M25.9616 23.1055H22.0273V27.0398H25.9616V23.1055Z" fill="white"/>
<path d="M29.6343 27.4695V26.9695H29.6257V26.5876L47.4914 20.2075V37.0009C47.4914 38.6113 46.1888 39.9209 44.5714 39.9209H3.42C1.80961 39.9209 0.5 38.6182 0.5 37.0009V20.2161L18.34 26.5875V27.4695C18.34 28.457 19.1381 29.2552 20.1257 29.2552H27.8486C28.8361 29.2552 29.6343 28.457 29.6343 27.4695Z" fill="white" stroke="white"/>
</g>
<defs>
<clipPath id="clip0_4523_40075">
<rect width="48" height="48" fill="white"/>
</clipPath>
</defs>
</svg>
