<svg width="40" height="41" viewBox="0 0 40 41" fill="none" xmlns="http://www.w3.org/2000/svg">
<path d="M5.37974 0.471012C6.92308 -0.0796914 8.59718 -0.149231 10.1809 0.27158C11.7646 0.692391 13.1833 1.58375 14.2498 2.82791C15.3162 4.07206 15.9801 5.61046 16.1537 7.23988C16.3274 8.86931 16.0026 10.5131 15.2223 11.954L40 36.734L36.7284 40.0056L11.9484 15.2256C10.5071 16.0028 8.8642 16.3251 7.23612 16.15C5.60804 15.9748 4.07122 15.3106 2.82819 14.2446C1.58516 13.1787 0.694258 11.7612 0.27288 10.1789C-0.148498 8.59655 -0.0805719 6.92369 0.467707 5.38074L5.64351 10.5565C5.96366 10.888 6.34662 11.1524 6.77005 11.3343C7.19347 11.5162 7.64888 11.6119 8.1097 11.6159C8.57053 11.6199 9.02753 11.5321 9.45405 11.3576C9.88058 11.1831 10.2681 10.9254 10.5939 10.5996C10.9198 10.2737 11.1775 9.8862 11.352 9.45967C11.5265 9.03315 11.6143 8.57614 11.6103 8.11532C11.6063 7.6545 11.5106 7.19909 11.3287 6.77566C11.1468 6.35224 10.8824 5.96928 10.5509 5.64913L5.37743 0.468699L5.37974 0.471012ZM29.3661 4.83007L36.7284 0.739404L40 4.01101L35.9093 11.3733L31.8187 12.1923L26.9136 17.0998L23.6397 13.8281L28.5471 8.92073L29.3661 4.83007ZM13.8225 23.6453L17.0941 26.9169L4.82445 39.1866C4.40728 39.6049 3.84588 39.8478 3.25535 39.8655C2.66482 39.8832 2.08989 39.6743 1.64844 39.2817C1.20698 38.889 0.93245 38.3424 0.88112 37.7538C0.82979 37.1653 1.00555 36.5794 1.37237 36.1163L1.55284 35.915L13.8225 23.6453Z" fill="white"/>
</svg>
