<?xml version="1.0" encoding="utf-8"?>
<!-- Generator: Adobe Illustrator 25.2.1, SVG Export Plug-In . SVG Version: 6.00 Build 0)  -->
<svg version="1.1" xmlns="http://www.w3.org/2000/svg" xmlns:xlink="http://www.w3.org/1999/xlink" x="0px" y="0px"
	 viewBox="0 0 56 56" style="enable-background:new 0 0 56 56;" xml:space="preserve">
<style type="text/css">
	.st0{display:none;}
	.st1{display:inline;fill:#2A2A2A;}
	.st2{fill:url(#SVGID_1_);stroke:#FFFFFF;stroke-miterlimit:10;}
	.st3{fill:#03299C;}
	.st4{clip-path:url(#SVGID_3_);fill:#03299C;}
	.st5{clip-path:url(#SVGID_5_);fill:#03299C;}
	.st6{clip-path:url(#SVGID_7_);fill:#03299C;}
	.st7{clip-path:url(#SVGID_9_);fill:#0048B3;}
	.st8{clip-path:url(#SVGID_11_);fill:#03299C;}
	.st9{clip-path:url(#SVGID_13_);fill:#03299C;}
	.st10{clip-path:url(#SVGID_15_);}
	.st11{fill:#FFFFFF;}
	.st12{clip-path:url(#SVGID_19_);fill:#03299C;}
	.st13{fill:none;stroke:#111111;stroke-width:2;stroke-miterlimit:10;}
	.st14{fill:none;stroke:#111111;stroke-width:2;stroke-linecap:square;stroke-miterlimit:10;}
	.st15{fill:#111111;}
	.st16{fill:#2A2A2A;}
	.st17{fill:#0048B3;}
	.st18{fill:none;stroke:#03299C;stroke-width:2;stroke-miterlimit:10;}
	.st19{fill:none;stroke:#03299C;stroke-width:2;stroke-linecap:round;stroke-linejoin:round;stroke-miterlimit:10;}
	.st20{clip-path:url(#SVGID_21_);fill:#03299C;}
	.st21{fill:#000091;}
	.st22{fill:none;}
	.st23{fill:none;stroke:#FFFFFF;stroke-width:3;stroke-linecap:round;stroke-linejoin:round;stroke-miterlimit:10;}
	.st24{fill:none;stroke:#FFFFFF;stroke-width:3;stroke-linecap:round;stroke-linejoin:round;}
	.st25{fill:none;stroke:#FFFFFF;stroke-width:2.5;stroke-linecap:round;stroke-linejoin:round;stroke-miterlimit:10;}
	.st26{fill:none;stroke:#DD12DD;stroke-miterlimit:10;}
	.st27{fill:none;stroke:#FFFFFF;stroke-width:2;stroke-miterlimit:10;}
	.st28{fill:#FFFFFF;stroke:#03299C;stroke-width:5;stroke-miterlimit:10;}
	.st29{fill:none;stroke:#FFFFFF;stroke-miterlimit:10;}
	.st30{fill:#FFFFFF;stroke:#FFFFFF;stroke-miterlimit:10;}
	.st31{filter:url(#Adobe_OpacityMaskFilter);}
	.st32{mask:url(#SVGID_22_);}
	.st33{fill:#5770BE;}
	.st34{fill:#ABB8DF;}
	.st35{fill:#FFC29E;}
	.st36{fill:#958B62;}
	.st37{fill:#466964;}
	.st38{fill:#FF8D7E;}
	.st39{fill:#FDCF41;}
	.st40{fill:#D1D2DE;}
	.st41{fill:#C8D6A7;}
	.st42{fill:#FFED33;}
	.st43{fill:#7D4E5B;}
	.st44{fill:#9F9F9F;stroke:#000000;stroke-width:0.5;stroke-miterlimit:10;}
	.st45{fill:#404040;stroke:#000000;stroke-width:0.5;stroke-miterlimit:10;}
	.st46{fill:#808080;stroke:#000000;stroke-width:0.5;stroke-miterlimit:10;}
	.st47{fill:#DFDFDF;stroke:#000000;stroke-width:0.5;stroke-miterlimit:10;}
	.st48{stroke:#000000;stroke-width:0.5;stroke-miterlimit:10;}
	.st49{fill:#FF2D2D;}
	.st50{fill:#484D7A;}
	.st51{fill:#FF9940;}
	.st52{opacity:0.9;}
	.st53{fill:#0067E2;}
	.st54{fill:#ABCDF5;}
	.st55{clip-path:url(#SVGID_26_);}
	.st56{fill:#01015B;}
	.st57{fill:#F7F6F0;}
	.st58{fill-rule:evenodd;clip-rule:evenodd;fill:#F7F6F0;}
	.st59{fill:#D38742;}
	.st60{fill-rule:evenodd;clip-rule:evenodd;fill:#000090;}
	.st61{fill-rule:evenodd;clip-rule:evenodd;fill:#01015B;}
	.st62{fill:#04518A;stroke:#04518A;stroke-width:0.3287;stroke-miterlimit:10;}
	.st63{fill-rule:evenodd;clip-rule:evenodd;fill:#ABCDF5;}
	.st64{fill-rule:evenodd;clip-rule:evenodd;fill:#75B8F9;}
	.st65{fill:#97BADD;}
	.st66{fill:none;stroke:#ABCDF5;stroke-width:2;stroke-linecap:round;stroke-miterlimit:10;}
	.st67{clip-path:url(#SVGID_28_);fill-rule:evenodd;clip-rule:evenodd;fill:#97BADD;}
	.st68{clip-path:url(#SVGID_30_);}
	.st69{clip-path:url(#SVGID_32_);fill-rule:evenodd;clip-rule:evenodd;fill:#97BADD;}
	.st70{clip-path:url(#SVGID_34_);}
	.st71{clip-path:url(#SVGID_36_);fill-rule:evenodd;clip-rule:evenodd;fill:#97BADD;}
	.st72{fill:#606060;stroke:#000000;stroke-width:0.5;stroke-miterlimit:10;}
	.st73{fill:#BFBFBF;stroke:#000000;stroke-width:0.5;stroke-miterlimit:10;}
	.st74{fill:#202020;stroke:#000000;stroke-width:0.5;stroke-miterlimit:10;}
	.st75{fill:#BE9B31;}
	.st76{fill:#DDB094;}
	.st77{fill:#956052;}
	.st78{fill:#714753;}
	.st79{fill:#80D5C6;}
	.st80{fill:#169B62;}
	.st81{fill:#CAC5B0;}
	.st82{fill:#FF002B;}
	.st83{fill:url(#SVGID_37_);}
	.st84{fill:url(#SVGID_38_);}
	.st85{clip-path:url(#SVGID_40_);}
	.st86{fill:#FF0606;}
	.st87{clip-path:url(#SVGID_44_);fill:#2F29FF;}
	.st88{fill:none;stroke:#E5073F;stroke-width:2.5;stroke-miterlimit:10;}
	.st89{fill:#1D1D1B;}
	.st90{fill:none;stroke:#E5073F;stroke-width:3;stroke-miterlimit:10;}
	.st91{fill:#E5073F;}
</style>
<g id="FOND" class="st0">
	<rect x="-195.3" y="-701.6" class="st1" width="1002.8" height="1242.2"/>
</g>
<g id="Calque_1">
	<g>
		<path class="st22" d="M43.1,8.6c-3.9-0.1-7.8-0.1-11.8,0c-4.6,0.2-7.8,2.5-9.6,6.7c-0.1,0.3-0.2,0.7-0.3,1.2
			c4.4-0.1,8.7-0.2,12.4,2.6c3.6,2.8,5.4,6.4,5.6,10.4c1.2,1.1,2.2,1.8,3.1,2.6c0.9,0.8,1.7,1.8,2.5,2.6c0.1-0.1,0.2-0.1,0.4-0.2
			c0-1,0.1-2,0-2.9c-0.2-1.3,0.4-1.8,1.5-2.2c4.7-1.8,7.5-6.8,6.7-11.6C52.5,12.5,48.3,8.7,43.1,8.6z"/>
		<path class="st11" d="M55.7,16.7c-1.2-5.8-5.9-10.1-11.8-10.4c-4.3-0.3-8.7-0.3-13,0c-6,0.4-9.9,3.7-11.9,9.4
			c-0.1,0.3-0.2,0.6-0.4,1c-0.9,0-1.8,0-2.6,0c-2.6,0-5.3-0.1-7.7,1.1C3,20.1,0,24.2,0,30c0,5.7,2.8,9.9,8,12.4
			c0.9,0.4,1.3,0.9,1.2,1.9c-0.1,1.5,0,3.1,0,4.6c0,0.4,0.3,0.7,0.5,1.1c0.4-0.2,0.8-0.3,1.1-0.5c1.6-1.6,3.3-3.2,4.9-4.9
			c0.7-0.8,1.5-1,2.5-1c3.1,0,6.2,0.3,9.2-0.1c6.3-0.8,10.1-4.5,11.9-10.8c0.4,0.3,0.7,0.5,1,0.8c1.4,1.4,2.8,2.9,4.3,4.2
			c0.5,0.4,1.5,0.7,2.1,0.5c0.5-0.2,1-1.1,1.1-1.8c0.2-1,0.1-2,0-3c-0.1-1.2,0.3-1.8,1.4-2.4C54.2,28.2,56.9,22.3,55.7,16.7z
			 M15.6,31.7h-3.1v-3.2h3.1V31.7z M21.2,31.7h-3.1v-3.2h3.1V31.7z M26.7,31.7h-3.1v-3.2h3.1V31.7z M46.8,29.4
			c-1.2,0.4-1.7,0.9-1.5,2.2c0.1,1,0,2,0,2.9c-0.1,0.1-0.2,0.1-0.4,0.2c-0.8-0.9-1.6-1.8-2.5-2.6c-0.9-0.8-1.8-1.6-3.1-2.6
			c-0.1-4-2-7.6-5.6-10.4c-3.7-2.8-7.9-2.7-12.4-2.6c0.1-0.5,0.2-0.9,0.3-1.2c1.8-4.2,5.1-6.6,9.6-6.7c3.9-0.2,7.8-0.1,11.8,0
			c5.2,0.1,9.4,3.9,10.3,9.2C54.3,22.6,51.5,27.6,46.8,29.4z"/>
	</g>
	<rect x="0" y="-0.1" class="st22" width="56" height="56"/>
</g>
</svg>
