<?xml version="1.0" encoding="UTF-8"?>
<svg xmlns="http://www.w3.org/2000/svg" xmlns:xlink="http://www.w3.org/1999/xlink" viewBox="0 0 56 56">
  <defs>
    <style>
      .cls-1 {
        stroke-width: 0px;
      }

      .cls-1, .cls-2, .cls-3, .cls-4, .cls-5, .cls-6 {
        fill: none;
      }

      .cls-2 {
        stroke: url(#Dégradé_sans_nom_108);
      }

      .cls-2, .cls-3, .cls-4, .cls-5, .cls-6 {
        stroke-linecap: round;
        stroke-linejoin: round;
        stroke-width: 2px;
      }

      .cls-3 {
        stroke: url(#Dégradé_sans_nom_140);
      }

      .cls-4 {
        stroke: url(#Dégradé_sans_nom_108-3);
      }

      .cls-5 {
        stroke: url(#Dégradé_sans_nom_108-2);
      }

      .cls-6 {
        stroke: url(#Dégradé_sans_nom_108-4);
      }
    </style>
    <linearGradient id="Dégradé_sans_nom_108" data-name="Dégradé sans nom 108" x1="3.31" y1="49.48" x2="19.9" y2="20.74" gradientUnits="userSpaceOnUse">
      <stop offset="0" stop-color="#000091"/>
      <stop offset=".15" stop-color="#020494"/>
      <stop offset=".32" stop-color="#0a129f"/>
      <stop offset=".5" stop-color="#1729b1"/>
      <stop offset=".69" stop-color="#294aca"/>
      <stop offset=".89" stop-color="#4173e9"/>
      <stop offset="1" stop-color="#518fff"/>
    </linearGradient>
    <linearGradient id="Dégradé_sans_nom_108-2" data-name="Dégradé sans nom 108" x1="7.45" y1="42.41" x2="14.08" y2="30.92" xlink:href="#Dégradé_sans_nom_108"/>
    <linearGradient id="Dégradé_sans_nom_108-3" data-name="Dégradé sans nom 108" x1="29.58" y1="26.27" x2="42.6" y2="3.73" xlink:href="#Dégradé_sans_nom_108"/>
    <linearGradient id="Dégradé_sans_nom_108-4" data-name="Dégradé sans nom 108" x1="32.56" y1="18.22" x2="38.22" y2="8.42" xlink:href="#Dégradé_sans_nom_108"/>
    <linearGradient id="Dégradé_sans_nom_140" data-name="Dégradé sans nom 140" x1="35.05" y1="42.5" x2="47.35" y2="21.18" gradientUnits="userSpaceOnUse">
      <stop offset="0" stop-color="#ce0500"/>
      <stop offset=".39" stop-color="#e1000f"/>
      <stop offset="1" stop-color="#ea353c"/>
    </linearGradient>
  </defs>
  <g id="ICONES">
    <polyline class="cls-2" points="25.02 47 1 47 1 10.99 29.28 47"/>
    <polyline class="cls-5" points="14.17 37.3 7.02 28 7.02 41 17.01 41"/>
    <path class="cls-4" d="m50.24,13.99c-2.1-6.39-8.12-11-15.22-11-8.85,0-16.02,7.17-16.02,16.02h32.04"/>
    <path class="cls-6" d="m42.81,13.99h-15.58c1.38-2.91,4.35-4.92,7.79-4.92,1.93,0,3.72.64,5.16,1.71"/>
    <path class="cls-3" d="m51,24.44c-2.72,8.45-10.65,14.57-20,14.57"/>
  </g>
  <g id="Cadres">
    <rect class="cls-1" x="0" y="0" width="56" height="56"/>
  </g>
</svg>