<?xml version="1.0" encoding="UTF-8"?>
<svg xmlns="http://www.w3.org/2000/svg" xmlns:xlink="http://www.w3.org/1999/xlink" viewBox="0 0 56 56">
  <defs>
    <style>
      .cls-1 {
        stroke-width: 0px;
      }

      .cls-1, .cls-2, .cls-3, .cls-4, .cls-5 {
        fill: none;
      }

      .cls-2 {
        stroke: url(#Dégradé_sans_nom_108);
      }

      .cls-2, .cls-3, .cls-4, .cls-5 {
        stroke-linecap: round;
        stroke-linejoin: round;
        stroke-width: 2px;
      }

      .cls-3 {
        stroke: url(#Dégradé_sans_nom_140);
      }

      .cls-4 {
        stroke: url(#Dégradé_sans_nom_108-3);
      }

      .cls-5 {
        stroke: url(#Dégradé_sans_nom_108-2);
      }
    </style>
    <linearGradient id="Dégradé_sans_nom_108" data-name="Dégradé sans nom 108" x1="3.85" y1="44.31" x2="13.15" y2="28.2" gradientUnits="userSpaceOnUse">
      <stop offset="0" stop-color="#000091"/>
      <stop offset=".15" stop-color="#020494"/>
      <stop offset=".32" stop-color="#0a129f"/>
      <stop offset=".5" stop-color="#1729b1"/>
      <stop offset=".69" stop-color="#294aca"/>
      <stop offset=".89" stop-color="#4173e9"/>
      <stop offset="1" stop-color="#518fff"/>
    </linearGradient>
    <linearGradient id="Dégradé_sans_nom_108-2" data-name="Dégradé sans nom 108" x1="44.67" y1="36.44" x2="46.35" y2="33.52" xlink:href="#Dégradé_sans_nom_108"/>
    <linearGradient id="Dégradé_sans_nom_140" data-name="Dégradé sans nom 140" x1="3" y1="26.5" x2="53" y2="26.5" gradientUnits="userSpaceOnUse">
      <stop offset="0" stop-color="#ce0500"/>
      <stop offset=".39" stop-color="#e1000f"/>
      <stop offset="1" stop-color="#ea353c"/>
    </linearGradient>
    <linearGradient id="Dégradé_sans_nom_108-3" data-name="Dégradé sans nom 108" x1="12.75" y1="54.41" x2="43.24" y2="1.59" xlink:href="#Dégradé_sans_nom_108"/>
  </defs>
  <g id="ICONES">
    <line class="cls-2" x1="16" y1="31" x2=".99" y2="41.5"/>
    <line class="cls-5" x1="40" y1="31" x2="51.02" y2="38.95"/>
    <polyline class="cls-3" points="4 18 28 34.99 52 18"/>
    <path class="cls-4" d="m48.99,49H6.99c-3.31,0-6-2.69-6-6V12.99c0-3.31,2.69-6,6-6h42c3.31,0,6,2.69,6,6v30.01c0,3.31-2.69,6-6,6Z"/>
  </g>
  <g id="Cadres">
    <rect class="cls-1" y="0" width="56" height="56"/>
  </g>
</svg>