<?xml version="1.0" encoding="UTF-8"?>
<svg xmlns="http://www.w3.org/2000/svg" xmlns:xlink="http://www.w3.org/1999/xlink" viewBox="0 0 56 56">
  <defs>
    <style>
      .cls-1 {
        stroke-width: 0px;
      }

      .cls-1, .cls-2, .cls-3, .cls-4, .cls-5, .cls-6, .cls-7, .cls-8, .cls-9, .cls-10 {
        fill: none;
      }

      .cls-2 {
        stroke: url(#Dégradé_sans_nom_75-3);
      }

      .cls-2, .cls-3, .cls-4, .cls-5, .cls-6, .cls-7, .cls-8, .cls-9, .cls-10 {
        stroke-linecap: round;
        stroke-linejoin: round;
        stroke-width: 2px;
      }

      .cls-3 {
        stroke: url(#Dégradé_sans_nom_75-2);
      }

      .cls-4 {
        stroke: url(#Dégradé_sans_nom_75);
      }

      .cls-5 {
        stroke: url(#Dégradé_sans_nom_172);
      }

      .cls-5, .cls-6, .cls-7, .cls-8, .cls-9, .cls-10 {
        fill-rule: evenodd;
      }

      .cls-6 {
        stroke: url(#Dégradé_sans_nom_172-4);
      }

      .cls-7 {
        stroke: url(#Dégradé_sans_nom_172-5);
      }

      .cls-8 {
        stroke: url(#Dégradé_sans_nom_172-2);
      }

      .cls-9 {
        stroke: url(#Dégradé_sans_nom_172-3);
      }

      .cls-10 {
        stroke: url(#Dégradé_sans_nom_172-6);
      }
    </style>
    <linearGradient id="Dégradé_sans_nom_75" data-name="Dégradé sans nom 75" x1="9.43" y1="44.09" x2="24.56" y2="17.89" gradientUnits="userSpaceOnUse">
      <stop offset="0" stop-color="#e1000f"/>
      <stop offset=".99" stop-color="#ff1717"/>
    </linearGradient>
    <linearGradient id="Dégradé_sans_nom_75-2" data-name="Dégradé sans nom 75" x1="3.46" y1="45.84" x2="12.52" y2="30.15" xlink:href="#Dégradé_sans_nom_75"/>
    <linearGradient id="Dégradé_sans_nom_172" data-name="Dégradé sans nom 172" x1="24.83" y1="49.23" x2="33.53" y2="34.17" gradientUnits="userSpaceOnUse">
      <stop offset="0" stop-color="#6a6af4"/>
      <stop offset=".18" stop-color="#8585f6"/>
      <stop offset="1" stop-color="#9797f7"/>
    </linearGradient>
    <linearGradient id="Dégradé_sans_nom_172-2" data-name="Dégradé sans nom 172" x1="47.64" y1="43.89" x2="50.32" y2="39.25" xlink:href="#Dégradé_sans_nom_172"/>
    <linearGradient id="Dégradé_sans_nom_172-3" data-name="Dégradé sans nom 172" x1="34.37" y1="37.03" x2="43.91" y2="20.5" xlink:href="#Dégradé_sans_nom_172"/>
    <linearGradient id="Dégradé_sans_nom_172-4" data-name="Dégradé sans nom 172" x1="34.38" y1="29.25" x2="44.96" y2="10.93" xlink:href="#Dégradé_sans_nom_172"/>
    <linearGradient id="Dégradé_sans_nom_172-5" data-name="Dégradé sans nom 172" x1="26.45" y1="31.35" x2="30.34" y2="24.61" xlink:href="#Dégradé_sans_nom_172"/>
    <linearGradient id="Dégradé_sans_nom_172-6" data-name="Dégradé sans nom 172" x1="34.36" y1="44.06" x2="36.16" y2="40.94" xlink:href="#Dégradé_sans_nom_172"/>
    <linearGradient id="Dégradé_sans_nom_75-3" data-name="Dégradé sans nom 75" x1="-1.72" y1="46.61" x2="3.58" y2="37.43" xlink:href="#Dégradé_sans_nom_75"/>
  </defs>
  <g id="ICONES">
    <rect class="cls-4" x="15" y="14.99" width="3.98" height="32.01" rx="1.99" ry="1.99"/>
    <rect class="cls-3" x="6" y="28.99" width="3.98" height="18" rx="1.99" ry="1.99"/>
    <path class="cls-5" d="m22.96,47c0-2.02,1-5,7-5,2.38,0,5.04-.96,5.04-5.82"/>
    <path class="cls-8" d="m42.96,36.16c0,2.92,1,5.83,7,5.83,2.38,0,5.04,2,5.04,4.99"/>
    <path class="cls-9" d="m29.71,22.57c-.47,1.22-.73,2.56-.73,3.96,0,5.82,4.48,10.53,10,10.53s10-4.71,10-10.53c0-.48-.03-.95-.09-1.42,0,0,3.07-.11,3.07,2.89s-2.29,3.25-4,3.17"/>
    <path class="cls-6" d="m39.95,19.09l-.99,1.97-13.07,2.13s-.27-12.55,13.07-12.2,13,12.2,13,12.2l-8.03-2.09"/>
    <path class="cls-7" d="m29.82,30.76c-4.68,1.8-5.35-6.39-.74-5.72"/>
    <path class="cls-10" d="m32.93,41.24c1.03,1.74,1.6,2.32,5.02,1.9"/>
    <line class="cls-2" x1=".93" y1="46.99" x2=".93" y2="37.06"/>
  </g>
  <g id="Cadres">
    <rect class="cls-1" y="0" width="56" height="56"/>
  </g>
</svg>