<?xml version="1.0" encoding="utf-8"?>
<!-- Generator: Adobe Illustrator 25.2.1, SVG Export Plug-In . SVG Version: 6.00 Build 0)  -->
<svg version="1.1" xmlns="http://www.w3.org/2000/svg" xmlns:xlink="http://www.w3.org/1999/xlink" x="0px" y="0px"
	 viewBox="0 0 56 56" style="enable-background:new 0 0 56 56;" xml:space="preserve">
<style type="text/css">
	.st0{display:none;}
	.st1{display:inline;fill:#2A2A2A;}
	.st2{fill:#FFFFFF;}
	.st3{fill:none;stroke:#FFFFFF;stroke-width:3;stroke-linecap:round;stroke-linejoin:round;stroke-miterlimit:10;}
	.st4{fill:none;stroke:#FFFFFF;stroke-width:3;stroke-linecap:round;stroke-linejoin:round;}
	.st5{fill:none;}
	.st6{fill:#FF002B;}
	.st7{fill:url(#SVGID_1_);}
	.st8{fill:url(#SVGID_2_);}
	.st9{clip-path:url(#SVGID_4_);}
	.st10{fill:#FF0606;}
</style>
<g id="FOND" class="st0">
	<rect x="-2.9" y="-990.3" class="st1" width="1002.8" height="1242.2"/>
</g>
<g id="Calque_1">
	<rect x="0" y="0" class="st5" width="56" height="56"/>
	<g>
		<path class="st2" d="M31,53.2H12.7C9,53.2,6,50.1,6,46.3V9.7c0-3.8,3-6.9,6.7-6.9H31c3.7,0,6.7,3.1,6.7,6.9v36.6
			C37.7,50.1,34.7,53.2,31,53.2z M12.7,6.8c-1.5,0-2.7,1.3-2.7,2.9v36.6c0,1.6,1.2,2.9,2.7,2.9H31c1.5,0,2.7-1.3,2.7-2.9V9.7
			c0-1.6-1.2-2.9-2.7-2.9H12.7z"/>
		<g>
			<path class="st2" d="M54.4,29.4l-18.6,0.2c-0.9,0-1.6-0.7-1.6-1.6s0.7-1.6,1.6-1.6l15.2-0.2l-3.7-4.5c-0.6-0.7-0.5-1.7,0.2-2.3
				c0.7-0.6,1.7-0.5,2.3,0.2l5.9,7.1c0.4,0.5,0.5,1.2,0.2,1.7C55.6,29,55,29.4,54.4,29.4z"/>
			<path class="st2" d="M48.5,36.5c-0.4,0-0.7-0.1-1-0.4c-0.7-0.6-0.8-1.6-0.2-2.3l5.9-7.1c0.6-0.7,1.6-0.8,2.3-0.2
				c0.7,0.6,0.8,1.6,0.2,2.3l-5.9,7.1C49.4,36.3,48.9,36.5,48.5,36.5z"/>
		</g>
		<path class="st2" d="M21.5,29.6H1.6C0.7,29.6,0,28.9,0,28v0c0-0.9,0.7-1.6,1.6-1.6h19.8c0.9,0,1.6,0.7,1.6,1.6v0
			C23.1,28.9,22.4,29.6,21.5,29.6z"/>
	</g>
</g>
</svg>
