<?xml version="1.0" encoding="UTF-8"?>
<svg xmlns="http://www.w3.org/2000/svg" xmlns:xlink="http://www.w3.org/1999/xlink" viewBox="0 0 24 24">
  <defs>
    <style>
      .cls-1, .cls-2 {
        fill: none;
      }

      .cls-1, .cls-3, .cls-4, .cls-5 {
        stroke-width: 0px;
      }

      .cls-2 {
        stroke: url(#Dégradé_sans_nom_172);
        stroke-linecap: round;
        stroke-linejoin: round;
        stroke-width: 2px;
      }

      .cls-3 {
        fill: url(#Dégradé_sans_nom_75-3);
      }

      .cls-4 {
        fill: url(#Dégradé_sans_nom_75-2);
      }

      .cls-5 {
        fill: url(#Dégradé_sans_nom_75);
      }
    </style>
    <linearGradient id="Dégradé_sans_nom_172" data-name="Dégradé sans nom 172" x1="7.73" y1="19.42" x2="16.04" y2="5.02" gradientUnits="userSpaceOnUse">
      <stop offset="0" stop-color="#6a6af4"/>
      <stop offset=".18" stop-color="#8585f6"/>
      <stop offset="1" stop-color="#9797f7"/>
    </linearGradient>
    <linearGradient id="Dégradé_sans_nom_75" data-name="Dégradé sans nom 75" x1="13" y1="7" x2="15" y2="7" gradientUnits="userSpaceOnUse">
      <stop offset="0" stop-color="#e1000f"/>
      <stop offset=".99" stop-color="#ff1717"/>
    </linearGradient>
    <linearGradient id="Dégradé_sans_nom_75-2" data-name="Dégradé sans nom 75" x1="17.5" x2="19.5" xlink:href="#Dégradé_sans_nom_75"/>
    <linearGradient id="Dégradé_sans_nom_75-3" data-name="Dégradé sans nom 75" x1="22" y1="7" x2="24" y2="7" xlink:href="#Dégradé_sans_nom_75"/>
  </defs>
  <g id="ICONES">
    <path class="cls-2" d="m21.2,22.91C10.05,22.91,1.07,13.93,1.07,2.78c0-.96.87-1.82,1.83-1.82h3.66c.96,0,1.83.87,1.83,1.83,0,1.35.35,2.4.76,3.67.2.63.2,1.35-.26,1.81l-2.35,2.37c1.55,2.86,4.96,5.23,7.81,6.77l1.35-2.33c.46-.46,1.21-.46,1.83-.26,1.28.42,2.31.76,3.66.76.96,0,1.83.87,1.83,1.83v3.68c0,.96-.87,1.81-1.82,1.81Z"/>
    <circle class="cls-5" cx="14" cy="7" r="1"/>
    <circle class="cls-4" cx="18.5" cy="7" r="1"/>
    <circle class="cls-3" cx="23" cy="7" r="1"/>
  </g>
  <g id="Cadres">
    <rect class="cls-1" x="0" y="0" width="24" height="24"/>
  </g>
</svg>