<svg width="57" height="57" viewBox="0 0 57 57" fill="none" xmlns="http://www.w3.org/2000/svg">
<g clip-path="url(#clip0_248_13603)">
<path d="M4.99002 29.5H3.02002V33H4.99002V29.5Z" fill="white"/>
<path d="M4.99002 27.5H3.02002V29.5H4.99002V27.5Z" fill="white"/>
<path d="M40.01 45.51C40.84 45.51 41.51 44.84 41.51 44.01C41.51 43.18 40.84 42.51 40.01 42.51H26.98V45.51H40.01Z" fill="white"/>
<path d="M54.52 29.5C55.07 29.5 55.52 29.05 55.52 28.5C55.52 27.95 55.07 27.5 54.52 27.5H53.02V29.5H54.52Z" fill="white"/>
<path d="M1.52002 27.5C0.97002 27.5 0.52002 27.95 0.52002 28.5C0.52002 29.05 0.97002 29.5 1.52002 29.5H3.02002V27.5H1.52002Z" fill="white"/>
<path d="M5.98999 29.5H4.98999V33H5.98999V29.5Z" fill="white"/>
<path d="M5.98999 24.01C5.98999 23.32 6.54999 22.76 7.23999 22.76H24.73C25.42 22.76 25.98 23.32 25.98 24.01V27.51H26.98V24.01C26.98 22.77 25.97 21.76 24.73 21.76H7.23999C5.99999 21.76 4.98999 22.77 4.98999 24.01V27.51H5.98999V24.01Z" fill="white"/>
<path d="M26.98 29.5H25.98V33H26.98V29.5Z" fill="white"/>
<path d="M26.98 36H25.98V42.51H26.98V36Z" fill="white"/>
<path d="M5.98999 27.5H4.98999V29.5H5.98999V27.5Z" fill="white"/>
<path d="M26.98 27.5H25.98V29.5H26.98V27.5Z" fill="white"/>
<path d="M26.98 42.51H25.98V45.51H26.98V42.51Z" fill="white"/>
<path d="M26.98 33H25.98V36H26.98V33Z" fill="white"/>
<path d="M5.98999 33H4.98999V33.75H5.98999V33Z" fill="white"/>
<path d="M7.23999 23.76H24.73C24.87 23.76 24.98 23.87 24.98 24.01V27.51H25.98V24.01C25.98 23.32 25.42 22.76 24.73 22.76H7.23999C6.54999 22.76 5.98999 23.32 5.98999 24.01V27.51H6.98999V24.01C6.98999 23.87 7.09999 23.76 7.23999 23.76Z" fill="white"/>
<path d="M6.98999 29.5H5.98999V33H6.98999V29.5Z" fill="white"/>
<path d="M25.98 29.5H24.98V33H25.98V29.5Z" fill="white"/>
<path d="M25.98 36H24.98V42.51H25.98V36Z" fill="white"/>
<path d="M25.98 27.5H24.98V29.5H25.98V27.5Z" fill="white"/>
<path d="M6.98999 27.5H5.98999V29.5H6.98999V27.5Z" fill="white"/>
<path d="M25.98 42.51H24.98V45.51H25.98V42.51Z" fill="white"/>
<path d="M6.98999 33H5.98999V33.75H6.98999V33Z" fill="white"/>
<path d="M25.98 33H24.98V46.05H25.98V33Z" fill="white"/>
<path d="M35.23 36L36.92 43.01H25.98V45.01H39.46L36.8 34H25.98V36H35.23Z" fill="white"/>
<path d="M25.98 33H24.98V34H25.98V33Z" fill="white"/>
<path d="M25.98 45.01H24.98V46.05H25.98V45.01Z" fill="white"/>
<path d="M25.98 36H24.98V43.01H25.98V36Z" fill="white"/>
<path d="M25.98 34H24.98V36H25.98V34Z" fill="white"/>
<path d="M25.98 43.01H24.98V45.01H25.98V43.01Z" fill="white"/>
<path d="M9.78001 32.75C10.44 32.75 10.97 33.22 10.97 33.81L10.94 49.7C10.94 50.28 10.41 50.76 9.75001 50.76H2.19001C1.53001 50.76 1.00001 50.29 1.00001 49.7L1.03001 35.36C0.50001 34.92 0.14001 34.3 0.0600098 33.59C0.0600098 33.66 0.0400098 33.73 0.0400098 33.81L0.0100098 49.7C0.0100098 50.84 0.99001 51.76 2.20001 51.76H9.75001C10.96 51.76 11.94 50.84 11.94 49.7L11.97 33.81C11.97 32.67 10.99 31.75 9.78001 31.75H3.02001V32.75H9.78001Z" fill="white"/>
<path d="M0.0500488 33.58C0.140049 34.29 0.500049 34.92 1.02005 35.35V33.8C1.02005 33.22 1.56005 32.74 2.22005 32.74H3.02005V31.74H2.22005C1.09005 31.74 0.170049 32.55 0.0500488 33.58Z" fill="white"/>
<path d="M2.18999 50.76H9.73999C10.4 50.76 10.93 50.29 10.93 49.7L10.96 33.81C10.96 33.23 10.43 32.75 9.76999 32.75H3.01999V33H4.98999V33.75H9.77999C9.89999 33.75 9.96999 33.81 9.96999 33.81L9.93999 49.68C9.93999 49.68 9.85999 49.76 9.73999 49.76H2.18999C2.06999 49.76 1.99999 49.7 1.99999 49.7L2.01999 35.88C1.64999 35.77 1.30999 35.6 1.01999 35.36L0.98999 49.7C0.98999 50.28 1.51999 50.76 2.17999 50.76H2.18999Z" fill="white"/>
<path d="M2.03003 33.82C2.03003 33.82 2.11003 33.74 2.23003 33.74H4.99003V32.99H3.02003V32.74H2.22003C1.56003 32.74 1.03003 33.21 1.03003 33.8V35.35C1.32003 35.59 1.65003 35.77 2.02003 35.87V33.81L2.03003 33.82Z" fill="white"/>
<path d="M15.98 47.01C16.5323 47.01 16.98 46.5623 16.98 46.01C16.98 45.4577 16.5323 45.01 15.98 45.01C15.4277 45.01 14.98 45.4577 14.98 46.01C14.98 46.5623 15.4277 47.01 15.98 47.01Z" fill="white"/>
<path d="M5.98999 47.01C6.54227 47.01 6.98999 46.5623 6.98999 46.01C6.98999 45.4577 6.54227 45.01 5.98999 45.01C5.43771 45.01 4.98999 45.4577 4.98999 46.01C4.98999 46.5623 5.43771 47.01 5.98999 47.01Z" fill="white"/>
<path d="M8.30004 36.75H3.67004C3.39004 36.75 3.17004 36.53 3.17004 36.25C3.17004 35.97 3.39004 35.75 3.67004 35.75H8.30004C8.58004 35.75 8.80004 35.97 8.80004 36.25C8.80004 36.53 8.58004 36.75 8.30004 36.75Z" fill="white"/>
<path d="M18.3 26.76H13.67C13.39 26.76 13.17 26.54 13.17 26.26C13.17 25.98 13.39 25.76 13.67 25.76H18.3C18.58 25.76 18.8 25.98 18.8 26.26C18.8 26.54 18.58 26.76 18.3 26.76Z" fill="white"/>
<path d="M24.03 18.9C23.77 18.9 23.52 18.8 23.32 18.61C22.93 18.22 22.93 17.59 23.32 17.2L33.22 7.3C33.61 6.91 34.24 6.91 34.63 7.3C35.02 7.69 35.02 8.32 34.63 8.71L24.73 18.61C24.53 18.81 24.28 18.9 24.02 18.9H24.03Z" fill="white"/>
<path d="M31.02 19.73C30.76 19.73 30.51 19.63 30.31 19.44C29.92 19.05 29.92 18.42 30.31 18.03L34.31 14.03C34.7 13.64 35.33 13.64 35.72 14.03C36.11 14.42 36.11 15.05 35.72 15.44L31.72 19.44C31.52 19.64 31.27 19.73 31.01 19.73H31.02Z" fill="white"/>
<path d="M25.98 45.51V49.51C25.98 50.2 25.42 50.76 24.73 50.76H7.24001C6.64001 50.76 6.16001 50.33 6.04001 49.76H5.01001C5.14001 50.88 6.08001 51.76 7.23001 51.76H24.73C25.97 51.76 26.98 50.75 26.98 49.51V45.51H25.98Z" fill="white"/>
<path d="M6.04004 49.76C6.16004 50.33 6.64004 50.76 7.24004 50.76H24.73C25.42 50.76 25.98 50.2 25.98 49.51V45.51H24.98V49.51C24.98 49.65 24.87 49.76 24.73 49.76H6.04004Z" fill="white"/>
<path d="M51.5 0H4.52003C2.04003 0 0.0300293 2.02 0.0300293 4.5V31.5C0.0300293 32.26 0.240029 32.96 0.570029 33.58L0.660029 33L1.54003 32.21L5.60003 32.43L6.90003 31H5.04003V5H51V31H25.98V36H51.49C53.97 36 55.99 33.98 55.99 31.5V4.5C56 2.02 53.98 0 51.5 0Z" fill="white"/>
</g>
<defs>
<clipPath id="clip0_248_13603">
<rect width="56.01" height="56.01" fill="white"/>
</clipPath>
</defs>
</svg>
