<svg width="48" height="48" viewBox="0 0 48 48" fill="none" xmlns="http://www.w3.org/2000/svg">
<g clip-path="url(#clip0_4524_40145)">
<path d="M39.1547 37.2328L43.5812 41.6594L40.6245 44.6076L36.1979 40.181L32.5063 46.8209L26.4219 27.4141L45.7945 33.5326L39.1547 37.2243V37.2328Z" fill="white"/>
<path d="M24.0043 0C10.7673 0 0 10.7673 0 24.0043C0 37.2412 10.7673 48.0085 24.0043 48.0085C25.7305 48.0085 27.4139 47.8205 29.0376 47.4702L28.4992 44.9578C28.3967 44.9834 28.3027 45.0091 28.2001 45.0347C28.2343 45.0091 28.2599 44.9834 28.2941 44.9664C28.3539 44.9236 28.4137 44.8724 28.4736 44.8296L28.1659 43.3854C28.0976 43.4453 28.0377 43.5051 27.9694 43.5649C27.8497 43.6674 27.7301 43.77 27.6105 43.864C27.5165 43.9324 27.431 44.0093 27.337 44.0776C27.2174 44.1631 27.0892 44.2485 26.9696 44.3254C26.8756 44.3853 26.7816 44.4451 26.6876 44.4964C26.5594 44.5733 26.4312 44.6331 26.303 44.7014C26.209 44.7442 26.1236 44.7954 26.0296 44.8296C25.8928 44.8894 25.7646 44.9322 25.6279 44.9834C25.5425 45.0176 25.4485 45.0518 25.363 45.0774C25.2177 45.1202 25.0639 45.1544 24.9186 45.18C24.8417 45.1971 24.7648 45.2142 24.6879 45.2313C24.6794 45.2313 24.6623 45.2313 24.6537 45.2313V32.883C24.7135 32.883 24.7648 32.883 24.8246 32.883C25.1921 32.8916 25.5596 32.9172 25.927 32.9429L25.645 31.6439C25.3801 31.6268 25.1152 31.6098 24.8503 31.6012C24.7819 31.6012 24.7221 31.5927 24.6537 31.5927V24.6366H34.3101C34.3101 25.081 34.293 25.5168 34.2759 25.9526C34.2759 26.021 34.2759 26.0808 34.2759 26.1492L35.5492 26.4141C35.5492 26.2432 35.5663 26.0723 35.5663 25.9014C35.5834 25.4826 35.609 25.0639 35.6176 24.6452H45.4449C45.4107 25.9185 45.2484 27.1661 45.0005 28.371L47.5215 28.8923C47.8462 27.3199 48.0256 25.6963 48.0256 24.0299C48 10.7673 37.2327 0 24.0043 0ZM19.6973 2.99947C19.6546 3.03365 19.6033 3.07638 19.5606 3.11056C19.4324 3.2131 19.3043 3.3071 19.1761 3.4182C19.065 3.5122 18.9539 3.62329 18.8513 3.72583C18.7232 3.84547 18.6035 3.95656 18.4753 4.08474C18.3643 4.19583 18.2617 4.31547 18.1592 4.43511C18.0395 4.56329 17.9199 4.70002 17.8002 4.83675C17.6977 4.96493 17.5952 5.09311 17.4926 5.22129C17.3815 5.36657 17.2619 5.51184 17.1508 5.66566C17.0482 5.80239 16.9542 5.94766 16.8602 6.09293C16.7492 6.2553 16.6466 6.41766 16.5355 6.58857C16.4415 6.74239 16.3475 6.89621 16.2535 7.05857C16.151 7.22948 16.0484 7.40894 15.9544 7.58839C15.8604 7.75076 15.775 7.92167 15.6895 8.09258C15.5955 8.28058 15.5015 8.46858 15.4075 8.66512C15.3221 8.84458 15.2451 9.02403 15.1597 9.21204C15.0742 9.40858 14.9802 9.61367 14.8948 9.81876C14.8179 10.0068 14.741 10.2033 14.6641 10.3999C14.5786 10.6135 14.5017 10.8271 14.4248 11.0408C14.3564 11.2459 14.2795 11.451 14.2111 11.656C14.1342 11.8782 14.0659 12.109 13.989 12.3311C13.9206 12.5448 13.8608 12.7584 13.801 12.9806C13.7668 13.1002 13.7326 13.2113 13.6984 13.3395C13.6642 13.3224 13.6215 13.3139 13.5873 13.2968C13.066 13.1002 12.5619 12.8866 12.0748 12.6559C11.9893 12.6131 11.9039 12.5704 11.8099 12.5362C11.3142 12.3055 10.8357 12.0577 10.3828 11.7928C10.3144 11.75 10.2375 11.7073 10.1691 11.6731C9.69913 11.3997 9.24622 11.1177 8.81894 10.8186C8.77621 10.7844 8.73349 10.7588 8.69076 10.7246C8.37458 10.5024 8.08403 10.2631 7.78494 10.0324C10.8271 6.51166 14.9802 3.9822 19.7059 3.01656L19.6973 2.99947ZM6.96457 11.0066C7.34057 11.3057 7.71657 11.6048 8.11821 11.8782C8.28912 11.9979 8.48567 12.109 8.66512 12.22C9.04113 12.4679 9.42567 12.7071 9.82731 12.9379C10.058 13.0661 10.3059 13.1857 10.5451 13.3053C10.9211 13.4933 11.2886 13.6899 11.6817 13.8693C11.9551 13.9975 12.2457 14.1086 12.5277 14.2197C12.8097 14.3393 13.0831 14.4675 13.3822 14.5701C13.2882 14.9717 13.2113 15.3819 13.1344 15.7921C13.0831 16.0313 13.0319 16.2706 12.9891 16.5184C12.8524 17.279 12.7328 18.0566 12.6388 18.8343C12.6388 18.8513 12.6388 18.8684 12.6388 18.8941C12.5448 19.6632 12.485 20.4408 12.4337 21.227C12.4166 21.4919 12.4166 21.7568 12.3995 22.0217C12.3824 22.4575 12.3568 22.8848 12.3482 23.3292H2.58074C2.72601 18.7061 4.33256 14.4504 6.96457 11.0066V11.0066ZM6.96457 36.9849C4.32402 33.5325 2.71746 29.2512 2.58074 24.611H12.3311C12.3311 25.0554 12.3653 25.4912 12.3824 25.927C12.391 26.1919 12.3995 26.4654 12.4166 26.7303C12.4679 27.5336 12.5362 28.3368 12.6302 29.123C12.6302 29.1401 12.6302 29.1658 12.6388 29.1828C12.7328 29.9519 12.8439 30.7039 12.9806 31.4559C13.0233 31.7038 13.0831 31.943 13.1344 32.1908C13.2199 32.601 13.2882 33.0112 13.3822 33.4129C13.0917 33.5239 12.8182 33.6521 12.5362 33.7632C12.2542 33.8829 11.9637 33.9939 11.6817 34.1136C11.2971 34.293 10.9211 34.481 10.5537 34.6776C10.3144 34.8058 10.0666 34.9169 9.83586 35.045C9.43422 35.2672 9.05822 35.515 8.68221 35.7543C8.50276 35.874 8.30621 35.985 8.12676 36.1047C7.72512 36.3867 7.34057 36.6858 6.97312 36.9849H6.96457ZM7.77639 37.9761C8.07549 37.7369 8.36603 37.5061 8.68221 37.284C8.72494 37.2498 8.76767 37.2241 8.8104 37.19C9.23767 36.8909 9.69058 36.6089 10.1606 36.3354C10.2375 36.2927 10.3059 36.25 10.3828 36.2072C10.8442 35.9509 11.3142 35.703 11.8013 35.4723C11.8953 35.4296 11.9808 35.3869 12.0748 35.3441C12.5619 35.122 13.066 34.9083 13.5788 34.7118C13.613 34.6947 13.6557 34.6861 13.6984 34.669C13.7326 34.7972 13.7753 34.9083 13.8095 35.0365C13.8693 35.2587 13.9377 35.4723 14.0061 35.686C14.0744 35.9167 14.1513 36.1474 14.2282 36.3696C14.2966 36.5747 14.3735 36.7883 14.4419 36.9934C14.5188 37.2156 14.6042 37.4292 14.6897 37.6429C14.7666 37.8394 14.8435 38.036 14.9204 38.224C15.0059 38.4291 15.0999 38.6341 15.1853 38.8392C15.2708 39.0272 15.3477 39.2067 15.4331 39.3862C15.5271 39.5827 15.6211 39.7707 15.7237 39.9587C15.8092 40.1296 15.9032 40.3005 15.9886 40.4629C16.0912 40.6509 16.1937 40.8218 16.2962 41.0012C16.3902 41.1551 16.4842 41.3174 16.5782 41.4627C16.6893 41.6336 16.8004 41.796 16.9115 41.9669C17.0055 42.1122 17.0995 42.2489 17.2021 42.3856C17.3217 42.548 17.4413 42.6933 17.561 42.8471C17.655 42.9753 17.7575 43.0949 17.8601 43.2145C17.9882 43.3598 18.1164 43.5051 18.2446 43.6418C18.3472 43.7529 18.4412 43.864 18.5437 43.9665C18.6804 44.1033 18.8172 44.2314 18.9539 44.3511C19.0564 44.4451 19.1504 44.5391 19.253 44.6245C19.3983 44.7442 19.5435 44.8553 19.6973 44.9664C19.7144 44.9749 19.7315 44.992 19.7401 45.0005C15.0059 44.0349 10.8357 41.5054 7.79348 37.9761H7.77639ZM23.3719 45.2056C23.3719 45.2056 23.3121 45.2056 23.2865 45.2056C23.1925 45.1885 23.107 45.1714 23.013 45.1544C22.8763 45.1287 22.7395 45.1031 22.6028 45.0604C22.5088 45.0347 22.4148 45.0005 22.3294 44.9664C22.2012 44.9236 22.0644 44.8724 21.9363 44.8211C21.8423 44.7784 21.7483 44.7356 21.6628 44.6929C21.5346 44.6331 21.4064 44.5647 21.2783 44.4878C21.1843 44.4365 21.0988 44.3767 21.0048 44.3254C20.8766 44.2485 20.757 44.1631 20.6288 44.0691C20.5434 44.0093 20.4494 43.9409 20.3639 43.8725C20.2357 43.7785 20.1161 43.6674 19.9879 43.5649C19.9024 43.488 19.817 43.4196 19.7315 43.3342C19.6033 43.2145 19.4837 43.0949 19.3641 42.9667C19.2872 42.8813 19.2017 42.8043 19.1248 42.7189C18.9966 42.5822 18.877 42.4369 18.7573 42.2831C18.689 42.1976 18.6121 42.1122 18.5437 42.0182C18.4155 41.8473 18.2873 41.6678 18.1592 41.4969C18.0993 41.4114 18.0395 41.3345 17.9797 41.2491C17.8173 41.0098 17.655 40.7534 17.4926 40.4885C17.4755 40.4629 17.4584 40.4287 17.4413 40.4031C17.2619 40.104 17.091 39.7963 16.9286 39.4802C16.8859 39.3947 16.8346 39.2922 16.7919 39.2067C16.6722 38.976 16.5612 38.7452 16.4501 38.4974C16.3902 38.3692 16.339 38.2325 16.2792 38.1043C16.1852 37.8907 16.0912 37.6771 15.9972 37.4463C15.9373 37.2925 15.8775 37.1387 15.8177 36.9849C15.7322 36.7712 15.6553 36.5576 15.5784 36.3354C15.5186 36.173 15.4673 36.0021 15.4075 35.8312C15.3306 35.609 15.2622 35.3869 15.1939 35.1647C15.1426 34.9852 15.0913 34.8058 15.0401 34.6263C15.0059 34.4981 14.9717 34.37 14.9375 34.2503C14.9888 34.2332 15.0401 34.2161 15.0913 34.199C15.6724 34.011 16.2706 33.8487 16.8688 33.6949C16.9542 33.6692 17.0482 33.6521 17.1337 33.635C17.7661 33.4898 18.3984 33.353 19.0393 33.2505C19.6888 33.1394 20.3383 33.0625 21.0048 33.0027C21.0988 32.9941 21.1928 32.9856 21.2868 32.977C21.9192 32.9258 22.5601 32.8916 23.2095 32.8745C23.2694 32.8745 23.3206 32.8745 23.3805 32.8745V45.2227L23.3719 45.2056ZM23.3719 31.567C23.3035 31.567 23.2437 31.5756 23.1754 31.5756C22.5174 31.5927 21.8594 31.6268 21.2014 31.6781C21.0988 31.6781 21.0048 31.6952 20.9023 31.7038C20.2443 31.7636 19.5863 31.849 18.9368 31.9516C18.9112 31.9516 18.8855 31.9516 18.8599 31.9601C18.2019 32.0712 17.5524 32.1994 16.903 32.3532C16.8004 32.3789 16.6893 32.4045 16.5868 32.4301C15.9715 32.5839 15.3648 32.7463 14.7666 32.9343C14.7153 32.9514 14.6641 32.9599 14.6128 32.977C14.5359 32.6267 14.4504 32.2763 14.3821 31.9174C14.3308 31.6696 14.2795 31.4218 14.2282 31.1654C14.1086 30.5074 14.0146 29.8408 13.9291 29.1743C13.9206 29.0888 13.9035 29.0119 13.895 28.935C13.801 28.1745 13.7411 27.3968 13.6899 26.6106C13.6728 26.397 13.6728 26.1748 13.6642 25.9526C13.6471 25.5083 13.6301 25.0554 13.6215 24.6025H23.3634V31.5585L23.3719 31.567ZM23.3719 23.3292H13.6301C13.6301 22.9019 13.6471 22.4746 13.6642 22.0559C13.6728 21.8166 13.6813 21.5688 13.6899 21.3295C13.7411 20.5519 13.801 19.7913 13.895 19.0308C13.9035 18.9453 13.9206 18.8599 13.9291 18.7659C14.0146 18.0993 14.1086 17.4413 14.2282 16.7919C14.271 16.5441 14.3308 16.2962 14.3821 16.0484C14.4504 15.6895 14.5273 15.3391 14.6128 14.9973C14.6555 15.0144 14.7068 15.023 14.7581 15.0401C15.3648 15.2281 15.9715 15.399 16.5953 15.5528C16.6979 15.5784 16.8004 15.5955 16.903 15.6212C17.5524 15.775 18.2019 15.9032 18.8599 16.0142C18.8855 16.0142 18.9112 16.0142 18.9368 16.0228C19.5863 16.1253 20.2443 16.2022 20.9108 16.2706C21.0048 16.2792 21.1074 16.2877 21.2014 16.2962C21.8508 16.3561 22.5088 16.3817 23.1754 16.3988C23.2437 16.3988 23.3035 16.4073 23.3719 16.4073V23.3206V23.3292ZM23.3719 15.1255C23.3121 15.1255 23.2608 15.1255 23.201 15.1255C22.5515 15.1084 21.9106 15.0742 21.2783 15.023C21.1843 15.023 21.0988 15.0059 21.0048 14.9973C19.6803 14.8691 18.3813 14.6555 17.1166 14.365C17.0312 14.3479 16.9372 14.3222 16.8517 14.3051C16.2535 14.1599 15.6724 13.989 15.0913 13.8095C15.0315 13.7924 14.9802 13.7753 14.9204 13.7582C14.9546 13.6386 14.9888 13.5104 15.023 13.3908C15.0742 13.2028 15.1255 13.0233 15.1853 12.8439C15.2537 12.6217 15.3221 12.408 15.3904 12.1944C15.4502 12.0235 15.5015 11.8526 15.5613 11.6817C15.6382 11.468 15.7152 11.2544 15.7921 11.0493C15.8519 10.887 15.9117 10.7331 15.9715 10.5793C16.057 10.3657 16.151 10.1606 16.2364 9.95549C16.2962 9.81876 16.3561 9.67349 16.4159 9.53676C16.5184 9.31458 16.621 9.10094 16.7321 8.89585C16.7833 8.78476 16.8432 8.67367 16.8944 8.56258C17.0312 8.29767 17.1764 8.04985 17.3217 7.80203C17.3473 7.75076 17.373 7.69948 17.4072 7.65676C17.5866 7.35766 17.7661 7.06712 17.9541 6.79366V6.77657C18.1421 6.51166 18.3301 6.2553 18.5181 6.01602C18.5608 5.96475 18.6035 5.91348 18.6463 5.8622C18.8001 5.6742 18.9539 5.4862 19.1077 5.31529C19.159 5.25547 19.2188 5.2042 19.2701 5.14438C19.4153 4.99056 19.5606 4.83675 19.7144 4.69147C19.7743 4.63165 19.8341 4.58038 19.8939 4.52911C20.0392 4.40093 20.1844 4.27274 20.3383 4.15311C20.4066 4.10183 20.4664 4.05911 20.5348 4.00783C20.6801 3.89674 20.8339 3.7942 20.9877 3.7002C21.0561 3.65747 21.1244 3.61474 21.1928 3.58056C21.3466 3.4951 21.4919 3.40965 21.6457 3.33274C21.7141 3.29856 21.791 3.26438 21.8594 3.23019C22.0132 3.16183 22.1584 3.10201 22.3123 3.05074C22.3892 3.0251 22.4661 2.99947 22.5344 2.97383C22.6797 2.9311 22.825 2.89692 22.9788 2.86274C23.0643 2.84565 23.1412 2.82856 23.2266 2.82001C23.2779 2.82001 23.3292 2.81147 23.3719 2.80292V15.1511V15.1255ZM24.6537 2.77728C24.6537 2.77728 24.6794 2.77728 24.6965 2.77728C24.7819 2.78583 24.8588 2.81147 24.9443 2.82856C25.0896 2.85419 25.2263 2.88837 25.3716 2.9311C25.4656 2.95674 25.551 2.99092 25.645 3.0251C25.7732 3.06783 25.9099 3.1191 26.0381 3.17038C26.1321 3.2131 26.2261 3.25583 26.3201 3.3071C26.4483 3.36692 26.5679 3.43529 26.6961 3.50365C26.7901 3.55492 26.8841 3.61474 26.9781 3.67456C27.0977 3.75147 27.2174 3.83692 27.3456 3.92238C27.4396 3.99074 27.5336 4.05911 27.6276 4.13602C27.7472 4.23002 27.8668 4.33256 27.9779 4.43511C28.0719 4.51202 28.1574 4.59747 28.2514 4.68293C28.371 4.79402 28.4821 4.91366 28.6017 5.03329C28.6872 5.11875 28.7727 5.21275 28.8581 5.30675C28.9777 5.43493 29.0888 5.57166 29.1999 5.70839C29.2768 5.80239 29.3623 5.90493 29.4392 5.99893C29.5588 6.15275 29.6699 6.30657 29.7896 6.46893C29.8579 6.57148 29.9348 6.66548 30.0032 6.76803C30.1314 6.95603 30.2596 7.16112 30.3792 7.35766C30.4305 7.44312 30.4818 7.52003 30.533 7.60548C30.7039 7.89603 30.8748 8.20367 31.0458 8.51985C31.0799 8.57967 31.1056 8.64803 31.1398 8.70785C31.2765 8.96422 31.4047 9.22913 31.5328 9.51113C31.5927 9.63076 31.6439 9.75895 31.6952 9.88713C31.7892 10.1093 31.8918 10.3315 31.9772 10.5622C32.037 10.7075 32.0883 10.8613 32.1481 11.0151C32.2336 11.2373 32.3105 11.451 32.3959 11.6817C32.4558 11.844 32.507 12.0064 32.5583 12.1773C32.6352 12.3995 32.7036 12.6302 32.7719 12.8524C32.8232 13.0233 32.8745 13.2028 32.9258 13.3822C32.9599 13.5104 32.9941 13.6386 33.0283 13.7668C32.977 13.7839 32.9258 13.801 32.8659 13.8181C32.2934 13.9975 31.7123 14.1599 31.1141 14.3051C31.0201 14.3308 30.9261 14.3479 30.8407 14.365C30.2168 14.5102 29.593 14.6384 28.9607 14.741H28.9521C28.3112 14.8435 27.6617 14.9204 27.0123 14.9888C26.9183 14.9973 26.8243 15.0059 26.7303 15.0144C26.1065 15.0657 25.4656 15.0999 24.8332 15.117C24.7734 15.117 24.7221 15.117 24.6623 15.117V2.78583L24.6537 2.77728ZM24.6537 23.3292V16.4159C24.7221 16.4159 24.7819 16.4073 24.8503 16.4073C25.5083 16.3902 26.1577 16.3561 26.8072 16.3048C26.9012 16.3048 26.9952 16.2877 27.0892 16.2792C27.7472 16.2193 28.4052 16.1424 29.0461 16.0399C29.0717 16.0399 29.0974 16.0399 29.1145 16.0313C29.7639 15.9288 30.4134 15.7921 31.0458 15.6468C31.1483 15.6212 31.2594 15.5955 31.3619 15.5784C31.9687 15.4332 32.5669 15.2622 33.165 15.0828C33.2163 15.0657 33.2676 15.0571 33.3189 15.0401C33.4043 15.3904 33.4812 15.7493 33.5496 16.1082C33.6009 16.3475 33.6521 16.5868 33.6949 16.8346C33.8145 17.4841 33.9085 18.1506 33.9939 18.8172C34.0025 18.9026 34.0196 18.9795 34.0281 19.065C34.1136 19.817 34.1819 20.5861 34.2332 21.3552C34.2503 21.5944 34.2503 21.8337 34.2589 22.073C34.2759 22.4917 34.293 22.919 34.293 23.3463H24.6366L24.6537 23.3292ZM34.2503 13.3481C34.2161 13.2199 34.1734 13.1088 34.1392 12.9806C34.0794 12.7584 34.011 12.5448 33.9427 12.3311C33.8743 12.1004 33.7974 11.8697 33.7205 11.639C33.6521 11.4339 33.5838 11.2288 33.5069 11.0237C33.4299 10.8015 33.3445 10.5793 33.259 10.3657C33.1821 10.1691 33.1052 9.98113 33.0283 9.79313C32.9429 9.57949 32.8489 9.3744 32.7549 9.16931C32.6694 8.98985 32.5925 8.80185 32.507 8.63094C32.413 8.4344 32.3105 8.23785 32.2165 8.04985C32.131 7.87894 32.0456 7.71658 31.9516 7.55421C31.849 7.36621 31.7465 7.18675 31.6354 7.0073C31.5414 6.85348 31.4559 6.69112 31.3619 6.54584C31.2508 6.37493 31.1398 6.21257 31.0287 6.04166C30.9347 5.89639 30.8321 5.75111 30.7381 5.62293C30.627 5.46911 30.5074 5.31529 30.3878 5.17002C30.2852 5.04184 30.1827 4.91366 30.0801 4.78547C29.9605 4.6402 29.8408 4.51202 29.7127 4.37529C29.6101 4.2642 29.5076 4.14456 29.3965 4.03347C29.2683 3.90529 29.1401 3.7942 29.0119 3.67456C28.9008 3.57201 28.7983 3.46947 28.6872 3.37547C28.559 3.26438 28.4223 3.17038 28.2941 3.06783C28.2599 3.04219 28.2343 3.01656 28.2001 2.99947C32.9599 3.95656 37.1558 6.49457 40.2151 10.0324C39.916 10.2717 39.6254 10.5024 39.3007 10.7246C39.258 10.7588 39.2067 10.793 39.164 10.8271C38.7281 11.1262 38.2752 11.4082 37.8052 11.6817C37.7283 11.7244 37.66 11.7671 37.5831 11.8099C37.113 12.0748 36.6345 12.3226 36.1389 12.5533C36.0534 12.596 35.968 12.6302 35.8825 12.673C35.3783 12.9037 34.8656 13.1173 34.3358 13.3224C34.3016 13.3395 34.2674 13.3481 34.2332 13.3566L34.2503 13.3481ZM35.609 23.3292C35.609 22.8934 35.5749 22.4575 35.5578 22.0217C35.5492 21.7654 35.5407 21.5004 35.5236 21.2441C35.4723 20.4494 35.404 19.6717 35.3185 18.9026V18.8684C35.2245 18.0823 35.1049 17.3132 34.9681 16.5526C34.9254 16.3048 34.8656 16.057 34.8143 15.8092C34.7374 15.4075 34.6605 15.0059 34.5665 14.6042C34.6092 14.5871 34.6519 14.5701 34.6947 14.553C35.2672 14.3393 35.8227 14.1086 36.3696 13.8608C36.455 13.8181 36.5405 13.7839 36.6174 13.7411C37.1643 13.4848 37.6941 13.2199 38.2069 12.9293C38.2752 12.8951 38.3436 12.8524 38.412 12.8097C38.9332 12.5106 39.4374 12.203 39.9074 11.8697C39.9502 11.844 39.9843 11.8099 40.0271 11.7842C40.386 11.5364 40.7192 11.28 41.0525 11.0151C43.676 14.459 45.2825 18.7061 45.4278 23.3292H35.6005H35.609Z" fill="white"/>
</g>
<defs>
<clipPath id="clip0_4524_40145">
<rect width="48" height="48" fill="white"/>
</clipPath>
</defs>
</svg>
