<svg width="48" height="48" viewBox="0 0 48 48" fill="none" xmlns="http://www.w3.org/2000/svg">
<g clip-path="url(#clip0_4523_39908)">
<path d="M28.7727 32.2861C27.9155 32.8861 26.3727 33.4861 24.5727 33.4861C22.2584 33.4861 20.2012 32.629 18.8298 31.0004C17.7155 29.8004 17.0298 28.1718 16.7727 26.1147H14.9727V24.6576H16.6012C16.6012 24.4861 16.6012 24.4004 16.6012 24.229C16.6012 23.8004 16.6012 23.3718 16.6869 22.9433H14.9727V21.4861H16.8584C17.2012 19.5147 18.0584 17.8861 19.1727 16.6861C20.6298 15.1433 22.4298 14.2861 24.7441 14.2861C26.4584 14.2861 27.7441 14.8004 28.5155 15.229L27.9155 17.1147C27.1441 16.6861 26.0298 16.3433 24.7441 16.3433C23.2012 16.3433 21.9155 16.8576 20.9727 17.8861C20.1155 18.7433 19.6012 20.029 19.2584 21.4861H27.1441V22.9433H19.0012C18.9155 23.2861 18.9155 23.7147 18.9155 24.1433C18.9155 24.3147 18.9155 24.4861 18.9155 24.6576H27.1441V26.1147H19.0869C19.3441 27.7433 19.8584 28.9433 20.6298 29.8004C21.6584 30.9147 23.1155 31.429 24.6584 31.429C26.2012 31.429 27.4869 30.9147 28.0869 30.4861L28.7727 32.2861Z" fill="#161616"/>
<path d="M24.1429 41.2857C33.6106 41.2857 41.2857 33.6106 41.2857 24.1429C41.2857 14.6751 33.6106 7 24.1429 7C14.6751 7 7 14.6751 7 24.1429C7 33.6106 14.6751 41.2857 24.1429 41.2857Z" stroke="#161616" stroke-width="2" stroke-miterlimit="10"/>
</g>
<defs>
<clipPath id="clip0_4523_39908">
<rect width="48" height="48" fill="white"/>
</clipPath>
</defs>
</svg>
