<?xml version="1.0" encoding="utf-8"?>
<!-- Generator: Adobe Illustrator 25.2.1, SVG Export Plug-In . SVG Version: 6.00 Build 0)  -->
<svg version="1.1" xmlns="http://www.w3.org/2000/svg" xmlns:xlink="http://www.w3.org/1999/xlink" x="0px" y="0px"
	 viewBox="0 0 56 56" style="enable-background:new 0 0 56 56;" xml:space="preserve">
<style type="text/css">
	.st0{display:none;}
	.st1{display:inline;fill:#2A2A2A;}
	.st2{fill:#2A2A2A;}
	.st3{fill:#FFFFFF;}
	.st4{fill:none;stroke:#FFFFFF;stroke-width:3;stroke-linecap:round;stroke-linejoin:round;stroke-miterlimit:10;}
	.st5{fill:none;stroke:#FFFFFF;stroke-width:3;stroke-linecap:round;stroke-linejoin:round;}
	.st6{fill:none;}
	.st7{fill:#FF002B;}
	.st8{fill:url(#SVGID_1_);}
	.st9{fill:url(#SVGID_2_);}
	.st10{clip-path:url(#SVGID_4_);}
	.st11{fill:#FF0606;}
</style>
<g id="FOND" class="st0">
</g>
<g id="Calque_1">
	<g>
		<path class="st2" d="M21.8,31.8h12.2V19.6H21.8V31.8z M24.2,21.9h7.6v7.6h-7.6V21.9z"/>
		<path class="st2" d="M56,27.3L28,1.9L16.7,12.1V4.8H7v16h0.2L0,27.3l1.6,1.7l5.5-5v30h17.2V41.7h7.6v12.4h17.2v-30l5.5,5L56,27.3z
			 M9.3,7.1h5.1v7.1l-5.1,4.6V7.1z M46.6,51.8H34.1V39.4H21.8v12.4H9.3V22L28,5L46.6,22V51.8z"/>
	</g>
	<rect class="st6" width="56" height="56"/>
</g>
</svg>
