<?xml version="1.0" encoding="UTF-8"?>
<svg xmlns="http://www.w3.org/2000/svg" xmlns:xlink="http://www.w3.org/1999/xlink" viewBox="0 0 56 56">
  <defs>
    <style>
      .cls-1 {
        stroke-width: 0px;
      }

      .cls-1, .cls-2, .cls-3, .cls-4, .cls-5, .cls-6, .cls-7, .cls-8 {
        fill: none;
      }

      .cls-2 {
        stroke: url(#Dégradé_sans_nom_172);
      }

      .cls-2, .cls-3, .cls-4, .cls-5, .cls-6, .cls-7, .cls-8 {
        stroke-linecap: round;
        stroke-linejoin: round;
        stroke-width: 2px;
      }

      .cls-3 {
        stroke: url(#Dégradé_sans_nom_75);
      }

      .cls-4 {
        stroke: url(#Dégradé_sans_nom_172-3);
      }

      .cls-5 {
        stroke: url(#Dégradé_sans_nom_172-6);
      }

      .cls-6 {
        stroke: url(#Dégradé_sans_nom_172-4);
      }

      .cls-7 {
        stroke: url(#Dégradé_sans_nom_172-5);
      }

      .cls-8 {
        stroke: url(#Dégradé_sans_nom_172-2);
      }
    </style>
    <linearGradient id="Dégradé_sans_nom_172" data-name="Dégradé sans nom 172" x1="24.5" y1="13.05" x2="31.5" y2=".93" gradientUnits="userSpaceOnUse">
      <stop offset="0" stop-color="#6a6af4"/>
      <stop offset=".18" stop-color="#8585f6"/>
      <stop offset="1" stop-color="#9797f7"/>
    </linearGradient>
    <linearGradient id="Dégradé_sans_nom_172-2" data-name="Dégradé sans nom 172" x1="16.57" y1="52.33" x2="34.84" y2="20.67" xlink:href="#Dégradé_sans_nom_172"/>
    <linearGradient id="Dégradé_sans_nom_172-3" data-name="Dégradé sans nom 172" x1="32.17" y1="56.24" x2="35.22" y2="50.96" xlink:href="#Dégradé_sans_nom_172"/>
    <linearGradient id="Dégradé_sans_nom_172-4" data-name="Dégradé sans nom 172" x1="29.09" y1="35.75" x2="39.96" y2="16.92" xlink:href="#Dégradé_sans_nom_172"/>
    <linearGradient id="Dégradé_sans_nom_172-5" data-name="Dégradé sans nom 172" x1="20.31" y1="30.67" x2="25.67" y2="21.38" xlink:href="#Dégradé_sans_nom_172"/>
    <linearGradient id="Dégradé_sans_nom_172-6" data-name="Dégradé sans nom 172" x1="33.43" y1="36.24" x2="36.61" y2="30.73" xlink:href="#Dégradé_sans_nom_172"/>
    <linearGradient id="Dégradé_sans_nom_75" data-name="Dégradé sans nom 75" x1="30.73" y1="51.43" x2="39.31" y2="36.56" gradientUnits="userSpaceOnUse">
      <stop offset="0" stop-color="#e1000f"/>
      <stop offset=".99" stop-color="#ff1717"/>
    </linearGradient>
  </defs>
  <g id="ICONES">
    <circle class="cls-2" cx="28" cy="6.99" r="6"/>
    <path class="cls-8" d="m23.01,15c-3.31,0-6,2.69-6,6v9.91c0,2.61,1.67,4.82,3.99,5.65v15.45c0,1.66,1.34,3,3,3h7.98c.83,0,1.58-.34,2.12-.88"/>
    <path class="cls-4" d="m35.02,52c0,1.66-1.34,3-3,3"/>
    <path class="cls-6" d="m34.98,38v-1.43c2.34-.82,4.03-3.04,4.03-5.66v-9.91c0-3.31-2.69-6-6-6"/>
    <line class="cls-7" x1="22.99" y1="20.99" x2="22.99" y2="31.06"/>
    <line class="cls-5" x1="35.02" y1="30.97" x2="35.02" y2="36"/>
    <path class="cls-3" d="m27.03,41.01c0-1.11.9-2,2-2h11.97c1.11,0,2,.9,2,2v5.97c0,1.11-.9,2-2,2h-11.97c-1.11,0-2-.9-2-2v-.97"/>
  </g>
  <g id="Cadres">
    <rect class="cls-1" x="0" y="0" width="56" height="56"/>
  </g>
</svg>