<?xml version="1.0" encoding="UTF-8"?>
<svg xmlns="http://www.w3.org/2000/svg" xmlns:xlink="http://www.w3.org/1999/xlink" viewBox="0 0 56 56">
  <defs>
    <style>
      .cls-1, .cls-2, .cls-3, .cls-4, .cls-5, .cls-6, .cls-7 {
        fill: none;
      }

      .cls-1, .cls-8 {
        stroke-width: 0px;
      }

      .cls-2 {
        stroke: url(#Dégradé_sans_nom_172);
      }

      .cls-2, .cls-3, .cls-4, .cls-5, .cls-6, .cls-7 {
        stroke-linecap: round;
        stroke-linejoin: round;
        stroke-width: 2px;
      }

      .cls-3 {
        stroke: url(#Dégradé_sans_nom_75-3);
      }

      .cls-4 {
        stroke: url(#Dégradé_sans_nom_75-4);
      }

      .cls-5 {
        stroke: url(#Dégradé_sans_nom_75-2);
      }

      .cls-6 {
        stroke: url(#Dégradé_sans_nom_75);
      }

      .cls-7 {
        stroke: url(#Dégradé_sans_nom_172-2);
      }

      .cls-8 {
        fill: #e1000f;
      }
    </style>
    <linearGradient id="Dégradé_sans_nom_75" data-name="Dégradé sans nom 75" x1="14.1" y1="19.97" x2="20.69" y2="8.55" gradientUnits="userSpaceOnUse">
      <stop offset="0" stop-color="#e1000f"/>
      <stop offset=".99" stop-color="#ff1717"/>
    </linearGradient>
    <linearGradient id="Dégradé_sans_nom_172" data-name="Dégradé sans nom 172" x1="4.15" y1="35.97" x2="24.49" y2=".75" gradientUnits="userSpaceOnUse">
      <stop offset="0" stop-color="#6a6af4"/>
      <stop offset=".18" stop-color="#8585f6"/>
      <stop offset="1" stop-color="#9797f7"/>
    </linearGradient>
    <linearGradient id="Dégradé_sans_nom_172-2" data-name="Dégradé sans nom 172" x1="28.98" y1="55.14" x2="49.07" y2="20.35" xlink:href="#Dégradé_sans_nom_172"/>
    <linearGradient id="Dégradé_sans_nom_75-2" data-name="Dégradé sans nom 75" x1="29.13" y1="33.39" x2="31.88" y2="28.62" xlink:href="#Dégradé_sans_nom_75"/>
    <linearGradient id="Dégradé_sans_nom_75-3" data-name="Dégradé sans nom 75" x1="33.63" y1="41.98" x2="39.38" y2="32.02" xlink:href="#Dégradé_sans_nom_75"/>
    <linearGradient id="Dégradé_sans_nom_75-4" data-name="Dégradé sans nom 75" x1="32.13" y1="47.11" x2="36.88" y2="38.88" xlink:href="#Dégradé_sans_nom_75"/>
  </defs>
  <g id="ICONES">
    <path class="cls-6" d="m13.16,11.66c1.15-1.63,2.65-2.65,4.92-2.65,2.65,0,4.77,1.9,4.77,4.5s-2.1,4.4-5.06,4.9l-.14,2.46"/>
    <path class="cls-8" d="m15.76,24.9c0-.88.75-1.63,1.66-1.63s1.66.75,1.66,1.63-.75,1.66-1.66,1.66-1.66-.75-1.66-1.66Z"/>
    <path class="cls-2" d="m9.74,33H1c1.57-2.16,3.93-5.2,4.99-6.66-.83-1.3-3.02-4.62-3.02-9.25C2.96,8.42,9.4,1,18.98,1c6.49,0,11.66,4.01,14.16,10.23"/>
    <path class="cls-7" d="m50.79,48.1l4.29,6.98h-19.08c-10.54,0-19.08-8.54-19.08-19.08s8.54-19.08,19.08-19.08c10.54,0,19.08,8.54,19.08,19.08,0,2.88-.64,5.62-1.79,8.07"/>
    <line class="cls-5" x1="27" y1="31.01" x2="34" y2="31.01"/>
    <line class="cls-3" x1="27" y1="37" x2="46" y2="37"/>
    <line class="cls-4" x1="27" y1="42.99" x2="42" y2="42.99"/>
    <rect class="cls-1" x="0" y="0" width="56" height="56"/>
  </g>
  <g id="Cadres">
    <rect class="cls-1" x="0" width="56" height="56"/>
  </g>
</svg>