<svg width="48" height="49" viewBox="0 0 48 49" fill="none" xmlns="http://www.w3.org/2000/svg">
<path d="M5.90769 30.538C9.17042 30.538 11.8154 27.8931 11.8154 24.6303C11.8154 21.3676 9.17042 18.7227 5.90769 18.7227C2.64496 18.7227 0 21.3676 0 24.6303C0 27.8931 2.64496 30.538 5.90769 30.538Z" fill="#8585F6"/>
<path d="M41.353 12.8154C44.6157 12.8154 47.2607 10.1704 47.2607 6.90769C47.2607 3.64496 44.6157 1 41.353 1C38.0903 1 35.4453 3.64496 35.4453 6.90769C35.4453 10.1704 38.0903 12.8154 41.353 12.8154Z" stroke="#8585F6" stroke-miterlimit="10"/>
<path d="M41.353 48.2626C44.6157 48.2626 47.2607 45.6177 47.2607 42.355C47.2607 39.0922 44.6157 36.4473 41.353 36.4473C38.0903 36.4473 35.4453 39.0922 35.4453 42.355C35.4453 45.6177 38.0903 48.2626 41.353 48.2626Z" stroke="#8585F6" stroke-miterlimit="10"/>
<path d="M36.065 9.55078L5.90625 24.6302L36.065 39.7095" stroke="#8585F6" stroke-miterlimit="10"/>
</svg>
