<svg width="56" height="56" viewBox="0 0 56 56" fill="none" xmlns="http://www.w3.org/2000/svg">
<path d="M46.45 22.5H43.12V21.64C43.12 13.3 36.35 6.53998 28.01 6.53998C19.67 6.53998 12.9 13.3 12.9 21.64V22.5H9.57001C8.64001 22.5 7.89001 23.25 7.89001 24.18C7.89001 25.11 8.64001 25.86 9.57001 25.86H12.64V36.2H12.7C13.28 44.15 19.92 50.45 28.02 50.45C36.12 50.45 42.76 44.15 43.34 36.2H43.39V35.12C43.39 35.12 43.39 35.09 43.39 35.08V25.86H46.47C47.4 25.86 48.15 25.11 48.15 24.18C48.15 23.25 47.4 22.5 46.47 22.5H46.45ZM28 48.45C22.39 48.45 17.58 44.97 15.6 40.06H40.4C38.42 44.97 33.61 48.45 28 48.45ZM19.18 35.17C19.18 33.58 20.47 32.29 22.06 32.29C23.65 32.29 24.94 33.58 24.94 35.17C24.94 36.76 23.65 38.05 22.06 38.05C20.47 38.05 19.18 36.76 19.18 35.17ZM31.1 35.17C31.1 33.59 32.38 32.31 33.96 32.31C35.54 32.31 36.82 33.59 36.82 35.17C36.82 36.75 35.54 38.03 33.96 38.03C32.38 38.03 31.1 36.75 31.1 35.17ZM41.37 30.27H14.63V25.86H41.37V30.27Z" fill="white"/>
</svg>
