<svg width="32" height="32" viewBox="0 0 32 32" fill="none" xmlns="http://www.w3.org/2000/svg">
<path d="M6.55972 16.25L7.771 15.0387L24.7323 32H32V24.7306L12.6178 5.34673L2.92589 15.0387C2.6047 15.36 2.42427 15.7957 2.42427 16.25C2.42427 16.7043 2.6047 17.1399 2.92589 17.4612L15.0387 29.5757L17.4629 27.1532L6.55972 16.25ZM5.34845 0.501621L0.501619 5.34673C0.180431 5.66802 0 6.10372 0 6.55801C0 7.01231 0.180431 7.44801 0.501619 7.76929L2.92589 10.1936L10.1936 2.92418L7.771 0.501621C7.44972 0.180433 7.01402 0 6.55972 0C6.10543 0 5.66973 0.180433 5.34845 0.501621Z" fill="#161616"/>
</svg>
