<?xml version="1.0" encoding="utf-8"?>
<!-- Generator: Adobe Illustrator 25.2.1, SVG Export Plug-In . SVG Version: 6.00 Build 0)  -->
<svg version="1.1" xmlns="http://www.w3.org/2000/svg" xmlns:xlink="http://www.w3.org/1999/xlink" x="0px" y="0px"
	 viewBox="0 0 56 56" style="enable-background:new 0 0 56 56;" xml:space="preserve">
<style type="text/css">
	.st0{display:none;}
	.st1{display:inline;fill:#2A2A2A;}
	.st2{fill:#2A2A2A;}
	.st3{fill:#FFFFFF;}
	.st4{fill:none;stroke:#FFFFFF;stroke-width:3;stroke-linecap:round;stroke-linejoin:round;stroke-miterlimit:10;}
	.st5{fill:none;stroke:#FFFFFF;stroke-width:3;stroke-linecap:round;stroke-linejoin:round;}
	.st6{fill:none;}
	.st7{fill:#FF002B;}
	.st8{fill:url(#SVGID_1_);}
	.st9{fill:url(#SVGID_2_);}
	.st10{clip-path:url(#SVGID_4_);}
	.st11{fill:#FF0606;}
</style>
<g id="FOND" class="st0">
</g>
<g id="Calque_1">
	<g>
		<path class="st3" d="M38.5,10.5c-1.6-1.8-3.4-3.8-5.3-5.9v5.9H38.5z M20.4,27.5h33.9v-3.7H20.4V27.5z M26.4,52.6
			c0-1.2,0.1-2.1,0-3.1c-0.1-0.9,0-2-0.5-2.6c-2-2.3-4.3-4.4-6.5-6.6c-2.6,2.7-5.3,5.2-7.8,7.9c-1,1-1.8,1.3-2.6,0
			c-0.5-0.8-1-1.5-1.5-2.2c-2,1.8-5.5,5-5.5,5l0,1.7H26.4z M1.8,32.7v16.6c1.5-1.6,2.8-2.8,4-4.2c0.8-0.9,1.5-0.9,2.3,0
			c0.6,0.8,1.2,1.6,1.9,2.5c2.5-2.6,4.6-4.7,6.8-6.9c3.1-3.1,2.2-3.1,5.3,0c1.3,1.3,2.6,2.6,4.3,4.3c0-4.1,0-7.7,0-11.2
			c0-1.2-0.7-1.1-1.5-1.1c-4.4,0-8.8,0-13.3,0C8.4,32.7,5.1,32.7,1.8,32.7 M18.8,31.1c0-2.3,0.1-4.5,0-6.7c-0.1-1.7,0.4-2.2,2.1-2.2
			c5.8,0.1,11.6,0,17.5,0h1.9V12c-2.2,0-4.3,0-6.4,0c-2.4,0-2.4,0-2.4-2.5c0-2,0-3.9,0-5.9H14.3v27.5H18.8z M20.4,31.2
			c2,0,3.9,0.1,5.7,0c1.3-0.1,1.7,0.4,1.7,1.7c-0.1,3.5,0,7,0,10.5v5.9h26.5V29.2h-34V31.2z M28.1,50.8c-0.6,3.3-0.6,3.3-4.1,3.3
			c-7.3,0-14.6,0-21.8,0c-1.6,0-2.1-0.4-2.1-2.1c0.1-6.3,0.1-12.6,0-18.9c0-1.6,0.5-2.1,2.1-2.1c3.4,0.1,6.8,0,10.4,0v-2
			c0-8.4,0-16.8,0-25.2c0-1.7,0.5-2.2,2.2-2.2c5.5,0.1,11.1,0,16.6,0.1c0.8,0,1.8,0.4,2.4,0.9c2.5,2.3,4.9,4.7,7.3,7.1
			c0.5,0.5,0.8,1.4,0.9,2.1c0.1,3.3,0,6.6,0,10.1c0.8,0,1.4,0.1,2,0.1c3.5,0,7,0,10.5,0c1.1,0,1.6,0.3,1.6,1.5c0,8.6,0,17.1,0,25.7
			c0,1.4-0.7,1.5-1.8,1.5c-8.1,0-16.2,0-24.3,0H28.1z"/>
		<path class="st3" d="M34.3,39.5c0-1,0-2.1,0-3.1c0-1.1,0.6-1.5,1.6-0.9c1.7,1,3.5,2.1,5.2,3.1c1,0.6,1.1,1.2,0.1,1.8
			c-1.7,1-3.5,2.1-5.2,3.1c-1,0.6-1.7,0.4-1.7-0.9C34.3,41.6,34.3,40.5,34.3,39.5"/>
		<path class="st3" d="M26.9,18.2c-2.2,0-4.4,0-6.6,0c-0.5,0-1-0.5-1.5-0.8c0.5-0.3,0.9-0.7,1.4-0.7c4.5-0.1,9.1-0.1,13.6,0
			c0.4,0,0.9,0.5,1.3,0.8c-0.5,0.2-0.9,0.7-1.4,0.7C31.5,18.2,29.2,18.2,26.9,18.2"/>
		<path class="st3" d="M23.2,12c-1.1,0-2.2,0.1-3.3,0c-0.4,0-0.7-0.4-1-0.7c0.3-0.3,0.6-0.7,1-0.7c2.3-0.1,4.7-0.1,7,0
			c0.4,0,0.7,0.4,1,0.7c-0.4,0.3-0.7,0.7-1.1,0.7C25.5,12.1,24.4,12,23.2,12"/>
		<path class="st3" d="M8.9,35.5c-1.8,0-3.3,1.5-3.4,3.3c0,1.8,1.4,3.4,3.2,3.4c1.9,0.1,3.5-1.5,3.5-3.3
			C12.2,37.1,10.7,35.6,8.9,35.5"/>
	</g>
	<rect class="st6" width="56" height="56"/>
</g>
</svg>
