<?xml version="1.0" encoding="utf-8"?>
<!-- Generator: Adobe Illustrator 25.2.1, SVG Export Plug-In . SVG Version: 6.00 Build 0)  -->
<svg version="1.1" xmlns="http://www.w3.org/2000/svg" xmlns:xlink="http://www.w3.org/1999/xlink" x="0px" y="0px"
	 viewBox="0 0 56 56" style="enable-background:new 0 0 56 56;" xml:space="preserve">
<style type="text/css">
	.st0{display:none;}
	.st1{display:inline;fill:#2A2A2A;}
	.st2{fill:#FFFFFF;}
	.st3{fill:none;stroke:#FFFFFF;stroke-width:3;stroke-linecap:round;stroke-linejoin:round;stroke-miterlimit:10;}
	.st4{fill:none;stroke:#FFFFFF;stroke-width:3;stroke-linecap:round;stroke-linejoin:round;}
	.st5{fill:none;}
	.st6{fill:#FF002B;}
	.st7{fill:url(#SVGID_1_);}
	.st8{fill:url(#SVGID_2_);}
	.st9{clip-path:url(#SVGID_4_);}
	.st10{fill:#FF0606;}
	.st11{clip-path:url(#SVGID_8_);fill:#2F29FF;}
	.st12{fill:none;stroke:#E5073F;stroke-width:2.5;stroke-miterlimit:10;}
	.st13{fill:#1D1D1B;}
	.st14{fill:none;stroke:#E5073F;stroke-width:3;stroke-miterlimit:10;}
	.st15{fill:#E5073F;}
	.st16{fill:none;stroke:#FFFFFF;stroke-miterlimit:10;}
</style>
<g id="FOND" class="st0">
	<rect x="-99.4" y="-701.6" class="st1" width="1002.8" height="1242.2"/>
</g>
<g id="Calque_1">
	<g>
		<g>
			<path class="st2" d="M22.4,20.9l33.6,0l0-2l-33.6,0V20.9z M22.4,13.4H56l0-1.9H22.4V13.4z M22.4,6H56V4H22.4V6z M56,26.4H0l0,1.9
				h56V26.4z M56,35.9l0-2H0v2H56z M56,41.3H0v2h56V41.3z M55.9,48.8H0v2h55.9V48.8z"/>
		</g>
		<rect x="0" y="48.8" class="st2" width="55.9" height="2"/>
		<path class="st2" d="M16.6,21c-0.4,0-0.8-0.3-0.9-0.7L11.2,7.1L6.8,20.3c-0.2,0.5-0.7,0.8-1.3,0.6c-0.5-0.2-0.8-0.7-0.6-1.3
			l5.3-16C10.4,3.3,10.8,3,11.2,3c0,0,0,0,0,0c0.4,0,0.8,0.3,0.9,0.7l5.4,16c0.2,0.5-0.1,1.1-0.6,1.3C16.8,20.9,16.7,21,16.6,21z"/>
		<path class="st2" d="M15.1,16.4H7.4c-0.6,0-1-0.4-1-1s0.4-1,1-1h7.7c0.6,0,1,0.4,1,1S15.6,16.4,15.1,16.4z"/>
	</g>
	<rect y="0" class="st5" width="56" height="56"/>
</g>
</svg>
