<?xml version="1.0" encoding="UTF-8"?>
<svg xmlns="http://www.w3.org/2000/svg" xmlns:xlink="http://www.w3.org/1999/xlink" viewBox="0 0 56 56">
  <defs>
    <style>
      .cls-1, .cls-2, .cls-3, .cls-4, .cls-5, .cls-6, .cls-7, .cls-8, .cls-9, .cls-10, .cls-11, .cls-12, .cls-13 {
        fill: none;
      }

      .cls-1, .cls-14, .cls-15, .cls-16, .cls-17, .cls-18, .cls-19, .cls-20, .cls-21, .cls-22, .cls-23 {
        stroke-width: 0px;
      }

      .cls-2 {
        stroke: url(#Dégradé_sans_nom_172);
      }

      .cls-2, .cls-3, .cls-4, .cls-5, .cls-6, .cls-7, .cls-8, .cls-9, .cls-10, .cls-11, .cls-12, .cls-13 {
        stroke-linecap: round;
        stroke-linejoin: round;
        stroke-width: 2px;
      }

      .cls-3 {
        stroke: url(#Dégradé_sans_nom_75-3);
      }

      .cls-4 {
        stroke: url(#Dégradé_sans_nom_75-4);
      }

      .cls-5 {
        stroke: url(#Dégradé_sans_nom_75-2);
      }

      .cls-6 {
        stroke: url(#Dégradé_sans_nom_172-15);
      }

      .cls-14 {
        fill: url(#Dégradé_sans_nom_172-7);
      }

      .cls-15 {
        fill: url(#Dégradé_sans_nom_172-9);
      }

      .cls-16 {
        fill: url(#Dégradé_sans_nom_172-8);
      }

      .cls-17 {
        fill: url(#Dégradé_sans_nom_75-5);
      }

      .cls-18 {
        fill: url(#Dégradé_sans_nom_75-6);
      }

      .cls-7 {
        stroke: #8585f6;
      }

      .cls-19 {
        fill: url(#Dégradé_sans_nom_172-13);
      }

      .cls-20 {
        fill: url(#Dégradé_sans_nom_172-10);
      }

      .cls-21 {
        fill: url(#Dégradé_sans_nom_172-14);
      }

      .cls-22 {
        fill: url(#Dégradé_sans_nom_172-11);
      }

      .cls-23 {
        fill: url(#Dégradé_sans_nom_172-12);
      }

      .cls-8 {
        stroke: url(#Dégradé_sans_nom_75);
      }

      .cls-9 {
        stroke: url(#Dégradé_sans_nom_172-3);
      }

      .cls-10 {
        stroke: url(#Dégradé_sans_nom_172-6);
      }

      .cls-11 {
        stroke: url(#Dégradé_sans_nom_172-4);
      }

      .cls-12 {
        stroke: url(#Dégradé_sans_nom_172-5);
      }

      .cls-13 {
        stroke: url(#Dégradé_sans_nom_172-2);
      }
    </style>
    <linearGradient id="Dégradé_sans_nom_172" data-name="Dégradé sans nom 172" x1="13.96" y1="42.36" x2="42.07" y2="-6.32" gradientUnits="userSpaceOnUse">
      <stop offset="0" stop-color="#6a6af4"/>
      <stop offset=".18" stop-color="#8585f6"/>
      <stop offset="1" stop-color="#9797f7"/>
    </linearGradient>
    <linearGradient id="Dégradé_sans_nom_172-2" data-name="Dégradé sans nom 172" x1="29.07" y1="49.35" x2="31.77" y2="44.68" xlink:href="#Dégradé_sans_nom_172"/>
    <linearGradient id="Dégradé_sans_nom_172-3" data-name="Dégradé sans nom 172" x1="36.3" y1="42.31" x2="40.11" y2="35.72" xlink:href="#Dégradé_sans_nom_172"/>
    <linearGradient id="Dégradé_sans_nom_172-4" data-name="Dégradé sans nom 172" x1="26.05" y1="18.76" x2="33.85" y2="5.27" xlink:href="#Dégradé_sans_nom_172"/>
    <linearGradient id="Dégradé_sans_nom_172-5" data-name="Dégradé sans nom 172" x1="31.45" y1="22.43" x2="36.55" y2="13.6" xlink:href="#Dégradé_sans_nom_172"/>
    <linearGradient id="Dégradé_sans_nom_172-6" data-name="Dégradé sans nom 172" x1="39.87" y1="58.52" x2="50.69" y2="39.76" xlink:href="#Dégradé_sans_nom_172"/>
    <linearGradient id="Dégradé_sans_nom_75" data-name="Dégradé sans nom 75" x1="10.69" y1="47.67" x2="26.27" y2="20.69" gradientUnits="userSpaceOnUse">
      <stop offset="0" stop-color="#e1000f"/>
      <stop offset=".99" stop-color="#ff1717"/>
    </linearGradient>
    <linearGradient id="Dégradé_sans_nom_75-2" data-name="Dégradé sans nom 75" x1=".52" y1="55.44" x2="11.43" y2="36.55" xlink:href="#Dégradé_sans_nom_75"/>
    <linearGradient id="Dégradé_sans_nom_75-3" data-name="Dégradé sans nom 75" x1="17" y1="26.73" x2="19" y2="23.27" xlink:href="#Dégradé_sans_nom_75"/>
    <linearGradient id="Dégradé_sans_nom_75-4" data-name="Dégradé sans nom 75" x1="5.24" y1="42.29" x2="6.75" y2="39.69" xlink:href="#Dégradé_sans_nom_75"/>
    <linearGradient id="Dégradé_sans_nom_75-5" data-name="Dégradé sans nom 75" x1="17.51" y1="44.87" x2="18.51" y2="43.14" xlink:href="#Dégradé_sans_nom_75"/>
    <linearGradient id="Dégradé_sans_nom_75-6" data-name="Dégradé sans nom 75" x1="5.47" y1="50.86" x2="6.47" y2="49.13" xlink:href="#Dégradé_sans_nom_75"/>
    <linearGradient id="Dégradé_sans_nom_172-7" data-name="Dégradé sans nom 172" x1="38.32" y1="48.18" x2="39.68" y2="45.82" xlink:href="#Dégradé_sans_nom_172"/>
    <linearGradient id="Dégradé_sans_nom_172-8" data-name="Dégradé sans nom 172" x1="38.32" y1="52.18" x2="39.68" y2="49.81" xlink:href="#Dégradé_sans_nom_172"/>
    <linearGradient id="Dégradé_sans_nom_172-9" data-name="Dégradé sans nom 172" x1="42.32" y1="48.18" x2="43.68" y2="45.82" xlink:href="#Dégradé_sans_nom_172"/>
    <linearGradient id="Dégradé_sans_nom_172-10" data-name="Dégradé sans nom 172" x1="42.32" y1="52.18" x2="43.68" y2="49.81" xlink:href="#Dégradé_sans_nom_172"/>
    <linearGradient id="Dégradé_sans_nom_172-11" data-name="Dégradé sans nom 172" x1="46.32" y1="48.18" x2="47.68" y2="45.82" xlink:href="#Dégradé_sans_nom_172"/>
    <linearGradient id="Dégradé_sans_nom_172-12" data-name="Dégradé sans nom 172" x1="46.32" y1="52.18" x2="47.68" y2="49.81" xlink:href="#Dégradé_sans_nom_172"/>
    <linearGradient id="Dégradé_sans_nom_172-13" data-name="Dégradé sans nom 172" x1="50.32" y1="48.18" x2="51.68" y2="45.82" xlink:href="#Dégradé_sans_nom_172"/>
    <linearGradient id="Dégradé_sans_nom_172-14" data-name="Dégradé sans nom 172" x1="50.32" y1="52.18" x2="51.68" y2="49.81" xlink:href="#Dégradé_sans_nom_172"/>
    <linearGradient id="Dégradé_sans_nom_172-15" data-name="Dégradé sans nom 172" x1="39.33" y1="34.97" x2="46.22" y2="23.04" xlink:href="#Dégradé_sans_nom_172"/>
  </defs>
  <g id="ICONES">
    <path class="cls-2" d="m4.99,34.98h-1.02c-1.65,0-2.99-1.35-2.99-3l.04-28.01c0-1.65,1.34-2.99,3-2.99l48.05.08c1.65,0,2.99,1.34,2.99,3l-.04,28.01c0,1.65-1.34,2.99-3,2.99l-21.02-.04"/>
    <line class="cls-13" x1="33.82" y1="47.01" x2="27.02" y2="47.01"/>
    <line class="cls-9" x1="39.46" y1="42.98" x2="36.95" y2="35.05"/>
    <line class="cls-11" x1="34.92" y1="7.04" x2="24.98" y2="16.99"/>
    <line class="cls-12" x1="37" y1="15.01" x2="31" y2="21.02"/>
    <path class="cls-10" d="m43,42.98h10.99c.56,0,1.01.45,1.01,1.01v9.97c0,.56-.45,1.01-1.01,1.01h-17.98c-.56,0-1.01-.45-1.01-1.01v-8.96"/>
    <path class="cls-8" d="m9,32v-8c0-1.65,1.34-2.99,2.99-2.99h12.03c1.65,0,2.99,1.34,2.99,2.99v21.99c0,1.65-1.34,2.99-2.99,2.99h-9.05"/>
    <rect class="cls-5" x=".99" y="37" width="9.97" height="17.98" rx="1.01" ry="1.01"/>
    <line class="cls-3" x1="20" y1="25" x2="16" y2="25"/>
    <line class="cls-4" x1="7" y1="40.99" x2="4.99" y2="40.99"/>
    <circle class="cls-17" cx="18.01" cy="44" r="1"/>
    <circle class="cls-18" cx="5.97" cy="50" r="1"/>
    <rect class="cls-14" x="38" y="46" width="2" height="2"/>
    <rect class="cls-16" x="38" y="50" width="2" height="2"/>
    <rect class="cls-15" x="42" y="46" width="2" height="2"/>
    <rect class="cls-20" x="42" y="50" width="2" height="2"/>
    <rect class="cls-22" x="46" y="46" width="2" height="2"/>
    <rect class="cls-23" x="46" y="50" width="2" height="2"/>
    <rect class="cls-19" x="50" y="46" width="2" height="2"/>
    <rect class="cls-21" x="50" y="50" width="2" height="2"/>
    <line class="cls-6" x1="31" y1="29" x2="54.55" y2="29"/>
    <line class="cls-7" x1=".99" y1="29" x2="4.98" y2="29"/>
  </g>
  <g id="Cadres">
    <rect class="cls-1" y="0" width="56" height="56"/>
  </g>
</svg>