<svg width="48" height="48" viewBox="0 0 48 48" fill="none" xmlns="http://www.w3.org/2000/svg">
<g clip-path="url(#clip0_4523_40017)">
<path d="M41.4906 42.6462H6.49929C2.97627 42.6462 0.101562 39.78 0.101562 36.2484V12.3977C0.110093 8.86618 2.97627 6 6.49929 6H41.4906C45.0136 6 47.8883 8.86618 47.8883 12.3977V36.2484C47.8883 39.7715 45.0221 42.6462 41.4906 42.6462V42.6462ZM6.49929 8.55909C4.38377 8.55909 2.66065 10.2822 2.66065 12.3977V36.2484C2.66065 38.364 4.38377 40.0871 6.49929 40.0871H41.4906C43.6061 40.0871 45.3292 38.364 45.3292 36.2484V12.3977C45.3292 10.2822 43.6061 8.55909 41.4906 8.55909H6.49929Z" fill="white"/>
<path d="M1.27948 34.7631C0.980915 34.7631 0.699415 34.6096 0.537339 34.3366C0.307021 33.9272 0.443506 33.4068 0.85296 33.1765L16.5402 24.2112C16.9496 23.9808 17.47 24.1173 17.7003 24.5268C17.9306 24.9362 17.7941 25.4566 17.3847 25.6869L1.70599 34.6523C1.56951 34.729 1.42449 34.7631 1.27948 34.7631Z" fill="white"/>
<path d="M46.7205 34.763C46.5755 34.763 46.4305 34.7289 46.294 34.6521L30.6068 25.6868C30.1973 25.4565 30.0523 24.9361 30.2911 24.5267C30.5214 24.1172 31.0418 23.9722 31.4513 24.2111L47.1385 33.1764C47.5479 33.4067 47.6929 33.9271 47.4541 34.3365C47.3005 34.6095 47.0105 34.763 46.712 34.763H46.7205Z" fill="white"/>
<path d="M24.0043 30.208C23.2451 30.208 22.4859 30.0118 21.8802 29.6194L2.02168 16.8495C1.01511 16.2012 0 14.8876 0 13.6251V12.3967C0 11.6887 0.57153 11.1172 1.27955 11.1172C1.98756 11.1172 2.55909 11.6887 2.55909 12.3967V13.6251C2.57615 13.8128 2.92589 14.3928 3.40359 14.6999L23.2621 27.4783C23.6289 27.7172 24.3796 27.7172 24.7464 27.4783L44.5964 14.6999C45.0826 14.3928 45.4238 13.8128 45.4409 13.6166V12.3967C45.4409 11.6887 46.0124 11.1172 46.7205 11.1172C47.4285 11.1172 48 11.6887 48 12.3967V13.6251C48 14.8876 46.9849 16.2012 45.9783 16.8495L26.1283 29.6279C25.5227 30.0203 24.7635 30.2165 24.0043 30.2165V30.208Z" fill="white"/>
</g>
<defs>
<clipPath id="clip0_4523_40017">
<rect width="48" height="48" fill="white"/>
</clipPath>
</defs>
</svg>
