<?xml version="1.0" encoding="UTF-8"?>
<svg xmlns="http://www.w3.org/2000/svg" xmlns:xlink="http://www.w3.org/1999/xlink" viewBox="0 0 56 56">
  <defs>
    <style>
      .cls-1, .cls-2, .cls-3, .cls-4, .cls-5, .cls-6, .cls-7 {
        fill: none;
      }

      .cls-1, .cls-8, .cls-9, .cls-10 {
        stroke-width: 0px;
      }

      .cls-2 {
        stroke: url(#Dégradé_sans_nom_75-3);
      }

      .cls-2, .cls-3, .cls-4, .cls-5, .cls-6, .cls-7 {
        stroke-linecap: round;
        stroke-linejoin: round;
        stroke-width: 2px;
      }

      .cls-3 {
        stroke: url(#Dégradé_sans_nom_75-2);
      }

      .cls-8 {
        fill: url(#Dégradé_sans_nom_75-5);
      }

      .cls-9 {
        fill: url(#Dégradé_sans_nom_75-6);
      }

      .cls-10 {
        fill: url(#Dégradé_sans_nom_75-4);
      }

      .cls-4 {
        stroke: url(#Dégradé_sans_nom_75);
      }

      .cls-5 {
        stroke: url(#Dégradé_sans_nom_172-3);
      }

      .cls-6 {
        stroke: url(#Dégradé_sans_nom_172-2);
      }

      .cls-7 {
        fill-rule: evenodd;
        stroke: url(#Dégradé_sans_nom_172);
      }
    </style>
    <linearGradient id="Dégradé_sans_nom_172" data-name="Dégradé sans nom 172" x1="34.41" y1="23.72" x2="48.16" y2="-.1" gradientUnits="userSpaceOnUse">
      <stop offset="0" stop-color="#6a6af4"/>
      <stop offset=".18" stop-color="#8585f6"/>
      <stop offset="1" stop-color="#9797f7"/>
    </linearGradient>
    <linearGradient id="Dégradé_sans_nom_172-2" data-name="Dégradé sans nom 172" x1="11.33" y1="51.11" x2="30.13" y2="18.53" xlink:href="#Dégradé_sans_nom_172"/>
    <linearGradient id="Dégradé_sans_nom_172-3" data-name="Dégradé sans nom 172" x1="7.67" y1="60.01" x2="13.44" y2="50.01" xlink:href="#Dégradé_sans_nom_172"/>
    <linearGradient id="Dégradé_sans_nom_75" data-name="Dégradé sans nom 75" x1="13.49" y1="45.56" x2="16.48" y2="40.38" gradientUnits="userSpaceOnUse">
      <stop offset="0" stop-color="#e1000f"/>
      <stop offset=".99" stop-color="#ff1717"/>
    </linearGradient>
    <linearGradient id="Dégradé_sans_nom_75-2" data-name="Dégradé sans nom 75" x1="17.98" y1="42.15" x2="23.97" y2="31.78" xlink:href="#Dégradé_sans_nom_75"/>
    <linearGradient id="Dégradé_sans_nom_75-3" data-name="Dégradé sans nom 75" x1="17.25" y1="35.74" x2="22.75" y2="26.21" xlink:href="#Dégradé_sans_nom_75"/>
    <linearGradient id="Dégradé_sans_nom_75-4" data-name="Dégradé sans nom 75" x1="32.5" y1="14.86" x2="33.5" y2="13.13" xlink:href="#Dégradé_sans_nom_75"/>
    <linearGradient id="Dégradé_sans_nom_75-5" data-name="Dégradé sans nom 75" x1="38.52" y1="14.86" x2="39.52" y2="13.13" xlink:href="#Dégradé_sans_nom_75"/>
    <linearGradient id="Dégradé_sans_nom_75-6" data-name="Dégradé sans nom 75" x1="44.5" y1="14.86" x2="45.5" y2="13.13" xlink:href="#Dégradé_sans_nom_75"/>
  </defs>
  <g id="ICONES">
    <path class="cls-7" d="m40,23l8.99,7.99v-7.99h6V5h-29.94v8.03"/>
    <path class="cls-6" d="m2.8,44c-1.15-2.45-1.79-5.19-1.79-8.07,0-10.54,8.54-19.08,19.08-19.08s19.08,8.54,19.08,19.08-8.54,19.08-19.08,19.08"/>
    <polyline class="cls-5" points="20.09 55.01 1.01 55.01 5.3 48.03"/>
    <line class="cls-4" x1="11" y1="42.97" x2="18.97" y2="42.97"/>
    <line class="cls-3" x1="11" y1="36.97" x2="30.95" y2="36.97"/>
    <line class="cls-2" x1="11" y1="30.97" x2="29" y2="30.97"/>
    <circle class="cls-10" cx="33" cy="14" r="1"/>
    <circle class="cls-8" cx="39.02" cy="14" r="1"/>
    <circle class="cls-9" cx="45" cy="14" r="1"/>
  </g>
  <g id="Cadres">
    <rect class="cls-1" y="0" width="56" height="56"/>
  </g>
</svg>