<?xml version="1.0" encoding="utf-8"?>
<!-- Generator: Adobe Illustrator 25.2.1, SVG Export Plug-In . SVG Version: 6.00 Build 0)  -->
<svg version="1.1" xmlns="http://www.w3.org/2000/svg" xmlns:xlink="http://www.w3.org/1999/xlink" x="0px" y="0px"
	 viewBox="0 0 56 56" style="enable-background:new 0 0 56 56;" xml:space="preserve">
<style type="text/css">
	.st0{display:none;}
	.st1{display:inline;fill:#2A2A2A;}
	.st2{fill:#2A2A2A;}
	.st3{fill:#FFFFFF;}
	.st4{fill:none;stroke:#FFFFFF;stroke-width:3;stroke-linecap:round;stroke-linejoin:round;stroke-miterlimit:10;}
	.st5{fill:none;stroke:#FFFFFF;stroke-width:3;stroke-linecap:round;stroke-linejoin:round;}
	.st6{fill:none;}
	.st7{fill:#FF002B;}
	.st8{fill:url(#SVGID_1_);}
	.st9{fill:url(#SVGID_2_);}
	.st10{clip-path:url(#SVGID_4_);}
	.st11{fill:#FF0606;}
</style>
<g id="FOND" class="st0">
</g>
<g id="Calque_1">
	<rect class="st6" width="56" height="56"/>
	<g>
		<path class="st2" d="M48.2,52.1C23.8,52.1,4,32.3,4,7.9c0-2.1,1.7-3.8,3.8-3.8h8.8c2.1,0,3.8,1.7,3.8,3.8c0,3,0.5,5.9,1.4,8.6
			c0.4,1.4,0.1,2.8-0.9,3.9L16,25.3c3.4,6.3,8.6,11.5,14.9,14.9l4.9-4.9c1-1,2.5-1.4,3.8-0.9c2.8,0.9,5.7,1.4,8.6,1.4
			c2.1,0,3.8,1.7,3.8,3.8v8.8C52,50.4,50.3,52.1,48.2,52.1z M7.8,6.6c-0.7,0-1.3,0.6-1.3,1.3c0,23,18.7,41.7,41.7,41.7
			c0.7,0,1.3-0.6,1.3-1.3v-8.8c0-0.7-0.6-1.3-1.3-1.3c-3.2,0-6.4-0.5-9.4-1.5c-0.4-0.1-0.9,0-1.3,0.3l-6.2,6.2l-0.8-0.4
			c-7.3-3.7-13.4-9.8-17.2-17.2l-0.4-0.8l6.2-6.2c0.3-0.3,0.5-0.8,0.3-1.3c-1-3-1.5-6.2-1.5-9.4c0-0.7-0.6-1.3-1.3-1.3H7.8z"/>
	</g>
	
		<rect x="39.9" y="21.5" transform="matrix(-1 -1.224647e-16 1.224647e-16 -1 82.8065 46.1047)" class="st2" width="3.1" height="3.2"/>
	
		<rect x="34.3" y="21.5" transform="matrix(-1 -1.224647e-16 1.224647e-16 -1 71.6849 46.1047)" class="st2" width="3.1" height="3.2"/>
	
		<rect x="28.7" y="21.5" transform="matrix(-1 -1.224647e-16 1.224647e-16 -1 60.5632 46.1047)" class="st2" width="3.1" height="3.2"/>
</g>
</svg>
