<?xml version="1.0" encoding="UTF-8"?>
<svg xmlns="http://www.w3.org/2000/svg" xmlns:xlink="http://www.w3.org/1999/xlink" viewBox="0 0 56 56">
  <defs>
    <style>
      .cls-1 {
        stroke-width: 0px;
      }

      .cls-1, .cls-2, .cls-3, .cls-4, .cls-5, .cls-6, .cls-7, .cls-8, .cls-9, .cls-10, .cls-11 {
        fill: none;
      }

      .cls-2 {
        stroke: url(#Dégradé_sans_nom_108);
      }

      .cls-2, .cls-3, .cls-4, .cls-5, .cls-6, .cls-7, .cls-8, .cls-9, .cls-10, .cls-11 {
        stroke-linecap: round;
        stroke-linejoin: round;
        stroke-width: 2px;
      }

      .cls-3 {
        stroke: url(#Dégradé_sans_nom_140);
      }

      .cls-4 {
        stroke: url(#Dégradé_sans_nom_108-5);
      }

      .cls-5 {
        stroke: url(#Dégradé_sans_nom_108-3);
      }

      .cls-6 {
        stroke: url(#Dégradé_sans_nom_108-2);
      }

      .cls-7 {
        stroke: url(#Dégradé_sans_nom_108-4);
      }

      .cls-8 {
        stroke: url(#Dégradé_sans_nom_108-6);
      }

      .cls-9 {
        stroke: url(#Dégradé_sans_nom_140-3);
      }

      .cls-10 {
        stroke: url(#Dégradé_sans_nom_140-4);
      }

      .cls-11 {
        stroke: url(#Dégradé_sans_nom_140-2);
      }
    </style>
    <linearGradient id="Dégradé_sans_nom_108" data-name="Dégradé sans nom 108" x1="10.66" y1="37.62" x2="29.68" y2="4.68" gradientUnits="userSpaceOnUse">
      <stop offset="0" stop-color="#000091"/>
      <stop offset=".15" stop-color="#020494"/>
      <stop offset=".32" stop-color="#0a129f"/>
      <stop offset=".5" stop-color="#1729b1"/>
      <stop offset=".69" stop-color="#294aca"/>
      <stop offset=".89" stop-color="#4173e9"/>
      <stop offset="1" stop-color="#518fff"/>
    </linearGradient>
    <linearGradient id="Dégradé_sans_nom_140" data-name="Dégradé sans nom 140" x1="15.53" y1="11.3" x2="20.78" y2="2.2" gradientUnits="userSpaceOnUse">
      <stop offset="0" stop-color="#ce0500"/>
      <stop offset=".39" stop-color="#e1000f"/>
      <stop offset="1" stop-color="#ea353c"/>
    </linearGradient>
    <linearGradient id="Dégradé_sans_nom_108-2" data-name="Dégradé sans nom 108" x1="44.31" y1="59.18" x2="50.32" y2="48.76" xlink:href="#Dégradé_sans_nom_108"/>
    <linearGradient id="Dégradé_sans_nom_108-3" data-name="Dégradé sans nom 108" x1="25.34" y1="59.18" x2="31.35" y2="48.76" xlink:href="#Dégradé_sans_nom_108"/>
    <linearGradient id="Dégradé_sans_nom_108-4" data-name="Dégradé sans nom 108" x1="6.28" y1="59.18" x2="12.29" y2="48.76" xlink:href="#Dégradé_sans_nom_108"/>
    <linearGradient id="Dégradé_sans_nom_108-5" data-name="Dégradé sans nom 108" x1="32.44" y1="25.29" x2="37.69" y2="16.2" xlink:href="#Dégradé_sans_nom_108"/>
    <linearGradient id="Dégradé_sans_nom_108-6" data-name="Dégradé sans nom 108" x1="38.92" y1="14.61" x2="49.33" y2="-3.42" xlink:href="#Dégradé_sans_nom_108"/>
    <linearGradient id="Dégradé_sans_nom_140-2" data-name="Dégradé sans nom 140" x1="6.59" y1="50.44" x2="11.84" y2="41.35" xlink:href="#Dégradé_sans_nom_140"/>
    <linearGradient id="Dégradé_sans_nom_140-3" data-name="Dégradé sans nom 140" x1="25.4" y1="50.3" x2="30.65" y2="41.2" xlink:href="#Dégradé_sans_nom_140"/>
    <linearGradient id="Dégradé_sans_nom_140-4" data-name="Dégradé sans nom 140" x1="44.38" y1="50.3" x2="49.34" y2="41.7" xlink:href="#Dégradé_sans_nom_140"/>
  </defs>
  <g id="ICONES">
    <path class="cls-2" d="m21.44,12s10.38-6.72,11.83-3.87-5.27,5.65-10.75,7.91c.41,1.64,1.59,10.44,1.5,10.44-.62,0-2.58.2-2.47,1.61.06.8.73,6.01,1.2,9.91m-14.91-14.06c-1.01-.72-.65-1.88.16-2.98,2.04-2.77,5.48-8.95,6.87-8.95m-1.57,26c.44-4.16,1.07-9.55,1.12-9.96.08-.7-1.04-1.59-2.4-1.59l1.91-8.83"/>
    <circle class="cls-3" cx="18.15" cy="6.75" r="4.25"/>
    <path class="cls-6" d="m40.45,51.96c-1.45,1.39-1.45,3-1.45,3h16s0-5-8-5"/>
    <path class="cls-5" d="m21.48,51.96c-1.45,1.39-1.45,3-1.45,3h16s0-5-8-5"/>
    <path class="cls-7" d="m2.42,51.96c-1.45,1.39-1.45,3-1.45,3h16s0-5-8-5"/>
    <polyline class="cls-4" points="44 21 27.01 21 27.01 18.97"/>
    <polyline class="cls-8" points="27.01 4 27.01 1.01 55 1.01 55 21 52 21"/>
    <path class="cls-11" d="m8.97,41.5c2.35,0,4.25,1.9,4.25,4.25s-1.9,4.25-4.25,4.25-4.25-1.9-4.25-4.25"/>
    <circle class="cls-9" cx="28.03" cy="45.75" r="4.25"/>
    <path class="cls-10" d="m51.25,45.75c0,2.35-1.9,4.25-4.25,4.25s-4.25-1.9-4.25-4.25,1.9-4.25,4.25-4.25"/>
  </g>
  <g id="Cadres">
    <rect class="cls-1" width="56" height="56"/>
  </g>
</svg>