<?xml version="1.0" encoding="utf-8"?>
<!-- Generator: Adobe Illustrator 25.2.1, SVG Export Plug-In . SVG Version: 6.00 Build 0)  -->
<svg version="1.1" xmlns="http://www.w3.org/2000/svg" xmlns:xlink="http://www.w3.org/1999/xlink" x="0px" y="0px"
	 viewBox="0 0 56 56" style="enable-background:new 0 0 56 56;" xml:space="preserve">
<style type="text/css">
	.st0{display:none;}
	.st1{display:inline;fill:#2A2A2A;}
	.st2{fill:url(#SVGID_1_);stroke:#FFFFFF;stroke-miterlimit:10;}
	.st3{fill:#03299C;}
	.st4{clip-path:url(#SVGID_3_);fill:#03299C;}
	.st5{clip-path:url(#SVGID_5_);fill:#03299C;}
	.st6{clip-path:url(#SVGID_7_);fill:#03299C;}
	.st7{clip-path:url(#SVGID_9_);fill:#0048B3;}
	.st8{clip-path:url(#SVGID_11_);fill:#03299C;}
	.st9{clip-path:url(#SVGID_13_);fill:#03299C;}
	.st10{clip-path:url(#SVGID_15_);}
	.st11{fill:#FFFFFF;}
	.st12{clip-path:url(#SVGID_19_);fill:#03299C;}
	.st13{fill:none;stroke:#111111;stroke-width:2;stroke-miterlimit:10;}
	.st14{fill:none;stroke:#111111;stroke-width:2;stroke-linecap:square;stroke-miterlimit:10;}
	.st15{fill:#111111;}
	.st16{fill:#2A2A2A;}
	.st17{fill:#0048B3;}
	.st18{fill:none;stroke:#03299C;stroke-width:2;stroke-miterlimit:10;}
	.st19{fill:none;stroke:#03299C;stroke-width:2;stroke-linecap:round;stroke-linejoin:round;stroke-miterlimit:10;}
	.st20{clip-path:url(#SVGID_21_);fill:#03299C;}
	.st21{fill:#000091;}
	.st22{fill:none;}
	.st23{fill:none;stroke:#FFFFFF;stroke-width:3;stroke-linecap:round;stroke-linejoin:round;stroke-miterlimit:10;}
	.st24{fill:none;stroke:#FFFFFF;stroke-width:3;stroke-linecap:round;stroke-linejoin:round;}
	.st25{fill:none;stroke:#FFFFFF;stroke-width:2.5;stroke-linecap:round;stroke-linejoin:round;stroke-miterlimit:10;}
	.st26{fill:none;stroke:#DD12DD;stroke-miterlimit:10;}
	.st27{fill:none;stroke:#FFFFFF;stroke-width:2;stroke-miterlimit:10;}
	.st28{fill:#FFFFFF;stroke:#03299C;stroke-width:5;stroke-miterlimit:10;}
	.st29{fill:none;stroke:#FFFFFF;stroke-miterlimit:10;}
	.st30{fill:#FFFFFF;stroke:#FFFFFF;stroke-miterlimit:10;}
	.st31{filter:url(#Adobe_OpacityMaskFilter);}
	.st32{mask:url(#SVGID_22_);}
	.st33{fill:#5770BE;}
	.st34{fill:#ABB8DF;}
	.st35{fill:#FFC29E;}
	.st36{fill:#958B62;}
	.st37{fill:#466964;}
	.st38{fill:#FF8D7E;}
	.st39{fill:#FDCF41;}
	.st40{fill:#D1D2DE;}
	.st41{fill:#C8D6A7;}
	.st42{fill:#FFED33;}
	.st43{fill:#7D4E5B;}
	.st44{fill:#9F9F9F;stroke:#000000;stroke-width:0.5;stroke-miterlimit:10;}
	.st45{fill:#404040;stroke:#000000;stroke-width:0.5;stroke-miterlimit:10;}
	.st46{fill:#808080;stroke:#000000;stroke-width:0.5;stroke-miterlimit:10;}
	.st47{fill:#DFDFDF;stroke:#000000;stroke-width:0.5;stroke-miterlimit:10;}
	.st48{stroke:#000000;stroke-width:0.5;stroke-miterlimit:10;}
	.st49{fill:#FF2D2D;}
	.st50{fill:#484D7A;}
	.st51{fill:#FF9940;}
	.st52{opacity:0.9;}
	.st53{fill:#0067E2;}
	.st54{fill:#ABCDF5;}
	.st55{clip-path:url(#SVGID_26_);}
	.st56{fill:#01015B;}
	.st57{fill:#F7F6F0;}
	.st58{fill-rule:evenodd;clip-rule:evenodd;fill:#F7F6F0;}
	.st59{fill:#D38742;}
	.st60{fill-rule:evenodd;clip-rule:evenodd;fill:#000090;}
	.st61{fill-rule:evenodd;clip-rule:evenodd;fill:#01015B;}
	.st62{fill:#04518A;stroke:#04518A;stroke-width:0.3287;stroke-miterlimit:10;}
	.st63{fill-rule:evenodd;clip-rule:evenodd;fill:#ABCDF5;}
	.st64{fill-rule:evenodd;clip-rule:evenodd;fill:#75B8F9;}
	.st65{fill:#97BADD;}
	.st66{fill:none;stroke:#ABCDF5;stroke-width:2;stroke-linecap:round;stroke-miterlimit:10;}
	.st67{clip-path:url(#SVGID_28_);fill-rule:evenodd;clip-rule:evenodd;fill:#97BADD;}
	.st68{clip-path:url(#SVGID_30_);}
	.st69{clip-path:url(#SVGID_32_);fill-rule:evenodd;clip-rule:evenodd;fill:#97BADD;}
	.st70{clip-path:url(#SVGID_34_);}
	.st71{clip-path:url(#SVGID_36_);fill-rule:evenodd;clip-rule:evenodd;fill:#97BADD;}
	.st72{fill:#606060;stroke:#000000;stroke-width:0.5;stroke-miterlimit:10;}
	.st73{fill:#BFBFBF;stroke:#000000;stroke-width:0.5;stroke-miterlimit:10;}
	.st74{fill:#202020;stroke:#000000;stroke-width:0.5;stroke-miterlimit:10;}
	.st75{fill:#BE9B31;}
	.st76{fill:#DDB094;}
	.st77{fill:#956052;}
	.st78{fill:#714753;}
	.st79{fill:#80D5C6;}
	.st80{fill:#169B62;}
	.st81{fill:#CAC5B0;}
	.st82{fill:#FF002B;}
	.st83{fill:url(#SVGID_37_);}
	.st84{fill:url(#SVGID_38_);}
	.st85{clip-path:url(#SVGID_40_);}
	.st86{fill:#FF0606;}
	.st87{clip-path:url(#SVGID_44_);fill:#2F29FF;}
	.st88{fill:none;stroke:#E5073F;stroke-width:2.5;stroke-miterlimit:10;}
	.st89{fill:#1D1D1B;}
	.st90{fill:none;stroke:#E5073F;stroke-width:3;stroke-miterlimit:10;}
	.st91{fill:#E5073F;}
</style>
<g id="FOND" class="st0">
	<rect x="-99.4" y="-509.1" class="st1" width="1002.8" height="1242.2"/>
</g>
<g id="Calque_1">
	<path class="st11" d="M56,12.1c0-1.5-0.6-2.8-1.6-3.8c0,0,0-0.1-0.1-0.1c-1-0.9-2.2-1.4-3.5-1.4c0,0,0,0,0,0c0,0,0,0,0,0H5.2
		C4,6.9,2.8,7.3,1.9,8.1C1.8,8.1,1.7,8.2,1.6,8.3c0,0,0,0.1-0.1,0.1C0.6,9.4,0,10.7,0,12.1v31.8c0,1.2,0.4,2.3,1.1,3.2
		c0.1,0.2,0.2,0.3,0.3,0.4c0,0,0,0,0,0c1,1,2.3,1.6,3.8,1.6h45.5c1.5,0,2.9-0.7,3.8-1.7c0,0,0,0,0,0c0.1-0.1,0.2-0.3,0.3-0.4
		c0.6-0.9,1-1.9,1-3.1V12.1z M38.2,24.8c4.8-4.4,11.2-10.3,15.1-14c0.2,0.4,0.3,0.8,0.3,1.3v31.8c0,0.1,0,0.2,0,0.3
		C49.8,39.4,43.1,31,38.2,24.8z M50.8,9.2c0.1,0,0.2,0,0.3,0c0.1,0,0.2,0,0.3,0c0,0,0.1,0,0.1,0c-5.8,5.3-19.4,17.9-21.3,19.5
		c-1.7,1.4-2.9,1.4-4.5,0C24.4,27.8,10.3,14.8,4.4,9.4c0.3-0.1,0.5-0.1,0.8-0.1H50.8z M2.4,44.3c0-0.1,0-0.3,0-0.4V12.1
		c0-0.4,0.1-0.8,0.3-1.2c4,3.7,10.4,9.6,15.2,14C12.9,31,6.4,39.3,2.4,44.3z M5.2,46.8c-0.5,0-1-0.2-1.4-0.4
		c3.9-4.9,10.7-13.5,15.8-19.9c2.4,2.2,4.2,3.8,4.6,4.2c1.3,1.1,2.5,1.6,3.8,1.6c1.3,0,2.5-0.5,3.8-1.6c0.6-0.5,2.4-2.1,4.7-4.3
		c5.2,6.5,12.1,15.2,15.8,19.9c-0.4,0.3-1,0.4-1.5,0.4H5.2z"/>
	<rect class="st22" width="56" height="56"/>
</g>
</svg>
