<svg width="48" height="48" viewBox="0 0 48 48" fill="none" xmlns="http://www.w3.org/2000/svg">
<g clip-path="url(#clip0_4523_39979)">
<path d="M14.5597 24.25L15.771 23.0387L32.7323 40H40V32.7306L20.6178 13.3467L10.9259 23.0387C10.6047 23.36 10.4243 23.7957 10.4243 24.25C10.4243 24.7043 10.6047 25.1399 10.9259 25.4612L23.0387 37.5757L25.4629 35.1532L14.5597 24.25ZM13.3484 8.50162L8.50162 13.3467C8.18043 13.668 8 14.1037 8 14.558C8 15.0123 8.18043 15.448 8.50162 15.7693L10.9259 18.1936L18.1936 10.9242L15.771 8.50162C15.4497 8.18043 15.014 8 14.5597 8C14.1054 8 13.6697 8.18043 13.3484 8.50162Z" fill="#3A3A3A"/>
</g>
<defs>
<clipPath id="clip0_4523_39979">
<rect width="48" height="48" fill="3A3A3A"/>
</clipPath>
</defs>
</svg>
