<?xml version="1.0" encoding="UTF-8"?>
<svg xmlns="http://www.w3.org/2000/svg" xmlns:xlink="http://www.w3.org/1999/xlink" viewBox="0 0 56 56">
  <defs>
    <style>
      .cls-1, .cls-2, .cls-3, .cls-4, .cls-5, .cls-6, .cls-7, .cls-8 {
        fill: none;
      }

      .cls-1, .cls-9 {
        stroke-width: 0px;
      }

      .cls-2 {
        stroke: url(#Dégradé_sans_nom_108);
      }

      .cls-2, .cls-3, .cls-4, .cls-5, .cls-6, .cls-7, .cls-8 {
        stroke-linecap: round;
        stroke-linejoin: round;
        stroke-width: 2px;
      }

      .cls-3 {
        stroke: url(#Dégradé_sans_nom_140);
      }

      .cls-4 {
        stroke: url(#Dégradé_sans_nom_108-5);
      }

      .cls-5 {
        stroke: url(#Dégradé_sans_nom_108-3);
      }

      .cls-6 {
        stroke: url(#Dégradé_sans_nom_108-2);
      }

      .cls-7 {
        stroke: url(#Dégradé_sans_nom_108-4);
      }

      .cls-8 {
        stroke: url(#Dégradé_sans_nom_140-2);
      }

      .cls-9 {
        fill: #ff1717;
      }
    </style>
    <linearGradient id="Dégradé_sans_nom_108" data-name="Dégradé sans nom 108" x1="6.64" y1="50.25" x2="26.85" y2="15.26" gradientUnits="userSpaceOnUse">
      <stop offset="0" stop-color="#000091"/>
      <stop offset=".15" stop-color="#020494"/>
      <stop offset=".32" stop-color="#0a129f"/>
      <stop offset=".5" stop-color="#1729b1"/>
      <stop offset=".69" stop-color="#294aca"/>
      <stop offset=".89" stop-color="#4173e9"/>
      <stop offset="1" stop-color="#518fff"/>
    </linearGradient>
    <linearGradient id="Dégradé_sans_nom_108-2" data-name="Dégradé sans nom 108" x1="10.19" y1="35.96" x2="13.61" y2="30.04" xlink:href="#Dégradé_sans_nom_108"/>
    <linearGradient id="Dégradé_sans_nom_108-3" data-name="Dégradé sans nom 108" x1="42.88" y1="51.54" x2="48.13" y2="42.45" xlink:href="#Dégradé_sans_nom_108"/>
    <linearGradient id="Dégradé_sans_nom_140" data-name="Dégradé sans nom 140" x1="29.75" y1="28.9" x2="34.76" y2="20.22" gradientUnits="userSpaceOnUse">
      <stop offset="0" stop-color="#ce0500"/>
      <stop offset=".39" stop-color="#e1000f"/>
      <stop offset="1" stop-color="#ea353c"/>
    </linearGradient>
    <linearGradient id="Dégradé_sans_nom_140-2" data-name="Dégradé sans nom 140" x1="34.52" y1="30.43" x2="38.5" y2="23.55" xlink:href="#Dégradé_sans_nom_140"/>
    <linearGradient id="Dégradé_sans_nom_108-4" data-name="Dégradé sans nom 108" x1="31.14" y1="47.66" x2="53.86" y2="8.3" xlink:href="#Dégradé_sans_nom_108"/>
    <linearGradient id="Dégradé_sans_nom_108-5" data-name="Dégradé sans nom 108" x1="39.37" y1="14.38" x2="45.63" y2="3.55" xlink:href="#Dégradé_sans_nom_108"/>
  </defs>
  <g id="ICONES">
    <rect class="cls-1" x="26" y="46" width="4" height="2"/>
    <g>
      <path class="cls-9" d="m36.71,23.28c.09.09.15.19.2.3-.05-.11-.11-.21-.2-.3Z"/>
      <path class="cls-9" d="m36.99,24.03c0,.11-.02.21-.06.31.04-.1.06-.21.06-.31Z"/>
      <path class="cls-9" d="m36.94,23.68c.03.08.04.16.05.25,0-.08-.02-.17-.05-.25Z"/>
      <path class="cls-9" d="m36.92,24.37s0,0,0,0c-.04.11-.11.21-.2.3.08-.09.15-.18.2-.29Z"/>
    </g>
    <polygon class="cls-1" points="8.16 32.55 19.84 32.55 14 16 8.16 32.55"/>
    <polyline class="cls-2" points="3.01 47 14 8.99 24.99 47"/>
    <line class="cls-6" x1="7.06" y1="33" x2="16.74" y2="33"/>
    <line class="cls-5" x1="37.01" y1="47" x2="54" y2="47"/>
    <polyline class="cls-3" points="24.99 25 39.01 25 34.07 20.98"/>
    <line class="cls-8" x1="34.01" y1="28.98" x2="39.01" y2="25"/>
    <line class="cls-7" x1="53.01" y1="8.96" x2="32" y2="47"/>
    <line class="cls-4" x1="31.99" y1="8.96" x2="53.01" y2="8.96"/>
  </g>
  <g id="Cadres">
    <rect class="cls-1" y="0" width="56" height="56"/>
  </g>
</svg>