<?xml version="1.0" encoding="UTF-8"?>
<svg width="56px" height="56px" viewBox="0 0 56 56" version="1.1" xmlns="http://www.w3.org/2000/svg" xmlns:xlink="http://www.w3.org/1999/xlink">
    <title>Artboard Copy 3</title>
    <g id="Artboard-Copy-3" stroke="none" stroke-width="1" fill="none" fill-rule="evenodd">
        <g id="Group-Copy" transform="translate(6.000000, 5.000000)">
            <polygon id="Path" points="0 0 45 0 45 45 0 45"></polygon>
            <path d="M10.6666667,15 L10.6666667,13.1428571 C10.6666667,6.98882707 15.7407728,2 22,2 C28.2592272,2 33.3333333,6.98882707 33.3333333,13.1428571 L33.3333333,15 L37.1111111,15 C38.1543156,15 39,15.8314712 39,16.8571429 L39,39.1428571 C39,40.1685288 38.1543156,41 37.1111111,41 L6.88888889,41 C5.84568436,41 5,40.1685288 5,39.1428571 L5,16.8571429 C5,15.8314712 5.84568436,15 6.88888889,15 L10.6666667,15 Z M35.2222222,18.7142857 L8.77777778,18.7142857 L8.77777778,37.2857143 L35.2222222,37.2857143 L35.2222222,18.7142857 Z M20.1111111,29.3594286 C18.6303431,28.5188752 17.9084068,26.8052594 18.3509469,25.1814349 C18.793487,23.5576104 20.2901563,22.4284771 22,22.4284771 C23.7098437,22.4284771 25.206513,23.5576104 25.6490531,25.1814349 C26.0915932,26.8052594 25.3696569,28.5188752 23.8888889,29.3594286 L23.8888889,33.5714286 L20.1111111,33.5714286 L20.1111111,29.3594286 L20.1111111,29.3594286 Z M14.4444444,15 L29.5555556,15 L29.5555556,13.1428571 C29.5555556,9.04017043 26.1728181,5.71428571 22,5.71428571 C17.8271819,5.71428571 14.4444444,9.04017043 14.4444444,13.1428571 L14.4444444,15 L14.4444444,15 Z" id="Shape" fill="#FFFFFF" fill-rule="nonzero"></path>
        </g>
    </g>
</svg>
