<?xml version="1.0" encoding="utf-8"?>
<!-- Generator: Adobe Illustrator 25.2.1, SVG Export Plug-In . SVG Version: 6.00 Build 0)  -->
<svg version="1.1" xmlns="http://www.w3.org/2000/svg" xmlns:xlink="http://www.w3.org/1999/xlink" x="0px" y="0px"
	 viewBox="0 0 56 56" style="enable-background:new 0 0 56 56;" xml:space="preserve">
<style type="text/css">
	.st0{display:none;}
	.st1{display:inline;fill:#2A2A2A;}
	.st2{fill:#2A2A2A;}
	.st3{fill:#FFFFFF;}
	.st4{fill:none;stroke:#FFFFFF;stroke-width:3;stroke-linecap:round;stroke-linejoin:round;stroke-miterlimit:10;}
	.st5{fill:none;stroke:#FFFFFF;stroke-width:3;stroke-linecap:round;stroke-linejoin:round;}
	.st6{fill:none;}
	.st7{fill:#FF002B;}
	.st8{fill:url(#SVGID_1_);}
	.st9{fill:url(#SVGID_2_);}
	.st10{clip-path:url(#SVGID_4_);}
	.st11{fill:#FF0606;}
</style>
<g id="FOND" class="st0">
</g>
<g id="Calque_1">
	<path class="st6" d="M53.8,26.9c-0.2-5.2-2-10.2-5.1-14.4c0,0-0.1,0-0.1,0c-0.5,0.3-1.1,0.7-1.7,1c-0.1,0.1-0.2,0.1-0.4,0.2
		c-0.6,0.3-1.2,0.6-1.8,0.9c0,0-0.1,0-0.1,0.1c-0.6,0.3-1.2,0.5-1.9,0.7c-0.1,0-0.3,0.1-0.4,0.1c-0.7,0.2-1.3,0.5-2,0.7
		c0,0-0.1,0-0.1,0l0,0l0,0c0.1,0.4,0.2,0.9,0.2,1.3c0.1,0.3,0.1,0.6,0.2,0.9c0.2,0.9,0.3,1.8,0.4,2.7c0,0.1,0,0.1,0,0.2
		c0.1,1,0.2,2,0.3,3c0,0.3,0,0.6,0,1c0,0.3,0,0.5,0,0.8l2.1,0.7H53.8z"/>
	<path class="st6" d="M10.3,11.7c0.1,0.1,0.2,0.1,0.4,0.2c0.5,0.3,1,0.5,1.6,0.8c0.1,0,0.2,0.1,0.2,0.1c0.5,0.2,1,0.4,1.6,0.6
		c0.1,0,0.3,0.1,0.4,0.1c0.6,0.2,1.2,0.4,1.8,0.6c0,0,0.1,0,0.1,0c0-0.1,0.1-0.2,0.1-0.3c0.1-0.3,0.2-0.7,0.3-1
		c0.1-0.2,0.1-0.5,0.2-0.7c0.1-0.3,0.2-0.7,0.3-1c0.1-0.2,0.1-0.4,0.2-0.6c0.1-0.3,0.3-0.7,0.4-1C18,9.3,18.1,9.2,18.1,9
		c0.2-0.4,0.3-0.7,0.5-1.1c0-0.1,0.1-0.2,0.1-0.3c0.2-0.5,0.5-0.9,0.7-1.3c0.1-0.1,0.1-0.2,0.2-0.3c0.2-0.3,0.4-0.6,0.6-0.9
		c0.1-0.1,0.2-0.3,0.3-0.4C20.7,4.5,20.9,4.2,21,4c0.1-0.1,0.2-0.3,0.3-0.4c0.2-0.2,0.3-0.4,0.5-0.6c0,0,0.1-0.1,0.1-0.1
		c-5,1.2-9.6,3.9-13.2,7.9c0,0,0,0,0,0C9.3,11.1,9.8,11.4,10.3,11.7z"/>
	<path class="st6" d="M9.5,42.3c0.6-0.3,1.2-0.6,1.8-0.9c0,0,0.1,0,0.1-0.1c0.6-0.3,1.2-0.5,1.9-0.7c0.1,0,0.3-0.1,0.4-0.1
		c0.7-0.2,1.3-0.5,2-0.7c0,0,0.1,0,0.1,0l0,0l0,0c-0.1-0.4-0.2-0.9-0.2-1.3c-0.1-0.3-0.1-0.6-0.2-0.9c-0.2-0.9-0.3-1.8-0.4-2.8
		c0-0.1,0-0.1,0-0.2c-0.1-1-0.2-2-0.3-3c0-0.3,0-0.6,0-1c0-0.5-0.1-1-0.1-1.5h0H2.2c0.2,5.2,2,10.2,5.1,14.4c0,0,0.1,0,0.1,0
		c0.5-0.3,1.1-0.7,1.6-1C9.2,42.4,9.4,42.3,9.5,42.3z"/>
	<path class="st6" d="M14.7,26.9c0-0.5,0-1,0.1-1.5c0-0.3,0-0.6,0-1c0.1-1,0.1-2,0.3-3c0,0,0-0.1,0-0.1c0.1-0.9,0.2-1.9,0.4-2.8
		c0.1-0.3,0.1-0.6,0.2-0.9c0.1-0.4,0.2-0.9,0.2-1.3l0,0l0,0c0,0-0.1,0-0.1,0c-0.7-0.2-1.4-0.4-2-0.7c-0.1,0-0.3-0.1-0.4-0.1
		c-0.6-0.2-1.3-0.5-1.9-0.8c0,0-0.1,0-0.1,0c-0.6-0.3-1.2-0.6-1.8-0.9c-0.1-0.1-0.2-0.1-0.4-0.2c-0.6-0.3-1.1-0.6-1.7-1
		c0,0,0,0-0.1,0c-3.1,4.1-4.9,9.2-5.1,14.4H14.7L14.7,26.9z"/>
	<path class="st6" d="M21.6,52.6c-0.2-0.2-0.4-0.4-0.6-0.7c-0.1-0.1-0.2-0.2-0.3-0.3c-0.2-0.2-0.4-0.5-0.5-0.7
		c-0.1-0.1-0.2-0.3-0.2-0.4c-0.3-0.5-0.7-1.1-1-1.7c-0.1-0.1-0.1-0.2-0.2-0.3c-0.1-0.2-0.2-0.4-0.3-0.6c-0.1-0.3-0.3-0.5-0.4-0.8
		c-0.1-0.2-0.2-0.4-0.3-0.6c-0.1-0.3-0.2-0.6-0.4-0.9c-0.1-0.2-0.2-0.5-0.2-0.7c-0.1-0.3-0.2-0.6-0.3-0.9c-0.1-0.2-0.1-0.5-0.2-0.7
		c-0.1-0.3-0.2-0.7-0.3-1c0-0.1-0.1-0.2-0.1-0.3c0,0-0.1,0-0.1,0c-0.6,0.2-1.2,0.4-1.8,0.6c-0.1,0-0.2,0.1-0.3,0.1
		c-0.6,0.2-1.1,0.4-1.6,0.6c-0.1,0-0.1,0-0.2,0.1c-0.6,0.2-1.1,0.5-1.6,0.8c-0.1,0.1-0.2,0.1-0.3,0.2c-0.5,0.3-1,0.6-1.5,0.9
		c0,0,0,0,0,0c3.5,3.9,8.1,6.7,13.2,7.9c-0.1-0.1-0.1-0.1-0.2-0.2C21.7,52.8,21.6,52.7,21.6,52.6z"/>
	<path class="st6" d="M34.4,3.4c0.2,0.2,0.4,0.4,0.6,0.7c0.1,0.1,0.2,0.2,0.3,0.3c0.2,0.2,0.4,0.5,0.5,0.7c0.1,0.1,0.2,0.3,0.3,0.4
		c0.2,0.3,0.3,0.5,0.5,0.8c0.1,0.2,0.2,0.4,0.3,0.6c0.2,0.4,0.4,0.8,0.6,1.2c0.1,0.3,0.3,0.6,0.4,0.8C37.9,9.2,38,9.4,38,9.6
		c0.1,0.3,0.2,0.6,0.4,0.9c0.1,0.2,0.2,0.5,0.2,0.7c0.1,0.3,0.2,0.6,0.3,0.9c0.1,0.2,0.2,0.5,0.2,0.7c0.1,0.3,0.2,0.7,0.3,1
		c0,0.1,0.1,0.2,0.1,0.3c0,0,0.1,0,0.1,0c0.6-0.2,1.2-0.4,1.8-0.6c0.1,0,0.3-0.1,0.4-0.1c0.5-0.2,1.1-0.4,1.6-0.6
		c0.1,0,0.1-0.1,0.2-0.1c0.6-0.2,1.1-0.5,1.6-0.8c0.1-0.1,0.2-0.1,0.4-0.2c0.5-0.3,1-0.6,1.5-0.9c0,0,0,0,0,0
		c-3.6-4-8.2-6.7-13.3-7.9C34,3,34.1,3,34.1,3.1C34.2,3.2,34.3,3.3,34.4,3.4z"/>
	<path class="st6" d="M21.6,7.2c-0.1,0.1-0.2,0.3-0.2,0.4C21.2,7.8,21.1,8,21,8.2c-0.1,0.2-0.2,0.3-0.3,0.5
		c-0.1,0.2-0.2,0.4-0.3,0.6c-0.1,0.2-0.2,0.4-0.3,0.6c-0.1,0.2-0.2,0.4-0.3,0.6c-0.1,0.2-0.2,0.4-0.3,0.6c-0.1,0.2-0.2,0.4-0.2,0.6
		c-0.1,0.2-0.2,0.5-0.2,0.7c-0.1,0.2-0.1,0.4-0.2,0.6c-0.1,0.2-0.1,0.5-0.2,0.7c-0.1,0.2-0.1,0.4-0.2,0.7c0,0.1,0,0.1-0.1,0.2
		c0.3,0.1,0.5,0.1,0.8,0.2c0.3,0.1,0.7,0.1,1,0.2c0.4,0.1,0.9,0.1,1.3,0.2c0.4,0.1,0.8,0.1,1.2,0.2c0.4,0,0.8,0.1,1.2,0.1
		c0.4,0,0.9,0.1,1.3,0.1c0.4,0,0.9,0,1.3,0c0.8,0,1.7,0,2.5,0c0.4,0,0.8,0,1.2,0c0.5,0,0.9-0.1,1.4-0.1c0.4,0,0.8-0.1,1.2-0.1
		c0.4,0,0.8-0.1,1.2-0.2c0.4-0.1,0.9-0.1,1.3-0.2c0.4-0.1,0.7-0.1,1.1-0.2c0.3-0.1,0.5-0.1,0.8-0.2c0-0.1,0-0.1-0.1-0.2
		c-0.1-0.2-0.1-0.4-0.2-0.7c-0.1-0.3-0.1-0.5-0.2-0.8c-0.1-0.2-0.1-0.4-0.2-0.6c-0.1-0.2-0.2-0.5-0.2-0.7c-0.1-0.2-0.1-0.4-0.2-0.6
		c-0.1-0.2-0.2-0.4-0.3-0.7c-0.1-0.2-0.2-0.4-0.2-0.6c-0.1-0.2-0.2-0.4-0.3-0.6c-0.1-0.2-0.2-0.4-0.3-0.5c-0.1-0.2-0.2-0.4-0.3-0.6
		c-0.1-0.2-0.2-0.3-0.3-0.5c-0.1-0.2-0.2-0.4-0.3-0.5c-0.1-0.1-0.2-0.3-0.3-0.4c-0.1-0.2-0.2-0.3-0.3-0.5c-0.1-0.1-0.2-0.3-0.3-0.4
		c-0.1-0.2-0.2-0.3-0.3-0.5C33,5.2,32.9,5.1,32.8,5c-0.1-0.1-0.2-0.3-0.4-0.4c-0.1-0.1-0.2-0.2-0.3-0.3C32,4.1,31.9,4,31.8,3.9
		c-0.1-0.1-0.2-0.2-0.3-0.3c-0.1-0.1-0.3-0.2-0.4-0.3c-0.1-0.1-0.2-0.1-0.3-0.2c-0.1-0.1-0.3-0.2-0.4-0.2c-0.1-0.1-0.2-0.1-0.3-0.2
		c-0.1-0.1-0.3-0.1-0.4-0.2c-0.1,0-0.2-0.1-0.3-0.1c-0.2-0.1-0.3-0.1-0.5-0.1c-0.1,0-0.1,0-0.2-0.1c-0.2,0-0.5-0.1-0.7-0.1
		c-0.1,0-0.3,0-0.4,0c-0.1,0-0.2,0-0.3,0c-0.2,0-0.4,0.1-0.7,0.2c0,0,0,0,0,0c-0.2,0.1-0.4,0.2-0.7,0.3c0,0,0,0,0,0
		c-0.2,0.1-0.4,0.2-0.6,0.3c0,0,0,0-0.1,0c-0.2,0.1-0.4,0.3-0.6,0.4c0,0-0.1,0.1-0.1,0.1c-0.2,0.1-0.4,0.3-0.5,0.5
		c0,0-0.1,0.1-0.1,0.1c-0.2,0.2-0.3,0.3-0.5,0.5c-0.1,0.1-0.1,0.1-0.2,0.2c-0.1,0.2-0.3,0.3-0.4,0.5c-0.1,0.1-0.1,0.2-0.2,0.3
		c-0.1,0.2-0.3,0.4-0.4,0.5c-0.1,0.1-0.2,0.2-0.2,0.4C21.8,6.8,21.7,7,21.6,7.2z"/>
	<path class="st2" d="M27.9,53.8c-0.2,0-0.5,0-0.7-0.1c-0.1,0-0.2,0-0.2-0.1c-0.2,0-0.3-0.1-0.5-0.1c-0.1,0-0.2-0.1-0.3-0.1
		c-0.1-0.1-0.3-0.1-0.4-0.2c-0.1,0-0.2-0.1-0.3-0.2c-0.1-0.1-0.3-0.1-0.4-0.2c-0.1-0.1-0.2-0.1-0.3-0.2c-0.1-0.1-0.3-0.2-0.4-0.3
		c-0.1-0.1-0.2-0.2-0.3-0.3c-0.1-0.1-0.2-0.2-0.4-0.3c-0.1-0.1-0.2-0.2-0.3-0.3c-0.1-0.1-0.2-0.3-0.4-0.4c-0.1-0.1-0.2-0.2-0.3-0.4
		c-0.1-0.1-0.2-0.3-0.3-0.4c-0.1-0.1-0.2-0.3-0.3-0.4c-0.1-0.2-0.2-0.3-0.3-0.5c-0.1-0.1-0.2-0.3-0.3-0.5c-0.1-0.2-0.2-0.4-0.3-0.5
		c-0.1-0.2-0.2-0.3-0.3-0.5c-0.1-0.2-0.2-0.4-0.3-0.6c-0.1-0.2-0.2-0.4-0.3-0.5c-0.1-0.2-0.2-0.4-0.3-0.6c-0.1-0.2-0.2-0.4-0.2-0.6
		c-0.1-0.2-0.2-0.4-0.3-0.7c-0.1-0.2-0.2-0.4-0.2-0.6c-0.1-0.2-0.2-0.5-0.2-0.7c-0.1-0.2-0.1-0.4-0.2-0.6c-0.1-0.2-0.1-0.5-0.2-0.7
		c-0.1-0.2-0.1-0.4-0.2-0.7c0-0.1,0-0.1,0-0.2c0.3-0.1,0.5-0.1,0.8-0.2c0.3-0.1,0.7-0.1,1.1-0.2c0.4-0.1,0.9-0.1,1.3-0.2
		c0.4-0.1,0.8-0.1,1.2-0.2c0.4,0,0.8-0.1,1.2-0.1c0.5,0,0.9-0.1,1.4-0.1c0.1,0,0.2,0,0.3,0l-0.8-2.2c-0.4,0-0.7,0.1-1.1,0.1
		c-0.4,0-0.9,0.1-1.3,0.1c-0.4,0-0.8,0.1-1.3,0.2c-0.5,0.1-0.9,0.1-1.4,0.2c-0.4,0.1-0.8,0.1-1.1,0.2c-0.3,0.1-0.6,0.1-0.8,0.2
		c-0.1-0.4-0.2-0.8-0.2-1.2c-0.1-0.3-0.1-0.6-0.2-0.9c-0.1-0.8-0.3-1.7-0.4-2.6c0-0.1,0-0.1,0-0.2c-0.1-0.9-0.2-1.9-0.2-2.9
		c0-0.3,0-0.6,0-0.9c0-0.5,0-0.9,0-1.4h5l-0.8-2.2h-4.2c0-0.5,0-0.9,0-1.4c0-0.3,0-0.6,0-0.9c0.1-1,0.1-1.9,0.2-2.9
		c0-0.1,0-0.1,0-0.2c0.1-0.9,0.2-1.7,0.4-2.6c0.1-0.3,0.1-0.6,0.2-0.9c0.1-0.4,0.2-0.8,0.2-1.2c0.3,0.1,0.6,0.1,0.9,0.2
		c0.4,0.1,0.7,0.2,1.1,0.2c0.5,0.1,0.9,0.2,1.4,0.2c0.4,0.1,0.8,0.1,1.3,0.2c0.4,0,0.9,0.1,1.3,0.1c0.5,0,0.9,0.1,1.4,0.1
		c0.4,0,0.8,0,1.2,0c0.5,0,0.9,0,1.4,0c0.5,0,1,0,1.4,0c0.4,0,0.8,0,1.2,0c0.5,0,1-0.1,1.5-0.1c0.4,0,0.8-0.1,1.2-0.1
		c0.4,0,0.9-0.1,1.3-0.2c0.5-0.1,0.9-0.1,1.4-0.2c0.4-0.1,0.8-0.1,1.1-0.2c0.3-0.1,0.6-0.1,0.8-0.2c0.1,0.4,0.2,0.8,0.2,1.2
		c0.1,0.3,0.1,0.6,0.2,0.9c0.1,0.9,0.3,1.7,0.4,2.6c0,0.1,0,0.1,0,0.2c0.1,0.9,0.2,1.9,0.2,2.9c0,0.3,0,0.5,0,0.8l2.3,0.8
		c0-0.3,0-0.5,0-0.8c0-0.3,0-0.6,0-1c-0.1-1-0.1-2-0.3-3c0-0.1,0-0.1,0-0.2c-0.1-0.9-0.2-1.8-0.4-2.7c-0.1-0.3-0.1-0.6-0.2-0.9
		c-0.1-0.4-0.2-0.9-0.2-1.3l0,0l0,0c0,0,0.1,0,0.1,0c0.7-0.2,1.4-0.4,2-0.7c0.1,0,0.3-0.1,0.4-0.1c0.6-0.2,1.3-0.5,1.9-0.7
		c0,0,0.1,0,0.1-0.1c0.6-0.3,1.2-0.6,1.8-0.9c0.1-0.1,0.3-0.1,0.4-0.2c0.6-0.3,1.1-0.6,1.7-1c0,0,0.1,0,0.1,0
		c3.1,4.1,4.9,9.2,5.1,14.4H43.3l6.3,2.2h4.2c0,0.5-0.1,0.9-0.1,1.4l2.1,0.8c0.1-0.7,0.1-1.4,0.2-2.2h0V28v-1.1h0
		c-0.2-5.6-2.2-11.1-5.5-15.6l0,0l-0.7-0.9L49,9.5l0,0c-5.3-6-12.9-9.5-21-9.5l0,0l0,0c0,0,0,0,0,0v0l0,0c0,0,0,0,0,0v0c0,0,0,0,0,0
		C19.9,0,12.3,3.5,7,9.5l0,0l-0.7,0.8l-0.7,0.9l0,0c-3.4,4.5-5.3,10-5.5,15.6h0V28v1.1h0c0.2,5.6,2.2,11.1,5.5,15.6l0,0l0.7,0.9
		L7,46.5l0,0c5.3,6,12.9,9.5,20.9,9.5v0l0.1,0v0c0,0,0,0,0,0c0,0,0,0,0,0c1.1,0,2.2-0.1,3.3-0.2l-0.9-2.7
		C29.5,53.5,28.8,53.8,27.9,53.8z M47.2,10.8C47.2,10.8,47.2,10.8,47.2,10.8c-0.5,0.3-1,0.6-1.5,0.9c-0.1,0.1-0.2,0.1-0.4,0.2
		c-0.5,0.3-1.1,0.5-1.6,0.8c-0.1,0-0.1,0.1-0.2,0.1c-0.5,0.2-1,0.4-1.6,0.6c-0.1,0-0.3,0.1-0.4,0.1c-0.6,0.2-1.2,0.4-1.8,0.6
		c0,0-0.1,0-0.1,0c0-0.1-0.1-0.2-0.1-0.3c-0.1-0.3-0.2-0.7-0.3-1c-0.1-0.2-0.1-0.5-0.2-0.7c-0.1-0.3-0.2-0.6-0.3-0.9
		c-0.1-0.2-0.2-0.5-0.2-0.7c-0.1-0.3-0.2-0.6-0.4-0.9C38,9.4,37.9,9.2,37.8,9c-0.1-0.3-0.3-0.6-0.4-0.8c-0.2-0.4-0.4-0.8-0.6-1.2
		c-0.1-0.2-0.2-0.4-0.3-0.6C36.3,6,36.1,5.8,36,5.5c-0.1-0.1-0.2-0.3-0.3-0.4c-0.2-0.3-0.3-0.5-0.5-0.7c-0.1-0.1-0.2-0.2-0.3-0.3
		c-0.2-0.2-0.4-0.5-0.6-0.7c-0.1-0.1-0.2-0.2-0.2-0.3C34.1,3,34,3,33.9,2.9C39,4.1,43.6,6.8,47.2,10.8z M22.5,5.7
		c0.1-0.1,0.1-0.2,0.2-0.3c0.1-0.2,0.3-0.4,0.4-0.5c0.1-0.1,0.1-0.1,0.2-0.2c0.2-0.2,0.3-0.3,0.5-0.5c0,0,0.1-0.1,0.1-0.1
		c0.2-0.2,0.4-0.3,0.5-0.5c0,0,0.1-0.1,0.1-0.1c0.2-0.1,0.4-0.3,0.6-0.4c0,0,0,0,0.1,0c0.2-0.1,0.4-0.2,0.6-0.3c0,0,0,0,0,0
		c0.2-0.1,0.4-0.2,0.7-0.3c0,0,0,0,0,0c0.2-0.1,0.4-0.1,0.7-0.2c0.1,0,0.2,0,0.3,0c0.1,0,0.3,0,0.4,0c0.2,0,0.5,0,0.7,0.1
		c0.1,0,0.1,0,0.2,0.1c0.2,0,0.3,0.1,0.5,0.1c0.1,0,0.2,0.1,0.3,0.1c0.1,0.1,0.3,0.1,0.4,0.2c0.1,0,0.2,0.1,0.3,0.2
		c0.1,0.1,0.3,0.2,0.4,0.2c0.1,0.1,0.2,0.1,0.3,0.2c0.1,0.1,0.3,0.2,0.4,0.3c0.1,0.1,0.2,0.2,0.3,0.3C31.9,4,32,4.1,32.2,4.3
		c0.1,0.1,0.2,0.2,0.3,0.3c0.1,0.1,0.2,0.3,0.4,0.4c0.1,0.1,0.2,0.2,0.3,0.3c0.1,0.1,0.2,0.3,0.3,0.5c0.1,0.1,0.2,0.3,0.3,0.4
		c0.1,0.2,0.2,0.3,0.3,0.5c0.1,0.1,0.2,0.3,0.3,0.4c0.1,0.2,0.2,0.4,0.3,0.5c0.1,0.2,0.2,0.3,0.3,0.5c0.1,0.2,0.2,0.4,0.3,0.6
		c0.1,0.2,0.2,0.3,0.3,0.5c0.1,0.2,0.2,0.4,0.3,0.6c0.1,0.2,0.2,0.4,0.2,0.6c0.1,0.2,0.2,0.4,0.3,0.7c0.1,0.2,0.2,0.4,0.2,0.6
		c0.1,0.2,0.2,0.5,0.2,0.7c0.1,0.2,0.1,0.4,0.2,0.6c0.1,0.2,0.2,0.5,0.2,0.8c0.1,0.2,0.1,0.4,0.2,0.7c0,0.1,0,0.1,0.1,0.2
		c-0.3,0.1-0.5,0.1-0.8,0.2c-0.4,0.1-0.7,0.1-1.1,0.2c-0.4,0.1-0.9,0.1-1.3,0.2c-0.4,0.1-0.8,0.1-1.2,0.2c-0.4,0-0.8,0.1-1.2,0.1
		c-0.5,0-0.9,0.1-1.4,0.1c-0.4,0-0.8,0-1.2,0c-0.8,0-1.7,0-2.5,0c-0.4,0-0.9,0-1.3,0c-0.4,0-0.9-0.1-1.3-0.1c-0.4,0-0.8-0.1-1.2-0.1
		c-0.4,0-0.8-0.1-1.2-0.2c-0.5-0.1-0.9-0.1-1.3-0.2c-0.4-0.1-0.7-0.1-1-0.2c-0.3-0.1-0.5-0.1-0.8-0.2c0-0.1,0-0.1,0.1-0.2
		c0.1-0.2,0.1-0.4,0.2-0.7c0.1-0.2,0.1-0.5,0.2-0.7c0.1-0.2,0.1-0.4,0.2-0.6c0.1-0.2,0.2-0.5,0.2-0.7c0.1-0.2,0.2-0.4,0.2-0.6
		c0.1-0.2,0.2-0.4,0.3-0.6c0.1-0.2,0.2-0.4,0.3-0.6c0.1-0.2,0.2-0.4,0.3-0.6c0.1-0.2,0.2-0.4,0.3-0.6c0.1-0.2,0.2-0.3,0.3-0.5
		c0.1-0.2,0.2-0.4,0.3-0.6c0.1-0.1,0.2-0.3,0.2-0.4c0.1-0.2,0.2-0.4,0.3-0.6c0.1-0.1,0.2-0.2,0.2-0.4C22.3,6.1,22.4,5.9,22.5,5.7z
		 M22,2.9c0,0-0.1,0.1-0.1,0.1c-0.2,0.2-0.3,0.4-0.5,0.6C21.3,3.7,21.2,3.9,21,4c-0.2,0.2-0.3,0.4-0.5,0.7c-0.1,0.1-0.2,0.3-0.3,0.4
		c-0.2,0.3-0.4,0.6-0.6,0.9c-0.1,0.1-0.1,0.2-0.2,0.3c-0.2,0.4-0.5,0.9-0.7,1.3c0,0.1-0.1,0.2-0.1,0.3c-0.2,0.4-0.4,0.7-0.5,1.1
		c-0.1,0.2-0.1,0.4-0.2,0.5c-0.1,0.3-0.3,0.6-0.4,1c-0.1,0.2-0.2,0.4-0.2,0.6c-0.1,0.3-0.2,0.6-0.3,1c-0.1,0.2-0.1,0.5-0.2,0.7
		c-0.1,0.3-0.2,0.7-0.3,1c0,0.1-0.1,0.2-0.1,0.3c0,0-0.1,0-0.1,0c-0.6-0.2-1.2-0.4-1.8-0.6c-0.1,0-0.3-0.1-0.4-0.1
		c-0.5-0.2-1.1-0.4-1.6-0.6c-0.1,0-0.2-0.1-0.2-0.1c-0.6-0.2-1.1-0.5-1.6-0.8c-0.1-0.1-0.2-0.1-0.4-0.2c-0.5-0.3-1-0.6-1.5-0.9
		c0,0,0,0,0,0C12.3,6.9,16.9,4.1,22,2.9z M7.4,12.5C7.4,12.5,7.4,12.5,7.4,12.5c0.6,0.4,1.2,0.7,1.7,1c0.1,0.1,0.2,0.1,0.4,0.2
		c0.6,0.3,1.2,0.6,1.8,0.9c0,0,0.1,0,0.1,0c0.6,0.3,1.2,0.5,1.9,0.8c0.1,0,0.3,0.1,0.4,0.1c0.7,0.2,1.3,0.5,2,0.7c0,0,0.1,0,0.1,0
		l0,0l0,0c-0.1,0.4-0.2,0.9-0.2,1.3c-0.1,0.3-0.1,0.6-0.2,0.9c-0.2,0.9-0.3,1.8-0.4,2.8c0,0,0,0.1,0,0.1c-0.1,1-0.2,2-0.3,3
		c0,0.3,0,0.6,0,1c0,0.5-0.1,1-0.1,1.5h0H2.2C2.5,21.7,4.3,16.7,7.4,12.5z M7.5,43.4C7.4,43.4,7.4,43.5,7.5,43.4
		c-3.2-4.1-5-9.1-5.2-14.3h12.4h0c0,0.5,0,1,0.1,1.5c0,0.3,0,0.6,0,1c0.1,1,0.1,2,0.3,3c0,0.1,0,0.1,0,0.2c0.1,0.9,0.2,1.9,0.4,2.8
		c0.1,0.3,0.1,0.6,0.2,0.9c0.1,0.4,0.2,0.9,0.2,1.3l0,0l0,0c0,0-0.1,0-0.1,0c-0.7,0.2-1.4,0.4-2,0.7c-0.1,0-0.3,0.1-0.4,0.1
		c-0.6,0.2-1.3,0.5-1.9,0.7c0,0-0.1,0-0.1,0.1c-0.6,0.3-1.2,0.6-1.8,0.9c-0.1,0.1-0.3,0.1-0.4,0.2C8.5,42.8,8,43.1,7.5,43.4z
		 M8.8,45.2C8.8,45.2,8.8,45.2,8.8,45.2c0.5-0.3,1-0.6,1.5-0.9c0.1-0.1,0.2-0.1,0.3-0.2c0.5-0.3,1.1-0.5,1.6-0.8
		c0.1,0,0.1,0,0.2-0.1c0.5-0.2,1.1-0.4,1.6-0.6c0.1,0,0.2-0.1,0.3-0.1c0.6-0.2,1.2-0.4,1.8-0.6c0,0,0.1,0,0.1,0
		c0,0.1,0.1,0.2,0.1,0.3c0.1,0.3,0.2,0.7,0.3,1c0.1,0.2,0.1,0.5,0.2,0.7c0.1,0.3,0.2,0.6,0.3,0.9c0.1,0.2,0.2,0.5,0.2,0.7
		c0.1,0.3,0.2,0.6,0.4,0.9c0.1,0.2,0.2,0.4,0.3,0.6c0.1,0.3,0.3,0.5,0.4,0.8c0.1,0.2,0.2,0.4,0.3,0.6c0.1,0.1,0.1,0.2,0.2,0.3
		c0.3,0.6,0.7,1.2,1,1.7c0.1,0.1,0.2,0.3,0.2,0.4c0.2,0.3,0.3,0.5,0.5,0.7c0.1,0.1,0.2,0.2,0.3,0.3c0.2,0.2,0.4,0.4,0.6,0.7
		c0.1,0.1,0.2,0.2,0.3,0.3c0.1,0.1,0.1,0.1,0.2,0.2C16.9,51.9,12.3,49.1,8.8,45.2z"/>
	<polygon class="st2" points="55.5,37.1 27.1,27.1 37,55.5 41.7,48.2 50.2,54.2 54.2,50.3 48.2,41.7 	"/>
</g>
</svg>
