<?xml version="1.0" encoding="utf-8"?>
<!-- Generator: Adobe Illustrator 25.2.1, SVG Export Plug-In . SVG Version: 6.00 Build 0)  -->
<svg version="1.1" xmlns="http://www.w3.org/2000/svg" xmlns:xlink="http://www.w3.org/1999/xlink" x="0px" y="0px"
	 viewBox="0 0 56 56" style="enable-background:new 0 0 56 56;" xml:space="preserve">
<style type="text/css">
	.st0{display:none;}
	.st1{display:inline;fill:#2A2A2A;}
	.st2{fill:#2A2A2A;}
	.st3{fill:#FFFFFF;}
	.st4{fill:none;stroke:#FFFFFF;stroke-width:3;stroke-linecap:round;stroke-linejoin:round;stroke-miterlimit:10;}
	.st5{fill:none;stroke:#FFFFFF;stroke-width:3;stroke-linecap:round;stroke-linejoin:round;}
	.st6{fill:none;}
	.st7{fill:#FF002B;}
	.st8{fill:url(#SVGID_1_);}
	.st9{fill:url(#SVGID_2_);}
	.st10{clip-path:url(#SVGID_4_);}
	.st11{fill:#FF0606;}
</style>
<g id="FOND" class="st0">
</g>
<g id="Calque_1">
	<g>
		<path class="st2" d="M55.9,26.9c-0.2-5.6-2.2-11.1-5.5-15.6l0,0l-0.7-0.9L49,9.5l0,0C43.7,3.5,36.1,0,28,0l0,0l0,0c0,0,0,0,0,0v0
			l0,0c0,0,0,0,0,0v0c0,0,0,0,0,0C19.8,0,12.3,3.5,7,9.5l0,0l-0.7,0.8l-0.7,0.9l0,0c-3.4,4.5-5.3,10-5.5,15.6h0V28v1.1h0
			c0.2,5.6,2.2,11.1,5.5,15.6l0,0l0.7,0.9l0.7,0.8l0,0c5.3,6,12.9,9.5,20.9,9.5v0l0.1,0v0c0,0,0,0,0,0c0,0,0,0,0,0
			c1.1,0,2.2-0.1,3.3-0.2l-0.9-2.7c-0.8,0.4-1.6,0.7-2.4,0.7c-0.2,0-0.5,0-0.7-0.1c-0.1,0-0.2,0-0.2-0.1c-0.2,0-0.3-0.1-0.5-0.1
			c-0.1,0-0.2-0.1-0.3-0.1c-0.1-0.1-0.3-0.1-0.4-0.2c-0.1,0-0.2-0.1-0.3-0.2c-0.1-0.1-0.3-0.1-0.4-0.2c-0.1-0.1-0.2-0.1-0.3-0.2
			c-0.1-0.1-0.3-0.2-0.4-0.3c-0.1-0.1-0.2-0.2-0.3-0.3c-0.1-0.1-0.2-0.2-0.4-0.3c-0.1-0.1-0.2-0.2-0.3-0.3c-0.1-0.1-0.2-0.3-0.4-0.4
			c-0.1-0.1-0.2-0.2-0.3-0.4c-0.1-0.1-0.2-0.3-0.3-0.4c-0.1-0.1-0.2-0.3-0.3-0.4c-0.1-0.2-0.2-0.3-0.3-0.5c-0.1-0.1-0.2-0.3-0.3-0.4
			c-0.1-0.2-0.2-0.4-0.3-0.5c-0.1-0.2-0.2-0.3-0.3-0.5c-0.1-0.2-0.2-0.4-0.3-0.6c-0.1-0.2-0.2-0.4-0.3-0.5c-0.1-0.2-0.2-0.4-0.3-0.6
			c-0.1-0.2-0.2-0.4-0.2-0.6c-0.1-0.2-0.2-0.4-0.3-0.7c-0.1-0.2-0.2-0.4-0.2-0.6c-0.1-0.2-0.2-0.5-0.2-0.7c-0.1-0.2-0.1-0.4-0.2-0.6
			c-0.1-0.2-0.1-0.5-0.2-0.7c-0.1-0.2-0.1-0.4-0.2-0.7c0-0.1,0-0.1,0-0.2c0.3-0.1,0.5-0.1,0.8-0.2c0.3-0.1,0.7-0.1,1.1-0.2
			c0.4-0.1,0.9-0.1,1.3-0.2c0.4-0.1,0.8-0.1,1.2-0.2c0.4,0,0.8-0.1,1.2-0.1c0.5,0,0.9-0.1,1.4-0.1c0.1,0,0.2,0,0.3,0l-0.8-2.2
			c-0.4,0-0.7,0.1-1.1,0.1c-0.4,0-0.9,0.1-1.3,0.1c-0.4,0-0.8,0.1-1.3,0.2c-0.5,0.1-0.9,0.1-1.4,0.2c-0.4,0.1-0.8,0.1-1.1,0.2
			c-0.3,0.1-0.6,0.1-0.8,0.2c-0.1-0.4-0.2-0.8-0.2-1.2c-0.1-0.3-0.1-0.6-0.2-0.9c-0.1-0.8-0.3-1.7-0.4-2.6c0-0.1,0-0.1,0-0.2
			c-0.1-0.9-0.2-1.9-0.2-2.9c0-0.3,0-0.6,0-0.9c0-0.5,0-0.9,0-1.4h5l-0.8-2.2h-4.2c0-0.5,0-0.9,0-1.4c0-0.3,0-0.6,0-0.9
			c0.1-1,0.1-1.9,0.2-2.9c0-0.1,0-0.1,0-0.2c0.1-0.9,0.2-1.7,0.4-2.6c0.1-0.3,0.1-0.6,0.2-0.9c0.1-0.4,0.2-0.8,0.2-1.2
			c0.3,0.1,0.6,0.1,0.9,0.2c0.4,0.1,0.7,0.2,1.1,0.2c0.5,0.1,0.9,0.2,1.4,0.2c0.4,0.1,0.8,0.1,1.3,0.2c0.4,0,0.9,0.1,1.3,0.1
			c0.5,0,0.9,0.1,1.4,0.1c0.4,0,0.8,0,1.2,0c0.5,0,0.9,0,1.4,0c0.5,0,1,0,1.4,0c0.4,0,0.8,0,1.2,0c0.5,0,1-0.1,1.5-0.1
			c0.4,0,0.8-0.1,1.2-0.1c0.4,0,0.9-0.1,1.3-0.2c0.5-0.1,0.9-0.1,1.4-0.2c0.4-0.1,0.8-0.1,1.1-0.2c0.3-0.1,0.6-0.1,0.8-0.2
			c0.1,0.4,0.2,0.8,0.2,1.2c0.1,0.3,0.1,0.6,0.2,0.9c0.1,0.9,0.3,1.7,0.4,2.6c0,0.1,0,0.1,0,0.2c0.1,0.9,0.2,1.9,0.2,2.9
			c0,0.3,0,0.5,0,0.8l2.3,0.8c0-0.3,0-0.5,0-0.8c0-0.3,0-0.6,0-1c-0.1-1-0.1-2-0.3-3c0-0.1,0-0.1,0-0.2c-0.1-0.9-0.2-1.8-0.4-2.7
			c-0.1-0.3-0.1-0.6-0.2-0.9c-0.1-0.4-0.2-0.9-0.2-1.3l0,0l0,0c0,0,0.1,0,0.1,0c0.7-0.2,1.4-0.4,2-0.7c0.1,0,0.3-0.1,0.4-0.1
			c0.6-0.2,1.3-0.5,1.9-0.7c0,0,0.1,0,0.1-0.1c0.6-0.3,1.2-0.6,1.8-0.9c0.1-0.1,0.3-0.1,0.4-0.2c0.6-0.3,1.1-0.6,1.7-1
			c0,0,0.1,0,0.1,0c3.1,4.1,4.9,9.2,5.1,14.4H43.3l6.3,2.2h4.2c0,0.5-0.1,0.9-0.1,1.4l2.1,0.8c0.1-0.7,0.1-1.4,0.2-2.2h0V28
			L55.9,26.9L55.9,26.9z M7.4,12.5C7.4,12.5,7.4,12.5,7.4,12.5c0.6,0.4,1.2,0.7,1.7,1c0.1,0.1,0.2,0.1,0.4,0.2
			c0.6,0.3,1.2,0.6,1.8,0.9c0,0,0.1,0,0.1,0c0.6,0.3,1.2,0.5,1.9,0.8c0.1,0,0.3,0.1,0.4,0.1c0.7,0.2,1.3,0.5,2,0.7c0,0,0.1,0,0.1,0
			l0,0l0,0c-0.1,0.4-0.2,0.9-0.2,1.3c-0.1,0.3-0.1,0.6-0.2,0.9c-0.2,0.9-0.3,1.8-0.4,2.8c0,0,0,0.1,0,0.1c-0.1,1-0.2,2-0.3,3
			c0,0.3,0,0.6,0,1c0,0.5-0.1,1-0.1,1.5h0H2.2C2.4,21.7,4.2,16.7,7.4,12.5z M7.4,43.4C7.4,43.4,7.4,43.5,7.4,43.4
			c-3.2-4.1-5-9.1-5.2-14.3h12.4h0c0,0.5,0,1,0.1,1.5c0,0.3,0,0.6,0,1c0.1,1,0.1,2,0.3,3c0,0.1,0,0.1,0,0.2c0.1,0.9,0.2,1.9,0.4,2.8
			c0.1,0.3,0.1,0.6,0.2,0.9c0.1,0.4,0.2,0.9,0.2,1.3l0,0l0,0c0,0-0.1,0-0.1,0c-0.7,0.2-1.4,0.4-2,0.7c-0.1,0-0.3,0.1-0.4,0.1
			c-0.6,0.2-1.3,0.5-1.9,0.7c0,0-0.1,0-0.1,0.1c-0.6,0.3-1.2,0.6-1.8,0.9c-0.1,0.1-0.3,0.1-0.4,0.2C8.5,42.8,8,43.1,7.4,43.4z
			 M17,43.9c0.1,0.3,0.2,0.6,0.3,0.9c0.1,0.2,0.2,0.5,0.2,0.7c0.1,0.3,0.2,0.6,0.4,0.9c0.1,0.2,0.2,0.4,0.3,0.6
			c0.1,0.3,0.3,0.5,0.4,0.8c0.1,0.2,0.2,0.4,0.3,0.6c0.1,0.1,0.1,0.2,0.2,0.3c0.3,0.6,0.7,1.2,1,1.7c0.1,0.1,0.2,0.3,0.2,0.4
			c0.2,0.3,0.3,0.5,0.5,0.7c0.1,0.1,0.2,0.2,0.3,0.3c0.2,0.2,0.4,0.4,0.6,0.7c0.1,0.1,0.2,0.2,0.3,0.3c0.1,0.1,0.1,0.1,0.2,0.2
			c-5.1-1.2-9.6-3.9-13.2-7.9c0,0,0,0,0,0c0.5-0.3,1-0.6,1.5-0.9c0.1-0.1,0.2-0.1,0.3-0.2c0.5-0.3,1.1-0.5,1.6-0.8
			c0.1,0,0.1,0,0.2-0.1c0.5-0.2,1.1-0.4,1.6-0.6c0.1,0,0.2-0.1,0.3-0.1c0.6-0.2,1.2-0.4,1.8-0.6c0,0,0.1,0,0.1,0
			c0,0.1,0.1,0.2,0.1,0.3c0.1,0.3,0.2,0.7,0.3,1C16.8,43.4,16.9,43.6,17,43.9z M17.9,9.5c-0.1,0.3-0.3,0.6-0.4,1
			c-0.1,0.2-0.2,0.4-0.2,0.6c-0.1,0.3-0.2,0.6-0.3,1c-0.1,0.2-0.1,0.5-0.2,0.7c-0.1,0.3-0.2,0.7-0.3,1c0,0.1-0.1,0.2-0.1,0.3
			c0,0-0.1,0-0.1,0c-0.6-0.2-1.2-0.4-1.8-0.6c-0.1,0-0.3-0.1-0.4-0.1c-0.5-0.2-1.1-0.4-1.6-0.6c-0.1,0-0.2-0.1-0.2-0.1
			c-0.6-0.2-1.1-0.5-1.6-0.8c-0.1-0.1-0.2-0.1-0.4-0.2c-0.5-0.3-1-0.6-1.5-0.9c0,0,0,0,0,0c3.5-3.9,8.1-6.7,13.2-7.9
			c0,0-0.1,0.1-0.1,0.1c-0.2,0.2-0.3,0.4-0.5,0.6C21.2,3.7,21.1,3.9,21,4c-0.2,0.2-0.3,0.4-0.5,0.7c-0.1,0.1-0.2,0.3-0.3,0.4
			C20,5.4,19.9,5.7,19.7,6c-0.1,0.1-0.1,0.2-0.2,0.3c-0.2,0.4-0.5,0.9-0.7,1.3c0,0.1-0.1,0.2-0.1,0.3c-0.2,0.4-0.4,0.7-0.5,1.1
			C18,9.2,18,9.3,17.9,9.5z M36.6,14.8c-0.4,0.1-0.7,0.1-1.1,0.2c-0.4,0.1-0.9,0.1-1.3,0.2c-0.4,0.1-0.8,0.1-1.2,0.2
			c-0.4,0-0.8,0.1-1.2,0.1c-0.5,0-0.9,0.1-1.4,0.1c-0.4,0-0.8,0-1.2,0c-0.8,0-1.7,0-2.5,0c-0.4,0-0.9,0-1.3,0
			c-0.4,0-0.9-0.1-1.3-0.1c-0.4,0-0.8-0.1-1.2-0.1c-0.4,0-0.8-0.1-1.2-0.2c-0.5-0.1-0.9-0.1-1.3-0.2c-0.4-0.1-0.7-0.1-1-0.2
			c-0.3-0.1-0.5-0.1-0.8-0.2c0-0.1,0-0.1,0.1-0.2c0.1-0.2,0.1-0.4,0.2-0.7c0.1-0.2,0.1-0.5,0.2-0.7c0.1-0.2,0.1-0.4,0.2-0.6
			c0.1-0.2,0.2-0.5,0.2-0.7c0.1-0.2,0.2-0.4,0.2-0.6c0.1-0.2,0.2-0.4,0.3-0.6c0.1-0.2,0.2-0.4,0.3-0.6c0.1-0.2,0.2-0.4,0.3-0.6
			c0.1-0.2,0.2-0.4,0.3-0.6c0.1-0.2,0.2-0.3,0.3-0.5c0.1-0.2,0.2-0.4,0.3-0.6c0.1-0.1,0.2-0.3,0.2-0.4c0.1-0.2,0.2-0.4,0.3-0.6
			C22,6.5,22,6.4,22.1,6.3c0.1-0.2,0.3-0.4,0.4-0.5c0.1-0.1,0.1-0.2,0.2-0.3c0.1-0.2,0.3-0.4,0.4-0.5c0.1-0.1,0.1-0.1,0.2-0.2
			c0.2-0.2,0.3-0.3,0.5-0.5c0,0,0.1-0.1,0.1-0.1c0.2-0.2,0.4-0.3,0.5-0.5c0,0,0.1-0.1,0.1-0.1c0.2-0.1,0.4-0.3,0.6-0.4
			c0,0,0,0,0.1,0c0.2-0.1,0.4-0.2,0.6-0.3c0,0,0,0,0,0c0.2-0.1,0.4-0.2,0.7-0.3c0,0,0,0,0,0c0.2-0.1,0.4-0.1,0.7-0.2
			c0.1,0,0.2,0,0.3,0c0.1,0,0.3,0,0.4,0c0.2,0,0.5,0,0.7,0.1c0.1,0,0.1,0,0.2,0.1c0.2,0,0.3,0.1,0.5,0.1c0.1,0,0.2,0.1,0.3,0.1
			c0.1,0.1,0.3,0.1,0.4,0.2c0.1,0,0.2,0.1,0.3,0.2c0.1,0.1,0.3,0.2,0.4,0.2c0.1,0.1,0.2,0.1,0.3,0.2c0.1,0.1,0.3,0.2,0.4,0.3
			c0.1,0.1,0.2,0.2,0.3,0.3C31.9,4,32,4.1,32.1,4.3c0.1,0.1,0.2,0.2,0.3,0.3c0.1,0.1,0.2,0.3,0.4,0.4c0.1,0.1,0.2,0.2,0.3,0.3
			c0.1,0.1,0.2,0.3,0.3,0.5c0.1,0.1,0.2,0.3,0.3,0.4c0.1,0.2,0.2,0.3,0.3,0.5c0.1,0.1,0.2,0.3,0.3,0.4c0.1,0.2,0.2,0.4,0.3,0.5
			c0.1,0.2,0.2,0.3,0.3,0.5c0.1,0.2,0.2,0.4,0.3,0.6c0.1,0.2,0.2,0.3,0.2,0.5c0.1,0.2,0.2,0.4,0.3,0.6c0.1,0.2,0.2,0.4,0.2,0.6
			c0.1,0.2,0.2,0.4,0.3,0.7c0.1,0.2,0.2,0.4,0.2,0.6c0.1,0.2,0.2,0.5,0.2,0.7c0.1,0.2,0.1,0.4,0.2,0.6c0.1,0.2,0.2,0.5,0.2,0.8
			c0.1,0.2,0.1,0.4,0.2,0.7c0,0.1,0,0.1,0.1,0.2C37.1,14.7,36.9,14.8,36.6,14.8z M47.2,10.8c-0.5,0.3-1,0.6-1.5,0.9
			c-0.1,0.1-0.2,0.1-0.4,0.2c-0.5,0.3-1.1,0.5-1.6,0.8c-0.1,0-0.1,0.1-0.2,0.1c-0.5,0.2-1,0.4-1.6,0.6c-0.1,0-0.3,0.1-0.4,0.1
			c-0.6,0.2-1.2,0.4-1.8,0.6c0,0-0.1,0-0.1,0c0-0.1-0.1-0.2-0.1-0.3c-0.1-0.3-0.2-0.7-0.3-1c-0.1-0.2-0.1-0.5-0.2-0.7
			c-0.1-0.3-0.2-0.6-0.3-0.9c-0.1-0.2-0.2-0.5-0.2-0.7c-0.1-0.3-0.2-0.6-0.4-0.9c-0.1-0.2-0.2-0.4-0.3-0.6c-0.1-0.3-0.3-0.6-0.4-0.8
			c-0.2-0.4-0.4-0.8-0.6-1.2c-0.1-0.2-0.2-0.4-0.3-0.6c-0.2-0.3-0.3-0.5-0.5-0.8c-0.1-0.1-0.2-0.3-0.3-0.4c-0.2-0.3-0.3-0.5-0.5-0.7
			c-0.1-0.1-0.2-0.2-0.3-0.3c-0.2-0.2-0.4-0.5-0.6-0.7c-0.1-0.1-0.2-0.2-0.2-0.3C34,3,34,3,33.9,2.9C39,4.1,43.6,6.8,47.2,10.8
			C47.2,10.8,47.2,10.8,47.2,10.8z"/>
		<polygon class="st2" points="27,27.1 37,55.5 41.7,48.2 50.2,54.2 54.2,50.3 48.1,41.7 55.5,37.1 		"/>
	</g>
	<rect class="st6" width="56" height="56"/>
</g>
</svg>
