<?xml version="1.0" encoding="utf-8"?>
<!-- Generator: Adobe Illustrator 25.2.1, SVG Export Plug-In . SVG Version: 6.00 Build 0)  -->
<svg version="1.1" xmlns="http://www.w3.org/2000/svg" xmlns:xlink="http://www.w3.org/1999/xlink" x="0px" y="0px"
	 viewBox="0 0 56 56" style="enable-background:new 0 0 56 56;" xml:space="preserve">
<style type="text/css">
	.st0{display:none;}
	.st1{display:inline;fill:#2A2A2A;}
	.st2{fill:#2A2A2A;}
	.st3{fill:#FFFFFF;}
	.st4{fill:none;stroke:#FFFFFF;stroke-width:3;stroke-linecap:round;stroke-linejoin:round;stroke-miterlimit:10;}
	.st5{fill:none;stroke:#FFFFFF;stroke-width:3;stroke-linecap:round;stroke-linejoin:round;}
	.st6{fill:none;}
	.st7{fill:#FF002B;}
	.st8{fill:url(#SVGID_1_);}
	.st9{fill:url(#SVGID_2_);}
	.st10{clip-path:url(#SVGID_4_);}
	.st11{fill:#FF0606;}
</style>
<g id="FOND" class="st0">
	<rect x="33.9" y="-268.6" class="st1" width="1002.8" height="1242.2"/>
</g>
<g id="Calque_1">
	<g>
		<path class="st3" d="M7.8,43.1c-0.2,0-0.4-0.1-0.6-0.2c-0.4-0.2-0.6-0.6-0.6-1.1l0.4-8.5C2.6,29.7,0,24.6,0,19.3
			C0,8.7,10.2,0,22.8,0s22.8,8.7,22.8,19.3c0,10.7-10.2,19.3-22.8,19.3c-2.2,0-4.4-0.3-6.5-0.8l-7.8,5.1C8.3,43,8.1,43.1,7.8,43.1z
			 M22.8,2.4c-11.3,0-20.5,7.6-20.5,17c0,4.8,2.4,9.3,6.7,12.5c0.3,0.2,0.5,0.6,0.5,1l-0.3,6.8l6.3-4.1c0.3-0.2,0.6-0.2,0.9-0.1
			c2.1,0.6,4.2,0.9,6.4,0.9c11.3,0,20.5-7.6,20.5-17S34.1,2.4,22.8,2.4z"/>
		<path class="st3" d="M20,29.6c0-1.2,1-2.1,2.2-2.1c1.2,0,2.2,1,2.2,2.1c0,1.2-1,2.2-2.2,2.2C21,31.8,20,30.8,20,29.6 M20.7,19.3
			c4.8-0.5,7.4-2.2,7.4-5.4c0-2.4-1.8-4.3-4.3-4.3c-2.1,0-3.5,1-4.9,2.9l-2.5-1.6C18.1,8.6,20.4,7,23.9,7c4.1,0,7.3,2.9,7.3,6.9
			c0,4.2-3.2,6.7-7.8,7.5l-0.2,3H21L20.7,19.3z"/>
		<path class="st3" d="M56,38.4c0-6.7-5.4-12.4-12.5-13.6c-0.3,0.7-0.6,1.5-1,2.2c6.3,0.8,11.2,5.6,11.2,11.4c0,4.3-2.7,8.2-7,10.2
			c-0.5,0.2-0.8,0.8-0.7,1.3l0.6,2.8L41.2,50c-0.2-0.1-0.5-0.1-0.6-0.1c-7.2,0-13.1-5.2-13.1-11.5c0-0.4,0-0.7,0.1-1.1
			c-0.8,0.2-1.6,0.3-2.4,0.4c0,0.2,0,0.5,0,0.7c0,7.6,6.9,13.8,15.3,13.9l7.4,3.6c0.2,0.1,0.3,0.1,0.5,0.1c0.3,0,0.5-0.1,0.7-0.3
			c0.4-0.3,0.5-0.7,0.4-1.2l-1-4.3C53.1,47.8,56,43.3,56,38.4z"/>
		<path class="st3" d="M40.2,44.5c-1.1,0-2,0.9-2,2c0,1.1,0.9,2,2,2c1.1,0,2-0.9,2-2C42.1,45.4,41.3,44.5,40.2,44.5z"/>
		<path class="st3" d="M38.8,31.6l0.3,10.1h2l0.4-13.4C40.8,29.5,39.9,30.6,38.8,31.6z"/>
	</g>
</g>
</svg>
