<?xml version="1.0" encoding="utf-8"?>
<!-- Generator: Adobe Illustrator 25.2.1, SVG Export Plug-In . SVG Version: 6.00 Build 0)  -->
<svg version="1.1" xmlns="http://www.w3.org/2000/svg" xmlns:xlink="http://www.w3.org/1999/xlink" x="0px" y="0px"
	 viewBox="0 0 56 56" style="enable-background:new 0 0 56 56;" xml:space="preserve">
<style type="text/css">
	.st0{display:none;}
	.st1{display:inline;fill:#2A2A2A;}
	.st2{fill:#2A2A2A;}
	.st3{fill:#FFFFFF;}
	.st4{fill:none;stroke:#FFFFFF;stroke-width:3;stroke-linecap:round;stroke-linejoin:round;stroke-miterlimit:10;}
	.st5{fill:none;stroke:#FFFFFF;stroke-width:3;stroke-linecap:round;stroke-linejoin:round;}
	.st6{fill:none;}
	.st7{fill:#FF002B;}
	.st8{fill:url(#SVGID_1_);}
	.st9{fill:url(#SVGID_2_);}
	.st10{clip-path:url(#SVGID_4_);}
	.st11{fill:#FF0606;}
</style>
<g id="FOND" class="st0">
</g>
<g id="Calque_1">
	<g>
		<path class="st3" d="M43.1,8.6c-3.9-0.1-7.8-0.1-11.8,0c-4.6,0.2-7.8,2.5-9.6,6.7c-0.1,0.3-0.2,0.7-0.3,1.2
			c4.4-0.1,8.7-0.2,12.4,2.6c3.6,2.8,5.4,6.4,5.6,10.4c1.2,1.1,2.2,1.8,3.1,2.6c0.9,0.8,1.7,1.8,2.5,2.6c0.1-0.1,0.2-0.1,0.4-0.2
			c0-1,0.1-2,0-2.9c-0.2-1.3,0.4-1.8,1.5-2.2c4.7-1.8,7.5-6.8,6.7-11.6C52.5,12.5,48.3,8.7,43.1,8.6z"/>
		<path class="st2" d="M55.7,16.7c-1.2-5.8-5.9-10.1-11.8-10.4c-4.3-0.3-8.7-0.3-13,0c-6,0.4-9.9,3.7-11.9,9.4
			c-0.1,0.3-0.2,0.6-0.4,1c-0.9,0-1.8,0-2.6,0c-2.6,0-5.3-0.1-7.7,1.1C3,20.1,0,24.2,0,30c0,5.7,2.8,9.9,8,12.4
			c0.9,0.4,1.3,0.9,1.2,1.9c-0.1,1.5,0,3.1,0,4.6c0,0.4,0.3,0.7,0.5,1.1c0.4-0.2,0.8-0.3,1.1-0.5c1.6-1.6,3.3-3.2,4.9-4.9
			c0.7-0.8,1.5-1,2.5-1c3.1,0,6.2,0.3,9.2-0.1c6.3-0.8,10.1-4.5,11.9-10.8c0.4,0.3,0.7,0.5,1,0.8c1.4,1.4,2.8,2.9,4.3,4.2
			c0.5,0.4,1.5,0.7,2.1,0.5c0.5-0.2,1-1.1,1.1-1.8c0.2-1,0.1-2,0-3c-0.1-1.2,0.3-1.8,1.4-2.4C54.2,28.2,56.9,22.3,55.7,16.7z
			 M15.6,31.7h-3.1v-3.2h3.1V31.7z M21.2,31.7h-3.1v-3.2h3.1V31.7z M26.7,31.7h-3.1v-3.2h3.1V31.7z M46.8,29.4
			c-1.2,0.4-1.7,0.9-1.5,2.2c0.1,1,0,2,0,2.9c-0.1,0.1-0.2,0.1-0.4,0.2c-0.8-0.9-1.6-1.8-2.5-2.6c-0.9-0.8-1.8-1.6-3.1-2.6
			c-0.1-4-2-7.6-5.6-10.4c-3.7-2.8-7.9-2.7-12.4-2.6c0.1-0.5,0.2-0.9,0.3-1.2c1.8-4.2,5.1-6.6,9.6-6.7c3.9-0.2,7.8-0.1,11.8,0
			c5.2,0.1,9.4,3.9,10.3,9.2C54.3,22.6,51.5,27.6,46.8,29.4z"/>
	</g>
	<rect x="0" y="-0.1" class="st6" width="56" height="56"/>
</g>
</svg>
