<svg width="37" height="37" viewBox="0 0 37 37" fill="none" xmlns="http://www.w3.org/2000/svg">
<path d="M22.7707 26.2861C21.9136 26.8861 20.3707 27.4861 18.5707 27.4861C16.2564 27.4861 14.1993 26.629 12.8278 25.0004C11.7136 23.8004 11.0278 22.1718 10.7707 20.1147H8.9707V18.6576H10.5993C10.5993 18.4861 10.5993 18.4004 10.5993 18.229C10.5993 17.8004 10.5993 17.3718 10.685 16.9433H8.9707V15.4861H10.8564C11.1993 13.5147 12.0564 11.8861 13.1707 10.6861C14.6278 9.14328 16.4278 8.28613 18.7421 8.28613C20.4564 8.28613 21.7421 8.80042 22.5136 9.22899L21.9136 11.1147C21.1421 10.6861 20.0278 10.3433 18.7421 10.3433C17.1993 10.3433 15.9136 10.8576 14.9707 11.8861C14.1136 12.7433 13.5993 14.029 13.2564 15.4861H21.1421V16.9433H12.9993C12.9136 17.2861 12.9136 17.7147 12.9136 18.1433C12.9136 18.3147 12.9136 18.4861 12.9136 18.6576H21.1421V20.1147H13.085C13.3421 21.7433 13.8564 22.9433 14.6278 23.8004C15.6564 24.9147 17.1136 25.429 18.6564 25.429C20.1993 25.429 21.485 24.9147 22.085 24.4861L22.7707 26.2861Z" fill="white"/>
<path d="M18.1429 35.2857C27.6106 35.2857 35.2857 27.6106 35.2857 18.1429C35.2857 8.67512 27.6106 1 18.1429 1C8.67512 1 1 8.67512 1 18.1429C1 27.6106 8.67512 35.2857 18.1429 35.2857Z" stroke="white" stroke-width="2" stroke-miterlimit="10"/>
</svg>
