<?xml version="1.0" encoding="utf-8"?>
<!-- Generator: Adobe Illustrator 25.2.1, SVG Export Plug-In . SVG Version: 6.00 Build 0)  -->
<svg version="1.1" xmlns="http://www.w3.org/2000/svg" xmlns:xlink="http://www.w3.org/1999/xlink" x="0px" y="0px"
	 viewBox="0 0 56 56" style="enable-background:new 0 0 56 56;" xml:space="preserve">
<style type="text/css">
	.st0{display:none;}
	.st1{display:inline;fill:#2A2A2A;}
	.st2{fill:#2A2A2A;}
	.st3{fill:#FFFFFF;}
	.st4{fill:none;stroke:#FFFFFF;stroke-width:3;stroke-linecap:round;stroke-linejoin:round;stroke-miterlimit:10;}
	.st5{fill:none;stroke:#FFFFFF;stroke-width:3;stroke-linecap:round;stroke-linejoin:round;}
	.st6{fill:none;}
	.st7{fill:#FF002B;}
	.st8{fill:url(#SVGID_1_);}
	.st9{fill:url(#SVGID_2_);}
	.st10{clip-path:url(#SVGID_4_);}
	.st11{fill:#FF0606;}
</style>
<g id="FOND" class="st0">
</g>
<g id="Calque_1">
	<g>
		<g>
			<path class="st2" d="M35.4,32.4c0,1.4-1.1,2.5-2.5,2.5h-9.8c-1.4,0-2.5-1.1-2.5-2.5v-0.9L0,22.7V44c0,2.2,1.8,4,4,4h48
				c2.2,0,4-1.8,4-4V22.7l-20.6,8.8V32.4z"/>
			<path class="st2" d="M52,12.1H38.4V9.3c0-2.8-2.3-5.1-5.1-5.1H22.7c-2.8,0-5.1,2.3-5.1,5.1v2.8H4c-2.2,0-4,1.8-4,4v3.3l20.6,8.8
				v-0.6c0-1.4,1.1-2.5,2.5-2.5h9.8c1.4,0,2.5,1.1,2.5,2.5v0.6L56,19.4v-3.3C56,13.9,54.2,12.1,52,12.1z M20.5,9.3
				c0-1.2,1-2.1,2.1-2.1h10.6c1.2,0,2.1,1,2.1,2.1v2.8H20.5V9.3z"/>
		</g>
		<rect x="25.5" y="27.7" class="st2" width="5" height="5"/>
	</g>
	<rect y="0" class="st6" width="56" height="56"/>
</g>
</svg>
