<?xml version="1.0" encoding="UTF-8"?>
<svg id="Cadres" xmlns="http://www.w3.org/2000/svg" xmlns:xlink="http://www.w3.org/1999/xlink" viewBox="0 0 56 56">
  <defs>
    <style>
      .cls-1 {
        stroke: url(#Dégradé_sans_nom_172);
      }

      .cls-1, .cls-2, .cls-3, .cls-4, .cls-5, .cls-6, .cls-7, .cls-8, .cls-9 {
        fill: none;
        stroke-linecap: round;
        stroke-linejoin: round;
        stroke-width: 2px;
      }

      .cls-2 {
        stroke: url(#Dégradé_sans_nom_75-2);
      }

      .cls-3 {
        stroke: #8585f6;
      }

      .cls-4 {
        stroke: url(#Dégradé_sans_nom_75);
      }

      .cls-5 {
        stroke: url(#Dégradé_sans_nom_172-3);
      }

      .cls-6 {
        stroke: url(#Dégradé_sans_nom_172-6);
      }

      .cls-7 {
        stroke: url(#Dégradé_sans_nom_172-4);
      }

      .cls-8 {
        stroke: url(#Dégradé_sans_nom_172-5);
      }

      .cls-9 {
        stroke: url(#Dégradé_sans_nom_172-2);
      }
    </style>
    <linearGradient id="Dégradé_sans_nom_172" data-name="Dégradé sans nom 172" x1="12.65" y1="49.37" x2="22.36" y2="32.56" gradientUnits="userSpaceOnUse">
      <stop offset="0" stop-color="#6a6af4"/>
      <stop offset=".18" stop-color="#8585f6"/>
      <stop offset="1" stop-color="#9797f7"/>
    </linearGradient>
    <linearGradient id="Dégradé_sans_nom_172-2" data-name="Dégradé sans nom 172" x1="21.85" y1="21.69" x2="33.75" y2="1.08" xlink:href="#Dégradé_sans_nom_172"/>
    <linearGradient id="Dégradé_sans_nom_172-3" data-name="Dégradé sans nom 172" x1="20.75" y1="40.55" x2="35.25" y2="15.44" xlink:href="#Dégradé_sans_nom_172"/>
    <linearGradient id="Dégradé_sans_nom_172-4" data-name="Dégradé sans nom 172" x1="14.77" y1="49.54" x2="40.05" y2="5.77" xlink:href="#Dégradé_sans_nom_172"/>
    <linearGradient id="Dégradé_sans_nom_75" data-name="Dégradé sans nom 75" x1="45.61" y1="51.61" x2="49.92" y2="44.15" gradientUnits="userSpaceOnUse">
      <stop offset="0" stop-color="#e1000f"/>
      <stop offset=".99" stop-color="#ff1717"/>
    </linearGradient>
    <linearGradient id="Dégradé_sans_nom_75-2" data-name="Dégradé sans nom 75" x1="33.5" y1="52.7" x2="45.12" y2="32.57" xlink:href="#Dégradé_sans_nom_75"/>
    <linearGradient id="Dégradé_sans_nom_172-5" data-name="Dégradé sans nom 172" x1="28.47" y1="38.4" x2="30.07" y2="35.63" xlink:href="#Dégradé_sans_nom_172"/>
    <linearGradient id="Dégradé_sans_nom_172-6" data-name="Dégradé sans nom 172" x1="13.16" y1="51.76" x2="41.16" y2="3.26" xlink:href="#Dégradé_sans_nom_172"/>
  </defs>
  <path class="cls-1" d="m7,44.96c4.95-4.87,12.51-7.99,21-7.99"/>
  <path class="cls-9" d="m49,11.04c-4.95,4.88-12.52,8-21,8s-16.05-3.12-21-8"/>
  <line class="cls-3" x1="28" y1="1" x2="28" y2="54.99"/>
  <line class="cls-5" x1="1" y1="27.99" x2="55" y2="27.99"/>
  <path class="cls-7" d="m40.92,30.84c.05-.93.07-1.88.07-2.84,0-14.91-5.82-27-13-27s-13,12.09-13,27,5.82,27,13,27c1.33,0,2.62-.42,3.83-1.19"/>
  <path class="cls-4" d="m46.9,43.56l5.18,5.18-3.46,3.45-5.18-5.18"/>
  <path class="cls-2" d="m41.36,50.77l-2.23,4.02-7.12-22.71,22.67,7.16-3.87,2.15"/>
  <path class="cls-8" d="m28,36.97c.86,0,1.71.03,2.54.09"/>
  <path class="cls-6" d="m32.38,54.64c-1.43.23-2.89.35-4.39.35-14.91,0-27-12.09-27-27S13.09,1,28,1s27,12.09,27,27c0,1.31-.09,2.59-.27,3.85"/>
</svg>