<svg width="48" height="38" viewBox="0 0 48 38" fill="none" xmlns="http://www.w3.org/2000/svg">
<g clip-path="url(#clip0_4199_41416)">
<path d="M0 0V37.6114H29.2029L0 0ZM16.6886 32.4771H7.42286C6.85714 32.4771 6.40286 32.0229 6.40286 31.4571V19.32C6.40286 18.3257 7.68 17.9143 8.26286 18.72L17.52 30.8571C18.0086 31.5343 17.52 32.4771 16.6886 32.4771Z" fill="#161616"/>
<path d="M34.2856 0C26.7084 0 20.5713 6.13714 20.5713 13.7143H47.9999C47.9999 6.13714 41.8627 0 34.2856 0ZM28.7141 10.86C28.7141 7.78286 31.2084 5.28857 34.2856 5.28857C37.3627 5.28857 39.857 7.78286 39.857 10.86H28.7141Z" fill="#161616"/>
</g>
<defs>
<clipPath id="clip0_4199_41416">
<rect width="48" height="37.6114" fill="#161616"/>
</clipPath>
</defs>
</svg>
