<svg width="25" height="24" viewBox="0 0 25 24" fill="none" xmlns="http://www.w3.org/2000/svg">
<path d="M21.3839 24C9.594 24 0 14.411 0 2.62109C0 1.22551 1.22551 0 2.62609 0H6.37766C7.77824 0 9.00375 1.22551 9.00375 2.62609C9.00375 3.89662 9.33389 4.89204 9.74906 6.15757C10.0842 7.208 9.92414 8.1634 9.30388 8.77866L7.30304 10.7995C8.90871 13.3506 11.995 15.4164 14.0909 16.6119L15.1013 14.8612C15.1363 14.8062 15.1763 14.7511 15.2213 14.7061C15.8366 14.0909 16.817 13.9258 17.8574 14.2559C19.133 14.6761 20.1234 15.0013 21.3789 15.0013C22.7795 15.0013 24.005 16.2268 24.005 17.6273V21.3989C24.005 22.7845 22.7845 24 21.3889 24H21.3839ZM2.62609 1.50063C2.06086 1.50063 1.50063 2.05586 1.50063 2.62109C1.50063 13.5857 10.4193 22.5044 21.3839 22.5044C21.9592 22.5044 22.4994 21.9692 22.4994 21.4039V17.6323C22.4994 17.0671 21.9441 16.5069 21.3739 16.5069C19.8783 16.5069 18.7328 16.1317 17.4023 15.6965C17.0571 15.5865 16.5969 15.5365 16.3368 15.7216L15.0163 18.0075C14.8112 18.3576 14.366 18.4877 14.0108 18.2926C11.1847 16.767 7.4481 14.2659 5.70238 11.0496C5.54231 10.7595 5.59733 10.3993 5.82743 10.1642L8.23343 7.73322C8.47353 7.49312 8.43351 7.00292 8.31347 6.63276C7.87328 5.30221 7.49312 4.14673 7.49312 2.6361C7.49312 2.07086 6.93789 1.51063 6.36765 1.51063H2.62609V1.50063Z" fill="white"/>
<path d="M14.5004 8.75083C15.0529 8.75083 15.5008 8.30293 15.5008 7.75042C15.5008 7.1979 15.0529 6.75 14.5004 6.75C13.9479 6.75 13.5 7.1979 13.5 7.75042C13.5 8.30293 13.9479 8.75083 14.5004 8.75083Z" fill="white"/>
<path d="M17.5024 8.75083C18.0549 8.75083 18.5028 8.30293 18.5028 7.75042C18.5028 7.1979 18.0549 6.75 17.5024 6.75C16.9499 6.75 16.502 7.1979 16.502 7.75042C16.502 8.30293 16.9499 8.75083 17.5024 8.75083Z" fill="white"/>
<path d="M20.5024 8.75083C21.0549 8.75083 21.5028 8.30293 21.5028 7.75042C21.5028 7.1979 21.0549 6.75 20.5024 6.75C19.9499 6.75 19.502 7.1979 19.502 7.75042C19.502 8.30293 19.9499 8.75083 20.5024 8.75083Z" fill="white"/>
</svg>
