<?xml version="1.0" encoding="UTF-8"?>
<svg xmlns="http://www.w3.org/2000/svg" xmlns:xlink="http://www.w3.org/1999/xlink" viewBox="0 0 24 24">
  <defs>
    <style>
      .cls-1, .cls-2 {
        fill: none;
      }

      .cls-1, .cls-3 {
        stroke-width: 0px;
      }

      .cls-2 {
        stroke: url(#Dégradé_sans_nom_108);
        stroke-linecap: round;
        stroke-linejoin: round;
        stroke-width: 2px;
      }

      .cls-3 {
        fill: #e1000f;
      }
    </style>
    <linearGradient id="Dégradé_sans_nom_108" data-name="Dégradé sans nom 108" x1="7.73" y1="19.42" x2="16.04" y2="5.02" gradientUnits="userSpaceOnUse">
      <stop offset="0" stop-color="#000091"/>
      <stop offset=".15" stop-color="#020494"/>
      <stop offset=".32" stop-color="#0a129f"/>
      <stop offset=".5" stop-color="#1729b1"/>
      <stop offset=".69" stop-color="#294aca"/>
      <stop offset=".89" stop-color="#4173e9"/>
      <stop offset="1" stop-color="#518fff"/>
    </linearGradient>
  </defs>
  <g id="ICONES">
    <path class="cls-2" d="m21.2,22.91C10.05,22.91,1.07,13.93,1.07,2.78c0-.96.87-1.82,1.83-1.82h3.66c.96,0,1.83.87,1.83,1.83,0,1.35.35,2.4.76,3.67.2.63.2,1.35-.26,1.81l-2.35,2.37c1.55,2.86,4.96,5.23,7.81,6.77l1.35-2.33c.46-.46,1.21-.46,1.83-.26,1.28.42,2.31.76,3.66.76.96,0,1.83.87,1.83,1.83v3.68c0,.96-.87,1.81-1.82,1.81Z"/>
    <circle class="cls-3" cx="14" cy="7" r="1"/>
    <circle class="cls-3" cx="18.5" cy="7" r="1"/>
    <circle class="cls-3" cx="23" cy="7" r="1"/>
  </g>
  <g id="Cadres">
    <rect class="cls-1" x="0" y="0" width="24" height="24"/>
  </g>
</svg>