<?xml version="1.0" encoding="utf-8"?>
<!-- Generator: Adobe Illustrator 25.2.1, SVG Export Plug-In . SVG Version: 6.00 Build 0)  -->
<svg version="1.1" xmlns="http://www.w3.org/2000/svg" xmlns:xlink="http://www.w3.org/1999/xlink" x="0px" y="0px"
	 viewBox="0 0 56 56" style="enable-background:new 0 0 56 56;" xml:space="preserve">
<style type="text/css">
	.st0{display:none;}
	.st1{display:inline;fill:#2A2A2A;}
	.st2{fill:#2A2A2A;}
	.st3{fill:#FFFFFF;}
	.st4{fill:none;stroke:#FFFFFF;stroke-width:3;stroke-linecap:round;stroke-linejoin:round;stroke-miterlimit:10;}
	.st5{fill:none;stroke:#FFFFFF;stroke-width:3;stroke-linecap:round;stroke-linejoin:round;}
	.st6{fill:none;}
	.st7{fill:#FF002B;}
	.st8{fill:url(#SVGID_1_);}
	.st9{fill:url(#SVGID_2_);}
	.st10{clip-path:url(#SVGID_4_);}
	.st11{fill:#FF0606;}
</style>
<g id="FOND" class="st0">
</g>
<g id="Calque_1">
	<g>
		<path class="st3" d="M26.6,12.1c3.4,0,6.1-2.7,6.1-6c0-3.4-2.7-6.1-6-6.1c-3.5,0-6.2,2.6-6.1,6.1C20.5,9.5,23.2,12.1,26.6,12.1
			 M45.3,37.4H28.8v11.9h16.4V37.4z M32.6,51.8c-0.2-0.1-0.3-0.2-0.4-0.2c-1,0-2,0-3,0c-1.9,0-2.6-0.7-2.6-2.6c0-3.6,0-7.2,0-10.8
			c0-2.6,0.6-3.2,3.1-3.2c2.4,0,4.7,0,7.1,0c0-4.8,0.1-9.3,0-13.9c-0.1-3.3-2.6-6.1-5.9-6.5c-2.3-0.3-4.7-0.2-7-0.2
			c-4.7,0.1-7.7,3.1-7.7,7.8c0,3.8,0,7.6,0,11.5c0,3.7,0.5,4.2,4.1,4.5c0.1,0,0.2,0.1,0.3,0.3c0,4.8,0,9.7,0,14.5
			c0,1.9,1,2.9,2.9,2.9c1.7,0,3.5,0,5.2,0C31.9,56,32.8,55,32.6,51.8"/>
		<path class="st3" d="M32.6,51.8c0.3,3.2-0.7,4.2-3.8,4.2c-1.8,0-3.5,0-5.2,0c-1.9,0-2.9-1-2.9-2.9c0-4.9,0-9.7,0-14.5
			c-0.2-0.1-0.2-0.3-0.3-0.3c-3.6-0.3-4.1-0.8-4.1-4.5c0-3.8,0-7.6,0-11.5c0-4.7,3-7.8,7.7-7.8c2.3,0,4.7-0.1,7,0.2
			c3.3,0.4,5.8,3.1,5.9,6.5c0.1,4.6,0,9.1,0,13.9c-2.4,0-4.8,0-7.1,0c-2.6,0-3.1,0.6-3.1,3.2c0,3.6,0,7.2,0,10.8
			c0,1.9,0.7,2.6,2.6,2.6c1,0,2,0,3,0C32.3,51.6,32.4,51.7,32.6,51.8"/>
	</g>
	<rect y="0" class="st6" width="56" height="56"/>
</g>
</svg>
