<svg width="48" height="48" viewBox="0 0 48 48" fill="none" xmlns="http://www.w3.org/2000/svg">
<g clip-path="url(#clip0_4524_40198)">
<path d="M14.9587 17.0257C14.4873 17.0257 14.1016 16.64 14.1016 16.1686C14.093 10.0229 18.6787 5.01714 24.3273 5H24.3444C29.9844 5 34.5873 9.98857 34.5959 16.1257C34.5959 16.5971 34.2101 16.9829 33.7387 16.9829C33.2673 16.9829 32.8816 16.5971 32.8816 16.1257C32.873 10.9314 29.0416 6.71429 24.3444 6.71429H24.3273C19.6216 6.72286 15.7987 10.9657 15.8159 16.16C15.8159 16.6314 15.4301 17.0171 14.9587 17.0171V17.0257Z" fill="#161616"/>
<path d="M34.7057 42.7391H14.1429C11.3057 42.7391 9 40.4334 9 37.5963V20.4534C9 17.6163 11.3057 15.3105 14.1429 15.3105H34.7057C37.5429 15.3105 39.8486 17.6163 39.8486 20.4534V37.5963C39.8486 40.4334 37.5429 42.7391 34.7057 42.7391ZM14.1429 18.7391C13.2 18.7391 12.4286 19.5105 12.4286 20.4534V37.5963C12.4286 38.5391 13.2 39.3105 14.1429 39.3105H34.7057C35.6486 39.3105 36.42 38.5391 36.42 37.5963V20.4534C36.42 19.5105 35.6486 18.7391 34.7057 18.7391H14.1429Z" fill="#161616"/>
<path d="M24.4208 30.74C26.3143 30.74 27.8493 29.2049 27.8493 27.3114C27.8493 25.4178 26.3143 23.8828 24.4208 23.8828C22.5272 23.8828 20.9922 25.4178 20.9922 27.3114C20.9922 29.2049 22.5272 30.74 24.4208 30.74Z" fill="#161616"/>
<path d="M26.1512 29.4531H22.7227V34.1674H26.1512V29.4531Z" fill="#161616"/>
</g>
<defs>
<clipPath id="clip0_4524_40198">
<rect width="48" height="48" fill="white"/>
</clipPath>
</defs>
</svg>
