<?xml version="1.0" encoding="utf-8"?>
<!-- Generator: Adobe Illustrator 25.2.1, SVG Export Plug-In . SVG Version: 6.00 Build 0)  -->
<svg version="1.1" xmlns="http://www.w3.org/2000/svg" xmlns:xlink="http://www.w3.org/1999/xlink" x="0px" y="0px"
	 viewBox="0 0 56 56" style="enable-background:new 0 0 56 56;" xml:space="preserve">
<style type="text/css">
	.st0{display:none;}
	.st1{display:inline;fill:#2A2A2A;}
	.st2{fill:#2A2A2A;}
	.st3{fill:#FFFFFF;}
	.st4{fill:none;stroke:#FFFFFF;stroke-width:3;stroke-linecap:round;stroke-linejoin:round;stroke-miterlimit:10;}
	.st5{fill:none;stroke:#FFFFFF;stroke-width:3;stroke-linecap:round;stroke-linejoin:round;}
	.st6{fill:none;}
	.st7{fill:#FF002B;}
	.st8{fill:url(#SVGID_1_);}
	.st9{fill:url(#SVGID_2_);}
	.st10{clip-path:url(#SVGID_4_);}
	.st11{fill:#FF0606;}
</style>
<g id="FOND" class="st0">
</g>
<g id="Calque_1">
	<g>
		<g>
			<path class="st2" d="M27.9,39.7c1.8,0,3.6,0,5.4,0c3.7,0,3.3,0.1,2.5-3.2c-0.3-1.1-0.8-1.4-2-1.4c-3.4,0.1-6.7,0-10.1,0
				c-3.1,0-3,0-3.9,3c-0.4,1.3,0.1,1.6,1.3,1.6C23.4,39.6,25.7,39.7,27.9,39.7 M28,53.7c6.6,0,13.2,0,19.8,0c1.7,0,2-0.4,1.8-2
				c-0.4-2.6-0.9-5.3-1.3-7.9c-0.2-1.2-0.7-1.7-2-1.7c-12.2,0-24.4,0-36.6,0c-1.2,0-1.8,0.4-2,1.7c-0.4,2.6-0.8,5.2-1.3,7.8
				c-0.3,1.9,0,2.2,1.9,2.2C14.9,53.7,21.4,53.7,28,53.7 M28,2.4c-7.8,0-15.6,0-23.4,0c-1.9,0-2.2,0.3-2.2,2.2c0,8.5,0,17,0,25.5
				c0,2.3,0.2,2.6,2.5,2.6c9.8,0,19.7-0.1,29.5-0.1c5.7,0,11.3,0.1,17,0.1c1.9,0,2.3-0.3,2.3-2.3c0-8.5,0-17.1,0-25.6
				c0-2.2-0.3-2.4-2.4-2.4C43.5,2.4,35.8,2.4,28,2.4 M17.1,39.7c0.4-1.6,0.8-3,1.2-4.7c-0.7,0-1.2,0-1.7,0c-4,0-8.1,0-12.1,0
				c-3,0-4.4-1.4-4.4-4.3C0,22,0,13.3,0,4.6C0,1.4,1.4,0,4.6,0c15.7,0,31.3,0,47,0c3,0,4.4,1.4,4.4,4.5c0,8.7,0,17.3,0,26
				c0,3.2-1.3,4.5-4.5,4.5c-4,0-8,0-11.9,0c-0.5,0-1.1,0-1.7,0c0.4,1.6,0.7,3.1,1.1,4.7c2.4,0,4.9,0,7.4,0c2.6,0,3.7,0.9,4.2,3.5
				c0.5,2.9,1,5.8,1.4,8.7c0.3,2.3-1.1,4-3.4,4.2c-0.6,0-1.2,0-1.8,0C34,56,21.2,56,8.5,56c-3.5,0-4.8-1.5-4.3-4.9
				c0.4-2.7,0.8-5.3,1.3-7.9c0.5-2.5,1.6-3.5,4.2-3.5C12.1,39.7,14.6,39.7,17.1,39.7"/>
			<path class="st2" d="M7.1,27.9h41.7V7.2H7.1V27.9z M28,4.7c7.1,0,14.1,0,21.2,0c1.9,0,2.1,0.1,2.1,2c0,7.2,0,14.4,0,21.6
				c0,1.8-0.2,2-2.1,2c-14.2,0-28.3,0-42.5,0c-1.8,0-2-0.2-2-1.9c0-7.3,0-14.5,0-21.8c0-1.8,0.2-1.9,2-1.9C13.8,4.7,20.9,4.7,28,4.7
				"/>
		</g>
		<rect x="19.9" y="50.3" class="st2" width="12.7" height="2.1"/>
		<rect x="41" y="50.2" class="st2" width="2.1" height="2.2"/>
		<rect x="37.4" y="50.2" class="st2" width="2.2" height="2.2"/>
		<rect x="16.4" y="50.3" class="st2" width="2.2" height="2.1"/>
		<rect x="12.9" y="50.2" class="st2" width="2.1" height="2.2"/>
		<rect x="26.9" y="43.3" class="st2" width="2.2" height="2.1"/>
		<rect x="30.4" y="43.3" class="st2" width="2.2" height="2.1"/>
		<rect x="37.4" y="43.3" class="st2" width="2.2" height="2.1"/>
		<rect x="40.9" y="43.3" class="st2" width="2.2" height="2.1"/>
		<rect x="44.5" y="43.3" class="st2" width="2.1" height="2.1"/>
		<rect x="9.4" y="46.8" class="st2" width="2.1" height="2.1"/>
		<rect x="12.9" y="46.8" class="st2" width="2.2" height="2.1"/>
		<rect x="16.4" y="46.8" class="st2" width="2.2" height="2.1"/>
		<rect x="23.4" y="46.8" class="st2" width="2.2" height="2.1"/>
		<rect x="30.4" y="46.8" class="st2" width="2.1" height="2.1"/>
		<rect x="37.4" y="46.8" class="st2" width="2.2" height="2.1"/>
		<rect x="40.9" y="46.8" class="st2" width="2.1" height="2.1"/>
		<rect x="44.4" y="46.8" class="st2" width="2.1" height="2.1"/>
		<rect x="9.5" y="50.3" class="st2" width="2.1" height="2.1"/>
		<rect x="23.4" y="43.3" class="st2" width="2.1" height="2.2"/>
		<rect x="16.4" y="43.3" class="st2" width="2.2" height="2.1"/>
		<rect x="12.9" y="43.3" class="st2" width="2.2" height="2.1"/>
		<rect x="9.5" y="43.3" class="st2" width="2.1" height="2.1"/>
		<rect x="44.4" y="50.3" class="st2" width="2.1" height="2.1"/>
		<rect x="26.9" y="46.8" class="st2" width="2.2" height="2.1"/>
		<g>
			<path class="st2" d="M33.8,43.3H36v2.1h-2.1C33.9,44.8,33.9,44.1,33.8,43.3"/>
		</g>
		<rect x="20" y="46.8" class="st2" width="2.1" height="2.1"/>
		<rect x="33.9" y="46.8" class="st2" width="2.1" height="2.1"/>
		<rect x="20" y="43.3" class="st2" width="2.1" height="2.2"/>
		<rect x="33.9" y="50.2" class="st2" width="2.1" height="2.2"/>
		<g>
			<path class="st2" d="M34.9,10.9c-0.2,0.2-0.4,0.6-0.8,0.9c-3.7,2.2-7.4,4.5-11.1,6.6c-0.4,0.2-1.2-0.1-1.8-0.2
				c0.2-0.6,0.2-1.4,0.6-1.7c3.7-2.3,7.4-4.5,11.2-6.8C34,9.1,35,9.6,34.9,10.9"/>
			<path class="st2" d="M29.2,19c-0.2,0.2-0.4,0.6-0.7,0.8C26.6,20.9,24.8,22,23,23c-0.4,0.2-1.2-0.2-1.8-0.3
				c0.2-0.6,0.3-1.4,0.7-1.7c1.7-1.2,3.5-2.2,5.3-3.2C28.2,17.3,29.2,17.8,29.2,19"/>
		</g>
	</g>
</g>
</svg>
