<?xml version="1.0" encoding="utf-8"?>
<!-- Generator: Adobe Illustrator 25.2.1, SVG Export Plug-In . SVG Version: 6.00 Build 0)  -->
<svg version="1.1" xmlns="http://www.w3.org/2000/svg" xmlns:xlink="http://www.w3.org/1999/xlink" x="0px" y="0px"
	 viewBox="0 0 56 56" style="enable-background:new 0 0 56 56;" xml:space="preserve">
<style type="text/css">
	.st0{display:none;}
	.st1{display:inline;fill:#2A2A2A;}
	.st2{fill:#2A2A2A;}
	.st3{fill:#FFFFFF;}
	.st4{fill:none;stroke:#FFFFFF;stroke-width:3;stroke-linecap:round;stroke-linejoin:round;stroke-miterlimit:10;}
	.st5{fill:none;stroke:#FFFFFF;stroke-width:3;stroke-linecap:round;stroke-linejoin:round;}
	.st6{fill:none;}
	.st7{fill:#FF002B;}
	.st8{fill:url(#SVGID_1_);}
	.st9{fill:url(#SVGID_2_);}
	.st10{clip-path:url(#SVGID_4_);}
	.st11{fill:#FF0606;}
</style>
<g id="FOND" class="st0">
</g>
<g id="Calque_1">
	<path class="st3" d="M52.9,22.5H27.4c-1.7,0-3.1-1.4-3.1-3.1V3.1c0-1.7,1.4-3.1,3.1-3.1h25.5C54.6,0,56,1.4,56,3.1v16.3
		C56,21.1,54.6,22.5,52.9,22.5z M27.4,2.3c-0.4,0-0.8,0.3-0.8,0.8v16.3c0,0.4,0.3,0.8,0.8,0.8h25.5c0.4,0,0.8-0.3,0.8-0.8V3.1
		c0-0.4-0.3-0.8-0.8-0.8H27.4z"/>
	<g>
		<circle class="st3" cx="49" cy="46.8" r="3.8"/>
		<path class="st3" d="M56,56c-3,0-12.6,0-14.1,0C41.9,50.4,56,50.4,56,56z"/>
	</g>
	<g>
		<circle class="st3" cx="28" cy="46.8" r="3.8"/>
		<path class="st3" d="M35,56c-3,0-12.6,0-14.1,0C21,50.4,35,50.4,35,56z"/>
	</g>
	<g>
		<circle class="st3" cx="7" cy="46.8" r="3.8"/>
		<path class="st3" d="M14.1,56c-3,0-12.6,0-14.1,0C0,50.4,14.1,50.4,14.1,56z"/>
	</g>
	<path class="st3" d="M21.9,16.6c0.4,1.6,1.3,9.8,1.2,9.8c-1,0.5-2.1,1-2,2.4c0.1,1,1.1,9,1.4,11.9c0.1,1.3-0.2,2.3-1.6,2.5
		c-1.4,0.2-2-0.8-2.1-2.1c-0.4-3.8-1.2-12-1.4-12.2c-0.4,4-0.8,8-1.2,12c-0.1,1.3-0.5,2.4-2,2.3c-1.5-0.1-1.7-1.2-1.5-2.5
		c0.3-3.5,1.1-11.4,1.2-11.9c0.1-0.7-0.7-2.1-2.1-2.4l1.8-8.5c0,0-2.4,4.4-3.2,5.3c-0.8,0.9-1.7,1.5-2.6,0.8c-1-0.7-0.6-1.8,0.2-2.9
		c2-2.7,5.2-8.6,6.6-8.6h6.3c0,0,7.8-8.5,9.9-6.1C33.4,9.4,26.2,12.4,21.9,16.6z"/>
	<circle class="st3" cx="17.4" cy="7.5" r="3.8"/>
</g>
</svg>
