<?xml version="1.0" encoding="utf-8"?>
<!-- Generator: Adobe Illustrator 25.2.1, SVG Export Plug-In . SVG Version: 6.00 Build 0)  -->
<svg version="1.1" xmlns="http://www.w3.org/2000/svg" xmlns:xlink="http://www.w3.org/1999/xlink" x="0px" y="0px"
	 viewBox="0 0 56 56" style="enable-background:new 0 0 56 56;" xml:space="preserve">
<style type="text/css">
	.st0{display:none;}
	.st1{display:inline;fill:#2A2A2A;}
	.st2{fill:#2A2A2A;}
	.st3{fill:#FFFFFF;}
	.st4{fill:none;stroke:#FFFFFF;stroke-width:3;stroke-linecap:round;stroke-linejoin:round;stroke-miterlimit:10;}
	.st5{fill:none;stroke:#FFFFFF;stroke-width:3;stroke-linecap:round;stroke-linejoin:round;}
	.st6{fill:none;}
	.st7{fill:#FF002B;}
	.st8{fill:url(#SVGID_1_);}
	.st9{fill:url(#SVGID_2_);}
	.st10{clip-path:url(#SVGID_4_);}
	.st11{fill:#FF0606;}
</style>
<g id="FOND" class="st0">
</g>
<g id="Calque_1">
	<path class="st2" d="M54.9,8.6c-0.8-0.8-1.8-1.3-2.9-1.4L24,5.6c-1.1-0.1-2.2,0.3-3.1,1.1c-0.8,0.8-1.3,1.8-1.4,2.9l-1.9,34.7
		c-0.1,1.1,0.3,2.2,1.1,3.1c0.8,0.8,1.8,1.4,2.9,1.4l28,1.6c0.1,0,0.2,0,0.2,0c1,0,2-0.4,2.8-1.1c0.8-0.8,1.3-1.8,1.4-2.9L56,11.6
		C56.1,10.5,55.7,9.4,54.9,8.6z M51,47.4c-0.4,0.3-0.8,0.5-1.3,0.5l-28-1.6c-0.5,0-0.9-0.2-1.2-0.6c-0.3-0.4-0.5-0.8-0.5-1.3L22,9.7
		c0.1-0.9,0.8-1.7,1.8-1.7c0,0,0.1,0,0.1,0l28,1.6c1,0.1,1.7,0.9,1.7,1.9l-1.9,34.7C51.6,46.7,51.3,47.1,51,47.4z"/>
	<circle class="st2" cx="26.4" cy="41.5" r="2.5"/>
	<g>
		<path class="st2" d="M46.4,25.9l-18.9-1.1c-1.4-0.1-2.5-1.3-2.4-2.7l0.4-7.9c0.1-1.4,1.3-2.5,2.7-2.4l18.9,1.1
			c1.4,0.1,2.5,1.3,2.4,2.7l-0.4,7.9C49,24.9,47.8,26,46.4,25.9z M28.1,12.9c-0.8,0-1.5,0.6-1.6,1.4l-0.4,7.9c0,0.8,0.6,1.5,1.4,1.6
			l18.9,1.1c0.8,0,1.5-0.6,1.6-1.4l0.4-7.9c0-0.8-0.6-1.5-1.4-1.6L28.1,12.9z"/>
		<path class="st2" d="M48.2,30.5l-23-1.3c-0.3,0-0.5-0.3-0.5-0.6s0.3-0.5,0.6-0.5l23,1.3c0.3,0,0.5,0.3,0.5,0.6
			S48.5,30.5,48.2,30.5z"/>
		<path class="st2" d="M48,34.4l-23-1.3c-0.3,0-0.5-0.3-0.5-0.6c0-0.3,0.3-0.5,0.6-0.5l23,1.3c0.3,0,0.5,0.3,0.5,0.6
			C48.5,34.2,48.3,34.4,48,34.4z"/>
		<path class="st2" d="M47.7,38.2l-23-1.3c-0.3,0-0.5-0.3-0.5-0.6c0-0.3,0.3-0.5,0.6-0.5l23,1.3c0.3,0,0.5,0.3,0.5,0.6
			C48.3,38,48,38.3,47.7,38.2z"/>
		<polygon class="st2" points="47.4,25.5 26.6,13.2 27.2,12.2 48,24.6 		"/>
		<polygon class="st2" points="26.5,24.4 26.1,23.3 48.1,13.4 48.5,14.4 		"/>
	</g>
	<path class="st2" d="M10.3,12.7l6.6-2.4l0.1-2l-7.3,2.7c-1,0.4-1.8,1.1-2.2,2s-0.5,2-0.1,3l8,22l0.3-4.7L9,15.3
		C8.6,14.3,9.2,13.1,10.3,12.7z"/>
	<path class="st2" d="M14.4,42.3L1.6,20.9c-0.7-1.1-0.3-2.6,0.7-3.2l3-1.2l-0.4-1.2l-3.1,1.3c-1.7,1-2.3,3.3-1.2,5l15.9,26.5
		L14.4,42.3z"/>
	<rect x="0" y="0" class="st6" width="56" height="56"/>
</g>
</svg>
