<?xml version="1.0" encoding="utf-8"?>
<!-- Generator: Adobe Illustrator 25.2.1, SVG Export Plug-In . SVG Version: 6.00 Build 0)  -->
<svg version="1.1" xmlns="http://www.w3.org/2000/svg" xmlns:xlink="http://www.w3.org/1999/xlink" x="0px" y="0px"
	 viewBox="0 0 56 56" style="enable-background:new 0 0 56 56;" xml:space="preserve">
<style type="text/css">
	.st0{display:none;}
	.st1{display:inline;fill:#2A2A2A;}
	.st2{fill:#2A2A2A;}
	.st3{fill:#FFFFFF;}
	.st4{fill:none;stroke:#FFFFFF;stroke-width:3;stroke-linecap:round;stroke-linejoin:round;stroke-miterlimit:10;}
	.st5{fill:none;stroke:#FFFFFF;stroke-width:3;stroke-linecap:round;stroke-linejoin:round;}
	.st6{fill:none;}
	.st7{fill:#FF002B;}
	.st8{fill:url(#SVGID_1_);}
	.st9{fill:url(#SVGID_2_);}
	.st10{clip-path:url(#SVGID_4_);}
	.st11{fill:#FF0606;}
</style>
<g id="FOND" class="st0">
</g>
<g id="Calque_1">
	<g>
		<path class="st3" d="M41.1,28.1c0-7.6,0-15.2,0-22.8c0-2.6-0.8-3.4-3.4-3.4c-6.4,0-12.9,0-19.3,0c-2.6,0-3.4,0.8-3.4,3.4
			c0,15.1,0,30.2,0,45.3c0,2.6,0.8,3.4,3.4,3.4c6.4,0,12.8,0,19.2,0c2.8,0,3.6-0.8,3.6-3.6C41.1,43.1,41.1,35.6,41.1,28.1 M39.5,0
			C42,1,43,2.8,42.9,5.6c-0.1,15,0,29.9,0,44.9c0,3.9-1.6,5.5-5.5,5.5c-6.4,0-12.9,0-19.3,0c-3.3,0-5-1.7-5-5c0-15.3,0-30.7,0-46
			c0-2.6,1.2-4.1,3.5-5H39.5z"/>
		<path class="st3" d="M27.9,5.6c-2.2,0-4.5,0-6.7,0c-0.7,0-1.5,0.1-1.6-0.9c0-1,0.8-1,1.5-1c4.6,0,9.1,0,13.7,0c0.7,0,1.5,0,1.5,1
			c0,1-0.9,0.9-1.6,0.9C32.5,5.6,30.2,5.6,27.9,5.6"/>
	</g>
	<g>
		<path class="st3" d="M21.7,17.5h-2.9c-0.6,0-1.2-0.5-1.2-1.2v-2.9c0-0.6,0.5-1.2,1.2-1.2h2.9c0.6,0,1.2,0.5,1.2,1.2v2.9
			C22.9,17,22.4,17.5,21.7,17.5z"/>
		<path class="st3" d="M21.7,25.7h-2.9c-0.6,0-1.2-0.5-1.2-1.2v-2.9c0-0.6,0.5-1.2,1.2-1.2h2.9c0.6,0,1.2,0.5,1.2,1.2v2.9
			C22.9,25.2,22.4,25.7,21.7,25.7z"/>
		<path class="st3" d="M21.7,33.9h-2.9c-0.6,0-1.2-0.5-1.2-1.2v-2.9c0-0.6,0.5-1.2,1.2-1.2h2.9c0.6,0,1.2,0.5,1.2,1.2v2.9
			C22.9,33.4,22.4,33.9,21.7,33.9z"/>
	</g>
	<g>
		<path class="st3" d="M29.4,17.5h-2.9c-0.6,0-1.2-0.5-1.2-1.2v-2.9c0-0.6,0.5-1.2,1.2-1.2h2.9c0.6,0,1.2,0.5,1.2,1.2v2.9
			C30.6,17,30.1,17.5,29.4,17.5z"/>
		<path class="st3" d="M29.4,25.7h-2.9c-0.6,0-1.2-0.5-1.2-1.2v-2.9c0-0.6,0.5-1.2,1.2-1.2h2.9c0.6,0,1.2,0.5,1.2,1.2v2.9
			C30.6,25.2,30.1,25.7,29.4,25.7z"/>
		<path class="st3" d="M29.4,33.9h-2.9c-0.6,0-1.2-0.5-1.2-1.2v-2.9c0-0.6,0.5-1.2,1.2-1.2h2.9c0.6,0,1.2,0.5,1.2,1.2v2.9
			C30.6,33.4,30.1,33.9,29.4,33.9z"/>
	</g>
	<g>
		<path class="st3" d="M37.2,17.5h-2.9c-0.6,0-1.2-0.5-1.2-1.2v-2.9c0-0.6,0.5-1.2,1.2-1.2h2.9c0.6,0,1.2,0.5,1.2,1.2v2.9
			C38.3,17,37.8,17.5,37.2,17.5z"/>
		<path class="st3" d="M37.2,25.7h-2.9c-0.6,0-1.2-0.5-1.2-1.2v-2.9c0-0.6,0.5-1.2,1.2-1.2h2.9c0.6,0,1.2,0.5,1.2,1.2v2.9
			C38.3,25.2,37.8,25.7,37.2,25.7z"/>
		<path class="st3" d="M37.2,33.9h-2.9c-0.6,0-1.2-0.5-1.2-1.2v-2.9c0-0.6,0.5-1.2,1.2-1.2h2.9c0.6,0,1.2,0.5,1.2,1.2v2.9
			C38.3,33.4,37.8,33.9,37.2,33.9z"/>
	</g>
	<rect x="0" y="0" class="st6" width="56" height="56"/>
	<path class="st3" d="M30.7,50.1h-5.3c-1.1,0-2-0.9-2-2s0.9-2,2-2h5.3c1.1,0,2,0.9,2,2S31.8,50.1,30.7,50.1z"/>
</g>
</svg>
