<?xml version="1.0" encoding="utf-8"?>
<!-- Generator: Adobe Illustrator 25.2.1, SVG Export Plug-In . SVG Version: 6.00 Build 0)  -->
<svg version="1.1" xmlns="http://www.w3.org/2000/svg" xmlns:xlink="http://www.w3.org/1999/xlink" x="0px" y="0px"
	 viewBox="0 0 56 56" style="enable-background:new 0 0 56 56;" xml:space="preserve">
<style type="text/css">
	.st0{display:none;}
	.st1{display:inline;fill:#2A2A2A;}
	.st2{fill:#2A2A2A;}
	.st3{fill:#FFFFFF;}
	.st4{fill:none;stroke:#FFFFFF;stroke-width:3;stroke-linecap:round;stroke-linejoin:round;stroke-miterlimit:10;}
	.st5{fill:none;stroke:#FFFFFF;stroke-width:3;stroke-linecap:round;stroke-linejoin:round;}
	.st6{fill:none;}
	.st7{fill:#FF002B;}
	.st8{fill:url(#SVGID_1_);}
	.st9{fill:url(#SVGID_2_);}
	.st10{clip-path:url(#SVGID_4_);}
	.st11{fill:#FF0606;}
</style>
<g id="FOND" class="st0">
</g>
<g id="Calque_1">
	<g>
		<path class="st3" d="M54.7,46.3H31.3c-0.5,0-0.9-0.3-1.1-0.7c-0.2-0.4-0.2-0.9,0.1-1.3l21.6-32.1H35.3c-0.7,0-1.2-0.6-1.2-1.2
			s0.6-1.2,1.2-1.2h18.9c0.5,0,0.9,0.3,1.1,0.7c0.2,0.4,0.2,0.9-0.1,1.3L33.7,43.8h21.1c0.7,0,1.2,0.6,1.2,1.2S55.4,46.3,54.7,46.3z
			"/>
		<path class="st3" d="M35.1,26.9H22.6c-0.7,0-1.2-0.6-1.2-1.2s0.6-1.2,1.2-1.2h9.9L29.6,21c-0.4-0.5-0.4-1.3,0.2-1.8
			c0.5-0.4,1.3-0.4,1.8,0.2l4.6,5.5c0.3,0.4,0.4,0.9,0.2,1.3C36.1,26.6,35.6,26.9,35.1,26.9z"/>
		<path class="st3" d="M30.6,32.4c-0.3,0-0.6-0.1-0.8-0.3c-0.5-0.4-0.6-1.2-0.2-1.8l4.6-5.5c0.4-0.5,1.2-0.6,1.8-0.2
			c0.5,0.4,0.6,1.2,0.2,1.8L31.5,32C31.3,32.3,30.9,32.4,30.6,32.4z"/>
		<path class="st3" d="M24.2,46.3c-0.5,0-1-0.3-1.2-0.8L12.7,14.9L2.5,45.4c-0.2,0.7-0.9,1-1.6,0.8c-0.7-0.2-1-0.9-0.8-1.6
			l11.4-34.1c0.2-0.5,0.6-0.9,1.2-0.9c0,0,0,0,0,0c0.5,0,1,0.3,1.2,0.8l11.5,34.1c0.2,0.7-0.1,1.4-0.8,1.6
			C24.5,46.3,24.4,46.3,24.2,46.3z"/>
		<path class="st3" d="M20.9,36.6H4.6c-0.7,0-1.2-0.6-1.2-1.2s0.6-1.2,1.2-1.2h16.4c0.7,0,1.2,0.6,1.2,1.2S21.6,36.6,20.9,36.6z"/>
	</g>
	<rect class="st6" width="56" height="56"/>
</g>
</svg>
