<?xml version="1.0" encoding="UTF-8"?>
<svg xmlns="http://www.w3.org/2000/svg" viewBox="0 0 56 56">
  <defs>
    <style>
      .cls-1 {
        stroke-width: 0px;
      }

      .cls-1, .cls-2, .cls-3 {
        fill: none;
      }

      .cls-2 {
        stroke-miterlimit: 10;
      }

      .cls-2, .cls-3 {
        stroke: #3a3a3a;
        stroke-linecap: round;
        stroke-width: 2px;
      }

      .cls-3 {
        stroke-linejoin: round;
      }
    </style>
  </defs>
  <g id="ICONES">
    <path class="cls-3" d="m18.06,26.77l2.48,2.48,17.78,17.78h8.68v-8.68L23.85,15.19l-10.26,10.29c-.38.38-.6.9-.6,1.45s.22,1.06.6,1.45l14.47,14.47,3.03-3.05-13.02-13.02Z"/>
    <path class="cls-2" d="m15.16,9.4l-5.79,5.79c-.38.38-.6.9-.6,1.45s.22,1.06.6,1.45l2.9,2.9,8.68-8.68-2.89-2.89c-.38-.38-.9-.6-1.45-.6s-1.06.22-1.45.6Z"/>
  </g>
  <g id="Cadres">
    <rect class="cls-1" x="0" y="0" width="56" height="56"/>
  </g>
</svg>