<svg width="50" height="50" viewBox="0 0 50 50" fill="none" xmlns="http://www.w3.org/2000/svg">
<path d="M12.2792 25.1823C12.2792 28.2448 9.79574 30.7278 6.73199 30.7278C3.66824 30.7278 1.18481 28.2448 1.18481 25.1823C1.18481 22.1197 3.66824 19.6367 6.73199 19.6367C9.79574 19.6367 12.2792 22.1197 12.2792 25.1823Z" fill="#fff" stroke="#fff"/>
<path d="M43.0152 13.0911C46.355 13.0911 49.0624 10.3844 49.0624 7.04554C49.0624 3.70668 46.355 1 43.0152 1C39.6754 1 36.968 3.70668 36.968 7.04554C36.968 10.3844 39.6754 13.0911 43.0152 13.0911Z" stroke="#fff" stroke-miterlimit="10"/>
<path d="M43.0152 49.3645C46.355 49.3645 49.0624 46.6578 49.0624 43.319C49.0624 39.9801 46.355 37.2734 43.0152 37.2734C39.6754 37.2734 36.968 39.9801 36.968 43.319C36.968 46.6578 39.6754 49.3645 43.0152 49.3645Z" stroke="#fff" stroke-miterlimit="10"/>
<path d="M37.6028 9.75L6.73193 25.1812L37.6028 40.6125" stroke="#fff" stroke-miterlimit="10"/>
</svg>
