<svg width="48" height="48" viewBox="0 0 48 48" fill="none" xmlns="http://www.w3.org/2000/svg">
<g clip-path="url(#clip0_4523_40033)">
<path d="M46.2904 40.58H26.9276C26.3019 40.58 25.719 40.2371 25.419 39.6886C25.119 39.14 25.1447 38.4629 25.4876 37.94L42.6304 11.4286H28.6419C27.699 11.4286 26.9276 10.6571 26.9276 9.71429C26.9276 8.77143 27.699 8 28.6419 8H45.7847C46.4104 8 46.9933 8.34286 47.2933 8.89143C47.5933 9.44 47.5676 10.1171 47.2247 10.64L30.0819 37.1429H46.299C47.2419 37.1429 48.0133 37.9143 48.0133 38.8571C48.0133 39.8 47.2419 40.5714 46.299 40.5714L46.2904 40.58Z" fill="#161616"/>
<path d="M31.4688 21.1055C31.5459 21.1826 31.5973 21.2683 31.6402 21.3626C31.5973 21.2683 31.5459 21.1826 31.4688 21.1055Z" fill="#161616"/>
<path d="M31.7116 21.749C31.7116 21.8433 31.6944 21.929 31.6602 22.0147C31.6944 21.929 31.7116 21.8347 31.7116 21.749Z" fill="#161616"/>
<path d="M31.668 21.4482C31.6937 21.5168 31.7023 21.5854 31.7108 21.6625C31.7108 21.594 31.6937 21.5168 31.668 21.4482Z" fill="#161616"/>
<path d="M31.4702 21.1058L27.1844 16.8201C26.8502 16.4858 26.3102 16.4858 25.9759 16.8201C25.6416 17.1543 25.6416 17.6943 25.9759 18.0286L28.7959 20.8486H21.7673C21.2959 20.8486 20.9102 21.2343 20.9102 21.7058C20.9102 22.1772 21.2959 22.5629 21.7673 22.5629H28.7959L30.2616 21.0972C30.5959 20.7629 31.1359 20.7629 31.4702 21.0972V21.1058Z" fill="#161616"/>
<path d="M31.6519 22.04C31.6176 22.1258 31.5576 22.2115 31.4805 22.2886C31.549 22.2115 31.609 22.1343 31.6519 22.04Z" fill="#161616"/>
<path d="M31.7084 21.749C31.7084 21.749 31.7084 21.689 31.7084 21.6633C31.7084 21.5948 31.6913 21.5176 31.6656 21.449C31.657 21.4233 31.6484 21.389 31.6313 21.3633C31.5884 21.269 31.537 21.1833 31.4598 21.1062C31.1256 20.7719 30.5856 20.7719 30.2513 21.1062L28.7856 22.5719L25.9656 25.3919C25.6313 25.7262 25.6313 26.2662 25.9656 26.6005C26.137 26.7719 26.3513 26.849 26.5741 26.849C26.797 26.849 27.0113 26.7633 27.1827 26.6005L31.4684 22.3148C31.4684 22.3148 31.477 22.2976 31.4856 22.289C31.5541 22.2119 31.6141 22.1262 31.657 22.0319C31.657 22.0319 31.657 22.0148 31.657 22.0062C31.6913 21.9205 31.7084 21.8262 31.7084 21.7405V21.749Z" fill="#161616"/>
<path d="M23.9103 38.2914L13.6246 9.14C13.3846 8.45429 12.7332 8 12.0046 8C11.276 8 10.6332 8.46286 10.3846 9.14L3.1846 29.5486C3.01318 29.7629 2.91032 30.0286 2.91032 30.3286L0.0988904 38.2914C-0.218252 39.1829 0.253176 40.16 1.1446 40.4771C2.03603 40.7943 3.01318 40.3229 3.33032 39.4314L6.08175 31.6229H17.9103L20.6617 39.4314C20.9103 40.1343 21.5703 40.5714 22.2817 40.5714C22.4703 40.5714 22.6675 40.5371 22.856 40.4686C23.7475 40.1514 24.2189 39.1743 23.9017 38.2829L23.9103 38.2914ZM6.99889 29.0514L12.0046 14.8657L17.0103 29.0514H6.99889Z" fill="#161616"/>
</g>
<defs>
<clipPath id="clip0_4523_40033">
<rect width="48" height="48" fill="white"/>
</clipPath>
</defs>
</svg>
