<?xml version="1.0" encoding="utf-8"?>
<!-- Generator: Adobe Illustrator 25.2.1, SVG Export Plug-In . SVG Version: 6.00 Build 0)  -->
<svg version="1.1" xmlns="http://www.w3.org/2000/svg" xmlns:xlink="http://www.w3.org/1999/xlink" x="0px" y="0px"
	 viewBox="0 0 56 56" style="enable-background:new 0 0 56 56;" xml:space="preserve">
<style type="text/css">
	.st0{display:none;}
	.st1{display:inline;fill:#2A2A2A;}
	.st2{fill:#2A2A2A;}
	.st3{fill:#FFFFFF;}
	.st4{fill:none;stroke:#FFFFFF;stroke-width:3;stroke-linecap:round;stroke-linejoin:round;stroke-miterlimit:10;}
	.st5{fill:none;stroke:#FFFFFF;stroke-width:3;stroke-linecap:round;stroke-linejoin:round;}
	.st6{fill:none;}
	.st7{fill:#FF002B;}
	.st8{fill:url(#SVGID_1_);}
	.st9{fill:url(#SVGID_2_);}
	.st10{clip-path:url(#SVGID_4_);}
	.st11{fill:#FF0606;}
</style>
<g id="FOND" class="st0">
</g>
<g id="Calque_1">
	<path class="st2" d="M56,12.1c0-1.5-0.6-2.8-1.6-3.8c0,0,0-0.1-0.1-0.1c-1-0.9-2.2-1.4-3.5-1.4c0,0,0,0,0,0c0,0,0,0,0,0H5.2
		C4,6.9,2.8,7.3,1.9,8.1C1.8,8.1,1.7,8.2,1.6,8.3c0,0,0,0.1-0.1,0.1C0.6,9.4,0,10.7,0,12.1v31.8c0,1.2,0.4,2.3,1.1,3.2
		c0.1,0.2,0.2,0.3,0.3,0.4c0,0,0,0,0,0c1,1,2.3,1.6,3.8,1.6h45.5c1.5,0,2.9-0.7,3.8-1.7c0,0,0,0,0,0c0.1-0.1,0.2-0.3,0.3-0.4
		c0.6-0.9,1-1.9,1-3.1V12.1z M38.2,24.8c4.8-4.4,11.2-10.3,15.1-14c0.2,0.4,0.3,0.8,0.3,1.3v31.8c0,0.1,0,0.2,0,0.3
		C49.8,39.4,43.1,31,38.2,24.8z M50.8,9.2c0.1,0,0.2,0,0.3,0c0.1,0,0.2,0,0.3,0c0,0,0.1,0,0.1,0c-5.8,5.3-19.4,17.9-21.3,19.5
		c-1.7,1.4-2.9,1.4-4.5,0C24.4,27.8,10.3,14.8,4.4,9.4c0.3-0.1,0.5-0.1,0.8-0.1H50.8z M2.4,44.3c0-0.1,0-0.3,0-0.4V12.1
		c0-0.4,0.1-0.8,0.3-1.2c4,3.7,10.4,9.6,15.2,14C12.9,31,6.4,39.3,2.4,44.3z M5.2,46.8c-0.5,0-1-0.2-1.4-0.4
		c3.9-4.9,10.7-13.5,15.8-19.9c2.4,2.2,4.2,3.8,4.6,4.2c1.3,1.1,2.5,1.6,3.8,1.6c1.3,0,2.5-0.5,3.8-1.6c0.6-0.5,2.4-2.1,4.7-4.3
		c5.2,6.5,12.1,15.2,15.8,19.9c-0.4,0.3-1,0.4-1.5,0.4H5.2z"/>
	<rect class="st6" width="56" height="56"/>
</g>
</svg>
