<svg width="48" height="48" viewBox="0 0 48 48" fill="none" xmlns="http://www.w3.org/2000/svg">
<g clip-path="url(#clip0_4138_81568)">
<path d="M34.1996 23.1424C38.4601 23.1424 41.9139 19.6886 41.9139 15.4282C41.9139 11.1677 38.4601 7.71387 34.1996 7.71387C29.9392 7.71387 26.4854 11.1677 26.4854 15.4282C26.4854 19.6886 29.9392 23.1424 34.1996 23.1424Z" fill="#161616"/>
<path d="M20.5713 40.2856C20.5713 32.7427 26.7427 26.5713 34.2856 26.5713C41.8284 26.5713 47.9999 32.7427 47.9999 40.2856H20.5713Z" fill="#161616"/>
<path d="M12.3426 26.571C13.6208 26.571 14.6569 25.5348 14.6569 24.2567C14.6569 22.9785 13.6208 21.9424 12.3426 21.9424C11.0645 21.9424 10.0283 22.9785 10.0283 24.2567C10.0283 25.5348 11.0645 26.571 12.3426 26.571Z" fill="#161616"/>
<path d="M14.6571 24.2568H10.1143V40.2854H14.6571V24.2568Z" fill="#161616"/>
<path d="M2.31429 33.4284C3.59243 33.4284 4.62857 32.3922 4.62857 31.1141C4.62857 29.8359 3.59243 28.7998 2.31429 28.7998C1.03614 28.7998 0 29.8359 0 31.1141C0 32.3922 1.03614 33.4284 2.31429 33.4284Z" fill="#161616"/>
<path d="M4.54286 31.1143H0V40.2857H4.54286V31.1143Z" fill="#161616"/>
</g>
<defs>
<clipPath id="clip0_4138_81568">
<rect width="48" height="48" fill="#161616"/>
</clipPath>
</defs>
</svg>
