<?xml version="1.0" encoding="UTF-8"?>
<svg xmlns="http://www.w3.org/2000/svg" xmlns:xlink="http://www.w3.org/1999/xlink" viewBox="0 0 56 56">
  <defs>
    <style>
      .cls-1, .cls-2, .cls-3, .cls-4, .cls-5, .cls-6 {
        fill: none;
      }

      .cls-1, .cls-7 {
        stroke-width: 0px;
      }

      .cls-2 {
        stroke: url(#Dégradé_sans_nom_140);
      }

      .cls-2, .cls-3, .cls-4, .cls-5, .cls-6 {
        stroke-linecap: round;
        stroke-linejoin: round;
        stroke-width: 2px;
      }

      .cls-3 {
        stroke: url(#Dégradé_sans_nom_108-2);
      }

      .cls-4 {
        stroke: url(#Dégradé_sans_nom_140-3);
      }

      .cls-5 {
        stroke: url(#Dégradé_sans_nom_140-2);
      }

      .cls-6 {
        fill-rule: evenodd;
        stroke: url(#Dégradé_sans_nom_108);
      }

      .cls-7 {
        fill: #e1000f;
      }
    </style>
    <linearGradient id="Dégradé_sans_nom_108" data-name="Dégradé sans nom 108" x1="34.41" y1="23.72" x2="48.16" y2="-.1" gradientUnits="userSpaceOnUse">
      <stop offset="0" stop-color="#000091"/>
      <stop offset=".15" stop-color="#020494"/>
      <stop offset=".32" stop-color="#0a129f"/>
      <stop offset=".5" stop-color="#1729b1"/>
      <stop offset=".69" stop-color="#294aca"/>
      <stop offset=".89" stop-color="#4173e9"/>
      <stop offset="1" stop-color="#518fff"/>
    </linearGradient>
    <linearGradient id="Dégradé_sans_nom_108-2" data-name="Dégradé sans nom 108" x1="6.56" y1="59.37" x2="30.13" y2="18.53" xlink:href="#Dégradé_sans_nom_108"/>
    <linearGradient id="Dégradé_sans_nom_140" data-name="Dégradé sans nom 140" x1="10" y1="42.97" x2="19.97" y2="42.97" gradientUnits="userSpaceOnUse">
      <stop offset="0" stop-color="#ce0500"/>
      <stop offset=".39" stop-color="#e1000f"/>
      <stop offset="1" stop-color="#ea353c"/>
    </linearGradient>
    <linearGradient id="Dégradé_sans_nom_140-2" data-name="Dégradé sans nom 140" y1="36.97" x2="31.95" y2="36.97" xlink:href="#Dégradé_sans_nom_140"/>
    <linearGradient id="Dégradé_sans_nom_140-3" data-name="Dégradé sans nom 140" y1="30.97" x2="30" y2="30.97" xlink:href="#Dégradé_sans_nom_140"/>
  </defs>
  <g id="ICONES">
    <path class="cls-6" d="m40,23l8.99,7.99v-7.99h6V5h-29.94v8.03"/>
    <path class="cls-3" d="m5.3,48.03l-4.29,6.98h19.08c10.54,0,19.08-8.54,19.08-19.08s-8.54-19.08-19.08-19.08S1.01,25.39,1.01,35.93c0,2.88.64,5.62,1.79,8.07"/>
    <line class="cls-2" x1="11" y1="42.97" x2="18.97" y2="42.97"/>
    <line class="cls-5" x1="11" y1="36.97" x2="30.95" y2="36.97"/>
    <line class="cls-4" x1="11" y1="30.97" x2="29" y2="30.97"/>
    <circle class="cls-7" cx="33" cy="14" r="1"/>
    <circle class="cls-7" cx="39.02" cy="14" r="1"/>
    <circle class="cls-7" cx="45" cy="14" r="1"/>
  </g>
  <g id="Cadres">
    <rect class="cls-1" y="0" width="56" height="56"/>
  </g>
</svg>