<?xml version="1.0" encoding="utf-8"?>
<!-- Generator: Adobe Illustrator 25.2.1, SVG Export Plug-In . SVG Version: 6.00 Build 0)  -->
<svg version="1.1" xmlns="http://www.w3.org/2000/svg" xmlns:xlink="http://www.w3.org/1999/xlink" x="0px" y="0px"
	 viewBox="0 0 56 56" style="enable-background:new 0 0 56 56;" xml:space="preserve">
<style type="text/css">
	.st0{display:none;}
	.st1{display:inline;fill:#2A2A2A;}
	.st2{fill:#2A2A2A;}
	.st3{fill:#FFFFFF;}
	.st4{fill:none;stroke:#FFFFFF;stroke-width:3;stroke-linecap:round;stroke-linejoin:round;stroke-miterlimit:10;}
	.st5{fill:none;stroke:#FFFFFF;stroke-width:3;stroke-linecap:round;stroke-linejoin:round;}
	.st6{fill:none;}
	.st7{fill:#FF002B;}
	.st8{fill:url(#SVGID_1_);}
	.st9{fill:url(#SVGID_2_);}
	.st10{clip-path:url(#SVGID_4_);}
	.st11{fill:#FF0606;}
</style>
<g id="FOND" class="st0">
</g>
<g id="Calque_1">
	<g>
		<g>
			<path class="st2" d="M0.6,33c0-2.2,0-4.3,0-6.5c0-3.5,2.4-6.1,5.6-6.1c3.4,0,5.9,2.5,6,6.1c0.1,2.3,0.1,4.6,0,6.9
				c-0.1,1.4,0.5,1.8,1.8,1.7c0.8-0.1,1.6,0,2.4,0c2.2,0.1,3.8,1.4,3.8,3.6c0.1,4.2,0.1,8.4,0,12.7c0,1.7-1.1,2.6-2.7,2.6
				c-0.9,0-1.9,0-2.8,0c-1.9,0-2.9-1-2.9-2.9c0-2.1,0-4.2,0-6.3c0-1-0.3-1.4-1.4-1.4c-2.1,0.1-4.2,0-6.3,0c-2.2,0-3.5-1.3-3.5-3.5
				C0.6,37.6,0.6,35.3,0.6,33"/>
			<path class="st2" d="M55.4,33.1c0,2.2,0,4.3,0,6.5c0,2.7-1.1,3.8-3.9,3.8c-2,0-3.9,0-5.9,0c-1.1,0-1.5,0.4-1.5,1.5
				c0.1,2.2,0,4.3,0,6.5c0,1.7-1,2.6-2.6,2.7c-1,0-2.1,0-3.1,0c-1.6,0-2.5-0.9-2.6-2.4c0-4.4-0.1-8.8,0-13.3c0-1.8,1.4-3.1,3.2-3.2
				c1-0.1,2-0.1,2.9,0c1.2,0.1,1.7-0.3,1.6-1.6c-0.1-2.4-0.1-4.8,0-7.2c0.1-3.2,2.3-5.6,5.1-5.9c3.1-0.3,5.9,1.6,6.4,4.6
				c0.3,2,0.1,4.1,0.1,6.2C55.4,31.8,55.4,32.5,55.4,33.1"/>
			<path class="st2" d="M25.5,31.6c-1.8,0-3.5,0-5.1,0c-1.7,0-2.9-1-2.9-2.5c0-1.5,1.1-2.5,2.9-2.5c5.1,0,10.1,0,15.2,0
				c1.8,0,2.8,1,2.8,2.5c0,1.5-1.1,2.4-2.9,2.4c-1.7,0-3.3,0-5.1,0v1.7c0,5.9,0,11.9,0,17.8c0,2-0.8,3-2.4,3c-1.6,0-2.4-1-2.5-3
				c0-5.8,0-11.7,0-17.5C25.5,33,25.5,32.4,25.5,31.6"/>
			<path class="st2" d="M49.6,18.7c-3.6,0-6.5-2.9-6.5-6.4c0-3.5,3-6.5,6.5-6.5c3.5,0,6.4,2.9,6.4,6.5C56,15.9,53.2,18.7,49.6,18.7"
				/>
			<path class="st2" d="M6.4,18.7c-3.6,0-6.4-2.8-6.4-6.5c0-3.6,3-6.5,6.5-6.4c3.5,0.1,6.5,3,6.4,6.5C12.9,15.9,10,18.7,6.4,18.7"/>
		</g>
		<path class="st2" d="M28,1.7c-5.8,0-10.5,4.7-10.5,10.5c0,5.8,4.7,10.5,10.5,10.5s10.5-4.7,10.5-10.5C38.5,6.4,33.8,1.7,28,1.7z
			 M31.3,13.3H27l-0.1-6.8l1-1.3l1,1.2l0,4.8h2.3l1.2,1L31.3,13.3z"/>
		<rect class="st6" width="56" height="56"/>
	</g>
</g>
</svg>
