<svg width="48" height="48" viewBox="0 0 48 48" fill="none" xmlns="http://www.w3.org/2000/svg">
<g clip-path="url(#clip0_4523_40100)">
<path d="M47.1437 45.4291H0.892299C0.42087 45.4291 0.0351562 45.0434 0.0351562 44.572C0.0351562 44.1006 0.42087 43.7148 0.892299 43.7148H47.1437C47.6152 43.7148 48.0009 44.1006 48.0009 44.572C48.0009 45.0434 47.6152 45.4291 47.1437 45.4291Z" fill="white"/>
<path d="M47.1437 37.2006H0.892299C0.42087 37.2006 0.0351562 36.8149 0.0351562 36.3435C0.0351562 35.872 0.42087 35.4863 0.892299 35.4863H47.1437C47.6152 35.4863 48.0009 35.872 48.0009 36.3435C48.0009 36.8149 47.6152 37.2006 47.1437 37.2006Z" fill="white"/>
<path d="M47.1437 28.9721H0.892299C0.42087 28.9721 0.0351562 28.5864 0.0351562 28.115C0.0351562 27.6435 0.42087 27.2578 0.892299 27.2578H47.1437C47.6152 27.2578 48.0009 27.6435 48.0009 28.115C48.0009 28.5864 47.6152 28.9721 47.1437 28.9721Z" fill="white"/>
<path d="M47.1417 4.28655H21.4275C20.956 4.28655 20.5703 3.90084 20.5703 3.42941C20.5703 2.95798 20.956 2.57227 21.4275 2.57227H47.1417C47.6132 2.57227 47.9989 2.95798 47.9989 3.42941C47.9989 3.90084 47.6132 4.28655 47.1417 4.28655Z" fill="white"/>
<path d="M47.1417 12.5151H21.4275C20.956 12.5151 20.5703 12.1294 20.5703 11.6579C20.5703 11.1865 20.956 10.8008 21.4275 10.8008H47.1417C47.6132 10.8008 47.9989 11.1865 47.9989 11.6579C47.9989 12.1294 47.6132 12.5151 47.1417 12.5151Z" fill="white"/>
<path d="M47.1417 20.7436H21.4275C20.956 20.7436 20.5703 20.3579 20.5703 19.8864C20.5703 19.415 20.956 19.0293 21.4275 19.0293H47.1417C47.6132 19.0293 47.9989 19.415 47.9989 19.8864C47.9989 20.3579 47.6132 20.7436 47.1417 20.7436Z" fill="white"/>
<path d="M17.1444 18.9854L11.4959 2.99972C11.3159 2.48544 10.8273 2.14258 10.2873 2.14258C9.74728 2.14258 9.25871 2.48544 9.07871 2.99972L3.43871 18.9854C3.19871 19.654 3.55014 20.3911 4.22728 20.6226C4.89585 20.8626 5.633 20.5111 5.86443 19.834L7.36443 15.5912H13.2273L14.7273 19.834C14.9159 20.3654 15.413 20.6911 15.9359 20.6911C16.0816 20.6911 16.2187 20.6654 16.3644 20.614C17.033 20.374 17.3844 19.6454 17.153 18.9769L17.1444 18.9854ZM7.96443 13.8854L10.2873 7.29401L12.6101 13.8854H7.96443V13.8854Z" fill="white"/>
</g>
<defs>
<clipPath id="clip0_4523_40100">
<rect width="48" height="48" fill="white"/>
</clipPath>
</defs>
</svg>
