<?xml version="1.0" encoding="UTF-8"?>
<svg xmlns="http://www.w3.org/2000/svg" xmlns:xlink="http://www.w3.org/1999/xlink" viewBox="0 0 56 56">
  <defs>
    <style>
      .cls-1 {
        stroke: url(#Dégradé_sans_nom_140-2);
      }

      .cls-1, .cls-2, .cls-3, .cls-4, .cls-5 {
        fill-rule: evenodd;
      }

      .cls-1, .cls-2, .cls-3, .cls-4, .cls-5, .cls-6, .cls-7, .cls-8, .cls-9, .cls-10 {
        fill: none;
      }

      .cls-1, .cls-2, .cls-3, .cls-4, .cls-5, .cls-7, .cls-8, .cls-9, .cls-10 {
        stroke-linecap: round;
        stroke-linejoin: round;
        stroke-width: 2px;
      }

      .cls-2 {
        stroke: url(#Dégradé_sans_nom_108-6);
      }

      .cls-3 {
        stroke: url(#Dégradé_sans_nom_108-3);
      }

      .cls-4 {
        stroke: url(#Dégradé_sans_nom_108-5);
      }

      .cls-5 {
        stroke: url(#Dégradé_sans_nom_108-4);
      }

      .cls-6 {
        stroke-width: 0px;
      }

      .cls-7 {
        stroke: url(#Dégradé_sans_nom_108);
      }

      .cls-8 {
        stroke: url(#Dégradé_sans_nom_140);
      }

      .cls-9 {
        stroke: url(#Dégradé_sans_nom_108-2);
      }

      .cls-10 {
        stroke: url(#Dégradé_sans_nom_108-7);
      }
    </style>
    <linearGradient id="Dégradé_sans_nom_108" data-name="Dégradé sans nom 108" x1="16" y1="38.73" x2="18" y2="35.27" gradientUnits="userSpaceOnUse">
      <stop offset="0" stop-color="#000091"/>
      <stop offset=".15" stop-color="#020494"/>
      <stop offset=".32" stop-color="#0a129f"/>
      <stop offset=".5" stop-color="#1729b1"/>
      <stop offset=".69" stop-color="#294aca"/>
      <stop offset=".89" stop-color="#4173e9"/>
      <stop offset="1" stop-color="#518fff"/>
    </linearGradient>
    <linearGradient id="Dégradé_sans_nom_108-2" data-name="Dégradé sans nom 108" x1="15.36" y1="60.89" x2="40.64" y2="17.11" xlink:href="#Dégradé_sans_nom_108"/>
    <linearGradient id="Dégradé_sans_nom_140" data-name="Dégradé sans nom 140" x1="21.8" y1="36.21" x2="34.19" y2="36.21" gradientUnits="userSpaceOnUse">
      <stop offset="0" stop-color="#ce0500"/>
      <stop offset=".39" stop-color="#e1000f"/>
      <stop offset="1" stop-color="#ea353c"/>
    </linearGradient>
    <linearGradient id="Dégradé_sans_nom_108-3" data-name="Dégradé sans nom 108" x1="11.27" y1="25.46" x2="17" y2="15.53" xlink:href="#Dégradé_sans_nom_108"/>
    <linearGradient id="Dégradé_sans_nom_108-4" data-name="Dégradé sans nom 108" x1="39.25" y1="25.46" x2="44.99" y2="15.53" xlink:href="#Dégradé_sans_nom_108"/>
    <linearGradient id="Dégradé_sans_nom_108-5" data-name="Dégradé sans nom 108" x1="21.12" y1="23.58" x2="34.19" y2=".93" xlink:href="#Dégradé_sans_nom_108"/>
    <linearGradient id="Dégradé_sans_nom_108-6" data-name="Dégradé sans nom 108" x1="26.18" y1="18.46" x2="33.85" y2="5.17" xlink:href="#Dégradé_sans_nom_108"/>
    <linearGradient id="Dégradé_sans_nom_140-2" data-name="Dégradé sans nom 140" x1="24.5" y1="43.95" x2="31.5" y2="43.95" xlink:href="#Dégradé_sans_nom_140"/>
    <linearGradient id="Dégradé_sans_nom_108-7" data-name="Dégradé sans nom 108" x1="7.5" y1="39.6" x2="10.5" y2="34.4" xlink:href="#Dégradé_sans_nom_108"/>
  </defs>
  <g id="ICONES">
    <path class="cls-7" d="m16,37c0-.55.45-1,1-1s1,.45,1,1-.45,1-1,1-1-.45-1-1Z"/>
    <rect class="cls-9" x="5" y="23" width="46" height="32" rx="2.95" ry="2.95"/>
    <circle class="cls-8" cx="28" cy="36.21" r="5.19"/>
    <path class="cls-3" d="m8.99,23v-4c0-1.1.9-2,2-2h6.01c1.11,0,2,.89,2,2v4"/>
    <path class="cls-5" d="m36.98,23v-4c0-1.1.9-2,2-2h6.01c1.11,0,2,.89,2,2v4"/>
    <path class="cls-4" d="m11.99,17.15v-.16c0-8.84,7.17-16,16-16h0c7.1,0,13.11,4.62,15.21,11.02"/>
    <path class="cls-2" d="m40.02,17.01v-.19c0-6.62-5.37-11.99-11.99-11.99h-.06c-4.91,0-9.13,2.95-10.98,7.17"/>
    <path class="cls-1" d="m30.5,40.76v3.96c0,1.33-1.08,2.42-2.42,2.42h-.16c-1.33,0-2.42-1.08-2.42-2.42v-3.96"/>
    <line class="cls-10" x1="5" y1="37" x2="13" y2="37"/>
  </g>
  <g id="Cadres">
    <rect class="cls-6" y="0" width="56" height="56"/>
  </g>
</svg>