<?xml version="1.0" encoding="UTF-8"?>
<svg xmlns="http://www.w3.org/2000/svg" xmlns:xlink="http://www.w3.org/1999/xlink" viewBox="0 0 56 56">
  <defs>
    <style>
      .cls-1, .cls-2, .cls-3, .cls-4, .cls-5, .cls-6, .cls-7, .cls-8, .cls-9, .cls-10, .cls-11, .cls-12 {
        fill: none;
      }

      .cls-1, .cls-13 {
        stroke-width: 0px;
      }

      .cls-2 {
        stroke: url(#Dégradé_sans_nom_172);
      }

      .cls-2, .cls-3, .cls-4, .cls-5, .cls-6, .cls-7, .cls-8, .cls-9, .cls-10, .cls-11, .cls-12 {
        stroke-linecap: round;
        stroke-linejoin: round;
        stroke-width: 2px;
      }

      .cls-3 {
        stroke: url(#Dégradé_sans_nom_75-3);
      }

      .cls-4 {
        stroke: url(#Dégradé_sans_nom_75-4);
      }

      .cls-5 {
        stroke: url(#Dégradé_sans_nom_75-5);
      }

      .cls-6 {
        stroke: url(#Dégradé_sans_nom_75-2);
      }

      .cls-7 {
        stroke: url(#Dégradé_sans_nom_75);
      }

      .cls-8 {
        stroke: url(#Dégradé_sans_nom_172-3);
      }

      .cls-9 {
        stroke: url(#Dégradé_sans_nom_172-6);
      }

      .cls-10 {
        stroke: url(#Dégradé_sans_nom_172-4);
      }

      .cls-11 {
        stroke: url(#Dégradé_sans_nom_172-5);
      }

      .cls-12 {
        stroke: url(#Dégradé_sans_nom_172-2);
      }

      .cls-13 {
        fill: #ff1717;
      }
    </style>
    <linearGradient id="Dégradé_sans_nom_172" data-name="Dégradé sans nom 172" x1="5.79" y1="58.94" x2="24.19" y2="27.07" gradientUnits="userSpaceOnUse">
      <stop offset="0" stop-color="#6a6af4"/>
      <stop offset=".18" stop-color="#8585f6"/>
      <stop offset="1" stop-color="#9797f7"/>
    </linearGradient>
    <linearGradient id="Dégradé_sans_nom_172-2" data-name="Dégradé sans nom 172" x1="7.9" y1="55.16" x2="19.54" y2="35" xlink:href="#Dégradé_sans_nom_172"/>
    <linearGradient id="Dégradé_sans_nom_75" data-name="Dégradé sans nom 75" x1="7.99" y1="41.47" x2="12" y2="34.52" gradientUnits="userSpaceOnUse">
      <stop offset="0" stop-color="#e1000f"/>
      <stop offset=".99" stop-color="#ff1717"/>
    </linearGradient>
    <linearGradient id="Dégradé_sans_nom_172-3" data-name="Dégradé sans nom 172" x1="13.08" y1="29.37" x2="31.09" y2="-1.84" xlink:href="#Dégradé_sans_nom_172"/>
    <linearGradient id="Dégradé_sans_nom_172-4" data-name="Dégradé sans nom 172" x1="33.76" y1="10.59" x2="38.22" y2="2.86" xlink:href="#Dégradé_sans_nom_172"/>
    <linearGradient id="Dégradé_sans_nom_75-2" data-name="Dégradé sans nom 75" x1="20" y1="10.47" x2="24" y2="3.54" xlink:href="#Dégradé_sans_nom_75"/>
    <linearGradient id="Dégradé_sans_nom_75-3" data-name="Dégradé sans nom 75" x1="23" y1="18.22" x2="29" y2="7.83" xlink:href="#Dégradé_sans_nom_75"/>
    <linearGradient id="Dégradé_sans_nom_75-4" data-name="Dégradé sans nom 75" x1="16.62" y1="20.52" x2="18.37" y2="17.49" xlink:href="#Dégradé_sans_nom_75"/>
    <linearGradient id="Dégradé_sans_nom_75-5" data-name="Dégradé sans nom 75" x1="33" y1="38.15" x2="38.65" y2="28.35" xlink:href="#Dégradé_sans_nom_75"/>
    <linearGradient id="Dégradé_sans_nom_172-5" data-name="Dégradé sans nom 172" x1="29.88" y1="42.33" x2="47.64" y2="11.57" xlink:href="#Dégradé_sans_nom_172"/>
    <linearGradient id="Dégradé_sans_nom_172-6" data-name="Dégradé sans nom 172" x1="30.12" y1="30.58" x2="38.87" y2="15.42" xlink:href="#Dégradé_sans_nom_172"/>
  </defs>
  <g id="ICONES">
    <rect class="cls-2" x=".97" y="31.01" width="28.05" height="23.99"/>
    <polyline class="cls-12" points="26 40.99 21.01 37 11.01 49 6.69 44.33 .97 50"/>
    <circle class="cls-7" cx="10" cy="37.99" r="3.01"/>
    <polyline class="cls-8" points="11 27.01 11 1 34 1 40.99 8.02 40.99 13.01"/>
    <polyline class="cls-10" points="32.99 1 32.99 8.99 40.99 8.99"/>
    <line class="cls-6" x1="16" y1="7" x2="28" y2="7"/>
    <line class="cls-3" x1="16" y1="13.02" x2="36" y2="13.02"/>
    <line class="cls-4" x1="16" y1="19" x2="18.99" y2="19"/>
    <polygon class="cls-5" points="33 27.01 42.98 32 33 37 33 27.01"/>
    <polyline class="cls-11" points="19 26 19 16.99 55.01 16.99 55.01 42.99 33.01 42.99"/>
    <line class="cls-9" x1="19" y1="23" x2="50" y2="23"/>
    <circle class="cls-13" cx="16" cy="25.01" r="1.01"/>
  </g>
  <g id="Cadres">
    <rect class="cls-1" y="0" width="56" height="56"/>
  </g>
</svg>