<?xml version="1.0" encoding="UTF-8"?>
<svg width="105px" height="45px" viewBox="0 0 105 45" version="1.1" xmlns="http://www.w3.org/2000/svg" xmlns:xlink="http://www.w3.org/1999/xlink">
    <title>feuillets</title>
    <defs>
        <polygon id="path-1" points="0 0 4.45054945 0 4.45054945 4.83516484 0 4.83516484"></polygon>
        <polygon id="path-3" points="0 0 7.91208791 0 7.91208791 8.64678179 0 8.64678179"></polygon>
    </defs>
    <g id="feuillets" stroke="none" stroke-width="1" fill="none" fill-rule="evenodd">
        <g id="Group-40-Copy-2" transform="translate(52.500000, 22.500000) scale(-1, 1) translate(-52.500000, -22.500000) ">
            <path d="M36.519561,16.6589512 C37.7093044,16.2111382 40.1427892,15.335618 42.4004455,14.7758517 C42.720864,14.696342 43.0466377,14.887348 43.1421384,15.211327 L44.9660248,21.4418687 C45.0985656,21.8951651 44.8308064,22.3694814 44.3805247,22.4768651 L39.138246,23.7302847 C38.6375363,23.8504631 38.1292401,23.5680667 37.9534115,23.0736445 L36.0478586,17.6994311 C35.898806,17.2785782 36.1094432,16.813401 36.519561,16.6589512" id="Fill-1" fill="#9A9AFF"></path>
            <g id="Group-5" transform="translate(82.000000, 40.000000)">
                <mask id="mask-2" fill="white">
                    <use xlink:href="#path-1"></use>
                </mask>
                <g id="Clip-4"></g>
                <path d="M1.66612658,0.217213217 L0.137230217,2.32432725 C-0.273382471,2.94436935 0.314829289,3.23552328 0.883055475,3.73207152 L2.00497289,4.71230406 C2.22890215,4.90740721 2.58455451,4.8645274 2.74988971,4.62354284 L4.37190067,2.25400435 C4.5045322,2.0606164 4.46592371,1.80505271 4.28241981,1.65368697 L2.40286748,0.11301527 C2.17530448,-0.0726543221 1.82555694,-0.0237713348 1.66612658,0.217213217" id="Fill-3" fill="#5770BE" mask="url(#mask-2)"></path>
            </g>
            <polygon id="Fill-6" fill="#F92385" points="96 37.8565071 93.1914985 36 92 38.700966 94.321286 40"></polygon>
            <path d="M53.9995107,24.4116339 L52.2435418,27.5246995 C51.8360276,28.2477463 51.9491787,29.1902557 52.5136581,29.7688819 L54.4606228,31.7671718 C54.8209197,32.1362466 55.3939067,32.0564849 55.6597692,31.5991531 L57.8734472,27.8007977 C58.086988,27.4336107 58.0248825,26.9489051 57.7279672,26.6628957 L55.1871719,24.2148255 C54.8204943,23.8617974 54.2568657,23.955246 53.9995107,24.4116339" id="Fill-8" fill="#00D1FF"></path>
            <path d="M66,32.3093051 L68.0575977,34 C68.0575977,34 69.8763395,32.1382317 69.9953267,31.691066 C70.1138732,31.2439002 67.937729,30 67.937729,30 L66,32.3093051 Z" id="Fill-10" fill="#9A9AFF"></path>
            <path d="M29.0922598,9.75786164 C29.0922598,9.75786164 31.2097179,10.3641157 32,11.107312 L31.5012549,14.1252687 C31.4281699,14.5670021 31.0571228,14.8451658 30.6892882,14.7329493 C29.8692902,14.4823643 28.5332798,13.9892776 28,13.308371 L29.0922598,9.75786164 Z" id="Fill-12" fill="#D48743"></path>
            <path d="M82.7409192,36.4522781 C81.9387409,36.7713858 80.0530048,37.4963532 78.3020346,37.9819898 C78.0793993,38.0438932 77.8399799,37.9414475 77.7580343,37.7478903 L76.028291,33.6779591 C75.9389407,33.4682722 76.0687702,33.2354805 76.3116451,33.1700896 L80.5762718,32.0170296 C80.7890342,31.9594855 81.016606,32.0519047 81.1069437,32.2319477 L82.9620736,35.941357 C83.0603096,36.1366579 82.9610863,36.3646543 82.7409192,36.4522781" id="Fill-14" fill="#FFED33"></path>
            <path d="M45.7164653,34.0447537 C44.9347472,34.8259636 43.5621575,36.0884808 42.1308097,36.8867583 C41.7284341,37.1105881 41.2278149,36.9935529 40.953297,36.6156268 L39.1867929,34.1827577 C38.8967628,33.7833751 38.9498801,33.2201433 39.3085397,32.886593 L42.1519627,30.2430605 C42.5143827,29.9060967 43.0671791,29.9212138 43.4117367,30.2776834 L45.7268067,32.6700778 C46.0948675,33.0504422 46.090637,33.6712164 45.7164653,34.0447537" id="Fill-18" fill="#CA000D"></path>
            <path d="M70.6384233,41.5234426 C70.9212879,41.4360055 71.0691882,41.1557385 70.9682883,40.9012342 L70.3357236,39.3191699 C70.242154,39.0845731 69.9661885,38.9530272 69.6997093,39.0154823 L68.4009465,39.3195602 C68.1154947,39.3863091 67.9438786,39.6494009 68.0167508,39.9074183 C68.1284306,40.3043982 68.3004778,40.9215321 68.4910665,41.6303969 C68.5652322,41.9071508 68.8860422,42.0656304 69.1831363,41.9738996 L70.6384233,41.5234426 Z" id="Fill-20" fill="#F92385"></path>
            <path d="M29.3973721,25.2057377 C29.8688132,25.0600092 30.1153137,24.5928976 29.9471472,24.1687237 L28.8928727,21.5319498 C28.7369234,21.1409552 28.2769808,20.921712 27.8328488,21.0258038 L25.6682442,21.5326004 C25.1924911,21.6438485 24.9064643,22.0823349 25.0279179,22.5123639 C25.2140509,23.173997 25.5007964,24.2025535 25.8184442,25.3839948 C25.9420537,25.8452513 26.476737,26.1093841 26.9718939,25.9564993 L29.3973721,25.2057377 Z" id="Fill-20-Copy" fill="#F92385"></path>
            <path d="M15.1833934,33.973934 L16.6386425,33.5234626 C16.9214998,33.4360227 17.0693962,33.1557468 16.9680678,32.900844 L16.3359507,31.3191194 C16.2419524,31.0841248 15.965994,30.9525747 15.6995217,31.0158124 L14.4007928,31.3195098 C14.1153483,31.3866511 13.9441679,31.649361 14.016607,31.907777 C14.1282839,32.3043792 14.3003267,32.9215329 14.4913416,33.6304203 C14.5655054,33.9067927 14.886307,34.0656678 15.1833934,33.973934" id="Fill-22" fill="#FF6F4C"></path>
            <path d="M32.7021921,32.7728155 L30.1387689,31.1076083 C29.7965419,30.8851482 29.334709,31.0209901 29.1711191,31.3918841 L28.0553123,33.9186948 C27.919116,34.2266284 28.0421943,34.5872198 28.3392798,34.7505352 L30.4624763,35.9174013 C30.7495303,36.0757563 31.1106628,36.0005854 31.3093628,35.7418754 L32.8653962,33.7137873 C33.0968914,33.4123405 33.0216555,32.980394 32.7021921,32.7728155" id="Fill-24" fill="#ABB8DF"></path>
            <path d="M52,37.534369 C52,37.534369 54.6145661,36.7226273 56.6459127,37.1000935 L58,41.7639258 L52.8670645,42 L52,37.534369 Z" id="Fill-26" fill="#03299C"></path>
            <path d="M14.5327288,26.9953948 C13.2805443,26.8576741 10.7363647,26.5397443 8.48428434,26.0123031 C8.1634844,25.9370939 7.95470984,25.6113502 8.00840796,25.2699786 L9.04255956,18.702848 C9.11801467,18.2247324 9.55963537,17.9131514 10.006811,18.0215699 L15.2178427,19.2888937 C15.715476,19.4100098 16.0487747,19.9042417 15.9941507,20.4394968 L15.3979165,26.2569772 C15.351625,26.7126277 14.9646283,27.0432552 14.5327288,26.9953948" id="Fill-28" fill="#EFDF5F"></path>
            <path d="M104.358431,36 L105,38.4572913 C105,38.4572913 103.836006,39.0771928 102.877224,38.9919508 L102,36.4538804 L104.358431,36" id="Fill-33" fill="#00D1FF"></path>
            <path d="M13,9.95356089 L17.1151044,13.7578616 C17.1151044,13.7578616 20.7530527,9.56881461 20.990651,8.56262649 C21.2277594,7.55597426 16.8760365,4.75786164 16.8760365,4.75786164 L13,9.95356089 Z" id="Fill-35" fill="#ABB8DF"></path>
            <g id="Group-39" transform="translate(0.000000, 0.757862)">
                <mask id="mask-4" fill="white">
                    <use xlink:href="#path-3"></use>
                </mask>
                <g id="Clip-38"></g>
                <path d="M7.78646308,7.44529766 L7.91183773,1.50545995 C7.92332244,0.988702682 7.53810641,0.549937483 7.02177337,0.491084572 C5.61872566,0.330315644 2.89637287,0.0432282734 1.05020711,0.000165167679 C0.698009592,-0.00749049555 0.396057648,0.251845096 0.353468546,0.599699294 C0.173063027,2.06767272 -0.226030351,5.86775255 0.167799205,8.08933033 C0.2266583,8.42139472 0.523346423,8.65919876 0.863580706,8.64627983 L6.80547815,8.43383517 C7.34430207,8.41469602 7.7754569,7.98023713 7.78646308,7.44529766" id="Fill-37" fill="#00D1FF" mask="url(#mask-4)"></path>
            </g>
        </g>
    </g>
</svg>
