<?xml version="1.0" encoding="UTF-8"?>
<svg width="301px" height="168px" viewBox="0 0 301 168" version="1.1" xmlns="http://www.w3.org/2000/svg" xmlns:xlink="http://www.w3.org/1999/xlink">
    <title>feuilles-page-mail-cree</title>
    <defs>
        <polygon id="path-1" points="0 -2.36337961e-14 15.9771987 -2.36337961e-14 15.9771987 17.0414201 0 17.0414201"></polygon>
        <polygon id="path-3" points="0 0 17.0423453 0 17.0423453 23.4319527 0 23.4319527"></polygon>
    </defs>
    <g id="feuilles-page-mail-cree" stroke="none" stroke-width="1" fill="none" fill-rule="evenodd">
        <g id="Group-32-Copy-3" transform="translate(-0.039161, -0.468402)">
            <g id="Group-32-Copy-2" transform="translate(0.000000, 0.000000)">
                <g id="Group-4" transform="translate(0.000000, 0.000000)">
                    <g id="Group-13" transform="translate(91.316034, 72.519488)">
                        <path d="M41.6696006,29.9006562 C41.6696006,29.9006562 44.044824,5.34277752 45.9080971,-1.31731416 L69.1802099,0.911727147 L65.7735094,29.0516471 L41.6696006,29.9006562 Z" id="Fill-1" fill="#FFED33" transform="translate(55.424905, 14.291671) rotate(-88.000000) translate(-55.424905, -14.291671) "></path>
                        <path d="M12.4172613,49.7409281 L0,37.3685582 C0,37.3685582 7.44311171,28.7930289 11.5550969,25.2047635 C11.5550969,25.2047635 22.5297823,33.7833829 25.2716424,39.0332971 L12.4172613,49.7409281 Z" id="Fill-3" fill="#E0000F" transform="translate(12.635821, 37.472846) scale(-1, -1) translate(-12.635821, -37.472846) "></path>
                        <path d="M100.79456,62.8910587 C100.79456,62.8910587 92.9798123,45.6475583 92.6293548,32.0041659 L113.139464,25.4842851 L121.001243,47.9870449 C121.820494,50.331534 120.831324,52.9711685 118.748302,54.003344 L100.79456,62.8910587 Z" id="Fill-7" fill="#03299C"></path>
                        <path d="M51.8160437,79.9074939 C51.8160437,79.9074939 36.748666,73.5006334 31.5500413,67.5826266 L37.7010059,47.5223666 C38.5984031,44.5921194 41.5574592,43.0910506 44.1659287,44.2499217 C49.9924698,46.8379713 59.4085997,51.6316143 62.7679526,56.847972 L51.8160437,79.9074939 Z" id="Fill-11" fill="#00D0FF"></path>
                    </g>
                    <polygon id="Fill-14" fill="#052E94" points="80.5038636 152.166627 93.2508876 149.313313 91.5438201 132.99503 75.1433957 136.245962"></polygon>
                    <path d="M59.614145,136.885886 C63.2829018,133.90696 63.2769653,129.596982 59.5993037,126.624034 L52.3359963,120.74987 C50.8904587,119.580218 48.2249703,119.568263 46.7586549,120.723966 L32.3418653,132.08573 C31.1664384,133.012286 31.1842479,134.379205 32.3863891,135.291812 L44.6482292,144.601206 C46.1293859,145.727021 48.7592553,145.697132 50.1869835,144.539435 L59.614145,136.885886 Z" id="Fill-20" fill="#F92385"></path>
                    <path d="M220.830358,36.3033139 L216.785255,46.9831952 L204.221572,36.869397 L211.272709,24.6163313 L218.759633,29.3046182 C220.975621,30.6918508 221.873874,33.7263194 220.830358,36.3033139" id="Fill-22" fill="#00D0FF"></path>
                    <g id="Group-28" transform="translate(10.027761, 157.947692) rotate(16.000000) translate(-10.027761, -157.947692) translate(2.039161, 149.426982)">
                        <mask id="mask-2" fill="white">
                            <use xlink:href="#path-1"></use>
                        </mask>
                        <g id="Clip-27"></g>
                        <path d="M5.6504906,0.262600419 L15.9771987,-0.000166308055 L12.821082,17.0414201 L0,14.8727631 L0.790863265,5.27179904 C1.02416059,2.4279313 3.13117293,0.257611178 5.6504906,0.262600419" id="Fill-26" fill="#052E94" mask="url(#mask-2)"></path>
                    </g>
                    <path d="M263.792855,3.3613807 L250.763971,18.235482 C247.184274,22.3214553 246.950533,28.7629573 250.22074,33.1602658 L265.827266,54.133159 C269.560625,59.1507246 276.339108,59.5465306 280.520471,54.9923477 L297.899532,36.0708883 C302.27135,31.311562 301.82984,23.330278 296.966733,19.2032761 L277.010031,2.27774099 C272.990988,-1.13246591 267.322774,-0.666669782 263.792855,3.3613807" id="Fill-29" fill="#00D0FF"></path>
                </g>
                <path d="M199.337048,52.0464349 C199.337048,52.0464349 208.586999,53.2002913 212.271301,55.6709406 L211.511527,67.881202 C211.399973,69.666853 209.952783,70.9836459 208.342785,70.7558674 C204.751947,70.2487691 198.866711,69.084937 196.299458,66.7090569 L199.337048,52.0464349 Z" id="Fill-15" fill="#F92385"></path>
                <g id="Group-19" transform="translate(161.615708, 50.178461)">
                    <mask id="mask-4" fill="white">
                        <use xlink:href="#path-3"></use>
                    </mask>
                    <g id="Clip-18"></g>
                    <path d="M8.82990594,23.4319527 L16.0595059,13.9549928 C17.3714822,12.2352165 17.3699566,9.74650169 16.0549292,8.02837898 L9.90847255,0 L0,12.6072835 L8.82990594,23.4319527 Z" id="Fill-17" fill="#F92385" mask="url(#mask-4)"></path>
                </g>
                <path d="M220.935248,75.4183877 L227.395341,103.647073 C227.395341,103.647073 252.621726,93.3184503 256.160935,89.2200815 C259.700143,85.1217128 249.698985,60.9910681 249.698985,60.9910681 L220.935248,75.4183877 Z" id="Fill-24" fill="#D48743"></path>
            </g>
        </g>
    </g>
</svg>
