<svg width="210" height="52" viewBox="0 0 210 52" fill="none" xmlns="http://www.w3.org/2000/svg">
<mask id="mask0_518_28754" style="mask-type:alpha" maskUnits="userSpaceOnUse" x="0" y="20" width="10" height="10">
<path fill-rule="evenodd" clip-rule="evenodd" d="M1.49213 20.7329L9.66809 21.4431L8.95566 29.5012L0.779693 28.7911L1.49213 20.7329Z" fill="white"/>
</mask>
<g mask="url(#mask0_518_28754)">
<path fill-rule="evenodd" clip-rule="evenodd" d="M9.46402 21.4267C9.46402 21.4267 9.58764 26.4107 8.6592 28.5296L2.67682 28.9373C1.80359 28.9966 1.05662 28.3149 1.04829 27.4471C1.0295 25.5068 1.15975 22.3083 2.12302 20.7877L9.46402 21.4267Z" fill="#052E93"/>
</g>
<path fill-rule="evenodd" clip-rule="evenodd" d="M16.0171 25.2842C16.0171 25.2842 19.5074 27.4223 20.5553 28.9949L18.1687 33.2274C17.8204 33.8456 17.0186 34.048 16.4153 33.6664C15.0707 32.8148 12.9229 31.3003 12.3052 29.9708L16.0171 25.2842Z" fill="#63F5DA"/>
<path fill-rule="evenodd" clip-rule="evenodd" d="M83.0514 36.0125C83.0514 36.0125 84.964 30.4028 84.5234 26.2279L77.386 25.1624L75.6724 32.3773C75.4942 33.1289 75.9328 33.8894 76.6733 34.1092L83.0514 36.0125Z" fill="#7BA2D4"/>
<path fill-rule="evenodd" clip-rule="evenodd" d="M75.1881 49.6866L71.8501 46.3301C70.9358 45.3312 71.8564 44.6201 72.6767 43.5441L74.2956 41.4191C74.6176 40.9954 75.2474 40.9627 75.6121 41.3507L79.1982 45.1544C79.4908 45.4649 79.5095 45.9413 79.2402 46.2723L76.4969 49.6487C76.1651 50.0565 75.5437 50.0748 75.1881 49.6866" fill="#63F5DA"/>
<path fill-rule="evenodd" clip-rule="evenodd" d="M111.459 22.6645L107.221 27.1351L104.493 23.5239L108.113 20.2305L111.459 22.6645Z" fill="#A9FB68"/>
<path fill-rule="evenodd" clip-rule="evenodd" d="M172.8 41.1449L167 36.3439L171.685 33.254L175.956 37.3554L172.8 41.1449Z" fill="#F767EF"/>
<mask id="mask1_518_28754" style="mask-type:alpha" maskUnits="userSpaceOnUse" x="192" y="1" width="18" height="18">
<path fill-rule="evenodd" clip-rule="evenodd" d="M192 1.25397L209.32 1.25397V18.751H192V1.25397Z" fill="white"/>
</mask>
<g mask="url(#mask1_518_28754)">
<path fill-rule="evenodd" clip-rule="evenodd" d="M203.09 18.0679L208.993 10.0961C209.506 9.40317 209.407 8.43721 208.762 7.86223C207.008 6.30028 203.583 3.30239 201.114 1.47745C200.642 1.12946 199.982 1.19446 199.588 1.62644C197.925 3.45438 193.715 8.24921 192.107 11.6521C191.867 12.1611 192.042 12.7681 192.515 13.077L200.802 18.4759C201.552 18.9648 202.558 18.7858 203.09 18.0679" fill="#64ECF8"/>
</g>
<mask id="mask2_518_28754" style="mask-type:alpha" maskUnits="userSpaceOnUse" x="192" y="1" width="18" height="18">
<path fill-rule="evenodd" clip-rule="evenodd" d="M192 1L209.32 1V18.497H192V1Z" fill="white"/>
</mask>
<g mask="url(#mask2_518_28754)">
<path fill-rule="evenodd" clip-rule="evenodd" d="M203.09 17.8139L208.993 9.84218C209.506 9.14921 209.407 8.18324 208.762 7.60826C207.008 6.04631 203.583 3.04842 201.114 1.22348C200.642 0.875494 199.982 0.940492 199.588 1.37248C197.926 3.20041 193.715 7.99525 192.107 11.3981C191.867 11.9071 192.042 12.5141 192.515 12.8231L200.802 18.2219C201.552 18.7109 202.558 18.5319 203.09 17.8139" fill="#64ECF8"/>
</g>
<path fill-rule="evenodd" clip-rule="evenodd" d="M46.4298 36.2307L43.577 33.114C42.9148 32.391 42.8652 31.3026 43.4587 30.523L45.5084 27.8322C45.8876 27.3351 46.6273 27.296 47.0569 27.7518L50.6273 31.5381C50.9718 31.9033 50.9931 32.4643 50.6771 32.8534L47.9691 36.1857C47.5783 36.6657 46.8482 36.6876 46.4298 36.2307" fill="#9D9DF8"/>
<path fill-rule="evenodd" clip-rule="evenodd" d="M92.0138 30.6214L97.2628 30.9182L97.971 25.8673L92 25L92.0138 30.6214Z" fill="#FBBFF6"/>
<path fill-rule="evenodd" clip-rule="evenodd" d="M31.3944 40.3068L34.9219 35.4074C34.9219 35.4074 39.5307 39.2915 39.9753 40.3415C40.421 41.3917 36.4477 45.2409 36.4477 45.2409L31.3944 40.3068Z" fill="#ECECFE"/>
<path fill-rule="evenodd" clip-rule="evenodd" d="M29.8594 34.8122L25.1797 34.0119L25.5649 28L31.5802 28.8762L29.8594 34.8122Z" fill="#E1000F"/>
<path fill-rule="evenodd" clip-rule="evenodd" d="M172.773 27.7448C173.37 25.5196 174.262 21.4866 173.927 18.2191L165.958 17L164.044 25.256C163.845 26.1153 164.336 26.9854 165.162 27.2382L170.687 28.9279C171.583 29.2023 172.525 28.6691 172.773 27.7448" fill="#95E257"/>
<path fill-rule="evenodd" clip-rule="evenodd" d="M102.001 35.5836C102.862 36.6016 104.485 38.3558 106.148 39.274L109.356 35.8885L106.063 32.256C105.721 31.8777 105.145 31.8239 104.753 32.1333L102.127 34.202C101.701 34.5372 101.644 35.1611 102.001 35.5836" fill="#6A6AF4"/>
<path fill-rule="evenodd" clip-rule="evenodd" d="M120.017 43.0783C118.71 42.4473 115.632 41.006 112.757 40.0016C112.391 39.8738 111.981 40.0357 111.824 40.3721L108.535 47.448C108.365 47.8128 108.559 48.236 108.957 48.3725L115.963 50.7666C116.312 50.8856 116.702 50.7412 116.871 50.4292L120.336 44.0027C120.519 43.6643 120.376 43.2518 120.017 43.0783" fill="#C9E0FF"/>
<path fill-rule="evenodd" clip-rule="evenodd" d="M96.1713 40.5804L99.7355 45.378C100.038 45.7862 99.8798 46.3836 99.3932 46.667C97.3985 47.8283 92.7021 50.5007 91.4754 50.6374C90.251 50.7739 88.1562 46.9504 87.2971 45.2682C87.0797 44.8436 87.2871 44.3013 87.759 44.0611L95.009 40.3614C95.4266 40.1482 95.919 40.2409 96.1713 40.5804" fill="#FA7153"/>
<path fill-rule="evenodd" clip-rule="evenodd" d="M135.709 31.8377C137.011 31.0888 139.332 29.6688 140.666 28.3533C141.017 28.0056 141.099 27.4792 140.876 27.0427L138.258 21.9183C137.824 21.0685 136.739 20.7475 135.886 21.2156C133.984 22.2624 130.94 24.1358 130 25.8683L134.124 31.5119C134.483 32.0042 135.172 32.1453 135.709 31.8377" fill="#052E93"/>
<path fill-rule="evenodd" clip-rule="evenodd" d="M135.709 31.8377C137.011 31.0888 139.332 29.6688 140.666 28.3533C141.017 28.0056 141.099 27.4792 140.876 27.0427L138.258 21.9183C137.824 21.0685 136.739 20.7475 135.886 21.2156C133.984 22.2624 130.94 24.1358 130 25.8683L134.124 31.5119C134.483 32.0042 135.172 32.1453 135.709 31.8377" fill="#052E93"/>
<path fill-rule="evenodd" clip-rule="evenodd" d="M184.649 7.59762C183.447 6.15694 181.203 3.60731 179.295 2.25668C178.792 1.89967 178.124 1.91862 177.632 2.29143L171.846 6.68455C170.885 7.41279 170.716 8.82662 171.476 9.77443C173.169 11.8896 176.128 15.2307 178.469 16L184.58 9.63068C185.113 9.07463 185.142 8.19 184.649 7.59762" fill="#0067E2"/>
<path fill-rule="evenodd" clip-rule="evenodd" d="M155.413 45.2557L147.347 44.6477L147 37.1667C146.983 36.5025 147.567 35.9644 148.266 36.0018L155.356 36.3751C156.385 36.4301 157.124 37.3415 156.917 38.3016L155.413 45.2557Z" fill="#FFCA00"/>
<path fill-rule="evenodd" clip-rule="evenodd" d="M128.331 14.6901C127.092 13.9537 124.954 12.8054 122.894 12.2878C122.315 12.1419 121.725 12.4798 121.505 13.0776L120.087 16.9219C119.853 17.5526 120.106 18.2715 120.666 18.5766L125.104 20.9933C125.67 21.3014 126.359 21.0775 126.675 20.4828L128.795 16.4895C129.132 15.8538 128.924 15.0424 128.331 14.6901" fill="#64ECF8"/>
<path fill-rule="evenodd" clip-rule="evenodd" d="M66.3814 30.3263C66.928 30.4099 67.3001 30.9211 67.2068 31.461L66.627 34.8226C66.5404 35.321 66.086 35.673 65.5769 35.6348L63.0999 35.4488C62.5566 35.4086 62.1494 34.9396 62.1879 34.4009C62.249 33.573 62.3395 32.286 62.4304 30.8103C62.4662 30.2342 62.9926 29.8132 63.5672 29.9002L66.3814 30.3263Z" fill="#F767EF"/>
<path fill-rule="evenodd" clip-rule="evenodd" d="M134.796 48.3297C134.416 48.9435 133.617 49.0439 133.115 48.5428L130.03 45.4619C129.296 44.7301 129.149 43.5379 129.679 42.6239L131.455 39.564C131.822 38.9304 132.629 38.8079 133.142 39.3068L136.955 43.0014C137.367 43.4021 137.444 44.0688 137.135 44.5656L134.796 48.3297Z" fill="#E1000F"/>
<path fill-rule="evenodd" clip-rule="evenodd" d="M60.3937 43.5421L56.7169 46.9973C56.2273 47.4592 55.4365 47.3707 55.0592 46.8148L52.5004 43.0211C52.188 42.5573 52.2807 41.9349 52.7159 41.5828L55.8232 39.0658C56.2444 38.7252 56.853 38.7431 57.2531 39.1071L60.3814 41.9625C60.8469 42.3859 60.8523 43.1114 60.3937 43.5421" fill="#FFCA00"/>
<path fill-rule="evenodd" clip-rule="evenodd" d="M145.678 22.578L151.456 20.2204C152.723 19.7034 154.196 20.1208 154.963 21.2127L157.81 25.2641C158.196 25.8148 157.971 26.5635 157.338 26.8327L150.097 29.908C149.588 30.1234 148.992 29.9497 148.697 29.5L145.17 24.1251C144.807 23.5703 145.048 22.8352 145.678 22.578" fill="#00D0FF"/>
<path fill-rule="evenodd" clip-rule="evenodd" d="M145.444 17C145.444 17 140.045 15.8044 138 14.2087L139.085 7.45482C139.242 6.46722 140.166 5.82139 141.103 6.04396C143.196 6.54141 146.609 7.54117 148 9.01771L145.444 17Z" fill="#F6C43C"/>
<path fill-rule="evenodd" clip-rule="evenodd" d="M145.444 17C145.444 17 140.045 15.8044 138 14.2087L139.085 7.45482C139.242 6.46722 140.166 5.82139 141.103 6.04396C143.196 6.54141 146.609 7.54117 148 9.01771L145.444 17Z" fill="#ECECFE"/>
<mask id="mask3_518_28754" style="mask-type:alpha" maskUnits="userSpaceOnUse" x="155" y="0" width="10" height="9">
<path fill-rule="evenodd" clip-rule="evenodd" d="M155.732 0.808044L164.106 0.808044V9H155.732V0.808044Z" fill="white"/>
</mask>
<g mask="url(#mask3_518_28754)">
<path fill-rule="evenodd" clip-rule="evenodd" d="M163.407 1.47868C162.103 1.27652 159.443 0.904499 157.026 0.808387C156.682 0.794301 156.388 1.0495 156.355 1.3892L155.736 7.91735C155.691 8.39211 156.059 8.80639 156.54 8.82213L162.144 8.99944C162.679 9.01684 163.142 8.63405 163.223 8.10958L164.096 2.41163C164.165 1.96587 163.856 1.54828 163.407 1.47868" fill="#FFED33"/>
</g>
<path fill-rule="evenodd" clip-rule="evenodd" d="M191.939 24L185.872 24.0083C185.356 24.0095 184.953 24.3818 185.004 24.8136C185.211 26.5812 185.751 30.7158 186.357 31.5365C186.962 32.3561 191.362 31.8886 193.259 31.6448C193.738 31.5829 194.066 31.2046 193.989 30.8026L192.803 24.6173C192.735 24.2605 192.368 23.9988 191.939 24" fill="#FA7659"/>
<path fill-rule="evenodd" clip-rule="evenodd" d="M123.951 31.6844L122.329 28.4659C122.191 28.1918 121.846 28.0953 121.584 28.2581C120.512 28.9236 118.019 30.5099 117.657 31.0897C117.295 31.6685 118.766 33.8577 119.427 34.7886C119.594 35.0233 119.923 35.0788 120.158 34.911L123.787 32.3372C123.997 32.1889 124.066 31.9119 123.951 31.6844Z" fill="#ECECFE"/>
</svg>
