<?xml version="1.0" encoding="UTF-8"?>
<svg width="463px" height="534px" viewBox="0 0 463 534" version="1.1" xmlns="http://www.w3.org/2000/svg" xmlns:xlink="http://www.w3.org/1999/xlink">
    <title>losange-login</title>
    <defs>
        <polygon id="path-1" points="231.516161 -0.344118674 0 133.368342 0 400.663979 231.516161 534.344119 463 400.663979 463 133.368342"></polygon>
        <polygon id="path-3" points="0 9.29164786e-13 22 9.29164786e-13 22 25.5406872 0 25.5406872"></polygon>
        <polygon id="path-5" points="0 -4.54747351e-13 14 -4.54747351e-13 14 17 0 17"></polygon>
        <polygon id="path-7" points="-2.27373675e-13 0 27 0 27 30 -2.27373675e-13 30"></polygon>
        <polygon id="path-9" points="0 -2.74556669e-14 39.4965138 -2.74556669e-14 39.4965138 39.8865694 0 39.8865694"></polygon>
    </defs>
    <g id="losange-login" stroke="none" stroke-width="1" fill="none" fill-rule="evenodd">
        <mask id="mask-2" fill="white">
            <use xlink:href="#path-1"></use>
        </mask>
        <use id="Mask" fill="#FFFFFF" xlink:href="#path-1"></use>
        <g id="Group-3" mask="url(#mask-2)">
            <g transform="translate(221.843961, 205.717351)">
                <path d="M161.268604,137.423125 C159.857281,137.117191 158.455367,137.977986 158.077133,139.38414 L150.802235,166.44121 C150.273459,168.411726 151.498487,170.422147 153.478103,170.834492 L176.522179,175.630618 C178.721961,176.088568 180.914215,174.813528 181.625522,172.660592 L189.34828,149.286127 C189.954207,147.456226 188.983217,145.474309 187.171079,144.856741 C181.924722,143.064844 171.194907,139.574161 161.268604,137.423125 Z" id="Fill-1" fill="#C9E0FF" transform="translate(170.103752, 156.542468) rotate(-21.000000) translate(-170.103752, -156.542468) "></path>
                <g id="Group-5" stroke-width="1" fill="none" transform="translate(40.292818, 294.486673) rotate(-21.000000) translate(-40.292818, -294.486673) translate(29.292818, 281.716330)">
                    <mask id="mask-4" fill="white">
                        <use xlink:href="#path-3"></use>
                    </mask>
                    <g id="Clip-4"></g>
                    <path d="M13.4590928,1.09241763 L21.2698667,12.0092278 C23.3773305,15.2224941 20.5213612,16.8400418 17.7926595,19.5315889 L12.4021253,24.8470124 C11.3322154,25.9057312 9.57204101,25.7289143 8.72862411,24.478098 L0.419565533,12.1904106 C-0.255599403,11.1862649 -0.102446974,9.83285114 0.781954381,9.00988824 L9.82010481,0.640552062 C10.9115855,-0.372325348 12.6394038,-0.156215728 13.4590928,1.09241763" id="Fill-3" fill="#03299C" mask="url(#mask-4)"></path>
                </g>
                <g id="Group-5-Copy" stroke-width="1" fill="none" transform="translate(140.662444, 188.158399) rotate(67.000000) translate(-140.662444, -188.158399) translate(133.662444, 179.658399)">
                    <mask id="mask-6" fill="white">
                        <use xlink:href="#path-5"></use>
                    </mask>
                    <g id="Clip-4"></g>
                    <path d="M8.56487725,0.727118248 L13.5353697,7.99339781 C14.876483,10.1321628 13.059048,11.2088101 11.3226015,13.0003163 L7.89226159,16.5382869 C7.21140981,17.242975 6.09129883,17.1252848 5.55457898,16.2927357 L0.266996248,8.11399393 C-0.162654166,7.44562988 -0.0651935286,6.54479139 0.497607333,5.99702346 L6.24915761,0.426354427 C6.94373623,-0.247821481 8.04325694,-0.103977914 8.56487725,0.727118248" id="Fill-3" fill="#03299C" mask="url(#mask-6)"></path>
                </g>
                <polygon id="Fill-7" fill="#F92385" transform="translate(59.073897, 267.435677) rotate(-21.000000) translate(-59.073897, -267.435677) " points="51.5738966 267.792585 62.8455828 259.773471 66.5738966 269.450031 57.2292997 275.097883"></polygon>
                <path d="M134.254509,212.807718 C136.191834,215.823602 135.777764,219.834478 133.26711,222.359629 L124.594114,231.074975 C122.98842,232.68628 120.365349,232.415797 119.100654,230.510824 L108.591509,214.670186 C107.577879,213.141957 107.808335,211.078559 109.132985,209.828542 L120.466525,199.130943 C122.100323,197.587258 124.684048,197.915702 125.903776,199.818742 L134.254509,212.807718 Z" id="Fill-8" fill="#57FFE1" transform="translate(121.715830, 215.142187) rotate(-21.000000) translate(-121.715830, -215.142187) "></path>
                <path d="M195.176527,117.205448 C196.496168,119.172149 196.235071,121.773945 194.553854,123.401629 L188.746095,129.019404 C187.670853,130.058016 185.901267,129.870368 185.040086,128.62792 L177.883945,118.296484 C177.193718,117.299758 177.339795,115.961342 178.227195,115.155971 L185.819664,108.263629 C186.914157,107.269043 188.657479,107.494136 189.488336,108.735123 L195.176527,117.205448 Z" id="Fill-8-Copy" fill="#57FFE1" transform="translate(186.732312, 118.666792) rotate(229.000000) translate(-186.732312, -118.666792) "></path>
                <path d="M211.006858,81.5624026 C211.006858,81.5624026 200.83309,84.392813 197.093341,87.6250838 L199.826955,100.266296 C200.22791,102.113308 202.050945,103.237744 203.815896,102.71803 C207.757997,101.554954 214.162037,99.3060816 216.66707,96.36941 L211.006858,81.5624026 Z" id="Fill-12" fill="#D48743" transform="translate(206.880205, 92.203774) rotate(-21.000000) translate(-206.880205, -92.203774) "></path>
                <path d="M93.3940593,263.464404 C94.2821561,263.725227 95.209599,263.228697 95.5093785,262.330308 L101.834726,243.456396 C102.16261,242.48459 101.624881,241.429707 100.661839,241.15536 L83.759895,236.313715 C82.9130178,236.072213 82.0286682,236.51851 81.6932899,237.355075 L74.8283389,254.586768 C74.4704771,255.494818 74.8826739,256.532313 75.759529,256.910989 C78.9503073,258.290452 86.4522898,261.420326 93.3940593,263.464404 Z" id="Fill-14" fill="#00D0FF" transform="translate(88.315296, 249.891058) rotate(-21.000000) translate(-88.315296, -249.891058) "></path>
                <path d="M71.1694243,278.379294 C71.1188365,277.436467 71.8664117,276.655931 72.7844865,276.694571 C76.5354777,276.858793 85.3133968,277.345663 87.1045794,278.354177 C88.8957621,279.36076 88.3430436,287.459791 88.018907,290.958681 C87.934594,291.843547 87.1682826,292.48691 86.3120373,292.394173 L73.1386011,290.978001 C72.3797841,290.894924 71.7914668,290.257358 71.7502471,289.472957 L71.1694243,278.379294 Z" id="Fill-16" fill="#D48743" transform="translate(79.764000, 284.548129) rotate(-21.000000) translate(-79.764000, -284.548129) "></path>
                <path d="M182.951838,216.258228 C184.638098,217.135366 186.691588,216.598264 187.785783,215.014007 L194.824981,204.830325 C195.984753,203.159127 195.705583,200.852295 194.189823,199.523064 L182.170538,188.989687 C180.637915,187.646932 178.355843,187.770582 176.969363,189.271762 L167.657462,199.351114 C166.1773,200.954692 166.261613,203.499163 167.844824,204.992615 C171.157388,208.112829 176.954374,213.141879 182.951838,216.258228 Z" id="Fill-18" fill="#E0000F" transform="translate(181.070007, 202.368367) rotate(-21.000000) translate(-181.070007, -202.368367) "></path>
                <path d="M115.016877,264.449584 C112.659503,263.688837 111.369296,261.088146 112.148225,258.678526 L116.986502,243.679438 C117.703665,241.453812 119.940939,240.155236 122.161056,240.682451 L132.939091,243.251297 C135.31019,243.813895 136.782261,246.248284 136.246962,248.689749 C135.419995,252.440405 134.150376,258.275154 132.746932,264.976799 C132.194476,267.588105 129.596905,269.155596 127.119433,268.355928 L115.016877,264.449584 Z" id="Fill-20" fill="#F92385" transform="translate(124.138962, 254.565411) rotate(-21.000000) translate(-124.138962, -254.565411) "></path>
                <path d="M201.325675,151.674469 C199.812369,151.185399 198.982919,149.513463 199.483678,147.964363 L202.594116,138.319452 C203.055167,136.888639 204.495675,136.056083 205.920742,136.395019 L212.84974,138.046483 C214.37187,138.408167 215.32265,139.970916 214.97631,141.542763 C214.444667,143.953991 213.626247,147.705042 212.726205,152.013406 C212.371042,153.692166 210.698905,154.697603 209.10839,154.185786 L201.325675,151.674469 Z" id="Fill-22" fill="#F92385" transform="translate(207.192578, 145.319639) rotate(-21.000000) translate(-207.192578, -145.319639) "></path>
                <path d="M156.338628,221.599817 C158.028635,220.38844 160.370662,221.037599 161.245644,222.95996 L167.196267,236.062925 C167.923232,237.662638 167.351778,239.569542 165.877237,240.467932 L155.349355,246.880309 C153.925402,247.747786 152.098621,247.403887 151.064382,246.072724 L142.964714,235.643676 C141.761848,234.094195 142.082238,231.818275 143.661701,230.686111 L156.338628,221.599817 Z" id="Fill-24" fill="#FFED33" transform="translate(154.872984, 234.171661) rotate(-21.000000) translate(-154.872984, -234.171661) "></path>
                <path d="M240.891279,201.322252 C242.227171,200.978352 243.068427,199.61821 242.809867,198.223291 L237.786687,171.422298 C237.423204,169.470957 235.536467,168.242192 233.674087,168.738721 L211.94944,174.523192 C209.877214,175.07575 208.530079,177.139148 208.81487,179.328127 L211.919462,203.107439 C212.163032,204.969907 213.819314,206.279817 215.62736,206.036383 C220.866007,205.331195 231.502559,203.737278 240.891279,201.322252 Z" id="Fill-28" fill="#FFED33" transform="translate(225.816730, 187.346926) rotate(-21.000000) translate(-225.816730, -187.346926) "></path>
                <path d="M227.005425,135.119535 C227.38577,136.483541 228.732904,137.302718 230.074417,136.985867 L255.876066,130.876817 C257.753435,130.432452 258.877608,128.448267 258.332384,126.541362 L251.967691,104.3579 C251.360637,102.240405 249.312768,100.924699 247.201196,101.295647 L224.264316,105.325842 C222.467512,105.640761 221.255279,107.395036 221.555058,109.247844 C222.420672,114.620794 224.337387,125.527051 227.005425,135.119535 Z" id="Fill-30" fill="#7572F6" transform="translate(239.989878, 119.143537) rotate(-21.000000) translate(-239.989878, -119.143537) "></path>
                <path d="M2.53797952,328.070821 C2.53797952,328.070821 10.7836348,331.619053 17.485293,330.919881 L23.2346504,315.323372 L6.64937954,313.01113 L2.53797952,328.070821 Z" id="Fill-32" fill="#00D0FF" transform="translate(12.886315, 322.011130) rotate(-21.000000) translate(-12.886315, -322.011130) "></path>
                <g id="Group-38" stroke-width="1" fill="none" transform="translate(232.656039, 64.282649) rotate(-21.000000) translate(-232.656039, -64.282649) translate(219.156039, 49.282649)">
                    <mask id="mask-8" fill="white">
                        <use xlink:href="#path-7"></use>
                    </mask>
                    <g id="Clip-37"></g>
                    <path d="M0.949414704,26.4588688 L0.00382468852,5.8507337 C-0.0784680386,4.05858256 1.17610788,2.50046905 2.90736053,2.24879845 C7.61046753,1.56431854 16.7387495,0.318789533 22.9417579,0.00299903706 C24.1249099,-0.0579148657 25.1621088,0.815718739 25.3360104,2.01956982 C26.0735396,7.09946871 27.7488953,20.2552687 26.6200875,28.0025553 C26.4523967,29.1615225 25.4757528,30.0111111 24.3314181,30 L4.33428537,29.8027215 C2.52229268,29.7834855 1.03481282,28.3151398 0.949414704,26.4588688" id="Fill-36" fill="#00D1FF" mask="url(#mask-8)"></path>
                </g>
                <g id="Group-41" stroke-width="1" fill="none" transform="translate(250.118461, 25.695803) rotate(-21.000000) translate(-250.118461, -25.695803) translate(230.370204, 5.752518)">
                    <mask id="mask-10" fill="white">
                        <use xlink:href="#path-9"></use>
                    </mask>
                    <g id="Clip-40"></g>
                    <path d="M14.1945603,39.8865694 L39.4978253,25.821458 C39.4978253,25.821458 32.4886054,7.97344984 28.0312587,-2.74556669e-14 C28.0312587,-2.74556669e-14 6.87244549,8.55885214 0,15.8019981 L14.1945603,39.8865694 Z" id="Fill-39" fill="#E0000F" mask="url(#mask-10)"></path>
                </g>
            </g>
        </g>
    </g>
</svg>
