<svg width="20" height="20" viewBox="0 0 20 20" fill="none" xmlns="http://www.w3.org/2000/svg">
<path fill-rule="evenodd" clip-rule="evenodd" d="M9.77332 0.835771C9.62369 0.835771 9.50191 0.957548 9.50191 1.10682V6.92068C9.50191 7.06995 9.62369 7.19173 9.77332 7.19173H18.8912C19.0409 7.19173 19.1626 7.06995 19.1626 6.92068V1.10682C19.1626 0.957548 19.0409 0.835771 18.8912 0.835771H9.77332ZM18.8913 8.02798H9.77343C9.16276 8.02798 8.66602 7.53123 8.66602 6.92092V1.10706C8.66602 0.496749 9.16276 0 9.77343 0H18.8913C19.5016 0 19.9984 0.496749 19.9984 1.10706V6.92092C19.9984 7.53123 19.5016 8.02798 18.8913 8.02798Z" fill="white"/>
<path fill-rule="evenodd" clip-rule="evenodd" d="M18.8406 16.7175C18.8406 17.4643 18.2356 18.0692 17.4889 18.0692C16.7425 18.0692 16.1372 17.4643 16.1372 16.7175C16.1372 15.9712 16.7425 15.3662 17.4889 15.3662C18.2356 15.3662 18.8406 15.9712 18.8406 16.7175Z" fill="white"/>
<mask id="mask0_1955_28278" style="mask-type:alpha" maskUnits="userSpaceOnUse" x="14" y="18" width="6" height="2">
<path fill-rule="evenodd" clip-rule="evenodd" d="M14.9795 18.4971H19.9987V19.9998H14.9795V18.4971Z" fill="white"/>
</mask>
<g mask="url(#mask0_1955_28278)">
<path fill-rule="evenodd" clip-rule="evenodd" d="M19.9988 19.9999H14.9795C14.9795 17.9961 19.9988 17.9961 19.9988 19.9999Z" fill="white"/>
</g>
<path fill-rule="evenodd" clip-rule="evenodd" d="M11.3508 16.7175C11.3508 17.4643 10.7455 18.0692 9.99915 18.0692C9.25277 18.0692 8.64746 17.4643 8.64746 16.7175C8.64746 15.9712 9.25277 15.3662 9.99915 15.3662C10.7455 15.3662 11.3508 15.9712 11.3508 16.7175Z" fill="white"/>
<mask id="mask1_1955_28278" style="mask-type:alpha" maskUnits="userSpaceOnUse" x="7" y="18" width="6" height="2">
<path fill-rule="evenodd" clip-rule="evenodd" d="M7.48975 18.4971H12.509V19.9998H7.48975V18.4971Z" fill="white"/>
</mask>
<g mask="url(#mask1_1955_28278)">
<path fill-rule="evenodd" clip-rule="evenodd" d="M12.509 19.9999H7.48975C7.48975 17.9961 12.509 17.9961 12.509 19.9999Z" fill="white"/>
</g>
<path fill-rule="evenodd" clip-rule="evenodd" d="M3.86158 16.7175C3.86158 17.4643 3.25626 18.0692 2.50989 18.0692C1.76352 18.0692 1.1582 17.4643 1.1582 16.7175C1.1582 15.9712 1.76352 15.3662 2.50989 15.3662C3.25626 15.3662 3.86158 15.9712 3.86158 16.7175Z" fill="white"/>
<mask id="mask2_1955_28278" style="mask-type:alpha" maskUnits="userSpaceOnUse" x="0" y="18" width="6" height="2">
<path fill-rule="evenodd" clip-rule="evenodd" d="M0 18.4971H5.0192V19.9998H0V18.4971Z" fill="white"/>
</mask>
<g mask="url(#mask2_1955_28278)">
<path fill-rule="evenodd" clip-rule="evenodd" d="M5.01927 19.9999H0C0 17.9961 5.01927 17.9961 5.01927 19.9999Z" fill="white"/>
</g>
<path fill-rule="evenodd" clip-rule="evenodd" d="M7.81125 5.92568C7.95017 6.48636 8.27872 9.40793 8.25336 9.4215C7.89803 9.6172 7.49128 9.79183 7.53092 10.275C7.56091 10.6439 7.91625 13.4851 8.02588 14.5297C8.07302 14.9818 7.9691 15.3507 7.45735 15.4078C6.93989 15.4653 6.75597 15.1139 6.71241 14.6693C6.58063 13.3109 6.29851 10.3918 6.22851 10.2957C6.08852 11.7299 5.93603 13.1634 5.8139 14.5986C5.77283 15.0789 5.64427 15.4507 5.08824 15.4089C4.54899 15.3682 4.49686 14.97 4.53685 14.5315C4.6497 13.2976 4.93754 10.4582 4.95861 10.2722C4.98503 10.0325 4.70505 9.51506 4.22545 9.40828L4.87004 6.38744C4.87004 6.38744 3.99654 7.94411 3.72727 8.26373C3.45265 8.58977 3.11874 8.7844 2.78698 8.54763C2.44094 8.30015 2.56521 7.90268 2.84162 7.52664C3.538 6.57921 4.71613 4.46329 5.19216 4.46329H7.43735C7.43735 4.46329 10.2089 1.4428 10.9774 2.30238C11.9213 3.3573 9.37364 4.42258 7.81125 5.92568Z" fill="white"/>
<path fill-rule="evenodd" clip-rule="evenodd" d="M7.59263 2.69231C7.59263 3.44547 6.98196 4.05649 6.22844 4.05649C5.47493 4.05649 4.86426 3.44547 4.86426 2.69231C4.86426 1.93915 5.47493 1.32812 6.22844 1.32812C6.98196 1.32812 7.59263 1.93915 7.59263 2.69231Z" fill="white"/>
</svg>
