<svg width="20" height="20" viewBox="0 0 20 20" fill="none" xmlns="http://www.w3.org/2000/svg">
<path d="M17.2605 6.66758C18.5762 6.66758 19.6427 5.60106 19.6427 4.28545C19.6427 2.96984 18.5762 1.90332 17.2605 1.90332C15.9449 1.90332 14.8784 2.96984 14.8784 4.28545C14.8784 5.60106 15.9449 6.66758 17.2605 6.66758Z" fill="white"/>
<path d="M2.73906 6.66758C4.05468 6.66758 5.12119 5.60106 5.12119 4.28545C5.12119 2.96984 4.05468 1.90332 2.73906 1.90332C1.42345 1.90332 0.356934 2.96984 0.356934 4.28545C0.356934 5.60106 1.42345 6.66758 2.73906 6.66758Z" fill="white"/>
<path d="M10.0002 19.9747C9.80378 19.9747 9.64307 19.814 9.64307 19.6176V11.2605C9.64307 11.064 9.80378 10.9033 10.0002 10.9033C10.1966 10.9033 10.3573 11.064 10.3573 11.2605V19.6176C10.3573 19.814 10.1966 19.9747 10.0002 19.9747Z" fill="white"/>
<path d="M2.85713 8.57129H1.42856C0.639589 8.57129 0 9.21088 0 9.99985V14.2855C0 15.0745 0.639589 15.7141 1.42856 15.7141H2.85713C3.6461 15.7141 4.28569 15.0745 4.28569 14.2855V9.99985C4.28569 9.21088 3.6461 8.57129 2.85713 8.57129Z" fill="white"/>
<path d="M4.28569 9.28542C4.28569 8.10196 3.32631 7.14258 2.14284 7.14258C0.959384 7.14258 0 8.10196 0 9.28542V12.1425C0 13.326 0.959384 14.2854 2.14284 14.2854C3.32631 14.2854 4.28569 13.326 4.28569 12.1425V9.28542Z" fill="white"/>
<path d="M7.14282 14.286C7.14282 15.0717 6.49996 15.7145 5.71425 15.7145H1.42856C0.642853 15.7145 0 15.0717 0 14.286C0 13.5003 0.642853 12.8574 1.42856 12.8574H5.71425C6.49996 12.8574 7.14282 13.5003 7.14282 14.286Z" fill="white"/>
<path d="M5.71421 20.0002C4.9285 20.0002 4.28564 19.3574 4.28564 18.5717V14.286C4.28564 13.5003 4.9285 12.8574 5.71421 12.8574C6.49992 12.8574 7.14277 13.5003 7.14277 14.286V18.5717C7.14277 19.3574 6.49992 20.0002 5.71421 20.0002Z" fill="white"/>
<path d="M18.5715 8.57129H17.1429C16.3539 8.57129 15.7144 9.21088 15.7144 9.99985V14.2855C15.7144 15.0745 16.3539 15.7141 17.1429 15.7141H18.5715C19.3605 15.7141 20 15.0745 20 14.2855V9.99985C20 9.21088 19.3605 8.57129 18.5715 8.57129Z" fill="white"/>
<path d="M15.7143 12.1433C15.7143 13.3267 16.6737 14.2861 17.8572 14.2861C19.0406 14.2861 20 13.3267 20 12.1433V9.28616C20 8.1027 19.0406 7.14332 17.8572 7.14332C16.6737 7.14332 15.7143 8.1027 15.7143 9.28616V12.1433Z" fill="white"/>
<path d="M12.8569 14.286C12.8569 15.0717 13.4998 15.7145 14.2855 15.7145H18.5712C19.3569 15.7145 19.9997 15.0717 19.9997 14.286C19.9997 13.5003 19.3569 12.8574 18.5712 12.8574H14.2855C13.4998 12.8574 12.8569 13.5003 12.8569 14.286Z" fill="white"/>
<path d="M14.2855 20.0002C15.0712 20.0002 15.7141 19.3574 15.7141 18.5717V14.286C15.7141 13.5003 15.0712 12.8574 14.2855 12.8574C13.4998 12.8574 12.8569 13.5003 12.8569 14.286V18.5717C12.8569 19.3574 13.4998 20.0002 14.2855 20.0002Z" fill="white"/>
<path d="M17.2605 6.66758C18.5762 6.66758 19.6427 5.60106 19.6427 4.28545C19.6427 2.96984 18.5762 1.90332 17.2605 1.90332C15.9449 1.90332 14.8784 2.96984 14.8784 4.28545C14.8784 5.60106 15.9449 6.66758 17.2605 6.66758Z" fill="white"/>
<path d="M2.73906 6.66758C4.05468 6.66758 5.12119 5.60106 5.12119 4.28545C5.12119 2.96984 4.05468 1.90332 2.73906 1.90332C1.42345 1.90332 0.356934 2.96984 0.356934 4.28545C0.356934 5.60106 1.42345 6.66758 2.73906 6.66758Z" fill="white"/>
<path d="M13.5716 11.0714H6.42878C6.13235 11.0714 5.89307 10.8321 5.89307 10.5357C5.89307 10.2393 6.13235 10 6.42878 10H13.5716C13.868 10 14.1073 10.2393 14.1073 10.5357C14.1073 10.8321 13.868 11.0714 13.5716 11.0714Z" fill="white"/>
<path d="M10.0002 19.9754C9.80378 19.9754 9.64307 19.8147 9.64307 19.6183V10.904C9.64307 10.7076 9.80378 10.5469 10.0002 10.5469C10.1966 10.5469 10.3573 10.7076 10.3573 10.904V19.6183C10.3573 19.8147 10.1966 19.9754 10.0002 19.9754Z" fill="white"/>
<path d="M2.85713 8.57129H1.42856C0.639589 8.57129 0 9.21088 0 9.99985V14.2855C0 15.0745 0.639589 15.7141 1.42856 15.7141H2.85713C3.6461 15.7141 4.28569 15.0745 4.28569 14.2855V9.99985C4.28569 9.21088 3.6461 8.57129 2.85713 8.57129Z" fill="white"/>
<path d="M4.28569 9.28542C4.28569 8.10196 3.32631 7.14258 2.14284 7.14258C0.959384 7.14258 0 8.10196 0 9.28542V12.1425C0 13.326 0.959384 14.2854 2.14284 14.2854C3.32631 14.2854 4.28569 13.326 4.28569 12.1425V9.28542Z" fill="white"/>
<path d="M7.14282 14.286C7.14282 15.0717 6.49996 15.7145 5.71425 15.7145H1.42856C0.642853 15.7145 0 15.0717 0 14.286C0 13.5003 0.642853 12.8574 1.42856 12.8574H5.71425C6.49996 12.8574 7.14282 13.5003 7.14282 14.286Z" fill="white"/>
<path d="M5.71421 20.0002C4.9285 20.0002 4.28564 19.3574 4.28564 18.5717V14.286C4.28564 13.5003 4.9285 12.8574 5.71421 12.8574C6.49992 12.8574 7.14277 13.5003 7.14277 14.286V18.5717C7.14277 19.3574 6.49992 20.0002 5.71421 20.0002Z" fill="white"/>
<path d="M18.5715 8.57129H17.1429C16.3539 8.57129 15.7144 9.21088 15.7144 9.99985V14.2855C15.7144 15.0745 16.3539 15.7141 17.1429 15.7141H18.5715C19.3605 15.7141 20 15.0745 20 14.2855V9.99985C20 9.21088 19.3605 8.57129 18.5715 8.57129Z" fill="white"/>
<path d="M15.7143 12.1433C15.7143 13.3267 16.6737 14.2861 17.8572 14.2861C19.0406 14.2861 20 13.3267 20 12.1433V9.28616C20 8.1027 19.0406 7.14332 17.8572 7.14332C16.6737 7.14332 15.7143 8.1027 15.7143 9.28616V12.1433Z" fill="white"/>
<path d="M12.8569 14.286C12.8569 15.0717 13.4998 15.7145 14.2855 15.7145H18.5712C19.3569 15.7145 19.9997 15.0717 19.9997 14.286C19.9997 13.5003 19.3569 12.8574 18.5712 12.8574H14.2855C13.4998 12.8574 12.8569 13.5003 12.8569 14.286Z" fill="white"/>
<path d="M14.2855 20.0002C15.0712 20.0002 15.7141 19.3574 15.7141 18.5717V14.286C15.7141 13.5003 15.0712 12.8574 14.2855 12.8574C13.4998 12.8574 12.8569 13.5003 12.8569 14.286V18.5717C12.8569 19.3574 13.4998 20.0002 14.2855 20.0002Z" fill="white"/>
</svg>
