<svg width="20" height="20" viewBox="0 0 20 20" fill="none" xmlns="http://www.w3.org/2000/svg">
<path d="M2.70321 15.4984C2.6131 15.4984 2.52299 15.4768 2.44009 15.4299C2.26709 15.3362 2.16256 15.1524 2.16256 14.9577V11.804C0.767711 10.5029 0 8.81606 0 7.02834C0 3.15374 3.63671 0 8.10962 0C12.5825 0 16.2192 3.15374 16.2192 7.02834C16.2192 10.9029 12.5825 14.0567 8.10962 14.0567C7.29145 14.0567 6.47328 13.9449 5.67673 13.7287L2.98794 15.4155C2.90144 15.4695 2.80052 15.4984 2.6996 15.4984H2.70321ZM3.24385 11.595V13.9774L5.24782 12.7195C5.38839 12.6078 5.5686 12.5681 5.74161 12.6186C6.51653 12.8528 7.30947 12.9718 8.10601 12.9718C11.9806 12.9718 15.1343 10.3046 15.1343 7.02473C15.1343 3.74484 11.9842 1.08128 8.10962 1.08128C4.23502 1.08128 1.08128 3.75205 1.08128 7.02834C1.08128 8.57457 1.78412 10.0415 3.06003 11.1588C3.18618 11.2706 3.25466 11.4328 3.24385 11.5986V11.595Z" fill="white"/>
<path d="M17.7692 19.9996C17.7151 19.9996 17.6574 19.9852 17.607 19.96L14.1505 18.2011C11.2094 18.1614 8.83057 16.0746 8.83057 13.5155C8.83057 13.4903 8.83057 13.4687 8.83057 13.4435C8.84498 13.2741 8.97834 13.1047 9.14774 13.083C11.7644 12.7586 13.9558 11.2448 14.8677 9.12914C14.9326 8.97776 15.0948 8.88765 15.257 8.91648C17.7944 9.33818 19.6362 11.2737 19.6362 13.5155C19.6362 14.9717 18.8541 16.3413 17.5277 17.2243L18.1116 19.5491C18.1476 19.6861 18.0972 19.8302 17.9854 19.9203C17.9205 19.9708 17.8413 19.9996 17.762 19.9996H17.7692ZM9.55863 13.7534C9.71001 15.8331 11.75 17.4802 14.2334 17.4802C14.291 17.4802 14.3451 17.4947 14.3956 17.5199L17.2213 18.958L16.7672 17.1486C16.7275 16.9937 16.796 16.8315 16.933 16.7522C18.1765 16.0061 18.9189 14.7987 18.9189 13.5155C18.9189 11.7062 17.4592 10.1275 15.4084 9.68059C14.3739 11.8035 12.1753 13.3353 9.55503 13.7534H9.55863Z" fill="white"/>
<path d="M2.70321 15.4984C2.6131 15.4984 2.52299 15.4768 2.44009 15.4299C2.26709 15.3362 2.16256 15.1524 2.16256 14.9577V11.804C0.767711 10.5029 0 8.81606 0 7.02834C0 3.15374 3.63671 0 8.10962 0C12.5825 0 16.2192 3.15374 16.2192 7.02834C16.2192 10.9029 12.5825 14.0567 8.10962 14.0567C7.29145 14.0567 6.47328 13.9449 5.67673 13.7287L2.98794 15.4155C2.90144 15.4695 2.80052 15.4984 2.6996 15.4984H2.70321ZM3.24385 11.595V13.9774L5.24782 12.7195C5.38839 12.6078 5.5686 12.5681 5.74161 12.6186C6.51653 12.8528 7.30947 12.9718 8.10601 12.9718C11.9806 12.9718 15.1343 10.3046 15.1343 7.02473C15.1343 3.74484 11.9842 1.08128 8.10962 1.08128C4.23502 1.08128 1.08128 3.75205 1.08128 7.02834C1.08128 8.57457 1.78412 10.0415 3.06003 11.1588C3.18618 11.2706 3.25466 11.4328 3.24385 11.5986V11.595Z" fill="white"/>
<path d="M17.7692 19.9996C17.7151 19.9996 17.6574 19.9852 17.607 19.96L14.1505 18.2011C11.2094 18.1614 8.83057 16.0746 8.83057 13.5155C8.83057 13.4903 8.83057 13.4687 8.83057 13.4435C8.84498 13.2741 8.97834 13.1047 9.14774 13.083C11.7644 12.7586 13.9558 11.2448 14.8677 9.12914C14.9326 8.97776 15.0948 8.88765 15.257 8.91648C17.7944 9.33818 19.6362 11.2737 19.6362 13.5155C19.6362 14.9717 18.8541 16.3413 17.5277 17.2243L18.1116 19.5491C18.1476 19.6861 18.0972 19.8302 17.9854 19.9203C17.9205 19.9708 17.8413 19.9996 17.762 19.9996H17.7692ZM9.55863 13.7534C9.71001 15.8331 11.75 17.4802 14.2334 17.4802C14.291 17.4802 14.3451 17.4947 14.3956 17.5199L17.2213 18.958L16.7672 17.1486C16.7275 16.9937 16.796 16.8315 16.933 16.7522C18.1765 16.0061 18.9189 14.7987 18.9189 13.5155C18.9189 11.7062 17.4592 10.1275 15.4084 9.68059C14.3739 11.8035 12.1753 13.3353 9.55503 13.7534H9.55863Z" fill="white"/>
<path d="M7.02119 7.02488C8.68997 6.83386 9.60185 6.26798 9.60185 5.14345C9.60185 4.29284 8.96389 3.65128 8.09887 3.65128C7.3636 3.65128 6.86981 3.99369 6.37242 4.6821L5.49658 4.13786C6.11291 3.26202 6.91667 2.71777 8.13491 2.71777C9.555 2.71777 10.6903 3.73418 10.6903 5.13264C10.6903 6.5311 9.56581 7.48623 7.97993 7.76015L7.92226 8.82702H7.14013L7.02119 7.02849V7.02488ZM6.78331 10.6111C6.78331 10.2075 7.12571 9.86505 7.54021 9.86505C7.9547 9.86505 8.2971 10.2075 8.2971 10.6111C8.2971 11.0148 7.9547 11.368 7.54021 11.368C7.12571 11.368 6.78331 11.0256 6.78331 10.6111Z" fill="white"/>
<path d="M13.5918 15.8402C13.5918 15.4978 13.8837 15.2059 14.2478 15.2059C14.6118 15.2059 14.8857 15.4978 14.8857 15.8402C14.8857 16.1826 14.6046 16.4854 14.2478 16.4854C13.891 16.4854 13.5918 16.1934 13.5918 15.8402ZM14.7235 9.30566L14.5613 14.3156H13.9054L13.7864 10.5816L14.7235 9.30566Z" fill="white"/>
</svg>
