<?xml version="1.0" encoding="utf-8"?>
<!-- Generator: Adobe Illustrator 25.1.0, SVG Export Plug-In . SVG Version: 6.00 Build 0)  -->
<svg version="1.1" xmlns="http://www.w3.org/2000/svg" xmlns:xlink="http://www.w3.org/1999/xlink" x="0px" y="0px"
	 viewBox="0 0 413.12 413.12" style="enable-background:new 0 0 413.12 413.12;" xml:space="preserve">
<style type="text/css">
	.st0{fill:#FFFFFF;}
	.st1{fill:#01015B;}
	.st2{fill:#F7F6F0;}
	.st3{fill:#ABCDF5;}
	.st4{fill-rule:evenodd;clip-rule:evenodd;fill:#F7F6F0;}
	.st5{fill:#D38742;}
	.st6{fill:#0067E2;}
	.st7{fill:#FF2D2D;}
	.st8{fill-rule:evenodd;clip-rule:evenodd;fill:#000090;}
	.st9{fill-rule:evenodd;clip-rule:evenodd;fill:#01015B;}
	.st10{fill:#04518A;stroke:#04518A;stroke-width:0.3287;stroke-miterlimit:10;}
	.st11{fill-rule:evenodd;clip-rule:evenodd;fill:#66BCD5;}
	.st12{fill:#F4A086;}
	.st13{fill:#A0B5BF;}
	.st14{fill:#F7B690;}
	.st15{fill:#000090;}
	.st16{fill-rule:evenodd;clip-rule:evenodd;fill:#18898D;}
	.st17{fill-rule:evenodd;clip-rule:evenodd;fill:#0067E2;}
	.st18{clip-path:url(#SVGID_4_);}
	.st19{clip-path:url(#SVGID_6_);}
	.st20{fill:none;stroke:#000090;stroke-width:2.3368;stroke-linecap:round;stroke-miterlimit:10;}
	.st21{fill:none;stroke:#000090;stroke-width:2.3368;stroke-linecap:round;stroke-miterlimit:10;stroke-dasharray:4.0751,4.0751;}
	.st22{fill:none;stroke:#000090;stroke-width:4;stroke-linecap:round;stroke-miterlimit:10;}
	.st23{fill:none;stroke:#000090;stroke-width:3;stroke-linecap:round;stroke-miterlimit:10;}
	.st24{fill-rule:evenodd;clip-rule:evenodd;fill:#FF2D2D;}
	.st25{fill-rule:evenodd;clip-rule:evenodd;fill:#052E93;}
	.st26{fill-rule:evenodd;clip-rule:evenodd;fill:#ABCDF5;}
	.st27{fill-rule:evenodd;clip-rule:evenodd;fill:#75B8F9;}
	.st28{fill:#97BADD;}
	.st29{fill:none;stroke:#ABCDF5;stroke-width:2;stroke-linecap:round;stroke-miterlimit:10;}
	.st30{clip-path:url(#SVGID_8_);fill-rule:evenodd;clip-rule:evenodd;fill:#97BADD;}
	.st31{fill:url(#SVGID_9_);}
	.st32{fill-rule:evenodd;clip-rule:evenodd;fill:#CCCCCC;stroke:#CCCCCC;stroke-miterlimit:10;}
	.st33{fill:#052E93;}
	.st34{fill:#FF921E;}
	.st35{fill:#04518C;}
	.st36{fill-rule:evenodd;clip-rule:evenodd;fill:url(#SVGID_16_);}
	.st37{fill-rule:evenodd;clip-rule:evenodd;fill:#D38742;}
	.st38{fill-rule:evenodd;clip-rule:evenodd;fill:none;stroke:#FF2D2D;stroke-width:2.2054;stroke-miterlimit:10;}
	.st39{clip-path:url(#SVGID_18_);fill:none;stroke:#FFFFFF;stroke-miterlimit:10;}
	.st40{clip-path:url(#SVGID_20_);fill:none;stroke:#FFFFFF;stroke-miterlimit:10;}
	.st41{clip-path:url(#SVGID_22_);fill:none;stroke:#109E7B;stroke-miterlimit:10;}
	.st42{clip-path:url(#SVGID_24_);fill:#007054;stroke:#109E7B;stroke-miterlimit:10;}
	.st43{clip-path:url(#SVGID_24_);fill:#052E93;}
	.st44{clip-path:url(#SVGID_26_);fill:#052E93;}
	.st45{clip-path:url(#SVGID_26_);fill:none;stroke:#007054;stroke-miterlimit:10;}
	.st46{fill:url(#SVGID_29_);}
	.st47{fill:url(#SVGID_30_);}
	.st48{fill:url(#SVGID_31_);}
	.st49{fill-rule:evenodd;clip-rule:evenodd;fill:#2F29FF;}
	.st50{fill-rule:evenodd;clip-rule:evenodd;fill:#0D59A1;}
	.st51{fill-rule:evenodd;clip-rule:evenodd;fill:#003566;}
	.st52{clip-path:url(#SVGID_35_);}
	.st53{fill:#0D59A1;}
	.st54{fill:none;stroke:#2A577F;stroke-miterlimit:10;}
	.st55{fill-rule:evenodd;clip-rule:evenodd;fill:#12A7DB;}
	.st56{fill:#12A7DB;}
	.st57{fill:#003566;}
	.st58{fill-rule:evenodd;clip-rule:evenodd;fill:#FF4C4E;}
	.st59{fill:#FF4C4E;}
	.st60{fill-rule:evenodd;clip-rule:evenodd;fill:#363A5B;}
	.st61{fill-rule:evenodd;clip-rule:evenodd;fill:#FF4C4E;stroke:#FF4C4E;stroke-miterlimit:10;}
	.st62{fill-rule:evenodd;clip-rule:evenodd;fill:#04518A;}
	.st63{fill:#04518A;}
	.st64{fill:none;stroke:#3153A6;stroke-miterlimit:10;}
	.st65{fill-rule:evenodd;clip-rule:evenodd;fill:none;stroke:#01015B;stroke-width:5;stroke-miterlimit:10;}
	.st66{fill:#E10A17;}
	.st67{fill:#253574;}
	.st68{fill:#FFE80C;}
	.st69{fill-rule:evenodd;clip-rule:evenodd;fill:#444871;}
	.st70{fill-rule:evenodd;clip-rule:evenodd;fill:#0A3C5F;}
	.st71{fill:#A1B4B1;}
	.st72{fill-rule:evenodd;clip-rule:evenodd;fill:#FFED33;}
	.st73{fill:#FFED33;}
	.st74{fill:#ECF0EF;}
	.st75{fill-rule:evenodd;clip-rule:evenodd;fill:#222B56;}
	.st76{fill:#616D7D;}
	.st77{fill:#7590A2;}
	.st78{fill:#758798;}
	.st79{fill:#D0D9DF;}
	.st80{fill:#62C1C5;}
	.st81{clip-path:url(#SVGID_49_);}
	.st82{fill-rule:evenodd;clip-rule:evenodd;fill:#FF8D7E;}
	.st83{fill:#007CF7;}
	.st84{fill-rule:evenodd;clip-rule:evenodd;fill:#7D4E5B;}
	.st85{clip-path:url(#SVGID_51_);}
	.st86{fill-rule:evenodd;clip-rule:evenodd;fill:#FDCF41;}
	.st87{clip-path:url(#SVGID_53_);}
	.st88{clip-path:url(#SVGID_55_);fill-rule:evenodd;clip-rule:evenodd;fill:#97BADD;}
	.st89{clip-path:url(#SVGID_57_);fill-rule:evenodd;clip-rule:evenodd;fill:#01015B;}
	.st90{clip-path:url(#SVGID_57_);fill:#FF8D7E;}
	.st91{clip-path:url(#SVGID_57_);fill:#0067E2;}
	.st92{fill:#D5E6FA;}
	.st93{clip-path:url(#SVGID_59_);fill:#FF8D7E;}
	.st94{clip-path:url(#SVGID_59_);fill:#0067E2;}
	.st95{clip-path:url(#SVGID_59_);fill-rule:evenodd;clip-rule:evenodd;fill:#01015B;}
	.st96{fill:#E1000F;}
	.st97{clip-path:url(#SVGID_61_);fill:#F4A086;}
	.st98{clip-path:url(#SVGID_61_);fill-rule:evenodd;clip-rule:evenodd;fill:#01015B;}
	.st99{clip-path:url(#SVGID_61_);fill:#D38742;}
	.st100{clip-path:url(#SVGID_61_);fill-rule:evenodd;clip-rule:evenodd;fill:#000090;}
	.st101{clip-path:url(#SVGID_61_);fill-rule:evenodd;clip-rule:evenodd;fill:#0A3C5F;}
	.st102{clip-path:url(#SVGID_61_);fill-rule:evenodd;clip-rule:evenodd;fill:#222B56;}
	.st103{clip-path:url(#SVGID_61_);fill:#616D7D;}
	.st104{clip-path:url(#SVGID_61_);fill:#7590A2;}
	.st105{clip-path:url(#SVGID_61_);fill:#758798;}
	.st106{clip-path:url(#SVGID_61_);fill:#F7F6F0;}
	.st107{clip-path:url(#SVGID_61_);fill:#ABCDF5;}
	.st108{clip-path:url(#SVGID_61_);fill-rule:evenodd;clip-rule:evenodd;fill:#F7F6F0;}
	.st109{clip-path:url(#SVGID_61_);fill:#D0D9DF;}
	.st110{clip-path:url(#SVGID_61_);fill:#62C1C5;}
	.st111{clip-path:url(#SVGID_61_);fill:#F7B690;}
	.st112{clip-path:url(#SVGID_61_);fill-rule:evenodd;clip-rule:evenodd;fill:#FF8D7E;}
	.st113{clip-path:url(#SVGID_61_);fill:#007CF7;}
	.st114{clip-path:url(#SVGID_61_);fill-rule:evenodd;clip-rule:evenodd;fill:#7D4E5B;}
	.st115{clip-path:url(#SVGID_63_);fill-rule:evenodd;clip-rule:evenodd;fill:#01015B;}
	.st116{clip-path:url(#SVGID_63_);fill:#D38742;}
	.st117{clip-path:url(#SVGID_63_);fill-rule:evenodd;clip-rule:evenodd;fill:#FDCF41;}
	.st118{clip-path:url(#SVGID_63_);fill-rule:evenodd;clip-rule:evenodd;fill:#18898D;}
	.st119{clip-path:url(#SVGID_63_);fill-rule:evenodd;clip-rule:evenodd;fill:#444871;}
	.st120{clip-path:url(#SVGID_65_);fill:#01015B;}
	.st121{clip-path:url(#SVGID_65_);fill:#F7F6F0;}
	.st122{clip-path:url(#SVGID_65_);fill:#ABCDF5;}
	.st123{clip-path:url(#SVGID_65_);fill-rule:evenodd;clip-rule:evenodd;fill:#F7F6F0;}
	.st124{clip-path:url(#SVGID_65_);fill:#D38742;}
	.st125{clip-path:url(#SVGID_65_);fill:#0067E2;}
	.st126{clip-path:url(#SVGID_65_);fill:#FF2D2D;}
	.st127{clip-path:url(#SVGID_65_);fill-rule:evenodd;clip-rule:evenodd;fill:#000090;}
	.st128{clip-path:url(#SVGID_65_);fill-rule:evenodd;clip-rule:evenodd;fill:#01015B;}
	.st129{clip-path:url(#SVGID_65_);fill:#04518A;stroke:#04518A;stroke-width:0.3287;stroke-miterlimit:10;}
	.st130{clip-path:url(#SVGID_65_);fill-rule:evenodd;clip-rule:evenodd;fill:#ABCDF5;}
	.st131{clip-path:url(#SVGID_65_);fill-rule:evenodd;clip-rule:evenodd;fill:#75B8F9;}
	.st132{clip-path:url(#SVGID_65_);fill:#97BADD;}
	.st133{clip-path:url(#SVGID_65_);fill:none;stroke:#ABCDF5;stroke-width:2;stroke-linecap:round;stroke-miterlimit:10;}
	.st134{clip-path:url(#SVGID_65_);}
	.st135{clip-path:url(#SVGID_67_);fill-rule:evenodd;clip-rule:evenodd;fill:#97BADD;}
	.st136{clip-path:url(#SVGID_69_);fill:#D38742;}
	.st137{clip-path:url(#SVGID_69_);fill:#000090;}
	.st138{clip-path:url(#SVGID_69_);fill-rule:evenodd;clip-rule:evenodd;fill:#01015B;}
</style>
<g id="Calque_1">
</g>
<g id="Calque_2">
	<g>
		<defs>
			<polygon id="SVGID_60_" points="205.85,0 26.99,103.23 26.99,309.74 205.83,413.12 384.67,309.74 384.67,103.23 			"/>
		</defs>
		<use xlink:href="#SVGID_60_"  style="overflow:visible;fill:#ABCDF5;"/>
		<clipPath id="SVGID_2_">
			<use xlink:href="#SVGID_60_"  style="overflow:visible;"/>
		</clipPath>
		<path style="clip-path:url(#SVGID_2_);fill-rule:evenodd;clip-rule:evenodd;fill:#01015B;" d="M131.01,413.55
			c8.87-15.71,78.9,5.99,76.49,33.24c-3.08,34.84-13.01,71.91-24.79,106.47c-0.5,1.47-1.01,2.93-1.52,4.4
			c-6.32,18.01-5.81,37.78,1.8,55.28c16.43,37.78,26.77,89.11,44.04,119.02l-20.63,16.19c-3.63-3.44-81.73-135.5-85.73-153.18
			C117.64,581.61,123.96,426.04,131.01,413.55z"/>
		<path style="clip-path:url(#SVGID_2_);fill-rule:evenodd;clip-rule:evenodd;fill:#01015B;" d="M253.58,463.26
			c-0.48,8.12-21.24,2.93-29.16,2.93c-65.19,0-102.92-21.2-93.9-51.15c9.26-30.76,67.61-25.8,98.08-15.88
			c6.57,2.14,16.14,4.21,20.63,10.34C255.73,418.39,255.29,433.99,253.58,463.26z"/>
		<path style="clip-path:url(#SVGID_2_);fill:#D38742;" d="M157.99,249.5c-2.12,29.97-8,60.67-24.86,85.53
			c-3.63,5.36-8.91,10.92-15.35,10.24c-3.76-0.4-7.04-2.99-9.07-6.18c-2.03-3.19-2.99-6.95-3.68-10.67
			c-5.46-29.28,3.48-59.12,12.38-87.55c3.67-11.71,8.54-32.43,20.46-38.75c12.41-6.58,18.66,13.74,19.8,22.02
			C158.83,232.54,158.59,241.07,157.99,249.5z"/>
		<path style="clip-path:url(#SVGID_2_);fill-rule:evenodd;clip-rule:evenodd;fill:#000090;" d="M159.42,206.92
			c-0.57-4.96-1.9-10.8-6.5-12.96c-4.85-2.28-10.06,1.05-13.84,4.44c-22.89,20.53-31.56,49.51-35.71,80.62l54.89,3.39
			C161.91,257.64,162.33,232.2,159.42,206.92z"/>
		<path style="clip-path:url(#SVGID_2_);fill-rule:evenodd;clip-rule:evenodd;fill:#000090;" d="M137.65,323.93
			c-4.89-24.12-13.24-47.67-16.78-71.98c-1.65-11.36-4.07-25.36,2.58-35.19c5.96-8.82,31.69-43.51,66.05-43.51
			c48.98,0,69.65,19.95,76.55,43.58c4.93,29.84,3.23,70.5-5.67,99.04c-8.55,27.43,0.54,56.63,8.38,117.2H127.27
			C127.79,398.72,142.54,348.05,137.65,323.93z"/>
		<path style="clip-path:url(#SVGID_2_);fill:#D38742;" d="M130.93,199.8c-3.78,0-32.47,111.41-21.57,129.03
			c5.48,8.87,14.78,9.04,22.96,4.53C143.69,327.09,148.47,199.8,130.93,199.8z"/>
		<path style="clip-path:url(#SVGID_2_);fill:#D38742;" d="M283.14,290.35c-1.79-27.04-11.64-53.49-27.96-75.13
			c-2.94-3.89-7.14-8.04-11.91-7.01c-2.6,0.56-4.67,2.64-5.86,5.02c-1.19,2.38-1.64,5.05-2.04,7.68
			c-4.65,30.69-4.91,61.85-5.17,92.88c-0.08,9.54-0.14,19.19,2.2,28.44s7.41,18.18,15.53,23.18c4.25,2.62,11.55,5.09,16.41,2.6
			c3.91-2,5.77-8.65,7.37-12.33c5.68-13.05,9.36-26.97,10.9-41.12C283.49,306.53,283.68,298.41,283.14,290.35z"/>
		<path style="clip-path:url(#SVGID_2_);fill-rule:evenodd;clip-rule:evenodd;fill:#000090;" d="M237.38,205.91
			c1.19-4.82,3.24-10.37,8.03-11.65c5.06-1.35,12.84,4.53,16.12,8.61c19.86,24.74,27.77,54.79,27.89,86.49l-60.5-8.2
			C228.47,255.85,231.3,230.48,237.38,205.91z"/>
		<path style="clip-path:url(#SVGID_2_);fill:#D38742;" d="M146.89,325.65c-4.17,2.49-5.06,8.51-3.13,12.96
			s91.52,31.76,108.58,32.11c5.19,0.1,11.17-0.17,14.37-4.25c2.86-3.65,2.28-8.89,0.98-13.34c-2.18-7.48-6.17-15.96-12.02-21.29
			c-4.04-3.68-8.94-2.13-13.91-2.28C223.49,329.02,149.56,324.06,146.89,325.65z"/>
		<path style="clip-path:url(#SVGID_2_);fill-rule:evenodd;clip-rule:evenodd;fill:#222B56;" d="M143.96,140.33
			c2.12,2.37,4.02,1.25,3.31-1.83c-2.26-9.84-2.91-11.32-0.16-21.07c1.51-5.37,2.22-5.93-0.35-7.15
			C138.23,106.24,126.38,120.72,143.96,140.33z"/>
		<path style="clip-path:url(#SVGID_2_);fill:#D38742;" d="M216.11,179.35c-13.51,8.66-36.57,7.05-41.56,0
			c-0.2-2.22-0.55-32.78,1.18-40.44c3.36-14.81,14.56-18.28,21.08-14.72C200.98,151.91,205.24,164.23,216.11,179.35"/>
		<path style="clip-path:url(#SVGID_2_);fill:#D38742;" d="M181.02,107.26c-12.48-10.49-32.45-4.28-36.83,12.53
			c-4.01,15.4,9.19,43.7,16.24,48.75c12.32,8.84,31.57-7.78,33.01-16.49C195.54,139.31,191.52,116.08,181.02,107.26z"/>
		<path style="clip-path:url(#SVGID_2_);fill-rule:evenodd;clip-rule:evenodd;fill:#222B56;" d="M176.52,112.36
			c-0.18,2.39,11.04,31.46,11.8,30.95c2.72-1.8,4.83-10.98,10.47-11.75c1.8-0.25,4.49,0.43,3.86-3.15
			c-3.97-22.71-2.85-21.73-7.29-23.02C185.59,102.55,176.85,108.1,176.52,112.36z"/>
		<path style="clip-path:url(#SVGID_2_);fill-rule:evenodd;clip-rule:evenodd;fill:#222B56;" d="M138.55,91.9
			c-11.55,10.21,2.31,30.24,7.44,30.5c2.34,0.12,4.05-2.05,5.7-3.71c7.83-7.91,16.83-4.78,23.86-4.85
			c12.46-0.13,40.85-12.43,22.97-20.41C177.54,84.05,146.31,85.04,138.55,91.9"/>
		<path style="clip-path:url(#SVGID_2_);fill:#D38742;" d="M203.04,127.15c1.06,3.58,0.65,7.58-1.11,10.87
			c-5.04,9.43-13.83-0.28-13.63-7.43C188.53,122.07,200.16,117.4,203.04,127.15z"/>
		<path style="clip-path:url(#SVGID_2_);fill:#D38742;" d="M140,318.07c-1.98-1.26-5.19-2.2-6.15-0.06
			c-0.57,1.27,0.27,2.74,1.27,3.71c1,0.97,2.23,1.8,2.75,3.1c0.88,2.24-0.95,4.79-3.22,5.59c-2.27,0.79-4.76,0.32-7.11-0.16
			c-6.38-1.3-12.76-2.6-19.13-3.91c-2.65-0.54-6.03-0.79-7.43,1.52c-1.03,1.69-0.37,3.87,0.48,5.66
			c3.41,7.15,9.71,12.86,17.15,15.57s15.94,2.36,23.14-0.93c4.35-1.99,8.31-5.12,10.58-9.33C158.63,327.07,148.35,323.39,140,318.07
			z"/>
		<path style="clip-path:url(#SVGID_2_);fill:#D38742;" d="M133.46,183.64c4.75-4.59,12.11-6.26,18.37-4.17
			c4.09,1.37,8,5.03,7.45,9.31c-0.42,3.29-3.79,5.91-7.09,5.52c-0.08,4.03-3.81,6.89-7.17,9.12c-2.02,1.34-4.04,2.67-6.06,4.01
			c-1.8,1.19-3.84,2.43-5.96,2.03C123,207.55,128.99,187.97,133.46,183.64z"/>
		<polygon style="clip-path:url(#SVGID_2_);fill:#616D7D;" points="-63.25,394.72 -7.76,394.72 19.98,331.82 -35.51,331.82 		"/>
		<polygon style="clip-path:url(#SVGID_2_);fill:#7590A2;" points="-57.02,394.72 -1.52,394.72 26.22,331.82 -29.27,331.82 		"/>
		<path style="clip-path:url(#SVGID_2_);fill:#758798;" d="M-70.41,386.52H41.47c0.78,0,1.42,0.64,1.42,1.42v5.37
			c0,0.78-0.64,1.42-1.42,1.42H-70.41c-0.78,0-1.42-0.64-1.42-1.42v-5.37C-71.83,387.15-71.2,386.52-70.41,386.52z"/>
		<path style="clip-path:url(#SVGID_2_);fill:#616D7D;" d="M66.9,353.18c10.25,0,17.42-8.34,15.97-18.6L58.77,164.17
			c-1.45-10.26-10.97-18.6-21.23-18.6h-132.4c-10.25,0-17.42,8.34-15.97,18.6l24.09,170.41c1.45,10.25,10.97,18.6,21.22,18.6H66.9z"
			/>
		<path style="clip-path:url(#SVGID_2_);fill:#758798;" d="M77.04,353.18c10.25,0,17.42-8.34,15.97-18.6L68.91,164.17
			c-1.45-10.26-10.97-18.6-21.23-18.6h-132.4c-10.25,0-17.42,8.34-15.97,18.6l24.09,170.41c1.45,10.25,10.97,18.6,21.22,18.6H77.04z
			"/>
		<path style="clip-path:url(#SVGID_2_);fill:#F7F6F0;" d="M75.1,339.48c5.95,0,10.09-4.82,9.25-10.77L61.91,170.04
			c-0.84-5.95-6.34-10.77-12.29-10.77h-132.4c-5.95,0-10.09,4.82-9.25,10.77l22.43,158.67c0.84,5.95,6.34,10.77,12.29,10.77H75.1z"
			/>
		<path style="clip-path:url(#SVGID_2_);fill:#ABCDF5;" d="M54.41,197.01H-78.34c-1.83,0-3.51-1.32-3.76-2.94l-1.89-12.21
			c-0.25-1.63,1.03-2.94,2.85-2.94H51.61c1.83,0,3.51,1.32,3.76,2.94l1.89,12.21C57.52,195.69,56.24,197.01,54.41,197.01z"/>
		<path style="clip-path:url(#SVGID_2_);fill:#ABCDF5;" d="M65.91,275.1H20.49c-1.94,0-3.74-1.4-4-3.13l-9.94-64.29
			c-0.27-1.73,1.09-3.13,3.04-3.13h45.42c1.94,0,3.74,1.4,4,3.13l9.94,64.29C69.21,273.7,67.85,275.1,65.91,275.1z"/>
		<path style="clip-path:url(#SVGID_2_);fill:#ABCDF5;" d="M71.07,285.71c-0.39-2.52-1.79-4.55-3.13-4.55H20.33
			c-1.34,0-2.11,2.04-1.72,4.55l5.28,34.14h52.46L71.07,285.71z"/>
		<path style="clip-path:url(#SVGID_2_);fill:#ABCDF5;" d="M7.53,253.83c-0.39-2.52-1.79-4.55-3.13-4.55h-18.13
			c-1.34,0-2.11,2.04-1.72,4.55l10.21,66.02h22.97L7.53,253.83z"/>
		<path style="clip-path:url(#SVGID_2_);fill:#ABCDF5;" d="M-23.06,204.55l5.32,34.39c0.39,2.52,1.79,4.55,3.13,4.55H3.51
			c1.34,0,2.11-2.04,1.72-4.55l-5.32-34.39H-23.06z"/>
		<polygon style="clip-path:url(#SVGID_2_);fill:#F7F6F0;" points="1.59,275.11 -9.08,275.11 -12.18,255.05 -1.52,255.05 		"/>
		<path style="clip-path:url(#SVGID_2_);fill:#F7F6F0;" d="M-8.18,280.93l0.53,3.44H9.58l-0.53-3.44H-8.18z M-6.64,290.84h17.22
			l-0.53-3.44H-7.18L-6.64,290.84z M-5.64,297.3h17.22l-0.53-3.44H-6.18L-5.64,297.3z M-4.65,303.75h17.22l-0.53-3.44H-5.18
			L-4.65,303.75z M-3.65,310.21h8.41l-0.53-3.44h-8.41L-3.65,310.21z"/>
		<polygon style="clip-path:url(#SVGID_2_);fill-rule:evenodd;clip-rule:evenodd;fill:#F7F6F0;" points="58.6,230.38 13.27,230.38 
			10.16,210.33 55.5,210.33 		"/>
		<path style="clip-path:url(#SVGID_2_);fill:#F7F6F0;" d="M14.17,236.21l0.53,3.44h45.34l-0.53-3.44H14.17z M15.7,246.11h26.89
			l-0.53-3.44H15.17L15.7,246.11z"/>
		
			<rect x="40.14" y="411.96" transform="matrix(0.9958 -0.0921 0.0921 0.9958 -52.1952 6.5114)" style="clip-path:url(#SVGID_2_);fill:#D0D9DF;" width="8.67" height="314"/>
		<path style="clip-path:url(#SVGID_2_);fill:#62C1C5;" d="M113.2,412.63h-709.03c-1.71,0-3.1-1.39-3.1-3.1v-11.71
			c0-1.71,1.39-3.1,3.1-3.1H113.2c1.71,0,3.1,1.39,3.1,3.1v11.71C116.3,411.24,114.91,412.63,113.2,412.63z"/>
		<path style="clip-path:url(#SVGID_2_);fill:#F4A086;" d="M284.37,403.22c2.68,13.52,0.79,27.5-1.61,41.07
			c-7.56,42.82-23,105.18-40.23,145.11c-2.1,4.86-29.46,14.17-30.48,9.31c-10.38-49.53-3.83-138.54,8.88-187.53
			c2.73-10.52,6.16-21.24,13.3-29.44C255.01,357.92,279.49,378.63,284.37,403.22z"/>
		<path style="clip-path:url(#SVGID_2_);fill-rule:evenodd;clip-rule:evenodd;fill:#222B56;" d="M243.19,432.96
			c11.6,12.95,45.04,22.29,54.04,16.03c49.24-34.29,48.94-28.26,52.02-43.86c2.39-12.09-4.67-23.82-11.42-34.13
			c-6.03-9.2-63.39-15.13-88.64-7.15c-5.12,1.62-13.23,0.2-15.13,5.38c-3.64,9.9-5.86,19.31-11.36,35.64
			C219.61,414.05,232.22,420.71,243.19,432.96z"/>
		<path style="clip-path:url(#SVGID_2_);fill:#F7B690;" d="M340.72,375.52c-19.37-23.83-62-17.55-73.46,15.34
			c-12.68,36.38,12.36,175.97,21.91,202.7c4.08,6.87,36.64,18.25,41.7,4.66c2.14-41.77,10.84-119.67,15.95-141.03
			C350.65,441.14,360.81,400.24,340.72,375.52z"/>
		<path style="clip-path:url(#SVGID_2_);fill-rule:evenodd;clip-rule:evenodd;fill:#FF8D7E;" d="M183.33,311.04
			c-0.89,3.38,20.46,5.51,23.24,2.76c25.79-25.47,58.38-60.51,74.08-93.18c2.7-5.62-11.48-23.88-11-30.1
			C240.98,200.44,191.3,280.89,183.33,311.04z"/>
		<path style="clip-path:url(#SVGID_2_);fill-rule:evenodd;clip-rule:evenodd;fill:#01015B;" d="M206.28,536.38
			c14.19,9.07,134.84,9.62,151.19,13.65c-2.73-27.14-4.31-71.41-1.14-98.5c1.81-15.48,4.59-31.14,2.25-46.55
			c-2.34-15.41-11-30.96-25.52-36.6c-15.19-5.9-32.08,0.21-48.35,1.24c-8.21,0.52-16.49-0.34-24.44-2.45
			c-5.93-1.58-13.8-7.04-19.98-4.19c-5.8,2.68-8.15,11.27-10.46,16.57C226.02,388.27,199.78,476.92,206.28,536.38z"/>
		<path style="clip-path:url(#SVGID_2_);fill-rule:evenodd;clip-rule:evenodd;fill:#FF8D7E;" d="M238.41,325.79
			c-3.78-18.76-11.85-36.94-11.43-56.07c0.33-15.1,12.06-28.33,19.22-42.75c3.4-6.84,0.7-17.84,4.91-23.64
			c8.68-11.97,22.03-14.53,35.85-19.8c37.83-14.4,50.76,42.62,49.82,55.38c-0.94,12.75-7.96,30.96-9.6,43.64
			c-4.2,32.47-2.66,58.53,10.65,88.45c0.61,1.37-74.91,15.22-89.28,13.09c-14.57-2.16-16.69-7.44-12.4-20.44
			C240.27,351.11,241.02,338.8,238.41,325.79z"/>
		<path style="clip-path:url(#SVGID_2_);fill:#007CF7;" d="M202.89,295.26c29.92-4.61,84.95,0.16,104.82,0.39
			c0.36,23-113.26,33.62-121,26.33C169.15,305.44,193.36,296.73,202.89,295.26z"/>
		<path style="clip-path:url(#SVGID_2_);fill-rule:evenodd;clip-rule:evenodd;fill:#FF8D7E;" d="M318.76,228.75
			c2.8,35.97,5.59,71.94,8.39,107.91c0.23,2.93,0.55,6.08,2.52,8.26c4.06,4.48,12.43,2.43,16.13-2.34
			c15.98-20.59,19.02-99.12,13.01-113.04c-4.93-11.43-13.95-22.56-25.82-27.21C316.46,195.85,317.78,216.17,318.76,228.75z"/>
		<path style="clip-path:url(#SVGID_2_);fill:#007CF7;" d="M217.4,290.02c5.62-4.18,112.28,21.54,130.99,37.72
			c5.09,4.4-0.76,17.56-9.76,19.39c-6.04,1.23-15.05,0.09-20.23-1.13C276.97,336.24,200.67,304.88,217.4,290.02z"/>
		<path style="clip-path:url(#SVGID_2_);fill-rule:evenodd;clip-rule:evenodd;fill:#7D4E5B;" d="M239.47,106.46
			c0.61-7.68,5.65-14.85,12.67-18.03s15.73-2.23,21.91,2.38c3.14,2.35,5.74,5.6,9.44,6.9c4.87,1.71,10.16-0.43,15.31-0.71
			c7.82-0.43,15.71,3.87,19.59,10.67c7.85,13.78-2.9,38.69,4.17,52.88c14.61,29.33,14.61,53.84,1.26,56.73
			c-5.05,1.09-19.8-6.78-20.49-12.95c-0.94-8.48-0.9-11.27-1.35-30.11c-0.29-12.27-25.15-3.65-31.97-13.85
			c-3.74-5.59-3.75-12.86-6.37-19.06c-2.56-6.04-7.14-9.44-12.53-12.76c-4.03-2.48-7.66-7.06-9.62-11.28
			C239.92,113.92,239.18,110.16,239.47,106.46z"/>
		<path style="clip-path:url(#SVGID_2_);fill:#007CF7;" d="M273.93,159.19c1.85,8.51,1.77,17.43-0.24,25.91
			c-0.62,2.62-1.34,5.67,0.32,7.79c1.59,2.02,4.56,2.15,7.13,2.1c4.31-0.08,8.71-0.18,12.77-1.62s7.81-4.47,8.96-8.63
			c0.95-3.43,0.03-7.07-0.89-10.51c-1.76-6.6-3.52-13.2-5.28-19.79c-0.52-1.93-1.09-3.96-2.5-5.38c-2.37-2.38-6.45-2.19-9.34-0.48
			c-2.89,1.7-4.88,4.56-6.78,7.34L273.93,159.19z"/>
		<path style="clip-path:url(#SVGID_2_);fill:#007CF7;" d="M263.88,167.32c-3.34-3.48-5.32-8.01-7.22-12.44
			c-2.61-6.1-5.21-12.3-6.08-18.88c-0.87-6.58,0.19-13.68,4.29-18.89c4.95-6.29,13.5-8.8,21.51-8.61
			c6.95,0.16,14.28,2.35,18.68,7.74c2.39,2.93,3.73,6.55,5.03,10.1c1.69,4.61,3.4,9.34,3.37,14.25c-0.04,5.44-2.25,10.69-5.41,15.11
			s-7.24,8.1-11.41,11.59c-2.41,2.01-4.92,4-7.85,5.12C272.94,174.64,267.9,171.5,263.88,167.32z"/>
		<path style="clip-path:url(#SVGID_2_);fill-rule:evenodd;clip-rule:evenodd;fill:#7D4E5B;" d="M277.43,120.46
			c4.55,5.17,5.88,13.07,11.65,16.83c4.69,3.05,11.59,2.04,15.2-2.23c2.76-3.26,3.51-7.93,2.47-12.07
			c-1.04-4.14-3.73-7.74-7.04-10.42c-3.32-2.68-7.25-4.51-11.27-5.94c-6.19-2.19-12.79-3.5-19.33-2.88
			c-4.15,0.39-8.25,1.6-11.86,3.67c-2.73,1.57-7.91,4.94-7.61,8.66c0.3,3.67,3.51,3.36,5.74,1.92c3.39-2.19,6.62-3.52,10.78-3.19
			C270.46,115.15,274.59,117.22,277.43,120.46z"/>
		<path style="clip-path:url(#SVGID_2_);fill:#007CF7;" d="M297.46,133.21c1.03-0.78,2.15-1.49,3.4-1.83s2.66-0.26,3.74,0.44
			c1.46,0.95,2.06,2.81,2.14,4.55c0.2,4.39-2.45,8.43-7.01,8.92c-3.45,0.37-5.63-2.17-6-5.48
			C293.4,136.99,295.36,134.8,297.46,133.21z"/>
		<path style="clip-path:url(#SVGID_2_);fill:#007CF7;" d="M315.09,281.63c4.18,5.44-8.85,9.44-7.79,12.84
			c0.92,2.95,19.64,2.44,24.15,3.36c2.19,0.44,4.74,1.24,5.6,3.81c0.81,2.44-0.41,5.15-1.89,6.96c-3.64,4.45-8.95,6.24-14.09,6.22
			s-10.21-1.68-15.21-3.33c-2.64-0.87-5.33-1.77-7.64-3.61c-4.74-3.76-6.17-12.25-1.75-17.03
			C300.99,285.97,309.59,284.2,315.09,281.63z"/>
		<path style="clip-path:url(#SVGID_2_);fill:#007CF7;" d="M184.2,303.37c4.49-3.01,10.97-6.14,13.96-6.64
			c-2.71,2.97-8.32,10.45-6.54,12.98c1.72,2.45,8.67-8.39,11.64-8.97c5.84-1.16,12.51,1.61,17.9-1.38
			c4.06-2.25,6.62-8.27,3.05-11.75C208.24,272.06,185.4,289.49,184.2,303.37z"/>
		<path style="clip-path:url(#SVGID_2_);fill-rule:evenodd;clip-rule:evenodd;fill:#7D4E5B;" d="M297.3,156.7
			c0.71,17.17,3.51,28.47,1.48,45.83c-1.31,11.17,12.3,24.82,29.41,12.69c17.11-12.13-3.02-49.11-4.71-52.77
			c-1.69-3.66-19.97-8.03-19.97-8.03L297.3,156.7z"/>
	</g>
</g>
</svg>
