<?xml version="1.0" encoding="utf-8"?>
<!-- Generator: Adobe Illustrator 25.1.0, SVG Export Plug-In . SVG Version: 6.00 Build 0)  -->
<svg version="1.1" xmlns="http://www.w3.org/2000/svg" xmlns:xlink="http://www.w3.org/1999/xlink" x="0px" y="0px"
	 viewBox="0 0 413.12 413.12" style="enable-background:new 0 0 413.12 413.12;" xml:space="preserve">
<style type="text/css">
	.st0{fill:#FFFFFF;}
	.st1{fill:#01015B;}
	.st2{fill:#F7F6F0;}
	.st3{fill:#ABCDF5;}
	.st4{fill-rule:evenodd;clip-rule:evenodd;fill:#F7F6F0;}
	.st5{fill:#D38742;}
	.st6{fill:#0067E2;}
	.st7{fill:#FF2D2D;}
	.st8{fill-rule:evenodd;clip-rule:evenodd;fill:#000090;}
	.st9{fill-rule:evenodd;clip-rule:evenodd;fill:#01015B;}
	.st10{fill:#04518A;stroke:#04518A;stroke-width:0.3287;stroke-miterlimit:10;}
	.st11{fill-rule:evenodd;clip-rule:evenodd;fill:#66BCD5;}
	.st12{fill:#F4A086;}
	.st13{fill:#A0B5BF;}
	.st14{fill:#F7B690;}
	.st15{fill:#000090;}
	.st16{fill-rule:evenodd;clip-rule:evenodd;fill:#18898D;}
	.st17{fill-rule:evenodd;clip-rule:evenodd;fill:#0067E2;}
	.st18{clip-path:url(#SVGID_4_);}
	.st19{clip-path:url(#SVGID_6_);}
	.st20{fill:none;stroke:#000090;stroke-width:2.3368;stroke-linecap:round;stroke-miterlimit:10;}
	.st21{fill:none;stroke:#000090;stroke-width:2.3368;stroke-linecap:round;stroke-miterlimit:10;stroke-dasharray:4.0751,4.0751;}
	.st22{fill:none;stroke:#000090;stroke-width:4;stroke-linecap:round;stroke-miterlimit:10;}
	.st23{fill:none;stroke:#000090;stroke-width:3;stroke-linecap:round;stroke-miterlimit:10;}
	.st24{fill-rule:evenodd;clip-rule:evenodd;fill:#FF2D2D;}
	.st25{fill-rule:evenodd;clip-rule:evenodd;fill:#052E93;}
	.st26{fill-rule:evenodd;clip-rule:evenodd;fill:#ABCDF5;}
	.st27{fill-rule:evenodd;clip-rule:evenodd;fill:#75B8F9;}
	.st28{fill:#97BADD;}
	.st29{fill:none;stroke:#ABCDF5;stroke-width:2;stroke-linecap:round;stroke-miterlimit:10;}
	.st30{clip-path:url(#SVGID_8_);fill-rule:evenodd;clip-rule:evenodd;fill:#97BADD;}
	.st31{fill:url(#SVGID_9_);}
	.st32{fill-rule:evenodd;clip-rule:evenodd;fill:#CCCCCC;stroke:#CCCCCC;stroke-miterlimit:10;}
	.st33{fill:#052E93;}
	.st34{fill:#FF921E;}
	.st35{fill:#04518C;}
	.st36{fill-rule:evenodd;clip-rule:evenodd;fill:url(#SVGID_16_);}
	.st37{fill-rule:evenodd;clip-rule:evenodd;fill:#D38742;}
	.st38{fill-rule:evenodd;clip-rule:evenodd;fill:none;stroke:#FF2D2D;stroke-width:2.2054;stroke-miterlimit:10;}
	.st39{clip-path:url(#SVGID_18_);fill:none;stroke:#FFFFFF;stroke-miterlimit:10;}
	.st40{clip-path:url(#SVGID_20_);fill:none;stroke:#FFFFFF;stroke-miterlimit:10;}
	.st41{clip-path:url(#SVGID_22_);fill:none;stroke:#109E7B;stroke-miterlimit:10;}
	.st42{clip-path:url(#SVGID_24_);fill:#007054;stroke:#109E7B;stroke-miterlimit:10;}
	.st43{clip-path:url(#SVGID_24_);fill:#052E93;}
	.st44{clip-path:url(#SVGID_26_);fill:#052E93;}
	.st45{clip-path:url(#SVGID_26_);fill:none;stroke:#007054;stroke-miterlimit:10;}
	.st46{fill:url(#SVGID_29_);}
	.st47{fill:url(#SVGID_30_);}
	.st48{fill:url(#SVGID_31_);}
	.st49{fill-rule:evenodd;clip-rule:evenodd;fill:#2F29FF;}
	.st50{fill-rule:evenodd;clip-rule:evenodd;fill:#0D59A1;}
	.st51{fill-rule:evenodd;clip-rule:evenodd;fill:#003566;}
	.st52{clip-path:url(#SVGID_35_);}
	.st53{fill:#0D59A1;}
	.st54{fill:none;stroke:#2A577F;stroke-miterlimit:10;}
	.st55{fill-rule:evenodd;clip-rule:evenodd;fill:#12A7DB;}
	.st56{fill:#12A7DB;}
	.st57{fill:#003566;}
	.st58{fill-rule:evenodd;clip-rule:evenodd;fill:#FF4C4E;}
	.st59{fill:#FF4C4E;}
	.st60{fill-rule:evenodd;clip-rule:evenodd;fill:#363A5B;}
	.st61{fill-rule:evenodd;clip-rule:evenodd;fill:#FF4C4E;stroke:#FF4C4E;stroke-miterlimit:10;}
	.st62{fill-rule:evenodd;clip-rule:evenodd;fill:#04518A;}
	.st63{fill:#04518A;}
	.st64{fill:none;stroke:#3153A6;stroke-miterlimit:10;}
	.st65{fill-rule:evenodd;clip-rule:evenodd;fill:none;stroke:#01015B;stroke-width:5;stroke-miterlimit:10;}
	.st66{fill:#E10A17;}
	.st67{fill:#253574;}
	.st68{fill:#FFE80C;}
	.st69{fill-rule:evenodd;clip-rule:evenodd;fill:#444871;}
	.st70{fill-rule:evenodd;clip-rule:evenodd;fill:#0A3C5F;}
	.st71{fill:#A1B4B1;}
	.st72{fill-rule:evenodd;clip-rule:evenodd;fill:#FFED33;}
	.st73{fill:#FFED33;}
	.st74{fill:#ECF0EF;}
	.st75{fill-rule:evenodd;clip-rule:evenodd;fill:#222B56;}
	.st76{fill:#616D7D;}
	.st77{fill:#7590A2;}
	.st78{fill:#758798;}
	.st79{fill:#D0D9DF;}
	.st80{fill:#62C1C5;}
	.st81{clip-path:url(#SVGID_49_);}
	.st82{fill-rule:evenodd;clip-rule:evenodd;fill:#FF8D7E;}
	.st83{fill:#007CF7;}
	.st84{fill-rule:evenodd;clip-rule:evenodd;fill:#7D4E5B;}
	.st85{clip-path:url(#SVGID_51_);}
	.st86{fill-rule:evenodd;clip-rule:evenodd;fill:#FDCF41;}
	.st87{clip-path:url(#SVGID_53_);}
	.st88{clip-path:url(#SVGID_55_);fill-rule:evenodd;clip-rule:evenodd;fill:#97BADD;}
	.st89{clip-path:url(#SVGID_57_);fill-rule:evenodd;clip-rule:evenodd;fill:#01015B;}
	.st90{clip-path:url(#SVGID_57_);fill:#FF8D7E;}
	.st91{clip-path:url(#SVGID_57_);fill:#0067E2;}
	.st92{fill:#D5E6FA;}
	.st93{clip-path:url(#SVGID_59_);fill:#FF8D7E;}
	.st94{clip-path:url(#SVGID_59_);fill:#0067E2;}
	.st95{clip-path:url(#SVGID_59_);fill-rule:evenodd;clip-rule:evenodd;fill:#01015B;}
	.st96{fill:#E1000F;}
	.st97{clip-path:url(#SVGID_61_);fill:#F4A086;}
	.st98{clip-path:url(#SVGID_61_);fill-rule:evenodd;clip-rule:evenodd;fill:#01015B;}
	.st99{clip-path:url(#SVGID_61_);fill:#D38742;}
	.st100{clip-path:url(#SVGID_61_);fill-rule:evenodd;clip-rule:evenodd;fill:#000090;}
	.st101{clip-path:url(#SVGID_61_);fill-rule:evenodd;clip-rule:evenodd;fill:#0A3C5F;}
	.st102{clip-path:url(#SVGID_61_);fill-rule:evenodd;clip-rule:evenodd;fill:#222B56;}
	.st103{clip-path:url(#SVGID_61_);fill:#616D7D;}
	.st104{clip-path:url(#SVGID_61_);fill:#7590A2;}
	.st105{clip-path:url(#SVGID_61_);fill:#758798;}
	.st106{clip-path:url(#SVGID_61_);fill:#F7F6F0;}
	.st107{clip-path:url(#SVGID_61_);fill:#ABCDF5;}
	.st108{clip-path:url(#SVGID_61_);fill-rule:evenodd;clip-rule:evenodd;fill:#F7F6F0;}
	.st109{clip-path:url(#SVGID_61_);fill:#D0D9DF;}
	.st110{clip-path:url(#SVGID_61_);fill:#62C1C5;}
	.st111{clip-path:url(#SVGID_61_);fill:#F7B690;}
	.st112{clip-path:url(#SVGID_61_);fill-rule:evenodd;clip-rule:evenodd;fill:#FF8D7E;}
	.st113{clip-path:url(#SVGID_61_);fill:#007CF7;}
	.st114{clip-path:url(#SVGID_61_);fill-rule:evenodd;clip-rule:evenodd;fill:#7D4E5B;}
	.st115{clip-path:url(#SVGID_63_);fill-rule:evenodd;clip-rule:evenodd;fill:#01015B;}
	.st116{clip-path:url(#SVGID_63_);fill:#D38742;}
	.st117{clip-path:url(#SVGID_63_);fill-rule:evenodd;clip-rule:evenodd;fill:#FDCF41;}
	.st118{clip-path:url(#SVGID_63_);fill-rule:evenodd;clip-rule:evenodd;fill:#18898D;}
	.st119{clip-path:url(#SVGID_63_);fill-rule:evenodd;clip-rule:evenodd;fill:#444871;}
	.st120{clip-path:url(#SVGID_65_);fill:#01015B;}
	.st121{clip-path:url(#SVGID_65_);fill:#F7F6F0;}
	.st122{clip-path:url(#SVGID_65_);fill:#ABCDF5;}
	.st123{clip-path:url(#SVGID_65_);fill-rule:evenodd;clip-rule:evenodd;fill:#F7F6F0;}
	.st124{clip-path:url(#SVGID_65_);fill:#D38742;}
	.st125{clip-path:url(#SVGID_65_);fill:#0067E2;}
	.st126{clip-path:url(#SVGID_65_);fill:#FF2D2D;}
	.st127{clip-path:url(#SVGID_65_);fill-rule:evenodd;clip-rule:evenodd;fill:#000090;}
	.st128{clip-path:url(#SVGID_65_);fill-rule:evenodd;clip-rule:evenodd;fill:#01015B;}
	.st129{clip-path:url(#SVGID_65_);fill:#04518A;stroke:#04518A;stroke-width:0.3287;stroke-miterlimit:10;}
	.st130{clip-path:url(#SVGID_65_);fill-rule:evenodd;clip-rule:evenodd;fill:#ABCDF5;}
	.st131{clip-path:url(#SVGID_65_);fill-rule:evenodd;clip-rule:evenodd;fill:#75B8F9;}
	.st132{clip-path:url(#SVGID_65_);fill:#97BADD;}
	.st133{clip-path:url(#SVGID_65_);fill:none;stroke:#ABCDF5;stroke-width:2;stroke-linecap:round;stroke-miterlimit:10;}
	.st134{clip-path:url(#SVGID_65_);}
	.st135{clip-path:url(#SVGID_67_);fill-rule:evenodd;clip-rule:evenodd;fill:#97BADD;}
	.st136{clip-path:url(#SVGID_69_);fill:#D38742;}
	.st137{clip-path:url(#SVGID_69_);fill:#000090;}
	.st138{clip-path:url(#SVGID_69_);fill-rule:evenodd;clip-rule:evenodd;fill:#01015B;}
</style>
<g id="Calque_1">
</g>
<g id="Calque_2">
	<g>
		<defs>
			<polygon id="SVGID_62_" points="206.58,0 27.72,103.23 27.72,309.74 206.56,413.12 385.4,309.74 385.4,103.23 			"/>
		</defs>
		<use xlink:href="#SVGID_62_"  style="overflow:visible;fill:#ABCDF5;"/>
		<clipPath id="SVGID_2_">
			<use xlink:href="#SVGID_62_"  style="overflow:visible;"/>
		</clipPath>
		<path style="clip-path:url(#SVGID_2_);fill-rule:evenodd;clip-rule:evenodd;fill:#01015B;" d="M254.47,613.5
			c3.68,8.9,8.76,19.03,16.54,22.26c5.4,2.24,21.09-6.48,24.31-10.31c3.22-3.84,0.91-206.22-5.52-219.23
			c-8.62-17.46-82.13-2.74-80.65,26.06c1.9,36.82,10.81,76.75,21.75,114.25C237.47,569.04,245.35,591.44,254.47,613.5z"/>
		<path style="clip-path:url(#SVGID_2_);fill-rule:evenodd;clip-rule:evenodd;fill:#01015B;" d="M139.95,438.96
			c6.06,5.95,14.73,7.71,22.95,8.62c67.68,7.44,109.26-10.26,103.32-42.38c-6.1-32.99-67.24-34.49-100.01-27.68
			c-7.06,1.47-17.24,2.52-22.6,8.38C135.86,394.38,125.24,424.5,139.95,438.96z"/>
		<path style="clip-path:url(#SVGID_2_);fill:#D38742;" d="M276.59,232.64c9.94,29.76,23.87,59.28,47.39,80.05
			c5.07,4.48,11.85,8.73,18.19,6.37c3.7-1.38,6.34-4.85,7.56-8.61c1.22-3.76,1.21-7.8,0.95-11.75c-2.09-31.04-18.9-58.89-35.3-85.33
			c-6.75-10.89-17.08-30.58-30.77-33.87c-14.27-3.42-15.3,18.75-14.3,27.42C271.33,215.71,273.79,224.28,276.59,232.64z"/>
		<path style="clip-path:url(#SVGID_2_);fill-rule:evenodd;clip-rule:evenodd;fill:#FDCF41;" d="M247.2,166.98
			c4.32-3.57,30.52,6.62,35.22,9.06c28.49,14.81,44.81,41.87,57.1,72.25L284.88,266C274.74,241.9,243.1,170.36,247.2,166.98z"/>
		<path style="clip-path:url(#SVGID_2_);fill-rule:evenodd;clip-rule:evenodd;fill:#01015B;" d="M131.9,415.26
			c8.99-27.2,35.55-28.72,56.68-20.67c4.38,1.67,8.57,4.07,12.36,7.07c8.38-0.09,16.36,4.73,21.39,11.46
			c5.12,6.86,7.48,15.43,8.31,23.95c2.28,23.6-6.45,46.84-16.67,68.24c-8.38,17.56-17.87,34.59-28.38,50.96
			c-9.44,14.71-20.71,34.1-31.75,47.66c-1.22,1.5-41.1-5.07-41.63-13.8c-1.3-21.66-1.2-43.51,0.29-65.32
			C114.97,488.45,120.41,450.03,131.9,415.26z"/>
		<path style="clip-path:url(#SVGID_2_);fill:#D38742;" d="M282.32,387.7c-1.19,4.52-2.21,9.9,0.86,13.43
			c2.59,2.98,7.29,3.31,10.94,1.81c3.65-1.5,59.17-73.57,59.55-95.2c0.19-10.89-7.88-16.29-17.61-16.95
			C322.52,289.88,286.67,371.23,282.32,387.7z"/>
		<path style="clip-path:url(#SVGID_2_);fill:#D38742;" d="M313.54,409.67c1.99,0.88,4.36,1.59,5.27,3.57
			c0.97,2.1-0.26,4.57-1.79,6.3c-4.31,4.9-11.33,7.13-17.74,5.92c-6.41-1.21-12.04-5.71-14.92-11.56
			c-2.96-6.02-2.94-13.64,0.84-19.18c3.3-4.84,13.11-10.18,17.22-4.05c1.69,2.51,0.91,7.65,2.51,10.71
			C306.83,404.98,309.81,408.02,313.54,409.67z"/>
		<path style="clip-path:url(#SVGID_2_);fill-rule:evenodd;clip-rule:evenodd;fill:#FDCF41;" d="M138.81,266.45
			c-4.49-25.86-7.51-54.15-0.85-77.92c14.22-13.93,42.24-32.68,93.09-27.09c35.67,3.92,59.96,28.89,65.14,38.72
			c5.47,10.37,2.08,23.71-0.85,34.95c-1.26,21.4-19.5,75.3-4.68,108.93c11.63,26.38,6.99,83.76,2.08,91.23
			c0,0-32.78-21.08-80.67-21.08s-92.46,16.5-92.46,16.5c0.1-3.17,4.75-43.44,5.12-46.47C129.42,344.97,134.11,305.71,138.81,266.45z
			"/>
		<path style="clip-path:url(#SVGID_2_);fill:#D38742;" d="M87.18,231.4c18.66-21.28,43.62-36.96,70.89-44.52
			c4.91-1.36,11.02-2.13,14.32,1.75c1.8,2.12,2.19,5.16,1.67,7.89s-1.85,5.23-3.19,7.66c-15.63,28.39-35.21,54.39-54.71,80.28
			c-5.99,7.95-12.07,16-19.89,22.18c-7.81,6.17-17.69,10.36-27.6,9.35c-5.19-0.53-12.81-3.12-15.26-8.27
			c-1.97-4.14,0.71-10.84,1.72-14.9c3.58-14.43,9.38-28.3,17.09-41.01C76.61,244.58,81.61,237.74,87.18,231.4z"/>
		<path style="clip-path:url(#SVGID_2_);fill-rule:evenodd;clip-rule:evenodd;fill:#18898D;" d="M75.3,236.96
			c-0.13,0.15-0.25,0.32-0.34,0.51C75.07,237.3,75.19,237.13,75.3,236.96z"/>
		<path style="clip-path:url(#SVGID_2_);fill-rule:evenodd;clip-rule:evenodd;fill:#FDCF41;" d="M178.75,190.47
			c2.07-4.75,3.91-10.66,0.74-14.76c-3.34-4.33-13.52-4.4-18.83-3.1c-32.18,7.89-57.82,27.78-78.05,53.98l55.37,31.63
			C154.41,237.52,168.18,214.69,178.75,190.47z"/>
		<path style="clip-path:url(#SVGID_2_);fill:#D38742;" d="M148.62,391.97c-0.33,5.06-5.49,8.76-10.55,9.09
			c-5.06,0.33-73.16-69.89-81.61-85.57c-2.57-4.77-5.17-10.46-2.9-15.38c2.02-4.4,7.17-6.36,11.93-7.27
			c7.99-1.54,17.77-1.88,25.51,1.01c5.34,2,6.25,7.29,8.75,11.84C108.96,322.41,148.83,388.73,148.62,391.97z"/>
		<path style="clip-path:url(#SVGID_2_);fill:#D38742;" d="M240.39,128.83c-8.36-16.48-25.84-22.05-34.75-19.29
			c0.06,29.13-3.49,41.69-16.26,56.17c22.09,11.53,56.1,13.57,61.93,6.81C251.11,170.16,244.71,137.35,240.39,128.83z"/>
		<path style="clip-path:url(#SVGID_2_);fill-rule:evenodd;clip-rule:evenodd;fill:#444871;" d="M257.55,88.67
			c2.7,2.55,5.36,5.62,5.58,9.33c0.16,2.84-1.15,5.54-2.44,8.08c-1.66,3.29-3.32,6.58-4.98,9.87c-2.46-3.99-3.22-8.76-4.25-13.34
			c-1.03-4.58-2.53-9.32-5.99-12.48c-2.15-1.96-5.17-3.57-5.52-6.46c-0.49-4.15,4-5.55,6.86-3.56
			C250.59,82.72,254.21,85.51,257.55,88.67z"/>
		<path style="clip-path:url(#SVGID_2_);fill:#D38742;" d="M211.87,90c9.37-14.22,31.21-13.97,40.6,1.56
			c8.61,14.21,3.84,46.48-1.71,53.64c-9.7,12.52-33.92,1.63-37.96-6.66C206.89,126.4,203.99,101.96,211.87,90z"/>
		<path style="clip-path:url(#SVGID_2_);fill-rule:evenodd;clip-rule:evenodd;fill:#444871;" d="M249.32,125.59
			c-3.18-2.75-8.35-3.68-11.51-0.9c-1.68,1.48-2.48,3.67-3.45,5.69s-2.32,4.08-4.46,4.74c-2.96,0.92-5.93-1.2-8.3-3.19
			c-2.7-2.26-5.4-4.52-8.1-6.78c-1.3-1.09-3.11-2.22-4.54-1.32c-1.3,0.81-1.26,2.7-0.96,4.21c2.4,12.14,11.94,22.58,23.82,26.05
			c4.56,1.34,9.63,1.66,13.96-0.32c5.36-2.46,8.49-7.96,9.91-13.47C256.96,135.37,253.04,128.8,249.32,125.59z"/>
		<path style="clip-path:url(#SVGID_2_);fill-rule:evenodd;clip-rule:evenodd;fill:#444871;" d="M217.89,93.76
			c0.89,2.34-1.66,34.78-2.58,34.5c-3.26-0.99-8.11-9.55-13.99-8.64c-1.88,0.29-4.36,1.77-4.8-2c-2.8-23.92-3.63-22.6,0.43-25.22
			C205.89,86.64,216.29,89.59,217.89,93.76z"/>
		<path style="clip-path:url(#SVGID_2_);fill:#D38742;" d="M195.77,116.47c0.01,3.9,1.61,7.78,4.36,10.55
			c7.86,7.93,13.76-4.4,11.43-11.5C208.77,107.06,195.73,105.85,195.77,116.47z"/>
		<path style="clip-path:url(#SVGID_2_);fill-rule:evenodd;clip-rule:evenodd;fill:#444871;" d="M247.34,94.19
			c-0.34,2.15-1.29,4.59-3.4,5.14c-2.2,0.58-24.6-14.11-25.91-14.12c-1.32,0,1.21,8.7-0.12,9.82c-1.14,0.96-2.84,0.53-4.27,0.13
			c-6.31-1.78-12.9-0.78-19.37,0.26c-0.63-1.85-0.44-5.31,0.34-7.09c0.79-1.79,2.03-3.33,3.34-4.78
			c5.79-6.41,13.52-11.58,22.13-12.29c5.13-0.42,10.32,0.46,15.26,1.91C254.38,78.76,247.85,90.91,247.34,94.19z"/>
		<path style="clip-path:url(#SVGID_2_);fill:#D38742;" d="M165.59,384.09c2.42,3.63-7.27,4.85-10.9,7.27
			c8.86,1.46,17.73,2.91,26.59,4.37c1.56,0.26,3.25,0.59,4.28,1.79c1.2,1.42,1.01,3.64,0.01,5.2s-2.64,2.6-4.28,3.47
			c-9.17,4.86-20.2,6.12-30.24,3.46c-3.9-1.04-7.74-2.71-10.57-5.58c-2.83-2.87-4.49-7.12-3.52-11.03
			c1.49-6.04,6.13-5.63,10.89-6.31C150.88,386.28,164.76,382.85,165.59,384.09z"/>
	</g>
</g>
</svg>
