<?xml version="1.0" encoding="utf-8"?>
<!-- Generator: Adobe Illustrator 25.1.0, SVG Export Plug-In . SVG Version: 6.00 Build 0)  -->
<svg version="1.1" xmlns="http://www.w3.org/2000/svg" xmlns:xlink="http://www.w3.org/1999/xlink" x="0px" y="0px"
	 viewBox="0 0 413.12 413.12" style="enable-background:new 0 0 413.12 413.12;" xml:space="preserve">
<style type="text/css">
	.st0{fill:#FFFFFF;}
	.st1{fill:#01015B;}
	.st2{fill:#F7F6F0;}
	.st3{fill:#ABCDF5;}
	.st4{fill-rule:evenodd;clip-rule:evenodd;fill:#F7F6F0;}
	.st5{fill:#D38742;}
	.st6{fill:#0067E2;}
	.st7{fill:#FF2D2D;}
	.st8{fill-rule:evenodd;clip-rule:evenodd;fill:#000090;}
	.st9{fill-rule:evenodd;clip-rule:evenodd;fill:#01015B;}
	.st10{fill:#04518A;stroke:#04518A;stroke-width:0.3287;stroke-miterlimit:10;}
	.st11{fill-rule:evenodd;clip-rule:evenodd;fill:#66BCD5;}
	.st12{fill:#F4A086;}
	.st13{fill:#A0B5BF;}
	.st14{fill:#F7B690;}
	.st15{fill:#000090;}
	.st16{fill-rule:evenodd;clip-rule:evenodd;fill:#18898D;}
	.st17{fill-rule:evenodd;clip-rule:evenodd;fill:#0067E2;}
	.st18{clip-path:url(#SVGID_4_);}
	.st19{clip-path:url(#SVGID_6_);}
	.st20{fill:none;stroke:#000090;stroke-width:2.3368;stroke-linecap:round;stroke-miterlimit:10;}
	.st21{fill:none;stroke:#000090;stroke-width:2.3368;stroke-linecap:round;stroke-miterlimit:10;stroke-dasharray:4.0751,4.0751;}
	.st22{fill:none;stroke:#000090;stroke-width:4;stroke-linecap:round;stroke-miterlimit:10;}
	.st23{fill:none;stroke:#000090;stroke-width:3;stroke-linecap:round;stroke-miterlimit:10;}
	.st24{fill-rule:evenodd;clip-rule:evenodd;fill:#FF2D2D;}
	.st25{fill-rule:evenodd;clip-rule:evenodd;fill:#052E93;}
	.st26{fill-rule:evenodd;clip-rule:evenodd;fill:#ABCDF5;}
	.st27{fill-rule:evenodd;clip-rule:evenodd;fill:#75B8F9;}
	.st28{fill:#97BADD;}
	.st29{fill:none;stroke:#ABCDF5;stroke-width:2;stroke-linecap:round;stroke-miterlimit:10;}
	.st30{clip-path:url(#SVGID_8_);fill-rule:evenodd;clip-rule:evenodd;fill:#97BADD;}
	.st31{fill:url(#SVGID_9_);}
	.st32{fill-rule:evenodd;clip-rule:evenodd;fill:#CCCCCC;stroke:#CCCCCC;stroke-miterlimit:10;}
	.st33{fill:#052E93;}
	.st34{fill:#FF921E;}
	.st35{fill:#04518C;}
	.st36{fill-rule:evenodd;clip-rule:evenodd;fill:url(#SVGID_16_);}
	.st37{fill-rule:evenodd;clip-rule:evenodd;fill:#D38742;}
	.st38{fill-rule:evenodd;clip-rule:evenodd;fill:none;stroke:#FF2D2D;stroke-width:2.2054;stroke-miterlimit:10;}
	.st39{clip-path:url(#SVGID_18_);fill:none;stroke:#FFFFFF;stroke-miterlimit:10;}
	.st40{clip-path:url(#SVGID_20_);fill:none;stroke:#FFFFFF;stroke-miterlimit:10;}
	.st41{clip-path:url(#SVGID_22_);fill:none;stroke:#109E7B;stroke-miterlimit:10;}
	.st42{clip-path:url(#SVGID_24_);fill:#007054;stroke:#109E7B;stroke-miterlimit:10;}
	.st43{clip-path:url(#SVGID_24_);fill:#052E93;}
	.st44{clip-path:url(#SVGID_26_);fill:#052E93;}
	.st45{clip-path:url(#SVGID_26_);fill:none;stroke:#007054;stroke-miterlimit:10;}
	.st46{fill:url(#SVGID_29_);}
	.st47{fill:url(#SVGID_30_);}
	.st48{fill:url(#SVGID_31_);}
	.st49{fill-rule:evenodd;clip-rule:evenodd;fill:#2F29FF;}
	.st50{fill-rule:evenodd;clip-rule:evenodd;fill:#0D59A1;}
	.st51{fill-rule:evenodd;clip-rule:evenodd;fill:#003566;}
	.st52{clip-path:url(#SVGID_35_);}
	.st53{fill:#0D59A1;}
	.st54{fill:none;stroke:#2A577F;stroke-miterlimit:10;}
	.st55{fill-rule:evenodd;clip-rule:evenodd;fill:#12A7DB;}
	.st56{fill:#12A7DB;}
	.st57{fill:#003566;}
	.st58{fill-rule:evenodd;clip-rule:evenodd;fill:#FF4C4E;}
	.st59{fill:#FF4C4E;}
	.st60{fill-rule:evenodd;clip-rule:evenodd;fill:#363A5B;}
	.st61{fill-rule:evenodd;clip-rule:evenodd;fill:#FF4C4E;stroke:#FF4C4E;stroke-miterlimit:10;}
	.st62{fill-rule:evenodd;clip-rule:evenodd;fill:#04518A;}
	.st63{fill:#04518A;}
	.st64{fill:none;stroke:#3153A6;stroke-miterlimit:10;}
	.st65{fill-rule:evenodd;clip-rule:evenodd;fill:none;stroke:#01015B;stroke-width:5;stroke-miterlimit:10;}
	.st66{fill:#E10A17;}
	.st67{fill:#253574;}
	.st68{fill:#FFE80C;}
	.st69{fill-rule:evenodd;clip-rule:evenodd;fill:#444871;}
	.st70{fill-rule:evenodd;clip-rule:evenodd;fill:#0A3C5F;}
	.st71{fill:#A1B4B1;}
	.st72{fill-rule:evenodd;clip-rule:evenodd;fill:#FFED33;}
	.st73{fill:#FFED33;}
	.st74{fill:#ECF0EF;}
	.st75{fill-rule:evenodd;clip-rule:evenodd;fill:#222B56;}
	.st76{fill:#616D7D;}
	.st77{fill:#7590A2;}
	.st78{fill:#758798;}
	.st79{fill:#D0D9DF;}
	.st80{fill:#62C1C5;}
	.st81{clip-path:url(#SVGID_49_);}
	.st82{fill-rule:evenodd;clip-rule:evenodd;fill:#FF8D7E;}
	.st83{fill:#007CF7;}
	.st84{fill-rule:evenodd;clip-rule:evenodd;fill:#7D4E5B;}
	.st85{clip-path:url(#SVGID_51_);}
	.st86{fill-rule:evenodd;clip-rule:evenodd;fill:#FDCF41;}
	.st87{clip-path:url(#SVGID_53_);}
	.st88{clip-path:url(#SVGID_55_);fill-rule:evenodd;clip-rule:evenodd;fill:#97BADD;}
	.st89{clip-path:url(#SVGID_57_);fill-rule:evenodd;clip-rule:evenodd;fill:#01015B;}
	.st90{clip-path:url(#SVGID_57_);fill:#FF8D7E;}
	.st91{clip-path:url(#SVGID_57_);fill:#0067E2;}
	.st92{fill:#D5E6FA;}
	.st93{clip-path:url(#SVGID_59_);fill:#FF8D7E;}
	.st94{clip-path:url(#SVGID_59_);fill:#0067E2;}
	.st95{clip-path:url(#SVGID_59_);fill-rule:evenodd;clip-rule:evenodd;fill:#01015B;}
	.st96{fill:#E1000F;}
	.st97{clip-path:url(#SVGID_61_);fill:#F4A086;}
	.st98{clip-path:url(#SVGID_61_);fill-rule:evenodd;clip-rule:evenodd;fill:#01015B;}
	.st99{clip-path:url(#SVGID_61_);fill:#D38742;}
	.st100{clip-path:url(#SVGID_61_);fill-rule:evenodd;clip-rule:evenodd;fill:#000090;}
	.st101{clip-path:url(#SVGID_61_);fill-rule:evenodd;clip-rule:evenodd;fill:#0A3C5F;}
	.st102{clip-path:url(#SVGID_61_);fill-rule:evenodd;clip-rule:evenodd;fill:#222B56;}
	.st103{clip-path:url(#SVGID_61_);fill:#616D7D;}
	.st104{clip-path:url(#SVGID_61_);fill:#7590A2;}
	.st105{clip-path:url(#SVGID_61_);fill:#758798;}
	.st106{clip-path:url(#SVGID_61_);fill:#F7F6F0;}
	.st107{clip-path:url(#SVGID_61_);fill:#ABCDF5;}
	.st108{clip-path:url(#SVGID_61_);fill-rule:evenodd;clip-rule:evenodd;fill:#F7F6F0;}
	.st109{clip-path:url(#SVGID_61_);fill:#D0D9DF;}
	.st110{clip-path:url(#SVGID_61_);fill:#62C1C5;}
	.st111{clip-path:url(#SVGID_61_);fill:#F7B690;}
	.st112{clip-path:url(#SVGID_61_);fill-rule:evenodd;clip-rule:evenodd;fill:#FF8D7E;}
	.st113{clip-path:url(#SVGID_61_);fill:#007CF7;}
	.st114{clip-path:url(#SVGID_61_);fill-rule:evenodd;clip-rule:evenodd;fill:#7D4E5B;}
	.st115{clip-path:url(#SVGID_63_);fill-rule:evenodd;clip-rule:evenodd;fill:#01015B;}
	.st116{clip-path:url(#SVGID_63_);fill:#D38742;}
	.st117{clip-path:url(#SVGID_63_);fill-rule:evenodd;clip-rule:evenodd;fill:#FDCF41;}
	.st118{clip-path:url(#SVGID_63_);fill-rule:evenodd;clip-rule:evenodd;fill:#18898D;}
	.st119{clip-path:url(#SVGID_63_);fill-rule:evenodd;clip-rule:evenodd;fill:#444871;}
	.st120{clip-path:url(#SVGID_65_);fill:#01015B;}
	.st121{clip-path:url(#SVGID_65_);fill:#F7F6F0;}
	.st122{clip-path:url(#SVGID_65_);fill:#ABCDF5;}
	.st123{clip-path:url(#SVGID_65_);fill-rule:evenodd;clip-rule:evenodd;fill:#F7F6F0;}
	.st124{clip-path:url(#SVGID_65_);fill:#D38742;}
	.st125{clip-path:url(#SVGID_65_);fill:#0067E2;}
	.st126{clip-path:url(#SVGID_65_);fill:#FF2D2D;}
	.st127{clip-path:url(#SVGID_65_);fill-rule:evenodd;clip-rule:evenodd;fill:#000090;}
	.st128{clip-path:url(#SVGID_65_);fill-rule:evenodd;clip-rule:evenodd;fill:#01015B;}
	.st129{clip-path:url(#SVGID_65_);fill:#04518A;stroke:#04518A;stroke-width:0.3287;stroke-miterlimit:10;}
	.st130{clip-path:url(#SVGID_65_);fill-rule:evenodd;clip-rule:evenodd;fill:#ABCDF5;}
	.st131{clip-path:url(#SVGID_65_);fill-rule:evenodd;clip-rule:evenodd;fill:#75B8F9;}
	.st132{clip-path:url(#SVGID_65_);fill:#97BADD;}
	.st133{clip-path:url(#SVGID_65_);fill:none;stroke:#ABCDF5;stroke-width:2;stroke-linecap:round;stroke-miterlimit:10;}
	.st134{clip-path:url(#SVGID_65_);}
	.st135{clip-path:url(#SVGID_67_);fill-rule:evenodd;clip-rule:evenodd;fill:#97BADD;}
	.st136{clip-path:url(#SVGID_69_);fill:#D38742;}
	.st137{clip-path:url(#SVGID_69_);fill:#000090;}
	.st138{clip-path:url(#SVGID_69_);fill-rule:evenodd;clip-rule:evenodd;fill:#01015B;}
</style>
<g id="Calque_1">
</g>
<g id="Calque_2">
	<g>
		<defs>
			<polygon id="SVGID_64_" points="206.58,0 27.72,103.23 27.72,309.74 206.56,413.12 385.4,309.74 385.4,103.23 			"/>
		</defs>
		<use xlink:href="#SVGID_64_"  style="overflow:visible;fill:#ABCDF5;"/>
		<clipPath id="SVGID_2_">
			<use xlink:href="#SVGID_64_"  style="overflow:visible;"/>
		</clipPath>
		<polygon style="clip-path:url(#SVGID_2_);fill:#01015B;" points="406.74,362.62 347.49,362.62 317.87,295.46 377.12,295.46 		"/>
		<polygon style="clip-path:url(#SVGID_2_);fill:#01015B;" points="400.08,362.62 340.83,362.62 311.21,295.46 370.46,295.46 		"/>
		<path style="clip-path:url(#SVGID_2_);fill:#01015B;" d="M414.36,353.86H294.95c-0.85,0-1.54,0.69-1.54,1.54v5.69
			c0,0.85,0.69,1.54,1.54,1.54h119.41c0.85,0,1.54-0.69,1.54-1.54v-5.69C415.9,354.55,415.21,353.86,414.36,353.86z"/>
		<path style="clip-path:url(#SVGID_2_);fill:#01015B;" d="M236.92,318.27c-10.95,0-18.6-8.91-17.05-19.85l25.72-181.94
			c1.55-10.95,11.71-19.86,22.66-19.86h233.96c10.95,0,18.6,8.91,17.05,19.86l-25.72,181.94c-1.55,10.95-11.71,19.85-22.66,19.85
			H236.92z"/>
		<path style="clip-path:url(#SVGID_2_);fill:#01015B;" d="M226.09,318.27c-10.95,0-18.6-8.91-17.05-19.85l25.72-181.94
			c1.55-10.95,11.71-19.86,22.66-19.86h233.96c10.95,0,18.6,8.91,17.05,19.86l-25.72,181.94c-1.55,10.95-11.71,19.85-22.66,19.85
			H226.09z"/>
		<path style="clip-path:url(#SVGID_2_);fill:#F7F6F0;" d="M228.16,303.64c-6.35,0-10.77-5.15-9.87-11.5l23.95-169.41
			c0.9-6.35,6.77-11.5,13.13-11.5h233.96c6.35,0,10.77,5.15,9.87,11.5l-23.95,169.41c-0.9,6.35-6.77,11.5-13.12,11.5H228.16z"/>
		<path style="clip-path:url(#SVGID_2_);fill:#ABCDF5;" d="M264.32,265.77h-31.01c-2.5,0-4.24-2.03-3.88-4.53l13.97-97.13
			c0.36-2.5,2.68-4.53,5.18-4.53h31.01c2.5,0,4.24,2.03,3.88,4.53l-13.97,97.13C269.14,263.74,266.82,265.77,264.32,265.77z"/>
		<path style="clip-path:url(#SVGID_2_);fill:#ABCDF5;" d="M471.17,234.91h-82.45c-2.5,0-4.24-2.03-3.88-4.53l9.53-66.26
			c0.36-2.5,2.68-4.53,5.18-4.53h82.45c2.5,0,4.24,2.03,3.88,4.53l-9.53,66.26C476,232.88,473.68,234.91,471.17,234.91z"/>
		<path style="clip-path:url(#SVGID_2_);fill:#ABCDF5;" d="M474.08,246.23c0.39-2.69-1.19-4.86-3.52-4.86h-83.06
			c-2.33,0-4.54,2.18-4.92,4.86l-5.24,36.45h91.51L474.08,246.23z"/>
		<path style="clip-path:url(#SVGID_2_);fill:#ABCDF5;" d="M267.18,277.4c0.39-2.69-1.19-4.86-3.52-4.86h-31.63
			c-2.33,0-4.54,2.18-4.92,4.86l-0.76,5.27h40.08L267.18,277.4z"/>
		<path style="clip-path:url(#SVGID_2_);fill:#ABCDF5;" d="M319.02,228.73h-31.01c-2.5,0-4.24-2.03-3.88-4.53l8.65-60.09
			c0.36-2.5,2.68-4.53,5.18-4.53h31.01c2.5,0,4.24,2.03,3.88,4.53l-8.65,60.09C323.85,226.7,321.52,228.73,319.02,228.73z"/>
		<path style="clip-path:url(#SVGID_2_);fill:#ABCDF5;" d="M323.4,239.77c0.39-2.69-1.19-4.86-3.52-4.86h-31.63
			c-2.33,0-4.54,2.18-4.92,4.86l-6.17,42.91h40.08L323.4,239.77z"/>
		<polygon style="clip-path:url(#SVGID_2_);fill:#F7F6F0;" points="264.05,187.16 245.45,187.16 248.53,165.75 267.13,165.75 		"/>
		<path style="clip-path:url(#SVGID_2_);fill:#F7F6F0;" d="M244.56,193.38l-0.53,3.68h30.04l0.53-3.68H244.56z M243.03,203.96h30.04
			l0.53-3.68h-30.04L243.03,203.96z M242.04,210.85h30.04l0.53-3.68h-30.04L242.04,210.85z M241.05,217.75h30.04l0.53-3.68h-30.04
			L241.05,217.75z M240.06,224.65h14.68l0.53-3.68h-14.68L240.06,224.65z"/>
		<polygon style="clip-path:url(#SVGID_2_);fill-rule:evenodd;clip-rule:evenodd;fill:#F7F6F0;" points="313.42,187.16 
			294.82,187.16 297.9,165.75 316.5,165.75 		"/>
		<path style="clip-path:url(#SVGID_2_);fill:#ABCDF5;" d="M293.93,193.38l-0.53,3.68h30.04l0.53-3.68H293.93z M292.41,203.96h30.04
			l0.53-3.68h-30.04L292.41,203.96z M291.41,210.85h30.04l0.53-3.68h-30.04L291.41,210.85z M290.42,217.75h30.04l0.53-3.68h-30.04
			L290.42,217.75z M289.43,224.65h14.68l0.53-3.68h-14.68L289.43,224.65z"/>
		<polygon style="clip-path:url(#SVGID_2_);fill:#F7F6F0;" points="475.76,187.16 396.67,187.16 399.75,165.75 478.84,165.75 		"/>
		<path style="clip-path:url(#SVGID_2_);fill:#F7F6F0;" d="M395.77,193.38l-0.53,3.68h79.09l0.53-3.68H395.77z M394.25,203.96h46.91
			l0.53-3.68h-46.91L394.25,203.96z"/>
		<polygon style="clip-path:url(#SVGID_2_);fill-rule:evenodd;clip-rule:evenodd;fill:#F7F6F0;" points="302.54,262.78 
			283.94,262.78 287.02,241.37 305.62,241.37 		"/>
		<path style="clip-path:url(#SVGID_2_);fill:#F7F6F0;" d="M283.05,269l-0.53,3.68h30.04l0.53-3.68H283.05z M281.53,279.57h19.31
			l0.53-3.68h-19.31L281.53,279.57z"/>
		<polygon style="clip-path:url(#SVGID_2_);fill-rule:evenodd;clip-rule:evenodd;fill:#F7F6F0;" points="254.64,252.57 
			236.04,252.57 239.12,231.16 257.72,231.16 		"/>
		<path style="clip-path:url(#SVGID_2_);fill:#F7F6F0;" d="M235.14,258.79l-0.53,3.68h30.04l0.53-3.68H235.14z"/>
		<path style="clip-path:url(#SVGID_2_);fill:#D38742;" d="M63.58,264.62l0.01,0.15c0.61-0.09,1.22-0.15,1.85-0.15
			c6.36,0,11.69,4.84,12.29,11.18l20.92,219.91c0.42,4.52,4.17,7.93,8.71,7.93H239.7c6.82,0,12.35,5.53,12.35,12.35
			c0,6.82-5.53,12.35-12.35,12.35H107.36c-10.11,0-19.22-4.53-25.38-11.72c-7.28,0.54-35.47,2.96-35.47,2.96l-28.89-9.19
			L-8.64,264.62H63.58z"/>
		<path style="clip-path:url(#SVGID_2_);fill:#D38742;" d="M33.28,503.64c-4.54,0-8.28-3.41-8.71-7.93L3.65,275.8
			c-0.6-6.34-5.92-11.18-12.29-11.18h0c-7.28,0-12.98,6.27-12.29,13.51l20.92,219.87c1.61,17.18,16.03,30.32,33.29,30.32h132.34
			c6.82,0,12.35-5.53,12.35-12.35v0c0-6.82-5.53-12.35-12.35-12.35H33.28z"/>
		<path style="clip-path:url(#SVGID_2_);fill:#0067E2;" d="M293.09,346.26c-9.7-4.57-65.33-12.35-75.17-16.63
			c-13.55-5.9-23.82-21.82-30.48-35.02c-3.68-7.3-6.61-14.93-9.54-22.56l-41.57,21.97c5.63,9.64,11.9,18.91,18.78,27.69
			c10.57,13.48,22.82,26.05,37.92,34.12c15.75,8.41,80.92,9.43,98.56,6.65C305.81,359.52,302.8,350.83,293.09,346.26z"/>
		<path style="clip-path:url(#SVGID_2_);fill:#FF2D2D;" d="M148.57,226.91c-10.98-5.94-33.5-4.68-34.59,11.13
			c-0.64,9.31,4.7,19.47,8.24,27.83c3.95,9.33,8.48,18.42,13.55,27.2c0.18,0.32,0.38,0.62,0.56,0.94l45.81-19.11
			C172.08,262.23,162.65,234.54,148.57,226.91z"/>
		<path style="clip-path:url(#SVGID_2_);fill:#0067E2;" d="M333.07,342.77c3.63,3.46,6.38,8.13,6.49,13.14
			c0.11,5.01-3.98,15.06-7.71,11.7c-3.08-2.77-3.85-7.41-7.99-7.29c-4.14,0.12-7.85,2.41-11.7,3.94
			c-11.36,4.51-45.79-1.61-31.14-19.61C292.23,330.89,320.82,331.11,333.07,342.77z"/>
		<path style="clip-path:url(#SVGID_2_);fill-rule:evenodd;clip-rule:evenodd;fill:#000090;" d="M351.36,464.47
			c-18.44-20.37-133.74-45.7-187.97-62.29c-40.49-12.39-82.16-19.35-88.33,35.34c-2.66,23.59,9.35,47.83,29.56,60.24
			c22.01,13.52,49.68,12.25,75.46,10.54c49.14-3.25,79.28-5.25,128.42-8.5c4.7,64.31,59.35,87.33,83.82,158.56l36.76-7.5
			C406.79,617.33,360.53,476.22,351.36,464.47z"/>
		<path style="clip-path:url(#SVGID_2_);fill-rule:evenodd;clip-rule:evenodd;fill:#000090;" d="M65.89,497.76
			c22.01,13.52,49.68,12.25,75.46,10.54c50.89-3.37,101.77-6.74,152.66-10.11c8.12-0.54,17.24-1.57,22.3-7.94
			c5.92-7.44,3.05-19.07-3.68-25.78c-6.74-6.71-16.21-9.72-25.3-12.5c-54.22-16.6-108.44-33.2-162.66-49.79
			c-40.49-12.39-82.16-19.35-88.33,35.34C33.67,461.11,45.68,485.35,65.89,497.76z"/>
		<path style="clip-path:url(#SVGID_2_);fill:#FF2D2D;" d="M66.97,267.9c2.77,20.71,10.73,40.79,10.39,61.68
			c-0.34,20.92-9.46,41.56-24.7,55.88c-9.4,8.83-22.3,18.86-18.93,31.31c3.03,11.2,17.03,14.51,28.55,15.82
			c25.13,2.86,53.81,4.62,72.29-12.64c11.32-10.57,16.22-26.2,19.82-41.26c6.38-26.69,10.12-54,11.15-81.42
			c0.88-23.35-0.68-48.24-14.11-67.37c-13.37-19.06-28.38-31.69-50.27-24.98C76.29,229.33,64.22,247.36,66.97,267.9z"/>
		<path style="clip-path:url(#SVGID_2_);fill:#0067E2;" d="M266.62,343.79c-9.7-4.57-65.33-9.88-75.17-14.16
			c-13.55-5.9-23.82-21.82-30.48-35.02c-3.68-7.3-6.61-14.93-9.54-22.56l-41.57,21.97c5.63,9.64,11.9,18.91,18.78,27.69
			c10.57,13.48,22.82,26.05,37.92,34.12c15.75,8.41,80.92,6.96,98.56,4.18C279.34,357.05,276.32,348.36,266.62,343.79z"/>
		<path style="clip-path:url(#SVGID_2_);fill:#FF2D2D;" d="M143.93,253.68c-4.9-10.65-11.53-21.19-21.84-26.77
			c-10.98-5.94-33.5-4.68-34.59,11.13c-0.64,9.31,4.7,19.47,8.24,27.83c3.95,9.33,8.48,18.42,13.55,27.2
			c0.18,0.32,0.38,0.62,0.56,0.94l45.81-19.11C153.3,268.73,146.7,259.69,143.93,253.68z"/>
		<path style="clip-path:url(#SVGID_2_);fill:#0067E2;" d="M306.41,324.52c4.59,2.02,8.76,5.49,10.56,10.17s1.36,15.52-3.28,13.62
			c-3.84-1.57-6.13-5.67-9.99-4.15c-3.85,1.52-6.57,4.93-9.67,7.68c-9.16,8.1-43.62,14.01-35.94-7.88
			C263.96,327.18,290.93,317.7,306.41,324.52z"/>
		<path style="clip-path:url(#SVGID_2_);fill:#0067E2;" d="M105.42,157.27c1.94-3.65,23.18,7.3,24.44,9.92
			c1.26,2.62,2.6,32.29,7.14,50.82c0.98,4-38.64-8.24-35.82-13.08C105.74,197.08,110.4,167.15,105.42,157.27z"/>
		<path style="clip-path:url(#SVGID_2_);fill:#0067E2;" d="M166.65,130.52c-7.34-30.44-48.97-24.02-58.86-20.98
			c-9.89,3.03-10.14,17.02-11.09,27.32c-0.59,6.36,1.71,12.68,5.5,17.72c3.64,4.85,19.47,12.16,20.37,12.35
			c5.88,10.13,15.43,21.71,25.15,21.57c4.38-0.06,8.35-2.87,10.92-6.41c2.57-3.54,3.98-7.77,5.35-11.93
			C168.22,157.26,169.83,143.73,166.65,130.52z"/>
		<path style="clip-path:url(#SVGID_2_);fill-rule:evenodd;clip-rule:evenodd;fill:#01015B;" d="M94.59,148.21
			c-3.63-4.38-6.46-9.58-7.17-15.22c-0.84-6.68,1.37-13.49,5.13-19.08c6.71-9.97,24.02-22.83,38.02-23.11
			c14.95-0.3,40.62,14.58,38.18,33.08c-0.73,5.53-3.77,5.57-9.06,7.34c-6.97,2.33-16.33,3.94-22.12,8.48
			c-6.92,5.43-3.84,18.52-18,22.78c-4.58,1.38-9.28,9.46-12.32,15.75C103.62,174.11,98.09,152.45,94.59,148.21z"/>
		<path style="clip-path:url(#SVGID_2_);fill-rule:evenodd;clip-rule:evenodd;fill:#01015B;" d="M73.59,186.34
			c-1.33,5.7,0.68,11.65,0.36,17.5c-0.75,13.59-13.46,23.42-17.7,36.35c-1.63,4.98-1.91,10.62,0.41,15.32
			c2.31,4.7,7.61,8.1,12.77,7.17c5.69-1.03,9.37-6.58,11.51-11.95c2.13-5.37,3.54-11.29,7.53-15.48
			c6.15-6.46,16.81-7.06,22.73-13.73c5.71-6.43,9.97-24.3,9.97-37.48c0-25.42-8.15-48.61-20.35-44.95
			c-7.28,2.18-9.38,15.43-11.31,21.26C86.2,170.23,75.94,176.3,73.59,186.34z"/>
		<path style="clip-path:url(#SVGID_2_);fill:#0067E2;" d="M113.41,150.54c-0.74,0.69-1.12,1.68-1.36,2.67
			c-0.73,3.1-0.15,6.48,1.56,9.16s4.53,4.63,7.65,5.28c1.23,0.26,2.6,0.3,3.67-0.36c3.71-2.26,1.83-10.12,0.04-13.17
			C123.13,150.96,116.57,147.61,113.41,150.54z"/>
		<path style="clip-path:url(#SVGID_2_);fill:#01015B;" d="M340.8,344.69l-81.11,6.49c-2.98,0.24-5.28,2.73-5.28,5.72v0
			c0,3.17,2.57,5.73,5.73,5.73h81.11c3.17,0,5.73-2.57,5.73-5.73v-6.49C346.99,347.06,344.14,344.42,340.8,344.69z"/>
		
			<rect x="169.56" y="544.03" transform="matrix(0.0918 -0.9958 0.9958 0.0918 -240.105 834.0532)" style="clip-path:url(#SVGID_2_);fill:#04518A;stroke:#04518A;stroke-width:0.3287;stroke-miterlimit:10;" width="335.25" height="9.26"/>
		<path style="clip-path:url(#SVGID_2_);fill:#04518A;stroke:#04518A;stroke-width:0.3287;stroke-miterlimit:10;" d="M832.38,381.74
			H263.86c-1.85,0-3.36-1.5-3.36-3.36v-12.41c0-1.85,1.5-3.36,3.36-3.36h568.52c1.85,0,3.36,1.5,3.36,3.36v12.41
			C835.74,380.24,834.24,381.74,832.38,381.74z"/>
		<path style="clip-path:url(#SVGID_2_);fill:#F7F6F0;" d="M228.16,304.44c-6.35,0-10.77-5.15-9.87-11.5l23.95-169.41
			c0.9-6.35,6.77-11.5,13.13-11.5h233.96c6.35,0,10.77,5.15,9.87,11.5l-23.95,169.41c-0.9,6.35-6.77,11.5-13.12,11.5H228.16z"/>
		<path style="clip-path:url(#SVGID_2_);fill:#ABCDF5;" d="M308.75,213.27c0.92,12.95,3.46,26.22,10.74,36.97
			c1.57,2.32,3.85,4.72,6.63,4.43c1.63-0.17,3.04-1.29,3.92-2.67c0.88-1.38,1.29-3,1.59-4.61c2.36-12.65-1.5-25.55-5.35-37.84
			c-1.58-5.06-3.69-14.02-8.84-16.74c-5.37-2.84-8.07,5.94-8.56,9.52C308.39,205.94,308.5,209.63,308.75,213.27z"/>
		<path style="clip-path:url(#SVGID_2_);fill-rule:evenodd;clip-rule:evenodd;fill:#ABCDF5;" d="M308.14,194.87
			c0.25-2.14,0.82-4.67,2.81-5.6c2.1-0.99,4.35,0.45,5.98,1.92c9.89,8.87,13.64,21.4,15.43,34.84l-23.72,1.46
			C307.06,216.79,306.88,205.79,308.14,194.87z"/>
		<path style="clip-path:url(#SVGID_2_);fill:#ABCDF5;" d="M341.14,248.26c0.67,1.49-0.02,3.31-1.22,4.42s-9.54,5.04-17.73,1.42
			c-4.12-1.82-4.75-5.79-3.3-9.56C320.9,239.3,340.35,246.49,341.14,248.26z"/>
		<path style="clip-path:url(#SVGID_2_);fill-rule:evenodd;clip-rule:evenodd;fill:#75B8F9;" d="M264.5,241.96
			c-3.84-12.33-8.56-27.57-6.44-40.47c5.22-6.38,15.9-21.17,37.07-21.17c14.85,0,25.97,14.99,28.54,18.8
			c2.87,4.25,1.83,10.3,1.11,15.21c-1.52,10.47-6.06,51.6-2.12,80.14h-59.96C262.83,280.86,268.38,254.39,264.5,241.96z"/>
		<path style="clip-path:url(#SVGID_2_);fill:#ABCDF5;" d="M250.71,226.96c2.97-11.33,9.31-21.75,18-29.6
			c1.56-1.41,3.69-2.83,5.63-2c1.06,0.45,1.77,1.5,2.08,2.61s0.28,2.28,0.24,3.43c-0.53,13.4-2.97,26.65-5.4,39.84
			c-0.75,4.05-1.51,8.16-3.26,11.89c-1.75,3.73-4.63,7.11-8.48,8.57c-2.02,0.76-5.32,1.21-7.18-0.24c-1.5-1.17-1.74-4.14-2.12-5.83
			c-1.34-6-1.77-12.21-1.26-18.34C249.24,233.8,249.82,230.34,250.71,226.96z"/>
		<path style="clip-path:url(#SVGID_2_);fill-rule:evenodd;clip-rule:evenodd;fill:#75B8F9;" d="M277.03,194.87
			c-0.11-2.14-0.53-4.67-2.46-5.6c-2.04-0.99-5.82,0.87-7.54,2.34c-10.45,8.87-16.26,20.98-18.9,34.42l26.35,1.46
			C276.73,216.79,277.6,205.79,277.03,194.87z"/>
		<path style="clip-path:url(#SVGID_2_);fill:#ABCDF5;" d="M301.09,165.48c-1.45-6.4-6.29-7.9-9.11-6.36
			c-1.8,11.98-3.64,17.3-8.34,23.84c5.84,3.74,15.81,3.05,17.96,0C301.68,181.99,301.84,168.79,301.09,165.48z"/>
		<path style="clip-path:url(#SVGID_2_);fill:#ABCDF5;" d="M300.77,150.45c5.8-4.01,14.14-0.53,15.34,6.88
			c1.1,6.79-5.72,18.43-8.96,20.32c-5.66,3.3-13.27-4.63-13.54-8.43C293.23,163.65,295.9,153.82,300.77,150.45z"/>
		<path style="clip-path:url(#SVGID_2_);fill-rule:evenodd;clip-rule:evenodd;fill:#ABCDF5;" d="M296.65,151.88
			c-0.45-0.3-1.06-0.27-1.56-0.05c-0.5,0.22-0.91,0.59-1.3,0.96c-1.36,1.25-2.72,2.52-3.79,4.02s-1.84,3.28-1.84,5.13
			c0,1.2,0.31,2.44-0.1,3.56c-0.37,1.01-1.3,1.93-1.02,2.97c0.21,0.77,1.08,1.22,1.88,1.14c0.79-0.09,1.48-0.6,1.98-1.22
			c0.5-0.62,0.85-1.34,1.26-2.03c1.35-2.27,3.31-4.13,4.71-6.37c1.4-2.24,2.18-5.18,0.92-7.51L296.65,151.88z"/>
		<path style="clip-path:url(#SVGID_2_);fill-rule:evenodd;clip-rule:evenodd;fill:#ABCDF5;" d="M323.54,154.87
			c-1.25-0.51-2.5-1.01-3.75-1.52c0.58,0.71,1.17,1.45,1.39,2.34c0.23,0.89-0.02,1.96-0.81,2.43c-0.61,0.36-1.41,0.26-2.04-0.06
			c-0.63-0.33-1.14-0.85-1.63-1.36c0.26,0.48,0.52,0.98,0.52,1.52c0,0.54-0.35,1.13-0.89,1.19c-0.43,0.05-0.82-0.23-1.16-0.5
			c-1.7-1.34-3.4-2.68-5.1-4.02c0.1,0.53,0.2,1.08,0.11,1.61s-0.4,1.07-0.9,1.26c-0.89,0.35-1.8-0.44-2.33-1.23
			c-0.54-0.78-1.1-1.73-2.04-1.87c-1.06-0.16-1.92,0.79-2.57,1.64c-0.12,0.15-0.23,0.31-0.35,0.46c-1.19,1.57-2.38,3.13-3.57,4.7
			c-0.36,0.48-0.74,0.97-1.24,1.31c-0.5,0.34-1.15,0.51-1.71,0.3c-0.96-0.37-11.34-15.68,1.94-20.36c1.92-0.68,4.64,0.07,6.58,0.68
			c1.94,0.61,3.78,1.58,5.79,1.94c1.59,0.29,3.22,0.18,4.83,0.34C319.11,146.12,323.42,150.24,323.54,154.87z"/>
		<path style="clip-path:url(#SVGID_2_);fill:#ABCDF5;" d="M290.49,158.12c-0.6,1.5-0.59,3.23,0.04,4.72
			c1.79,4.26,5.96,0.44,6.17-2.64C296.94,156.52,292.12,154.04,290.49,158.12z"/>
		<path style="clip-path:url(#SVGID_2_);fill:#97BADD;" d="M293.65,265.81h35.97c2.13,0,4.34-1.73,4.93-3.85l15.83-56.53
			c0.6-2.13-0.65-3.85-2.78-3.85h-35.97c-2.13,0-4.34,1.73-4.93,3.85l-15.83,56.53C290.28,264.09,291.52,265.81,293.65,265.81z"/>
		<path style="clip-path:url(#SVGID_2_);fill:#97BADD;" d="M290.87,261.96l15.83-56.53c0.6-2.13,2.8-3.85,4.93-3.85h3.84
			c-2.13,0-4.34,1.73-4.93,3.85l-15.83,56.53c-0.6,2.13,0.65,3.85,2.78,3.85h-3.84C291.52,265.81,290.28,264.09,290.87,261.96z"/>
		<path style="clip-path:url(#SVGID_2_);fill:#ABCDF5;" d="M296.01,249.04c1.76,1.14,2.05,3.76,1.14,5.65
			c-0.91,1.89-31.5,9.31-38.87,9.19c-2.24-0.04-4.82-0.25-6.14-2.06c-1.18-1.62-0.84-3.87-0.21-5.78c1.06-3.19,2.92-6.79,5.53-9
			C259.27,245.51,294.89,248.31,296.01,249.04z"/>
		<path style="clip-path:url(#SVGID_2_);fill:#ABCDF5;" d="M307.05,243.63c0.74-1.03,1.48-2.44,0.73-3.45
			c-0.5-0.67-1.49-0.81-2.29-0.56c-0.8,0.25-1.45,0.81-2.1,1.34c-0.88,0.72-1.84,1.42-2.96,1.58s-2.43-0.42-2.69-1.53
			c-0.29-1.2,0.65-2.72-0.24-3.58c-0.47-0.45-1.25-0.42-1.81-0.11s-0.97,0.85-1.36,1.37c-2.05,2.77-4.15,5.64-4.98,8.99
			c-0.83,3.35-0.06,7.34,2.74,9.36c2.5,1.8,6.2,1.53,8.61-0.39c2.06-1.64,2.85-4,3.12-6.52
			C304.12,247.38,305.37,245.96,307.05,243.63z"/>
		<path style="clip-path:url(#SVGID_2_);fill:#ABCDF5;" d="M343.07,240.76c-0.13-0.39-0.35-6.56-0.66-6.82
			c-0.58-0.47-2.75,6.8-2.3,7.39c-1.57-0.17-2.04-0.22-3.61-0.38c-1.14-0.12-2.64-0.03-2.98,1.07c-0.28,0.87,0.42,1.72,0.91,2.49
			c0.86,1.38-0.41,9.45,0.27,10.14c2.5,2.53,7.96-1.86,8.87-4.33C344.83,246.88,344.2,244.05,343.07,240.76z"/>
		<path style="clip-path:url(#SVGID_2_);fill:#ABCDF5;" d="M323.81,227.08c0.41,0.75,0.83,1.29,1.83,1.55
			c1.41,0.37,2.76-0.69,2.76-1.55c0-0.86-0.88-1.24-1.87-1.55C324.68,224.94,323.05,225.68,323.81,227.08z"/>
		
			<line style="clip-path:url(#SVGID_2_);fill:none;stroke:#ABCDF5;stroke-width:2;stroke-linecap:round;stroke-miterlimit:10;" x1="365.64" y1="186.03" x2="355.44" y2="195.89"/>
		
			<line style="clip-path:url(#SVGID_2_);fill:none;stroke:#ABCDF5;stroke-width:2;stroke-linecap:round;stroke-miterlimit:10;" x1="349.35" y1="178.97" x2="346.34" y2="192.04"/>
		
			<line style="clip-path:url(#SVGID_2_);fill:none;stroke:#ABCDF5;stroke-width:2;stroke-linecap:round;stroke-miterlimit:10;" x1="369.29" y1="207.08" x2="359.33" y2="207.85"/>
		<g style="clip-path:url(#SVGID_2_);">
			<defs>
				<path id="SVGID_66_" d="M228.16,304.44c-6.35,0-10.77-5.15-9.87-11.5l23.95-169.41c0.9-6.35,6.77-11.5,13.13-11.5h233.96
					c6.35,0,10.77,5.15,9.87,11.5l-23.95,169.41c-0.9,6.35-6.77,11.5-13.12,11.5H228.16z"/>
			</defs>
			<clipPath id="SVGID_4_">
				<use xlink:href="#SVGID_66_"  style="overflow:visible;"/>
			</clipPath>
			<path style="clip-path:url(#SVGID_4_);fill-rule:evenodd;clip-rule:evenodd;fill:#97BADD;" d="M320.63,284.82
				c0-13.88-29.22-11.15-42.39-6.86c-2.84,0.92-6.98,1.82-8.92,4.47c-1.74,2.37-10.51,36.93-3.64,38.61
				c22.23,5.44,53.29,2.74,53.59-1.76c0.3-4.5,1.2-25.75,1.15-31.24C320.56,287,320.63,285.94,320.63,284.82z"/>
		</g>
		<path style="clip-path:url(#SVGID_2_);fill:#ABCDF5;" d="M405.63,212.19c0.39-2.69-1.19-4.86-3.52-4.86h-31.63
			c-2.33,0-4.54,2.18-4.92,4.86l-10.14,70.49h40.08L405.63,212.19z"/>
		<path style="clip-path:url(#SVGID_2_);fill:#ABCDF5;" d="M373.12,159.58l-5.28,36.71c-0.39,2.69,1.19,4.86,3.52,4.86h31.63
			c2.33,0,4.54-2.18,4.92-4.86l5.28-36.71H373.12z"/>
		<polygon style="clip-path:url(#SVGID_2_);fill:#F7F6F0;" points="386.25,234.91 367.65,234.91 370.73,213.5 389.33,213.5 		"/>
		<path style="clip-path:url(#SVGID_2_);fill:#F7F6F0;" d="M366.75,241.13l-0.53,3.68h30.04l0.53-3.68H366.75z M365.23,251.71h30.04
			l0.53-3.68h-30.04L365.23,251.71z M364.24,258.6h30.04l0.53-3.68h-30.04L364.24,258.6z M363.25,265.5h30.04l0.53-3.68h-30.04
			L363.25,265.5z M362.25,272.4h14.68l0.53-3.68h-14.68L362.25,272.4z"/>
		<path style="clip-path:url(#SVGID_2_);fill:#F7F6F0;" d="M378,162.92l-0.53,3.68h30.04l0.53-3.68H378z M376.48,173.5h30.04
			l0.53-3.68h-30.04L376.48,173.5z M375.49,180.39h13.95l0.53-3.68h-13.95L375.49,180.39z"/>
		<path style="clip-path:url(#SVGID_2_);fill:#ABCDF5;" d="M495.66,129.14H261.05c-2.35,0-3.19-1.02-2.85-3.37l0.23-2.55
			c0.34-2.35,1.95-2.6,4.3-2.6h234.62c2.35,0,3.98,1.91,3.65,4.26l0.23,2.14C500.88,129.37,498.02,129.14,495.66,129.14z"/>
	</g>
</g>
</svg>
