<?xml version="1.0" encoding="utf-8"?>
<!-- Generator: Adobe Illustrator 25.1.0, SVG Export Plug-In . SVG Version: 6.00 Build 0)  -->
<svg version="1.1" xmlns="http://www.w3.org/2000/svg" xmlns:xlink="http://www.w3.org/1999/xlink" x="0px" y="0px"
	 viewBox="0 0 413.12 413.12" style="enable-background:new 0 0 413.12 413.12;" xml:space="preserve">
<style type="text/css">
	.st0{fill:#FFFFFF;}
	.st1{fill:#01015B;}
	.st2{fill:#F7F6F0;}
	.st3{fill:#ABCDF5;}
	.st4{fill-rule:evenodd;clip-rule:evenodd;fill:#F7F6F0;}
	.st5{fill:#D38742;}
	.st6{fill:#0067E2;}
	.st7{fill:#FF2D2D;}
	.st8{fill-rule:evenodd;clip-rule:evenodd;fill:#000090;}
	.st9{fill-rule:evenodd;clip-rule:evenodd;fill:#01015B;}
	.st10{fill:#04518A;stroke:#04518A;stroke-width:0.3287;stroke-miterlimit:10;}
	.st11{fill-rule:evenodd;clip-rule:evenodd;fill:#66BCD5;}
	.st12{fill:#F4A086;}
	.st13{fill:#A0B5BF;}
	.st14{fill:#F7B690;}
	.st15{fill:#000090;}
	.st16{fill-rule:evenodd;clip-rule:evenodd;fill:#18898D;}
	.st17{fill-rule:evenodd;clip-rule:evenodd;fill:#0067E2;}
	.st18{clip-path:url(#SVGID_4_);}
	.st19{clip-path:url(#SVGID_6_);}
	.st20{fill:none;stroke:#000090;stroke-width:2.3368;stroke-linecap:round;stroke-miterlimit:10;}
	.st21{fill:none;stroke:#000090;stroke-width:2.3368;stroke-linecap:round;stroke-miterlimit:10;stroke-dasharray:4.0751,4.0751;}
	.st22{fill:none;stroke:#000090;stroke-width:4;stroke-linecap:round;stroke-miterlimit:10;}
	.st23{fill:none;stroke:#000090;stroke-width:3;stroke-linecap:round;stroke-miterlimit:10;}
	.st24{fill-rule:evenodd;clip-rule:evenodd;fill:#FF2D2D;}
	.st25{fill-rule:evenodd;clip-rule:evenodd;fill:#052E93;}
	.st26{fill-rule:evenodd;clip-rule:evenodd;fill:#ABCDF5;}
	.st27{fill-rule:evenodd;clip-rule:evenodd;fill:#75B8F9;}
	.st28{fill:#97BADD;}
	.st29{fill:none;stroke:#ABCDF5;stroke-width:2;stroke-linecap:round;stroke-miterlimit:10;}
	.st30{clip-path:url(#SVGID_8_);fill-rule:evenodd;clip-rule:evenodd;fill:#97BADD;}
	.st31{fill:url(#SVGID_9_);}
	.st32{fill-rule:evenodd;clip-rule:evenodd;fill:#CCCCCC;stroke:#CCCCCC;stroke-miterlimit:10;}
	.st33{fill:#052E93;}
	.st34{fill:#FF921E;}
	.st35{fill:#04518C;}
	.st36{fill-rule:evenodd;clip-rule:evenodd;fill:url(#SVGID_16_);}
	.st37{fill-rule:evenodd;clip-rule:evenodd;fill:#D38742;}
	.st38{fill-rule:evenodd;clip-rule:evenodd;fill:none;stroke:#FF2D2D;stroke-width:2.2054;stroke-miterlimit:10;}
	.st39{clip-path:url(#SVGID_18_);fill:none;stroke:#FFFFFF;stroke-miterlimit:10;}
	.st40{clip-path:url(#SVGID_20_);fill:none;stroke:#FFFFFF;stroke-miterlimit:10;}
	.st41{clip-path:url(#SVGID_22_);fill:none;stroke:#109E7B;stroke-miterlimit:10;}
	.st42{clip-path:url(#SVGID_24_);fill:#007054;stroke:#109E7B;stroke-miterlimit:10;}
	.st43{clip-path:url(#SVGID_24_);fill:#052E93;}
	.st44{clip-path:url(#SVGID_26_);fill:#052E93;}
	.st45{clip-path:url(#SVGID_26_);fill:none;stroke:#007054;stroke-miterlimit:10;}
	.st46{fill:url(#SVGID_29_);}
	.st47{fill:url(#SVGID_30_);}
	.st48{fill:url(#SVGID_31_);}
	.st49{fill-rule:evenodd;clip-rule:evenodd;fill:#2F29FF;}
	.st50{fill-rule:evenodd;clip-rule:evenodd;fill:#0D59A1;}
	.st51{fill-rule:evenodd;clip-rule:evenodd;fill:#003566;}
	.st52{clip-path:url(#SVGID_35_);}
	.st53{fill:#0D59A1;}
	.st54{fill:none;stroke:#2A577F;stroke-miterlimit:10;}
	.st55{fill-rule:evenodd;clip-rule:evenodd;fill:#12A7DB;}
	.st56{fill:#12A7DB;}
	.st57{fill:#003566;}
	.st58{fill-rule:evenodd;clip-rule:evenodd;fill:#FF4C4E;}
	.st59{fill:#FF4C4E;}
	.st60{fill-rule:evenodd;clip-rule:evenodd;fill:#363A5B;}
	.st61{fill-rule:evenodd;clip-rule:evenodd;fill:#FF4C4E;stroke:#FF4C4E;stroke-miterlimit:10;}
	.st62{fill-rule:evenodd;clip-rule:evenodd;fill:#04518A;}
	.st63{fill:#04518A;}
	.st64{fill:none;stroke:#3153A6;stroke-miterlimit:10;}
	.st65{fill-rule:evenodd;clip-rule:evenodd;fill:none;stroke:#01015B;stroke-width:5;stroke-miterlimit:10;}
	.st66{fill:#E10A17;}
	.st67{fill:#253574;}
	.st68{fill:#FFE80C;}
	.st69{fill-rule:evenodd;clip-rule:evenodd;fill:#444871;}
	.st70{fill-rule:evenodd;clip-rule:evenodd;fill:#0A3C5F;}
	.st71{fill:#A1B4B1;}
	.st72{fill-rule:evenodd;clip-rule:evenodd;fill:#FFED33;}
	.st73{fill:#FFED33;}
	.st74{fill:#ECF0EF;}
	.st75{fill-rule:evenodd;clip-rule:evenodd;fill:#222B56;}
	.st76{fill:#616D7D;}
	.st77{fill:#7590A2;}
	.st78{fill:#758798;}
	.st79{fill:#D0D9DF;}
	.st80{fill:#62C1C5;}
	.st81{clip-path:url(#SVGID_49_);}
	.st82{fill-rule:evenodd;clip-rule:evenodd;fill:#FF8D7E;}
	.st83{fill:#007CF7;}
	.st84{fill-rule:evenodd;clip-rule:evenodd;fill:#7D4E5B;}
	.st85{clip-path:url(#SVGID_51_);}
	.st86{fill-rule:evenodd;clip-rule:evenodd;fill:#FDCF41;}
	.st87{clip-path:url(#SVGID_53_);}
	.st88{clip-path:url(#SVGID_55_);fill-rule:evenodd;clip-rule:evenodd;fill:#97BADD;}
	.st89{clip-path:url(#SVGID_57_);fill-rule:evenodd;clip-rule:evenodd;fill:#01015B;}
	.st90{clip-path:url(#SVGID_57_);fill:#FF8D7E;}
	.st91{clip-path:url(#SVGID_57_);fill:#0067E2;}
	.st92{fill:#D5E6FA;}
	.st93{clip-path:url(#SVGID_59_);fill:#FF8D7E;}
	.st94{clip-path:url(#SVGID_59_);fill:#0067E2;}
	.st95{clip-path:url(#SVGID_59_);fill-rule:evenodd;clip-rule:evenodd;fill:#01015B;}
	.st96{fill:#E1000F;}
	.st97{clip-path:url(#SVGID_61_);fill:#F4A086;}
	.st98{clip-path:url(#SVGID_61_);fill-rule:evenodd;clip-rule:evenodd;fill:#01015B;}
	.st99{clip-path:url(#SVGID_61_);fill:#D38742;}
	.st100{clip-path:url(#SVGID_61_);fill-rule:evenodd;clip-rule:evenodd;fill:#000090;}
	.st101{clip-path:url(#SVGID_61_);fill-rule:evenodd;clip-rule:evenodd;fill:#0A3C5F;}
	.st102{clip-path:url(#SVGID_61_);fill-rule:evenodd;clip-rule:evenodd;fill:#222B56;}
	.st103{clip-path:url(#SVGID_61_);fill:#616D7D;}
	.st104{clip-path:url(#SVGID_61_);fill:#7590A2;}
	.st105{clip-path:url(#SVGID_61_);fill:#758798;}
	.st106{clip-path:url(#SVGID_61_);fill:#F7F6F0;}
	.st107{clip-path:url(#SVGID_61_);fill:#ABCDF5;}
	.st108{clip-path:url(#SVGID_61_);fill-rule:evenodd;clip-rule:evenodd;fill:#F7F6F0;}
	.st109{clip-path:url(#SVGID_61_);fill:#D0D9DF;}
	.st110{clip-path:url(#SVGID_61_);fill:#62C1C5;}
	.st111{clip-path:url(#SVGID_61_);fill:#F7B690;}
	.st112{clip-path:url(#SVGID_61_);fill-rule:evenodd;clip-rule:evenodd;fill:#FF8D7E;}
	.st113{clip-path:url(#SVGID_61_);fill:#007CF7;}
	.st114{clip-path:url(#SVGID_61_);fill-rule:evenodd;clip-rule:evenodd;fill:#7D4E5B;}
	.st115{clip-path:url(#SVGID_63_);fill-rule:evenodd;clip-rule:evenodd;fill:#01015B;}
	.st116{clip-path:url(#SVGID_63_);fill:#D38742;}
	.st117{clip-path:url(#SVGID_63_);fill-rule:evenodd;clip-rule:evenodd;fill:#FDCF41;}
	.st118{clip-path:url(#SVGID_63_);fill-rule:evenodd;clip-rule:evenodd;fill:#18898D;}
	.st119{clip-path:url(#SVGID_63_);fill-rule:evenodd;clip-rule:evenodd;fill:#444871;}
	.st120{clip-path:url(#SVGID_65_);fill:#01015B;}
	.st121{clip-path:url(#SVGID_65_);fill:#F7F6F0;}
	.st122{clip-path:url(#SVGID_65_);fill:#ABCDF5;}
	.st123{clip-path:url(#SVGID_65_);fill-rule:evenodd;clip-rule:evenodd;fill:#F7F6F0;}
	.st124{clip-path:url(#SVGID_65_);fill:#D38742;}
	.st125{clip-path:url(#SVGID_65_);fill:#0067E2;}
	.st126{clip-path:url(#SVGID_65_);fill:#FF2D2D;}
	.st127{clip-path:url(#SVGID_65_);fill-rule:evenodd;clip-rule:evenodd;fill:#000090;}
	.st128{clip-path:url(#SVGID_65_);fill-rule:evenodd;clip-rule:evenodd;fill:#01015B;}
	.st129{clip-path:url(#SVGID_65_);fill:#04518A;stroke:#04518A;stroke-width:0.3287;stroke-miterlimit:10;}
	.st130{clip-path:url(#SVGID_65_);fill-rule:evenodd;clip-rule:evenodd;fill:#ABCDF5;}
	.st131{clip-path:url(#SVGID_65_);fill-rule:evenodd;clip-rule:evenodd;fill:#75B8F9;}
	.st132{clip-path:url(#SVGID_65_);fill:#97BADD;}
	.st133{clip-path:url(#SVGID_65_);fill:none;stroke:#ABCDF5;stroke-width:2;stroke-linecap:round;stroke-miterlimit:10;}
	.st134{clip-path:url(#SVGID_65_);}
	.st135{clip-path:url(#SVGID_67_);fill-rule:evenodd;clip-rule:evenodd;fill:#97BADD;}
	.st136{clip-path:url(#SVGID_69_);fill:#D38742;}
	.st137{clip-path:url(#SVGID_69_);fill:#000090;}
	.st138{clip-path:url(#SVGID_69_);fill-rule:evenodd;clip-rule:evenodd;fill:#01015B;}
</style>
<g id="Calque_1">
</g>
<g id="Calque_2">
	<g>
		<defs>
			<polygon id="SVGID_68_" points="206.58,0 27.72,103.23 27.72,309.74 206.56,413.12 385.4,309.74 385.4,103.23 			"/>
		</defs>
		<use xlink:href="#SVGID_68_"  style="overflow:visible;fill:#ABCDF5;"/>
		<clipPath id="SVGID_2_">
			<use xlink:href="#SVGID_68_"  style="overflow:visible;"/>
		</clipPath>
		<path style="clip-path:url(#SVGID_2_);fill:#D38742;" d="M263.73,437.13c4.19,59.23,15.81,119.91,49.13,169.05
			c7.18,10.59,17.61,21.58,30.34,20.25c7.44-0.78,13.91-5.9,17.92-12.21c4.01-6.31,5.9-13.73,7.27-21.08
			c10.79-57.87-6.87-116.85-24.46-173.03c-7.25-23.14-16.88-64.1-40.43-76.58c-24.54-13-36.89,27.15-39.14,43.52
			C262.08,403.62,262.56,420.48,263.73,437.13z"/>
		<path style="clip-path:url(#SVGID_2_);fill:#000090;" d="M260.91,352.98c1.13-9.8,3.75-21.34,12.84-25.62
			c9.6-4.51,19.89,2.07,27.36,8.77c45.24,40.58,62.38,97.86,70.58,159.34l-108.48,6.69C255.98,453.22,255.16,402.94,260.91,352.98z"
			/>
		<path style="clip-path:url(#SVGID_2_);fill:#000090;" d="M76.24,742.24c19.52-56.38,2.85-117.08-14.87-173.92
			c-17.58-56.4-39.16-126.08-29.43-185.05c23.88-29.15,72.71-96.83,169.52-96.83c67.91,0,118.76,68.57,130.54,86
			c13.13,19.42,8.36,47.09,5.09,69.54c-7,48.04-23.49,94.58-33.16,142.25c-9.67,47.67-12.16,98.24,8.11,143.22"/>
		<path style="clip-path:url(#SVGID_2_);fill:#D38742;" d="M-9.76,546.93c1.31-15.92,3.99-31.73,8.04-47.19
			c13.58-51.81,42.58-99.47,82.34-135.35c7.16-6.46,16.86-12.93,25.73-9.15c4.84,2.06,8.07,6.87,9.5,11.94s1.29,10.42,1.08,15.67
			c-2.44,61.29-13.58,121.86-24.69,182.19c-3.41,18.53-6.9,37.31-14.91,54.37c-8.01,17.06-21.17,32.51-38.8,39.18"/>
		<path style="clip-path:url(#SVGID_2_);fill:#000090;" d="M-13.53,495.47l120.49,6.69c10.32-48.95,14.31-99.23,11.7-149.19
			c-0.51-9.8-2.4-21.34-11.23-25.62c-9.31-4.51-26.62,3.99-34.5,10.69C25.13,378.63-1.46,433.99-13.53,495.47"/>
		<path style="clip-path:url(#SVGID_2_);fill-rule:evenodd;clip-rule:evenodd;fill:#01015B;" d="M286.64,190.55
			c-3.23,5.4-7.33,3.94-7.12-2.29c0.66-19.94,1.36-23.06-7.65-40.94c-4.96-9.84-6.56-10.67-2.02-14.01
			C284.87,122.27,313.34,145.87,286.64,190.55z"/>
		<path style="clip-path:url(#SVGID_2_);fill:#D38742;" d="M228.67,218.56c-6.63-29.27-28.78-36.13-41.66-29.1
			c-8.25,54.79-16.66,79.14-38.14,109.02c26.7,17.12,72.28,13.93,82.13,0C231.4,294.09,232.09,233.7,228.67,218.56z"/>
		<path style="clip-path:url(#SVGID_2_);fill:#D38742;" d="M202.24,140.41c20.25-25.06,61.34-20.57,76.19,10.39
			c13.6,28.35-1.31,88.25-13.08,100.71c-20.57,21.8-64.19-3.17-70.27-19.51C186.18,208.06,185.21,161.49,202.24,140.41z"/>
		<path style="clip-path:url(#SVGID_2_);fill-rule:evenodd;clip-rule:evenodd;fill:#01015B;" d="M212.9,148.6
			c1.26,4.56-9.52,65.2-11.19,64.51c-5.95-2.46-13.52-19.48-24.76-18.84c-3.59,0.21-8.54,2.54-8.68-4.66
			c-0.88-45.56-2.68-43.24,5.44-47.41C191.6,132.99,210.66,140.46,212.9,148.6z"/>
		<path style="clip-path:url(#SVGID_2_);fill-rule:evenodd;clip-rule:evenodd;fill:#01015B;" d="M278.83,94.56
			c26.27,15.45,6.95,59.54-2.91,61.97c-4.5,1.11-8.63-2.44-12.46-5.05c-18.18-12.39-34.46-2.92-48.13-0.4
			c-24.22,4.46-83.94-8.68-52.27-30.92C200.23,94.07,261.19,84.19,278.83,94.56"/>
		<path style="clip-path:url(#SVGID_2_);fill:#D38742;" d="M167.05,187.31c-0.7,7.35,1.61,14.95,6.27,20.67
			c13.34,16.39,26.73-5.77,23.64-19.56C193.27,171.97,168.95,167.31,167.05,187.31z"/>
	</g>
</g>
</svg>
