<?xml version="1.0" encoding="utf-8"?>
<!-- Generator: Adobe Illustrator 25.1.0, SVG Export Plug-In . SVG Version: 6.00 Build 0)  -->
<svg version="1.1" xmlns="http://www.w3.org/2000/svg" xmlns:xlink="http://www.w3.org/1999/xlink" x="0px" y="0px"
	 viewBox="0 0 413.12 413.12" style="enable-background:new 0 0 413.12 413.12;" xml:space="preserve">
<style type="text/css">
	.st0{fill:#FFFFFF;}
	.st1{fill:#01015B;}
	.st2{fill:#F7F6F0;}
	.st3{fill:#ABCDF5;}
	.st4{fill-rule:evenodd;clip-rule:evenodd;fill:#F7F6F0;}
	.st5{fill:#D38742;}
	.st6{fill:#0067E2;}
	.st7{fill:#FF2D2D;}
	.st8{fill-rule:evenodd;clip-rule:evenodd;fill:#000090;}
	.st9{fill-rule:evenodd;clip-rule:evenodd;fill:#01015B;}
	.st10{fill:#04518A;stroke:#04518A;stroke-width:0.3287;stroke-miterlimit:10;}
	.st11{fill-rule:evenodd;clip-rule:evenodd;fill:#66BCD5;}
	.st12{fill:#F4A086;}
	.st13{fill:#A0B5BF;}
	.st14{fill:#F7B690;}
	.st15{fill:#000090;}
	.st16{fill-rule:evenodd;clip-rule:evenodd;fill:#18898D;}
	.st17{fill-rule:evenodd;clip-rule:evenodd;fill:#0067E2;}
	.st18{clip-path:url(#SVGID_4_);}
	.st19{clip-path:url(#SVGID_6_);}
	.st20{fill:none;stroke:#000090;stroke-width:2.3368;stroke-linecap:round;stroke-miterlimit:10;}
	.st21{fill:none;stroke:#000090;stroke-width:2.3368;stroke-linecap:round;stroke-miterlimit:10;stroke-dasharray:4.0751,4.0751;}
	.st22{fill:none;stroke:#000090;stroke-width:4;stroke-linecap:round;stroke-miterlimit:10;}
	.st23{fill:none;stroke:#000090;stroke-width:3;stroke-linecap:round;stroke-miterlimit:10;}
	.st24{fill-rule:evenodd;clip-rule:evenodd;fill:#FF2D2D;}
	.st25{fill-rule:evenodd;clip-rule:evenodd;fill:#052E93;}
	.st26{fill-rule:evenodd;clip-rule:evenodd;fill:#ABCDF5;}
	.st27{fill-rule:evenodd;clip-rule:evenodd;fill:#75B8F9;}
	.st28{fill:#97BADD;}
	.st29{fill:none;stroke:#ABCDF5;stroke-width:2;stroke-linecap:round;stroke-miterlimit:10;}
	.st30{clip-path:url(#SVGID_8_);fill-rule:evenodd;clip-rule:evenodd;fill:#97BADD;}
	.st31{fill:url(#SVGID_9_);}
	.st32{fill-rule:evenodd;clip-rule:evenodd;fill:#CCCCCC;stroke:#CCCCCC;stroke-miterlimit:10;}
	.st33{fill:#052E93;}
	.st34{fill:#FF921E;}
	.st35{fill:#04518C;}
	.st36{fill-rule:evenodd;clip-rule:evenodd;fill:url(#SVGID_16_);}
	.st37{fill-rule:evenodd;clip-rule:evenodd;fill:#D38742;}
	.st38{fill-rule:evenodd;clip-rule:evenodd;fill:none;stroke:#FF2D2D;stroke-width:2.2054;stroke-miterlimit:10;}
	.st39{clip-path:url(#SVGID_18_);fill:none;stroke:#FFFFFF;stroke-miterlimit:10;}
	.st40{clip-path:url(#SVGID_20_);fill:none;stroke:#FFFFFF;stroke-miterlimit:10;}
	.st41{clip-path:url(#SVGID_22_);fill:none;stroke:#109E7B;stroke-miterlimit:10;}
	.st42{clip-path:url(#SVGID_24_);fill:#007054;stroke:#109E7B;stroke-miterlimit:10;}
	.st43{clip-path:url(#SVGID_24_);fill:#052E93;}
	.st44{clip-path:url(#SVGID_26_);fill:#052E93;}
	.st45{clip-path:url(#SVGID_26_);fill:none;stroke:#007054;stroke-miterlimit:10;}
	.st46{fill:url(#SVGID_29_);}
	.st47{fill:url(#SVGID_30_);}
	.st48{fill:url(#SVGID_31_);}
	.st49{fill-rule:evenodd;clip-rule:evenodd;fill:#2F29FF;}
	.st50{fill-rule:evenodd;clip-rule:evenodd;fill:#0D59A1;}
	.st51{fill-rule:evenodd;clip-rule:evenodd;fill:#003566;}
	.st52{clip-path:url(#SVGID_35_);}
	.st53{fill:#0D59A1;}
	.st54{fill:none;stroke:#2A577F;stroke-miterlimit:10;}
	.st55{fill-rule:evenodd;clip-rule:evenodd;fill:#12A7DB;}
	.st56{fill:#12A7DB;}
	.st57{fill:#003566;}
	.st58{fill-rule:evenodd;clip-rule:evenodd;fill:#FF4C4E;}
	.st59{fill:#FF4C4E;}
	.st60{fill-rule:evenodd;clip-rule:evenodd;fill:#363A5B;}
	.st61{fill-rule:evenodd;clip-rule:evenodd;fill:#FF4C4E;stroke:#FF4C4E;stroke-miterlimit:10;}
	.st62{fill-rule:evenodd;clip-rule:evenodd;fill:#04518A;}
	.st63{fill:#04518A;}
	.st64{fill:none;stroke:#3153A6;stroke-miterlimit:10;}
	.st65{fill-rule:evenodd;clip-rule:evenodd;fill:none;stroke:#01015B;stroke-width:5;stroke-miterlimit:10;}
	.st66{fill:#E10A17;}
	.st67{fill:#253574;}
	.st68{fill:#FFE80C;}
	.st69{fill-rule:evenodd;clip-rule:evenodd;fill:#444871;}
	.st70{fill-rule:evenodd;clip-rule:evenodd;fill:#0A3C5F;}
	.st71{fill:#A1B4B1;}
	.st72{fill-rule:evenodd;clip-rule:evenodd;fill:#FFED33;}
	.st73{fill:#FFED33;}
	.st74{fill:#ECF0EF;}
	.st75{fill-rule:evenodd;clip-rule:evenodd;fill:#222B56;}
	.st76{fill:#616D7D;}
	.st77{fill:#7590A2;}
	.st78{fill:#758798;}
	.st79{fill:#D0D9DF;}
	.st80{fill:#62C1C5;}
	.st81{clip-path:url(#SVGID_49_);}
	.st82{fill-rule:evenodd;clip-rule:evenodd;fill:#FF8D7E;}
	.st83{fill:#007CF7;}
	.st84{fill-rule:evenodd;clip-rule:evenodd;fill:#7D4E5B;}
	.st85{clip-path:url(#SVGID_51_);}
	.st86{fill-rule:evenodd;clip-rule:evenodd;fill:#FDCF41;}
	.st87{clip-path:url(#SVGID_53_);}
	.st88{clip-path:url(#SVGID_55_);fill-rule:evenodd;clip-rule:evenodd;fill:#97BADD;}
	.st89{clip-path:url(#SVGID_57_);fill-rule:evenodd;clip-rule:evenodd;fill:#01015B;}
	.st90{clip-path:url(#SVGID_57_);fill:#FF8D7E;}
	.st91{clip-path:url(#SVGID_57_);fill:#0067E2;}
	.st92{fill:#D5E6FA;}
	.st93{clip-path:url(#SVGID_59_);fill:#FF8D7E;}
	.st94{clip-path:url(#SVGID_59_);fill:#0067E2;}
	.st95{clip-path:url(#SVGID_59_);fill-rule:evenodd;clip-rule:evenodd;fill:#01015B;}
	.st96{fill:#E1000F;}
	.st97{clip-path:url(#SVGID_61_);fill:#F4A086;}
	.st98{clip-path:url(#SVGID_61_);fill-rule:evenodd;clip-rule:evenodd;fill:#01015B;}
	.st99{clip-path:url(#SVGID_61_);fill:#D38742;}
	.st100{clip-path:url(#SVGID_61_);fill-rule:evenodd;clip-rule:evenodd;fill:#000090;}
	.st101{clip-path:url(#SVGID_61_);fill-rule:evenodd;clip-rule:evenodd;fill:#0A3C5F;}
	.st102{clip-path:url(#SVGID_61_);fill-rule:evenodd;clip-rule:evenodd;fill:#222B56;}
	.st103{clip-path:url(#SVGID_61_);fill:#616D7D;}
	.st104{clip-path:url(#SVGID_61_);fill:#7590A2;}
	.st105{clip-path:url(#SVGID_61_);fill:#758798;}
	.st106{clip-path:url(#SVGID_61_);fill:#F7F6F0;}
	.st107{clip-path:url(#SVGID_61_);fill:#ABCDF5;}
	.st108{clip-path:url(#SVGID_61_);fill-rule:evenodd;clip-rule:evenodd;fill:#F7F6F0;}
	.st109{clip-path:url(#SVGID_61_);fill:#D0D9DF;}
	.st110{clip-path:url(#SVGID_61_);fill:#62C1C5;}
	.st111{clip-path:url(#SVGID_61_);fill:#F7B690;}
	.st112{clip-path:url(#SVGID_61_);fill-rule:evenodd;clip-rule:evenodd;fill:#FF8D7E;}
	.st113{clip-path:url(#SVGID_61_);fill:#007CF7;}
	.st114{clip-path:url(#SVGID_61_);fill-rule:evenodd;clip-rule:evenodd;fill:#7D4E5B;}
	.st115{clip-path:url(#SVGID_63_);fill-rule:evenodd;clip-rule:evenodd;fill:#01015B;}
	.st116{clip-path:url(#SVGID_63_);fill:#D38742;}
	.st117{clip-path:url(#SVGID_63_);fill-rule:evenodd;clip-rule:evenodd;fill:#FDCF41;}
	.st118{clip-path:url(#SVGID_63_);fill-rule:evenodd;clip-rule:evenodd;fill:#18898D;}
	.st119{clip-path:url(#SVGID_63_);fill-rule:evenodd;clip-rule:evenodd;fill:#444871;}
	.st120{clip-path:url(#SVGID_65_);fill:#01015B;}
	.st121{clip-path:url(#SVGID_65_);fill:#F7F6F0;}
	.st122{clip-path:url(#SVGID_65_);fill:#ABCDF5;}
	.st123{clip-path:url(#SVGID_65_);fill-rule:evenodd;clip-rule:evenodd;fill:#F7F6F0;}
	.st124{clip-path:url(#SVGID_65_);fill:#D38742;}
	.st125{clip-path:url(#SVGID_65_);fill:#0067E2;}
	.st126{clip-path:url(#SVGID_65_);fill:#FF2D2D;}
	.st127{clip-path:url(#SVGID_65_);fill-rule:evenodd;clip-rule:evenodd;fill:#000090;}
	.st128{clip-path:url(#SVGID_65_);fill-rule:evenodd;clip-rule:evenodd;fill:#01015B;}
	.st129{clip-path:url(#SVGID_65_);fill:#04518A;stroke:#04518A;stroke-width:0.3287;stroke-miterlimit:10;}
	.st130{clip-path:url(#SVGID_65_);fill-rule:evenodd;clip-rule:evenodd;fill:#ABCDF5;}
	.st131{clip-path:url(#SVGID_65_);fill-rule:evenodd;clip-rule:evenodd;fill:#75B8F9;}
	.st132{clip-path:url(#SVGID_65_);fill:#97BADD;}
	.st133{clip-path:url(#SVGID_65_);fill:none;stroke:#ABCDF5;stroke-width:2;stroke-linecap:round;stroke-miterlimit:10;}
	.st134{clip-path:url(#SVGID_65_);}
	.st135{clip-path:url(#SVGID_67_);fill-rule:evenodd;clip-rule:evenodd;fill:#97BADD;}
	.st136{clip-path:url(#SVGID_69_);fill:#D38742;}
	.st137{clip-path:url(#SVGID_69_);fill:#000090;}
	.st138{clip-path:url(#SVGID_69_);fill-rule:evenodd;clip-rule:evenodd;fill:#01015B;}
</style>
<g id="Calque_1">
</g>
<g id="Calque_2">
	<g>
		<defs>
			<polygon id="SVGID_58_" points="206.58,0 27.72,103.23 27.72,309.74 206.56,413.12 385.4,309.74 385.4,103.23 			"/>
		</defs>
		<use xlink:href="#SVGID_58_"  style="overflow:visible;fill:#ABCDF5;"/>
		<clipPath id="SVGID_2_">
			<use xlink:href="#SVGID_58_"  style="overflow:visible;"/>
		</clipPath>
		<path style="clip-path:url(#SVGID_2_);fill:#FF8D7E;" d="M156.69,406.63c4.54-29.04,6.72-61.77-6.09-89.15
			c-4.01-8.56-4.74-9.91-12.16-4.49c-5.84,4.27-10.79,11.38-15.1,17.11c-8.81,11.73-15.91,24.71-21.71,38.16
			c-6.07,14.06-10.75,28.65-14.88,43.41l64.53,23.69C153.36,425.84,155.18,416.26,156.69,406.63z"/>
		<path style="clip-path:url(#SVGID_2_);fill:#0067E2;" d="M86.74,411.67c-2.74,9.77-5.25,19.62-7.73,29.46
			C65.32,495.2,51.64,549.28,37.96,603.35c-1.29,5.11-2.56,10.67-0.47,15.5c3.32,7.68,13.98,9.74,21.65,6.4
			c7.67-3.35,12.94-10.44,17.67-17.34c35.61-52.01,60.99-110.97,74.47-172.54L86.74,411.67z"/>
		<path style="clip-path:url(#SVGID_2_);fill:#FF8D7E;" d="M278.36,535.38c-15.26-65.53,49.13-130.09,34.18-195.69
			c-10.2-44.75-59.45-74.97-104.92-68.71c-45.47,6.26-83.21,44.56-94.2,89.13c-5.21,21.14-5.07,43.57,0.36,64.66
			c3.79,14.72,10.08,28.68,14.47,43.24c9,29.81,9.72,61.28,6.23,92.04c-3.04,26.82-3.88,49.87-17.79,80.52
			c34.96,27.39,157.83,16.02,216.5-29.23C319.9,599.06,282.77,554.29,278.36,535.38z"/>
		<path style="clip-path:url(#SVGID_2_);fill:#FF8D7E;" d="M351.58,360.4c-9.47-21.03-24.16-40.46-44.47-51.4
			c-4.99-2.69-11.24-4.81-16.13-1.94c-4.6,2.69-6,8.6-6.65,13.89c-4.26,34.73,4.9,69.4,15.13,103.03l66.32-18.99
			C362.24,389.73,358,374.66,351.58,360.4z"/>
		<path style="clip-path:url(#SVGID_2_);fill:#0067E2;" d="M370.51,426.81c-1.51-7.27-3.05-14.56-4.73-21.81l-66.32,18.99
			c0.98,3.22,1.96,6.43,2.95,9.62c10.38,33.62,20.76,67.24,31.14,100.85c3.89,12.61,5.5,28.16,18.15,35.11
			c9.07,4.98,21.47,4.88,29.55-2c7.01-5.97,10.36-15.37,10.94-24.56c0.58-9.19-1.31-18.34-3.19-27.35
			C382.84,486.04,376.68,456.42,370.51,426.81z"/>
		<path style="clip-path:url(#SVGID_2_);fill-rule:evenodd;clip-rule:evenodd;fill:#01015B;" d="M143.03,87.38
			c5.13-14.29,18.42-25.33,33.41-27.74c14.99-2.42,31.07,3.89,40.43,15.84c4.76,6.08,8.03,13.62,14.4,17.99
			c8.38,5.76,19.54,4.43,29.48,6.55c15.09,3.22,27.88,15.47,31.74,30.41c7.81,30.27-19.08,61.24-12.09,91.71
			c3.18,13.87,12.98,25.2,23.08,35.23c10.1,10.03,21.05,19.67,27.68,32.27c6.63,12.6,7.91,29.27-1.13,40.26
			c-6.46,7.85-30.9,20.82-40.75,23.38c-10.97,2.86-48.96,3.79-55.87-5.2c-15.3-19.89,8.18-53.19,5.26-94.88
			c-1.69-24.12-57.69-24.62-65.4-47.54c-4.23-12.57-0.49-26.39-2.28-39.53c-1.74-12.81-8.69-21.64-17.24-30.73
			c-6.38-6.79-10.91-17.38-12.47-26.43C140.03,101.79,140.56,94.27,143.03,87.38z"/>
		<path style="clip-path:url(#SVGID_2_);fill:#0067E2;" d="M183.21,220.47c3.42,16.82,3.02,34.4-1.17,51.04
			c-1.3,5.15-2.8,11.14,0.43,15.36c3.08,4.03,8.92,4.36,13.99,4.33c8.5-0.05,17.17-0.13,25.21-2.85
			c8.05-2.73,15.51-8.61,17.88-16.77c1.95-6.74,0.24-13.93-1.48-20.74c-3.3-13.05-6.59-26.1-9.89-39.15
			c-0.97-3.82-2.03-7.84-4.78-10.67c-4.61-4.75-12.65-4.48-18.4-1.2s-9.74,8.86-13.55,14.28L183.21,220.47z"/>
		<path style="clip-path:url(#SVGID_2_);fill:#0067E2;" d="M158.02,215.72c-4.56-8.34-5.99-17.98-7.31-27.39
			c-1.81-12.95-3.56-26.09-1.81-39.05c1.75-12.96,7.43-25.92,17.93-33.71c12.67-9.41,30.22-9.76,45.35-5.27
			c13.14,3.89,25.94,11.85,31.53,24.36c3.04,6.8,3.72,14.38,4.36,21.8c0.83,9.64-2.51,19.33-5.11,28.66
			c-2.88,10.32-5.64,19.37-13.93,26.14s-17.95,11.67-27.69,16.14c-5.62,2.58-11.42,5.07-17.58,5.69
			C171.47,234.33,163.51,225.76,158.02,215.72z"/>
		<path style="clip-path:url(#SVGID_2_);fill-rule:evenodd;clip-rule:evenodd;fill:#01015B;" d="M208,133.6
			c5.97,12.19,4.44,27.89,13.47,38.02c7.34,8.23,20.98,9.87,30.07,3.61c6.92-4.77,10.78-13.28,10.93-21.68
			c0.15-8.41-3.09-16.64-8.02-23.45c-4.92-6.81-11.45-12.32-18.36-17.11c-10.64-7.37-22.52-13.26-35.28-15.47
			c-8.09-1.4-16.51-1.22-24.46,0.86c-6,1.58-17.6,5.32-18.95,12.54c-1.34,7.14,4.95,8.2,9.93,6.62c7.57-2.41,14.41-3.28,22.15-0.5
			C197.47,119.91,204.26,125.98,208,133.6z"/>
		<path style="clip-path:url(#SVGID_2_);fill:#0067E2;" d="M234.3,163.2c2.37-0.95,4.85-1.72,7.4-1.72c2.55,0,5.19,0.87,6.89,2.77
			c2.29,2.56,2.46,6.41,1.71,9.76c-1.88,8.45-9.02,14.77-17.94,13.35c-6.76-1.08-9.59-7.03-8.59-13.52
			C224.62,168.29,229.47,165.14,234.3,163.2z"/>
	</g>
	<g>
		<defs>
			<polygon id="SVGID_60_" points="743.62,0 564.76,103.23 564.76,309.74 743.6,413.12 922.44,309.74 922.44,103.23 			"/>
		</defs>
		<use xlink:href="#SVGID_60_"  style="overflow:visible;fill:#ABCDF5;"/>
		<clipPath id="SVGID_4_">
			<use xlink:href="#SVGID_60_"  style="overflow:visible;"/>
		</clipPath>
		<path style="clip-path:url(#SVGID_4_);fill:#62C1C5;" d="M650.97,412.63H-58.06c-1.71,0-3.1-1.39-3.1-3.1v-11.71
			c0-1.71,1.39-3.1,3.1-3.1h709.03c1.71,0,3.1,1.39,3.1,3.1v11.71C654.06,411.24,652.68,412.63,650.97,412.63z"/>
	</g>
</g>
</svg>
