<svg width="21" height="20" viewBox="0 0 21 20" fill="none" xmlns="http://www.w3.org/2000/svg">
<path d="M17.8199 20C7.995 20 0 12.0092 0 2.18424C0 1.02126 1.02126 0 2.18841 0H5.31472C6.48187 0 7.50313 1.02126 7.50313 2.18841C7.50313 3.24719 7.77824 4.0767 8.12422 5.1313C8.4035 6.00667 8.27011 6.80283 7.75323 7.31555L6.08587 8.99958C7.42393 11.1255 9.99583 12.847 11.7424 13.8433L12.5844 12.3843C12.6136 12.3385 12.6469 12.2926 12.6845 12.2551C13.1972 11.7424 14.0142 11.6048 14.8812 11.8799C15.9441 12.2301 16.7695 12.501 17.8158 12.501C18.9829 12.501 20.0042 13.5223 20.0042 14.6895V17.8324C20.0042 18.9871 18.9871 20 17.8241 20H17.8199ZM2.18841 1.25052C1.71738 1.25052 1.25052 1.71321 1.25052 2.18424C1.25052 11.3214 8.68279 18.7536 17.8199 18.7536C18.2993 18.7536 18.7495 18.3076 18.7495 17.8366V14.6936C18.7495 14.2226 18.2868 13.7557 17.8116 13.7557C16.5652 13.7557 15.6107 13.4431 14.5019 13.0805C14.2143 12.9887 13.8308 12.9471 13.614 13.1013L12.5135 15.0063C12.3426 15.298 11.9717 15.4064 11.6757 15.2439C9.32055 13.9725 6.20675 11.8883 4.75198 9.208C4.61859 8.96624 4.66444 8.66611 4.85619 8.4702L6.86119 6.44435C7.06128 6.24427 7.02793 5.83576 6.92789 5.5273C6.56107 4.41851 6.24427 3.45561 6.24427 2.19675C6.24427 1.72572 5.78158 1.25886 5.30638 1.25886H2.18841V1.25052Z" fill="white"/>
</svg>
