<svg width="22" height="20" viewBox="0 0 22 20" fill="none" xmlns="http://www.w3.org/2000/svg">
<path d="M18.1097 20H3.01944C2.8119 20 2.64209 19.8302 2.64209 19.6227V7.21915C2.64209 7.01161 2.8119 6.8418 3.01944 6.8418C3.22698 6.8418 3.39679 7.01161 3.39679 7.21915V19.2453H17.7324V7.21915C17.7324 7.01161 17.9022 6.8418 18.1097 6.8418C18.3173 6.8418 18.4871 7.01161 18.4871 7.21915V19.6227C18.4871 19.8302 18.3173 20 18.1097 20Z" fill="white"/>
<path d="M0.567153 9.70171C0.408665 9.70171 0.250178 9.63379 0.136972 9.50549C-0.0667977 9.26775 -0.0403831 8.90927 0.197348 8.7055L10.1972 0.135847C10.4085 -0.0452822 10.7217 -0.0452822 10.933 0.135847L20.929 8.7055C21.1668 8.90927 21.1932 9.26775 20.9894 9.50549C20.7856 9.74322 20.4272 9.76963 20.1932 9.56586L10.5632 1.31318L0.936957 9.56586C0.831299 9.65643 0.699226 9.70171 0.567153 9.70171Z" fill="white"/>
<path d="M12.4535 9.62672H8.67618C8.46864 9.62672 8.29883 9.45691 8.29883 9.24937V5.47208C8.29883 5.26453 8.46864 5.09473 8.67618 5.09473H12.4535C12.661 5.09473 12.8308 5.26453 12.8308 5.47208V9.24937C12.8308 9.45691 12.661 9.62672 12.4535 9.62672ZM9.05353 8.87201H12.0761V5.84943H9.05353V8.87201Z" fill="white"/>
<path d="M12.4538 19.9998C12.2463 19.9998 12.0765 19.83 12.0765 19.6224V14.5433C12.0765 13.7093 11.3972 13.0301 10.5633 13.0301C9.72935 13.0301 9.05011 13.7093 9.05011 14.5433V19.6224C9.05011 19.83 8.88031 19.9998 8.67276 19.9998C8.46522 19.9998 8.29541 19.83 8.29541 19.6224V14.5433C8.29541 13.2942 9.31049 12.2754 10.5633 12.2754C11.8161 12.2754 12.8312 13.2905 12.8312 14.5433V19.6224C12.8312 19.83 12.6614 19.9998 12.4538 19.9998Z" fill="white"/>
<path d="M3.01944 7.41214C2.8119 7.41214 2.64209 7.24233 2.64209 7.03479V1.32169C2.64209 1.11414 2.8119 0.944336 3.01944 0.944336H6.03825C6.2458 0.944336 6.41561 1.11414 6.41561 1.32169V4.49899C6.41561 4.70653 6.2458 4.87634 6.03825 4.87634C5.83071 4.87634 5.6609 4.70653 5.6609 4.49899V1.69904H3.39679V7.03479C3.39679 7.24233 3.22698 7.41214 3.01944 7.41214Z" fill="white"/>
<path d="M18.1097 20H3.01944C2.8119 20 2.64209 19.8302 2.64209 19.6227V7.21915C2.64209 7.01161 2.8119 6.8418 3.01944 6.8418C3.22698 6.8418 3.39679 7.01161 3.39679 7.21915V19.2453H17.7324V7.21915C17.7324 7.01161 17.9022 6.8418 18.1097 6.8418C18.3173 6.8418 18.4871 7.01161 18.4871 7.21915V19.6227C18.4871 19.8302 18.3173 20 18.1097 20Z" fill="white"/>
<path d="M0.567153 9.70171C0.408665 9.70171 0.250178 9.63379 0.136972 9.50549C-0.0667977 9.26775 -0.0403831 8.90927 0.197348 8.7055L10.1972 0.135847C10.4085 -0.0452822 10.7217 -0.0452822 10.933 0.135847L20.929 8.7055C21.1668 8.90927 21.1932 9.26775 20.9894 9.50549C20.7856 9.74322 20.4272 9.76963 20.1932 9.56586L10.5632 1.31318L0.936957 9.56586C0.831299 9.65643 0.699226 9.70171 0.567153 9.70171Z" fill="white"/>
<path d="M12.4535 9.62672H8.67618C8.46864 9.62672 8.29883 9.45691 8.29883 9.24937V5.47208C8.29883 5.26453 8.46864 5.09473 8.67618 5.09473H12.4535C12.661 5.09473 12.8308 5.26453 12.8308 5.47208V9.24937C12.8308 9.45691 12.661 9.62672 12.4535 9.62672ZM9.05353 8.87201H12.0761V5.84943H9.05353V8.87201Z" fill="white"/>
<path d="M12.4538 19.9998C12.2463 19.9998 12.0765 19.83 12.0765 19.6224V14.5433C12.0765 13.7093 11.3972 13.0301 10.5633 13.0301C9.72935 13.0301 9.05011 13.7093 9.05011 14.5433V19.6224C9.05011 19.83 8.88031 19.9998 8.67276 19.9998C8.46522 19.9998 8.29541 19.83 8.29541 19.6224V14.5433C8.29541 13.2942 9.31049 12.2754 10.5633 12.2754C11.8161 12.2754 12.8312 13.2905 12.8312 14.5433V19.6224C12.8312 19.83 12.6614 19.9998 12.4538 19.9998Z" fill="white"/>
<path d="M3.01944 7.41214C2.8119 7.41214 2.64209 7.24233 2.64209 7.03479V1.32169C2.64209 1.11414 2.8119 0.944336 3.01944 0.944336H6.03825C6.2458 0.944336 6.41561 1.11414 6.41561 1.32169V4.49899C6.41561 4.70653 6.2458 4.87634 6.03825 4.87634C5.83071 4.87634 5.6609 4.70653 5.6609 4.49899V1.69904H3.39679V7.03479C3.39679 7.24233 3.22698 7.41214 3.01944 7.41214Z" fill="white"/>
</svg>
