<?xml version="1.0" encoding="UTF-8"?>
<svg width="108px" height="75px" viewBox="0 0 108 75" version="1.1" xmlns="http://www.w3.org/2000/svg" xmlns:xlink="http://www.w3.org/1999/xlink">
    <title>cle-precieuse</title>
    <g id="cle-precieuse" stroke="none" stroke-width="1" fill="none" fill-rule="evenodd">
        <g id="cle-precieuse-copy" transform="translate(54.000000, 37.500000) scale(-1, 1) translate(-54.000000, -37.500000) " fill="#FDCF41" fill-rule="nonzero">
            <path d="M26.9885281,41.4088262 L19.8545248,54.7042928 L13.2363499,51.1288771 L20.3703532,37.8334104 L13.7521782,34.2579947 L6.61817495,47.5436925 L0,43.9682768 L7.13400329,30.6728101 L0.515828342,27.0973944 L4.07796368,20.4545455 L37.4608167,38.4976953 C44.2249808,29.7643028 56.2934175,27.2048522 65.9870973,32.4605179 C76.955749,38.4000064 81.0434453,52.1350734 75.1260183,63.1446185 C69.8996066,72.815825 58.50272,77.3192858 48.1180249,73.8220212 C36.2929035,69.8363119 29.9180438,56.9999833 33.8889488,45.1405442 L26.9885281,41.4088262 Z M68.4981107,59.5594339 C72.4398178,52.2229934 69.7049544,43.0597695 62.3860315,39.1131357 C55.0768412,35.1567331 45.9476528,37.9017927 42.0156783,45.2480021 C38.0837038,52.5942114 40.8088346,61.7378976 48.1277575,65.6943002 C55.4369478,69.640934 64.5564036,66.8958744 68.4981107,59.5594339 Z" id="Shape"></path>
            <path d="M48.2031772,23.3766234 C47.0467605,23.3766234 46.0337014,22.5455726 45.8521153,21.3706387 L42.8416092,2.77229513 C42.6313516,1.47318125 43.5201677,0.24093352 44.8199418,0.0307827451 C46.1197158,-0.17936803 47.3525897,0.70899661 47.5628473,2.00811049 L50.5637962,20.6064541 C50.7740538,21.905568 49.8852377,23.1378157 48.5854636,23.3479665 C48.4516634,23.3670711 48.3274203,23.3766234 48.2031772,23.3766234 Z" id="Path"></path>
            <path d="M76.4299521,22.4025974 C75.9319948,22.4025974 75.4240783,22.2581729 74.9858759,21.9500674 C73.8704514,21.1798035 73.6115136,19.677789 74.4082454,18.5897913 L85.9708144,2.95343482 C86.7675462,1.87506541 88.3311322,1.62472966 89.4465566,2.39499352 C90.561981,3.16525739 90.8209188,4.66727192 90.0241871,5.75526963 L78.4516588,21.3916261 C77.9636607,22.0463504 77.1968064,22.4025974 76.4299521,22.4025974 Z" id="Path"></path>
            <path d="M85.1770948,51.6233766 C83.9871233,51.6233766 82.9359818,50.8187447 82.7376532,49.6904104 C82.5095753,48.432595 83.4218868,47.2395202 84.7705212,47.0268014 L105.109118,43.8637657 C106.447836,43.651047 107.736972,44.501922 107.965049,45.7597374 C108.193127,47.0175528 107.280816,48.2106276 105.932181,48.4233464 L85.5935849,51.5863821 C85.4448384,51.614128 85.3060084,51.6233766 85.1770948,51.6233766 Z" id="Path"></path>
        </g>
    </g>
</svg>