<?xml version="1.0" encoding="UTF-8"?>
<svg width="48px" height="26px" viewBox="0 0 48 26" version="1.1" xmlns="http://www.w3.org/2000/svg" xmlns:xlink="http://www.w3.org/1999/xlink">
    <title>clé</title>
    <defs>
        <polygon id="path-1" points="0 0 48 0 48 26.1595538 0 26.1595538"></polygon>
    </defs>
    <g id="clé" stroke="none" stroke-width="1" fill="none" fill-rule="evenodd">
        <g id="Group-3" transform="translate(0.000000, -0.000000)">
            <mask id="mask-2" fill="white">
                <use xlink:href="#path-1"></use>
            </mask>
            <g id="Clip-2"></g>
            <path d="M13.0905917,21.828853 C17.9102719,21.828853 21.8179438,17.9211811 21.8179438,13.1015009 C21.8179438,8.28182074 17.9102719,4.37414886 13.0905917,4.37414886 C8.27091155,4.37414886 4.36323967,8.28182074 4.36323967,13.1015009 C4.36323967,17.9211811 8.27091155,21.828853 13.0905917,21.828853 L13.0905917,21.828853 Z M26.0005273,15.2833389 C24.7721525,22.4114037 18.0019091,27.1939927 10.8738443,25.9677997 C4.60542369,24.8877899 0.0192001745,19.4615587 -0.000441849369,13.1015009 C-0.00698188165,5.87307157 5.84907136,0.00610914645 13.0796825,-0.000443318811 C19.4768316,-0.00698188165 24.9423358,4.60978736 26.0005273,10.9196629 L48,10.9196629 L48,15.2833389 L43.636324,15.2833389 L43.636324,24.010691 L39.2726479,24.010691 L39.2726479,15.2833389 L34.9089719,15.2833389 L34.9089719,24.010691 L30.5452959,24.010691 L30.5452959,15.2833389 L26.0005273,15.2833389 Z" id="Fill-1" fill="#FDCF41" mask="url(#mask-2)"></path>
        </g>
    </g>
</svg>
