<svg width="100" height="143" viewBox="0 0 100 143" fill="none" xmlns="http://www.w3.org/2000/svg">
<g clip-path="url(#clip0_2076_29340)">
<path d="M54.5071 56.0141C53.1879 57.1037 45.2268 66.1173 39.9673 71.2588C37.5007 73.6673 39.5217 74.1469 42.483 72.3132C45.4443 70.483 49.6126 67.6125 52.7318 63.7863C58.9701 56.1375 57.9597 55.6861 56.0194 53.3939C54.0791 51.1017 54.5106 56.0105 54.5106 56.0105L54.5071 56.0141Z" fill="#AC886B"/>
<path d="M48.2505 33.0844C51.1768 37.4114 40.6929 38.9136 45.3875 47.2042C48.5768 52.8359 54.1766 41.964 54.1766 41.964L55.1766 37.9897L55.3906 35.0522L54.7415 31.4517L54.0082 22.6356C56.5871 22.8684 60.2852 21.7505 60.2852 21.7505C52.2223 12.3244 43.0823 25.4427 48.2505 33.0844Z" fill="#FFEF9F"/>
<path d="M84.6913 91.2219C83.3475 92.2622 80.3406 89.2472 81.9756 87.7132C83.6071 86.1792 90.1192 83.0407 91.263 82.956C92.4068 82.8714 93.8559 84.1303 84.6913 91.2219Z" fill="#AC886B"/>
<path d="M52.7422 127.371C55.072 127.924 55.1492 132.759 54.9562 135.548C54.8158 137.565 53.8089 138.045 53.2615 138.158C53.0615 138.2 52.8685 138.08 52.7984 137.886C52.1528 136.046 48.9529 126.468 52.7422 127.367V127.371Z" fill="#AC886B"/>
<path d="M61.184 68.0039C72.1029 71.0789 72.0854 84.5887 70.7766 100.93C70.5591 102.873 62.2962 106.52 61.1805 103.469C58.5104 96.173 58.5736 95.5523 55.5526 89.0637C53.065 83.7212 51.2054 79.2638 49.8861 75.8996C48.0827 71.2905 51.0861 68.5293 51.0861 68.5293L61.184 68.0074V68.0039Z" fill="#7AB1E8"/>
<path d="M61.78 98.7965C68.278 93.9018 72.4323 92.2126 84.9932 85.3467C84.9932 85.3467 86.937 85.4948 87.3511 90.4459C84.3091 92.4313 76.7269 99.7274 68.05 105.465C61.5906 109.739 59.552 100.472 61.78 98.7965Z" fill="#7AB1E8"/>
<path d="M63.5733 68.275C63.5733 68.275 50.7668 72.8946 47.5914 72.14C43.8232 81.9928 45.5389 95.5378 45.7178 102.46C47.7809 111.107 54.9631 106.039 54.2123 106.075C54.1105 106.078 55.0438 102.45 55.0614 102.347C56.3982 95.097 56.5982 88.7988 58.0156 83.5726C59.8191 76.9183 66.4855 79.3162 63.5733 68.2715V68.275Z" fill="#7AB1E8"/>
<path d="M45.7217 102.46C46.2971 112.863 50.332 125.949 50.3285 130.647C50.3285 130.745 53.353 130.897 54.9985 129.303C55.0863 129.218 55.1249 129.088 55.1143 128.964C54.0758 117.504 55.8441 110.758 54.7424 103.782C54.7249 103.68 50.1531 100.94 45.7252 102.456L45.7217 102.46Z" fill="#7AB1E8"/>
<path fill-rule="evenodd" clip-rule="evenodd" d="M90.113 81.0615C89.478 81.4636 88.9096 81.9643 88.4184 82.5356C87.9201 83.1139 87.4079 83.6535 87.3447 84.4187C87.7763 84.3129 88.6008 84.4892 88.878 84.8383C89.0955 85.1169 89.3552 87.06 89.6464 87.2575C89.8569 87.3985 92.9831 85.6177 94.1796 86.0444C95.376 86.4711 96.4181 87.2363 97.5268 87.8605C97.9128 88.0791 98.3233 88.2801 98.7619 88.326C99.2355 88.3718 99.7618 88.199 99.9934 87.7688V87.7512L95.5023 81.5517C95.1866 81.5588 94.8673 81.6011 94.555 81.6469C93.4322 81.8021 92.313 81.9608 91.1902 82.1159C92.0182 81.1321 92.9936 80.2752 94.0708 79.5769L93.5691 78.8857L90.106 81.0651L90.113 81.0615Z" fill="#4B7E79"/>
<path fill-rule="evenodd" clip-rule="evenodd" d="M56.324 139.262C56.4047 138.098 56.2889 136.917 55.8643 135.834C55.8222 135.725 55.7731 135.616 55.7135 135.513C55.5731 135.263 55.2258 135.224 55.0328 135.436C54.7767 135.718 54.4118 135.965 54.1241 135.975C53.7872 135.99 52.1417 135.09 51.8224 135.207C51.5943 135.291 51.2014 138.733 50.1944 139.421C49.1874 140.112 48.0085 140.489 46.9033 141.004C46.5173 141.184 46.1314 141.385 45.8472 141.706C45.5419 142.048 45.3805 142.556 45.5805 142.982L45.5945 142.99L52.6855 142.997C52.8259 142.997 52.9627 142.926 53.0364 142.806C53.1557 142.612 53.2679 142.408 53.3732 142.207C53.703 141.59 54.0293 140.972 54.3591 140.359C54.5451 140.006 55.0784 140.094 55.1345 140.489C55.2328 141.177 55.2749 141.875 55.2574 142.57C55.2503 142.806 55.4363 143.004 55.6714 143.004C55.8889 143.004 56.0714 142.834 56.0854 142.616C56.1626 141.501 56.2433 140.383 56.3205 139.269L56.324 139.262Z" fill="#4B7E79"/>
<path d="M45.8017 47.8287C45.3631 52.3531 50.5489 64.3676 50.5805 64.2795C50.6121 64.1913 50.7279 55.5234 50.7279 55.5234L49.9068 48.6998L45.8052 47.8252L45.8017 47.8287Z" fill="#AC886B"/>
<path d="M56.156 41.5734C56.6437 41.4782 60.9102 39.112 60.9102 39.112C57.998 38.1281 54.4332 38.3326 50.5772 39.246C50.1386 39.3483 48.4756 40.519 47.9668 40.6777L56.1595 41.5734H56.156Z" fill="#AC886B"/>
<path d="M47.7564 49.0274C46.781 49.0344 45.2687 48.6254 45.2863 47.8989C45.988 41.6289 47.7564 39.7141 50.5808 39.2451C50.5808 39.2451 50.9738 40.5886 54.4544 40.5886C58.9735 40.5886 59.6893 38.2788 61.7103 39.5096C63.7312 40.7403 62.4997 43.311 63.7383 49.6304C64.9768 55.9497 56.9701 60.8056 66.6364 71.0957C63.6927 71.9879 51.1878 75.1758 47.4055 73.0917C48.7353 65.457 49.2791 66.2469 49.2826 60.2731C49.2826 56.0979 47.1248 52.6949 47.7564 49.0309V49.0274Z" fill="#F99090"/>
<path d="M61.7524 48.6438C61.7524 49.1092 58.9104 61.6104 61.1875 63.3454C64.5769 65.9303 68.1557 51.1828 67.0961 49.2926C66.0365 47.406 61.7524 48.6438 61.7524 48.6438Z" fill="#AC886B"/>
<path d="M59.7769 39.1114C68.924 38.7482 68.0222 51.0765 68.0222 51.0765C68.0222 51.0765 63.861 51.736 60.9137 51.468C57.9664 51.2035 58.5805 44.0519 58.5805 44.0519L59.7769 39.1114Z" fill="#F99090"/>
<path d="M62.4122 59.3777C61.0263 58.8064 50.5424 58.1011 44.4093 56.2356C41.5357 55.3611 42.1638 57.9107 44.8058 59.5046C47.4443 61.1021 51.2371 62.629 55.465 63.3343C63.9244 64.7449 63.8472 63.6481 64.791 60.8023C65.7313 57.9565 62.4157 59.3741 62.4157 59.3741L62.4122 59.3777Z" fill="#AC886B"/>
<path d="M57.0013 32.0973C54.2716 35.6449 50.6998 35.2288 49.9069 30.9407C49.2262 27.2555 49.756 22.0752 54.0365 22.6712C58.4399 23.2813 57.6224 26.4092 58.1101 26.1518C58.5978 25.8943 59.9521 28.846 57.0013 32.0973Z" fill="#AC886B"/>
<path d="M58.3316 30.1299L58.7176 38.357L52.8301 39.1505L53.9107 32.8629L58.3316 30.1299Z" fill="#AC886B"/>
<path d="M54.6644 18.3371C59.5309 17.8187 65.3377 19.0247 64.1763 30.8771C63.8746 33.9556 64.7938 35.2816 66.4324 36.5511C72.1374 40.9697 68.1551 46.8623 65.2429 48.2905C56.5976 52.5187 50.5312 45.2472 55.2433 37.0871C56.0187 35.747 56.3099 33.7017 57.8958 30.7889C57.766 26.3315 54.2363 27.6081 53.2258 23.394C51.9346 23.059 50.061 24.6 49.7101 27.1355C48.3979 21.8635 50.3382 18.7991 54.6644 18.3371Z" fill="#FFEF9F"/>
<path d="M56.7627 29.4032C56.6645 28.1125 58.3942 26.0072 59.0117 27.2697C59.6293 28.5357 58.5942 30.9795 57.3592 30.8737C56.1241 30.7679 56.7627 29.4032 56.7627 29.4032Z" fill="#AC886B"/>
<path d="M41.0269 55.4492C39.4621 55.481 37.8937 55.5127 36.3288 55.5444C36.0446 55.7102 36.2271 56.1016 36.5393 56.2109C36.8516 56.3202 37.213 56.2673 37.5463 56.3097C37.8797 56.352 38.2375 56.5847 38.1463 56.8598C38.0551 57.1348 37.6235 57.1983 37.2797 57.2089C35.7008 57.2477 35.2762 57.3464 33.6973 57.3852C33.2237 58.3479 33.964 59.7056 34.9745 60.2804C35.985 60.8552 37.0095 60.6436 38.2551 60.6225C39.9848 60.5907 41.3146 59.3459 42.9426 58.8205C43.8829 58.5172 44.2478 59.0885 44.711 58.3444C45.8934 56.4472 42.6865 55.421 41.0269 55.4527V55.4492Z" fill="#AC886B"/>
<path d="M40.311 75.3453C39.1777 76.4314 38.0409 77.5175 36.9076 78.6037C36.5919 78.6883 36.4445 78.2792 36.5883 77.9795C36.7322 77.6833 37.0269 77.4646 37.2339 77.1966C37.4409 76.9286 37.5322 76.5125 37.276 76.382C37.0199 76.2515 36.6655 76.5125 36.4164 76.7488C35.2691 77.8384 34.7919 78.4979 33.6446 79.5875C32.6341 79.2384 33.206 77.7221 33.5183 76.5971C33.8341 75.4722 34.5463 74.7175 35.4445 73.8536C36.6971 72.6511 37.7848 72.376 39.3111 71.5967C40.1917 71.1488 40.0514 70.4823 40.9005 70.6833C43.0688 71.1947 41.511 74.1921 40.3075 75.3453H40.311Z" fill="#AC886B"/>
<path d="M34.6725 26.3632H31.3252C31.0656 25.5063 30.7323 24.6916 30.3182 23.9158L32.6831 21.539C33.5637 20.6539 33.5637 19.2257 32.6831 18.3406L30.3463 15.992C29.4691 15.1104 28.0446 15.1104 27.164 15.992L24.7956 18.3688C24.0237 17.9527 23.2132 17.6176 22.3606 17.3567V13.989C22.3606 12.7406 21.3536 11.7285 20.1116 11.7285H16.8064C15.5644 11.7285 14.5574 12.7406 14.5574 13.989V17.3532C13.7048 17.6141 12.8943 17.9491 12.1224 18.3652L9.75755 15.9884C8.87688 15.1068 7.45588 15.1068 6.57521 15.9884L4.23845 18.337C3.36129 19.2186 3.36129 20.6504 4.23845 21.5355L6.60328 23.9123C6.18926 24.6881 5.85594 25.5027 5.59629 26.3596H2.24904C1.00698 26.3596 0 27.3717 0 28.6201V31.942C0 33.1903 1.00698 34.2024 2.24904 34.2024H5.59629C5.85594 35.0593 6.18926 35.8739 6.60328 36.6497L4.23845 39.0266C3.36129 39.9117 3.36129 41.3399 4.23845 42.225L6.57521 44.5736C7.45237 45.4552 8.87688 45.4552 9.75755 44.5736L12.1224 42.1968C12.8943 42.6129 13.7048 42.9479 14.5574 43.2089V46.5731C14.5574 47.8215 15.5644 48.8335 16.8064 48.8335H20.1116C21.3536 48.8335 22.3606 47.8215 22.3606 46.5731V43.2089C23.2132 42.9479 24.0237 42.6129 24.7956 42.1968L27.164 44.5772C28.0411 45.4588 29.4656 45.4588 30.3463 44.5772L32.6831 42.2286C33.5637 41.3434 33.5637 39.9152 32.6831 39.0301L30.3182 36.6533C30.7323 35.8775 31.0656 35.0629 31.3252 34.2059H34.6725C35.9145 34.2059 36.9215 33.1939 36.9215 31.9455V28.6236C36.9215 27.3753 35.9145 26.3632 34.6725 26.3632ZM18.459 36.6991C14.9328 36.6991 12.0768 33.8251 12.0768 30.2846C12.0768 26.744 14.9363 23.87 18.459 23.87C21.9817 23.87 24.8412 26.744 24.8412 30.2846C24.8412 33.8251 21.9817 36.6991 18.459 36.6991Z" fill="#B4C8FB"/>
<path d="M47.0614 5.91029H45.7106C45.6053 5.5647 45.472 5.23321 45.3036 4.92289L46.2579 3.9637C46.6123 3.60753 46.6123 3.0292 46.2579 2.67303L45.3141 1.72442C44.9597 1.36825 44.3843 1.36825 44.03 1.72442L43.0756 2.68361C42.7633 2.51434 42.437 2.38034 42.0932 2.27454V0.913344C42.0932 0.409065 41.6862 0 41.1844 0H39.8512C39.3494 0 38.9424 0.409065 38.9424 0.913344V2.27102C38.5986 2.37681 38.2688 2.51081 37.96 2.68008L37.0056 1.72089C36.6513 1.36473 36.0759 1.36473 35.7215 1.72089L34.7777 2.6695C34.4233 3.02567 34.4233 3.604 34.7777 3.96017L35.732 4.91936C35.5636 5.23321 35.4303 5.56117 35.325 5.90676H33.9742C33.4724 5.90676 33.0654 6.31582 33.0654 6.8201V8.16014C33.0654 8.66442 33.4724 9.07349 33.9742 9.07349H35.325C35.4303 9.41908 35.5636 9.74703 35.732 10.0609L34.7777 11.0201C34.4233 11.3762 34.4233 11.9546 34.7777 12.3107L35.7215 13.2594C36.0759 13.6155 36.6513 13.6155 37.0056 13.2594L37.96 12.3002C38.2723 12.4694 38.5986 12.6034 38.9424 12.7092V14.0669C38.9424 14.5712 39.3494 14.9802 39.8512 14.9802H41.1844C41.6862 14.9802 42.0932 14.5712 42.0932 14.0669V12.7092C42.437 12.6034 42.7668 12.4694 43.0756 12.3002L44.03 13.2594C44.3843 13.6155 44.9597 13.6155 45.3141 13.2594L46.2579 12.3107C46.6123 11.9546 46.6123 11.3762 46.2579 11.0201L45.3036 10.0609C45.472 9.74703 45.6053 9.41908 45.7106 9.07349H47.0614C47.5632 9.07349 47.9702 8.66442 47.9702 8.16014V6.8201C47.9702 6.31582 47.5632 5.90676 47.0614 5.90676M40.5143 10.082C39.0898 10.082 37.9354 8.92185 37.9354 7.49012C37.9354 6.05839 39.0898 4.8982 40.5143 4.8982C41.9388 4.8982 43.0931 6.05839 43.0931 7.49012C43.0931 8.92185 41.9388 10.082 40.5143 10.082Z" fill="#B4C8FB"/>
</g>
<defs>
<clipPath id="clip0_2076_29340">
<rect width="100" height="143" fill="white"/>
</clipPath>
</defs>
</svg>
