<?xml version="1.0" encoding="UTF-8"?>
<svg width="435px" height="220px" viewBox="0 0 435 220" version="1.1" xmlns="http://www.w3.org/2000/svg" xmlns:xlink="http://www.w3.org/1999/xlink">
    <title>feuillets-page-mot-de-passe</title>
    <defs>
        <polygon id="path-1" points="0 9.29164786e-13 22 9.29164786e-13 22 25.5406872 0 25.5406872"></polygon>
        <polygon id="path-3" points="0 -4.54747351e-13 14 -4.54747351e-13 14 17 0 17"></polygon>
        <polygon id="path-5" points="0 0 32.5806808 0 32.5806808 36.1575152 0 36.1575152"></polygon>
        <polygon id="path-7" points="0 -2.74556669e-14 39.4965138 -2.74556669e-14 39.4965138 39.8865694 0 39.8865694"></polygon>
    </defs>
    <g id="feuillets-page-mot-de-passe" stroke="none" stroke-width="1" fill="none" fill-rule="evenodd">
        <g id="Group" transform="translate(0.189412, -0.274192)">
            <path d="M258.538181,93.8844199 C257.126859,93.5784863 255.724945,94.4392808 255.34671,95.8454351 L248.071813,122.902505 C247.543037,124.873021 248.768065,126.883441 250.74768,127.295787 L273.791757,132.091913 C275.991538,132.549863 278.183793,131.274823 278.895099,129.121887 L286.617857,105.747422 C287.223785,103.917521 286.252795,101.935603 284.440657,101.318036 C279.1943,99.5261391 268.464484,96.035456 258.538181,93.8844199 Z" id="Fill-1" fill="#C9E0FF" transform="translate(267.373329, 113.003763) rotate(-2.000000) translate(-267.373329, -113.003763) "></path>
            <g id="Group-5" transform="translate(101.878673, 207.200131) rotate(-2.000000) translate(-101.878673, -207.200131) translate(90.878673, 194.429787)">
                <mask id="mask-2" fill="white">
                    <use xlink:href="#path-1"></use>
                </mask>
                <g id="Clip-4"></g>
                <path d="M13.4590928,1.09241763 L21.2698667,12.0092278 C23.3773305,15.2224941 20.5213612,16.8400418 17.7926595,19.5315889 L12.4021253,24.8470124 C11.3322154,25.9057312 9.57204101,25.7289143 8.72862411,24.478098 L0.419565533,12.1904106 C-0.255599403,11.1862649 -0.102446974,9.83285114 0.781954381,9.00988824 L9.82010481,0.640552062 C10.9115855,-0.372325348 12.6394038,-0.156215728 13.4590928,1.09241763" id="Fill-3" fill="#03299C" mask="url(#mask-2)"></path>
            </g>
            <g id="Group-5-Copy" transform="translate(251.810588, 153.774192) rotate(86.000000) translate(-251.810588, -153.774192) translate(244.810588, 145.274192)">
                <mask id="mask-4" fill="white">
                    <use xlink:href="#path-3"></use>
                </mask>
                <g id="Clip-4"></g>
                <path d="M8.56487725,0.727118248 L13.5353697,7.99339781 C14.876483,10.1321628 13.059048,11.2088101 11.3226015,13.0003163 L7.89226159,16.5382869 C7.21140981,17.242975 6.09129883,17.1252848 5.55457898,16.2927357 L0.266996248,8.11399393 C-0.162654166,7.44562988 -0.0651935286,6.54479139 0.497607333,5.99702346 L6.24915761,0.426354427 C6.94373623,-0.247821481 8.04325694,-0.103977914 8.56487725,0.727118248" id="Fill-3" fill="#03299C" mask="url(#mask-4)"></path>
            </g>
            <polygon id="Fill-7" fill="#F92385" transform="translate(73.121900, 185.610618) rotate(-2.000000) translate(-73.121900, -185.610618) " points="65.6218999 185.967526 76.893586 177.948412 80.6218999 187.624972 71.277303 193.272824"></polygon>
            <path d="M219.840906,148.788567 C221.778231,151.804452 221.364161,155.815327 218.853507,158.340478 L210.180511,167.055824 C208.574817,168.667129 205.951746,168.396646 204.687051,166.491674 L194.177905,150.651035 C193.164276,149.122807 193.394731,147.059409 194.719382,145.809391 L206.052922,135.111792 C207.68672,133.568107 210.270445,133.896551 211.490173,135.799591 L219.840906,148.788567 Z" id="Fill-8" fill="#57FFE1" transform="translate(207.302227, 151.123036) rotate(-2.000000) translate(-207.302227, -151.123036) "></path>
            <path d="M369.233029,155.473265 C370.55267,157.439966 370.291572,160.041762 368.610356,161.669446 L362.802597,167.287221 C361.727355,168.325833 359.957768,168.138185 359.096588,166.895737 L351.940447,156.564301 C351.25022,155.567575 351.396297,154.229159 352.283697,153.423788 L359.876165,146.531446 C360.970659,145.53686 362.713981,145.761953 363.544838,147.00294 L369.233029,155.473265 Z" id="Fill-8-Copy" fill="#57FFE1" transform="translate(360.788814, 156.934609) rotate(248.000000) translate(-360.788814, -156.934609) "></path>
            <path d="M179.26838,176.926192 L170.436126,186.292628 C170.436126,186.292628 162.167832,176.464439 161.585136,174.064869 C160.998692,171.667231 170.415516,164.700364 170.415516,164.700364 L179.26838,176.926192 Z" id="Fill-10" fill="#C9E0FF" transform="translate(170.413610, 175.496496) rotate(-2.000000) translate(-170.413610, -175.496496) "></path>
            <path d="M311.159325,78.6432649 C311.159325,78.6432649 300.985558,81.4736754 297.245808,84.7059462 L299.979423,97.3471583 C300.380378,99.1941702 302.203412,100.318606 303.968364,99.7988927 C307.910465,98.6358162 314.314505,96.386944 316.819537,93.4502723 L311.159325,78.6432649 Z" id="Fill-12" fill="#D48743" transform="translate(307.032673, 89.284636) rotate(-2.000000) translate(-307.032673, -89.284636) "></path>
            <path d="M136.826724,195.52688 C137.714821,195.787702 138.642264,195.291173 138.942043,194.392783 L145.267391,175.518872 C145.595275,174.547066 145.057545,173.492182 144.094504,173.217835 L127.19256,168.376191 C126.345683,168.134689 125.461333,168.580985 125.125955,169.417551 L118.261004,186.649244 C117.903142,187.557294 118.315339,188.594789 119.192194,188.973465 C122.382972,190.352928 129.884955,193.482802 136.826724,195.52688 Z" id="Fill-14" fill="#00D0FF" transform="translate(131.747961, 181.953533) rotate(-2.000000) translate(-131.747961, -181.953533) "></path>
            <path d="M36.1714205,199.410372 C36.1208327,198.467546 36.8684079,197.68701 37.7864827,197.72565 C41.5374739,197.889872 50.315393,198.376741 52.1065756,199.385256 C53.8977583,200.391839 53.3450398,208.49087 53.0209032,211.98976 C52.9365902,212.874625 52.1702788,213.517988 51.3140335,213.425251 L38.1405973,212.00908 C37.3817803,211.926003 36.793463,211.288436 36.7522434,210.504036 L36.1714205,199.410372 Z" id="Fill-16" fill="#D48743" transform="translate(44.765997, 205.579208) rotate(-2.000000) translate(-44.765997, -205.579208) "></path>
            <path d="M263.803881,200.981155 C265.490141,201.858292 267.543631,201.321191 268.637826,199.736934 L275.677024,189.553252 C276.836796,187.882054 276.557626,185.575221 275.041866,184.245991 L263.022581,173.712613 C261.489958,172.369859 259.207887,172.493508 257.821406,173.994688 L248.509505,184.074041 C247.029344,185.677618 247.113657,188.22209 248.696867,189.715542 C252.009431,192.835755 257.806417,197.864805 263.803881,200.981155 Z" id="Fill-18" fill="#E0000F" transform="translate(261.922051, 187.091294) rotate(-2.000000) translate(-261.922051, -187.091294) "></path>
            <path d="M161.910347,213.981308 C160.623169,213.565923 159.918687,212.145888 160.343999,210.830182 L162.985806,202.640346 C163.377393,201.425105 164.598995,200.716053 165.811228,201.003924 L171.696275,202.406571 C172.990948,202.713763 173.794732,204.042993 173.502446,205.376087 C173.050904,207.424029 172.357663,210.609932 171.591352,214.269179 C171.289699,215.69501 169.871367,216.550896 168.518612,216.114259 L161.910347,213.981308 Z" id="Fill-20" fill="#F92385" transform="translate(166.891209, 208.584330) rotate(-2.000000) translate(-166.891209, -208.584330) "></path>
            <path d="M323.500548,124.233402 C322.215244,123.818017 321.510762,122.397982 321.936074,121.082276 L324.577881,112.890508 C324.969468,111.675267 326.192943,110.968147 327.403303,111.256018 L333.28835,112.658665 C334.581149,112.965856 335.38868,114.293155 335.094521,115.628181 C334.642978,117.676123 333.947865,120.862025 333.183427,124.521273 C332.881774,125.947104 331.461568,126.801057 330.110687,126.366353 L323.500548,124.233402 Z" id="Fill-22" fill="#F92385" transform="translate(328.483519, 118.836017) rotate(-2.000000) translate(-328.483519, -118.836017) "></path>
            <path d="M220.142055,185.861258 C221.832062,184.649881 224.17409,185.29904 225.049071,187.221401 L230.999695,200.324366 C231.72666,201.924079 231.155205,203.830984 229.680665,204.729373 L219.152783,211.14175 C217.72883,212.009228 215.902049,211.665328 214.867809,210.334166 L206.768141,199.905117 C205.565276,198.355637 205.885666,196.079716 207.465129,194.947552 L220.142055,185.861258 Z" id="Fill-24" fill="#FFED33" transform="translate(218.676411, 198.433102) rotate(-2.000000) translate(-218.676411, -198.433102) "></path>
            <path d="M382.634979,89.2827701 C382.634979,89.2827701 370.771205,85.739444 361.672896,87.78159 L356.143838,110.133139 L379.271828,110.633532 L382.634979,89.2827701 Z" id="Fill-26" fill="#00D0FF" transform="translate(369.389408, 98.890483) rotate(-2.000000) translate(-369.389408, -98.890483) "></path>
            <path d="M328.133964,186.923329 C329.469856,186.57943 330.311112,185.219287 330.052552,183.824368 L325.029372,157.023375 C324.665889,155.072034 322.779152,153.843269 320.916772,154.339799 L299.192125,160.124269 C297.119899,160.676827 295.772764,162.740225 296.057555,164.929205 L299.162147,188.708517 C299.405717,190.570985 301.061999,191.880895 302.870045,191.63746 C308.108692,190.932272 318.745244,189.338355 328.133964,186.923329 Z" id="Fill-28" fill="#FFED33" transform="translate(313.059415, 172.948003) rotate(-2.000000) translate(-313.059415, -172.948003) "></path>
            <path d="M395.636398,142.291783 C396.016743,143.655789 397.363878,144.474966 398.705391,144.158115 L424.507039,138.049065 C426.384409,137.6047 427.508582,135.620515 426.963358,133.71361 L420.598664,111.530147 C419.99161,109.412653 417.943742,108.096946 415.83217,108.467894 L392.895289,112.49809 C391.098486,112.813009 389.886252,114.567284 390.186032,116.420092 C391.051645,121.793042 392.96836,132.699299 395.636398,142.291783 Z" id="Fill-30" fill="#7572F6" transform="translate(408.620851, 126.315784) rotate(-2.000000) translate(-408.620851, -126.315784) "></path>
            <path d="M0.227088832,189.557269 C0.227088832,189.557269 6.31073946,192.175157 11.2552279,191.659307 L15.4971081,180.152192 L3.26048285,178.446217 L0.227088832,189.557269 Z" id="Fill-32" fill="#00D0FF" transform="translate(7.862098, 185.086424) rotate(-2.000000) translate(-7.862098, -185.086424) "></path>
            <path d="M358.324605,71.2052959 L342.434417,88.0563813 C342.434417,88.0563813 327.555985,70.3745269 326.506756,66.0583925 C325.453781,61.74419 342.395071,49.2073071 342.395071,49.2073071 L358.324605,71.2052959 Z" id="Fill-34" fill="#C9E0FF" transform="translate(342.392117, 68.631844) rotate(-2.000000) translate(-342.392117, -68.631844) "></path>
            <g id="Group-38" transform="translate(372.562400, 18.636269) rotate(-2.000000) translate(-372.562400, -18.636269) translate(356.272060, 0.557512)">
                <mask id="mask-6" fill="white">
                    <use xlink:href="#path-5"></use>
                </mask>
                <g id="Clip-37"></g>
                <path d="M1.14565102,31.8895489 L0.00461522059,7.05148951 C-0.0946867453,4.89149026 1.41919983,3.01356604 3.50828836,2.71023878 C9.18348939,1.8852659 20.1985131,0.384085735 27.683633,0.00347763744 C29.111333,-0.0699391529 30.3629125,0.983012182 30.5727581,2.4339598 C31.4627286,8.55653371 33.4843667,24.4126284 32.1222435,33.7500849 C31.9198923,35.146936 30.7413841,36.170907 29.3605247,36.1575152 L5.23014697,35.9197443 C3.0436301,35.89656 1.24870023,34.126829 1.14565102,31.8895489" id="Fill-36" fill="#00D1FF" mask="url(#mask-6)"></path>
            </g>
            <g id="Group-41" transform="translate(414.921829, 59.266508) rotate(-2.000000) translate(-414.921829, -59.266508) translate(395.173573, 39.323224)">
                <mask id="mask-8" fill="white">
                    <use xlink:href="#path-7"></use>
                </mask>
                <g id="Clip-40"></g>
                <path d="M14.1945603,39.8865694 L39.4978253,25.821458 C39.4978253,25.821458 32.4886054,7.97344984 28.0312587,-2.74556669e-14 C28.0312587,-2.74556669e-14 6.87244549,8.55885214 0,15.8019981 L14.1945603,39.8865694 Z" id="Fill-39" fill="#E0000F" mask="url(#mask-8)"></path>
            </g>
        </g>
    </g>
</svg>
