<?xml version="1.0" encoding="UTF-8"?>
<svg width="24px" height="24px" viewBox="0 0 24 24" version="1.1" xmlns="http://www.w3.org/2000/svg" xmlns:xlink="http://www.w3.org/1999/xlink">
    <title>icone-discussion</title>
    <g id="icone-discussion" stroke="none" stroke-width="1" fill="none" fill-rule="evenodd">
        <g id="Group-8-Copy">
            <path d="M21.0082212,24 C20.9380671,24 20.8664515,23.983281 20.8010474,23.9486765 L17.9404421,22.4501869 C14.6596431,22.4194706 12,19.8630178 12,16.7252879 C12,13.5681172 14.6917971,11 18.0003654,11 C21.3085683,11 24,13.5681172 24,16.7252879 C24,18.7529535 22.8943426,20.600987 21.0893368,21.6336773 L21.4667803,23.3883954 C21.5069728,23.5765814 21.4419341,23.7725437 21.3001644,23.8922985 C21.2153949,23.9634515 21.1123561,24 21.0082212,24" id="Fill-1" fill="#FDCF41"></path>
            <path d="M3.42484004,19 C3.34152703,19 3.25858931,18.978467 3.18390783,18.9350234 C3.02666391,18.8439805 2.93321825,18.6720946 2.94297563,18.4892534 L3.1336198,14.7115419 C1.13861107,13.1063923 0,10.8624317 0,8.5179839 C0,3.82077741 4.48576736,0 10.0001876,0 C15.5142326,0 20,3.82077741 20,8.5179839 C20,13.2151904 15.5142326,17.0363456 10.0001876,17.0363456 C9.02369917,17.0363456 8.0565928,16.915081 7.12213612,16.6767074 L3.6875387,18.9218014 C3.60797853,18.9739338 3.51640928,19 3.42484004,19" id="Fill-3" fill="#00AC8C"></path>
        </g>
    </g>
</svg>