<?xml version="1.0" encoding="UTF-8"?>
<svg width="42px" height="44px" viewBox="0 0 72 78" version="1.1" xmlns="http://www.w3.org/2000/svg" xmlns:xlink="http://www.w3.org/1999/xlink">
    <title>Group 14</title>
    <defs>
        <polygon id="path-1" points="0 78 71.726 78 71.726 0.239 0 0.239"></polygon>
    </defs>
    <g id="MVP" stroke="none" stroke-width="1" fill="none" fill-rule="evenodd">
        <g id="Group-14">
            <path d="M24,6.3399 L61.613,6.3399 C63.815,6.3399 65.6,8.1249 65.6,10.3259 L65.6,66.0449 C65.6,68.2469 63.815,70.0319 61.613,70.0319 L11.986,70.0319 C9.785,70.0319 8,68.2469 8,66.0449 L8,22.3399 L24,6.3399 Z" id="Fill-4" fill="#FFFFFF"></path>
            <path d="M24,6.3399 L24,18.3539 C24,20.5549 22.215,22.3399 20.013,22.3399 L8,22.3399 L24,6.3399 Z" id="Fill-6" fill="#EDEDF2"></path>
            <path d="M56.8,59.852 L16.8,59.852 C16.524,59.852 16.3,59.628 16.3,59.352 C16.3,59.076 16.524,58.852 16.8,58.852 L56.8,58.852 C57.076,58.852 57.3,59.076 57.3,59.352 C57.3,59.628 57.076,59.852 56.8,59.852" id="Fill-8" fill="#2A2A2A"></path>
            <mask id="mask-2" fill="white">
                <use xlink:href="#path-1"></use>
            </mask>
            <g id="Clip-11"></g>
            <polygon id="Fill-10" fill="#000074" mask="url(#mask-2)" points="19.801 56.852 27.801 56.852 27.801 31.569 19.801 31.569"></polygon>
            <polygon id="Fill-12" fill="#FF6F4C" mask="url(#mask-2)" points="32.8 56.852 40.8 56.852 40.8 42.076 32.8 42.076"></polygon>
            <polygon id="Fill-13" fill="#0067E2" mask="url(#mask-2)" points="45.799 56.852 53.799 56.852 53.799 15.809 45.799 15.809"></polygon>
        </g>
    </g>
</svg>
