<svg width="48" height="40" viewBox="0 0 106 73" fill="none" xmlns="http://www.w3.org/2000/svg">
<g clip-path="url(#clip0_10_604)">
<path d="M89.5911 26.9802L105.882 67.6138L89.5911 59.5206L76.9272 19.0757L89.5911 26.9802Z" fill="#447049"/>
<path d="M28.9551 19.0862L16.2912 59.5207L52.9412 72.0064V27.8503L28.9551 19.0862Z" fill="#447049"/>
<path d="M16.2912 26.9802L0 67.6138L16.2912 59.5207L28.9552 19.0862L16.2912 26.9802Z" fill="#85D04A"/>
<path d="M52.9412 27.8503V72.0064L89.5911 59.5206L76.9272 19.0757L52.9412 27.8503Z" fill="#85D04A"/>
<path d="M26.2504 27.714L20.3483 30.9534L19.279 33.2178L24.6255 32.9138L26.2504 27.714Z" fill="#FFEA85"/>
<path d="M50.2365 29.9365L49.4397 32.1275L42.4578 31.9702L32.6977 26.4874L32.0058 26.7705L33.4945 30.9429L26.2504 27.7035L24.6255 32.9138L28.5568 37.7047L31.9429 39.7175L31.8381 42.4117L33.7251 44.5818L34.0711 46.8986L31.1462 43.3447L26.2504 50.4839L22.8433 51.1758L30.9156 57.4554L40.7804 61.2504L52.9412 67.6138V30.88L50.2365 29.9365Z" fill="#C9A92A"/>
<path d="M83.7204 40.7553L84.5801 40.336L83.9301 38.2812L82.8608 38.0087L83.7204 40.7553Z" fill="#C9A92A"/>
<path d="M89.9057 48.5026L90.4193 46.9196L84.7688 44.152L86.3203 49.0687L89.9057 48.5026Z" fill="#C9A92A"/>
<path d="M84.7688 44.1519H83.8567L84.339 42.8939L81.3407 42.3278L83.7204 40.7553L82.8608 38.0086L79.5795 36.8135L75.5644 40.1787L75.7321 37.778L80.9528 31.7815L79.7892 27.0535L79.3279 26.6342L73.1532 27.672L69.2009 28.951L62.3133 30.5025L54.1153 30.0937L52.9412 30.8799V67.6138L59.1054 65.1292V61.4286L64.3262 55.9667L73.9499 54.7192L84.7688 51.2177L86.2784 49.0791L86.3203 49.0686L84.7688 44.1519Z" fill="#FFEA85"/>
<path d="M84.2027 32.5049L83.8672 28.7518L79.3279 26.6342L80.9528 31.7815L84.2027 32.5049Z" fill="#C9A92A"/>
<path d="M96.4368 52.2557L95.7554 50.484H96.6255L97.9989 53.7863L100.19 56.9837L100.096 58.703L101.154 60.286V62.5819L95.9231 57.7176L93.1555 52.5702L93.8474 51.6686L96.4368 52.2557Z" fill="#C9A92A"/>
<path d="M52.9412 0.00634766L38.4636 8.3721V25.0931L52.9412 48.7437L67.4292 25.0931V8.3721L52.9412 0.00634766Z" fill="#E0000F"/>
<path d="M57.0821 14.3372H62.5754V11.1712L52.9412 5.60449L43.3174 11.1712V22.2941L52.9412 27.8503L62.5754 22.2941V19.1176H57.0821V14.3372Z" fill="white"/>
<path d="M57.0821 19.1175V14.3371L52.9412 11.9469L48.8002 14.3371V19.1175L52.9412 21.5078L57.0821 19.1175Z" fill="#000090"/>
</g>
<defs>
<clipPath id="clip0_10_604">
<rect width="105.882" height="72" fill="white" transform="translate(0 0.00634766)"/>
</clipPath>
</defs>
</svg>
