<?xml version="1.0" encoding="UTF-8"?>
<svg width="24px" height="8px" viewBox="0 0 24 8" version="1.1" xmlns="http://www.w3.org/2000/svg" xmlns:xlink="http://www.w3.org/1999/xlink">
    <title>Artboard</title>
    <defs>
        <polygon id="path-1" points="-3.37905845e-15 0.00358156275 5.1192718 0.00358156275 5.1192718 7.13339705 -3.37905845e-15 7.13339705"></polygon>
        <polygon id="path-3" points="1.68952923e-15 7.133403 23.2479387 7.133403 23.2479387 0.00358156275 1.68952923e-15 0.00358156275"></polygon>
    </defs>
    <g id="Artboard" stroke="none" stroke-width="1" fill="none" fill-rule="evenodd">
        <g id="Group-16">
            <g id="Group-15" transform="translate(0.009794, 0.000000)">
                <g id="Group-10" transform="translate(0.000000, 0.011280)">
                    <g id="Group-4">
                        <mask id="mask-2" fill="white">
                            <use xlink:href="#path-1"></use>
                        </mask>
                        <g id="Clip-3"></g>
                        <path d="M-3.37905845e-15,3.56849377 C-3.37905845e-15,2.25065701 0.219634506,1.33830962 0.658918379,0.797657123 C1.09820225,0.257019482 1.84159201,0.00357561825 2.90599977,0.00357561825 C3.68318402,0.00357561825 4.37588204,0.08806186 4.98412353,0.240122234 L4.84896041,1.37210412 C4.30830791,1.33830962 3.66628678,1.32141238 2.90599977,1.32141238 C2.39914176,1.32141238 2.06122652,1.47347275 1.87538651,1.79449075 C1.68953164,2.11549388 1.60506026,2.70683813 1.60506026,3.56849377 C1.60506026,4.4301494 1.68953164,5.02149365 1.87538651,5.34249678 C2.06122652,5.66351478 2.39914176,5.81557515 2.90599977,5.81557515 C3.83522954,5.81557515 4.52794241,5.78178066 4.98412353,5.71419166 L5.1192718,6.84618841 C4.51104516,7.03202842 3.78455265,7.13339705 2.90599977,7.13339705 C1.84159201,7.13339705 1.081305,6.8630708 0.658918379,6.33933041 C0.219634506,5.79867791 -3.37905845e-15,4.88633052 -3.37905845e-15,3.56849377" id="Fill-2" fill="#FFFFFE" mask="url(#mask-2)"></path>
                    </g>
                    <path d="M11.9280886,0.121850412 L11.9280886,6.45759034 C11.9280886,6.82928522 11.7422337,7.01514009 11.3874361,7.01514009 L10.4413091,7.01514009 C10.2892487,7.01514009 10.1709828,6.98134559 10.0864966,6.91377146 C10.0020252,6.84618247 9.91755384,6.72791659 9.8330676,6.57585622 L8.00837283,2.89268705 C7.78873833,2.40271144 7.63667795,2.0479138 7.58600107,1.8282793 L7.46772033,1.8282793 C7.51841207,2.16617968 7.53530932,2.52097731 7.53530932,2.92646669 L7.53530932,7.01514009 L6.08230944,7.01514009 L6.08230944,0.662502914 C6.08230944,0.290808034 6.26816431,0.104953164 6.63985919,0.104953164 L7.56910382,0.104953164 C7.72114933,0.104953164 7.83943007,0.138747661 7.92390145,0.206321793 C8.00837283,0.273910786 8.09285907,0.392176663 8.17733045,0.544237037 L9.93443622,4.10914032 C10.1033938,4.44705557 10.2723515,4.81875045 10.4413091,5.22423982 L10.5426777,5.22423982 C10.5088832,4.70048457 10.4750887,4.31189244 10.4750887,4.05846344 L10.4750887,0.121850412 L11.9280886,0.121850412 Z" id="Fill-5" fill="#FFFFFE"></path>
                    <mask id="mask-4" fill="white">
                        <use xlink:href="#path-3"></use>
                    </mask>
                    <g id="Clip-8"></g>
                    <polygon id="Fill-7" fill="#FFFFFE" mask="url(#mask-4)" points="13.3303982 7.01513712 14.8509723 7.01513712 14.8509723 0.12184744 13.3303982 0.12184744"></polygon>
                    <path d="M20.6460686,7.03203288 L17.8076578,7.03203288 C17.2670053,7.03203288 16.8784132,6.89686976 16.6080869,6.6265435 C16.3546579,6.35621725 16.2194948,6.00141962 16.2194948,5.56213575 L16.2194948,0.121845954 L17.7400688,0.121845954 L17.7400688,5.25802986 C17.7400688,5.44386987 17.7738633,5.56213575 17.8583496,5.64662199 C17.9428209,5.73109337 18.0779841,5.76488787 18.2807213,5.76488787 L20.6460686,5.76488787 L20.6460686,7.03203288 Z" id="Fill-9" fill="#FFFFFE" mask="url(#mask-4)"></path>
                </g>
            </g>
            <polygon id="Fill-1" fill="#FFFFFE" points="22.0243817 7.04331406 23.2577471 7.04331406 23.2577471 5.80994868 22.0243817 5.80994868"></polygon>
        </g>
    </g>
</svg>
