<?xml version="1.0" encoding="utf-8"?>
<!-- Generator: Adobe Illustrator 25.2.0, SVG Export Plug-In . SVG Version: 6.00 Build 0)  -->
<svg version="1.1" xmlns="http://www.w3.org/2000/svg" xmlns:xlink="http://www.w3.org/1999/xlink" x="0px" y="0px"
	 viewBox="0 0 177.4 80.5" style="enable-background:new 0 0 177.4 80.5;" xml:space="preserve">
<style type="text/css">
	.st0{display:none;}
	.st1{display:inline;}
	.st2{clip-path:url(#SVGID_2_);}
	.st3{clip-path:url(#SVGID_4_);fill:#FFFFFF;}
	.st4{clip-path:url(#SVGID_6_);}
	.st5{clip-path:url(#SVGID_8_);fill:#FFFFFF;}
	.st6{clip-path:url(#SVGID_10_);}
	.st7{clip-path:url(#SVGID_12_);fill:#FFFFFF;}
	.st8{clip-path:url(#SVGID_14_);fill:#FFFFFF;}
	.st9{clip-path:url(#SVGID_16_);}
	.st10{clip-path:url(#SVGID_18_);fill:#000091;}
	.st11{clip-path:url(#SVGID_20_);}
	.st12{clip-path:url(#SVGID_22_);fill:#E1000F;}
	.st13{clip-path:url(#SVGID_24_);}
	.st14{clip-path:url(#SVGID_26_);fill:#808080;}
	.st15{fill:#FFFFFF;}
	.st16{fill:#1E1E1E;}
	.st17{fill:#E20E18;}
	.st18{fill:#253574;}
	.st19{fill:#FFE910;}
	.st20{fill:#1F356C;}
	.st21{fill:#000091;}
	.st22{fill:#E1000F;}
	.st23{fill:#808080;}
</style>
<g id="Calque_1" class="st0">
	<g class="st1">
		<defs>
			<path id="SVGID_1_" d="M-150.6-126.5l0.1-0.4c-1.6-0.3-1.8-0.3-1.1-2l0.6-1.6h1.3c0.8,0,0.8,0.3,0.7,1.2h0.4l1-2.8h-0.4
				c-0.4,0.7-0.7,1.2-1.5,1.2h-1.3l0.9-2.3c0.3-0.8,0.4-1,1.5-1h0.3c1.1,0,1.2,0.3,1.2,1.5h0.4l0.4-1.9h-6.1l-0.1,0.4
				c1.3,0.3,1.4,0.4,0.8,2l-1.3,3.5c-0.6,1.6-0.8,1.7-2.3,2l-0.1,0.4H-150.6z M-142.2-131.3c0.2-0.8,0.1-1.4-0.5-1.4
				c-0.7,0-1,0.5-1.7,2.1v-0.9c0-0.6-0.2-1.2-0.8-1.2c-0.7,0-1.3,1-1.7,2h0.3c0.3-0.5,0.6-0.7,0.8-0.7c0.3,0,0.4,0.4,0,1.4l-1.3,2.9
				c-0.2,0.5,0,0.9,0.5,0.9c0.3,0,0.5-0.1,0.6-0.4l1.3-3.3c0.4-0.4,0.7-0.8,1.1-1.2L-142.2-131.3L-142.2-131.3z M-137.1-133l-0.5,0
				l-0.6,0.6h-0.1c-2.4,0-4.9,3-4.9,5.3c0,0.5,0.3,0.9,0.9,0.9c0.7,0,1.4-1,2.1-2.1l0,0.4c-0.1,1.1,0.2,1.7,0.8,1.7
				c0.7,0,1.3-1,1.7-2h-0.3c-0.3,0.5-0.6,0.7-0.9,0.7c-0.2,0-0.4-0.4,0-1.4L-137.1-133z M-142.1-128.2c0-1.5,1.6-3.4,2.5-3.4
				c0.2,0,0.4,0,0.6,0.1l-0.9,2.5c-0.5,0.7-1.4,1.5-1.8,1.5C-141.9-127.5-142.1-127.7-142.1-128.2 M-136.4-131.8h1.1l-1.7,4.7
				c-0.2,0.4,0.1,0.8,0.5,0.8c1.2,0,2.7-1,3.2-2.5h-0.3c-0.4,0.6-1.4,1.3-2.1,1.4l1.6-4.4h1.6l0.2-0.7h-1.6l0.6-1.7h-0.6l-1.1,1.7
				l-1.3,0.2V-131.8z M-128.9-128.6h-0.4c-0.5,0.6-1.1,1.1-1.6,1.1c-0.6,0-0.8-0.3-0.8-1.1c0-0.3,0-0.6,0.1-0.9l3.3-1.1
				c0.6-1.5-0.1-2.2-1-2.2c-1.5,0-3.3,2.7-3.3,4.9c0,1,0.5,1.6,1.2,1.6C-130.6-126.3-129.6-127.2-128.9-128.6 M-130-131.9
				c0.4,0,0.8,0.3,0.6,1.1l-2,0.5C-131.1-131.2-130.5-131.9-130-131.9 M-123.1-131.3c0.2-0.8,0.1-1.4-0.5-1.4c-0.7,0-1,0.5-1.7,2.1
				v-0.9c0-0.6-0.2-1.2-0.8-1.2c-0.7,0-1.3,1-1.7,2h0.3c0.3-0.5,0.6-0.7,0.9-0.7c0.3,0,0.4,0.4,0,1.4l-1.3,2.8
				c-0.2,0.5,0,0.9,0.5,0.9c0.3,0,0.5-0.1,0.6-0.4l1.3-3.3c0.4-0.4,0.7-0.8,1.1-1.2H-123.1z M-121.8-131.4c0.3,0,0.4,0.4,0,1.4
				l-1.3,2.8c-0.2,0.5,0,0.9,0.5,0.9c0.3,0,0.5-0.1,0.6-0.4l1.3-3.3c0.6-0.7,1.7-1.5,2.1-1.5c0.3,0,0.3,0.3,0.1,0.7l-1.9,3.7
				c-0.2,0.4,0.1,0.8,0.5,0.8c0.9,0,2.1-0.8,2.5-2h-0.3c-0.3,0.4-0.8,0.9-1.3,1l1.7-3.3c0.2-0.4,0.3-0.8,0.3-1.1
				c0-0.5-0.3-0.9-0.9-0.9c-0.8,0-1.5,0.9-2.5,2.1v-0.9c0-0.6-0.2-1.2-0.8-1.2c-0.7,0-1.3,1-1.7,2h0.3
				C-122.3-131.2-122-131.4-121.8-131.4 M-113-133.9c0.4,0,0.7-0.3,0.7-0.7c0-0.4-0.3-0.7-0.7-0.7c-0.4,0-0.7,0.3-0.7,0.7
				C-113.8-134.3-113.4-133.9-113-133.9 M-113.2-132c0.1-0.4-0.2-0.7-0.4-0.7c-0.9,0-2.1,0.8-2.5,2h0.3c0.3-0.4,0.8-0.9,1.3-1
				l-1.8,4.7c-0.2,0.4,0.2,0.7,0.4,0.7c0.9,0,1.9-0.9,2.4-2h-0.3c-0.3,0.4-0.8,0.9-1.3,1L-113.2-132z M-112.1-131.8h1.1l-1.7,4.7
				c-0.2,0.4,0.1,0.8,0.5,0.8c1.2,0,2.7-1,3.2-2.5h-0.3c-0.4,0.6-1.4,1.3-2.1,1.4l1.6-4.4h1.6l0.2-0.7h-1.6l0.6-1.7h-0.6l-1.1,1.7
				l-1.3,0.2V-131.8z M-105.1-133.5l1.9-1.7v-0.2h-1.2l-1.1,1.9H-105.1z M-104.6-128.6h-0.4c-0.5,0.6-1.1,1.1-1.6,1.1
				c-0.6,0-0.8-0.3-0.8-1.1c0-0.3,0-0.6,0.1-0.9l3.3-1.1c0.6-1.5-0.1-2.2-1-2.2c-1.5,0-3.3,2.7-3.3,4.9c0,1,0.5,1.6,1.2,1.6
				C-106.3-126.3-105.4-127.2-104.6-128.6 M-105.7-131.9c0.4,0,0.8,0.3,0.6,1.1l-2,0.5C-106.8-131.2-106.2-131.9-105.7-131.9"/>
		</defs>
		<clipPath id="SVGID_2_">
			<use xlink:href="#SVGID_1_"  style="overflow:visible;"/>
		</clipPath>
		<g class="st2">
			<defs>
				<rect id="SVGID_3_" x="-309.2" y="-1369.9" width="1440" height="1476"/>
			</defs>
			<clipPath id="SVGID_4_">
				<use xlink:href="#SVGID_3_"  style="overflow:visible;"/>
			</clipPath>
		</g>
	</g>
	<g class="st1">
		<defs>
			<path id="SVGID_5_" d="M-148.3-149.1l1.9-1.3v-0.2h-1.2l-1.1,1.6L-148.3-149.1L-148.3-149.1z M-149.3-144.2
				c0.8,0,0.8,0.3,0.7,1.2h0.4l1-2.8h-0.4c-0.4,0.7-0.7,1.2-1.5,1.2h-1.7l0.8-2.3c0.3-0.8,0.4-1,1.5-1h0.8c1.1,0,1.2,0.3,1.2,1.5
				h0.4l0.4-1.9h-6.5l-0.1,0.4c1.3,0.3,1.4,0.4,0.8,2l-1.3,3.5c-0.6,1.6-0.8,1.7-2.3,2l-0.1,0.4h7.2l1.3-2.1h-0.5
				c-0.8,0.8-1.7,1.6-3.3,1.6c-1.9,0-1.8-0.1-1.1-1.9l0.6-1.6L-149.3-144.2L-149.3-144.2z M-141.2-139.5c0-0.8-0.7-1-1.8-1.4
				c-0.9-0.3-1.4-0.4-1.4-0.7c0-0.2,0.2-0.5,0.6-0.8c1.6-0.1,2.5-1.5,2.5-2.7c0-0.2,0-0.4-0.1-0.6h1.1l0.2-0.7h-1.8
				c-0.2-0.2-0.5-0.2-0.9-0.2c-1.6,0-2.7,1.4-2.7,2.7c0,0.8,0.5,1.4,1.2,1.5c-0.8,0.4-1.2,0.7-1.2,1.2c0,0.3,0.1,0.5,0.3,0.6
				c-1.8,0.5-2.5,1.2-2.5,1.9c0,0.8,1.1,1.2,2.3,1.2C-143-137.3-141.2-138.5-141.2-139.5 M-143.7-142.7c-0.4,0-0.5-0.3-0.5-0.7
				c0-1.2,0.6-2.6,1.5-2.6c0.4,0,0.5,0.3,0.5,0.7C-142.3-144.1-142.8-142.7-143.7-142.7 M-146.2-138.9c0-0.6,0.6-1,1.5-1.4
				c0.3,0.1,0.7,0.3,1.3,0.5c0.9,0.3,1.2,0.4,1.2,0.7c0,0.6-0.8,1-2.3,1C-145.6-138.1-146.2-138.3-146.2-138.9 M-134.6-146.7l-0.5,0
				l-0.6,0.6h-0.1c-2.4,0-4.9,3-4.9,5.3c0,0.5,0.3,0.9,0.9,0.9c0.7,0,1.4-1,2.1-2.1l0,0.4c-0.1,1.1,0.2,1.7,0.8,1.7
				c0.7,0,1.3-1,1.7-2h-0.3c-0.3,0.5-0.6,0.7-0.9,0.7c-0.2,0-0.4-0.4,0-1.4L-134.6-146.7z M-139.6-141.9c0-1.5,1.6-3.4,2.5-3.4
				c0.2,0,0.4,0,0.6,0.1l-0.9,2.5c-0.5,0.7-1.4,1.5-1.8,1.5C-139.4-141.2-139.6-141.4-139.6-141.9 M-133.5-141.1l3-7.9l-0.1-0.1
				l-2.1,0.2v0.2l0.4,0.3c0.4,0.3,0.2,0.5-0.1,1.4l-2.3,6.1c-0.2,0.4,0.1,0.8,0.5,0.8c0.9,0,1.9-0.9,2.4-2h-0.3
				C-132.4-141.6-133-141.2-133.5-141.1 M-127.7-147.6c0.4,0,0.7-0.3,0.7-0.7c0-0.4-0.3-0.7-0.7-0.7c-0.4,0-0.7,0.3-0.7,0.7
				C-128.4-148-128.1-147.6-127.7-147.6 M-127.9-145.8c0.1-0.4-0.2-0.7-0.4-0.7c-0.9,0-2.1,0.9-2.5,2h0.3c0.3-0.4,0.8-0.9,1.3-1
				l-1.8,4.7c-0.2,0.4,0.2,0.7,0.4,0.7c0.9,0,1.9-0.9,2.4-2h-0.3c-0.3,0.4-0.8,0.9-1.3,1L-127.9-145.8z M-126.8-145.5h1.1l-1.7,4.7
				c-0.2,0.4,0.1,0.8,0.5,0.8c1.2,0,2.7-1,3.2-2.5h-0.3c-0.4,0.6-1.4,1.3-2.1,1.4l1.6-4.4h1.6l0.2-0.7h-1.6l0.6-1.7h-0.6l-1.1,1.7
				l-1.3,0.2V-145.5z M-119.8-147.2l1.9-1.7v-0.2h-1.2l-1.1,1.9H-119.8z M-119.3-142.3h-0.4c-0.5,0.6-1.1,1.1-1.6,1.1
				c-0.6,0-0.8-0.3-0.8-1.1c0-0.3,0-0.6,0.1-0.9l3.3-1.1c0.6-1.5-0.1-2.2-1-2.2c-1.5,0-3.3,2.7-3.3,4.9c0,1,0.5,1.6,1.2,1.6
				C-121-140-120-140.9-119.3-142.3 M-120.4-145.6c0.4,0,0.8,0.3,0.6,1.1l-2,0.5C-121.5-144.9-120.9-145.6-120.4-145.6"/>
		</defs>
		<clipPath id="SVGID_6_">
			<use xlink:href="#SVGID_5_"  style="overflow:visible;"/>
		</clipPath>
		<g class="st4">
			<defs>
				<rect id="SVGID_7_" x="-309.2" y="-1369.9" width="1440" height="1476"/>
			</defs>
			<clipPath id="SVGID_8_">
				<use xlink:href="#SVGID_7_"  style="overflow:visible;"/>
			</clipPath>
		</g>
	</g>
	<g class="st1">
		<defs>
			<path id="SVGID_9_" d="M-147.9-162.3h-4.3l-0.1,0.4c1.3,0.3,1.4,0.4,0.8,2l-1.3,3.5c-0.6,1.6-0.8,1.7-2.3,2l-0.1,0.4h6.5l1.4-2.5
				h-0.5c-0.8,0.9-1.7,2-3.2,2c-1.1,0-1.3-0.2-0.6-1.9l1.3-3.5c0.6-1.6,0.8-1.7,2.3-2L-147.9-162.3z M-143.3-161.4
				c0.4,0,0.7-0.3,0.7-0.7c0-0.4-0.3-0.7-0.7-0.7c-0.4,0-0.7,0.3-0.7,0.7C-144-161.7-143.7-161.4-143.3-161.4 M-143.5-159.5
				c0.1-0.4-0.2-0.7-0.4-0.7c-0.9,0-2.1,0.9-2.5,2h0.3c0.3-0.4,0.8-0.9,1.3-1l-1.8,4.7c-0.2,0.4,0.2,0.7,0.4,0.7
				c0.9,0,1.9-0.9,2.4-2h-0.3c-0.3,0.4-0.8,0.9-1.3,1L-143.5-159.5z M-137.4-158.9c0-1-0.2-1.3-0.9-1.3c-0.8,0-1.6,0.9-2.4,2
				l1.7-4.5l-0.1-0.1l-2.1,0.2v0.2l0.4,0.3c0.4,0.3,0.2,0.6-0.1,1.4l-1.8,4.8c-0.2,0.4-0.3,0.9-0.3,1c0,0.6,0.8,1.1,1.5,1.1
				C-140-153.8-137.4-156.6-137.4-158.9 M-141-154.7c-0.3,0-0.8-0.3-0.8-0.6c0-0.1,0.1-0.4,0.3-0.9l0.5-1.4c0.6-0.7,1.4-1.4,1.9-1.4
				c0.3,0,0.5,0.2,0.5,0.6C-138.5-157.1-139.7-154.7-141-154.7 M-133.4-156h-0.4c-0.5,0.6-1.1,1.1-1.6,1.1c-0.6,0-0.8-0.3-0.8-1.1
				c0-0.3,0-0.6,0.1-0.9l3.3-1.1c0.6-1.5-0.1-2.2-1-2.2c-1.5,0-3.3,2.7-3.3,4.9c0,1,0.5,1.6,1.2,1.6
				C-135.1-153.8-134.2-154.6-133.4-156 M-134.5-159.3c0.4,0,0.8,0.3,0.6,1.1l-2,0.5C-135.6-158.6-135-159.3-134.5-159.3
				 M-127.6-158.7c0.2-0.8,0.1-1.4-0.5-1.4c-0.7,0-1,0.5-1.7,2.1v-0.9c0-0.6-0.2-1.2-0.8-1.2c-0.7,0-1.3,1-1.7,2h0.3
				c0.3-0.5,0.6-0.7,0.8-0.7c0.3,0,0.4,0.4,0,1.4l-1.3,2.8c-0.2,0.5,0,0.9,0.5,0.9c0.3,0,0.5-0.1,0.6-0.4l1.3-3.3
				c0.4-0.4,0.7-0.8,1.1-1.2H-127.6z M-127-159.3h1.1l-1.7,4.7c-0.2,0.4,0.1,0.8,0.5,0.8c1.2,0,2.7-1,3.2-2.5h-0.3
				c-0.4,0.6-1.4,1.3-2.1,1.4l1.6-4.4h1.6l0.2-0.7h-1.6l0.6-1.7h-0.6l-1.1,1.7l-1.3,0.2V-159.3z M-120-160.9l1.9-1.7v-0.2h-1.2
				l-1.1,1.9H-120z M-119.5-156h-0.4c-0.5,0.6-1.1,1.1-1.6,1.1c-0.6,0-0.8-0.3-0.8-1.1c0-0.3,0-0.6,0.1-0.9l3.3-1.1
				c0.6-1.5-0.1-2.2-1-2.2c-1.5,0-3.3,2.7-3.3,4.9c0,1,0.5,1.6,1.2,1.6C-121.2-153.8-120.3-154.6-119.5-156 M-120.6-159.3
				c0.4,0,0.8,0.3,0.6,1.1l-2,0.5C-121.7-158.6-121.1-159.3-120.6-159.3"/>
		</defs>
		<clipPath id="SVGID_10_">
			<use xlink:href="#SVGID_9_"  style="overflow:visible;"/>
		</clipPath>
		<g class="st6">
			<defs>
				<rect id="SVGID_11_" x="-309.2" y="-1369.9" width="1440" height="1476"/>
			</defs>
			<clipPath id="SVGID_12_">
				<use xlink:href="#SVGID_11_"  style="overflow:visible;"/>
			</clipPath>
		</g>
	</g>
	<g class="st1">
		<defs>
			<path id="SVGID_15_" d="M-139.4-224.7c0,0,0.1,0,0.1,0c0,0.2-0.1,0.3-0.3,0.4c0.3,0.1,0.6,0.1,0.9,0.2c0,0.1-0.1,0-0.1,0
				c0.2,0.1,0.4,0,0.6,0.2c-0.1,0.1-0.2,0-0.3,0c1.2,0.3,2.4,0.6,3.4,1.4c-0.8,0.4-1.7,0.6-2.6,0.8c-0.1,0-0.2,0-0.3,0
				c0,0,0,0.1,0,0.1c-0.1,0-0.3,0-0.4,0.1c-0.2,0.1-0.4,0.1-0.5,0c0,0,0.1,0,0.1-0.1h-0.3c0,0,0,0,0-0.1c-0.2,0-0.4,0.1-0.6,0.1
				c-0.3,0.1-0.5,0.3-0.8,0.3c-0.4,0.1-0.8,0.5-1.2,0.6c0,0,0,0,0-0.1c0-0.1,0.2-0.1,0.3-0.3c0,0,0-0.1,0-0.1c0.3-0.4,0.7-0.6,1.1-1
				v-0.1c0.1-0.1,0.3-0.2,0.4-0.4c0-0.1,0.2-0.3,0.4-0.3c0,0-0.1,0-0.1-0.1c-0.1,0-0.3,0.1-0.5,0c0.1-0.1,0.1-0.1,0.2-0.1
				c0,0-0.1,0-0.1-0.1c0-0.1,0.1-0.2,0.2-0.2c0.1,0,0.3,0,0.5-0.1c-0.3,0-0.6,0.1-0.8-0.1C-140.1-224.1-139.8-224.5-139.4-224.7z
				 M-139.8-218.9C-139.8-218.9-139.8-218.9-139.8-218.9c-0.1,0.1-0.3,0.2-0.4,0.3c-0.2,0.1-0.3,0.2-0.5,0.2c0,0,0,0,0,0
				c0,0,0,0-0.1,0c-0.1,0.1-0.3,0.2-0.4,0.3c0,0,0,0-0.1,0.1l-0.1,0.1l0,0c0,0,0,0,0,0c0,0-0.1,0.1-0.1,0.1c0,0,0,0-0.1,0.1
				c0,0-0.1,0-0.1,0v0c0,0,0,0-0.1,0c0,0,0,0-0.1,0c0,0,0,0,0,0s0,0,0,0c0,0-0.1,0.1-0.1,0.1c-0.1,0.1-0.1,0.1-0.2,0.2c0,0,0,0,0,0
				c0,0,0,0,0,0c0,0,0,0,0,0c0,0,0,0,0,0c0,0,0,0,0,0c0,0,0,0,0,0c0,0,0,0,0,0c0,0,0,0,0,0c0,0,0,0,0,0c0,0,0,0,0-0.1c0,0,0,0,0,0
				s0,0,0,0c0,0,0.1-0.1,0.1-0.1l0,0c0,0,0,0,0,0c0,0,0-0.1,0.1-0.1c0,0,0,0,0,0c0-0.1,0.1-0.1,0.1-0.2c0,0,0,0,0,0c0,0,0,0,0,0
				c0,0,0-0.1,0.1-0.1c0,0,0-0.1,0-0.1v0l0,0c0,0,0,0,0,0c0,0,0-0.1,0-0.1v0l0,0c0,0,0,0,0,0v0c0,0,0,0,0-0.1c0,0,0,0,0,0
				c0-0.1,0.1-0.1,0.1-0.2c0,0,0,0,0,0c-0.1,0-0.1,0.1-0.1,0.1c0,0-0.1,0-0.1-0.1c0,0,0.1-0.1,0.1-0.1c0,0,0,0,0,0
				c0.1-0.1,0.1-0.1,0.2-0.2c0,0,0.1-0.1,0.1-0.1c0,0,0,0,0,0c0,0,0.1-0.1,0.1-0.1c0,0,0,0,0,0c0.4-0.4,1-0.3,1.4-0.6
				c0.2-0.1,0.4,0,0.6,0c0.1,0,0.2,0,0.3,0.1C-139.1-219.3-139.4-219.1-139.8-218.9 M-139.1-218.6c0,0-0.1,0.1-0.1,0.1
				c0,0,0.1,0,0.1,0.1c-0.1,0.1-0.2,0.2-0.3,0.2c0,0,0,0-0.1,0c0,0-0.1,0.1-0.1,0.1c0,0-0.3,0-0.2,0c0.1-0.1,0.2-0.2,0.3-0.3
				c0.1-0.1,0.1-0.1,0.2-0.1c0,0,0-0.1,0.1-0.1C-139.2-218.6-139-218.7-139.1-218.6 M-140.8-224.2c0,0.1-0.1,0.1-0.1,0.1
				c0,0.1-0.1,0.1-0.1,0.1c0,0-0.1,0-0.1,0C-141.1-224.1-141-224.3-140.8-224.2C-140.8-224.3-140.8-224.3-140.8-224.2 M-143.9-221.7
				C-143.9-221.7-144-221.8-143.9-221.7c0.5-0.7,0.8-1.3,1.2-2c0.5-0.3,0.9-0.6,1.3-1.1c0.6-0.7,1.3-1.3,2.1-1.7
				c0.3-0.1,0.7-0.1,1,0c-0.1,0.1-0.3,0.1-0.5,0.2c0,0-0.1,0-0.1,0c0,0,0-0.1,0-0.1c-0.4,0.4-0.9,0.6-1.2,1.1
				c-0.2,0.4-0.4,0.9-0.9,1c-0.1,0,0-0.1,0-0.1C-142.2-223.6-143-222.8-143.9-221.7 M-138.2-220.9c-0.1,0-0.2,0-0.2,0
				c0-0.2,0.3-0.2,0.5-0.3c0.1,0,0.2-0.1,0.3-0.1c0.1,0.1,0.2,0.1,0.3,0.1C-137.6-220.9-137.9-221-138.2-220.9 M-132.4-218.2
				c0.2-0.2,0.4-0.4,0.6-0.7h0c0.4-0.5,0.8-0.9,1.3-1.3c0.1-0.1,0.3-0.2,0.4-0.3c0,0,0-0.1,0.1-0.1c-0.2,0.1-0.3,0.2-0.5,0.3
				c0,0-0.1,0,0-0.1c0.1-0.1,0.3-0.2,0.4-0.3c0,0,0,0,0,0c0,0,0,0,0-0.1c-0.5-0.1-0.9,0.3-1.2,0.6c-0.1,0-0.1,0-0.2,0
				c-0.6,0.2-1,0.7-1.5,0.9v-0.1c-0.2,0.1-0.4,0.2-0.7,0.3c-0.3,0.1-0.6,0-0.9,0c-0.5,0-0.9,0.1-1.4,0.2c0,0,0,0,0,0
				c-0.2,0.1-0.5,0.2-0.7,0.3l0,0c0,0,0,0-0.1,0.1c-0.1,0.1-0.1,0.2-0.3,0.2c-0.2,0.1-0.4,0.3-0.6,0.5c0,0,0,0-0.1,0
				c-0.2,0.2-0.4,0.4-0.6,0.6c0,0-0.1,0-0.1,0c0,0,0,0,0,0c0,0,0,0,0,0c0-0.1,0.1-0.1,0.1-0.2c0-0.1,0.1-0.1,0.1-0.2
				c0.1-0.1,0.1-0.2,0.2-0.2c0,0,0,0,0-0.1c0,0,0,0-0.1,0c0.2-0.2,0.4-0.3,0.6-0.5v0c0,0-0.1,0,0,0c0,0,0-0.1,0.1-0.1c0,0,0,0,0,0
				c0,0,0,0,0,0c-0.1,0-0.1,0.1-0.2,0.1c-0.1,0.1-0.2,0.2-0.3,0.2c0,0,0,0-0.1,0c0,0,0,0,0,0c0,0,0,0,0,0c0,0,0,0,0,0c0,0,0,0,0,0
				c0,0,0,0,0,0c0,0,0,0,0,0c0,0,0,0,0,0c0,0,0,0,0-0.1c0,0,0,0,0,0c0,0,0-0.1,0.1-0.1c0,0,0,0,0,0c0,0,0,0,0-0.1c0,0,0-0.1,0-0.1
				c0.1-0.1,0.2-0.2,0.3-0.2h0c0.1-0.1,0.3-0.2,0.4-0.2c0,0,0,0,0.1-0.1c-0.2,0.1-0.4,0.2-0.6,0.3c0,0-0.1,0-0.1,0c0,0,0,0-0.1,0
				c0,0,0,0,0,0c0-0.1,0.1-0.1,0.2-0.2c0,0,0.1,0,0.1,0c1.2-0.9,2.9-0.7,4.3-1.2c0.1-0.1,0.2-0.1,0.3-0.2c0.2-0.1,0.3-0.3,0.6-0.4
				c0.3-0.2,0.5-0.5,0.6-0.9c0,0,0-0.1,0-0.1c-0.5,0.5-1.1,0.9-1.7,1.2c-0.8,0.4-1.7,0.3-2.5,0.5c0-0.1,0.1-0.1,0.2-0.1
				c0-0.1,0.1-0.1,0.1-0.2h0.1c0,0,0-0.1,0.1-0.1c0.1,0,0.2,0,0.1,0c-0.1-0.1-0.3,0.1-0.5,0c0.1-0.1,0-0.2,0.1-0.2h0.1
				c0-0.1,0.1-0.1,0.1-0.1c0.6-0.3,1.1-0.6,1.6-0.9c-0.1,0-0.2,0.1-0.3,0c0.1,0,0-0.1,0.1-0.1c0.4-0.1,0.8-0.3,1.2-0.5
				c-0.1,0-0.3,0.1-0.4,0c0.1,0,0.1-0.1,0.2-0.1v-0.1c0,0,0,0,0.1,0c0,0-0.1,0-0.1,0c0-0.1,0.1,0,0.2-0.1c0,0-0.1,0-0.1,0
				c0.1-0.1,0.3-0.2,0.5-0.2c0-0.1-0.1,0-0.1-0.1c0,0,0,0,0.1,0h-0.1c-0.1,0,0-0.1,0-0.1c0.2-0.3,0.2-0.6,0.3-0.9c0,0-0.1,0-0.1,0
				c-0.4,0.4-1,0.6-1.5,0.7h-0.2c-0.2,0.1-0.5,0.1-0.6,0c-0.1-0.1-0.2-0.2-0.4-0.3c-0.3-0.2-0.6-0.3-0.9-0.5
				c-0.9-0.3-1.9-0.5-2.9-0.4c0.4-0.2,0.9-0.2,1.3-0.4c0.6-0.2,1.2-0.4,1.9-0.4c-0.1,0-0.3,0-0.4,0c-0.5,0-1.1,0.1-1.6,0.2
				c-0.4,0.1-0.7,0.2-1.1,0.3c-0.2,0.1-0.3,0.3-0.6,0.3v-0.1c0.4-0.5,0.8-0.9,1.4-0.9c0.7-0.1,1.3,0,2,0.1c0.5,0,0.9,0.1,1.4,0.3
				c0.2,0,0.2,0.3,0.4,0.3c0.2,0.1,0.5,0,0.7,0.1c0-0.1,0-0.1,0-0.2c0.1-0.1,0.3,0,0.5,0c0.3-0.2-0.3-0.5-0.4-0.8c0,0,0-0.1,0-0.1
				c0.3,0.3,0.5,0.6,0.9,0.8c0.2,0.1,0.6,0.2,0.6,0c-0.2-0.4-0.6-0.8-0.9-1.1v-0.1c-0.1,0-0.1,0-0.1-0.1v-0.1
				c-0.1-0.1-0.1-0.2-0.2-0.3c-0.1-0.2,0-0.5-0.1-0.7c-0.1-0.2-0.1-0.4-0.1-0.6c-0.1-0.6-0.3-1.2-0.3-1.8c-0.1-0.7,0.4-1.3,0.8-1.9
				c0.3-0.5,0.6-0.9,1.1-1.2c0.1-0.5,0.4-0.8,0.7-1.2c0.3-0.4,0.8-0.6,1.2-0.8c0.5-0.2,1-0.4,1-0.4h-26v20h18.5
				c0.7-0.5,1.4-0.8,2.4-1.3C-133.8-217.4-132.8-217.9-132.4-218.2"/>
		</defs>
		<clipPath id="SVGID_14_">
			<use xlink:href="#SVGID_15_"  style="overflow:visible;"/>
		</clipPath>
		<g style="clip-path:url(#SVGID_14_);">
			<defs>
				<rect id="SVGID_17_" x="-309.2" y="-1369.9" width="1440" height="1476"/>
			</defs>
			<clipPath id="SVGID_16_">
				<use xlink:href="#SVGID_17_"  style="overflow:visible;"/>
			</clipPath>
		</g>
	</g>
	<g class="st1">
		<defs>
			<path id="SVGID_19_" d="M-100.3-235.8h-21.4c0,0,0,0,0.2,0.1c0.2,0.1,0.4,0.2,0.5,0.3c0.3,0.1,0.5,0.3,0.7,0.6
				c0.1,0.1,0.2,0.3,0.1,0.5c-0.1,0.2-0.1,0.5-0.3,0.6c-0.2,0.1-0.5,0.1-0.8,0.1c-0.1,0-0.3,0-0.5-0.1c0.6,0.2,1.1,0.5,1.5,1
				c0,0.1,0.2,0.1,0.3,0.1c0,0,0,0.1,0,0.1c-0.1,0.1-0.1,0.1-0.1,0.2h0.1c0.2-0.1,0.1-0.5,0.4-0.3c0.2,0.1,0.3,0.4,0.1,0.6
				c-0.1,0.1-0.3,0.3-0.5,0.4c0,0.1,0,0.2,0,0.3c0.1,0.1,0.1,0.3,0.2,0.5c0.1,0.3,0.1,0.6,0.3,0.8c0.1,0.6,0.3,1.1,0.3,1.7
				c0,0.3-0.1,0.6,0,0.9c0.1,0.3,0.3,0.5,0.4,0.8c0.1,0.2,0.3,0.4,0.4,0.6c0.2,0.4,0.6,0.8,0.5,1.2c-0.1,0.3-0.5,0.2-0.8,0.4
				c-0.2,0.2,0,0.5,0.1,0.7c0.2,0.3-0.2,0.6-0.5,0.7c0.1,0.1,0.2,0.1,0.3,0.1c0,0.2,0.2,0.3,0.1,0.5c-0.1,0.2-0.6,0.3-0.4,0.7
				c0.1,0.3,0.1,0.6,0,0.8c-0.1,0.3-0.4,0.5-0.7,0.6c-0.2,0.1-0.5,0.1-0.7,0c-0.1,0-0.1-0.1-0.2-0.1c-0.6-0.1-1.3-0.3-1.9-0.3
				c-0.2,0-0.4,0.1-0.5,0.1c-0.2,0.1-0.3,0.3-0.5,0.4c0,0,0,0,0,0c0,0-0.1,0.1-0.1,0.1c0,0,0,0,0,0.1c0,0,0,0,0,0
				c-0.1,0.1-0.2,0.3-0.3,0.4c0,0,0,0,0,0c0,0,0,0,0,0.1c-0.1,0.2-0.2,0.5-0.3,0.7c-0.3,0.9-0.1,1.6,0,1.8c0.1,0.1,1.2,0.4,2.1,0.8
				c0.4,0.2,0.7,0.3,0.9,0.4h21L-100.3-235.8L-100.3-235.8z"/>
		</defs>
		<clipPath id="SVGID_18_">
			<use xlink:href="#SVGID_19_"  style="overflow:visible;"/>
		</clipPath>
		<g style="clip-path:url(#SVGID_18_);">
			<defs>
				<rect id="SVGID_21_" x="-309.2" y="-1369.9" width="1440" height="1476"/>
			</defs>
			<clipPath id="SVGID_20_">
				<use xlink:href="#SVGID_21_"  style="overflow:visible;"/>
			</clipPath>
		</g>
	</g>
	<g class="st1">
		<defs>
			<path id="SVGID_23_" d="M-120.4-228.6c0.1,0,0.4,0,0.4,0.1c-0.1,0.3-0.5,0.4-0.8,0.7h-0.1c-0.1,0.1-0.1,0.3-0.2,0.3
				c-0.1,0-0.2,0-0.3,0c0.1,0.1,0.3,0.3,0.6,0.2c0,0,0.1,0.1,0.1,0.1c0,0,0,0,0.1,0c0,0,0.1,0,0.1,0v0.1c-0.1,0.1-0.3,0.1-0.5,0.1
				c0.3,0.1,0.6,0.1,0.9,0c0.2-0.1,0-0.5,0.1-0.6c-0.1,0,0-0.1-0.1-0.1c0.1-0.1,0.1-0.2,0.2-0.2c0.1,0,0.2,0,0.2-0.1
				c0-0.1-0.1-0.1-0.1-0.2c0.2-0.1,0.4-0.4,0.3-0.6c0-0.1-0.3-0.1-0.5-0.2c-0.2-0.1-0.4,0-0.6,0c-0.2,0-0.4,0.1-0.6,0.1
				c-0.3,0.1-0.5,0.2-0.7,0.4c0.3-0.1,0.5-0.1,0.8-0.2C-120.8-228.6-120.6-228.6-120.4-228.6"/>
		</defs>
		<clipPath id="SVGID_22_">
			<use xlink:href="#SVGID_23_"  style="overflow:visible;"/>
		</clipPath>
		<g style="clip-path:url(#SVGID_22_);">
			<defs>
				<rect id="SVGID_25_" x="-309.2" y="-1369.9" width="1440" height="1476"/>
			</defs>
			<clipPath id="SVGID_24_">
				<use xlink:href="#SVGID_25_"  style="overflow:visible;"/>
			</clipPath>
		</g>
	</g>
</g>
<g id="Calque_2">
	<g id="g230" transform="matrix(0.84513506,0,0,0.84513506,-19.221571,-22.187995)">
		<g id="g86">
			<path id="path4" class="st15" d="M29.2,26.3h4.4l6.5,17h-3.6l-1.7-4.4H28l-1.7,4.4h-3.6L29.2,26.3z M33.8,35.9l-2.4-6.5L29,35.9
				H33.8z"/>
			<path id="path6" class="st15" d="M54.3,39v-2.9h-4.2V33h7.8v7.1c-1.5,2-4.2,3.4-7.5,3.4c-5.4,0-9.2-4.1-9.2-9c0-4.8,3.6-9,9-9
				c3.1,0,5.6,1.4,7.1,3.4l-2.7,2c-1-1.4-2.5-2.4-4.4-2.4c-3.2,0-5.4,2.5-5.4,5.8c0,3.2,2.4,5.8,5.8,5.8C51.9,40.5,53.3,40,54.3,39z
				"/>
			<path id="path8" class="st15" d="M61.8,26.3h9.8v2.9h-6.5V33h5.4v2.9h-5.4v4.2h6.5v2.9h-9.8V26.3z"/>
			<path id="path10" class="st15" d="M75.9,26.3h4.4l7.6,12.1V26.3h3.4v17h-4.4L79.3,31v12.2h-3.4V26.3z"/>
			<path id="path12" class="st15" d="M108.3,38.1l2.7,2c-1.5,2-4.1,3.4-7.1,3.4c-5.3,0-9-4.1-9-9c0-4.8,3.6-9,9-9
				c3.1,0,5.6,1.4,7.1,3.4l-2.7,2c-1-1.4-2.5-2.4-4.4-2.4c-3.2,0-5.4,2.5-5.4,5.8c0,3.2,2.2,5.8,5.4,5.8
				C105.8,40.5,107.3,39.5,108.3,38.1z"/>
			<path id="path14" class="st15" d="M114.1,26.3h9.8v2.9h-6.5V33h5.4v2.9h-5.4v4.2h6.5v2.9h-9.8V26.3z"/>
			<path id="path16" class="st15" d="M24.8,52.2h4.4l7.6,12.1V52.2h3.4v17h-4.4L28.2,57v12.2h-3.4V52.2L24.8,52.2z"/>
			<path id="path18" class="st15" d="M49.6,52.2H54l6.5,17h-3.6l-1.7-4.4h-6.8l-1.7,4.4h-3.6L49.6,52.2z M54.2,61.7l-2.4-6.3
				l-2.4,6.3H54.2z"/>
			<path id="path20" class="st15" d="M59.9,52.2h13.9v3.1h-5.3V69h-3.4V55.3h-5.3L59.9,52.2L59.9,52.2z"/>
			<path id="path22" class="st15" d="M77.1,52.2h3.4v17h-3.4V52.2z"/>
			<path id="path24" class="st15" d="M102,60.7c0,4.8-3.6,9-9,9c-5.3,0-9-4.1-9-9c0-4.8,3.6-9,9-9C98.3,51.7,102,55.8,102,60.7z
				 M98.5,60.7c0-3.2-2.2-5.8-5.4-5.8s-5.4,2.5-5.4,5.8c0,3.2,2.2,5.8,5.4,5.8C96.1,66.5,98.5,63.9,98.5,60.7z"/>
			<path id="path26" class="st15" d="M105.4,52.2h4.4l7.6,12.1V52.2h3.4v17h-4.4L108.8,57v12.2h-3.4V52.2L105.4,52.2z"/>
			<path id="path28" class="st15" d="M130.2,52.2h4.4l6.5,17h-3.6l-1.7-4.4H129l-1.7,4.4h-3.6L130.2,52.2z M134.8,61.7l-2.4-6.3
				l-2.4,6.3H134.8z"/>
			<path id="path30" class="st15" d="M144,52.2h3.4V66h6.5V69H144V52.2L144,52.2z"/>
			<path id="path32" class="st15" d="M157,52.2h9.8v2.9h-6.3V59h5.4v2.9h-5.4v4.4h6.5v2.9h-9.8v-17C157.2,52.2,157,52.2,157,52.2z"
				/>
			<path id="path34" class="st15" d="M25.1,78.2h6.5c5.3,0,8.8,3.9,8.8,8.5c0,4.6-3.6,8.5-8.8,8.5h-6.5V78.2z M26.6,79.6v14.1h4.9
				c4.2,0,7.1-3.2,7.1-7.1c0-3.9-3.1-7.1-7.1-7.1L26.6,79.6L26.6,79.6z"/>
			<path id="path36" class="st15" d="M44.6,78.2h8.7v1.4h-7.1v6.3h6.1v1.4h-6.1v6.6h7.1v1.4h-8.7V78.2z"/>
			<path id="path38" class="st15" d="M64.5,78.2H66v15.5h7.1V95h-8.7L64.5,78.2L64.5,78.2z"/>
			<path id="path40" class="st15" d="M82,78.2h2l7,17h-1.7l-2.2-5.3h-8.5l-2.2,5.3h-1.7L82,78.2z M86.8,88.4l-3.6-9l-3.7,9H86.8z"/>
			<path id="path42" class="st15" d="M112.9,90.1l2.7,2c-1.5,2-4.1,3.4-7.1,3.4c-5.3,0-9-4.1-9-9c0-4.8,3.6-9,9-9
				c3.1,0,5.6,1.4,7.1,3.4l-2.7,2c-1-1.4-2.5-2.4-4.4-2.4c-3.2,0-5.4,2.5-5.4,5.8c0,3.2,2.2,5.8,5.4,5.8
				C110.4,92.3,111.9,91.5,112.9,90.1z"/>
			<path id="path44" class="st15" d="M135.3,86.5c0,4.8-3.6,9-9,9c-5.3,0-9-4.1-9-9c0-4.8,3.6-9,9-9
				C131.6,77.7,135.3,81.8,135.3,86.5z M131.7,86.5c0-3.2-2.2-5.8-5.4-5.8c-3.2,0-5.4,2.5-5.4,5.8s2.2,5.8,5.4,5.8
				C129.4,92.3,131.7,89.9,131.7,86.5z"/>
			<path id="path46" class="st15" d="M138.7,78.2h3.4V85h8.5v-6.8h3.4v17h-3.4v-7.1h-8.5v7.1h-3.4V78.2z"/>
			<path id="path48" class="st15" d="M159.3,78.2h9.8v2.9h-6.5V85h5.4v2.9h-5.4v4.2h6.5v3.1h-9.8V78.2z M162.5,76.7l2.7-3.2h3.6
				l-3.2,3.2H162.5z"/>
			<path id="path50" class="st15" d="M174.2,90.4c1,1.4,2.4,2,3.7,2c1.4,0,2.2-0.7,2.2-2c0-3.1-7.8-2.4-7.8-8c0-2.7,2.2-4.9,5.4-4.9
				c2.5,0,4.4,1.2,5.9,2.9l-2.5,2.2c-1-1.4-2-2-3.4-2c-1.2,0-1.9,0.8-1.9,1.7c0,3.1,7.8,2.4,7.8,8.1c0,3.1-2.5,5.1-5.6,5.1
				c-2.9,0-4.8-1-6.3-2.9L174.2,90.4z"/>
			<path id="path52" class="st15" d="M187.4,78.2h3.4v17h-3.4V78.2z"/>
			<path id="path54" class="st15" d="M212.4,86.5c0,4.8-3.6,9-9,9c-5.3,0-9-4.1-9-9c0-4.8,3.6-9,9-9
				C208.8,77.7,212.4,81.8,212.4,86.5z M209,86.5c0-3.2-2.2-5.8-5.4-5.8c-3.2,0-5.4,2.5-5.4,5.8s2.2,5.8,5.4,5.8
				C206.6,92.3,209,89.9,209,86.5z"/>
			<path id="path56" class="st15" d="M216,78.2h4.4l7.6,12.1V78.2h3.4v17H227L219.4,83v12.2H216V78.2L216,78.2z"/>
			<path id="path58" class="st15" d="M25.1,104h6.5c5.3,0,8.8,3.9,8.8,8.5c0,4.6-3.6,8.5-8.8,8.5h-6.5V104z M26.6,105.5v14.1h4.9
				c4.2,0,7.1-3.2,7.1-7.1c0-3.9-3.1-7.1-7.1-7.1L26.6,105.5L26.6,105.5z"/>
			<path id="path60" class="st15" d="M44.6,104h8.7v1.4h-7.1v6.3h6.1v1.4h-6.1v6.6h7.1v1.4h-8.7V104z"/>
			<path id="path62" class="st15" d="M57.9,117.6c1.4,1.7,2.7,2.4,4.4,2.4c2.2,0,3.4-1.5,3.4-3.2c0-4.1-8.1-3.7-8.1-9
				c0-2.2,1.9-4.2,4.6-4.2c2.2,0,3.9,1,5.1,2.7l-1.2,1c-1-1.5-2.2-2.2-3.9-2.2c-1.9,0-3.1,1.2-3.1,2.9c0,4.1,8.1,3.7,8.1,9
				c0,2.7-2,4.6-4.9,4.6c-2.4,0-4.1-0.8-5.6-2.7L57.9,117.6z"/>
			<path id="path64" class="st15" d="M76.6,104h13.9v3.1h-5.3v13.8h-3.4v-13.8h-5.3L76.6,104L76.6,104z"/>
			<path id="path66" class="st15" d="M93.7,104h9.8v3.1h-6.5v3.9h5.4v2.9h-5.4v4.2h6.5v2.9h-9.8V104z"/>
			<path id="path68" class="st15" d="M107.8,104h5.3c3.7,0,6.1,1.9,6.1,5.1c0,2-1,3.6-2.7,4.4l5.3,7.5h-4.1l-4.4-6.8h-1.7v6.8h-3.4
				L107.8,104L107.8,104z M111.4,107.1v4.2h1.9c1.5,0,2.4-0.8,2.4-2.2s-0.8-2-2.4-2H111.4z"/>
			<path id="path70" class="st15" d="M124.1,104h5.3c3.7,0,6.1,1.9,6.1,5.1c0,2-1,3.6-2.7,4.4l5.3,7.5H134l-4.4-6.8h-1.7v6.8h-3.4
				L124.1,104L124.1,104z M127.5,107.1v4.2h1.9c1.5,0,2.4-0.8,2.4-2.2s-0.8-2-2.4-2H127.5z"/>
			<path id="path72" class="st15" d="M140.2,104h3.4v17h-3.4V104z"/>
			<path id="path74" class="st15" d="M146.9,104h13.9v3.1h-5.3v13.8h-3.4v-13.8H147L146.9,104L146.9,104z"/>
			<path id="path76" class="st15" d="M179.8,112.5c0,4.8-3.6,9-9,9c-5.3,0-9-4.1-9-9c0-4.9,3.6-9,9-9
				C176.2,103.5,179.8,107.8,179.8,112.5z M176.4,112.5c0-3.2-2.2-5.8-5.4-5.8c-3.2,0-5.4,2.5-5.4,5.8c0,3.2,2.2,5.8,5.4,5.8
				C174,118.3,176.4,115.7,176.4,112.5z"/>
			<path id="path78" class="st15" d="M183.4,104h3.4v17h-3.4V104z"/>
			<path id="path80" class="st15" d="M191.8,104h5.3c3.7,0,6.1,1.9,6.1,5.1c0,2-1,3.6-2.7,4.4l5.3,7.5h-4.1l-4.4-6.8h-1.7v6.8h-3.4
				L191.8,104L191.8,104z M195.2,107.1v4.2h1.9c1.5,0,2.4-0.8,2.4-2.2s-0.8-2-2.4-2H195.2z"/>
			<path id="path82" class="st15" d="M208,104h9.8v3.1h-6.5v3.9h5.4v2.9h-5.4v4.2h6.5v2.9H208V104z"/>
			<path id="path84" class="st15" d="M223.1,116.4c1,1.4,2.4,2,3.7,2c1.4,0,2.2-0.7,2.2-2c0-3.1-7.8-2.4-7.8-8
				c0-2.7,2.2-4.9,5.4-4.9c2.5,0,4.4,1.2,5.9,2.9l-2.5,2.2c-1-1.4-2-2-3.4-2c-1.2,0-1.9,0.8-1.9,1.7c0,3.1,7.8,2.4,7.8,8.1
				c0,3.1-2.5,5.1-5.6,5.1c-2.9,0-4.8-1-6.3-2.9L223.1,116.4z"/>
		</g>
	</g>
</g>
</svg>
