<?xml version="1.0" encoding="utf-8"?>
<!-- Generator: Adobe Illustrator 25.2.0, SVG Export Plug-In . SVG Version: 6.00 Build 0)  -->
<svg version="1.1" id="Logo_x5F_BDT" xmlns="http://www.w3.org/2000/svg" xmlns:xlink="http://www.w3.org/1999/xlink" x="0px"
	 y="0px" viewBox="0 0 600.9 122.4" style="enable-background:new 0 0 600.9 122.4;" xml:space="preserve">
<style type="text/css">
	.st0{fill:#FFFFFF;}
	.st1{fill:#1E1E1E;}
</style>
<g>
	<path class="st0" d="M159.2,76.5h-10.5V108H141V76.5h-10.4v-7.3h28.6V76.5z M187.7,100.6v7.3H164V69.2h23.7v7.3h-16.1v8.3h14.7v7.2
		h-14.7v8.7H187.7z M207.4,94.5h-5.8V108h-7.7V69.2h15.5c7.2,0,12.9,5.8,12.9,12.9c0,4.9-3,9.3-7.5,11.3l8.6,14.6h-8.3L207.4,94.5z
		 M201.6,87.8h7.9c2.9,0,5.3-2.6,5.3-5.8s-2.4-5.7-5.3-5.7h-7.9V87.8z M242,94.5h-5.8V108h-7.7V69.2H244c7.2,0,12.9,5.8,12.9,12.9
		c0,4.9-3,9.3-7.5,11.3l8.6,14.6h-8.3L242,94.5z M236.2,87.8h7.9c2.9,0,5.3-2.6,5.3-5.8s-2.4-5.7-5.3-5.7h-7.9V87.8z M270.8,69.2
		V108h-7.7V69.2H270.8z M304.2,76.5h-10.5V108h-7.7V76.5h-10.4v-7.3h28.6V76.5z M305,88.6c0-11.4,8.9-20.2,20.1-20.2
		c11.2,0,20.2,8.8,20.2,20.2c0,11.3-9,20.2-20.2,20.2C314,108.7,305,99.9,305,88.6z M337.7,88.6c0-7.5-5.5-12.8-12.5-12.8
		c-7,0-12.5,5.3-12.5,12.8c0,7.4,5.5,12.7,12.5,12.7C332.2,101.3,337.7,96,337.7,88.6z M358.9,69.2V108h-7.7V69.2H358.9z
		 M380.2,94.5h-5.8V108h-7.7V69.2h15.5c7.2,0,12.9,5.8,12.9,12.9c0,4.9-3,9.3-7.5,11.3l8.6,14.6H388L380.2,94.5z M374.3,87.8h7.9
		c2.9,0,5.3-2.6,5.3-5.8s-2.4-5.7-5.3-5.7h-7.9V87.8z M425,100.6v7.3h-23.7V69.2H425v7.3h-16.1v8.3h14.7v7.2h-14.7v8.7H425z
		 M429.2,99.1l6.5-3.8c1.4,3.6,4.1,5.9,8.9,5.9c4.6,0,6.2-1.9,6.2-4.1c0-2.9-2.6-4-8.4-5.7c-5.9-1.7-11.7-4.2-11.7-11.6
		c0-7.3,6.1-11.5,12.8-11.5c6.4,0,11.3,3.3,13.9,8.7l-6.4,3.7c-1.4-2.9-3.5-5-7.4-5c-3.2,0-5.1,1.7-5.1,3.9c0,2.4,1.5,3.7,7.4,5.4
		c6.2,1.9,12.7,4,12.7,11.9c0,7.3-5.8,11.7-14.1,11.7C436.5,108.7,431.3,104.9,429.2,99.1z"/>
	<path class="st0" d="M395.6,13.7v38.2h-2.7v-6.3c-2.2,4.2-6.4,6.9-11.7,6.9c-7.8,0-14.1-6.2-14.1-14.3c0-8.1,6.3-14.3,14.1-14.3
		c5.3,0,9.5,2.7,11.7,6.9V13.7H395.6z M392.9,38.3c0-6.5-5.1-11.6-11.6-11.6s-11.6,5.1-11.6,11.6s5.1,11.6,11.6,11.6
		S392.9,44.8,392.9,38.3z M431.7,38.4c0,0.4-0.1,0.9-0.1,1.3h-24.7c0.7,6.2,5.4,10.2,11.6,10.2c4.5,0,7.9-2.1,9.4-5l2.4,1.4
		c-2.2,3.7-6.5,6.2-11.9,6.2c-8.4,0-14.4-6-14.4-14.3c0-8,5.8-14.3,14.1-14.3C426.5,24,431.7,30.9,431.7,38.4z M406.9,37h22
		c-0.6-6.7-5.3-10.4-10.6-10.4C412,26.7,407.5,31,406.9,37z M458.1,44.8c0,4.5-3.9,7.8-9.8,7.8c-5.5,0-9.1-2.6-10.4-6.1l2.3-1.4
		c1,2.9,3.9,4.8,8,4.8c3.8,0,7-1.7,7-5.1c0-7.4-16.5-3.2-16.5-13c0-4.3,3.7-7.8,9.3-7.8c4.4,0,7.8,2.1,9.3,5.5l-2.3,1.3
		c-1.1-2.8-4-4.2-7-4.2c-3.5,0-6.6,1.9-6.6,5.1C441.6,39.1,458.1,34.8,458.1,44.8z M161.2,41.5c0,5.8-4.6,10.4-10.4,10.4h-16.5V13.8
		h15.2c5.6,0,10,4.5,10,10c0,3.7-2,6.8-4.9,8.3C158.5,33.6,161.2,37.2,161.2,41.5z M137.3,16.5v14.6h12.3c3.9,0,7.1-3.3,7.1-7.3
		s-3.2-7.3-7.1-7.3H137.3z M158.3,41.5c0-4.2-3.4-7.7-7.5-7.7h-13.6v15.4h13.6C155,49.2,158.3,45.8,158.3,41.5z M191.4,42.2h-19.1
		l-3.7,9.7h-3.1l14.8-38.1h3.1l14.8,38.1h-3.1L191.4,42.2z M190.3,39.5l-8.5-22.2l-8.5,22.2H190.3z M232.7,13.8v38.1h-2.6
		l-22.5-32.8v32.8h-2.9V13.8h2.5l22.6,32.8V13.8H232.7z M288.3,39.2V13.8h2.9v25.4c0,6.2,3.9,10.6,11.1,10.6
		c7.2,0,11.1-4.4,11.1-10.6V13.8h2.9v25.4c0,8.1-5.6,13.3-14,13.3S288.3,47.3,288.3,39.2z M347.9,49.2v2.7h-21.7V13.8h21.7v2.7
		h-18.8v14.8h17.4v2.7h-17.4v15.1H347.9z M280.4,32.9c0-10.9-8.8-19.7-19.7-19.7c-10.9,0-19.7,8.8-19.7,19.7
		c0,10.9,8.8,19.7,19.7,19.7c3.4,0,6.5-0.8,9.3-2.3l-2.1-2.1c-2.2,1-4.6,1.6-7.2,1.6c-9.3,0-16.8-7.5-16.8-16.9S251.4,16,260.8,16
		c9.3,0,16.8,7.5,16.8,16.9c0,4.8-2,9.1-5.1,12.2l-8.8-8.6l-2,1.8l17.7,17.6l2-1.8l-7-7.1C278.1,43.4,280.4,38.4,280.4,32.9z"/>
	<path class="st0" d="M12.6,100.7L0,93.7v-65l32-17.8l13,7.2l-32.4,18L12.6,100.7z M90.4,79l12.6-7V28.7L51.5,0l-13,7.2l51.9,28.9
		V79z M51.5,107.9L18.9,89.8v14.4l32.5,18.1L103,93.7V79.2L51.5,107.9z"/>
	<rect x="484.4" y="14.8" class="st0" width="1.5" height="93.2"/>
	<g>
		<g>
			<rect x="507.8" y="14.6" class="st0" width="93.2" height="93.2"/>
			<g>
				<g>
					<g>
						<path class="st1" d="M519.6,65c-2.1,0-3,1.7-3,3.8c0,1.9,0.8,3.8,3,3.8c1.5,0,2.3-1,2.5-2.5h2.4c-0.3,3-2.3,4.6-4.9,4.6
							c-3.4,0-5.5-2.6-5.5-5.8c0-3.4,2.1-5.9,5.5-5.9c2.6,0,4.5,1.6,4.8,4c0,0-2.4,0-2.4,0C521.9,65.9,520.8,65,519.6,65z"/>
						<path class="st1" d="M532.9,72.6v-4.2c0-2.1-2.3-2.3-3.5-2.3c-1.7,0-3.7,0.6-3.8,2.7c0,0,2.2,0,2.2,0c0.1-0.9,0.6-1.2,1.5-1.2
							c0.8,0,1.4,0.2,1.4,1.1c0,0.5-0.4,0.8-1.6,0.9c-0.3,0-0.6,0.1-1,0.1c-1.3,0.2-2.7,0.6-2.7,2.5c0,1.6,1.1,2.4,2.7,2.4
							c0.9,0,2-0.2,2.7-1c0,0.2,0.1,0.6,0.2,0.8c0,0,2.2,0,2.2,0C532.9,74.1,532.9,73.2,532.9,72.6z M530.7,71.3
							c0,1.4-0.8,1.9-1.8,1.9c-0.7,0-1.4-0.2-1.4-1c0-0.6,0.3-1,1.3-1.2c0.2,0,0.4-0.1,0.5-0.1c0.4,0,1.1-0.2,1.3-0.4
							C530.7,70.5,530.7,71.3,530.7,71.3z"/>
						<path class="st1" d="M534.4,65.1v-1.8h2.2v1.8H534.4z M536.6,66.3v8.1h-2.2v-8.1H536.6z"/>
						<path class="st1" d="M541.5,73.2c0.6,0,1.4-0.2,1.4-1c0-0.2-0.1-0.4-0.2-0.5c-0.8-0.8-3.3-0.6-4.4-1.7
							c-0.3-0.3-0.5-0.7-0.5-1.3c0-1.7,1.2-2.6,3.5-2.6c1.5,0,3.4,0.5,3.5,2.6h-2.1c0-0.9-0.7-1.1-1.5-1.1c-0.6,0-1.2,0.1-1.2,0.8
							c0,0.5,0.6,0.8,1.6,1c0.3,0.1,0.6,0.1,0.9,0.2c1.3,0.3,2.6,0.8,2.6,2.3c0,1.7-1.2,2.8-3.7,2.8c-2,0-3.7-0.8-3.8-2.8h2.1
							C539.8,72.7,540.6,73.2,541.5,73.2z"/>
						<path class="st1" d="M535.7,88.4c0.6,0,1.4-0.2,1.4-1c0-0.2-0.1-0.4-0.2-0.5c-0.8-0.8-3.3-0.6-4.4-1.7
							c-0.3-0.3-0.5-0.7-0.5-1.3c0-1.7,1.2-2.6,3.5-2.6c1.5,0,3.4,0.5,3.5,2.6H537c0-0.9-0.7-1.1-1.5-1.1c-0.6,0-1.2,0.1-1.2,0.8
							c0,0.5,0.6,0.8,1.6,1c0.3,0.1,0.6,0.1,0.9,0.2c1.3,0.3,2.6,0.8,2.6,2.3c0,1.7-1.2,2.8-3.7,2.8c-2,0-3.7-0.8-3.8-2.8h2.1
							C534,88,534.7,88.4,535.7,88.4z"/>
						<path class="st1" d="M590.3,88.4c0.6,0,1.4-0.2,1.4-1c0-0.2-0.1-0.4-0.2-0.5c-0.8-0.8-3.3-0.6-4.4-1.7
							c-0.3-0.3-0.5-0.7-0.5-1.3c0-1.7,1.2-2.6,3.5-2.6c1.5,0,3.4,0.5,3.5,2.6h-2.1c0-0.9-0.7-1.1-1.5-1.1c-0.6,0-1.2,0.1-1.2,0.8
							c0,0.5,0.6,0.8,1.6,1c0.3,0.1,0.6,0.1,0.9,0.2c1.3,0.3,2.6,0.8,2.6,2.3c0,1.7-1.2,2.8-3.7,2.8c-2,0-3.7-0.8-3.8-2.8h2.1
							C588.6,88,589.3,88.4,590.3,88.4z"/>
						<path class="st1" d="M549.8,73.2c0.6,0,1.4-0.2,1.4-1c0-0.2-0.1-0.4-0.2-0.5c-0.8-0.8-3.3-0.6-4.4-1.7
							c-0.3-0.3-0.5-0.7-0.5-1.3c0-1.7,1.2-2.6,3.5-2.6c1.5,0,3.4,0.5,3.5,2.6h-2.1c0-0.9-0.7-1.1-1.5-1.1c-0.6,0-1.2,0.1-1.2,0.8
							c0,0.5,0.6,0.8,1.6,1c0.3,0.1,0.6,0.1,0.9,0.2c1.3,0.3,2.6,0.8,2.6,2.3c0,1.7-1.2,2.8-3.7,2.8c-2,0-3.7-0.8-3.8-2.8h2.1
							C548.1,72.7,548.9,73.2,549.8,73.2z"/>
						<path class="st1" d="M558.4,73c0.9,0,1.6-0.5,1.7-1.1h1.9c-0.7,2.2-2.2,2.7-3.8,2.7c-2.7,0-4.1-1.9-4.1-4.3
							c0-2.5,1.7-4.3,4.1-4.3c2.9,0,4.1,2.5,3.9,4.8h-5.8C556.5,72.4,557.2,73,558.4,73z M558.3,67.8c-1.2,0-1.8,0.8-1.8,1.7h3.6
							C559.8,68.4,559.4,67.8,558.3,67.8z"/>
						<path class="st1" d="M527.3,88.2c0.9,0,1.6-0.5,1.7-1.1h1.9c-0.7,2.2-2.2,2.7-3.8,2.7c-2.7,0-4.1-1.9-4.1-4.3
							c0-2.5,1.7-4.3,4.1-4.3c2.9,0,4.1,2.5,3.9,4.8h-5.8C525.4,87.7,526.1,88.2,527.3,88.2z M527.2,83c-1.2,0-1.8,0.8-1.8,1.7h3.6
							C528.7,83.6,528.3,83,527.2,83z"/>
						<path class="st1" d="M520.1,88.7c-0.5,0.9-1.4,1.2-2.4,1.2c-2.5,0-3.6-2.1-3.6-4.3c0-2.4,1.3-4.2,3.6-4.2
							c0.9,0,1.9,0.4,2.4,1.2h0v-4.1h2.2v11.2h-2.1L520.1,88.7L520.1,88.7z M518.2,83c-1.4,0-1.9,1.1-1.9,2.6c0,1.2,0.5,2.6,1.9,2.6
							c1.5,0,1.9-1.3,1.9-2.6C520.1,84.3,519.7,83,518.2,83z"/>
						<path class="st1" d="M548.4,78.5c2.8,0,5,1.8,5,5.5c0,3.4-1.8,5.7-5,5.7h-4.8V78.5H548.4z M548.2,87.6c1.7,0,2.8-1.1,2.8-3.4
							c0-2.1-0.7-3.7-3.2-3.7H546v7.1H548.2z"/>
						<g>
							<path class="st1" d="M558.4,88.2c0.9,0,1.6-0.5,1.7-1.1h1.9c-0.7,2.2-2.2,2.7-3.8,2.7c-2.7,0-4.1-1.9-4.1-4.3
								c0-2.5,1.7-4.3,4.1-4.3c2.9,0,4.1,2.5,3.9,4.8h-5.8C556.5,87.7,557.2,88.2,558.4,88.2z M558.3,83c-1.2,0-1.8,0.8-1.8,1.7h3.6
								C559.8,83.6,559.4,83,558.3,83z"/>
							<path class="st1" d="M558.7,77.4l-1.6,2.8h1.5l2.5-2.8H558.7z"/>
						</g>
						<path class="st1" d="M565.3,81.6v1h0c0.6-0.9,1.4-1.3,2.4-1.3c2.6,0,3.7,2.2,3.7,4.4c0,2.2-1.2,4.2-3.5,4.2
							c-1,0-1.9-0.4-2.4-1.2h0v3.8h-2.2v-11H565.3z M569.1,85.7c0-1.5-0.6-2.6-1.9-2.6c-1.2,0-1.9,1-1.9,2.6c0,1.4,0.6,2.6,1.9,2.6
							C568.6,88.2,569.1,87.1,569.1,85.7z"/>
						<path class="st1" d="M576.4,81.3c2.6,0,4.2,1.7,4.2,4.3c0,2.5-1.5,4.3-4.2,4.3c-2.4,0-4.2-1.5-4.2-4.3
							C572.2,83,573.9,81.3,576.4,81.3z M577.4,78.3l1.7,2.2h-1.8l-1-1.3l-1,1.3h-1.7l1.7-2.2H577.4z M576.4,88.2c1.5,0,2-1.3,2-2.6
							c0-1.2-0.4-2.6-2-2.6c-1.4,0-1.9,1.1-1.9,2.6C574.4,87.1,575,88.2,576.4,88.2z"/>
						<path class="st1" d="M586,81.6v1.5h-1.6v4c0,0.8,0.2,0.9,0.9,0.9c0.2,0,0.5,0,0.7-0.1v1.7c-0.4,0.1-0.9,0.1-1.3,0.1
							c-1.5,0-2.5-0.3-2.5-1.9v-4.8h-1.3v-1.5h1.3v-2.4h2.2v2.4H586z"/>
					</g>
				</g>
				<g>
					<path class="st1" d="M514.4,98L514.4,98c0-1.7,1.3-3.1,3-3.1c1,0,1.7,0.3,2.3,0.8l-0.7,0.8c-0.5-0.4-0.9-0.6-1.6-0.6
						c-1.1,0-1.9,1-1.9,2.1v0c0,1.2,0.8,2.1,2,2.1c0.6,0,1.1-0.2,1.4-0.4v-1.1h-1.5v-0.9h2.5v2.5c-0.6,0.5-1.4,0.9-2.5,0.9
						C515.6,101.1,514.4,99.8,514.4,98z"/>
					<path class="st1" d="M522.7,95h2.6c0.7,0,1.3,0.2,1.7,0.6c0.3,0.3,0.5,0.8,0.5,1.3v0c0,1-0.6,1.6-1.4,1.8l1.6,2.2h-1.2
						l-1.4-2.1h0h-1.3v2.1h-1V95z M525.3,98c0.7,0,1.2-0.4,1.2-1v0c0-0.6-0.5-1-1.2-1h-1.5v2H525.3z"/>
					<path class="st1" d="M529.6,98L529.6,98c0-1.7,1.3-3.1,3.1-3.1c1.8,0,3.1,1.4,3.1,3.1v0c0,1.7-1.3,3.1-3.1,3.1
						C530.9,101.1,529.6,99.7,529.6,98z M534.7,98L534.7,98c0-1.2-0.8-2.1-2-2.1c-1.2,0-2,0.9-2,2.1v0c0,1.2,0.8,2.1,2,2.1
						C533.8,100.1,534.7,99.2,534.7,98z"/>
					<path class="st1" d="M538,98.5V95h1v3.4c0,1.1,0.6,1.7,1.5,1.7c0.9,0,1.5-0.6,1.5-1.7V95h1v3.4c0,1.8-1,2.7-2.5,2.7
						C538.9,101.1,538,100.2,538,98.5z"/>
					<path class="st1" d="M545.5,95h2.3c1.4,0,2.2,0.8,2.2,2v0c0,1.3-1.1,2-2.4,2h-1.2v1.9h-1V95z M547.7,98.1
						c0.8,0,1.3-0.4,1.3-1.1v0c0-0.7-0.5-1.1-1.3-1.1h-1.2v2.1H547.7z"/>
					<path class="st1" d="M552.1,95h4.4V96h-3.3v1.5h2.9v0.9h-2.9v1.6h3.4v0.9h-4.4V95z"/>
				</g>
			</g>
			<g>
				<path class="st1" d="M576.2,45.7c0.3,0.4,0.6,0.8,1,1.1c0.4-0.2,0.9-0.2,1.5-0.1c-0.9-0.6-1.6-1.5-2.3-2.4
					c-0.4-0.5-0.7-1.1-1-1.7c-0.5-1.2-1.1-2.1-1.8-2.7c-1-0.9-2.3-1.4-3.6-0.3c0.5,0.5,1.7,1,2.6,0.1c0.6,0.4,1.2,1.1,1.6,2.1
					c0.1,0.3,0.2,0.7,0.4,1c-0.8-0.5-1.8-0.4-2.3,0.3c0.4,0.2,1.2,0.4,1.6-0.3c0.1,0,0.3,0.1,0.4,0.1c0.7,0.4,0.9,1.1,1.4,1.7
					c-0.3,0-0.6,0.2-0.9,0.4C575.2,44.9,575.7,45.1,576.2,45.7z"/>
				<path class="st1" d="M574.1,29.7c0.2,0.7,0,1.3-0.1,1.6c-0.2,0.6-0.8,1.1-1.3,1.5c-0.8-0.8-1.9-0.2-2.4,0.4
					c1,0.7,2.4,0.4,3.4-0.6c-0.1,0.5-0.2,1-0.3,1.5c-0.3-0.2-0.6-0.2-1-0.1c0.6,0.1,0.9,0.5,0.9,1.1c0,0.1,0,0.4,0,0.5
					c-0.3-0.3-0.7-0.6-1.3-0.8c-0.5-0.2-1.3-0.2-1.9,0.2c0.4,0.8,1.7,0.9,2.5,0.4c0.3,0.3,0.7,0.7,0.7,1.5c0,0.8-0.4,1.4-1.3,1.6
					c0.6,0.1,1,0,1.4-0.3c0,0.4,0.1,0.7,0.1,1.1c0.4,0.3,0.7,0.7,1.1,1.2c-0.4-1.4-0.6-2.9-0.6-4.5c0-1.7,0.3-3.1,0.5-4.1
					c0.2-0.8,0.2-1.4,0.1-2c-0.2-1.3-1.1-1.9-2.3-2C572.3,28.7,572.8,29.9,574.1,29.7z"/>
				<path class="st1" d="M574.8,29.4c0.1,0.3,0.1,0.6,0.2,0.9c0.1-0.4,0.3-0.7,0.5-1.1c1.4-2.7,0.8-4.1-0.8-4.9
					c-0.3,0.7-0.4,2.2,1.1,2.7c-0.1,0.5-0.2,1.2-0.7,2C574.9,29.1,574.9,29.3,574.8,29.4z"/>
				<path class="st1" d="M574.5,27.8c0.1-0.6-0.3-1.3-1.1-1.3C573.2,27.2,573.8,27.8,574.5,27.8z"/>
				<path class="st1" d="M583.2,52.6l-1.5-0.9c0,0,0.2,0.4,0.2,0.9c0,0.5-0.2,0.9-0.2,0.9L583.2,52.6z"/>
				<path class="st1" d="M583.3,52.7l-0.9,1.5c0,0,0.4-0.2,0.9-0.2c0.5,0,0.9,0.2,0.9,0.2L583.3,52.7z"/>
				<path class="st1" d="M583.4,52.6l1.5,0.9c0,0-0.2-0.4-0.2-0.9c0-0.5,0.2-0.9,0.2-0.9L583.4,52.6z"/>
				<path class="st1" d="M582.5,51l0.9,1.5l0.9-1.5c0,0-0.4,0.2-0.9,0.2C582.8,51.2,582.5,51,582.5,51z"/>
				<path class="st1" d="M576.5,46.9c-0.3-0.2-0.5-0.3-0.8-0.4c-0.1-0.7-0.8-1-2-0.8c0.1,0.5,0.6,0.8,1.1,1
					c-0.4,0.3-0.9,0.8-1.3,1.6C574.6,48.6,575.9,48,576.5,46.9z"/>
				<path class="st1" d="M574.2,44c-0.9-0.2-1.8,0.1-2.2,0.8C572.9,45.3,574.1,44.9,574.2,44z"/>
				<path class="st1" d="M572.8,41.7c0.2-0.6-0.3-1-1.3-1c0,0.2,0.1,0.4,0.3,0.5c-0.4,0.1-0.8,0.4-1.3,0.9
					C571.1,42.5,572.1,42.3,572.8,41.7z"/>
				<path class="st1" d="M572.6,30.4c-0.1-0.2-0.2-0.3-0.3-0.4c0.2-0.4-0.2-0.8-0.9-1c-0.1,0.3,0.1,0.6,0.3,0.9
					c-0.3,0-0.7,0.2-1.2,0.6C571,30.9,571.9,30.8,572.6,30.4z"/>
				<path class="st1" d="M579,50.8c-0.5-0.5-1.3-0.3-1.7,0.2C577.8,51.4,578.6,51.4,579,50.8z"/>
				<path class="st1" d="M573.1,31.4c-0.5-0.5-1.2-0.4-1.6,0.1C571.9,31.9,572.6,32,573.1,31.4z"/>
				<path class="st1" d="M571,37.9c0.4,0.2,1.2,0.2,1.4-0.4C571.9,37.1,571.2,37.3,571,37.9z"/>
				<path class="st1" d="M572.2,46.8c0.4,0.4,1.2,0.5,1.7-0.1C573.4,46.2,572.5,46.3,572.2,46.8z"/>
				<path class="st1" d="M576.9,48.9c-0.6-0.4-1.4,0-1.5,0.6C575.8,49.7,576.6,49.6,576.9,48.9z"/>
				<path class="st1" d="M572.3,43.8c-0.4-0.4-1.1-0.3-1.4,0.1C571.2,44.2,571.9,44.3,572.3,43.8z"/>
				<path class="st1" d="M571.7,36.6c-0.6-0.7-1.7-0.7-2.2,0C570.1,37.1,571.1,37.4,571.7,36.6z"/>
				<path class="st1" d="M584.5,49.5c0.1-0.2,0-0.3-0.1-0.4c-0.1-0.1-0.3-0.3-0.8-0.7c-0.1-0.1-0.2-0.1-0.3-0.1s-0.2,0.1-0.3,0.1
					c-0.5,0.4-0.7,0.6-0.8,0.7c-0.1,0.1-0.2,0.3-0.1,0.4c0.1,0.2,0.3,0.2,0.4,0.1c-0.2,0.2,0,0.5,0.1,0.5c0.1,0.1,0.3,0,0.4-0.1
					c0,0.3,0.1,0.4,0.3,0.4c0.2,0,0.4-0.2,0.3-0.4c0.1,0.2,0.3,0.2,0.4,0.1c0.1-0.1,0.2-0.3,0.1-0.5
					C584.3,49.8,584.5,49.7,584.5,49.5z"/>
				<path class="st1" d="M580.2,47.6c-0.8-0.4-2.3-0.9-3.2-0.3c-0.4,0.2-0.7,0.6-0.7,1c0.6-0.7,2.2-0.9,2.7,0.4
					c0.1,0.4,0.1,0.9-0.3,1.1c0.1-0.9-0.4-1.5-1.2-1.5c-0.1,0.4,0,0.9,0.3,1.2c-0.3,0-0.5,0-0.7,0.1c0,0,0.3,0.5,0.9,0.6
					c0.5,0,0.9-0.1,1.2-0.5c0.1,0.6,0.2,1.1,0.8,1.3c-0.6,0.3-1.1,0.8-1.3,1.4c2.6-0.1,2.4-1.1,2.1-1.7c-1.5,0.4-1.2-1.1-1.2-2.1
					c0.1,0.1,0.6,0.3,1,0.4c-0.1,0.3-0.2,0.5-0.5,0.6c0.8-0.1,1.1-0.3,2.4-1.4C581.7,48.2,580.9,47.9,580.2,47.6z"/>
				<path class="st1" d="M593.1,39.9c-0.6,0.6-1.3,1.5-1.8,2.7c-0.3,0.6-0.6,1.2-1,1.7c-0.7,1-1.5,1.8-2.3,2.4
					c0.7-0.1,1.2-0.1,1.5,0.1c0.3-0.3,0.6-0.7,1-1.1c0.5-0.6,0.9-0.8,1.6-0.6c-0.3-0.3-0.5-0.4-0.9-0.4c0.4-0.7,0.6-1.3,1.4-1.7
					c0,0,0.3-0.1,0.4-0.1c0.4,0.7,1.2,0.5,1.6,0.3c-0.6-0.7-1.5-0.8-2.3-0.3c0.1-0.3,0.3-0.6,0.4-1c0.3-1.1,0.9-1.8,1.6-2.1
					c0.9,0.9,2.1,0.4,2.6-0.1C595.4,38.5,594.1,38.9,593.1,39.9z"/>
				<path class="st1" d="M592.1,29.9c-0.1,0.6-0.1,1.2,0.1,2c0.2,1,0.5,2.4,0.5,4.1c0,1.5-0.2,3.1-0.6,4.5c0.4-0.5,0.7-0.9,1.1-1.2
					c0.1-0.4,0.1-0.7,0.1-1.1c0.3,0.3,0.8,0.4,1.4,0.3c-0.9-0.2-1.3-0.8-1.3-1.6c0-0.7,0.4-1.2,0.7-1.5c0.8,0.5,2.1,0.4,2.5-0.4
					c-0.6-0.3-1.4-0.4-1.9-0.2c-0.6,0.2-1,0.5-1.3,0.8c0-0.1,0-0.4,0-0.5c0-0.6,0.3-1,0.9-1.1c-0.4-0.1-0.7,0-1,0.1
					c-0.1-0.5-0.2-1-0.3-1.5c1,0.9,2.4,1.3,3.4,0.6c-0.6-0.5-1.6-1.2-2.4-0.4c-0.5-0.4-1.1-0.9-1.3-1.5c-0.1-0.3-0.3-0.9-0.1-1.6
					c1.3,0.2,1.8-1,1.8-1.8C593.2,28,592.3,28.6,592.1,29.9z"/>
				<path class="st1" d="M591.2,29.2c0.2,0.4,0.3,0.7,0.5,1.1c0-0.3,0.1-0.6,0.2-0.9c-0.1-0.1-0.1-0.2-0.2-0.3
					c-0.4-0.8-0.6-1.5-0.7-2c1.4-0.5,1.4-2,1.1-2.7C590.4,25.1,589.8,26.5,591.2,29.2z"/>
				<path class="st1" d="M592.1,27.8c0.7,0,1.3-0.6,1.1-1.3C592.4,26.5,592.1,27.3,592.1,27.8z"/>
				<path class="st1" d="M592.9,45.7c-1.2-0.2-2,0.1-2,0.8c-0.3,0.1-0.5,0.2-0.8,0.4c0.7,1.1,1.9,1.7,3,1.4
					c-0.5-0.8-0.9-1.4-1.3-1.6C592.4,46.5,592.8,46.1,592.9,45.7z"/>
				<path class="st1" d="M592.5,44c0.1,0.8,1.2,1.2,2.2,0.8C594.3,44.2,593.4,43.9,592.5,44z"/>
				<path class="st1" d="M594.9,41.2c0.1-0.1,0.2-0.3,0.3-0.5c-1,0-1.5,0.4-1.3,1c0.7,0.6,1.7,0.8,2.4,0.4
					C595.7,41.6,595.3,41.3,594.9,41.2z"/>
				<path class="st1" d="M595.3,29c-0.7,0.2-1.1,0.6-0.9,1c-0.1,0.1-0.2,0.2-0.3,0.4c0.7,0.4,1.6,0.5,2.1,0
					c-0.5-0.4-0.9-0.5-1.2-0.6C595.2,29.6,595.3,29.3,595.3,29z"/>
				<path class="st1" d="M589.3,51c-0.3-0.5-1.2-0.7-1.7-0.2C588.1,51.4,588.9,51.4,589.3,51z"/>
				<path class="st1" d="M593.6,31.4c0.4,0.6,1.2,0.4,1.6,0.1C594.8,31.1,594,30.9,593.6,31.4z"/>
				<path class="st1" d="M595.6,37.9c-0.2-0.5-0.9-0.8-1.4-0.4C594.5,38,595.2,38.1,595.6,37.9z"/>
				<path class="st1" d="M594.5,46.8c-0.4-0.5-1.2-0.6-1.7-0.1C593.3,47.3,594.1,47.2,594.5,46.8z"/>
				<path class="st1" d="M589.8,48.9c0.3,0.7,1,0.8,1.5,0.6C591.2,48.9,590.4,48.5,589.8,48.9z"/>
				<path class="st1" d="M595.8,43.9c-0.3-0.4-1-0.5-1.4-0.1C594.8,44.3,595.4,44.2,595.8,43.9z"/>
				<path class="st1" d="M594.9,36.6c0.7,0.7,1.7,0.5,2.2,0C596.6,36,595.5,35.9,594.9,36.6z"/>
				<path class="st1" d="M590.4,48.3c-0.1-0.4-0.4-0.8-0.7-1c-0.9-0.5-2.4-0.1-3.2,0.3c-0.7,0.3-1.5,0.5-2.2,0.6
					c1.3,1.1,1.6,1.4,2.4,1.4c-0.2-0.2-0.4-0.4-0.5-0.6c0.4-0.2,0.9-0.4,1-0.4c0,1,0.3,2.5-1.2,2.1c-0.2,0.6-0.5,1.6,2.1,1.7
					c-0.1-0.6-0.7-1.1-1.3-1.4c0.6-0.2,0.7-0.7,0.8-1.3c0.3,0.3,0.7,0.5,1.2,0.5c0.6,0,0.9-0.6,0.9-0.6c-0.2-0.1-0.4-0.1-0.7-0.1
					c0.3-0.3,0.4-0.8,0.3-1.2c-0.8,0-1.4,0.6-1.2,1.5c-0.4-0.2-0.4-0.8-0.3-1.1C588.2,47.4,589.8,47.6,590.4,48.3z"/>
				<path class="st1" d="M591.8,36c0-6.3-3.8-11.4-8.4-11.4s-8.4,5.1-8.4,11.4c0,6.3,3.8,11.4,8.4,11.4S591.8,42.3,591.8,36z
					 M583.3,46.6c-4.2,0-7.6-4.8-7.6-10.6c0-5.9,3.4-10.6,7.6-10.6s7.6,4.8,7.6,10.6C590.9,41.8,587.5,46.6,583.3,46.6z"/>
				<path class="st1" d="M583.3,26.1c-0.7,0-1.4,0.2-2.1,0.5h4.1C584.7,26.3,584,26.1,583.3,26.1z"/>
				<path class="st1" d="M586.5,27.2h-6.3c-0.2,0.1-0.4,0.3-0.6,0.5h7.4C586.9,27.5,586.7,27.4,586.5,27.2z"/>
				<path class="st1" d="M587.7,28.4H579c-0.1,0.1-0.2,0.3-0.4,0.5h9.4C587.9,28.7,587.8,28.5,587.7,28.4z"/>
				<path class="st1" d="M576.5,36.3c0,0.2,0,0.3,0,0.5h13.7c0-0.2,0-0.3,0-0.5H576.5z"/>
				<path class="st1" d="M580.2,44.7h6.3c0.2-0.1,0.4-0.3,0.6-0.5h-7.5C579.8,44.4,580,44.6,580.2,44.7z"/>
				<path class="st1" d="M583.3,45.9c0.7,0,1.4-0.2,2.1-0.5h-4.1C581.9,45.7,582.6,45.9,583.3,45.9z"/>
				<path class="st1" d="M579.4,29.5h-1.3c-0.1,0.2-0.2,0.3-0.3,0.5h1.2C579.2,29.8,579.3,29.7,579.4,29.5z"/>
				<path class="st1" d="M587.6,30h1.2c-0.1-0.2-0.2-0.3-0.3-0.5h-1.3C587.4,29.7,587.5,29.8,587.6,30z"/>
				<path class="st1" d="M578.8,30.7h-1.2c-0.1,0.2-0.1,0.3-0.2,0.5h1.3C578.7,31,578.7,30.8,578.8,30.7z"/>
				<path class="st1" d="M588,31.1h1.3c-0.1-0.2-0.1-0.3-0.2-0.5h-1.2C587.9,30.8,588,31,588,31.1z"/>
				<path class="st1" d="M578.6,32c0-0.1,0-0.2,0-0.2h-1.5c-0.1,0.2-0.1,0.3-0.1,0.5h0.9C578.1,32.1,578.4,32,578.6,32z"/>
				<path class="st1" d="M588,32c0.3,0,0.6,0.1,0.8,0.2h0.9c0-0.2-0.1-0.3-0.1-0.5h-1.5C588,31.9,588,31.9,588,32z"/>
				<path class="st1" d="M577.3,32.9h-0.4c0,0.2-0.1,0.3-0.1,0.5h0.4C577.1,33.2,577.2,33.1,577.3,32.9z"/>
				<path class="st1" d="M589.6,33.4h0.4c0-0.2-0.1-0.3-0.1-0.5h-0.4C589.5,33.1,589.5,33.2,589.6,33.4z"/>
				<path class="st1" d="M577.2,34.4c-0.1-0.1-0.1-0.2-0.1-0.3h-0.5c0,0.2,0,0.3-0.1,0.5h0.8C577.3,34.5,577.3,34.4,577.2,34.4z"/>
				<path class="st1" d="M589.4,34.4c0,0,0,0.1-0.1,0.1h0.8c0-0.2,0-0.3-0.1-0.5h-0.5C589.5,34.2,589.5,34.3,589.4,34.4z"/>
				<path class="st1" d="M585.9,29.5h-5.1c0.1,0.1,0.2,0.3,0.3,0.5h4.4C585.6,29.8,585.7,29.7,585.9,29.5z"/>
				<path class="st1" d="M585.2,30.7h-3.8c0.1,0.2,0.1,0.3,0.1,0.5h3.5C585.1,31,585.2,30.8,585.2,30.7z"/>
				<path class="st1" d="M585.1,32c0-0.1,0-0.2,0-0.2h-3.4c0,0.1,0,0.2,0,0.2c0.3,0,0.6,0.1,0.8,0.2h2C584.5,32.1,584.8,32,585.1,32
					z"/>
				<path class="st1" d="M583.5,33.4c0-0.2,0.1-0.3,0.2-0.5H583c0.1,0.1,0.1,0.3,0.2,0.5H583.5z"/>
				<path class="st1" d="M583.8,34.5c-0.1-0.1-0.1-0.3-0.2-0.5h-0.5c0,0.2-0.1,0.4-0.2,0.5H583.8z"/>
				<path class="st1" d="M582.7,37.5h-6.1c0,0.2,0,0.3,0.1,0.5h5.7C582.4,37.8,582.5,37.6,582.7,37.5z"/>
				<path class="st1" d="M584.3,37.9h5.7c0-0.2,0-0.3,0.1-0.5H584C584.1,37.6,584.2,37.8,584.3,37.9z"/>
				<path class="st1" d="M582,38.6h-5.3c0,0.2,0.1,0.3,0.1,0.5h5.1C581.9,38.9,581.9,38.8,582,38.6z"/>
				<path class="st1" d="M584.8,39.1h5.1c0-0.2,0.1-0.3,0.1-0.5h-5.3C584.7,38.8,584.8,38.9,584.8,39.1z"/>
				<path class="st1" d="M581.9,40c0-0.1,0-0.2,0-0.2H577c0,0.2,0.1,0.3,0.1,0.5h4C581.3,40.1,581.6,40,581.9,40z"/>
				<path class="st1" d="M584.8,40c0.3,0,0.5,0.1,0.8,0.2h4c0.1-0.2,0.1-0.3,0.1-0.5h-4.8C584.8,39.8,584.8,39.9,584.8,40z"/>
				<path class="st1" d="M580.5,40.9h-3.1c0.1,0.2,0.1,0.3,0.2,0.5h2.8C580.4,41.2,580.4,41,580.5,40.9z"/>
				<path class="st1" d="M586.3,41.3h2.8c0.1-0.2,0.1-0.3,0.2-0.5h-3.1C586.3,41,586.3,41.2,586.3,41.3z"/>
				<path class="st1" d="M581.4,42.5h0.9c0-0.2-0.2-0.4-0.4-0.4C581.7,42.1,581.5,42.3,581.4,42.5z"/>
				<path class="st1" d="M584.3,42.5h0.9c-0.1-0.2-0.3-0.4-0.5-0.4C584.5,42.1,584.4,42.3,584.3,42.5z"/>
				<path class="st1" d="M578.2,34.5h0.9c0-0.2-0.2-0.4-0.4-0.4C578.4,34.1,578.3,34.3,578.2,34.5z"/>
				<path class="st1" d="M581.6,34.1c-0.2,0-0.4,0.2-0.4,0.4h0.9C581.9,34.3,581.8,34.1,581.6,34.1z"/>
				<path class="st1" d="M588,34.1c-0.2,0-0.4,0.2-0.4,0.4h0.9C588.4,34.3,588.2,34.1,588,34.1z"/>
				<path class="st1" d="M585.1,34.1c-0.2,0-0.4,0.2-0.5,0.4h0.9C585.5,34.3,585.3,34.1,585.1,34.1z"/>
				<path class="st1" d="M580.3,42h-2.4c0.1,0.2,0.2,0.3,0.3,0.5h2.4C580.4,42.4,580.4,42.1,580.3,42z"/>
				<path class="st1" d="M586.1,42.5h2.4c0.1-0.2,0.2-0.3,0.3-0.5h-2.4C586.3,42.1,586.2,42.4,586.1,42.5z"/>
				<path class="st1" d="M581.6,33.6c0.4,0,0.7,0.2,0.9,0.6c0.1-0.1,0.1-0.3,0.1-0.5c0-0.6-0.5-1.1-1.1-1.1c-0.2,0-0.4,0.1-0.5,0.2
					l-0.4,0.5l-0.1-0.1c0,0,0.6-1,0.6-1.6c0-0.6-0.4-1.5-1-2c-0.6,0.5-1,1.4-1,2c0,0.6,0.6,1.6,0.6,1.6l-0.1,0.1l-0.4-0.5
					c-0.2-0.1-0.3-0.2-0.5-0.2c-0.6,0-1.1,0.5-1.1,1.1c0,0.2,0,0.3,0.1,0.5c0.2-0.3,0.5-0.6,0.9-0.6c0.6,0,1,0.6,1,1.1c0,0,0,0,0,0
					c0,0.2,0,0.4-0.1,0.6l0,0c-0.1,0.2-0.1,0.3-0.2,0.5h1.5c-0.1-0.1-0.2-0.3-0.2-0.5l0,0c0-0.2-0.1-0.4-0.1-0.6c0,0,0,0,0,0
					C580.6,34.1,580.9,33.6,581.6,33.6z M580.1,30.1c0.7,1,0.6,1.8,0,2.9V30.1z"/>
				<path class="st1" d="M588,33.6c0.4,0,0.7,0.2,0.9,0.6c0.1-0.1,0.1-0.3,0.1-0.5c0-0.6-0.5-1.1-1.1-1.1c-0.2,0-0.4,0.1-0.5,0.2
					l-0.4,0.5l-0.1-0.1c0,0,0.6-1,0.6-1.6c0-0.6-0.4-1.5-1-2c-0.6,0.5-1,1.4-1,2c0,0.6,0.6,1.6,0.6,1.6l-0.1,0.1l-0.4-0.5
					c-0.2-0.1-0.3-0.2-0.5-0.2c-0.6,0-1.1,0.5-1.1,1.1c0,0.2,0,0.3,0.1,0.5c0.2-0.3,0.5-0.6,0.9-0.6c0.6,0,1,0.6,1,1c0,0,0,0,0,0
					c0,0.2,0,0.4-0.1,0.6l0,0c-0.1,0.2-0.1,0.3-0.2,0.5h1.5c-0.1-0.1-0.2-0.3-0.2-0.5l0,0c0-0.2-0.1-0.4-0.1-0.6c0,0,0,0,0,0
					C587,34.1,587.4,33.6,588,33.6z M586.5,30.1c0.7,1,0.6,1.8,0,2.9V30.1z"/>
				<path class="st1" d="M583.3,37.6c-0.6,0.5-1,1.4-1,2c0,0.6,0.6,1.6,0.6,1.6l-0.1,0.1l-0.4-0.5c-0.2-0.1-0.3-0.2-0.5-0.2
					c-0.6,0-1.1,0.5-1.1,1.1c0,0.2,0,0.3,0.1,0.5c0.2-0.3,0.5-0.6,0.9-0.6c0.6,0,1,0.6,1,1.1c0,0.4-0.1,0.8-0.3,1h1.5
					c-0.1-0.2-0.3-0.6-0.3-1c0,0,0,0,0,0c0-0.5,0.4-1,1-1c0.4,0,0.7,0.2,0.9,0.6c0.1-0.1,0.1-0.3,0.1-0.5c0-0.6-0.5-1.1-1.1-1.1
					c-0.2,0-0.4,0.1-0.5,0.2l-0.4,0.5l-0.1-0.1c0,0,0.6-1,0.6-1.6C584.3,39,583.9,38,583.3,37.6z M583.3,40.9v-2.9
					C584,39.1,583.9,39.9,583.3,40.9z"/>
				<path class="st1" d="M582.2,43.1h-3.6c0.1,0.2,0.2,0.3,0.4,0.5h3C582.1,43.5,582.1,43.3,582.2,43.1z"/>
				<path class="st1" d="M584.7,43.6h3c0.1-0.1,0.2-0.3,0.4-0.5h-3.6C584.5,43.3,584.6,43.5,584.7,43.6z"/>
				<path class="st1" d="M584.1,16.8c0-0.4-0.3-0.7-0.7-0.7s-0.7,0.3-0.7,0.7c0,0.4,0.3,0.7,0.7,0.7S584.1,17.2,584.1,16.8z"/>
				<polygon class="st1" points="584,23.3 584.2,23.5 584.5,23 584.2,22.5 582.4,22.5 582.1,23 582.5,23.5 582.7,23.3 				"/>
				<polygon class="st1" points="581.1,23.6 581.4,23.7 581.5,23.1 581,22.8 579.4,23.4 579.3,24 579.8,24.4 579.9,24 				"/>
				<polygon class="st1" points="586.8,24 586.8,24.4 587.4,24 587.3,23.4 585.6,22.8 585.2,23.1 585.2,23.7 585.5,23.6 				"/>
				<path class="st1" d="M579,35.2h-2.5c0,0.2,0,0.3,0,0.5h2.3C578.8,35.5,578.9,35.4,579,35.2z"/>
				<path class="st1" d="M587.9,35.7h2.3c0-0.2,0-0.3,0-0.5h-2.5C587.7,35.4,587.8,35.5,587.9,35.7z"/>
				<path class="st1" d="M585.2,35.7c0.1-0.1,0.2-0.3,0.2-0.5h-4.2c0.1,0.2,0.1,0.3,0.2,0.5H585.2z"/>
				<path class="st1" d="M588.5,20.1l-2-0.8l-0.4,0.8c-0.2,0.3-0.5,0.3-0.7,0.3c-0.2-0.1-0.4-0.3-0.3-0.6l0.2-0.9l-1.9-0.8l-1.9,0.8
					l0.2,0.9c0.1,0.3-0.1,0.5-0.3,0.6c-0.2,0.1-0.5,0-0.7-0.3l-0.4-0.8l-2,0.8l0.2,0.8c0.1,0.3-0.1,0.5-0.3,0.6
					c-0.2,0.1-0.5,0-0.7-0.3l-0.4-0.7l-1.3,0.5c-0.2-0.5-0.6-0.3-0.8-0.3l1.9,3.6c0.5,1.1,0.3,1.9,0.3,2.1c0.6-0.9,1.9-1.8,2.2-1.9
					l-1-0.8c0,0.1,0,0.3,0.1,0.5l-0.4,0.3l-0.6-1c1.7-1.2,3.7-1.9,5.8-1.9c-0.1-0.2-0.2-0.5-0.7-0.5c-1.8,0.2-3.6,0.8-5.3,2
					l-0.9-1.6c0,0,0.7-0.3,0.7-0.3c0.4,0.7,0.9,0.7,1.5,0.5c0.6-0.2,0.8-0.7,0.6-1.3l1.1-0.4c0.5,0.8,1,0.8,1.5,0.6
					c0.5-0.2,0.7-0.7,0.6-1.4c0,0,0.3-0.1,0.7-0.3c0.2,1.2,0.6,1.9,0.6,1.9s0.4-0.7,0.6-1.9c0.3,0.1,0.7,0.3,0.7,0.3
					c-0.1,0.7,0.1,1.2,0.6,1.4c0.5,0.2,1,0.2,1.5-0.6l1.1,0.4c-0.1,0.7,0.1,1.1,0.6,1.3c0.6,0.2,1.1,0.2,1.5-0.5
					c0,0,0.7,0.3,0.7,0.3l-0.9,1.6c-1.7-1.1-3.5-1.8-5.3-2c-0.5,0-0.6,0.2-0.7,0.5c2.1,0,4.1,0.7,5.8,1.9l-0.6,1l-0.4-0.3
					c0-0.2,0.1-0.4,0.1-0.5l-1,0.8c0.2,0.1,1.6,1,2.2,1.9c0-0.2-0.2-1,0.3-2.1l1.9-3.6c-0.2-0.1-0.6-0.2-0.8,0.3l-1.3-0.5l-0.4,0.7
					c-0.2,0.3-0.5,0.3-0.7,0.3c-0.2-0.1-0.4-0.3-0.3-0.6L588.5,20.1z"/>
				<path class="st1" d="M559.1,35.1c0,0.2,0.2,0.5,0.4,0.5c0.2,0,0.5-0.2,0.5-0.4c0-0.2-0.2-0.5-0.4-0.5
					C559.3,34.7,559.1,34.9,559.1,35.1z"/>
				<path class="st1" d="M558.4,37.9L558.4,37.9l0.2,1.3l0,0l0.2,0l0,0c0-0.1,0-0.3,0-0.5l1.1-0.2l0.1,0.7c0,0.2,0.1,0.2,0.2,0.2
					l0.2,0l-0.1-0.9l1-0.1l0.1,0.9c-0.2,0.1-0.3,0.1-0.4,0.2l0,0l0,0.2l0,0c0.1,0,0.3,0.1,0.5,0c0.1,0,0.2,0,0.2-0.1l0,0l-0.3-2.1
					l0,0c-0.2,0-0.2,0.1-0.2,0.4l-2.4,0.3C558.7,37.9,558.6,37.8,558.4,37.9z"/>
				<path class="st1" d="M559.8,42.8C559.8,42.8,559.8,42.8,559.8,42.8c0.4,0.2,0.8,0.2,1.2,0.1c0.4-0.1,0.8-0.4,1-0.7
					c0.2-0.3,0.2-0.7,0.1-1.1c-0.1-0.4-0.3-0.7-0.7-0.9c0,0,0,0,0,0c-0.3-0.2-0.8-0.2-1.2-0.1c-0.4,0.1-0.8,0.4-1,0.7
					c-0.2,0.3-0.2,0.7-0.1,1.1C559.2,42.3,559.5,42.6,559.8,42.8z M559.5,41.1c0.2-0.2,0.4-0.4,0.8-0.5c0.4-0.1,0.7-0.1,1,0
					c0,0,0.1,0,0.1,0c0.2,0.1,0.3,0.3,0.4,0.5c0.1,0.3,0,0.5-0.1,0.8c-0.2,0.2-0.4,0.4-0.8,0.5c-0.4,0.1-0.7,0.1-1,0
					c-0.3-0.1-0.4-0.3-0.5-0.6C559.3,41.6,559.4,41.3,559.5,41.1z"/>
				<path class="st1" d="M562.8,44L562.8,44l0.2-0.1l-0.5-1.2l0,0c-0.2,0.1-0.2,0.2-0.1,0.5l-2.2,0.9c-0.2-0.3-0.2-0.3-0.4-0.3l0,0
					l0.5,1.2l0.2-0.1l0,0c0-0.1,0-0.3-0.1-0.4l2.2-0.9C562.6,43.8,562.7,43.9,562.8,44z"/>
				<path class="st1" d="M563.6,48.1c0.2,0.1,0.5,0.1,0.7-0.1c0.2-0.1,0.4-0.3,0.4-0.5c0-0.2,0-0.5-0.2-0.7c0-0.1-0.1-0.2-0.2-0.3
					c-0.1-0.1-0.2-0.3-0.2-0.4l-0.3-0.5l0,0c-0.2,0.1-0.2,0.2,0,0.5l-2.1,1.2c-0.2-0.2-0.3-0.3-0.4-0.2l0,0l0.6,1.1l0,0l0.2-0.1l0,0
					c0-0.1-0.1-0.2-0.1-0.4l0.9-0.5C563,47.8,563.3,48,563.6,48.1z M564,46.5c0.1,0.1,0.2,0.2,0.2,0.3c0.1,0.2,0.1,0.3,0.1,0.5
					c0,0.1-0.1,0.3-0.3,0.4c-0.1,0.1-0.3,0.1-0.5,0.1c-0.2-0.1-0.4-0.3-0.5-0.6L564,46.5z"/>
				<path class="st1" d="M564,51.3c0.4,0.2,0.9,0.2,1.3-0.2l1.2-0.9c0.2,0.2,0.3,0.3,0.5,0.1l0,0l-0.7-0.9l-0.2,0.1l0,0
					c0,0.1,0.1,0.3,0.2,0.4l-1.2,0.9c-0.5,0.4-0.9,0.4-1.2,0c-0.4-0.4-0.3-0.8,0.2-1.2l1.2-0.9c0.1,0.1,0.2,0.2,0.3,0.3l0,0l0.2-0.1
					l-0.8-1l0,0c-0.1,0.1-0.1,0.2,0,0.5l-1.2,0.9c-0.3,0.3-0.5,0.5-0.5,0.8c0,0.3,0.1,0.6,0.3,0.9C563.8,51.1,563.9,51.2,564,51.3z"
					/>
				<path class="st1" d="M566.5,53.9c0.4,0.2,0.8,0.2,1.1-0.1c0.3-0.3,0.3-0.6,0-1c0.3,0.1,0.6,0,0.8-0.2c0.2-0.2,0.4-0.6-0.1-1.1
					l-1-0.9l0,0c-0.1,0.1-0.1,0.2,0.1,0.5l-1.7,1.7c-0.3-0.2-0.3-0.2-0.5-0.1l0,0l1,0.9C566.3,53.7,566.4,53.8,566.5,53.9z
					 M567.6,51.3l0.3,0.3c0.2,0.2,0.3,0.5,0,0.7c-0.2,0.2-0.4,0.3-0.7,0.1l-0.3-0.3L567.6,51.3z M566,53l0.7-0.7l0.4,0.3
					c0.3,0.3,0.3,0.6,0.1,0.8c-0.3,0.3-0.6,0.3-0.9,0l-0.3-0.3C566,53.1,566,53,566,53z"/>
				<path class="st1" d="M570.2,53.3L570.2,53.3l0.1-0.2l-1-0.7l0,0l0,0c-0.1,0.1-0.1,0.2,0.2,0.5l-1.4,1.9c-0.3-0.1-0.4-0.2-0.5,0
					l0,0l1.7,1.3l0,0l0,0c0.1,0,0.1-0.1,0.2-0.2c0.1-0.1,0.2-0.4,0.2-0.5l0,0l-0.1-0.1l0,0c-0.1,0.1-0.2,0.2-0.4,0.3l-0.8-0.6
					l1.4-1.9C569.9,53.2,570,53.3,570.2,53.3z"/>
				<path class="st1" d="M572.2,54.7L572.2,54.7l0.1-0.2l-1.1-0.7l0,0l0,0c-0.1,0.2,0,0.2,0.2,0.5l-1.3,2c-0.3-0.1-0.4-0.1-0.5,0
					l0,0l1.1,0.7l0,0l0.1-0.2l0,0c-0.1-0.1-0.2-0.2-0.3-0.3l1.3-2.1C572,54.6,572.1,54.7,572.2,54.7z"/>
				<path class="st1" d="M574.7,57.3c0.2-0.4,0.2-0.8,0.1-1.2c-0.1-0.3-0.4-0.6-0.8-0.8c-0.8-0.4-1.6,0-2,0.8
					c-0.2,0.4-0.2,0.8-0.1,1.2c0.1,0.3,0.4,0.6,0.7,0.8c0,0,0.1,0,0.1,0c0.2,0.6,0.5,1.1,0.9,1.3c0,0,0.1,0,0.1,0
					c0.4,0.2,0.6,0.1,0.8,0l0,0l0-0.2l0,0c0,0,0,0,0,0c-0.1,0-0.2,0-0.4-0.1c-0.4-0.2-0.7-0.5-1-1C573.8,58.3,574.4,58,574.7,57.3z
					 M572.8,57.9c-0.3-0.1-0.4-0.3-0.5-0.6c-0.1-0.3,0-0.6,0.1-0.9c0.3-0.7,0.9-1,1.4-0.7c0,0,0.1,0,0.1,0c0.5,0.3,0.6,0.8,0.3,1.5
					C573.9,57.8,573.4,58.1,572.8,57.9z"/>
				<path class="st1" d="M575.9,59.3c0.1,0.1,0.3,0.1,0.4,0.2c0.3,0.1,0.7,0.1,0.9-0.1c0.3-0.2,0.5-0.4,0.6-0.8l0.4-1.4
					c0.3,0,0.4,0,0.5-0.1l0,0l-1.1-0.3l0,0l-0.1,0.2l0,0c0.1,0.1,0.3,0.1,0.4,0.2l-0.4,1.4c-0.1,0.3-0.2,0.5-0.4,0.6
					c-0.2,0.1-0.4,0.1-0.6,0.1c-0.3-0.1-0.5-0.2-0.6-0.4c-0.1-0.2-0.1-0.4,0-0.7l0.4-1.4c0.1,0,0.3,0,0.4,0l0,0l0.1-0.2l-1.2-0.4
					l0,0l0,0c0,0.2,0,0.2,0.3,0.4l-0.4,1.4c-0.1,0.4-0.1,0.7,0,1C575.6,59.1,575.7,59.2,575.9,59.3z"/>
				<path class="st1" d="M580.6,57.6c0,0.2,0,0.3,0.1,0.4l0,0l0.2,0l0,0c0.1-0.1,0.2-0.3,0.2-0.5c0-0.1,0-0.2,0-0.2l0,0l-2.1-0.3
					l0,0l0,0c0,0.2,0,0.2,0.3,0.3l-0.4,2.4c-0.3,0-0.4,0-0.4,0.2l0,0l2.1,0.3l0,0l0,0c0-0.1,0.1-0.1,0.1-0.2c0-0.2,0-0.4,0-0.5l0,0
					l-0.2,0l0,0c-0.1,0.1-0.1,0.3-0.2,0.4l-0.9-0.1l0.2-1.1l0.7,0.1c0.2,0,0.2,0,0.3-0.1l0,0l0-0.2l-1-0.1l0.1-1L580.6,57.6z"/>
				<path class="st1" d="M582.8,59.2L582.8,59.2l0,0.3l0.7,0c0.2,0,0.3,0,0.4-0.1l0,0l0-0.3l-0.7,0
					C582.9,59.1,582.8,59.1,582.8,59.2z"/>
				<path class="st1" d="M586,60.3L586,60.3l1.2-0.1l0,0l0-0.2l0,0c-0.1,0-0.2,0-0.4,0l-0.3-1.9l0,0l0,0c-0.1,0-0.1,0-0.2,0
					c-0.2,0-0.4,0.1-0.5,0.2l0,0l0,0.2l0,0c0.1,0,0.2,0,0.4,0l0.2,1.6C586,60.1,585.9,60.1,586,60.3z"/>
				<path class="st1" d="M587.6,59.4c0,0.2,0.1,0.4,0.3,0.5c0,0,0,0,0,0c0.2,0.1,0.5,0.1,0.8,0.1c0.6-0.1,0.9-0.6,0.8-1
					c-0.1-0.4-0.4-0.6-0.8-0.7c0.2-0.1,0.5-0.4,0.4-0.8c-0.1-0.3-0.4-0.7-1-0.5c-0.3,0.1-0.5,0.2-0.6,0.4c-0.1,0.2-0.2,0.4-0.1,0.6
					c0.1,0.4,0.4,0.6,0.7,0.7C587.7,58.7,587.5,59,587.6,59.4z M587.8,57.7c0-0.1,0-0.3,0.1-0.3c0.1-0.1,0.2-0.1,0.3-0.2
					c0.1,0,0.2,0,0.3,0c0,0,0,0,0,0c0.1,0.1,0.2,0.2,0.2,0.3c0,0.2,0,0.4-0.2,0.6l-0.1,0C588.1,58.1,587.8,58,587.8,57.7z
					 M588.3,58.5l0.2,0c0.4,0.1,0.6,0.2,0.7,0.5c0.1,0.3-0.1,0.5-0.4,0.6c-0.3,0.1-0.6-0.1-0.7-0.4C588,58.9,588.1,58.7,588.3,58.5z
					"/>
				<path class="st1" d="M590.3,59.4L590.3,59.4l1.2-0.4l0,0l-0.1-0.2l0,0c-0.1,0-0.2,0-0.4,0l-0.6-1.8l0,0c-0.1,0-0.2,0-0.2,0
					c-0.2,0.1-0.4,0.2-0.5,0.3l0,0l0,0.2l0,0c0.1,0,0.2,0,0.4,0l0.5,1.6C590.3,59.2,590.3,59.3,590.3,59.4z"/>
				<path class="st1" d="M592.2,58.5C592.2,58.5,592.2,58.5,592.2,58.5c0.3,0.2,0.6,0.2,0.9,0c0.3-0.1,0.5-0.3,0.5-0.6
					c0.1-0.3,0.1-0.5,0-0.8c-0.1-0.2-0.3-0.4-0.5-0.5c-0.2-0.1-0.5-0.1-0.7,0c-0.3,0.1-0.5,0.4-0.5,0.6c-0.1-0.7,0.2-1.3,0.8-1.7
					l0,0l-0.1-0.2l0,0c-1,0.4-1.4,1.4-1,2.5C591.7,58.1,591.9,58.4,592.2,58.5z M592.4,57c0.2-0.1,0.3-0.1,0.5,0c0,0,0,0,0,0
					c0.1,0.1,0.2,0.2,0.3,0.4c0.1,0.2,0.1,0.4,0.1,0.5c0,0.2-0.1,0.3-0.3,0.3c-0.1,0.1-0.3,0.1-0.4,0c0,0,0,0-0.1,0
					c-0.3-0.2-0.5-0.7-0.5-0.7C592,57.3,592.1,57.1,592.4,57z"/>
				<path class="st1" d="M595.6,56.3c0.2,0,0.5-0.2,0.5-0.4c0-0.2-0.2-0.5-0.4-0.5c-0.2,0-0.5,0.2-0.5,0.4
					C595.2,56.1,595.4,56.3,595.6,56.3z"/>
				<path class="st1" d="M559,29.9L559,29.9L559,29.9c-0.1,0.1-0.2,0.5-0.2,0.7c-0.1,0.7,0.1,1.3,0.7,1.6c0.2,0.1,0.4,0.2,0.6,0.2
					c0.9,0.2,1.6-0.3,1.7-1.1c0.1-0.6-0.2-0.9-0.3-1.1l0,0l0,0c0,0-0.1,0.1-0.2,0.1l0,0l0,0c0.1,0.1,0.2,0.4,0.2,0.8
					c-0.1,0.3-0.2,0.5-0.5,0.7c-0.2,0.1-0.6,0.2-0.9,0.1c-0.4-0.1-0.7-0.2-0.9-0.4c-0.2-0.2-0.2-0.5-0.2-0.8c0-0.2,0.1-0.3,0.1-0.4
					c0.3,0,0.4,0,0.5-0.1l0,0l0-0.2l0,0c-0.1-0.1-0.3-0.2-0.5-0.2C559.2,29.9,559.1,29.9,559,29.9z"/>
				<path class="st1" d="M559.9,27.6c-0.2,0-0.4,0-0.4,0.3l-0.1,0.2l2.3,1.7c0,0.2,0,0.3,0.1,0.4c0,0,0,0,0.1,0l0,0l0.3-1l0,0
					l-0.2-0.1l0,0c-0.1,0.1-0.1,0.3-0.2,0.4l-0.6-0.5l0.3-1l0.8,0c0,0.1,0,0.3,0,0.4l0,0l0.2,0.1l0.4-1.1l0,0l0,0
					c-0.2-0.1-0.2,0-0.3,0.2L559.9,27.6L559.9,27.6z M561,28.8l-1.1-0.8l1.4,0L561,28.8z"/>
				<path class="st1" d="M560.9,24.8l-0.2-0.1l-0.5,1.1l0,0l0,0c0.2,0.1,0.2,0,0.4-0.3l2.2,1c-0.1,0.3-0.1,0.4,0.1,0.5l0,0l0.5-1.1
					l0,0l-0.2-0.1l0,0c-0.1,0.1-0.2,0.2-0.2,0.3l-2.2-1C560.9,25.1,560.9,25,560.9,24.8L560.9,24.8z"/>
				<path class="st1" d="M562,23c0.2,0,0.4,0.1,0.5,0.1l0,0l0.1-0.1l0,0c-0.2-0.2-0.4-0.4-0.6-0.4l0,0l0,0c-0.1,0.1-0.2,0.3-0.4,0.6
					c-0.3,0.6-0.2,1,0.2,1.3c0,0,0,0,0,0c0.3,0.2,0.6,0.1,0.9,0c0.1-0.1,0.2-0.2,0.3-0.2c0.1,0,0.1-0.1,0.2-0.2
					c0.2-0.2,0.4-0.3,0.7-0.1c0,0,0,0,0,0c0.3,0.1,0.3,0.4,0.1,0.7c-0.1,0.2-0.3,0.3-0.4,0.4c-0.1-0.1-0.3-0.1-0.5-0.1l0,0l-0.1,0.1
					l0,0c0.1,0.1,0.2,0.3,0.4,0.4c0.1,0,0.1,0.1,0.2,0.1l0,0l0,0c0.1-0.1,0.4-0.2,0.6-0.7c0.3-0.6,0.2-1.1-0.3-1.3c0,0,0,0,0,0
					c-0.4-0.2-0.7-0.1-1.1,0.2c0,0-0.1,0.1-0.1,0.1c-0.1,0.1-0.2,0.1-0.3,0.2c-0.2,0.2-0.4,0.2-0.6,0.1c0,0,0,0,0,0
					c-0.2-0.1-0.3-0.4-0.1-0.7C561.8,23.2,561.9,23.1,562,23z"/>
				<path class="st1" d="M563.5,20.3L563.5,20.3L563.5,20.3c-0.1,0.1-0.3,0.2-0.5,0.6c-0.4,0.5-0.4,1,0,1.3c0.3,0.2,0.6,0.2,0.9,0.1
					c0.1-0.1,0.2-0.1,0.3-0.2c0.1,0,0.1-0.1,0.2-0.1c0.2-0.2,0.4-0.2,0.7,0c0.1,0.1,0.2,0.2,0.2,0.3c0,0.1,0,0.3-0.1,0.4
					c-0.1,0.2-0.3,0.3-0.4,0.4c-0.1-0.1-0.3-0.2-0.5-0.2l0,0l-0.1,0.1l0,0c0.1,0.2,0.3,0.4,0.4,0.5c0,0,0.1,0,0.1,0l0,0l0,0
					c0.1,0,0.4-0.2,0.7-0.6c0.4-0.5,0.3-1-0.1-1.4c-0.3-0.2-0.7-0.2-1.1,0.1c0,0-0.1,0.1-0.1,0.1c-0.1,0.1-0.2,0.1-0.3,0.2
					c-0.2,0.1-0.4,0.1-0.6,0c-0.2-0.2-0.2-0.4,0-0.7c0.1-0.2,0.2-0.3,0.3-0.3c0.1,0.1,0.4,0.1,0.5,0.1l0,0l0.1-0.1l0,0
					C563.9,20.5,563.7,20.3,563.5,20.3z"/>
				<path class="st1" d="M565.4,18.4c0.1,0.1,0.3,0.1,0.4,0.2l0,0l0.1-0.1l0,0c-0.1-0.1-0.2-0.3-0.3-0.4c-0.1-0.1-0.1-0.1-0.2-0.1
					l0,0l-1.4,1.6l0,0l0,0c0.1,0.1,0.2,0.1,0.5-0.1l1.8,1.6c-0.2,0.3-0.2,0.4-0.1,0.5l0,0l1.4-1.6l0,0c0-0.1-0.1-0.1-0.1-0.2
					c-0.1-0.1-0.3-0.2-0.4-0.3l0,0l-0.1,0.1l0,0c0.1,0.1,0.1,0.3,0.2,0.4l-0.6,0.7l-0.9-0.8l0.5-0.5c0.1-0.1,0.1-0.2,0.1-0.3
					l-0.1-0.1l-0.7,0.7l-0.7-0.7L565.4,18.4C565.4,18.4,565.4,18.4,565.4,18.4z"/>
				<path class="st1" d="M568.9,18.8L568.9,18.8L570,18c0.4-0.3,0.6-0.6,0.6-1c0-0.4-0.1-0.8-0.4-1.1c-0.5-0.7-1.3-0.8-2.1-0.2
					l-1.1,0.8l0,0c0.1,0.1,0.2,0.1,0.5,0l1.4,1.9C568.8,18.6,568.8,18.6,568.9,18.8z M567.9,16.1l0.4-0.3c0.6-0.4,1.1-0.4,1.6,0.2
					c0.2,0.3,0.4,0.6,0.4,0.9c0,0.3-0.2,0.6-0.5,0.8l-0.3,0.2c-0.1,0.1-0.1,0-0.2,0L567.9,16.1z"/>
				<path class="st1" d="M571.5,16.9L571.5,16.9l1.9-1l0,0l0,0c0-0.1,0-0.1-0.1-0.2c-0.1-0.1-0.2-0.3-0.3-0.4l0,0l-0.1,0.1l0,0
					c0,0.1,0,0.3,0.1,0.5l-0.8,0.5l-0.6-1l0.6-0.4c0.1-0.1,0.2-0.2,0.2-0.2h-0.3l-0.6,0.3l-0.2-0.3h-0.5l1,1.8
					C571.4,16.6,571.4,16.7,571.5,16.9z"/>
				<path class="st1" d="M575,14.7c-0.1,0.1-0.2,0.2-0.3,0.3c-0.2,0.1-0.4,0.1-0.5,0.1c-0.1-0.1-0.2-0.3-0.3-0.4h-0.1l-0.1,0l0,0
					c0,0.2,0,0.5,0.2,0.7l0,0l0,0c0.1,0,0.5,0.1,0.9-0.1c0.3-0.1,0.5-0.3,0.6-0.5c0,0,0-0.1,0-0.1L575,14.7
					C575,14.6,575,14.7,575,14.7z"/>
				<path class="st1" d="M600.8,48.9L600.8,48.9l-0.8,0.9l0.1,0.1l0,0c0.1-0.1,0.2-0.2,0.3-0.2l0.4,0.4v-0.4l-0.2-0.2
					C600.9,49.1,600.9,49,600.8,48.9z"/>
				<path class="st1" d="M600.9,53.2L600.9,53.2L600.9,53.2l0-0.4C600.8,53,600.8,53.1,600.9,53.2z"/>
				<path class="st1" d="M600.9,50.8l-1.7-0.2l0,0l-0.1,0.1c-0.1,0.1-0.1,0.2,0,0.3c0,0.1,0.1,0.2,0.2,0.3l1.6,1.4v-0.4l-1.3-1.2
					l1.3,0.2V50.8z"/>
				<path class="st1" d="M599.1,54.4c-0.1-0.1-0.3-0.2-0.4-0.2l0,0l-0.1,0.1l0,0c0.1,0.3,0.3,0.5,0.4,0.6l0,0l0,0
					c0.1,0,0.3-0.2,0.6-0.4c0.5-0.4,0.6-0.9,0.3-1.2c-0.2-0.3-0.5-0.3-0.9-0.3c-0.2,0-0.2,0.1-0.4,0.1c-0.1,0-0.1,0.1-0.2,0.1
					c-0.3,0.1-0.5,0.1-0.7-0.1c-0.2-0.2-0.1-0.5,0.1-0.8c0.2-0.2,0.4-0.2,0.5-0.2c0.1,0.1,0.3,0.2,0.4,0.3l0,0l0.1-0.1l0,0
					c-0.1-0.2-0.2-0.5-0.4-0.6l0,0l0,0c-0.1,0-0.5,0.1-0.8,0.4c-0.2,0.2-0.4,0.4-0.4,0.7c0,0.2,0,0.5,0.2,0.7
					c0.3,0.3,0.6,0.4,1.1,0.2c0,0,0.1,0,0.1,0c0.1,0,0.2-0.1,0.3-0.1c0.3-0.1,0.4,0,0.6,0.1c0.2,0.2,0.1,0.5-0.1,0.7
					C599.3,54.3,599.2,54.4,599.1,54.4z"/>
				<path class="st1" d="M600.9,55.6c-4.7,4.1-10.9,6.6-17.6,6.6c-14.8,0-26.8-12-26.8-26.8c0-8.4,3.9-15.9,10-20.8h-3.3
					c-5.4,5.3-8.8,12.6-8.8,20.8c0,16,13,29,29,29c6.6,0,12.7-2.2,17.6-6V55.6z"/>
			</g>
		</g>
	</g>
</g>
</svg>
