<?xml version="1.0" encoding="utf-8"?>
<!-- Generator: Adobe Illustrator 25.2.0, SVG Export Plug-In . SVG Version: 6.00 Build 0)  -->
<svg version="1.1" xmlns="http://www.w3.org/2000/svg" xmlns:xlink="http://www.w3.org/1999/xlink" x="0px" y="0px"
	 viewBox="0 0 125 109.6" style="enable-background:new 0 0 125 109.6;" xml:space="preserve">
<style type="text/css">
	.st0{display:none;}
	.st1{display:inline;}
	.st2{clip-path:url(#SVGID_2_);}
	.st3{clip-path:url(#SVGID_4_);fill:#FFFFFF;}
	.st4{clip-path:url(#SVGID_6_);}
	.st5{clip-path:url(#SVGID_8_);fill:#FFFFFF;}
	.st6{clip-path:url(#SVGID_10_);}
	.st7{clip-path:url(#SVGID_12_);fill:#FFFFFF;}
	.st8{fill:#FFFFFF;}
	.st9{font-family:'Marianne-Bold';}
	.st10{font-size:20px;}
	.st11{clip-path:url(#SVGID_14_);fill:#FFFFFF;}
	.st12{clip-path:url(#SVGID_16_);}
	.st13{clip-path:url(#SVGID_18_);fill:#000091;}
	.st14{clip-path:url(#SVGID_20_);}
	.st15{clip-path:url(#SVGID_22_);fill:#E1000F;}
	.st16{clip-path:url(#SVGID_24_);}
	.st17{clip-path:url(#SVGID_26_);fill:#808080;}
	.st18{fill:#1E1E1E;}
	.st19{fill:#E20E18;}
	.st20{fill:#253574;}
	.st21{fill:#FFE910;}
	.st22{fill:#1F356C;}
	.st23{fill:#000091;}
	.st24{fill:#E1000F;}
	.st25{fill:#808080;}
</style>
<g id="Calque_1" class="st0">
	<g class="st1">
		<defs>
			<path id="SVGID_1_" d="M4.7,109.3l0.1-0.4c-1.6-0.3-1.8-0.3-1.1-2l0.6-1.6h1.3c0.8,0,0.8,0.3,0.7,1.2h0.4l1-2.8H7.2
				c-0.4,0.7-0.7,1.2-1.5,1.2H4.4l0.9-2.3c0.3-0.8,0.4-1,1.5-1h0.3c1.1,0,1.2,0.3,1.2,1.5h0.4l0.4-1.9H3l-0.1,0.4
				c1.3,0.3,1.4,0.4,0.8,2l-1.3,3.5c-0.6,1.6-0.8,1.7-2.3,2L0,109.3H4.7z M13,104.6c0.2-0.8,0.1-1.4-0.5-1.4c-0.7,0-1,0.5-1.7,2.1
				v-0.9c0-0.6-0.2-1.2-0.8-1.2c-0.7,0-1.3,1-1.7,2h0.3c0.3-0.5,0.6-0.7,0.8-0.7c0.3,0,0.4,0.4,0,1.4l-1.3,2.9
				c-0.2,0.5,0,0.9,0.5,0.9c0.3,0,0.5-0.1,0.6-0.4l1.3-3.3c0.4-0.4,0.7-0.8,1.1-1.2L13,104.6L13,104.6z M18.1,102.9l-0.5,0l-0.6,0.6
				h-0.1c-2.4,0-4.9,3-4.9,5.3c0,0.5,0.3,0.9,0.9,0.9c0.7,0,1.4-1,2.1-2.1l0,0.4c-0.1,1.1,0.2,1.7,0.8,1.7c0.7,0,1.3-1,1.7-2h-0.3
				c-0.3,0.5-0.6,0.7-0.9,0.7c-0.2,0-0.4-0.4,0-1.4L18.1,102.9z M13.1,107.7c0-1.5,1.6-3.4,2.5-3.4c0.2,0,0.4,0,0.6,0.1l-0.9,2.5
				c-0.5,0.7-1.4,1.5-1.8,1.5C13.3,108.3,13.1,108.1,13.1,107.7 M18.9,104h1.1l-1.7,4.7c-0.2,0.4,0.1,0.8,0.5,0.8
				c1.2,0,2.7-1,3.2-2.5h-0.3c-0.4,0.6-1.4,1.3-2.1,1.4l1.6-4.4h1.6l0.2-0.7h-1.6l0.6-1.7h-0.6l-1.1,1.7l-1.3,0.2V104z M26.3,107.3
				h-0.4c-0.5,0.6-1.1,1.1-1.6,1.1c-0.6,0-0.8-0.3-0.8-1.1c0-0.3,0-0.6,0.1-0.9l3.3-1.1c0.6-1.5-0.1-2.2-1-2.2
				c-1.5,0-3.3,2.7-3.3,4.9c0,1,0.5,1.6,1.2,1.6C24.7,109.5,25.6,108.7,26.3,107.3 M25.2,104c0.4,0,0.8,0.3,0.6,1.1l-2,0.5
				C24.1,104.7,24.7,104,25.2,104 M32.2,104.6c0.2-0.8,0.1-1.4-0.5-1.4c-0.7,0-1,0.5-1.7,2.1v-0.9c0-0.6-0.2-1.2-0.8-1.2
				c-0.7,0-1.3,1-1.7,2h0.3c0.3-0.5,0.6-0.7,0.9-0.7c0.3,0,0.4,0.4,0,1.4l-1.3,2.8c-0.2,0.5,0,0.9,0.5,0.9c0.3,0,0.5-0.1,0.6-0.4
				l1.3-3.3c0.4-0.4,0.7-0.8,1.1-1.2H32.2z M33.5,104.4c0.3,0,0.4,0.4,0,1.4l-1.3,2.8c-0.2,0.5,0,0.9,0.5,0.9c0.3,0,0.5-0.1,0.6-0.4
				l1.3-3.3c0.6-0.7,1.7-1.5,2.1-1.5c0.3,0,0.3,0.3,0.1,0.7l-1.9,3.7c-0.2,0.4,0.1,0.8,0.5,0.8c0.9,0,2.1-0.8,2.5-2h-0.3
				c-0.3,0.4-0.8,0.9-1.3,1l1.7-3.3c0.2-0.4,0.3-0.8,0.3-1.1c0-0.5-0.3-0.9-0.9-0.9c-0.8,0-1.5,0.9-2.5,2.1v-0.9
				c0-0.6-0.2-1.2-0.8-1.2c-0.7,0-1.3,1-1.7,2h0.3C32.9,104.7,33.2,104.4,33.5,104.4 M42.2,101.9c0.4,0,0.7-0.3,0.7-0.7
				c0-0.4-0.3-0.7-0.7-0.7c-0.4,0-0.7,0.3-0.7,0.7C41.5,101.6,41.8,101.9,42.2,101.9 M42,103.8c0.1-0.4-0.2-0.7-0.4-0.7
				c-0.9,0-2.1,0.8-2.5,2h0.3c0.3-0.4,0.8-0.9,1.3-1l-1.8,4.7c-0.2,0.4,0.2,0.7,0.4,0.7c0.9,0,1.9-0.9,2.4-2h-0.3
				c-0.3,0.4-0.8,0.9-1.3,1L42,103.8z M43.1,104h1.1l-1.7,4.7c-0.2,0.4,0.1,0.8,0.5,0.8c1.2,0,2.7-1,3.2-2.5h-0.3
				c-0.4,0.6-1.4,1.3-2.1,1.4l1.6-4.4H47l0.2-0.7h-1.6l0.6-1.7h-0.6l-1.1,1.7l-1.3,0.2V104z M50.1,102.4l1.9-1.7v-0.2h-1.2l-1.1,1.9
				H50.1z M50.6,107.3h-0.4c-0.5,0.6-1.1,1.1-1.6,1.1c-0.6,0-0.8-0.3-0.8-1.1c0-0.3,0-0.6,0.1-0.9l3.3-1.1c0.6-1.5-0.1-2.2-1-2.2
				c-1.5,0-3.3,2.7-3.3,4.9c0,1,0.5,1.6,1.2,1.6C48.9,109.5,49.9,108.7,50.6,107.3 M49.5,104c0.4,0,0.8,0.3,0.6,1.1l-2,0.5
				C48.4,104.7,49,104,49.5,104"/>
		</defs>
		<clipPath id="SVGID_2_">
			<use xlink:href="#SVGID_1_"  style="overflow:visible;"/>
		</clipPath>
		<g class="st2">
			<defs>
				<rect id="SVGID_3_" x="-154" y="-1134" width="1440" height="1476"/>
			</defs>
			<clipPath id="SVGID_4_">
				<use xlink:href="#SVGID_3_"  style="overflow:visible;"/>
			</clipPath>
			<rect x="-5" y="95.5" class="st3" width="62" height="19.1"/>
		</g>
	</g>
	<g class="st1">
		<defs>
			<path id="SVGID_5_" d="M6.9,86.7l1.9-1.3v-0.2H7.5l-1.1,1.6L6.9,86.7L6.9,86.7z M5.9,91.6c0.8,0,0.8,0.3,0.7,1.2h0.4l1-2.8H7.7
				c-0.4,0.7-0.7,1.2-1.5,1.2H4.4l0.8-2.3c0.3-0.8,0.4-1,1.5-1h0.8c1.1,0,1.2,0.3,1.2,1.5h0.4l0.4-1.9H3l-0.1,0.4
				c1.3,0.3,1.4,0.4,0.8,2l-1.3,3.5c-0.6,1.6-0.8,1.7-2.3,2L0,95.6h7.2l1.3-2.1H8c-0.8,0.8-1.7,1.6-3.3,1.6c-1.9,0-1.8-0.1-1.1-1.9
				l0.6-1.6L5.9,91.6L5.9,91.6z M14.1,96.4c0-0.8-0.7-1-1.8-1.4c-0.9-0.3-1.4-0.4-1.4-0.7c0-0.2,0.2-0.5,0.6-0.8
				c1.6-0.1,2.5-1.5,2.5-2.7c0-0.2,0-0.4-0.1-0.6H15l0.2-0.7h-1.8c-0.2-0.2-0.5-0.2-0.9-0.2c-1.6,0-2.7,1.4-2.7,2.7
				c0,0.8,0.5,1.4,1.2,1.5c-0.8,0.4-1.2,0.7-1.2,1.2c0,0.3,0.1,0.5,0.3,0.6c-1.8,0.5-2.5,1.2-2.5,1.9c0,0.8,1.1,1.2,2.3,1.2
				C12.3,98.5,14.1,97.4,14.1,96.4 M11.5,93.2c-0.4,0-0.5-0.3-0.5-0.7c0-1.2,0.6-2.6,1.5-2.6c0.4,0,0.5,0.3,0.5,0.7
				C13,91.7,12.4,93.2,11.5,93.2 M9.1,97c0-0.6,0.6-1,1.5-1.4c0.3,0.1,0.7,0.3,1.3,0.5c0.9,0.3,1.2,0.4,1.2,0.7c0,0.6-0.8,1-2.3,1
				C9.6,97.8,9.1,97.6,9.1,97 M20.6,89.1l-0.5,0l-0.6,0.6h-0.1c-2.4,0-4.9,3-4.9,5.3c0,0.5,0.3,0.9,0.9,0.9c0.7,0,1.4-1,2.1-2.1
				l0,0.4c-0.1,1.1,0.2,1.7,0.8,1.7c0.7,0,1.3-1,1.7-2h-0.3c-0.3,0.5-0.6,0.7-0.9,0.7c-0.2,0-0.4-0.4,0-1.4L20.6,89.1z M15.6,94
				c0-1.5,1.6-3.4,2.5-3.4c0.2,0,0.4,0,0.6,0.1l-0.9,2.5c-0.5,0.7-1.4,1.5-1.8,1.5C15.8,94.6,15.6,94.4,15.6,94 M21.7,94.8l3-7.9
				l-0.1-0.1L22.6,87v0.2l0.4,0.3c0.4,0.3,0.2,0.5-0.1,1.4L20.6,95c-0.2,0.4,0.1,0.8,0.5,0.8c0.9,0,1.9-0.9,2.4-2h-0.3
				C22.9,94.2,22.2,94.7,21.7,94.8 M27.5,88.2c0.4,0,0.7-0.3,0.7-0.7c0-0.4-0.3-0.7-0.7-0.7c-0.4,0-0.7,0.3-0.7,0.7
				C26.8,87.9,27.1,88.2,27.5,88.2 M27.3,90.1c0.1-0.4-0.2-0.7-0.4-0.7c-0.9,0-2.1,0.9-2.5,2h0.3c0.3-0.4,0.8-0.9,1.3-1l-1.8,4.7
				c-0.2,0.4,0.2,0.7,0.4,0.7c0.9,0,1.9-0.9,2.4-2h-0.3c-0.3,0.4-0.8,0.9-1.3,1L27.3,90.1z M28.5,90.3h1.1L27.8,95
				c-0.2,0.4,0.1,0.8,0.5,0.8c1.2,0,2.7-1,3.2-2.5h-0.3c-0.4,0.6-1.4,1.3-2.1,1.4l1.6-4.4h1.6l0.2-0.7h-1.6l0.6-1.7h-0.6l-1.1,1.7
				l-1.3,0.2V90.3z M35.4,88.7l1.9-1.7v-0.2H36l-1.1,1.9H35.4z M35.9,93.5h-0.4c-0.5,0.6-1.1,1.1-1.6,1.1c-0.6,0-0.8-0.3-0.8-1.1
				c0-0.3,0-0.6,0.1-0.9l3.3-1.1c0.6-1.5-0.1-2.2-1-2.2c-1.5,0-3.3,2.7-3.3,4.9c0,1,0.5,1.6,1.2,1.6C34.3,95.8,35.2,95,35.9,93.5
				 M34.8,90.3c0.4,0,0.8,0.3,0.6,1.1l-2,0.5C33.7,91,34.3,90.3,34.8,90.3"/>
		</defs>
		<clipPath id="SVGID_6_">
			<use xlink:href="#SVGID_5_"  style="overflow:visible;"/>
		</clipPath>
		<g class="st4">
			<defs>
				<rect id="SVGID_7_" x="-154" y="-1134" width="1440" height="1476"/>
			</defs>
			<clipPath id="SVGID_8_">
				<use xlink:href="#SVGID_7_"  style="overflow:visible;"/>
			</clipPath>
			<rect x="-5" y="80.2" class="st5" width="47.3" height="23.4"/>
		</g>
	</g>
	<g class="st1">
		<defs>
			<path id="SVGID_9_" d="M7.3,73.6H3L2.9,74c1.3,0.3,1.4,0.4,0.8,2l-1.3,3.5c-0.6,1.6-0.8,1.7-2.3,2L0,81.9h6.5L8,79.3H7.5
				c-0.8,0.9-1.7,2-3.2,2c-1.1,0-1.3-0.2-0.6-1.9L4.9,76c0.6-1.6,0.8-1.7,2.3-2L7.3,73.6z M11.9,74.5c0.4,0,0.7-0.3,0.7-0.7
				c0-0.4-0.3-0.7-0.7-0.7c-0.4,0-0.7,0.3-0.7,0.7C11.2,74.2,11.5,74.5,11.9,74.5 M11.7,76.4c0.1-0.4-0.2-0.7-0.4-0.7
				c-0.9,0-2.1,0.9-2.5,2h0.3c0.3-0.4,0.8-0.9,1.3-1l-1.8,4.7c-0.2,0.4,0.2,0.7,0.4,0.7c0.9,0,1.9-0.9,2.4-2h-0.3
				c-0.3,0.4-0.8,0.9-1.3,1L11.7,76.4z M17.8,77c0-1-0.2-1.3-0.9-1.3c-0.8,0-1.6,0.9-2.4,2l1.7-4.5L16.1,73L14,73.3v0.2l0.4,0.3
				c0.4,0.3,0.2,0.6-0.1,1.4L12.5,80c-0.2,0.4-0.3,0.9-0.3,1c0,0.6,0.8,1.1,1.5,1.1C15.2,82.1,17.8,79.2,17.8,77 M14.2,81.1
				c-0.3,0-0.8-0.3-0.8-0.6c0-0.1,0.1-0.4,0.3-0.9l0.5-1.4c0.6-0.7,1.4-1.4,1.9-1.4c0.3,0,0.5,0.2,0.5,0.6
				C16.7,78.8,15.5,81.1,14.2,81.1 M21.8,79.8h-0.4c-0.5,0.6-1.1,1.1-1.6,1.1c-0.6,0-0.8-0.3-0.8-1.1c0-0.3,0-0.6,0.1-0.9l3.3-1.1
				c0.6-1.5-0.1-2.2-1-2.2c-1.5,0-3.3,2.7-3.3,4.9c0,1,0.5,1.6,1.2,1.6C20.1,82.1,21.1,81.2,21.8,79.8 M20.7,76.6
				c0.4,0,0.8,0.3,0.6,1.1l-2,0.5C19.6,77.3,20.2,76.6,20.7,76.6 M27.7,77.1c0.2-0.8,0.1-1.4-0.5-1.4c-0.7,0-1,0.5-1.7,2.1v-0.9
				c0-0.6-0.2-1.2-0.8-1.2c-0.7,0-1.3,1-1.7,2h0.3c0.3-0.5,0.6-0.7,0.8-0.7c0.3,0,0.4,0.4,0,1.4l-1.3,2.8c-0.2,0.5,0,0.9,0.5,0.9
				c0.3,0,0.5-0.1,0.6-0.4l1.3-3.3c0.4-0.4,0.7-0.8,1.1-1.2H27.7z M28.2,76.6h1.1l-1.7,4.7c-0.2,0.4,0.1,0.8,0.5,0.8
				c1.2,0,2.7-1,3.2-2.5H31c-0.4,0.6-1.4,1.3-2.1,1.4l1.6-4.4h1.6l0.2-0.7h-1.6l0.6-1.7h-0.6l-1.1,1.7l-1.3,0.2V76.6z M35.2,75
				l1.9-1.7V73h-1.2L34.7,75H35.2z M35.7,79.8h-0.4c-0.5,0.6-1.1,1.1-1.6,1.1c-0.6,0-0.8-0.3-0.8-1.1c0-0.3,0-0.6,0.1-0.9l3.3-1.1
				c0.6-1.5-0.1-2.2-1-2.2c-1.5,0-3.3,2.7-3.3,4.9c0,1,0.5,1.6,1.2,1.6C34,82.1,34.9,81.2,35.7,79.8 M34.6,76.6
				c0.4,0,0.8,0.3,0.6,1.1l-2,0.5C33.5,77.3,34.1,76.6,34.6,76.6"/>
		</defs>
		<clipPath id="SVGID_10_">
			<use xlink:href="#SVGID_9_"  style="overflow:visible;"/>
		</clipPath>
		<g class="st6">
			<defs>
				<rect id="SVGID_11_" x="-154" y="-1134" width="1440" height="1476"/>
			</defs>
			<clipPath id="SVGID_12_">
				<use xlink:href="#SVGID_11_"  style="overflow:visible;"/>
			</clipPath>
			<rect x="-5" y="68" class="st7" width="47" height="19.1"/>
		</g>
	</g>
	<g class="st1">
		<text transform="matrix(1 0 0 1 5.311707e-05 44.5562)"><tspan x="0" y="0" class="st8 st9 st10">RÉ</tspan><tspan x="25.2" y="0" class="st8 st9 st10">P</tspan><tspan x="37.6" y="0" class="st8 st9 st10">UB</tspan><tspan x="65.2" y="0" class="st8 st9 st10">L</tspan><tspan x="76.2" y="0" class="st8 st9 st10">I</tspan><tspan x="83.2" y="0" class="st8 st9 st10">Q</tspan><tspan x="100.1" y="0" class="st8 st9 st10">U</tspan><tspan x="114.8" y="0" class="st8 st9 st10">E</tspan><tspan x="126.6" y="0" class="st8 st9 st10"> </tspan></text>
		<text transform="matrix(1 0 0 1 5.311707e-05 65.5562)"><tspan x="0" y="0" class="st8 st9 st10">F</tspan><tspan x="11" y="0" class="st8 st9 st10">R</tspan><tspan x="25" y="0" class="st8 st9 st10">AN</tspan><tspan x="57" y="0" class="st8 st9 st10">Ç</tspan><tspan x="71.8" y="0" class="st8 st9 st10">AI</tspan><tspan x="93.9" y="0" class="st8 st9 st10">S</tspan><tspan x="105.7" y="0" class="st8 st9 st10">E</tspan></text>
	</g>
	<g class="st1">
		<defs>
			<rect id="SVGID_13_" width="55" height="20"/>
		</defs>
		<clipPath id="SVGID_14_">
			<use xlink:href="#SVGID_13_"  style="overflow:visible;"/>
		</clipPath>
		<rect x="-5" y="-5" class="st11" width="65" height="30"/>
	</g>
	<g class="st1">
		<defs>
			<path id="SVGID_15_" d="M15.8,11.2c0,0,0.1,0,0.1,0c0,0.2-0.1,0.3-0.3,0.4c0.3,0.1,0.6,0.1,0.9,0.2c0,0.1-0.1,0-0.1,0
				c0.2,0.1,0.4,0,0.6,0.2c-0.1,0.1-0.2,0-0.3,0c1.2,0.3,2.4,0.6,3.4,1.4c-0.8,0.4-1.7,0.6-2.6,0.8c-0.1,0-0.2,0-0.3,0
				c0,0,0,0.1,0,0.1c-0.1,0-0.3,0-0.4,0.1c-0.2,0.1-0.4,0.1-0.5,0c0,0,0.1,0,0.1-0.1h-0.3c0,0,0,0,0-0.1c-0.2,0-0.4,0.1-0.6,0.1
				c-0.3,0.1-0.5,0.3-0.8,0.3c-0.4,0.1-0.8,0.5-1.2,0.6c0,0,0,0,0-0.1c0-0.1,0.2-0.1,0.3-0.3c0,0,0-0.1,0-0.1c0.3-0.4,0.7-0.6,1.1-1
				v-0.1c0.1-0.1,0.3-0.2,0.4-0.4c0-0.1,0.2-0.3,0.4-0.3c0,0-0.1,0-0.1-0.1c-0.1,0-0.3,0.1-0.5,0c0.1-0.1,0.1-0.1,0.2-0.1
				c0,0-0.1,0-0.1-0.1c0-0.1,0.1-0.2,0.2-0.2c0.1,0,0.3,0,0.5-0.1c-0.3,0-0.6,0.1-0.8-0.1C15.1,11.8,15.4,11.4,15.8,11.2z M15.5,17
				C15.5,17,15.5,17,15.5,17c-0.1,0.1-0.3,0.2-0.4,0.3c-0.2,0.1-0.3,0.2-0.5,0.2c0,0,0,0,0,0c0,0,0,0-0.1,0
				c-0.1,0.1-0.3,0.2-0.4,0.3c0,0,0,0-0.1,0.1L14,17.9l0,0c0,0,0,0,0,0c0,0-0.1,0.1-0.1,0.1c0,0,0,0-0.1,0.1c0,0-0.1,0-0.1,0v0
				c0,0,0,0-0.1,0c0,0,0,0-0.1,0c0,0,0,0,0,0s0,0,0,0c0,0-0.1,0.1-0.1,0.1c-0.1,0.1-0.1,0.1-0.2,0.2c0,0,0,0,0,0c0,0,0,0,0,0
				c0,0,0,0,0,0s0,0,0,0c0,0,0,0,0,0c0,0,0,0,0,0c0,0,0,0,0,0c0,0,0,0,0,0c0,0,0,0,0,0c0,0,0,0,0-0.1c0,0,0,0,0,0s0,0,0,0
				c0,0,0.1-0.1,0.1-0.1l0,0c0,0,0,0,0,0c0,0,0-0.1,0.1-0.1c0,0,0,0,0,0c0-0.1,0.1-0.1,0.1-0.2c0,0,0,0,0,0c0,0,0,0,0,0
				c0,0,0-0.1,0.1-0.1c0,0,0-0.1,0-0.1v0l0,0c0,0,0,0,0,0c0,0,0-0.1,0-0.1v0l0,0c0,0,0,0,0,0v0c0,0,0,0,0-0.1c0,0,0,0,0,0
				c0-0.1,0.1-0.1,0.1-0.2c0,0,0,0,0,0c-0.1,0-0.1,0.1-0.1,0.1c0,0-0.1,0-0.1-0.1c0,0,0.1-0.1,0.1-0.1c0,0,0,0,0,0
				c0.1-0.1,0.1-0.1,0.2-0.2c0,0,0.1-0.1,0.1-0.1c0,0,0,0,0,0c0,0,0.1-0.1,0.1-0.1c0,0,0,0,0,0c0.4-0.4,1-0.3,1.4-0.6
				c0.2-0.1,0.4,0,0.6,0c0.1,0,0.2,0,0.3,0.1C16.1,16.6,15.8,16.8,15.5,17 M16.1,17.3c0,0-0.1,0.1-0.1,0.1c0,0,0.1,0,0.1,0.1
				c-0.1,0.1-0.2,0.2-0.3,0.2c0,0,0,0-0.1,0c0,0-0.1,0.1-0.1,0.1c0,0-0.3,0-0.2,0c0.1-0.1,0.2-0.2,0.3-0.3c0.1-0.1,0.1-0.1,0.2-0.1
				c0,0,0-0.1,0.1-0.1C16,17.2,16.2,17.2,16.1,17.3 M14.4,11.6c0,0.1-0.1,0.1-0.1,0.1c0,0.1-0.1,0.1-0.1,0.1c0,0-0.1,0-0.1,0
				C14.1,11.7,14.2,11.6,14.4,11.6C14.4,11.5,14.4,11.6,14.4,11.6 M11.3,14.1C11.3,14.1,11.2,14.1,11.3,14.1c0.5-0.7,0.8-1.3,1.2-2
				c0.5-0.3,0.9-0.6,1.3-1.1c0.6-0.7,1.3-1.3,2.1-1.7c0.3-0.1,0.7-0.1,1,0c-0.1,0.1-0.3,0.1-0.5,0.2c0,0-0.1,0-0.1,0
				c0,0,0-0.1,0-0.1c-0.4,0.4-0.9,0.6-1.2,1.1c-0.2,0.4-0.4,0.9-0.9,1c-0.1,0,0-0.1,0-0.1C13,12.2,12.2,13.1,11.3,14.1 M17,14.9
				c-0.1,0-0.2,0-0.2,0c0-0.2,0.3-0.2,0.5-0.3c0.1,0,0.2-0.1,0.3-0.1c0.1,0.1,0.2,0.1,0.3,0.1C17.6,14.9,17.3,14.8,17,14.9
				 M22.8,17.6c0.2-0.2,0.4-0.4,0.6-0.7h0c0.4-0.5,0.8-0.9,1.3-1.3c0.1-0.1,0.3-0.2,0.4-0.3c0,0,0-0.1,0.1-0.1
				c-0.2,0.1-0.3,0.2-0.5,0.3c0,0-0.1,0,0-0.1c0.1-0.1,0.3-0.2,0.4-0.3c0,0,0,0,0,0c0,0,0,0,0-0.1c-0.5-0.1-0.9,0.3-1.2,0.6
				c-0.1,0-0.1,0-0.2,0c-0.6,0.2-1,0.7-1.5,0.9v-0.1c-0.2,0.1-0.4,0.2-0.7,0.3c-0.3,0.1-0.6,0-0.9,0c-0.5,0-0.9,0.1-1.4,0.2
				c0,0,0,0,0,0c-0.2,0.1-0.5,0.2-0.7,0.3l0,0c0,0,0,0-0.1,0.1c-0.1,0.1-0.1,0.2-0.3,0.2c-0.2,0.1-0.4,0.3-0.6,0.5c0,0,0,0-0.1,0
				c-0.2,0.2-0.4,0.4-0.6,0.6c0,0-0.1,0-0.1,0c0,0,0,0,0,0c0,0,0,0,0,0c0-0.1,0.1-0.1,0.1-0.2c0-0.1,0.1-0.1,0.1-0.2
				c0.1-0.1,0.1-0.2,0.2-0.2c0,0,0,0,0-0.1c0,0,0,0-0.1,0c0.2-0.2,0.4-0.3,0.6-0.5v0c0,0-0.1,0,0,0c0,0,0-0.1,0.1-0.1c0,0,0,0,0,0
				c0,0,0,0,0,0c-0.1,0-0.1,0.1-0.2,0.1c-0.1,0.1-0.2,0.2-0.3,0.2c0,0,0,0-0.1,0c0,0,0,0,0,0c0,0,0,0,0,0c0,0,0,0,0,0c0,0,0,0,0,0
				c0,0,0,0,0,0c0,0,0,0,0,0c0,0,0,0,0,0c0,0,0,0,0-0.1c0,0,0,0,0,0c0,0,0-0.1,0.1-0.1c0,0,0,0,0,0c0,0,0,0,0-0.1c0,0,0-0.1,0-0.1
				c0.1-0.1,0.2-0.2,0.3-0.2h0c0.1-0.1,0.3-0.2,0.4-0.2c0,0,0,0,0.1-0.1c-0.2,0.1-0.4,0.2-0.6,0.3c0,0-0.1,0-0.1,0c0,0,0,0-0.1,0
				c0,0,0,0,0,0c0-0.1,0.1-0.1,0.2-0.2c0,0,0.1,0,0.1,0c1.2-0.9,2.9-0.7,4.3-1.2c0.1-0.1,0.2-0.1,0.3-0.2c0.2-0.1,0.3-0.3,0.6-0.4
				c0.3-0.2,0.5-0.5,0.6-0.9c0,0,0-0.1,0-0.1c-0.5,0.5-1.1,0.9-1.7,1.2c-0.8,0.4-1.7,0.3-2.5,0.5c0-0.1,0.1-0.1,0.2-0.1
				c0-0.1,0.1-0.1,0.1-0.2h0.1c0,0,0-0.1,0.1-0.1c0.1,0,0.2,0,0.1,0c-0.1-0.1-0.3,0.1-0.5,0c0.1-0.1,0-0.2,0.1-0.2h0.1
				c0-0.1,0.1-0.1,0.1-0.1c0.6-0.3,1.1-0.6,1.6-0.9c-0.1,0-0.2,0.1-0.3,0c0.1,0,0-0.1,0.1-0.1c0.4-0.1,0.8-0.3,1.2-0.5
				c-0.1,0-0.3,0.1-0.4,0c0.1,0,0.1-0.1,0.2-0.1v-0.1c0,0,0,0,0.1,0c0,0-0.1,0-0.1,0c0-0.1,0.1,0,0.2-0.1c0,0-0.1,0-0.1,0
				c0.1-0.1,0.3-0.2,0.5-0.2c0-0.1-0.1,0-0.1-0.1c0,0,0,0,0.1,0h-0.1c-0.1,0,0-0.1,0-0.1c0.2-0.3,0.2-0.6,0.3-0.9c0,0-0.1,0-0.1,0
				c-0.4,0.4-1,0.6-1.5,0.7h-0.2c-0.2,0.1-0.5,0.1-0.6,0c-0.1-0.1-0.2-0.2-0.4-0.3c-0.3-0.2-0.6-0.3-0.9-0.5
				c-0.9-0.3-1.9-0.5-2.9-0.4c0.4-0.2,0.9-0.2,1.3-0.4c0.6-0.2,1.2-0.4,1.9-0.4c-0.1,0-0.3,0-0.4,0c-0.5,0-1.1,0.1-1.6,0.2
				c-0.4,0.1-0.7,0.2-1.1,0.3c-0.2,0.1-0.3,0.3-0.6,0.3V11c0.4-0.5,0.8-0.9,1.4-0.9c0.7-0.1,1.3,0,2,0.1c0.5,0,0.9,0.1,1.4,0.3
				c0.2,0,0.2,0.3,0.4,0.3c0.2,0.1,0.5,0,0.7,0.1c0-0.1,0-0.1,0-0.2c0.1-0.1,0.3,0,0.5,0c0.3-0.2-0.3-0.5-0.4-0.8c0,0,0-0.1,0-0.1
				c0.3,0.3,0.5,0.6,0.9,0.8c0.2,0.1,0.6,0.2,0.6,0c-0.2-0.4-0.6-0.8-0.9-1.1V9.2c-0.1,0-0.1,0-0.1-0.1V9C22,8.9,22,8.7,21.9,8.6
				c-0.1-0.2,0-0.5-0.1-0.7c-0.1-0.2-0.1-0.4-0.1-0.6c-0.1-0.6-0.3-1.2-0.3-1.8c-0.1-0.7,0.4-1.3,0.8-1.9c0.3-0.5,0.6-0.9,1.1-1.2
				c0.1-0.5,0.4-0.8,0.7-1.2c0.3-0.4,0.8-0.6,1.2-0.8C25.5,0.2,26,0,26,0H0v20h18.5c0.7-0.5,1.4-0.8,2.4-1.3
				C21.4,18.5,22.4,18,22.8,17.6"/>
		</defs>
		<clipPath id="SVGID_16_">
			<use xlink:href="#SVGID_15_"  style="overflow:visible;"/>
		</clipPath>
		<g class="st12">
			<defs>
				<rect id="SVGID_17_" x="-154" y="-1134" width="1440" height="1476"/>
			</defs>
			<clipPath id="SVGID_18_">
				<use xlink:href="#SVGID_17_"  style="overflow:visible;"/>
			</clipPath>
			<rect x="-5" y="-5" class="st13" width="36" height="30"/>
		</g>
	</g>
	<g class="st1">
		<defs>
			<path id="SVGID_19_" d="M54.9,0H33.5c0,0,0,0,0.2,0.1c0.2,0.1,0.4,0.2,0.5,0.3C34.5,0.6,34.8,0.7,35,1c0.1,0.1,0.2,0.3,0.1,0.5
				C35,1.7,35,2,34.8,2.1c-0.2,0.1-0.5,0.1-0.8,0.1c-0.1,0-0.3,0-0.5-0.1c0.6,0.2,1.1,0.5,1.5,1c0,0.1,0.2,0.1,0.3,0.1
				c0,0,0,0.1,0,0.1c-0.1,0.1-0.1,0.1-0.1,0.2h0.1c0.2-0.1,0.1-0.5,0.4-0.3C36,3.3,36.1,3.6,36,3.8c-0.1,0.1-0.3,0.3-0.5,0.4
				c0,0.1,0,0.2,0,0.3c0.1,0.1,0.1,0.3,0.2,0.5c0.1,0.3,0.1,0.6,0.3,0.8c0.1,0.6,0.3,1.1,0.3,1.7c0,0.3-0.1,0.6,0,0.9
				c0.1,0.3,0.3,0.5,0.4,0.8c0.1,0.2,0.3,0.4,0.4,0.6c0.2,0.4,0.6,0.8,0.5,1.2c-0.1,0.3-0.5,0.2-0.8,0.4c-0.2,0.2,0,0.5,0.1,0.7
				c0.2,0.3-0.2,0.6-0.5,0.7c0.1,0.1,0.2,0.1,0.3,0.1c0,0.2,0.2,0.3,0.1,0.5c-0.1,0.2-0.6,0.3-0.4,0.7c0.1,0.3,0.1,0.6,0,0.8
				c-0.1,0.3-0.4,0.5-0.7,0.6c-0.2,0.1-0.5,0.1-0.7,0c-0.1,0-0.1-0.1-0.2-0.1C34,15.2,33.3,15,32.7,15c-0.2,0-0.4,0.1-0.5,0.1
				c-0.2,0.1-0.3,0.3-0.5,0.4c0,0,0,0,0,0c0,0-0.1,0.1-0.1,0.1c0,0,0,0,0,0.1c0,0,0,0,0,0c-0.1,0.1-0.2,0.3-0.3,0.4c0,0,0,0,0,0
				c0,0,0,0,0,0.1c-0.1,0.2-0.2,0.5-0.3,0.7c-0.3,0.9-0.1,1.6,0,1.8c0.1,0.1,1.2,0.4,2.1,0.8c0.4,0.2,0.7,0.3,0.9,0.4h21L54.9,0
				L54.9,0z"/>
		</defs>
		<clipPath id="SVGID_20_">
			<use xlink:href="#SVGID_19_"  style="overflow:visible;"/>
		</clipPath>
		<g class="st14">
			<defs>
				<rect id="SVGID_21_" x="-154" y="-1134" width="1440" height="1476"/>
			</defs>
			<clipPath id="SVGID_22_">
				<use xlink:href="#SVGID_21_"  style="overflow:visible;"/>
			</clipPath>
			<rect x="25.8" y="-5" class="st15" width="34.2" height="30"/>
		</g>
	</g>
	<g class="st1">
		<defs>
			<path id="SVGID_23_" d="M34.8,7.3c0.1,0,0.4,0,0.4,0.1c-0.1,0.3-0.5,0.4-0.8,0.7h-0.1c-0.1,0.1-0.1,0.3-0.2,0.3
				c-0.1,0-0.2,0-0.3,0c0.1,0.1,0.3,0.3,0.6,0.2c0,0,0.1,0.1,0.1,0.1c0,0,0,0,0.1,0c0,0,0.1,0,0.1,0v0.1C34.5,9.1,34.3,9,34.2,9
				c0.3,0.1,0.6,0.1,0.9,0c0.2-0.1,0-0.5,0.1-0.6c-0.1,0,0-0.1-0.1-0.1c0.1-0.1,0.1-0.2,0.2-0.2c0.1,0,0.2,0,0.2-0.1
				c0-0.1-0.1-0.1-0.1-0.2c0.2-0.1,0.4-0.4,0.3-0.6c0-0.1-0.3-0.1-0.5-0.2s-0.4,0-0.6,0c-0.2,0-0.4,0.1-0.6,0.1
				c-0.3,0.1-0.5,0.2-0.7,0.4c0.3-0.1,0.5-0.1,0.8-0.2C34.4,7.3,34.6,7.2,34.8,7.3"/>
		</defs>
		<clipPath id="SVGID_24_">
			<use xlink:href="#SVGID_23_"  style="overflow:visible;"/>
		</clipPath>
		<g class="st16">
			<defs>
				<rect id="SVGID_25_" x="-154" y="-1134" width="1440" height="1476"/>
			</defs>
			<clipPath id="SVGID_26_">
				<use xlink:href="#SVGID_25_"  style="overflow:visible;"/>
			</clipPath>
			<rect x="28.3" y="1.9" class="st17" width="12.5" height="12.2"/>
		</g>
	</g>
</g>
<g id="Calque_2">
	<rect x="0" class="st8" width="53.1" height="19.3"/>
	<g id="LEF" transform="translate(0.000000, 75.236269)">
		<path id="Shape" class="st8" d="M48,28.9c0.4,0,0.8,0.3,0.6,1.1l-1.9,0.5C46.9,29.6,47.5,28.9,48,28.9 M49,32.1h-0.4
			c-0.5,0.6-1,1-1.5,1c-0.5,0-0.8-0.3-0.8-1c0-0.3,0-0.6,0.1-0.9l3.2-1c0.6-1.5-0.1-2.1-1-2.1c-1.5,0-3.2,2.6-3.2,4.7
			c0,1,0.5,1.5,1.2,1.5C47.4,34.3,48.3,33.5,49,32.1 M48.5,27.4l1.8-1.6v-0.2h-1.2l-1.1,1.9L48.5,27.4L48.5,27.4z M41.8,29h1
			l-1.7,4.6c-0.2,0.4,0.1,0.8,0.5,0.8c1.2,0,2.6-1,3.1-2.4h-0.3c-0.4,0.6-1.4,1.3-2,1.4L44,29h1.6l0.2-0.7h-1.5l0.6-1.6h-0.6
			l-1.1,1.6l-1.3,0.2V29L41.8,29z M40.7,28.7c0.1-0.4-0.2-0.7-0.4-0.7c-0.9,0-2,0.8-2.4,2h0.3c0.3-0.4,0.8-0.9,1.3-1l-1.8,4.6
			c-0.2,0.4,0.2,0.7,0.4,0.7c0.9,0,1.9-0.8,2.3-2h-0.3c-0.3,0.4-0.8,0.9-1.3,1L40.7,28.7z M40.9,26.9c0.4,0,0.7-0.3,0.7-0.7
			c0-0.4-0.3-0.7-0.7-0.7c-0.4,0-0.7,0.3-0.7,0.7C40.2,26.6,40.5,26.9,40.9,26.9 M32.4,29.4c0.3,0,0.4,0.4,0,1.4l-1.2,2.7
			c-0.2,0.5,0,0.8,0.5,0.8c0.3,0,0.4-0.1,0.6-0.4l1.2-3.2c0.6-0.7,1.6-1.4,2.1-1.4c0.3,0,0.3,0.3,0.1,0.7l-1.9,3.6
			c-0.2,0.3,0.1,0.8,0.5,0.8c0.9,0,2-0.8,2.4-2h-0.3c-0.3,0.4-0.8,0.9-1.3,1l1.6-3.2c0.2-0.4,0.3-0.8,0.3-1.1c0-0.5-0.3-0.9-0.8-0.9
			c-0.8,0-1.5,0.9-2.4,2v-0.8c0-0.6-0.2-1.1-0.7-1.1c-0.6,0-1.2,1-1.7,2h0.3C31.9,29.6,32.2,29.4,32.4,29.4 M31.2,29.5
			c0.2-0.8,0.1-1.4-0.5-1.4c-0.7,0-0.9,0.5-1.6,2v-0.8c0-0.6-0.2-1.1-0.7-1.1c-0.6,0-1.2,1-1.7,2h0.3c0.3-0.4,0.6-0.7,0.8-0.7
			c0.3,0,0.4,0.4,0,1.4l-1.2,2.7c-0.2,0.5,0,0.8,0.5,0.8c0.3,0,0.4-0.1,0.6-0.4l1.2-3.2c0.3-0.4,0.7-0.8,1-1.2L31.2,29.5L31.2,29.5z
			 M24.4,28.9c0.4,0,0.8,0.3,0.6,1.1l-1.9,0.5C23.4,29.6,24,28.9,24.4,28.9 M25.5,32.1h-0.4c-0.5,0.6-1,1-1.5,1
			c-0.5,0-0.8-0.3-0.8-1c0-0.3,0-0.6,0.1-0.9l3.2-1c0.6-1.5-0.1-2.1-1-2.1c-1.5,0-3.2,2.6-3.2,4.7c0,1,0.5,1.5,1.2,1.5
			C23.9,34.3,24.8,33.5,25.5,32.1 M18.3,29h1l-1.7,4.6c-0.2,0.4,0.1,0.8,0.5,0.8c1.2,0,2.6-1,3.1-2.4h-0.3c-0.4,0.6-1.4,1.3-2,1.4
			l1.5-4.3H22l0.2-0.7h-1.5l0.6-1.6h-0.6l-1.1,1.6l-1.3,0.2V29L18.3,29z M12.7,32.5c0-1.4,1.6-3.3,2.5-3.3c0.2,0,0.4,0,0.5,0.1
			l-0.9,2.4c-0.5,0.6-1.3,1.4-1.7,1.4C12.9,33.1,12.7,33,12.7,32.5 M17.5,27.8l-0.5,0l-0.5,0.5h-0.1c-2.3,0-4.8,2.9-4.8,5.1
			c0,0.5,0.3,0.9,0.8,0.9c0.7,0,1.3-1,2.1-2l0,0.4c-0.1,1,0.2,1.6,0.8,1.6c0.6,0,1.2-1,1.7-2h-0.3c-0.3,0.4-0.6,0.7-0.8,0.7
			c-0.2,0-0.4-0.4,0-1.4L17.5,27.8z M12.6,29.5c0.2-0.8,0.1-1.4-0.5-1.4c-0.7,0-0.9,0.5-1.6,2v-0.8c0-0.6-0.2-1.1-0.8-1.1
			c-0.6,0-1.2,1-1.7,2h0.3c0.3-0.4,0.6-0.7,0.8-0.7c0.3,0,0.4,0.4,0,1.4L8,33.5c-0.2,0.5,0,0.8,0.5,0.8c0.3,0,0.4-0.1,0.6-0.4
			l1.2-3.2c0.3-0.4,0.7-0.8,1-1.2L12.6,29.5L12.6,29.5z M4.5,34.1l0.1-0.3c-1.5-0.3-1.7-0.3-1.1-1.9l0.6-1.6h1.2
			c0.8,0,0.8,0.3,0.7,1.2h0.4l1-2.8H7c-0.4,0.7-0.7,1.2-1.5,1.2H4.3l0.8-2.3c0.3-0.8,0.4-1,1.5-1h0.3C7.9,26.6,8,26.9,8,28h0.4
			l0.3-1.9H2.9l-0.1,0.3c1.2,0.3,1.3,0.4,0.8,1.9l-1.3,3.4c-0.6,1.6-0.8,1.7-2.2,1.9L0,34.1L4.5,34.1L4.5,34.1z"/>
		<path id="Shape_1_" class="st8" d="M33.7,15.6c0.4,0,0.8,0.3,0.6,1.1l-1.9,0.5C32.7,16.3,33.3,15.6,33.7,15.6 M34.8,18.8h-0.4
			c-0.5,0.6-1,1-1.5,1c-0.5,0-0.8-0.3-0.8-1c0-0.3,0-0.6,0.1-0.9l3.2-1c0.6-1.5-0.1-2.1-1-2.1c-1.5,0-3.2,2.6-3.2,4.7
			c0,1,0.5,1.5,1.2,1.5C33.2,21,34.1,20.2,34.8,18.8 M34.3,14.1l1.8-1.6v-0.2h-1.2l-1.1,1.9L34.3,14.1L34.3,14.1z M27.6,15.7h1
			l-1.7,4.6C26.8,20.6,27,21,27.4,21c1.2,0,2.6-1,3.1-2.4h-0.3c-0.4,0.6-1.4,1.3-2,1.4l1.5-4.3h1.6l0.2-0.7H30l0.6-1.6h-0.6L28.9,15
			l-1.3,0.2V15.7z M26.5,15.5c0.1-0.4-0.2-0.7-0.4-0.7c-0.9,0-2,0.8-2.4,2H24c0.3-0.4,0.8-0.9,1.3-1l-1.8,4.6
			c-0.2,0.4,0.2,0.7,0.4,0.7c0.9,0,1.9-0.8,2.3-2h-0.3c-0.3,0.4-0.8,0.9-1.3,1L26.5,15.5z M26.7,13.6c0.4,0,0.7-0.3,0.7-0.7
			s-0.3-0.7-0.7-0.7c-0.4,0-0.7,0.3-0.7,0.7S26.3,13.6,26.7,13.6 M21.1,20l2.9-7.7l-0.1-0.1l-2,0.2v0.2l0.4,0.3
			c0.3,0.3,0.2,0.5-0.1,1.4L20,20.2C19.8,20.6,20,21,20.4,21c0.9,0,1.9-0.8,2.3-2h-0.3C22.1,19.5,21.5,19.9,21.1,20 M15.2,19.2
			c0-1.4,1.6-3.3,2.5-3.3c0.2,0,0.4,0,0.5,0.1l-0.9,2.4c-0.5,0.6-1.3,1.4-1.7,1.4C15.3,19.8,15.2,19.7,15.2,19.2 M20,14.5l-0.5,0
			L18.9,15h-0.1c-2.3,0-4.8,2.9-4.8,5.1c0,0.5,0.3,0.9,0.8,0.9c0.7,0,1.3-1,2.1-2l0,0.4c-0.1,1,0.2,1.6,0.8,1.6c0.6,0,1.2-1,1.7-2
			h-0.3c-0.3,0.4-0.6,0.7-0.8,0.7c-0.2,0-0.4-0.4,0-1.4L20,14.5z M8.8,22.1c0-0.6,0.6-1,1.4-1.3c0.3,0.1,0.7,0.3,1.2,0.5
			c0.9,0.3,1.2,0.4,1.2,0.7c0,0.6-0.8,1-2.2,1C9.3,22.9,8.8,22.7,8.8,22.1 M11.2,18.4c-0.4,0-0.5-0.3-0.5-0.7c0-1.1,0.5-2.5,1.4-2.5
			c0.4,0,0.5,0.3,0.5,0.7C12.6,17,12,18.4,11.2,18.4 M13.6,21.6c0-0.7-0.7-1-1.7-1.3c-0.9-0.3-1.3-0.3-1.3-0.7
			c0-0.2,0.2-0.5,0.6-0.7c1.5-0.1,2.5-1.4,2.5-2.6c0-0.2,0-0.4-0.1-0.6h1l0.2-0.7H13c-0.2-0.2-0.5-0.2-0.8-0.2
			c-1.6,0-2.6,1.4-2.6,2.6c0,0.8,0.5,1.3,1.2,1.4C10,19.2,9.6,19.5,9.6,20c0,0.3,0.1,0.5,0.3,0.6c-1.7,0.5-2.4,1.1-2.4,1.9
			c0,0.8,1,1.1,2.3,1.1C11.9,23.6,13.6,22.5,13.6,21.6 M5.8,16.9c0.8,0,0.8,0.3,0.7,1.2h0.4l1-2.8H7.4C7,16,6.7,16.5,5.9,16.5H4.2
			l0.8-2.3c0.3-0.8,0.4-1,1.5-1h0.7c1.1,0,1.2,0.3,1.2,1.4h0.4l0.3-1.9H2.9l-0.1,0.3c1.2,0.3,1.3,0.4,0.8,1.9l-1.3,3.4
			c-0.6,1.6-0.8,1.7-2.2,1.9L0,20.8h7l1.3-2H7.8c-0.8,0.8-1.6,1.5-3.2,1.5c-1.9,0-1.7-0.1-1.1-1.8l0.6-1.6L5.8,16.9L5.8,16.9z
			 M6.7,12.2l1.8-1.3v-0.2H7.3l-1.1,1.5H6.7z"/>
		<path id="Shape_2_" class="st8" d="M33.5,2.4c0.4,0,0.8,0.3,0.6,1.1L32.1,4C32.5,3,33,2.4,33.5,2.4 M34.6,5.5h-0.4
			c-0.5,0.6-1,1-1.5,1c-0.5,0-0.8-0.3-0.8-1c0-0.3,0-0.6,0.1-0.9l3.2-1c0.6-1.5-0.1-2.1-1-2.1c-1.5,0-3.2,2.6-3.2,4.7
			c0,1,0.5,1.5,1.2,1.5C33,7.7,33.8,6.9,34.6,5.5 M34.1,0.8l1.8-1.6v-0.2h-1.2l-1.1,1.9L34.1,0.8L34.1,0.8z M27.3,2.4h1.1l-1.7,4.6
			c-0.2,0.4,0.1,0.8,0.5,0.8c1.2,0,2.6-1,3.1-2.4H30c-0.4,0.6-1.4,1.3-2,1.4l1.5-4.3h1.6l0.2-0.7h-1.5l0.6-1.6h-0.6l-1.1,1.6
			l-1.3,0.2L27.3,2.4L27.3,2.4z M26.8,2.9c0.2-0.8,0.1-1.4-0.5-1.4c-0.7,0-0.9,0.5-1.6,2V2.6c0-0.6-0.2-1.1-0.7-1.1
			c-0.6,0-1.2,1-1.7,2h0.3c0.3-0.4,0.6-0.7,0.8-0.7c0.3,0,0.4,0.4,0,1.4l-1.2,2.7c-0.2,0.5,0,0.8,0.5,0.8c0.3,0,0.4-0.1,0.6-0.4
			l1.2-3.2c0.3-0.4,0.7-0.8,1-1.2L26.8,2.9L26.8,2.9z M20.1,2.4c0.4,0,0.8,0.3,0.6,1.1L18.7,4C19,3,19.6,2.4,20.1,2.4 M21.1,5.5
			h-0.4c-0.5,0.6-1,1-1.5,1c-0.5,0-0.8-0.3-0.8-1c0-0.3,0-0.6,0.1-0.9l3.2-1c0.6-1.5-0.1-2.1-1-2.1c-1.5,0-3.2,2.6-3.2,4.7
			c0,1,0.5,1.5,1.2,1.5C19.5,7.7,20.4,6.9,21.1,5.5 M13.8,6.8c-0.3,0-0.8-0.3-0.8-0.5c0-0.1,0.1-0.4,0.3-0.9L13.8,4
			c0.5-0.7,1.4-1.4,1.9-1.4c0.3,0,0.5,0.2,0.5,0.6C16.2,4.5,15,6.8,13.8,6.8 M17.3,2.8c0-0.9-0.2-1.3-0.9-1.3
			c-0.8,0-1.6,0.9-2.3,1.9L15.7-1l-0.1-0.1l-2,0.2v0.2L14-0.3c0.3,0.3,0.2,0.5-0.1,1.4l-1.8,4.6c-0.2,0.4-0.3,0.8-0.3,1
			c0,0.5,0.7,1.1,1.4,1.1C14.7,7.7,17.3,4.9,17.3,2.8 M11.4,2.2c0.1-0.4-0.2-0.7-0.4-0.7c-0.9,0-2,0.8-2.4,2h0.3
			c0.3-0.4,0.8-0.9,1.3-1L8.3,7.1C8.2,7.5,8.5,7.7,8.7,7.7c0.9,0,1.9-0.8,2.3-2h-0.3c-0.3,0.4-0.8,0.9-1.3,1L11.4,2.2z M11.5,0.3
			c0.4,0,0.7-0.3,0.7-0.7s-0.3-0.7-0.7-0.7c-0.4,0-0.7,0.3-0.7,0.7S11.1,0.3,11.5,0.3 M7.1-0.5H2.9L2.8-0.2C4,0.1,4.1,0.2,3.6,1.8
			L2.3,5.2C1.7,6.8,1.5,6.9,0.1,7.1L0,7.5h6.3L7.7,5H7.2C6.4,5.9,5.5,7,4.1,7C3.1,7,2.9,6.8,3.5,5.2l1.3-3.4C5.3,0.2,5.6,0.1,7-0.2
			L7.1-0.5z"/>
	</g>
	<g id="RF" transform="translate(0.000000, 25.384063)">
		<path id="FRANÇAISE" class="st8" d="M2.9,39.1V33h4.7v-2.5H2.9v-3.4h5.5v-2.5H0v14.5H2.9z M13.3,39.1v-5.9h1.5l3.9,5.9h3.5
			l-4.6-6.4c0.7-0.3,1.3-0.8,1.7-1.5c0.4-0.6,0.6-1.4,0.6-2.3c0-1.3-0.5-2.4-1.4-3.2c-0.9-0.8-2.2-1.2-3.8-1.2l0,0h-4.4v14.5H13.3z
			 M15,30.7h-1.7v-3.6H15c0.6,0,1.1,0.2,1.4,0.5s0.5,0.8,0.5,1.3c0,0.6-0.2,1-0.5,1.4S15.6,30.7,15,30.7L15,30.7z M25.3,39.1
			l1.4-3.8h5.8l1.4,3.8H37l-5.5-14.5h-3.9l-5.5,14.5H25.3z M31.6,32.8h-4l2-5.4L31.6,32.8z M41.5,39.1V28.7L48,39.1h3.8V24.6h-2.9
			V35l-6.5-10.4h-3.8v14.5H41.5z M61,42.4l1.8-3c1-0.1,2-0.5,2.9-1c0.9-0.5,1.6-1.1,2.1-1.9l0,0l-2.3-1.8c-0.4,0.6-0.9,1.1-1.6,1.4
			c-0.6,0.4-1.4,0.5-2.2,0.5c-0.7,0-1.3-0.1-1.9-0.4c-0.6-0.3-1.1-0.6-1.5-1c-0.4-0.4-0.7-1-1-1.6c-0.2-0.6-0.4-1.2-0.4-1.9
			c0-0.7,0.1-1.3,0.4-1.9c0.2-0.6,0.6-1.1,1-1.6c0.4-0.4,0.9-0.8,1.5-1c0.6-0.3,1.2-0.4,1.9-0.4c0.8,0,1.6,0.2,2.2,0.5
			c0.6,0.4,1.2,0.8,1.6,1.4l0,0l2.3-1.8c-0.7-0.9-1.5-1.6-2.6-2.1c-1-0.5-2.2-0.8-3.5-0.8c-1.1,0-2.2,0.2-3.1,0.6
			c-1,0.4-1.8,1-2.4,1.7c-0.7,0.7-1.2,1.5-1.6,2.4c-0.4,0.9-0.6,1.9-0.6,3c0,0.9,0.1,1.8,0.4,2.6s0.7,1.6,1.3,2.3
			c0.5,0.7,1.2,1.2,2,1.7c0.8,0.5,1.6,0.8,2.6,0.9l0,0l-1.8,3H61z M70.8,39.1l1.4-3.8H78l1.4,3.8h3.1l-5.5-14.5h-3.9l-5.5,14.5H70.8
			z M77.1,32.8h-4l2-5.4L77.1,32.8z M87.1,39.1V24.6h-2.9v14.5H87.1z M94.6,39.5c0.7,0,1.3-0.1,1.9-0.3c0.6-0.2,1.1-0.5,1.5-0.9
			c0.4-0.4,0.8-0.8,1-1.4c0.3-0.5,0.4-1.1,0.4-1.8c0-1.2-0.3-2.1-1-2.8c-0.7-0.6-1.4-1.1-2.3-1.5c-0.8-0.4-1.6-0.8-2.3-1.1
			c-0.7-0.3-1-0.8-1-1.5c0-0.4,0.2-0.8,0.5-1.1s0.7-0.4,1.2-0.4c0.6,0,1.1,0.2,1.5,0.5c0.5,0.3,0.9,0.8,1.4,1.3l0,0l2.2-1.9
			c-0.6-0.7-1.3-1.3-2.2-1.8c-0.8-0.4-1.8-0.7-2.9-0.7c-0.7,0-1.3,0.1-1.9,0.3c-0.6,0.2-1.1,0.5-1.5,0.9s-0.7,0.8-1,1.3
			c-0.2,0.5-0.3,1.1-0.3,1.6c0,1.2,0.3,2.1,1,2.7s1.4,1.1,2.3,1.5c0.8,0.4,1.6,0.8,2.3,1.1c0.7,0.3,1,0.8,1,1.5
			c0,0.5-0.2,0.9-0.5,1.2c-0.3,0.3-0.8,0.4-1.4,0.4c-0.6,0-1.2-0.2-1.7-0.5c-0.6-0.3-1.1-0.8-1.5-1.3l0,0l-2.1,2
			c0.6,0.8,1.4,1.4,2.3,1.8C92.3,39.3,93.3,39.5,94.6,39.5z M110.2,39.1v-2.5h-5.5V33h4.7v-2.5h-4.7v-3.4h5.5v-2.5h-8.5v14.5H110.2z
			"/>
		<path id="RÉPUBLIQUE" class="st8" d="M2.9,18.1v-5.9h1.5l3.8,5.9h3.5l-4.6-6.4C8,11.4,8.6,10.9,9,10.3C9.4,9.6,9.6,8.9,9.6,8
			c0-1.3-0.5-2.4-1.4-3.2S6,3.7,4.4,3.7l0,0H0v14.5H2.9z M4.6,9.8H2.9V6.2h1.7c0.6,0,1.1,0.2,1.4,0.5C6.4,7,6.6,7.4,6.6,7.9
			c0,0.6-0.2,1-0.5,1.4C5.7,9.6,5.2,9.8,4.6,9.8L4.6,9.8z M18.5,2.4l2.7-2.8h-3l-2.3,2.8H18.5z M21.4,18.1v-2.5h-5.5V12h4.7V9.5
			h-4.7V6.2h5.5V3.7H13v14.5H21.4z M27.1,18.1v-5.9H29c1.6,0,2.8-0.4,3.8-1.2c0.9-0.8,1.4-1.8,1.4-3.1c0-1.3-0.5-2.4-1.4-3.2
			C31.8,4,30.5,3.7,29,3.7l0,0h-4.8v14.5H27.1z M29.1,9.8h-2V6.2h2c0.6,0,1.1,0.2,1.5,0.5c0.4,0.3,0.5,0.8,0.5,1.3
			c0,0.6-0.2,1-0.5,1.4C30.2,9.6,29.7,9.8,29.1,9.8L29.1,9.8z M41.5,18.6c1.8,0,3.2-0.5,4.3-1.6c1.1-1.1,1.6-2.6,1.6-4.5l0,0V3.7
			h-2.9v9.1c0,1-0.3,1.7-0.8,2.3c-0.5,0.5-1.2,0.8-2.1,0.8c-0.9,0-1.6-0.3-2.2-0.8c-0.5-0.5-0.8-1.3-0.8-2.3l0,0V3.7h-2.9v8.8
			c0,1.9,0.5,3.4,1.6,4.5C38.2,18,39.6,18.6,41.5,18.6z M54.7,18.1c1.7,0,3-0.4,3.9-1.1c1-0.8,1.4-1.8,1.4-3.1c0-0.7-0.2-1.4-0.6-2
			c-0.4-0.6-1-1.1-1.8-1.4c0.5-0.3,0.9-0.8,1.1-1.3s0.4-1,0.4-1.6c0-1.2-0.4-2.2-1.3-2.9c-0.9-0.7-2-1.1-3.5-1.1l0,0h-4.1v14.5H54.7
			z M54.5,9.3h-1.2V6.2h1.2c0.6,0,1,0.1,1.3,0.4c0.3,0.3,0.5,0.7,0.5,1.1c0,0.5-0.2,0.9-0.5,1.2S55,9.3,54.5,9.3L54.5,9.3z
			 M54.9,15.6h-1.7v-3.8h1.7c0.7,0,1.2,0.2,1.6,0.5c0.4,0.3,0.6,0.8,0.6,1.4c0,0.6-0.2,1.1-0.6,1.4C56.1,15.5,55.6,15.6,54.9,15.6
			L54.9,15.6z M70.9,18.1v-2.7h-5.5V3.7h-2.9v14.5H70.9z M75.8,18.1V3.7h-2.9v14.5H75.8z M93.9,21.7c0.3,0,0.6,0,0.8-0.1
			c0.2,0,0.5-0.1,0.7-0.2l0,0V19c-0.2,0.1-0.3,0.1-0.5,0.1c-0.2,0-0.4,0-0.5,0c-0.5,0-1-0.1-1.5-0.3c-0.5-0.2-1-0.6-1.6-1.1l0,0
			l-0.9-0.8c0.9-0.7,1.6-1.6,2.1-2.6c0.5-1.1,0.8-2.2,0.8-3.4c0-1-0.2-2-0.6-2.9c-0.4-0.9-0.9-1.7-1.6-2.4c-0.7-0.7-1.5-1.2-2.4-1.7
			s-2-0.6-3.1-0.6c-1.1,0-2.2,0.2-3.1,0.6c-1,0.4-1.8,1-2.4,1.7S78.9,7,78.5,8c-0.4,0.9-0.6,1.9-0.6,2.9s0.2,2,0.6,2.9
			c0.4,0.9,0.9,1.7,1.6,2.4c0.7,0.7,1.5,1.2,2.4,1.7c1,0.4,2,0.6,3.1,0.6c0.3,0,0.7,0,1-0.1c0.3,0,0.7-0.1,1-0.2l0,0l1.7,1.5
			c0.7,0.6,1.4,1.1,2.2,1.4C92.3,21.6,93.1,21.7,93.9,21.7z M85.6,15.8c-0.7,0-1.3-0.1-1.9-0.4c-0.6-0.3-1.1-0.6-1.5-1
			c-0.4-0.4-0.7-1-1-1.6c-0.2-0.6-0.4-1.2-0.4-1.9c0-0.7,0.1-1.3,0.4-1.9c0.2-0.6,0.6-1.1,1-1.6c0.4-0.4,0.9-0.8,1.5-1
			C84.3,6.1,84.9,6,85.6,6s1.3,0.1,1.9,0.4c0.6,0.3,1.1,0.6,1.5,1c0.4,0.4,0.7,1,1,1.6c0.2,0.6,0.4,1.2,0.4,1.9
			c0,0.7-0.1,1.3-0.4,1.9c-0.2,0.6-0.6,1.1-1,1.6c-0.4,0.4-0.9,0.8-1.5,1C86.9,15.7,86.3,15.8,85.6,15.8z M101.1,18.6
			c1.8,0,3.2-0.5,4.3-1.6c1.1-1.1,1.6-2.6,1.6-4.5l0,0V3.7H104v9.1c0,1-0.3,1.7-0.8,2.3c-0.5,0.5-1.2,0.8-2.1,0.8
			c-0.9,0-1.6-0.3-2.2-0.8c-0.5-0.5-0.8-1.3-0.8-2.3l0,0V3.7h-2.9v8.8c0,1.9,0.5,3.4,1.6,4.5C97.8,18,99.3,18.6,101.1,18.6z
			 M118.4,18.1v-2.5h-5.5V12h4.7V9.5h-4.7V6.2h5.5V3.7h-8.4v14.5H118.4z"/>
	</g>
	<g id="Marianne">
		<path id="Path" class="st22" d="M17.2,16.9C17.2,16.9,17.2,16.9,17.2,16.9c0.1,0,0.1-0.1,0.2-0.1h0C17.3,16.8,17.3,16.9,17.2,16.9
			"/>
		<path id="Path_1_" class="st22" d="M24.3,14.5L24.3,14.5C24.2,14.6,24.3,14.6,24.3,14.5"/>
		<path id="Shape_3_" class="st23" d="M22,17c0.2-0.2,0.4-0.4,0.6-0.7l0,0c0.4-0.4,0.8-0.8,1.2-1.2c0.1-0.1,0.3-0.2,0.4-0.3
			c0,0,0-0.1,0.1-0.2c-0.2,0.1-0.3,0.2-0.5,0.3c0,0-0.1,0,0-0.1c0.1-0.1,0.3-0.2,0.4-0.3h0c0,0,0,0,0-0.1c-0.5-0.1-0.8,0.3-1.2,0.5
			c-0.1,0-0.2,0-0.2,0c-0.5,0.2-0.9,0.7-1.5,0.9v-0.1c-0.2,0.1-0.4,0.2-0.7,0.3c-0.3,0.1-0.6,0-0.9,0c-0.4,0-0.9,0.1-1.3,0.2
			c0,0,0,0,0,0c-0.2,0.1-0.5,0.2-0.7,0.3l0,0c0,0,0,0-0.1,0.1c-0.1,0.1-0.2,0.2-0.3,0.2c-0.2,0.1-0.4,0.3-0.6,0.5c0,0,0,0-0.1,0
			c-0.2,0.2-0.4,0.4-0.6,0.6c0,0-0.1,0-0.1,0l0,0c0,0,0,0,0,0c0-0.1,0.1-0.1,0.1-0.2c0-0.1,0.1-0.1,0.1-0.2c0.1-0.1,0.1-0.2,0.2-0.2
			c0,0,0,0,0,0c0,0,0,0-0.1,0c0.2-0.2,0.4-0.3,0.6-0.5l0,0c0,0-0.1,0,0,0c0,0,0-0.1,0.1-0.1c0,0,0,0,0,0c0,0,0,0,0,0
			c-0.1,0-0.1,0.1-0.2,0.1c-0.1,0.1-0.2,0.2-0.3,0.2c0,0,0,0-0.1,0c0,0,0,0,0,0l0,0c0,0,0,0,0,0l0,0c0,0,0,0,0,0c0,0,0,0,0,0
			c0,0,0,0,0,0c0,0,0,0,0,0c0,0,0,0,0,0c0,0,0-0.1,0-0.1s0,0,0,0c0,0,0,0,0-0.1c0,0,0-0.1,0-0.1c0.1-0.1,0.2-0.2,0.3-0.2h0
			c0.1-0.1,0.3-0.2,0.4-0.2c0,0,0,0,0.1-0.1c-0.2,0.1-0.4,0.2-0.6,0.3c0,0,0,0-0.1,0c0,0,0,0-0.1,0v0c0-0.1,0.2-0.1,0.2-0.2
			c0,0,0.1,0,0.1,0c1.2-0.9,2.8-0.7,4.1-1.2c0.1-0.1,0.2-0.2,0.3-0.2c0.2-0.1,0.3-0.3,0.5-0.4c0.3-0.2,0.5-0.5,0.6-0.8
			c0,0,0-0.1,0-0.1c-0.5,0.5-1,0.9-1.6,1.2c-0.8,0.4-1.6,0.3-2.4,0.4c0-0.1,0.1-0.1,0.2-0.1c0-0.1,0.1-0.2,0.2-0.2h0.1
			c0,0,0-0.1,0.1-0.1c0.1,0,0.2,0,0.2,0c-0.1-0.2-0.3,0.1-0.5,0c0.1-0.1,0-0.2,0.1-0.2h0.2c0-0.1,0.1-0.2,0.1-0.2
			c0.5-0.3,1.1-0.6,1.6-0.9c-0.1,0-0.2,0.1-0.3,0c0.1,0,0-0.1,0.1-0.1c0.4-0.1,0.7-0.3,1.1-0.5c-0.2,0-0.3,0.1-0.4,0
			c0.1,0,0.1-0.1,0.2-0.1v-0.1c0,0,0,0,0.1,0c0,0-0.1,0-0.1,0c0-0.1,0.2,0,0.2-0.1c0,0-0.1,0-0.1,0c0.1-0.2,0.3-0.2,0.5-0.2
			c0-0.1-0.2,0-0.2-0.1c0,0,0,0,0.1,0h-0.1c-0.1,0,0-0.1,0-0.2c0.2-0.3,0.2-0.6,0.3-0.9c0,0-0.1,0-0.1,0c-0.4,0.4-0.9,0.5-1.5,0.7
			h-0.3c-0.2,0.1-0.4,0.1-0.6,0c-0.2-0.1-0.2-0.2-0.4-0.3c-0.3-0.2-0.6-0.3-0.9-0.4c-0.9-0.3-1.8-0.4-2.8-0.4
			c0.4-0.2,0.8-0.2,1.3-0.4c0.6-0.2,1.2-0.4,1.8-0.4c-0.1,0-0.3,0-0.4,0c-0.5,0-1,0.1-1.6,0.2c-0.4,0.1-0.7,0.2-1.1,0.3
			c-0.2,0.1-0.3,0.3-0.6,0.3v-0.1c0.4-0.4,0.8-0.9,1.4-0.9c0.7-0.1,1.3,0,1.9,0.1c0.5,0,0.9,0.2,1.4,0.3c0.2,0,0.2,0.3,0.4,0.3
			c0.2,0.1,0.4,0,0.7,0.2c0-0.1,0-0.2,0-0.2c0.2-0.2,0.3,0,0.5,0c0.3-0.2-0.3-0.5-0.4-0.8c0,0,0-0.1,0-0.1c0.3,0.3,0.5,0.5,0.9,0.7
			c0.2,0.1,0.6,0.2,0.5,0c-0.2-0.4-0.5-0.7-0.8-1.1V8.8c-0.1,0-0.1,0-0.1-0.1V8.6c-0.2-0.1-0.1-0.2-0.2-0.3c-0.1-0.2,0-0.4-0.1-0.7
			S20.9,7.2,20.9,7c-0.1-0.6-0.3-1.2-0.3-1.8C20.5,4.6,21,4,21.3,3.4c0.3-0.4,0.5-0.9,1-1.2c0.1-0.4,0.4-0.8,0.7-1.2
			s0.8-0.6,1.1-0.7c0.5-0.2,1-0.4,1-0.4H0v19.2h17.8c0.7-0.5,1.4-0.7,2.3-1.2C20.6,17.8,21.7,17.4,22,17 M16.5,14.4
			c-0.1,0-0.2,0-0.2,0c0-0.2,0.3-0.2,0.4-0.3c0.1,0,0.2-0.1,0.3-0.1c0.1,0.1,0.2,0.1,0.3,0.2C17,14.4,16.7,14.3,16.5,14.4
			 M10.9,13.6C10.9,13.6,10.8,13.6,10.9,13.6c0.4-0.7,0.8-1.3,1.1-1.9c0.5-0.3,0.9-0.6,1.2-1c0.6-0.7,1.3-1.2,2-1.6
			c0.3-0.1,0.7-0.1,0.9,0c-0.1,0.2-0.3,0.1-0.4,0.2c0,0-0.1,0-0.1,0c0,0,0-0.1,0-0.1c-0.4,0.4-0.9,0.6-1.2,1.1
			c-0.2,0.4-0.4,0.8-0.8,0.9c-0.2,0,0-0.1,0-0.1C12.5,11.8,11.8,12.6,10.9,13.6 M13.9,11.2c0,0.1-0.1,0.1-0.1,0.2
			c0,0.1-0.1,0.1-0.2,0.2c0,0-0.1,0-0.1,0C13.6,11.3,13.7,11.2,13.9,11.2C13.9,11.1,13.9,11.2,13.9,11.2 M15.6,16.6
			c0,0-0.1,0.1-0.1,0.1c0,0,0.1,0,0,0.1c-0.1,0.1-0.2,0.2-0.3,0.2c0,0,0,0-0.1,0c0,0-0.1,0.1-0.1,0.1c0,0-0.3,0-0.2,0
			c0.1-0.1,0.2-0.2,0.3-0.3c0.1,0,0.1-0.1,0.2-0.2c0,0,0-0.1,0.1-0.1C15.4,16.6,15.6,16.6,15.6,16.6 M14.9,16.4L14.9,16.4
			c-0.2,0.1-0.3,0.2-0.4,0.3c-0.2,0.1-0.3,0.2-0.5,0.2l0,0c0,0,0,0-0.1,0c-0.1,0.1-0.3,0.2-0.4,0.3c0,0,0,0-0.1,0.1l0,0l0,0
			l-0.1,0.1l0,0l0,0c0,0-0.1,0.1-0.1,0.1c0,0,0,0-0.1,0.1c0,0-0.1,0-0.1,0l0,0c0,0,0,0-0.1,0c0,0,0,0-0.1,0h0h0c0,0-0.1,0.1-0.1,0.1
			c-0.1,0.1-0.2,0.1-0.2,0.2l0,0c0,0,0,0,0,0c0,0,0,0,0,0c0,0,0,0,0,0l0,0c0,0,0,0,0,0l0,0c0,0,0,0,0,0l0,0c0,0,0,0,0,0
			c0,0,0,0,0-0.1l0,0v0c0,0,0.1-0.1,0.1-0.1l0,0c0,0,0,0,0,0c0,0,0-0.1,0.1-0.1c0,0,0,0,0,0c0-0.1,0.1-0.1,0.1-0.2l0,0l0,0
			c0,0,0-0.1,0.1-0.1c0,0,0,0,0-0.1l0,0l0,0c0,0,0,0,0,0c0,0,0-0.1,0-0.1l0,0v0c0,0,0,0,0,0l0,0c0,0,0,0,0-0.1v0
			c0-0.1,0.1-0.1,0.2-0.2h0c-0.1,0-0.1,0.1-0.1,0.1c0,0-0.1,0-0.1-0.1c0,0,0.1-0.1,0.1-0.1l0,0c0.1-0.1,0.1-0.1,0.2-0.2
			c0,0,0.1-0.1,0.1-0.1l0,0c0,0,0.1-0.1,0.1-0.1l0,0c0.3-0.3,0.9-0.3,1.4-0.5c0.2-0.1,0.4,0,0.6,0c0.1,0,0.2,0,0.3,0.1
			C15.5,16,15.2,16.2,14.9,16.4 M15.7,13.8c0,0,0.1,0,0.2-0.1h-0.3c0,0,0,0,0-0.1c-0.2,0-0.4,0.1-0.6,0.2c-0.3,0.1-0.5,0.3-0.8,0.3
			c-0.4,0.2-0.7,0.5-1.2,0.6c0,0,0,0,0-0.1c0-0.1,0.2-0.2,0.3-0.3c0,0,0-0.1,0-0.1c0.3-0.4,0.7-0.6,1.1-0.9v-0.1
			c0.1-0.2,0.3-0.2,0.4-0.4c0-0.1,0.2-0.3,0.4-0.3c0,0-0.1,0-0.1-0.1c-0.2,0-0.3,0.1-0.4,0c0.1-0.1,0.2-0.1,0.2-0.1
			c0,0-0.1,0-0.1-0.1c0-0.1,0.1-0.2,0.2-0.2c0.2,0,0.3,0,0.4-0.2c-0.3,0-0.5,0.1-0.8-0.1c0.2-0.5,0.5-0.9,0.9-1.1c0,0,0.1,0,0.1,0
			c0,0.2-0.1,0.3-0.3,0.4c0.3,0.1,0.6,0.1,0.9,0.2c0,0.1-0.1,0-0.2,0c0.2,0.1,0.4,0,0.6,0.2c-0.1,0.1-0.2,0-0.3,0
			c1.1,0.3,2.3,0.6,3.3,1.3c-0.8,0.4-1.6,0.6-2.5,0.8c-0.1,0-0.2,0-0.3,0c0,0,0,0.1,0,0.1c-0.2,0-0.3,0-0.4,0.1
			C16,13.9,15.8,13.9,15.7,13.8"/>
		<path id="Path_2_" class="st24" d="M53.1,0H32.4c0,0,0,0,0.2,0.1c0.2,0.1,0.4,0.2,0.5,0.3c0.3,0.1,0.5,0.3,0.7,0.6
			c0.1,0.1,0.2,0.3,0.1,0.5c-0.1,0.2-0.1,0.5-0.3,0.5c-0.2,0.1-0.5,0.1-0.8,0.1c-0.2,0-0.3,0-0.4-0.1c0.5,0.2,1.1,0.5,1.4,1
			c0,0.1,0.2,0.1,0.3,0.1c0,0,0,0.1,0,0.1c-0.1,0.1-0.2,0.1-0.1,0.2h0.1c0.2-0.1,0.2-0.4,0.4-0.3c0.2,0.1,0.3,0.4,0.2,0.5
			c-0.2,0.2-0.3,0.3-0.4,0.4c0,0.1,0,0.2,0,0.3c0.1,0.2,0.2,0.3,0.2,0.4c0.1,0.3,0.2,0.5,0.3,0.8C34.9,6,35,6.6,35,7.1
			c0,0.3-0.2,0.5,0,0.8c0.1,0.3,0.3,0.5,0.4,0.8c0.2,0.2,0.3,0.4,0.4,0.6c0.2,0.4,0.6,0.7,0.4,1.2c-0.1,0.3-0.5,0.2-0.8,0.4
			c-0.2,0.2,0,0.5,0.1,0.7c0.2,0.3-0.2,0.5-0.5,0.7c0.1,0.1,0.2,0.1,0.3,0.2c0,0.2,0.2,0.3,0.1,0.5c-0.2,0.2-0.6,0.3-0.4,0.7
			c0.2,0.3,0.1,0.5,0,0.8c-0.1,0.3-0.4,0.5-0.7,0.5c-0.2,0.1-0.5,0.1-0.7,0c-0.1,0-0.2-0.1-0.2-0.1c-0.6-0.1-1.2-0.3-1.8-0.3
			c-0.2,0-0.4,0.1-0.5,0.1c-0.2,0.1-0.3,0.3-0.4,0.4l0,0c0,0-0.1,0.1-0.1,0.1c0,0,0,0,0,0.1c0,0,0,0,0,0c-0.1,0.1-0.2,0.3-0.3,0.4
			c0,0,0,0,0,0c0,0,0,0,0,0.1c-0.1,0.2-0.2,0.4-0.3,0.7c-0.3,0.8-0.1,1.5,0,1.7c0,0,1.2,0.4,2,0.8c0.4,0.2,0.6,0.3,0.9,0.4h20.3
			L53.1,0L53.1,0z"/>
		<path id="Path_3_" class="st25" d="M33.6,7c0.2,0,0.4,0,0.4,0.1c-0.1,0.3-0.5,0.4-0.7,0.7h-0.1C33,7.9,33.1,8.1,33,8.1
			c-0.1,0-0.2,0-0.3,0c0.2,0.2,0.3,0.3,0.5,0.2c0,0,0.1,0.1,0.1,0.2c0,0,0,0,0.1,0c0,0,0.1,0,0.1,0v0.2c-0.1,0.2-0.3,0.1-0.4,0.1
			c0.3,0.1,0.6,0.1,0.8,0c0.2-0.1,0-0.4,0.2-0.6c-0.1,0,0-0.1-0.1-0.1c0.1-0.1,0.2-0.2,0.2-0.2c0.1,0,0.2,0,0.2-0.1
			c0-0.1-0.2-0.1-0.1-0.2c0.2-0.2,0.4-0.4,0.3-0.6c0-0.1-0.3-0.1-0.5-0.2c-0.2-0.1-0.4,0-0.6,0c-0.2,0-0.4,0.1-0.5,0.2
			c-0.3,0.1-0.5,0.2-0.7,0.4c0.3-0.1,0.5-0.2,0.8-0.2C33.2,7,33.4,7,33.6,7"/>
	</g>
</g>
</svg>
