<?xml version="1.0" encoding="UTF-8"?>
<svg width="68px" height="40px" viewBox="0 0 68 40" version="1.1" xmlns="http://www.w3.org/2000/svg" xmlns:xlink="http://www.w3.org/1999/xlink">
    <title>mail-conseiller-numerique</title>
    <g id="mail-conseiller-numerique" stroke="none" stroke-width="1" fill="none" fill-rule="evenodd">
        <g id="Group-2" transform="translate(-0.000000, 0.000000)">
            <polygon id="Fill-1" fill="#E1000F" points="41.9433198 3.76156228 35.9638009 7.21476542 35.9638009 14.1192665 41.9433198 17.5734222 47.9228388 14.1192665 47.9228388 7.21476542"></polygon>
            <polygon id="Fill-2" fill="#FFFFFF" points="43.6531555 9.67954275 45.9194094 9.67954275 45.9194094 8.37065968 41.9432246 6.07487497 37.9660872 8.37065968 37.9660872 12.9622291 41.9432246 15.2580138 45.9194094 12.9622291 45.9194094 11.6542986 43.6531555 11.6542986"></polygon>
            <polygon id="Fill-3" fill="#000091" points="43.6531555 11.6541081 43.6531555 9.67935223 41.9432246 8.69245058 40.2332936 9.67935223 40.2332936 11.6541081 41.9432246 12.6419624"></polygon>
            <path d="M44.0559181,20.8382948 C42.4583949,22.1814718 41.328602,22.1824244 39.7377471,20.8392474 C38.6974994,19.9638009 28.8141939,10.8759228 19.529126,2.31293165 C19.7729936,2.24053346 20.0254346,2.18909264 20.29407,2.18909264 L63.5929507,2.18909264 C63.7148845,2.18909264 63.83015,2.2090974 63.9473208,2.22433913 C64.0530603,2.2452965 64.1587997,2.27387473 64.2635866,2.31388426 C58.9080257,7.27030245 45.9058824,19.2845916 44.0559181,20.8382948 M63.5929507,-1.04914622e-13 L20.29407,-1.04914622e-13 C17.6096213,-1.04914622e-13 15.427197,2.18242439 15.427197,4.86496785 L15.427197,11.09407 L17.6162896,11.09407 L17.6162896,4.86496785 C17.6162896,4.46773041 17.7086925,4.09430817 17.8639676,3.75613241 C23.3205049,8.78875923 37.0113837,21.4060491 38.3259824,22.5129793 C39.5253156,23.5246487 40.7084544,24.0304834 41.8934985,24.0304834 C43.0785425,24.0304834 44.262634,23.5246487 45.464825,22.5148845 C47.3795666,20.9049774 60.7884734,8.51155037 65.9906644,3.69802334 C66.1640391,4.05239343 66.2697785,4.44486783 66.2697785,4.86496785 L66.2697785,35.1350322 C66.2697785,36.609669 65.0694927,37.8109074 63.5929507,37.8109074 L20.29407,37.8109074 C18.817528,37.8109074 17.6162896,36.609669 17.6162896,35.1350322 L17.6162896,27.1102643 L15.427197,27.1102643 L15.427197,35.1350322 C15.427197,37.8175756 17.6096213,40 20.29407,40 L63.5929507,40 C66.2764468,40 68.4588712,37.8175756 68.4588712,35.1350322 L68.4588712,4.86496785 C68.4588712,2.18242439 66.2764468,-1.04914622e-13 63.5929507,-1.04914622e-13" id="Fill-4" fill="#FFFFFF"></path>
            <path d="M24.8475351,27.1102643 L6.00781138,27.1102643 C5.48101929,27.1102643 5.05520362,26.6834961 5.05520362,26.1576566 C5.05520362,25.6318171 5.48101929,25.2050488 6.00781138,25.2050488 L24.8475351,25.2050488 C25.3743272,25.2050488 25.8001429,25.6318171 25.8001429,26.1576566 C25.8001429,26.6834961 25.3743272,27.1102643 24.8475351,27.1102643" id="Fill-6" fill="#FFFFFF"></path>
            <path d="M19.7923315,12.9988092 L0.952607764,12.9988092 C0.42581567,12.9988092 2.03060558e-14,12.572041 2.03060558e-14,12.0462015 C2.03060558e-14,11.520362 0.42581567,11.0935937 0.952607764,11.0935937 L19.7923315,11.0935937 C20.3191236,11.0935937 20.7449393,11.520362 20.7449393,12.0462015 C20.7449393,12.572041 20.3191236,12.9988092 19.7923315,12.9988092" id="Fill-8" fill="#FFFFFF"></path>
            <path d="M29.2123839,19.999619 L10.3726602,19.999619 C9.84586806,19.999619 9.42005239,19.5728507 9.42005239,19.0470112 C9.42005239,18.5211717 9.84586806,18.0944034 10.3726602,18.0944034 L29.2123839,18.0944034 C29.739176,18.0944034 30.1649917,18.5211717 30.1649917,19.0470112 C30.1649917,19.5728507 29.739176,19.999619 29.2123839,19.999619" id="Fill-10" fill="#FFFFFF"></path>
        </g>
    </g>
</svg>