<svg width="64" height="64" viewBox="0 0 64 64" fill="none" xmlns="http://www.w3.org/2000/svg">
<g clip-path="url(#clip0_1939_41004)">
<path d="M60 0H4C1.79086 0 0 1.79086 0 4V60C0 62.2091 1.79086 64 4 64H60C62.2091 64 64 62.2091 64 60V4C64 1.79086 62.2091 0 60 0Z" fill="#525252"/>
<path d="M19.5898 12.0498H11.5898V20.0498H19.5898V12.0498Z" fill="#9999FF"/>
<path d="M36 12H28V20H36V12Z" fill="#FFCB9E"/>
<path d="M36 26H28V34H36V26Z" fill="#85D04A"/>
<path d="M52 26H44V34H52V26Z" fill="#E0000F"/>
<path d="M52 12H44V20H52V12Z" fill="white"/>
<path d="M19.5898 26H11.5898V34H19.5898V26Z" fill="url(#paint0_linear_1939_41004)"/>
<path d="M52 46H34V64H52V46Z" fill="url(#paint1_linear_1939_41004)"/>
<path d="M29.9998 46H11.5898V64H29.9998V46Z" fill="url(#paint2_linear_1939_41004)"/>
</g>
<defs>
<linearGradient id="paint0_linear_1939_41004" x1="11.5898" y1="30" x2="19.5898" y2="30" gradientUnits="userSpaceOnUse">
<stop stop-color="#FFBD00"/>
<stop offset="1" stop-color="#FF9E00"/>
</linearGradient>
<linearGradient id="paint1_linear_1939_41004" x1="34.55" y1="46.55" x2="51.9" y2="63.9" gradientUnits="userSpaceOnUse">
<stop stop-color="#FDE39C"/>
<stop offset="0.36" stop-color="#FBD8AB"/>
<stop offset="0.72" stop-color="#FC8162"/>
<stop offset="1" stop-color="#FCB643"/>
</linearGradient>
<linearGradient id="paint2_linear_1939_41004" x1="7.91184" y1="46.49" x2="-9.56729" y2="64.1439" gradientUnits="userSpaceOnUse">
<stop offset="0.18" stop-color="#FEF6E3"/>
<stop offset="1" stop-color="#B9D3F2"/>
</linearGradient>
<clipPath id="clip0_1939_41004">
<rect width="64" height="64" fill="white"/>
</clipPath>
</defs>
</svg>
