<svg width="62" height="64" viewBox="0 0 62 64" fill="none" xmlns="http://www.w3.org/2000/svg">
<g clip-path="url(#clip0_1939_41017)">
<path d="M57.2242 0H3.81495C1.70801 0 0 1.79086 0 4V60C0 62.2091 1.70801 64 3.81495 64H57.2242C59.3311 64 61.0391 62.2091 61.0391 60V4C61.0391 1.79086 59.3311 0 57.2242 0Z" fill="#525252"/>
<path d="M48.6406 6.91016H39.1033C38.0498 6.91016 37.1958 7.80559 37.1958 8.91016V18.9102C37.1958 20.0147 38.0498 20.9102 39.1033 20.9102H48.6406C49.6941 20.9102 50.5481 20.0147 50.5481 18.9102V8.91016C50.5481 7.80559 49.6941 6.91016 48.6406 6.91016Z" stroke="white" stroke-miterlimit="10"/>
<path d="M35.2886 6.91016H25.7512C24.6978 6.91016 23.8438 7.80559 23.8438 8.91016V18.9102C23.8438 20.0147 24.6978 20.9102 25.7512 20.9102H35.2886C36.3421 20.9102 37.1961 20.0147 37.1961 18.9102V8.91016C37.1961 7.80559 36.3421 6.91016 35.2886 6.91016Z" fill="white" stroke="white" stroke-miterlimit="10"/>
<path d="M21.9361 6.91016H12.3987C11.3452 6.91016 10.4912 7.80559 10.4912 8.91016V18.9102C10.4912 20.0147 11.3452 20.9102 12.3987 20.9102H21.9361C22.9895 20.9102 23.8435 20.0147 23.8435 18.9102V8.91016C23.8435 7.80559 22.9895 6.91016 21.9361 6.91016Z" stroke="white" stroke-miterlimit="10"/>
<path d="M48.6405 26.8506H32.427C31.3735 26.8506 30.5195 27.746 30.5195 28.8506V34.8506C30.5195 35.9552 31.3735 36.8506 32.427 36.8506H48.6405C49.694 36.8506 50.548 35.9552 50.548 34.8506V28.8506C50.548 27.746 49.694 26.8506 48.6405 26.8506Z" fill="white" stroke="white" stroke-miterlimit="10"/>
<path d="M28.6122 26.8506H12.3987C11.3452 26.8506 10.4912 27.746 10.4912 28.8506V34.8506C10.4912 35.9552 11.3452 36.8506 12.3987 36.8506H28.6122C29.6657 36.8506 30.5197 35.9552 30.5197 34.8506V28.8506C30.5197 27.746 29.6657 26.8506 28.6122 26.8506Z" stroke="white" stroke-miterlimit="10"/>
<path d="M48.6405 36.8506H32.427C31.3735 36.8506 30.5195 37.746 30.5195 38.8506V44.8506C30.5195 45.9552 31.3735 46.8506 32.427 46.8506H48.6405C49.694 46.8506 50.548 45.9552 50.548 44.8506V38.8506C50.548 37.746 49.694 36.8506 48.6405 36.8506Z" stroke="white" stroke-miterlimit="10"/>
<path d="M28.6122 36.8506H12.3987C11.3452 36.8506 10.4912 37.746 10.4912 38.8506V44.8506C10.4912 45.9552 11.3452 46.8506 12.3987 46.8506H28.6122C29.6657 46.8506 30.5197 45.9552 30.5197 44.8506V38.8506C30.5197 37.746 29.6657 36.8506 28.6122 36.8506Z" fill="white" stroke="white" stroke-miterlimit="10"/>
<path d="M37.1959 51.0898H23.8436C22.2634 51.0898 20.9824 52.433 20.9824 54.0898C20.9824 55.7467 22.2634 57.0898 23.8436 57.0898H37.1959C38.7761 57.0898 40.0572 55.7467 40.0572 54.0898C40.0572 52.433 38.7761 51.0898 37.1959 51.0898Z" fill="white" stroke="white" stroke-miterlimit="10"/>
<rect x="61" y="42" width="12" height="12" fill="#D9D9D9"/>
</g>
<defs>
<clipPath id="clip0_1939_41017">
<rect width="61.0391" height="64" fill="white"/>
</clipPath>
</defs>
</svg>
