<svg width="156" height="96" viewBox="0 0 156 96" fill="none" xmlns="http://www.w3.org/2000/svg">
<path d="M111.993 31.9047C111.207 30.9068 104.376 26.0507 100.653 22.0696C98.9083 20.2019 98.5271 21.6961 99.8371 23.922C101.147 26.1479 103.634 28.8651 105.99 31.659C111.578 38.2908 111.993 31.9047 111.993 31.9047Z" fill="#AC886B"/>
<path d="M111.901 12.0452C114.075 15.246 106.285 16.3538 109.774 22.4841C112.146 26.6469 116.306 18.6105 116.306 18.6105L117.048 15.6707L117.207 13.4985L116.723 10.835L116.178 4.31587C118.095 4.48729 120.843 3.66088 120.843 3.66088C114.853 -3.30604 108.06 6.39597 111.901 12.0452Z" fill="#161616"/>
<path d="M138.98 55.0314C137.982 55.7989 135.749 53.5704 136.962 52.437C138.174 51.301 143.013 48.9804 143.862 48.919C144.711 48.8576 145.791 49.7863 138.98 55.0314Z" fill="#AC886B"/>
<path d="M115.237 81.7605C116.969 82.1699 117.028 85.7442 116.882 87.8089C116.777 89.3006 116.03 89.6562 115.621 89.7381C115.472 89.7688 115.326 89.6792 115.278 89.5385C114.799 88.1748 112.422 81.0953 115.237 81.7605Z" fill="#AC886B"/>
<path d="M121.51 37.8635C129.626 40.1381 129.613 50.1241 128.641 62.2081C128.48 63.646 122.339 66.3427 121.51 64.0861C119.527 58.6926 119.574 58.2321 117.327 53.4348C115.477 49.4844 114.096 46.189 113.116 43.6996C111.775 40.2916 114.009 38.2499 114.009 38.2499L121.51 37.8635Z" fill="#60E0EB"/>
<path d="M121.956 60.632C126.784 57.0143 129.872 55.7631 139.205 50.687C139.205 50.687 140.651 50.797 140.958 54.4583C138.696 55.9269 133.062 61.3203 126.615 65.5624C121.815 68.7222 120.3 61.8704 121.956 60.632Z" fill="#60E0EB"/>
<path d="M123.286 38.0631C123.286 38.0631 113.768 41.4788 111.409 40.921C108.61 48.2077 109.884 58.2219 110.017 63.339C111.55 69.7328 116.89 65.9845 116.329 66.0127C116.253 66.0152 116.948 63.3339 116.961 63.2571C117.954 57.897 118.102 53.2378 119.156 49.3744C120.5 44.4569 125.453 46.2274 123.286 38.0631Z" fill="#60E0EB"/>
<path d="M110.02 63.339C110.447 71.03 113.446 80.7064 113.443 84.1809C113.443 84.2551 115.692 84.3651 116.913 83.1856C116.979 83.1217 117.007 83.027 117 82.9374C116.227 74.461 117.542 69.4744 116.723 64.3189C116.708 64.2447 113.31 62.2183 110.02 63.339Z" fill="#60E0EB"/>
<path fill-rule="evenodd" clip-rule="evenodd" d="M143.01 47.5195C142.537 47.8163 142.117 48.1873 141.751 48.6094C141.38 49.0367 141.001 49.4358 140.953 50.0013C141.273 49.922 141.887 50.0524 142.091 50.3109C142.253 50.5155 142.447 51.9534 142.662 52.0993C142.818 52.2042 145.141 50.8865 146.032 51.2038C146.922 51.521 147.695 52.0865 148.521 52.547C148.808 52.7082 149.112 52.8592 149.44 52.8899C149.793 52.9257 150.184 52.7952 150.356 52.4779C150.356 52.4728 150.356 52.4703 150.356 52.4651L147.019 47.8802C146.784 47.8854 146.548 47.9186 146.316 47.9493C145.481 48.0644 144.647 48.1821 143.816 48.2973C144.433 47.5707 145.157 46.9361 145.957 46.4193L145.584 45.9076L143.01 47.5195Z" fill="#72693A"/>
<path fill-rule="evenodd" clip-rule="evenodd" d="M117.898 90.5542C117.959 89.6946 117.872 88.8221 117.557 88.0187C117.524 87.9368 117.488 87.8575 117.445 87.7808C117.34 87.5966 117.082 87.5659 116.938 87.7219C116.746 87.9292 116.475 88.1134 116.263 88.1211C116.012 88.1313 114.789 87.4661 114.554 87.5531C114.385 87.6145 114.093 90.1602 113.346 90.6694C112.599 91.1785 111.721 91.46 110.9 91.8386C110.614 91.9717 110.324 92.1201 110.115 92.3555C109.89 92.6088 109.767 92.9849 109.918 93.297C109.92 93.2996 109.925 93.3021 109.928 93.3047L115.196 93.3098C115.301 93.3098 115.401 93.2586 115.457 93.1691C115.546 93.0258 115.628 92.8748 115.708 92.7265C115.951 92.271 116.196 91.8156 116.439 91.3602C116.578 91.0992 116.974 91.1657 117.018 91.4574C117.092 91.9666 117.123 92.4808 117.11 92.9951C117.105 93.1691 117.243 93.3149 117.417 93.3149C117.578 93.3149 117.714 93.1895 117.724 93.0284C117.783 92.2045 117.841 91.3781 117.898 90.5542Z" fill="#72693A"/>
<path d="M110.14 21.7038C108.707 24.7433 109.347 34.4069 109.391 34.3532C109.434 34.2995 111.043 34.7037 111.565 33.5601C113.111 29.5739 112.793 23.3361 112.793 23.3361L110.14 21.7038Z" fill="#AC886B"/>
<path d="M117.775 18.3213C118.136 18.2497 121.308 16.5022 121.308 16.5022C119.144 15.773 116.493 15.9265 113.627 16.602C113.303 16.6788 112.067 17.5435 111.686 17.6587L117.775 18.3213Z" fill="#AC886B"/>
<path d="M111.532 23.835C110.808 23.8402 109.682 23.5382 109.698 23.001C110.217 18.3649 111.532 16.95 113.633 16.602C113.633 16.602 113.924 17.5973 116.511 17.5973C119.87 17.5973 120.403 15.8882 121.904 16.799C123.406 17.7099 122.49 19.6083 123.411 24.2828C124.333 28.9572 118.381 32.5443 125.563 40.1534C123.376 40.8135 114.08 43.17 111.271 41.6297C112.259 35.9856 112.666 36.5689 112.666 32.1503C112.666 29.0596 111.061 26.542 111.532 23.835Z" fill="#518FFF"/>
<path d="M122.032 22.1285C122.168 22.4432 123.898 31.7665 125.957 32.2731C129.028 33.0279 127.142 21.9622 125.868 20.995C124.591 20.0254 122.032 22.1285 122.032 22.1285Z" fill="#AC886B"/>
<path d="M119.768 16.9756C126.436 15.6298 127.226 24.7356 127.226 24.7356C127.226 24.7356 124.251 25.7104 122.055 25.864C119.86 26.0175 119.471 20.7264 119.471 20.7264L119.768 16.9756Z" fill="#518FFF"/>
<path d="M125.067 31.5209C125.279 32.6134 129.36 38.6336 130.711 43.1981C131.343 45.3396 133.285 44.6539 132.576 42.4791C131.808 40.1253 130.962 35.9779 129.672 33.0637C127.093 27.2353 127.362 28.1155 125.22 28.686C123.076 29.2566 125.067 31.5209 125.067 31.5209Z" fill="#AC886B"/>
<path d="M118.402 11.3161C116.375 13.9386 113.72 13.6316 113.129 10.4615C112.622 7.73923 113.016 3.90653 116.196 4.3466C119.469 4.79946 118.86 7.10983 119.226 6.91793C119.589 6.7286 120.597 8.91104 118.402 11.3161Z" fill="#AC886B"/>
<path d="M119.392 9.86026L119.679 15.9419L115.303 16.5304L116.104 11.8815L119.392 9.86026Z" fill="#AC886B"/>
<path d="M116.667 1.14073C120.285 0.756945 124.599 1.64988 123.736 10.4129C123.511 12.69 124.197 13.6699 125.412 14.6064C129.652 17.8736 126.694 22.2308 124.527 23.2849C118.102 26.4115 113.594 21.0334 117.094 15.0029C117.67 14.0128 117.888 12.5007 119.067 10.3464C118.97 7.05097 116.347 7.99507 115.598 4.87876C114.638 4.63058 113.246 5.76914 112.985 7.64455C112.011 3.74788 113.454 1.48101 116.667 1.14073Z" fill="#161616"/>
<path d="M118.225 9.32294C118.154 8.36861 119.438 6.81045 119.896 7.74688C120.354 8.68331 119.584 10.4896 118.668 10.4103C117.752 10.3336 118.225 9.32294 118.225 9.32294Z" fill="#AC886B"/>
<path d="M131.604 45.6185C132.261 46.5779 132.922 47.5374 133.579 48.4968C133.797 48.6068 133.965 48.3331 133.907 48.0951C133.848 47.8572 133.666 47.6551 133.559 47.4299C133.449 47.2048 133.446 46.8901 133.653 46.8338C133.861 46.7775 134.078 47.0205 134.221 47.2303C134.889 48.1949 135.122 48.4201 135.79 49.3846C136.578 49.2874 137.112 48.2768 137.056 47.4171C137 46.5549 136.45 46.0048 135.928 45.2424C135.201 44.1806 133.891 43.8607 132.901 43.0625C132.331 42.6019 132.533 42.1414 131.885 42.1567C130.233 42.1926 130.905 44.6002 131.604 45.6185Z" fill="#AC886B"/>
<path d="M100.515 21.7779C99.5477 21.1306 98.5806 20.4833 97.6135 19.8335C97.3704 19.813 97.3167 20.1302 97.46 20.3273C97.6033 20.5243 97.8463 20.6471 98.0305 20.8159C98.2147 20.9848 98.335 21.2765 98.1636 21.4044C97.9922 21.5323 97.7005 21.3865 97.4881 21.2458C96.5108 20.5959 96.0784 20.1763 95.101 19.5264C94.4025 19.9077 95.014 20.9413 95.385 21.7191C95.756 22.4995 96.3726 22.9574 97.1402 23.4743C98.2071 24.1907 99.0412 24.2546 100.256 24.6307C100.958 24.8456 100.94 25.3497 101.536 25.0964C103.056 24.4542 101.541 22.4662 100.515 21.7779Z" fill="#AC886B"/>
<path d="M48.5841 32.3013C50.4671 31.4825 54.5045 24.815 54.8192 23.6406C55.8299 21.581 53.3813 22.7118 52.7954 23.5664C51.8257 24.9838 48.1286 26.7646 47.0464 28.7961C46.5961 29.9321 46.701 33.12 48.5841 32.3013Z" fill="#DDA884"/>
<path d="M43.687 20.5345C45.3986 20.6036 49.0036 28.6093 49.3541 30.6331C49.7047 32.6569 47.1717 32.8155 46.3785 32.204C43.8354 30.6587 42.4333 26.1121 39.9054 23.4103C39.2351 22.6939 40.9365 20.6727 40.9365 20.6727L43.687 20.5345Z" fill="#DDA884"/>
<path d="M28.2003 42.5866C26.6037 42.0493 26.1023 42.4254 26.1611 42.5201C26.9875 43.807 23.3851 42.8962 27.2869 43.9247C28.6275 44.2778 29.7047 43.9631 29.7047 43.9631C29.7047 43.9631 29.9708 43.1827 28.2003 42.5866Z" fill="#DDA884"/>
<path d="M22.8553 87.2511L22.2541 87.9547L21.9573 90.5875L24.6719 90.5389L25.1427 88.2592L25.5213 86.4375L22.8553 87.2511Z" fill="#DDA884"/>
<path d="M25.043 90.6131C25.5624 92.6139 25.4396 93.5631 25.4396 93.5631C25.4396 93.5631 24.8767 94.2821 23.4285 94.2232L23.1497 93.4454L22.8554 94.3946C20.9237 95.7993 17.4902 96.1268 16.3388 95.9605C15.7964 95.6893 15.8245 95.4078 16.4565 94.7017C20.2329 93.6757 19.9284 91.8591 21.502 91.2528C23.7944 90.3701 25.043 90.6131 25.043 90.6131Z" fill="#564135"/>
<path fill-rule="evenodd" clip-rule="evenodd" d="M30.1882 68.5328C29.6919 69.5639 29.0139 70.7255 28.0442 71.0095C27.3713 71.2065 25.4908 69.9221 25.1146 69.4078C24.7385 68.8961 26.8954 44.5976 27.7525 43.1034C28.9013 41.1001 37.2524 44.2318 36.9223 47.7191C36.5002 52.176 34.4968 55.7887 32.9617 60.1996C32.0381 62.8477 31.424 65.9768 30.1882 68.5328Z" fill="#FF732C"/>
<path fill-rule="evenodd" clip-rule="evenodd" d="M25.401 65.6672C26.6931 63.6306 29.7864 62.249 31.058 65.8054C32.9999 71.2295 26.6649 81.3127 25.6901 87.8422L22.3333 87.8217C22.2463 87.1872 24.6846 66.7981 25.401 65.6672Z" fill="#FF732C"/>
<path d="M44.6032 87.1974L44.9588 91.8335L42.6536 91.8744L41.5713 86.5885L44.6032 87.1974Z" fill="#DDA884"/>
<path d="M17.9687 34.0129C18.0045 34.5118 18.4907 35.7604 18.9589 35.9293C19.2147 36.0214 19.5064 35.9523 19.7418 35.8116C19.9772 35.6683 20.1639 35.4611 20.343 35.2538C22.4462 32.8386 23.137 29.4536 24.8819 26.7697C25.4192 25.9458 25.959 25.1092 26.2712 24.1779C26.5833 23.2466 26.6422 22.195 26.2226 21.32C26.0025 20.862 25.5113 20.2505 24.9561 20.2019C24.5084 20.1635 23.9787 20.6394 23.6359 20.8722C22.4231 21.6986 22.0624 21.865 21.1439 23.0112C20.6245 23.6662 17.7666 31.2471 17.9687 34.0129Z" fill="#DDA884"/>
<path d="M31.7055 18.9021C32.0586 18.3265 32.4014 17.5973 32.0662 17.0088C31.7132 16.3896 33.7114 15.5197 33.0001 15.576C24.4008 16.2566 22.4512 20.2428 21.1438 23.0112L25.675 26.5445C28.1696 24.1702 29.9068 21.8419 31.7055 18.9021Z" fill="#353568"/>
<path d="M26.5577 42.5124C26.5116 43.0318 25.2989 43.5947 24.7795 43.6151C24.2601 43.6382 19.1635 36.7685 18.3294 35.1387C18.0761 34.6423 17.8228 34.0538 18.0659 33.5524C18.2834 33.1046 18.8155 32.9153 19.3068 32.8334C20.1306 32.6927 21.1361 32.6799 21.9242 32.9946C22.4691 33.2121 22.5485 33.7571 22.7966 34.2304C23.7049 35.9702 26.5858 42.1798 26.5577 42.5124Z" fill="#DDA884"/>
<path fill-rule="evenodd" clip-rule="evenodd" d="M19.7698 93.4275C19.7366 92.8365 19.8798 92.7213 20.215 92.3375C20.6474 91.8412 20.8521 91.0634 21.351 89.6024C21.5787 88.9347 22.9143 88.7249 23.6025 89.8558C23.8251 90.2216 24.0324 90.4596 24.2754 90.4468C24.4801 90.4365 24.7001 90.0783 24.9023 90.3086C25.0788 90.5133 25.1351 91.0557 25.1863 91.4446C25.2733 92.1124 25.0353 92.358 25.1197 93.0283C25.1377 93.1767 25.1556 93.3328 25.1632 93.4838L23.2136 92.7495L19.9003 94.0108C19.8312 93.8471 19.7826 93.6475 19.7698 93.4275Z" fill="#564135"/>
<path fill-rule="evenodd" clip-rule="evenodd" d="M49.8225 93.9468C47.6683 93.7012 46.9237 93.1 46.0052 91.9384C45.5958 91.4216 45.7724 91.593 45.2197 90.1525C44.9664 89.495 44.2782 89.4591 43.6309 90.6105C43.4211 90.984 43.2803 91.1631 43.0373 91.158C42.8326 91.1555 42.3388 90.6003 42.1469 90.8356C42.0906 90.9073 42.0471 91.0173 42.0164 91.1478C42.0164 91.1503 42.0164 91.1529 42.0139 91.1555C42.0036 91.2015 41.9934 91.2476 41.9832 91.2987C41.5764 93.2125 42.0267 94.0569 42.0267 94.0569C42.0267 94.0569 42.0702 94.74 43.5157 94.63L44.0121 93.9648L44.5443 94.9779C46.476 95.9297 50.7078 95.5766 51.8515 95.3668C51.831 94.0466 50.6029 94.0364 49.8225 93.9468Z" fill="#564135"/>
<path d="M41.7631 42.3845C42.1801 43.2211 43.6769 63.2085 43.7792 65.0302C43.6795 67.2791 44.6031 87.1974 44.6031 87.1974L41.0928 87.6119C40.1128 78.7082 36.3083 71.4035 38.1095 65.3346C34.7655 58.094 32.1993 51.1347 32.1993 51.1347C32.1993 51.1347 28.7017 44.0194 29.4923 42.8604C30.2804 41.7014 34.2819 41.7014 34.2819 41.7014L41.7631 42.3845Z" fill="#FF732C"/>
<path d="M25.8797 20.4578C25.1736 21.5426 24.823 24.1139 25.2324 25.2985C26.4886 28.9521 27.0618 29.5022 27.6426 32.1247C28.2233 34.7472 29.4847 39.0098 28.1747 41.3969C27.9956 41.7218 27.8063 41.9444 27.7091 42.2873C27.53 42.9115 27.3483 43.3926 27.6144 43.5051C27.8626 43.61 40.9572 45.9153 41.5252 43.3414C41.6404 42.8246 41.8015 42.4485 41.6327 41.9854C40.4992 38.8921 40.1001 34.1588 41.0212 31.0015C41.9346 27.8699 42.0676 26.7313 41.4715 23.4871C40.1231 21.9008 38.3501 15.4814 33.0053 15.5786C29.2493 15.6477 26.5117 19.4829 25.8797 20.4578Z" fill="#353568"/>
<path d="M32.6599 19.0761C32.2455 18.4518 31.8361 17.6587 32.1841 16.996C32.5499 16.2975 34.1004 15.7449 34.8884 15.7986C39.6627 16.1159 43.6822 18.6898 46.4659 22.4508L40.1565 27.6933C37.3011 25.1578 34.7707 22.2564 32.6599 19.0761Z" fill="#353568"/>
<path fill-rule="evenodd" clip-rule="evenodd" d="M39.028 8.29953C38.8821 8.69355 38.5956 8.64749 38.5342 8.23557C38.3346 6.92047 38.3423 6.70812 37.5338 5.64376C37.0886 5.06041 36.9735 5.02459 37.2319 4.75083C38.0813 3.8451 40.2356 5.04506 39.028 8.29953Z" fill="#01015B"/>
<path d="M32.885 6.04034C33.9084 4.14957 36.6563 3.94489 38.0072 5.79472C39.243 7.48848 38.9948 11.5975 38.3756 12.557C37.2933 14.2379 34.1284 13.1301 33.5297 12.1322C32.6547 10.6713 32.0253 7.6292 32.885 6.04034Z" fill="#F8BE7E"/>
<path fill-rule="evenodd" clip-rule="evenodd" d="M33.6833 6.44717C33.8214 6.73117 33.8521 10.8376 33.7344 10.812C33.3148 10.7225 32.6112 9.69908 31.882 9.87818C31.6492 9.93447 31.3524 10.1494 31.2552 9.67861C30.6437 6.70303 30.5542 6.87701 31.0352 6.50346C32.097 5.68217 33.4376 5.94058 33.6833 6.44717Z" fill="#C3992A"/>
<path fill-rule="evenodd" clip-rule="evenodd" d="M30.0705 5.19088C32.1889 3.02635 36.0651 1.63706 37.3495 2.10272C39.2608 2.79609 38.5316 5.92263 37.915 6.20151C37.6335 6.32944 37.3188 6.14778 37.0374 6.02241C35.6942 5.43139 34.7424 6.25012 33.8776 6.58273C32.3399 7.16864 28.2641 7.03304 30.0705 5.19088Z" fill="#C3992A"/>
<path d="M31.1476 9.54298C31.1911 10.0342 31.4341 10.5024 31.8103 10.8222C32.8848 11.7331 33.4938 10.1186 33.1228 9.2513C32.6802 8.21765 31.0299 8.20997 31.1476 9.54298Z" fill="#D28642"/>
<path fill-rule="evenodd" clip-rule="evenodd" d="M39.028 8.29953C38.8821 8.69355 38.5956 8.64749 38.5342 8.23557C38.3346 6.92047 38.3423 6.70812 37.5338 5.64376C37.0886 5.06041 36.9735 5.02459 37.2319 4.75083C38.0813 3.8451 40.2356 5.04506 39.028 8.29953Z" fill="#C26037"/>
<path d="M35.5689 10.8428C34.7783 9.00572 33.2432 8.82406 32.4833 9.44323C32.6087 13.1352 32.9055 13.4985 31.8616 15.7193C33.2585 18.0195 35.9834 17.7227 36.6947 16.0545C36.6691 15.7603 35.9783 11.792 35.5689 10.8428Z" fill="#DDA884"/>
<path d="M32.885 6.04034C33.9084 4.14957 36.6563 3.94489 38.0072 5.79472C39.243 7.48848 38.9948 11.5975 38.3756 12.557C37.2933 14.2379 34.1284 13.1301 33.5297 12.1322C32.6547 10.6713 32.0253 7.6292 32.885 6.04034Z" fill="#DDA884"/>
<path fill-rule="evenodd" clip-rule="evenodd" d="M33.6833 6.44717C33.8214 6.73117 33.8521 10.8376 33.7344 10.812C33.3148 10.7225 32.6112 9.69908 31.882 9.87818C31.6492 9.93447 31.3524 10.1494 31.2552 9.67861C30.6437 6.70303 30.5542 6.87701 31.0352 6.50346C32.097 5.68217 33.4376 5.94058 33.6833 6.44717Z" fill="#C26037"/>
<path fill-rule="evenodd" clip-rule="evenodd" d="M30.0705 5.19088C32.1889 3.02635 36.0651 1.63706 37.3495 2.10272C39.2608 2.79609 38.5316 5.92263 37.915 6.20151C37.6335 6.32944 37.3188 6.14778 37.0374 6.02241C35.6942 5.43139 34.7424 6.25012 33.8776 6.58273C32.3399 7.16864 28.2641 7.03304 30.0705 5.19088Z" fill="#C26037"/>
<path d="M31.1476 9.54298C31.1911 10.0342 31.4341 10.5024 31.8103 10.8222C32.8848 11.7331 33.4938 10.1186 33.1228 9.2513C32.6802 8.21765 31.0299 8.20997 31.1476 9.54298Z" fill="#DDA884"/>
<path d="M27.6655 47.0666C24.9458 46.3374 24.6848 43.436 24.6848 43.436L26.6549 42.5661C26.6549 42.5661 26.8161 43.3977 28.3666 43.8301C29.8659 44.2445 30.8125 47.9109 27.6655 47.0666Z" fill="#DDA884"/>
<path d="M55.0188 20.2556C55.7019 18.8382 56.2802 18.7486 56.3032 18.851C56.3262 18.9533 57.145 19.3934 56.5053 20.5191C55.8657 21.6449 54.9548 22.1566 54.9548 22.1566C54.9548 22.1566 54.2615 21.8266 55.0188 20.2556Z" fill="#DDA884"/>
<path d="M54.2054 22.7528C54.5943 22.8039 54.7145 23.4922 55.0139 23.3796C57.685 22.3792 57.9383 22.6274 58.8338 21.9084C60.415 20.6368 60.9318 19.0582 59.7421 18.7231C57.7669 18.1627 55.477 20.6266 55.477 20.6266C55.477 20.6266 52.944 23.5101 54.2054 22.7528Z" fill="#DDA884"/>
<path fill-rule="evenodd" clip-rule="evenodd" d="M58.6111 13.7595C58.9002 12.2243 59.4989 10.7711 55.8453 11.5924C53.448 12.1322 53.6731 1.86479 57.2576 2.53769C59.7701 3.00846 59.3403 5.10647 61.5432 4.3824C63.0092 3.9014 59.6601 0.475504 63.2421 0.0635786C66.4351 -0.302293 67.5097 0.974421 67.1643 2.26649C65.8927 7.03817 69.0295 4.65873 72.0025 4.83015C74.6302 4.9811 75.0012 5.63353 74.9832 6.92816C74.9653 8.22278 75.6024 12.6823 73.9086 13.2247C72.2149 13.7646 72.5808 11.7894 71.0098 11.7715C69.0295 11.7459 68.8734 12.91 68.7148 15.1129C68.5587 17.2979 68.9655 18.9508 70.5928 18.4391C71.2785 18.2241 73.4532 17.4591 73.3714 19.0761C73.2869 20.6931 73.7807 24.1728 70.7181 24.7945C69.2547 25.0913 64.112 23.5203 64.726 22.9037C66.0462 21.5835 66.3507 19.8411 65.2684 19.1734C63.7896 18.26 61.3053 18.4365 60.5633 19.5495C59.8213 20.6624 60.6247 22.3178 59.5987 22.4764C58.3604 22.6683 52.6983 22.4585 52.6574 21.737C52.5039 18.9508 51.918 17.8045 53.6859 17.0319C55.459 16.2592 57.9868 17.0626 58.6111 13.7595Z" fill="#518FFF"/>
<path fill-rule="evenodd" clip-rule="evenodd" d="M91.8365 27.6933C91.4706 27.7828 90.199 27.6703 87.991 25.649C85.8444 23.6866 95.0244 25.035 89.9099 20.1993C84.6547 15.2306 86.5147 22.4432 83.3626 22.1489C82.3085 22.0517 78.3427 20.5345 77.872 18.0527C77.698 17.6638 78.0536 17.8685 78.1815 17.8992C80.8552 18.5414 82.1498 15.5376 83.0146 14.2584C83.9229 12.9177 81.6637 12.4469 80.9652 12.2781C79.3073 11.8738 79.8139 10.2491 81.0753 8.45815C82.3494 6.65438 83.0837 5.73842 84.7672 6.7823C86.1002 7.61127 84.7672 9.11314 86.4968 9.52506C88.2264 9.93699 90.5854 5.17298 91.1866 3.71717C91.6804 2.51977 94.3439 3.64041 94.5281 5.8382C94.5281 5.8382 95.7101 7.68803 92.9751 9.54809C90.24 11.4082 96.6517 15.837 98.1945 10.7046C99.7373 5.57211 103.271 11.7587 103.473 14.4631C103.59 16.0545 91.8365 27.6933 91.8365 27.6933Z" fill="#12C7D2"/>
<path d="M100.515 21.778C99.5479 21.1306 98.5808 20.4833 97.6136 19.8335C97.3706 19.813 97.3168 20.1303 97.4601 20.3273C97.6034 20.5243 97.8465 20.6471 98.0307 20.8159C98.2149 20.9848 98.3351 21.2765 98.1637 21.4044C97.9923 21.5323 99.0413 24.2572 100.257 24.6307C100.958 24.8457 100.94 25.3497 101.536 25.0964C103.056 24.4542 101.541 22.4662 100.515 21.778Z" fill="#AC886B"/>
<path d="M73.2408 32.5801L71.808 34.5604C71.4217 35.1438 71.9462 35.4355 72.4476 35.9241L73.4378 36.8887C73.6348 37.0806 73.9572 37.0499 74.1107 36.8222L75.6356 34.5937C75.761 34.412 75.7328 34.1664 75.5691 34.018L73.9111 32.5008C73.7064 32.314 73.3892 32.355 73.2408 32.5801Z" fill="#DFA6DE"/>
<path d="M52.0051 47.1639C51.235 47.4862 49.7101 48.0952 48.3285 48.4892C48.1443 48.5429 47.9499 48.4406 47.8884 48.2589L46.5682 44.4416C46.4992 44.2446 46.6117 44.0322 46.8139 43.9759L50.3395 42.996C50.5161 42.9474 50.7003 43.0369 50.7694 43.2058L52.2022 46.6905C52.2738 46.8773 52.1894 47.0871 52.0051 47.1639Z" fill="#DFA6DE"/>
<path d="M14.8371 9.57113C14.8371 9.57113 13.128 10.285 11.7387 10.1442L10.5464 7.01003L13.9825 6.54437L14.8371 9.57113Z" fill="#DFA6DE"/>
<path d="M55.4412 35.1694L57.2245 32.6287L58.7519 34.3455L57.1989 36.2439L55.4412 35.1694Z" fill="#DFA6DE"/>
<path d="M11.7974 24.6205L13.5116 27.1637C13.9107 27.7547 13.8237 28.5402 13.3095 29.034L11.5287 30.7405C11.1987 31.0552 10.6614 31.0041 10.4004 30.6305L8.24098 27.5296C8.03374 27.2302 8.0798 26.826 8.351 26.5803L10.6793 24.4849C11.0144 24.1855 11.5441 24.2495 11.7974 24.6205Z" fill="#DFA6DE"/>
<path d="M33.5655 30.9682L31.8743 34.6986C31.8743 34.6986 28.2514 32.7336 27.8087 32.094C27.3661 31.4544 29.4999 28.3636 29.4999 28.3636L33.5655 30.9682Z" fill="#DFA6DE"/>
<path d="M61.7376 38.1808C62.4463 38.2115 64.1094 38.2652 65.5882 38.1578C65.7776 38.145 65.9209 37.9889 65.9183 37.8021L65.8415 33.8927C65.8364 33.6906 65.6624 33.5345 65.4578 33.5524L61.8656 33.839C61.6865 33.8543 61.5457 33.9976 61.5381 34.1741L61.3973 37.8201C61.3922 38.0119 61.5432 38.1731 61.7376 38.1808Z" fill="#DFA6DE"/>
<path d="M7.50917 43.8045L6.11476 40.5628C5.99707 40.2865 6.14034 39.9692 6.4269 39.8771C7.59871 39.5036 10.3517 38.6567 11.0118 38.7539C11.6719 38.8511 12.3909 41.3304 12.6723 42.4101C12.7439 42.6838 12.5776 42.9627 12.3064 43.0318L8.10019 44.0961C7.85969 44.1575 7.60895 44.0347 7.50917 43.8045Z" fill="#DFA6DE"/>
<path d="M16.0342 51.1091L15.1592 49.0751C15.085 48.9036 15.1746 48.7041 15.3537 48.6452C16.088 48.4098 17.815 47.8802 18.2295 47.9416C18.6439 48.003 19.0943 49.5561 19.2708 50.2341C19.3143 50.4055 19.2119 50.5795 19.0405 50.623L16.4027 51.2908C16.2543 51.3317 16.0956 51.2524 16.0342 51.1091Z" fill="#DFA6DE"/>
<path d="M137.939 43.7661L137.064 41.732C136.99 41.5581 137.079 41.3611 137.258 41.3022C137.993 41.0668 139.72 40.5372 140.134 40.5986C140.548 40.66 140.999 42.213 141.175 42.8911C141.219 43.0625 141.116 43.2365 140.945 43.28L138.307 43.9477C138.159 43.9887 138 43.9119 137.939 43.7661Z" fill="#DFA6DE"/>
<path d="M98.7293 40.3837L96.6031 40.4528C96.3268 40.4656 96.094 40.2532 96.0837 39.982L96.03 38.2934C96.0223 38.0427 96.2091 37.8277 96.4624 37.797L97.6931 37.6461C97.9643 37.6128 98.2099 37.7996 98.2457 38.0657C98.2994 38.4725 98.3839 39.107 98.4888 39.8336C98.5297 40.1176 98.3148 40.3735 98.0231 40.3863" fill="#DFA6DE"/>
<path d="M57.3908 43.4181L59.9954 41.6092C60.3434 41.3687 60.8244 41.4967 61.0035 41.8804L62.2265 44.4902C62.3749 44.81 62.2572 45.1886 61.9553 45.3677L59.7933 46.6444C59.5016 46.8184 59.1255 46.7493 58.9132 46.4833L57.2501 44.4057C56.9994 44.0961 57.0659 43.6433 57.3908 43.4181Z" fill="#DFA6DE"/>
<path d="M51.1657 55.4561C51.1657 55.4561 52.5191 55.515 53.4351 55.0672L53.4632 52.6161L50.9866 53.1636L51.1657 55.4561Z" fill="#DFA6DE"/>
<path d="M17.3367 16.7965C17.7921 16.1696 18.6057 15.1462 19.514 14.4272C19.7699 14.2251 20.1357 14.243 20.3737 14.4656L21.9063 15.8933C22.157 16.1287 22.1877 16.515 21.9753 16.7862L20.2944 18.9277C20.0795 19.2015 19.6906 19.2603 19.4066 19.0608L17.4928 17.7278C17.1883 17.5154 17.1192 17.0958 17.3367 16.7965Z" fill="#DFA6DE"/>
<path d="M131.911 21.0718L126.75 17.4847L125.044 21.8138L129.322 24.3416L131.911 21.0718Z" fill="#DFA6DE"/>
<path d="M150.535 12.8282L148.398 16.0519C147.902 16.8016 148.009 17.7969 148.651 18.4237L150.872 20.5882C151.282 20.9874 151.955 20.9208 152.277 20.4475L154.968 16.515C155.227 16.1364 155.168 15.6247 154.83 15.3125L151.929 12.6567C151.507 12.2755 150.847 12.3574 150.535 12.8282Z" fill="#DFA6DE"/>
<path d="M135.58 21.6961L139.106 25.3215C139.106 25.3215 142.406 21.517 142.639 20.5882C142.872 19.6595 139.113 16.9628 139.113 16.9628L135.58 21.6961Z" fill="#DFA6DE"/>
<path d="M150.929 34.5067L153.682 33.6445C154.217 33.4756 154.511 32.9025 154.334 32.3729L153.234 29.0647C153.07 28.5734 152.561 28.2869 152.057 28.4046L149.606 28.97C149.069 29.0928 148.734 29.6301 148.854 30.17C149.043 30.9964 149.332 32.2833 149.649 33.7622C149.775 34.3379 150.366 34.6833 150.929 34.5067Z" fill="#DFA6DE"/>
<path d="M140.991 30.7405L137.591 28.3765C137.138 28.0618 136.509 28.2306 136.273 28.7295L134.677 32.1375C134.482 32.5546 134.636 33.0509 135.03 33.2837L137.854 34.9519C138.236 35.1771 138.727 35.0875 139.003 34.7421L141.175 32.0275C141.5 31.6284 141.416 31.0348 140.991 30.7405Z" fill="#DFA6DE"/>
<path d="M7.61934 18.7666C6.52428 18.4033 4.283 17.692 2.21313 17.257C1.9189 17.1956 1.62467 17.3696 1.54791 17.6562L0.0255752 23.1545C-0.0844423 23.5562 0.171412 23.963 0.583338 24.0474L5.3934 25.0222C5.85138 25.1143 6.30936 24.8559 6.45776 24.4184L8.06964 19.6672C8.20013 19.2962 7.99544 18.8919 7.61934 18.7666Z" fill="#DFA6DE"/>
<path d="M139.113 8.28929C139.113 8.28929 140.574 9.94723 141.51 10.3592L143.56 8.70634C143.859 8.46583 143.895 8.02065 143.637 7.73665C143.058 7.09957 142.053 6.09918 141.285 5.89194L139.113 8.28929Z" fill="#DFA6DE"/>
<path d="M103.084 52.153L99.4071 51.0017C98.6933 50.7765 98.2993 50.0115 98.5372 49.3028L100.006 44.8842C100.223 44.2292 100.904 43.848 101.577 44.0015L104.852 44.7588C105.571 44.9251 106.021 45.6415 105.857 46.3605C105.606 47.4658 105.22 49.1851 104.793 51.1577C104.627 51.9253 103.836 52.3858 103.084 52.153Z" fill="#DFA6DE"/>
<path d="M84.2119 51.933C85.0307 51.8255 86.6886 51.585 88.1546 51.2192C88.3644 51.168 88.4949 50.9607 88.454 50.7509L87.6711 46.6931C87.6148 46.3989 87.3205 46.2121 87.0289 46.2863L83.6388 47.1613C83.3139 47.2457 83.1041 47.5579 83.1501 47.8879L83.6337 51.4878C83.6695 51.7692 83.9279 51.9688 84.2119 51.933Z" fill="#DFA6DE"/>
<path d="M101.815 30.5743C101.935 31.3034 102.204 32.7823 102.577 34.0846C102.631 34.2688 102.818 34.3814 103.007 34.3379L106.617 33.5089C106.881 33.4475 107.037 33.1789 106.96 32.9204L106.07 29.9116C105.985 29.625 105.699 29.4459 105.402 29.4971L102.194 30.0446C101.943 30.0856 101.771 30.3235 101.815 30.5743Z" fill="#DFA6DE"/>
<path d="M99.8601 27.4835L97.8644 29.5355C97.8644 29.5355 95.9967 27.3837 95.8637 26.8567C95.7306 26.3322 97.8593 24.8047 97.8593 24.8047L99.8601 27.4835Z" fill="#DFA6DE"/>
<path d="M104.78 7.12774L104.614 3.63021C104.598 3.32574 104.818 3.06221 105.123 3.01872C105.947 2.90358 107.546 2.69122 108.633 2.63749C108.841 2.62726 109.022 2.77565 109.053 2.98034C109.181 3.84257 109.475 6.07362 109.278 7.38871C109.25 7.58572 109.078 7.729 108.876 7.72644L105.374 7.69318C105.056 7.69062 104.795 7.44244 104.78 7.12774Z" fill="#DFA6DE"/>
<path d="M130.632 11.6666L130.394 6.61602C130.373 6.17595 130.691 5.79473 131.128 5.73333C132.318 5.56446 134.628 5.25999 136.197 5.18324C136.496 5.16789 136.759 5.3828 136.803 5.67704C136.99 6.92305 137.414 10.1468 137.128 12.0453C137.084 12.3293 136.839 12.5365 136.55 12.5339L131.491 12.4853C131.031 12.4828 130.655 12.122 130.632 11.6666Z" fill="#DFA6DE"/>
<path d="M85.3429 42.277L90.6468 39.4166C90.6468 39.4166 89.1782 35.7886 88.2417 34.1664C88.2417 34.1664 83.8052 35.9063 82.3647 37.38L85.3429 42.277Z" fill="#DFA6DE"/>
<path d="M32.3782 50.7356L36.564 47.8982C36.564 47.8982 33.3965 43.9836 32.5215 43.5921C31.649 43.2007 28.3357 46.4296 28.3357 46.4296L32.3782 50.7356Z" fill="#DFA6DE"/>
</svg>
