<?xml version="1.0" encoding="UTF-8"?>
<svg width="44px" height="33px" viewBox="0 0 44 33" version="1.1" xmlns="http://www.w3.org/2000/svg" xmlns:xlink="http://www.w3.org/1999/xlink">
    <title>enveloppe</title>
    <defs>
        <polygon id="path-1" points="0.000471428571 0.59675 44 0.59675 44 34.2045455 0.000471428571 34.2045455"></polygon>
    </defs>
    <g id="enveloppe" stroke="none" stroke-width="1" fill="none" fill-rule="evenodd">
        <g id="🌖-Ombre" transform="translate(0.000000, -95.000000)">
            <rect id="■-Couleur" fill="#FFFFFF" opacity="0" x="0" y="0" width="1440" height="110"></rect>
            <rect id="□-Bordure" x="0" y="0" width="1440" height="110"></rect>
        </g>
        <g id="Group-7-Copy" transform="translate(0.000000, -1.000000)">
            <polygon id="Fill-1" fill="#E1000F" points="22.0330786 4.12681818 17.10115 7.01034091 17.10115 12.7765909 22.0330786 15.6609091 26.9657929 12.7765909 26.9657929 7.01034091"></polygon>
            <polygon id="Fill-2" fill="#FFFFFF" points="23.4441429 9.0685 25.3133571 9.0685 25.3133571 7.97554545 22.0337857 6.0585 18.7534286 7.97554545 18.7534286 11.8096364 22.0337857 13.7274773 25.3133571 11.8096364 25.3133571 10.7174773 23.4441429 10.7174773"></polygon>
            <polygon id="Fill-3" fill="#000091" points="23.4441429 10.7173182 23.4441429 9.06834091 22.0337857 8.24425 20.6226429 9.06834091 20.6226429 10.7173182 22.0337857 11.5422045"></polygon>
            <g id="Group-6" transform="translate(0.000000, 0.199102)">
                <mask id="mask-2" fill="white">
                    <use xlink:href="#path-1"></use>
                </mask>
                <g id="Clip-5"></g>
                <path d="M4.10897143,32.333 C3.69411429,32.333 3.30911429,32.2112955 2.97518571,32.0124318 C6.03554286,28.0876591 11.3619,21.2666364 15.3572571,16.1940227 C17.2516143,17.948 18.6407571,19.2255 18.9896143,19.523 C19.9882571,20.3749318 20.9727571,20.8012955 21.9588286,20.8012955 C22.9441143,20.8012955 23.9301857,20.3749318 24.9304,19.5245909 C25.4206857,19.1069773 26.8169,17.8302727 28.6523286,16.1319773 C32.6995429,21.2722045 38.1673286,28.2539091 41.0831143,31.9806136 C40.7358286,32.2001591 40.3304,32.333 39.8911857,32.333 L4.10897143,32.333 Z M1.88382857,30.3920909 C1.86654286,30.2783409 1.84847143,30.163 1.84847143,30.0444773 L1.84847143,4.75538636 C1.84847143,4.41731818 1.92704286,4.09754545 2.05747143,3.80879545 C5.20504286,6.74640909 10.2163286,11.4228864 13.9909,14.9260682 C10.1346143,19.8228864 5.01175714,26.3814091 1.88382857,30.3920909 L1.88382857,30.3920909 Z M39.8911857,2.46845455 C39.9799714,2.46845455 40.0648286,2.48436364 40.1512571,2.49470455 C40.2274714,2.50186364 40.3029,2.50902273 40.3775429,2.52413636 C40.4129,2.53209091 40.4451143,2.54720455 40.4796857,2.55675 C35.9547571,6.79413636 25.2470429,16.8097045 23.7408286,18.0911818 C22.4247571,19.2119773 21.4929,19.2103864 20.1815429,18.0919773 C19.1451857,17.2074318 8.09961429,6.90311364 3.4639,2.57425 C3.66897143,2.51220455 3.88347143,2.46845455 4.10897143,2.46845455 L39.8911857,2.46845455 Z M30.0202571,14.8648182 C33.8262571,11.333 38.8147571,6.66606818 41.9167571,3.76027273 C42.0621143,4.06254545 42.1509,4.39743182 42.1509,4.75538636 L42.1509,30.0444773 C42.1509,30.1311818 42.1351857,30.2147045 42.1257571,30.2990227 C39.1094,26.4450455 33.8985429,19.7910682 30.0202571,14.8648182 L30.0202571,14.8648182 Z M44.0004714,4.75538636 C44.0004714,3.58129545 43.5125429,2.52413636 42.7370429,1.76765909 C42.7119,1.73743182 42.6977571,1.69925 42.6686857,1.67220455 C41.9167571,0.978568182 40.9511143,0.59675 39.9493286,0.59675 C39.9422571,0.59675 39.9375429,0.599931818 39.9304714,0.599931818 C39.9163286,0.599931818 39.9045429,0.59675 39.8911857,0.59675 L4.10897143,0.59675 C3.11818571,0.59675 2.2209,0.967431818 1.51061429,1.56084091 C1.40847143,1.61015909 1.31261429,1.67538636 1.23247143,1.76447727 C1.21282857,1.78515909 1.20732857,1.81140909 1.19082857,1.83368182 C0.456185714,2.58538636 0.000471428571,3.61709091 0.000471428571,4.75538636 L0.000471428571,30.0444773 C0.000471428571,30.9974318 0.330471429,31.8660682 0.865542857,32.5684545 C0.924471429,32.6885682 1.00382857,32.7999318 1.11382857,32.8882273 C1.1209,32.8937955 1.12954286,32.8953864 1.13661429,32.9001591 C1.8854,33.6995909 2.93747143,34.2047045 4.10897143,34.2047045 L39.8911857,34.2047045 C41.0870429,34.2047045 42.1556143,33.6757273 42.9075429,32.8468636 C42.9146143,32.8420909 42.9224714,32.8405 42.9303286,32.8341364 C43.0411143,32.7458409 43.1196857,32.6344773 43.1786143,32.5151591 C43.6877571,31.8215227 44.0004714,30.9727727 44.0004714,30.0444773 L44.0004714,4.75538636 Z" id="Fill-4" fill="#1E1E1E" mask="url(#mask-2)"></path>
            </g>
        </g>
    </g>
</svg>