<svg width="66" height="72" viewBox="0 0 66 72" fill="none" xmlns="http://www.w3.org/2000/svg">
<g clip-path="url(#clip0_605_28314)">
<path d="M52.2789 71.9509L6.54099 72C2.9271 72 0 69.0729 0 65.459V16.3525C0 12.7386 2.9271 9.81148 6.54099 9.81148L52.2789 9.77878C55.8928 9.77878 58.8199 12.7059 58.8199 16.3198V65.4099C58.8199 69.0238 55.8928 71.9509 52.2789 71.9509Z" fill="#A2A5BB"/>
<path d="M22.9262 0H61.2728C63.5294 0 65.3609 1.83148 65.3609 4.08812V61.3218C65.3609 63.5785 63.5294 65.41 61.2728 65.41H10.5801C8.32342 65.41 6.49194 63.5785 6.49194 61.3218V16.4343L22.9262 0Z" fill="white"/>
<path d="M22.9262 0V12.3298C22.9262 14.5864 21.0947 16.4179 18.8381 16.4179H6.49194L22.9262 0Z" fill="#ECECF1"/>
<path d="M27.6357 26.1149H19.5739V52.3279H27.6357V26.1149Z" fill="#5F5FF1"/>
<path d="M40.7177 37.0057H32.6559V52.328H40.7177V37.0057Z" fill="#F95C5E"/>
<path d="M53.7997 9.77878H45.7379V52.3279H53.7997V9.77878Z" fill="#518FFF"/>
</g>
<defs>
<clipPath id="clip0_605_28314">
<rect width="65.3609" height="72" fill="white"/>
</clipPath>
</defs>
</svg>
