<svg width="105" height="72" viewBox="0 0 105 72" fill="none" xmlns="http://www.w3.org/2000/svg">
<g clip-path="url(#clip0_541_31551)">
<path d="M98.1491 71.4836H6.54545C3.20523 71.4836 0.5 68.7784 0.5 65.4382V6.56181C0.5 3.22159 3.20523 0.516357 6.54545 0.516357H98.1491C101.489 0.516357 104.195 3.22159 104.195 6.56181V65.4382C104.195 68.7784 101.489 71.4836 98.1491 71.4836Z" fill="#3F3F3F" stroke="white"/>
<path d="M81.8018 6.54546V13.0909V19.6364H94.8927C94.8927 12.4036 89.0345 6.54546 81.8018 6.54546Z" fill="url(#paint0_radial_541_31551)"/>
<path d="M77.4327 10.8982C70.2 10.8982 64.3418 16.7563 64.3418 23.9891C64.3418 31.2218 70.2 37.08 77.4327 37.08C84.6655 37.08 90.5236 31.2218 90.5236 23.9891H77.4327V10.8982Z" fill="url(#paint1_linear_541_31551)"/>
<path d="M48.6491 9.19635H16.7891C14.6455 9.19635 12.9109 10.9309 12.9109 13.0745V18C12.9109 20.1436 14.6455 21.8782 16.7891 21.8782H48.6327C50.7764 21.8782 52.5109 20.1436 52.5109 18V13.0745C52.5273 10.9473 50.7764 9.19635 48.6491 9.19635ZM14.1382 18V13.0745C14.1382 11.6182 15.3327 10.4236 16.7891 10.4236H26.3127V20.6509H16.7891C15.3327 20.6509 14.1382 19.4727 14.1382 18ZM51.3 18C51.3 19.4564 50.1054 20.6509 48.6491 20.6509H39.1091V10.4236H48.6327C50.0891 10.4236 51.2836 11.6182 51.2836 13.0745V18H51.3Z" fill="white"/>
<path d="M51.9055 30.6491V30.5509L51.7745 30.4527C51.0709 29.4873 49.9255 28.8327 48.6327 28.8327H16.7891C14.6455 28.8327 12.8945 30.5836 12.8945 32.7273V45.8182C12.8945 47.9618 14.6455 49.7127 16.7891 49.7127H48.6164C50.76 49.7127 52.5109 47.9618 52.5109 45.8182V32.7273C52.5109 31.9582 52.2818 31.2382 51.9055 30.6491ZM48.6164 48.4691H16.7891C16.7564 48.4691 16.74 48.4691 16.7073 48.4691H32.7109V39.2727H14.1382V32.7273C14.1382 31.2545 15.3327 30.06 16.8055 30.06H32.7273V39.2727H51.3V45.8018C51.2836 47.2745 50.0891 48.4691 48.6164 48.4691Z" fill="white"/>
<path d="M40.2382 63.8182H25.2C23.3836 63.8182 21.9273 62.3455 21.9273 60.5455C21.9273 58.7291 23.4 57.2727 25.2 57.2727H40.2382C42.0546 57.2727 43.5109 58.7455 43.5109 60.5455C43.5109 62.3618 42.0546 63.8182 40.2382 63.8182Z" fill="white"/>
<path d="M82.62 49.0745H74.4382V65.4382H82.62V49.0745Z" fill="url(#paint2_linear_541_31551)"/>
<path d="M69.5291 55.6364H61.3473V65.4545H69.5291V55.6364Z" fill="url(#paint3_linear_541_31551)"/>
<path d="M95.7109 39.2727H87.5291V65.4546H95.7109V39.2727Z" fill="url(#paint4_linear_541_31551)"/>
</g>
<defs>
<radialGradient id="paint0_radial_541_31551" cx="0" cy="0" r="1" gradientUnits="userSpaceOnUse" gradientTransform="translate(80.2358 20.4603) scale(13.2387)">
<stop offset="0.2406" stop-color="#FFCA00"/>
<stop offset="1" stop-color="#FBE769"/>
</radialGradient>
<linearGradient id="paint1_linear_541_31551" x1="66.845" y1="32.463" x2="79.5559" y2="22.2943" gradientUnits="userSpaceOnUse">
<stop stop-color="#5959E9"/>
<stop offset="1" stop-color="#9A9AF7"/>
</linearGradient>
<linearGradient id="paint2_linear_541_31551" x1="74.6417" y1="64.8762" x2="82.1369" y2="50.1743" gradientUnits="userSpaceOnUse">
<stop stop-color="#0062CB"/>
<stop offset="0.1727" stop-color="#0168CA"/>
<stop offset="0.3934" stop-color="#0277C8"/>
<stop offset="0.6403" stop-color="#0592C4"/>
<stop offset="0.9046" stop-color="#08B6BE"/>
<stop offset="1" stop-color="#0AC5BC"/>
</linearGradient>
<linearGradient id="paint3_linear_541_31551" x1="61.4091" y1="65.6012" x2="68.7193" y2="56.4208" gradientUnits="userSpaceOnUse">
<stop stop-color="#F95C5E"/>
<stop offset="1" stop-color="#F99090"/>
</linearGradient>
<linearGradient id="paint4_linear_541_31551" x1="88.2794" y1="65.2505" x2="94.7396" y2="40.2598" gradientUnits="userSpaceOnUse">
<stop stop-color="#518FFF"/>
<stop offset="0.1857" stop-color="#5594FF"/>
<stop offset="0.4039" stop-color="#5FA2FE"/>
<stop offset="0.6384" stop-color="#71BAFC"/>
<stop offset="0.8827" stop-color="#89DBFA"/>
<stop offset="1" stop-color="#97EDF9"/>
</linearGradient>
<clipPath id="clip0_541_31551">
<rect width="104.711" height="72" fill="white"/>
</clipPath>
</defs>
</svg>
