<svg width="64" height="60" viewBox="0 0 64 60" fill="none" xmlns="http://www.w3.org/2000/svg">
<path d="M22.1866 0V8.10667V16.2133H38.4C38.4 7.25547 31.1445 0 22.1866 0Z" fill="url(#paint0_radial_2340_29443)"/>
<path d="M16.64 5.12012C7.4464 5.12012 0 12.5665 0 21.7601C0 30.9537 7.4464 38.4001 16.64 38.4001C25.8336 38.4001 33.28 30.9537 33.28 21.7601H16.64V5.12012Z" fill="url(#paint1_linear_2340_29443)"/>
<path d="M46.08 38.3999H35.84V59.7332H46.08V38.3999Z" fill="url(#paint2_linear_2340_29443)"/>
<path d="M29.0133 46.9331H18.7733V59.7331H29.0133V46.9331Z" fill="url(#paint3_linear_2340_29443)"/>
<path d="M64 25.6001H52.9067V59.7334H64V25.6001Z" fill="url(#paint4_linear_2340_29443)"/>
<defs>
<radialGradient id="paint0_radial_2340_29443" cx="0" cy="0" r="1" gradientUnits="userSpaceOnUse" gradientTransform="translate(20.2471 17.2338) scale(16.3963)">
<stop offset="0.2406" stop-color="#FFCA00"/>
<stop offset="1" stop-color="#FBE769"/>
</radialGradient>
<linearGradient id="paint1_linear_2340_29443" x1="3.18177" y1="32.5314" x2="19.3388" y2="19.6059" gradientUnits="userSpaceOnUse">
<stop stop-color="#5959E9"/>
<stop offset="1" stop-color="#9A9AF7"/>
</linearGradient>
<linearGradient id="paint2_linear_2340_29443" x1="36.0948" y1="59.0006" x2="46.0979" y2="40.1643" gradientUnits="userSpaceOnUse">
<stop stop-color="#0062CB"/>
<stop offset="0.1727" stop-color="#0168CA"/>
<stop offset="0.3934" stop-color="#0277C8"/>
<stop offset="0.6403" stop-color="#0592C4"/>
<stop offset="0.9046" stop-color="#08B6BE"/>
<stop offset="1" stop-color="#0AC5BC"/>
</linearGradient>
<linearGradient id="paint3_linear_2340_29443" x1="18.8507" y1="59.9243" x2="28.4608" y2="48.3383" gradientUnits="userSpaceOnUse">
<stop stop-color="#F95C5E"/>
<stop offset="1" stop-color="#F99090"/>
</linearGradient>
<linearGradient id="paint4_linear_2340_29443" x1="53.9239" y1="59.4674" x2="62.0606" y2="26.7322" gradientUnits="userSpaceOnUse">
<stop stop-color="#518FFF"/>
<stop offset="0.1857" stop-color="#5594FF"/>
<stop offset="0.4039" stop-color="#5FA2FE"/>
<stop offset="0.6384" stop-color="#71BAFC"/>
<stop offset="0.8827" stop-color="#89DBFA"/>
<stop offset="1" stop-color="#97EDF9"/>
</linearGradient>
</defs>
</svg>
