<svg width="105" height="80" viewBox="0 0 105 80" fill="none" xmlns="http://www.w3.org/2000/svg">
<g clip-path="url(#clip0_605_28279)" filter="url(#filter0_d_605_28279)">
<path d="M100.06 72H53.76H50.2H4V68.44H50.22H53.78H100.06V72Z" fill="#A8664A"/>
<path d="M99.98 68.54L53.78 68.44H50.22H4V4L52 4.82L99.98 4.1V68.54Z" fill="#F8BE7E"/>
<path d="M51.96 68.44C51.96 68.44 41.08 64 8.56 64C8.56 44.64 8.6 10.54 8.6 0C41.12 0 52 4.82 52 4.82V68.44" fill="url(#paint0_linear_605_28279)"/>
<path d="M52.04 68.44C52.04 68.44 62.92 64 95.44 64C95.44 44.64 95.4 10.54 95.4 0C62.88 0 52 4.82 52 4.82V68.44" fill="url(#paint1_linear_605_28279)"/>
<path d="M47.96 12.98C47.82 12.98 47.66 12.94 47.52 12.88C39.38 9 24.2 9 12 9C11.44 9 11 8.56 11 8C11 7.44 11.44 7 12 7C24.4 7 39.84 7 48.38 11.08C48.88 11.32 49.08 11.92 48.86 12.42C48.68 12.78 48.34 12.98 47.96 12.98Z" fill="#3A3A3A"/>
<path d="M47.96 21C47.82 21 47.66 20.96 47.52 20.9C39.52 17 23.62 17 12 17C11.44 17 11 16.56 11 16C11 15.44 11.44 15 12 15C24.46 15 39.98 15 48.4 19.12C48.9 19.36 49.1 19.96 48.86 20.46C48.68 20.82 48.34 21.02 47.96 21.02V21Z" fill="#3A3A3A"/>
<path d="M47.8 29.14C47.64 29.14 47.48 29.1 47.34 29.02C39.64 25 23.66 25 12 25C11.44 25 11 24.56 11 24C11 23.44 11.44 23 12 23C23.86 23 40.12 23 48.26 27.24C48.74 27.5 48.94 28.1 48.68 28.58C48.5 28.92 48.16 29.12 47.8 29.12V29.14Z" fill="#3A3A3A"/>
<path d="M56.04 40.86C55.66 40.86 55.3 40.66 55.14 40.3C54.9 39.8 55.12 39.2 55.62 38.96C64.16 34.88 79.6 34.88 92 34.88C92.56 34.88 93 35.32 93 35.88C93 36.44 92.56 36.88 92 36.88C79.8 36.88 64.62 36.88 56.48 40.76C56.34 40.82 56.2 40.86 56.04 40.86Z" fill="#3A3A3A"/>
<path d="M56.04 48.88C55.66 48.88 55.32 48.68 55.14 48.32C54.9 47.82 55.1 47.22 55.6 46.98C64.02 42.88 79.52 42.88 92 42.88C92.56 42.88 93 43.32 93 43.88C93 44.44 92.56 44.88 92 44.88C80.38 44.88 64.48 44.88 56.48 48.78C56.34 48.84 56.18 48.88 56.04 48.88V48.88Z" fill="#3A3A3A"/>
<path d="M56.2 57C55.84 57 55.5 56.8 55.32 56.46C55.06 55.96 55.26 55.36 55.74 55.12C63.88 50.88 80.14 50.88 92 50.88C92.56 50.88 93 51.32 93 51.88C93 52.44 92.56 52.88 92 52.88C80.34 52.88 64.36 52.88 56.66 56.9C56.52 56.98 56.36 57.02 56.2 57.02V57Z" fill="#3A3A3A"/>
<path d="M27.38 54.08L38.16 43.88L48.04 52.04C48.04 52.04 48.08 43.36 48.08 36.06C43.34 31.58 22.68 29.96 12 32L11.94 53.4L24.02 50.3L27.38 54.08Z" fill="#8AB8F9"/>
<path d="M38.16 43.88L27.38 54.08L24.02 50.3L11.94 53.4V56.02C21.7 55 38.3 56.32 48.08 60.06C48.08 57.84 48.04 52.04 48.04 52.04L38.16 43.88V43.88Z" fill="#447049"/>
<path d="M26 47.24C28.1208 47.24 29.84 45.6193 29.84 43.62C29.84 41.6207 28.1208 40 26 40C23.8792 40 22.16 41.6207 22.16 43.62C22.16 45.6193 23.8792 47.24 26 47.24Z" fill="#FCCE41"/>
<path d="M72.1 8.07999V20.22H84.24C83.68 25.82 78.96 30.18 73.22 30.18C67.1 30.18 62.14 25.22 62.14 19.1C62.14 13.36 66.52 8.63999 72.1 8.07999V8.07999Z" fill="#7070F3"/>
<path d="M75.96 16V4C82.34 4.54 87.42 9.62 87.96 16H75.96Z" fill="#FCC63A"/>
</g>
<defs>
<filter id="filter0_d_605_28279" x="0" y="0" width="104.06" height="80" filterUnits="userSpaceOnUse" color-interpolation-filters="sRGB">
<feFlood flood-opacity="0" result="BackgroundImageFix"/>
<feColorMatrix in="SourceAlpha" type="matrix" values="0 0 0 0 0 0 0 0 0 0 0 0 0 0 0 0 0 0 127 0" result="hardAlpha"/>
<feOffset dy="4"/>
<feGaussianBlur stdDeviation="2"/>
<feComposite in2="hardAlpha" operator="out"/>
<feColorMatrix type="matrix" values="0 0 0 0 0 0 0 0 0 0 0 0 0 0 0 0 0 0 0.25 0"/>
<feBlend mode="normal" in2="BackgroundImageFix" result="effect1_dropShadow_605_28279"/>
<feBlend mode="normal" in="SourceGraphic" in2="effect1_dropShadow_605_28279" result="shape"/>
</filter>
<linearGradient id="paint0_linear_605_28279" x1="14.74" y1="34.22" x2="51.32" y2="34.22" gradientUnits="userSpaceOnUse">
<stop stop-color="white"/>
<stop offset="0.58" stop-color="white"/>
<stop offset="0.59" stop-color="white"/>
<stop offset="0.78" stop-color="#FDFDFD"/>
<stop offset="0.85" stop-color="#F6F6F6"/>
<stop offset="0.9" stop-color="#EAEAEA"/>
<stop offset="0.94" stop-color="#D8D8D8"/>
<stop offset="0.98" stop-color="#C2C2C2"/>
<stop offset="1" stop-color="#B1B1B1"/>
</linearGradient>
<linearGradient id="paint1_linear_605_28279" x1="93.98" y1="34.22" x2="50.98" y2="34.22" gradientUnits="userSpaceOnUse">
<stop stop-color="white"/>
<stop offset="0.58" stop-color="white"/>
<stop offset="0.59" stop-color="white"/>
<stop offset="0.77" stop-color="#FDFDFD"/>
<stop offset="0.84" stop-color="#F6F6F8"/>
<stop offset="0.89" stop-color="#EAEAEF"/>
<stop offset="0.93" stop-color="#D8DAE3"/>
<stop offset="0.96" stop-color="#C2C4D2"/>
<stop offset="0.99" stop-color="#A7AABE"/>
<stop offset="1" stop-color="#A2A5BB"/>
</linearGradient>
<clipPath id="clip0_605_28279">
<rect width="96.06" height="72" fill="white" transform="translate(4)"/>
</clipPath>
</defs>
</svg>
