<svg width="83" height="72" viewBox="0 0 83 72" fill="none" xmlns="http://www.w3.org/2000/svg">
<g clip-path="url(#clip0_1488_44200)">
<path d="M22.2807 26.6883L41.1563 33.7844C41.7237 33.9977 42.3503 33.9947 42.9155 33.7762L61.2416 26.6883M22.2807 26.6883L3.64829 33.1093C1.48286 33.8555 1.44037 36.8802 3.584 37.686L22.2874 44.7174M22.2807 26.6883L3.584 19.6595C1.44037 18.8536 1.48286 15.829 3.64829 15.0828L41.2216 2.13466C41.7497 1.95268 42.3246 1.95521 42.8509 2.14185L79.3723 15.0896C81.5099 15.8475 81.5528 18.8329 79.4377 19.6508L61.2416 26.6883M61.2416 26.6883L79.3723 33.1161C81.5099 33.874 81.5528 36.8595 79.4377 37.6774L61.2352 44.7174M22.2874 44.7174L3.64829 51.1406C1.48286 51.8868 1.44037 54.9114 3.584 55.7173L41.1563 69.8422C41.7237 70.0554 42.3503 70.0525 42.9155 69.834L79.4377 55.7086C81.5528 54.8907 81.5099 51.9053 79.3722 51.1474L61.2352 44.7174M22.2874 44.7174L41.1563 51.811C41.7237 52.0241 42.3503 52.0212 42.9155 51.8027L61.2352 44.7174" stroke="white" stroke-width="4"/>
</g>
<defs>
<clipPath id="clip0_1488_44200">
<rect width="83" height="72" fill="white"/>
</clipPath>
</defs>
</svg>
