<svg width="56" height="51" viewBox="0 0 56 51" fill="none" xmlns="http://www.w3.org/2000/svg">
<path d="M53.9557 32.1626C53.2734 32.1626 52.7151 31.6059 52.7151 30.9256C52.7151 15.2401 39.9121 2.47405 24.1811 2.47405C16.539 2.47405 9.36828 5.4429 3.97163 10.8363C3.4878 11.3188 2.70621 11.3188 2.22237 10.8363C1.73854 10.3539 1.73854 9.57455 2.22237 9.09212C8.09045 3.22863 15.8815 0 24.1935 0C41.3015 0 55.2087 13.8794 55.2087 30.9256C55.2087 31.6059 54.6505 32.1626 53.9681 32.1626H53.9557Z" fill="white"/>
<path d="M7.24478 13.4118H1.28986C0.607529 13.4118 0.0492554 12.8551 0.0492554 12.1747V6.23702C0.0492554 5.55666 0.607529 5 1.28986 5C1.9722 5 2.53047 5.55666 2.53047 6.23702V10.9377H7.24478C7.92712 10.9377 8.48539 11.4944 8.48539 12.1747C8.48539 12.8551 7.92712 13.4118 7.24478 13.4118Z" fill="white"/>
<path d="M24.1088 11C13.1472 11 4.26147 19.86 4.26147 30.79C4.26147 41.72 13.1472 50.58 24.1088 50.58C35.0705 50.58 43.9562 41.72 43.9562 30.79C43.9562 19.86 35.0805 11 24.1088 11ZM30.7179 32.65H24.0888C23.0558 32.65 22.2234 31.82 22.2234 30.79V17.59C22.2234 16.56 23.0558 15.73 24.0888 15.73C25.1218 15.73 25.9542 16.56 25.9542 17.59V28.93H30.7179C31.7509 28.93 32.5833 29.76 32.5833 30.79C32.5833 31.82 31.7509 32.65 30.7179 32.65Z" fill="url(#paint0_linear_2147_30519)"/>
<defs>
<linearGradient id="paint0_linear_2147_30519" x1="37.5" y1="16.5" x2="8.92028" y2="46.4239" gradientUnits="userSpaceOnUse">
<stop stop-color="#009FA7"/>
<stop offset="1" stop-color="#FA794A"/>
</linearGradient>
</defs>
</svg>
