<svg width="72" height="78" viewBox="0 0 72 78" fill="none" xmlns="http://www.w3.org/2000/svg">
<g clip-path="url(#clip0_10_593)">
<path d="M54 14.0564H4C1.79086 14.0564 0 15.8473 0 18.0564V73.7464C0 75.9555 1.79086 77.7464 4 77.7464H54C56.2091 77.7464 58 75.9555 58 73.7464V18.0564C58 15.8473 56.2091 14.0564 54 14.0564Z" fill="#A2A5BB"/>
<g filter="url(#filter0_d_10_593)">
<path d="M24 6.0863H61.61C63.81 6.0863 65.6 7.8663 65.6 10.0763V65.7963C65.6 67.9963 63.82 69.7863 61.61 69.7863H11.99C9.79 69.7863 8 68.0063 8 65.7963V22.0863L24 6.0863Z" fill="white"/>
</g>
<path d="M24 6.0863V18.0963C24 20.2963 22.22 22.0863 20.01 22.0863H8L24 6.0863Z" fill="#ECECF1"/>
<path d="M56.8 59.6063H16.8C16.52 59.6063 16.3 59.3863 16.3 59.1063C16.3 58.8263 16.52 58.6063 16.8 58.6063H56.8C57.08 58.6063 57.3 58.8263 57.3 59.1063C57.3 59.3863 57.08 59.6063 56.8 59.6063Z" fill="#2A2A2A"/>
<path d="M27.8 31.3164H19.8V56.5964H27.8V31.3164Z" fill="#5770BD"/>
<path d="M40.8 41.8264H32.8V56.6064H40.8V41.8264Z" fill="#FF8C7E"/>
<path d="M53.8 15.5564H45.8V56.5964H53.8V15.5564Z" fill="#0067E1"/>
</g>
<defs>
<filter id="filter0_d_10_593" x="4" y="2.0863" width="65.6" height="71.7" filterUnits="userSpaceOnUse" color-interpolation-filters="sRGB">
<feFlood flood-opacity="0" result="BackgroundImageFix"/>
<feColorMatrix in="SourceAlpha" type="matrix" values="0 0 0 0 0 0 0 0 0 0 0 0 0 0 0 0 0 0 127 0" result="hardAlpha"/>
<feOffset/>
<feGaussianBlur stdDeviation="2"/>
<feColorMatrix type="matrix" values="0 0 0 0 0.254902 0 0 0 0 0.329412 0 0 0 0 0.552941 0 0 0 1 0"/>
<feBlend mode="normal" in2="BackgroundImageFix" result="effect1_dropShadow_10_593"/>
<feBlend mode="normal" in="SourceGraphic" in2="effect1_dropShadow_10_593" result="shape"/>
</filter>
<clipPath id="clip0_10_593">
<rect width="71.63" height="77.74" fill="white" transform="translate(0 0.00634766)"/>
</clipPath>
</defs>
</svg>
