<svg width="78" height="60" viewBox="0 0 78 60" fill="none" xmlns="http://www.w3.org/2000/svg">
<path d="M10.5794 12.8699C9.25938 12.8699 8.31938 11.8399 8.31938 10.4999C8.31938 9.15992 9.25938 8.12992 10.5794 8.12992C11.3794 8.12992 12.0094 8.51992 12.4094 9.08992L13.5294 8.21992C12.8894 7.36992 11.8494 6.79992 10.5794 6.79992C8.36937 6.79992 6.85938 8.49992 6.85938 10.4999C6.85938 12.4999 8.36937 14.1999 10.5794 14.1999C11.8494 14.1999 12.8894 13.6399 13.5294 12.7699L12.4094 11.9099C12.0094 12.4799 11.3794 12.8699 10.5794 12.8699Z" fill="white"/>
<path d="M15.9141 14.1499C16.5041 14.1499 17.1041 13.8999 17.4241 13.5099V13.9999H18.6941V10.7399C18.6941 9.62992 17.9441 8.75992 16.4841 8.75992C15.5641 8.75992 14.8241 9.13992 14.3741 9.75992L15.3041 10.4699C15.5741 10.0999 15.9541 9.86992 16.4441 9.86992C17.0241 9.86992 17.4241 10.2099 17.4241 10.7399V10.8699L15.8841 11.1299C14.8041 11.3099 14.2141 11.8799 14.2141 12.6399C14.2141 13.5699 14.9041 14.1499 15.9141 14.1499ZM15.4741 12.5799C15.4741 12.2699 15.6941 12.0499 16.2241 11.9599L17.4241 11.7599V12.4699C17.1741 12.8699 16.7541 13.1399 16.1741 13.1399C15.7441 13.1399 15.4741 12.9199 15.4741 12.5799Z" fill="white"/>
<path d="M20.1484 13.9999H21.4184V10.7699C21.6084 10.4499 22.0084 10.1099 22.6284 10.1099C22.8584 10.1099 23.0284 10.1399 23.1884 10.1799V8.92992C23.0684 8.88992 22.9184 8.85992 22.7484 8.85992C22.1784 8.85992 21.7484 9.11992 21.4184 9.45992V8.95992H20.1484V13.9999Z" fill="white"/>
<path d="M24.8629 12.1599C24.8629 13.3899 25.4629 14.0999 26.7229 14.0999C27.1429 14.0999 27.4429 14.0499 27.6929 13.9399V12.8299C27.5229 12.8999 27.2929 12.9399 26.9429 12.9399C26.4429 12.9399 26.1429 12.7199 26.1429 12.1599V10.0999H27.6829V8.95992H26.1429V7.69992H24.8629V8.95992H23.9229V10.0999H24.8629V12.1599Z" fill="white"/>
<path d="M31.1226 8.75992C29.4826 8.75992 28.3626 9.96992 28.3626 11.4799C28.3626 12.9899 29.4826 14.1999 31.1226 14.1999C32.7626 14.1999 33.8826 12.9899 33.8826 11.4799C33.8826 9.96992 32.7626 8.75992 31.1226 8.75992ZM31.1426 12.9999C30.3026 12.9999 29.6826 12.3599 29.6826 11.4799C29.6826 10.5999 30.3026 9.95992 31.1426 9.95992C31.9526 9.95992 32.5626 10.5999 32.5626 11.4799C32.5626 12.3499 31.9526 12.9999 31.1426 12.9999Z" fill="white"/>
<path d="M34.4726 14.8799C34.4726 15.9399 35.4226 16.4999 37.0326 16.4999C38.6026 16.4999 39.6726 15.6399 39.6726 14.5199C39.6726 13.5799 38.9826 12.8999 37.7126 12.8999H36.4426C36.2126 12.8999 36.1026 12.7999 36.1026 12.5999C36.1026 12.4899 36.1626 12.3799 36.2726 12.2799C36.4226 12.3099 36.5826 12.3199 36.7526 12.3199C38.0526 12.3199 38.7926 11.5199 38.7926 10.5299C38.7926 10.3599 38.7726 10.1999 38.7226 10.0399H39.6126V8.95992H37.7726C37.4826 8.82992 37.1426 8.75992 36.7526 8.75992C35.4926 8.75992 34.7326 9.54992 34.7326 10.5299C34.7326 11.0899 34.9726 11.5899 35.4126 11.9199C35.0326 12.1999 34.8626 12.5199 34.8626 12.9199C34.8626 13.1799 34.9726 13.4499 35.1726 13.6499C34.7226 13.9799 34.4726 14.3799 34.4726 14.8799ZM36.7726 11.3599C36.2226 11.3599 35.8926 11.0299 35.8926 10.5299C35.8926 10.0399 36.2226 9.70992 36.7726 9.70992C37.3026 9.70992 37.6426 10.0299 37.6426 10.5299C37.6426 11.0299 37.3026 11.3599 36.7726 11.3599ZM35.6726 14.6999C35.6726 14.3899 35.8226 14.1699 36.0126 13.9899H37.5726C38.1826 13.9899 38.4126 14.2599 38.4126 14.6399C38.4126 15.1399 37.9426 15.4799 37.0226 15.4799C36.1326 15.4799 35.6726 15.1799 35.6726 14.6999Z" fill="white"/>
<path d="M40.5487 13.9999H41.8187V10.7699C42.0087 10.4499 42.4088 10.1099 43.0288 10.1099C43.2588 10.1099 43.4287 10.1399 43.5887 10.1799V8.92992C43.4687 8.88992 43.3188 8.85992 43.1488 8.85992C42.5788 8.85992 42.1487 9.11992 41.8187 9.45992V8.95992H40.5487V13.9999Z" fill="white"/>
<path d="M45.7871 14.1499C46.3771 14.1499 46.9771 13.8999 47.2971 13.5099V13.9999H48.5671V10.7399C48.5671 9.62992 47.8171 8.75992 46.3571 8.75992C45.4371 8.75992 44.6971 9.13992 44.2471 9.75992L45.1771 10.4699C45.4471 10.0999 45.8271 9.86992 46.3171 9.86992C46.8971 9.86992 47.2971 10.2099 47.2971 10.7399V10.8699L45.7571 11.1299C44.6771 11.3099 44.0871 11.8799 44.0871 12.6399C44.0871 13.5699 44.7771 14.1499 45.7871 14.1499ZM45.3471 12.5799C45.3471 12.2699 45.5671 12.0499 46.0971 11.9599L47.2971 11.7599V12.4699C47.0471 12.8699 46.6271 13.1399 46.0471 13.1399C45.6171 13.1399 45.3471 12.9199 45.3471 12.5799Z" fill="white"/>
<path d="M50.0214 16.4599H51.2914V13.5899C51.6814 13.9799 52.1714 14.1999 52.8614 14.1999C54.4614 14.1999 55.4214 12.9499 55.4214 11.4799C55.4214 10.0099 54.4614 8.75992 52.8614 8.75992C52.1714 8.75992 51.6814 8.97992 51.2914 9.36992V8.95992H50.0214V16.4599ZM52.6814 9.95992C53.5414 9.95992 54.1014 10.5999 54.1014 11.4799C54.1014 12.3599 53.5414 12.9999 52.6814 12.9999C52.1014 12.9999 51.6314 12.7499 51.2914 12.2699V10.6899C51.6114 10.2199 52.0914 9.95992 52.6814 9.95992Z" fill="white"/>
<path d="M56.5839 13.9999H57.8539V10.7099C58.0439 10.3899 58.3839 9.95992 59.0239 9.95992C59.6539 9.95992 60.0239 10.3799 60.0239 11.0499V13.9999H61.3039V10.9999C61.3039 9.50992 60.4339 8.75992 59.3439 8.75992C58.6739 8.75992 58.2039 9.01992 57.8539 9.35992V6.49992H56.5839V13.9999Z" fill="white"/>
<path d="M63.386 8.07992C63.836 8.07992 64.206 7.69992 64.206 7.24992C64.206 6.79992 63.836 6.41992 63.386 6.41992C62.936 6.41992 62.556 6.79992 62.556 7.24992C62.556 7.69992 62.936 8.07992 63.386 8.07992ZM62.746 13.9999H64.016V8.95992H62.746V13.9999Z" fill="white"/>
<path d="M70.179 13.1799L69.269 12.4599C68.999 12.8199 68.519 13.0599 67.969 13.0599C67.179 13.0599 66.599 12.6799 66.479 11.7399H70.009C70.049 11.5699 70.089 11.3099 70.089 11.0299C70.089 9.70992 69.169 8.75992 67.769 8.75992C66.119 8.75992 65.179 9.98992 65.179 11.4799C65.179 12.9499 66.189 14.1999 67.979 14.1999C68.929 14.1999 69.709 13.8099 70.179 13.1799ZM67.739 9.79992C68.449 9.79992 68.819 10.3099 68.839 10.8199H66.519C66.659 10.1599 67.089 9.79992 67.739 9.79992Z" fill="white"/>
<path d="M20.7649 33.0299C21.3849 33.7699 22.1749 34.1999 23.3549 34.1999C24.6449 34.1999 25.6649 33.4099 25.6849 32.0899C25.6849 29.6899 22.5049 30.0499 22.5049 28.7799C22.5049 28.3599 22.8349 28.0399 23.3349 28.0399C23.8649 28.0399 24.3249 28.3899 24.7349 28.9199L25.7749 27.9799C25.1749 27.2699 24.3749 26.7999 23.3249 26.7999C21.9849 26.7999 21.0649 27.7199 21.0649 28.8299C21.0649 31.1999 24.2449 30.8499 24.2449 32.1399C24.2449 32.6399 23.9049 32.9399 23.3449 32.9399C22.7749 32.9399 22.2149 32.6199 21.7949 32.0799L20.7649 33.0299Z" fill="white"/>
<path d="M29.3843 28.7599C27.7443 28.7599 26.6243 29.9699 26.6243 31.4799C26.6243 32.9899 27.7443 34.1999 29.3843 34.1999C31.0243 34.1999 32.1443 32.9899 32.1443 31.4799C32.1443 29.9699 31.0243 28.7599 29.3843 28.7599ZM29.4043 32.9999C28.5643 32.9999 27.9443 32.3599 27.9443 31.4799C27.9443 30.5999 28.5643 29.9599 29.4043 29.9599C30.2143 29.9599 30.8243 30.5999 30.8243 31.4799C30.8243 32.3499 30.2143 32.9999 29.4043 32.9999Z" fill="white"/>
<path d="M35.7715 32.9999C34.9215 32.9999 34.3115 32.3699 34.3115 31.4799C34.3115 30.5999 34.9215 29.9599 35.7515 29.9599C36.2715 29.9599 36.6715 30.1899 36.9115 30.5399L37.9015 29.7799C37.4315 29.1599 36.6915 28.7599 35.7715 28.7599C34.0315 28.7599 32.9915 30.0099 32.9915 31.4799C32.9915 32.9499 34.0315 34.1999 35.7715 34.1999C36.6915 34.1999 37.4315 33.7999 37.9015 33.1799L36.9115 32.4199C36.6715 32.7699 36.2715 32.9999 35.7715 32.9999Z" fill="white"/>
<path d="M39.4895 28.0799C39.9395 28.0799 40.3095 27.6999 40.3095 27.2499C40.3095 26.7999 39.9395 26.4199 39.4895 26.4199C39.0395 26.4199 38.6595 26.7999 38.6595 27.2499C38.6595 27.6999 39.0395 28.0799 39.4895 28.0799ZM38.8495 33.9999H40.1195V28.9599H38.8495V33.9999Z" fill="white"/>
<path d="M44.5725 28.1599L45.7725 26.4999H44.3925L43.3525 28.1599H44.5725ZM46.2825 33.1799L45.3725 32.4599C45.1025 32.8199 44.6225 33.0599 44.0725 33.0599C43.2825 33.0599 42.7025 32.6799 42.5825 31.7399H46.1125C46.1525 31.5699 46.1925 31.3099 46.1925 31.0299C46.1925 29.7099 45.2725 28.7599 43.8725 28.7599C42.2225 28.7599 41.2825 29.9899 41.2825 31.4799C41.2825 32.9499 42.2925 34.1999 44.0825 34.1999C45.0325 34.1999 45.8125 33.8099 46.2825 33.1799ZM43.8425 29.7999C44.5525 29.7999 44.9225 30.3099 44.9425 30.8199H42.6225C42.7625 30.1599 43.1925 29.7999 43.8425 29.7999Z" fill="white"/>
<path d="M47.7438 32.1599C47.7438 33.3899 48.3437 34.0999 49.6037 34.0999C50.0237 34.0999 50.3237 34.0499 50.5737 33.9399V32.8299C50.4037 32.8999 50.1737 32.9399 49.8237 32.9399C49.3237 32.9399 49.0238 32.7199 49.0238 32.1599V30.0999H50.5638V28.9599H49.0238V27.6999H47.7438V28.9599H46.8037V30.0999H47.7438V32.1599Z" fill="white"/>
<path d="M54.5334 28.1599L55.7334 26.4999H54.3534L53.3134 28.1599H54.5334ZM56.2434 33.1799L55.3334 32.4599C55.0634 32.8199 54.5834 33.0599 54.0334 33.0599C53.2434 33.0599 52.6634 32.6799 52.5434 31.7399H56.0734C56.1134 31.5699 56.1534 31.3099 56.1534 31.0299C56.1534 29.7099 55.2334 28.7599 53.8334 28.7599C52.1834 28.7599 51.2434 29.9899 51.2434 31.4799C51.2434 32.9499 52.2534 34.1999 54.0434 34.1999C54.9934 34.1999 55.7734 33.8099 56.2434 33.1799ZM53.8034 29.7999C54.5134 29.7999 54.8834 30.3099 54.9034 30.8199H52.5834C52.7234 30.1599 53.1534 29.7999 53.8034 29.7999Z" fill="white"/>
<path d="M13.078 53.9999H14.348V50.7099C14.538 50.3899 14.878 49.9599 15.518 49.9599C16.138 49.9599 16.518 50.3799 16.518 51.0499V53.9999H17.798V50.9999C17.798 49.5099 16.928 48.7599 15.838 48.7599C15.168 48.7599 14.698 49.0199 14.348 49.3599V48.9599H13.078V53.9999Z" fill="white"/>
<path d="M22.5602 51.8199C22.5602 52.5499 22.1802 52.9999 21.4902 52.9999C20.7902 52.9999 20.4102 52.5499 20.4102 51.8199V48.9599H19.1302V51.7599C19.1302 53.2699 20.0002 54.1999 21.4802 54.1999C22.9602 54.1999 23.8402 53.2699 23.8402 51.7599V48.9599H22.5602V51.8199Z" fill="white"/>
<path d="M25.246 53.9999H26.516V50.7099C26.706 50.3899 27.006 49.9599 27.586 49.9599C28.156 49.9599 28.486 50.3399 28.486 50.9499V53.9999H29.766V50.8999C29.766 50.8199 29.766 50.7499 29.756 50.6799C29.956 50.3399 30.256 49.9599 30.806 49.9599C31.376 49.9599 31.706 50.3399 31.706 50.9499V53.9999H32.986V50.8999C32.986 49.4799 32.166 48.7599 31.126 48.7599C30.276 48.7599 29.796 49.1399 29.436 49.5799C29.106 49.0399 28.546 48.7599 27.906 48.7599C27.286 48.7599 26.856 49.0099 26.516 49.3399V48.9599H25.246V53.9999Z" fill="white"/>
<path d="M37.3655 48.1599L38.5655 46.4999H37.1855L36.1455 48.1599H37.3655ZM39.0755 53.1799L38.1655 52.4599C37.8955 52.8199 37.4155 53.0599 36.8655 53.0599C36.0755 53.0599 35.4955 52.6799 35.3755 51.7399H38.9055C38.9455 51.5699 38.9855 51.3099 38.9855 51.0299C38.9855 49.7099 38.0655 48.7599 36.6655 48.7599C35.0155 48.7599 34.0755 49.9899 34.0755 51.4799C34.0755 52.9499 35.0855 54.1999 36.8755 54.1999C37.8255 54.1999 38.6055 53.8099 39.0755 53.1799ZM36.6355 49.7999C37.3455 49.7999 37.7155 50.3099 37.7355 50.8199H35.4155C35.5555 50.1599 35.9855 49.7999 36.6355 49.7999Z" fill="white"/>
<path d="M40.2265 53.9999H41.4965V50.7699C41.6865 50.4499 42.0865 50.1099 42.7065 50.1099C42.9365 50.1099 43.1065 50.1399 43.2665 50.1799V48.9299C43.1465 48.8899 42.9965 48.8599 42.8265 48.8599C42.2565 48.8599 41.8265 49.1199 41.4965 49.4599V48.9599H40.2265V53.9999Z" fill="white"/>
<path d="M44.929 48.0799C45.379 48.0799 45.749 47.6999 45.749 47.2499C45.749 46.7999 45.379 46.4199 44.929 46.4199C44.479 46.4199 44.099 46.7999 44.099 47.2499C44.099 47.6999 44.479 48.0799 44.929 48.0799ZM44.289 53.9999H45.559V48.9599H44.289V53.9999Z" fill="white"/>
<path d="M46.722 51.4799C46.722 52.9499 47.682 54.1999 49.282 54.1999C49.962 54.1999 50.452 53.9799 50.842 53.5899V56.4599H52.122V48.9599H50.842V49.3699C50.452 48.9799 49.962 48.7599 49.282 48.7599C47.682 48.7599 46.722 50.0099 46.722 51.4799ZM48.042 51.4799C48.042 50.5999 48.592 49.9599 49.452 49.9599C50.022 49.9599 50.502 50.2099 50.842 50.6799V52.2799C50.532 52.7399 50.042 52.9999 49.452 52.9999C48.592 52.9999 48.042 52.3599 48.042 51.4799Z" fill="white"/>
<path d="M56.9645 51.8199C56.9645 52.5499 56.5845 52.9999 55.8945 52.9999C55.1945 52.9999 54.8145 52.5499 54.8145 51.8199V48.9599H53.5345V51.7599C53.5345 53.2699 54.4045 54.1999 55.8845 54.1999C57.3645 54.1999 58.2445 53.2699 58.2445 51.7599V48.9599H56.9645V51.8199Z" fill="white"/>
<path d="M64.2903 53.1799L63.3803 52.4599C63.1103 52.8199 62.6303 53.0599 62.0803 53.0599C61.2903 53.0599 60.7103 52.6799 60.5903 51.7399H64.1203C64.1603 51.5699 64.2003 51.3099 64.2003 51.0299C64.2003 49.7099 63.2803 48.7599 61.8803 48.7599C60.2303 48.7599 59.2903 49.9899 59.2903 51.4799C59.2903 52.9499 60.3003 54.1999 62.0903 54.1999C63.0403 54.1999 63.8203 53.8099 64.2903 53.1799ZM61.8503 49.7999C62.5603 49.7999 62.9303 50.3099 62.9503 50.8199H60.6303C60.7703 50.1599 61.2003 49.7999 61.8503 49.7999Z" fill="white"/>
</svg>
