<svg width="90" height="97" viewBox="0 0 90 97" fill="none" xmlns="http://www.w3.org/2000/svg">
<path d="M67.5958 18.3735H50.97C49.1336 18.3735 47.6449 19.754 47.6449 21.4569V36.874C47.6449 38.5769 49.1336 39.9574 50.97 39.9574H67.5958C69.4322 39.9574 70.921 38.5769 70.921 36.874V21.4569C70.921 19.754 69.4322 18.3735 67.5958 18.3735Z" stroke="white" stroke-miterlimit="10"/>
<path d="M44.3197 18.3735H27.6939C25.8575 18.3735 24.3688 19.754 24.3688 21.4569V36.874C24.3688 38.5769 25.8575 39.9574 27.6939 39.9574H44.3197C46.1561 39.9574 47.6448 38.5769 47.6448 36.874V21.4569C47.6448 19.754 46.1561 18.3735 44.3197 18.3735Z" fill="white" stroke="white" stroke-miterlimit="10"/>
<path d="M21.0437 18.3735H4.41793C2.58149 18.3735 1.09277 19.754 1.09277 21.4569V36.874C1.09277 38.5769 2.58149 39.9574 4.41793 39.9574H21.0437C22.8801 39.9574 24.3688 38.5769 24.3688 36.874V21.4569C24.3688 19.754 22.8801 18.3735 21.0437 18.3735Z" stroke="white" stroke-miterlimit="10"/>
<path d="M67.5958 49.1147H39.332C37.4956 49.1147 36.0068 50.4952 36.0068 52.1982V61.4484C36.0068 63.1513 37.4956 64.5318 39.332 64.5318H67.5958C69.4322 64.5318 70.9209 63.1513 70.9209 61.4484V52.1982C70.9209 50.4952 69.4322 49.1147 67.5958 49.1147Z" fill="white" stroke="white" stroke-miterlimit="10"/>
<path d="M32.6817 49.1147H4.41793C2.58149 49.1147 1.09277 50.4952 1.09277 52.1982V61.4484C1.09277 63.1513 2.58149 64.5318 4.41793 64.5318H32.6817C34.5181 64.5318 36.0069 63.1513 36.0069 61.4484V52.1982C36.0069 50.4952 34.5181 49.1147 32.6817 49.1147Z" stroke="white" stroke-miterlimit="10"/>
<path d="M67.5958 64.5327H39.332C37.4956 64.5327 36.0068 65.9132 36.0068 67.6161V76.8663C36.0068 78.5693 37.4956 79.9497 39.332 79.9497H67.5958C69.4322 79.9497 70.9209 78.5693 70.9209 76.8663V67.6161C70.9209 65.9132 69.4322 64.5327 67.5958 64.5327Z" stroke="white" stroke-miterlimit="10"/>
<path d="M32.6817 64.5327H4.41793C2.58149 64.5327 1.09277 65.9132 1.09277 67.6161V76.8663C1.09277 78.5693 2.58149 79.9497 4.41793 79.9497H32.6817C34.5181 79.9497 36.0069 78.5693 36.0069 76.8663V67.6161C36.0069 65.9132 34.5181 64.5327 32.6817 64.5327Z" fill="white" stroke="white" stroke-miterlimit="10"/>
<path d="M47.6449 86.4863H24.3688C21.6142 86.4863 19.3811 88.5571 19.3811 91.1114C19.3811 93.6658 21.6142 95.7365 24.3688 95.7365H47.6449C50.3995 95.7365 52.6326 93.6658 52.6326 91.1114C52.6326 88.5571 50.3995 86.4863 47.6449 86.4863Z" fill="white" stroke="white" stroke-miterlimit="10"/>
<path d="M73.8304 0C65.2959 0 58.313 6.96264 58.313 15.4725C58.313 23.9824 65.1989 30.9451 73.8304 30.9451C82.462 30.9451 89.3478 24.0791 89.3478 15.4725C89.3478 6.86593 82.365 0 73.8304 0ZM81.5891 17.4066H75.7701V23.2088H71.8908V17.4066H66.0717V13.5385H71.8908V7.73626H75.7701V13.5385H81.5891V17.4066Z" fill="url(#paint0_linear_2147_30533)"/>
<defs>
<linearGradient id="paint0_linear_2147_30533" x1="73.8304" y1="-1.02505" x2="73.8304" y2="36.4475" gradientUnits="userSpaceOnUse">
<stop stop-color="#FFE552"/>
<stop offset="0.25" stop-color="#FFEF9F"/>
<stop offset="0.37" stop-color="#DEF2A9"/>
<stop offset="0.5" stop-color="#C2F5B2"/>
<stop offset="0.64" stop-color="#AEF7B8"/>
<stop offset="0.77" stop-color="#A2F8BC"/>
<stop offset="0.9" stop-color="#9EF9BE"/>
</linearGradient>
</defs>
</svg>
