<svg width="117" height="108" viewBox="0 0 117 108" fill="none" xmlns="http://www.w3.org/2000/svg">
<g clip-path="url(#clip0_14_13417)">
<path d="M95.5912 26.9738L111.882 67.6075L95.5912 59.5143L82.9272 19.0693L95.5912 26.9738Z" fill="#447049"/>
<path d="M34.9552 19.0798L22.2913 59.5143L58.9412 72V27.844L34.9552 19.0798Z" fill="#447049"/>
<path d="M22.2912 26.9738L6 67.6075L22.2912 59.5143L34.9552 19.0798L22.2912 26.9738Z" fill="#85D04A"/>
<path d="M58.9412 27.8439V72L95.5911 59.5143L82.9272 19.0693L58.9412 27.8439Z" fill="#85D04A"/>
<path d="M32.2505 27.7076L26.3484 30.947L25.2791 33.2114L30.6256 32.9074L32.2505 27.7076Z" fill="#FFEA85"/>
<path d="M56.2364 29.9301L55.4397 32.1211L48.4577 31.9639L38.6977 26.4811L38.0058 26.7641L39.4944 30.9365L32.2504 27.6972L30.6254 32.9074L34.5567 37.6983L37.9429 39.7111L37.838 42.4054L39.725 44.5754L40.071 46.8923L37.1461 43.3384L32.2504 50.4776L28.8433 51.1695L36.9155 57.449L46.7804 61.244L58.9411 67.6075V30.8736L56.2364 29.9301Z" fill="#C9A92A"/>
<path d="M89.7205 40.749L90.5801 40.3296L89.9301 38.2749L88.8608 38.0023L89.7205 40.749Z" fill="#C9A92A"/>
<path d="M95.9057 48.4962L96.4193 46.9132L90.7688 44.1456L92.3203 49.0623L95.9057 48.4962Z" fill="#C9A92A"/>
<path d="M90.7688 44.1456H89.8567L90.3389 42.8876L87.3407 42.3215L89.7204 40.7489L88.8608 38.0023L85.5795 36.8072L81.5643 40.1724L81.7321 37.7717L86.9528 31.7752L85.7892 27.0471L85.3279 26.6278L79.1532 27.6657L75.2009 28.9446L68.3133 30.4962L60.1153 30.0873L58.9412 30.8736V67.6074L65.1054 65.1229V61.4222L70.3261 55.9604L79.9499 54.7128L90.7688 51.2114L92.2784 49.0728L92.3203 49.0623L90.7688 44.1456Z" fill="#FFEA85"/>
<path d="M90.2027 32.4985L89.8672 28.7455L85.3279 26.6278L86.9528 31.7752L90.2027 32.4985Z" fill="#C9A92A"/>
<path d="M102.437 52.2494L101.755 50.4777H102.626L103.999 53.7799L106.19 56.9774L106.096 58.6966L107.154 60.2796V62.5755L101.923 57.7112L99.1555 52.5639L99.8474 51.6623L102.437 52.2494Z" fill="#C9A92A"/>
<path d="M58.9412 0L44.4636 8.36576V25.0868L58.9412 48.7373L73.4293 25.0868V8.36576L58.9412 0Z" fill="#E0000F"/>
<path d="M63.0821 14.3308H68.5754V11.1648L58.9411 5.59814L49.3174 11.1648V22.2877L58.9411 27.8439L68.5754 22.2877V19.1112H63.0821V14.3308Z" fill="white"/>
<path d="M63.0822 19.1112V14.3308L58.9412 11.9406L54.8003 14.3308V19.1112L58.9412 21.5014L63.0822 19.1112Z" fill="#000090"/>
</g>
<defs>
<clipPath id="clip0_14_13417">
<rect width="105.882" height="72" fill="white" transform="translate(6)"/>
</clipPath>
</defs>
</svg>
