<svg width="92" height="72" viewBox="0 0 92 72" fill="none" xmlns="http://www.w3.org/2000/svg">
<g clip-path="url(#clip0_2147_30548)">
<path d="M92 64C92 68.4 88.4 72 84 72H8C3.6 72 0 68.4 0 64V8C0 3.6 3.6 0 8 0H84C88.4 0 92 3.6 92 8V64Z" fill="white"/>
<path d="M280.06 57.0801C156.65 57.0801 56.6 157.12 56.6 280.54H155.06C155.06 211.5 211.02 155.54 280.06 155.54C349.1 155.54 405.06 211.5 405.06 280.54H503.52C503.52 157.12 403.47 57.0801 280.06 57.0801Z" fill="#525252"/>
<path d="M18.43 60.3002L31.95 47.1302L44 58.8802V35.9902H4V64.7402L14.21 55.4102L18.43 60.3002Z" fill="#9999FF"/>
<path d="M31.95 47.1304L18.43 60.3004L14.21 55.4104L4 64.7404V68.1104H44V58.8804L31.95 47.1304Z" fill="#198F5B"/>
<path d="M16.52 51.1704C19.1434 51.1704 21.27 49.0438 21.27 46.4204C21.27 43.7971 19.1434 41.6704 16.52 41.6704C13.8967 41.6704 11.77 43.7971 11.77 46.4204C11.77 49.0438 13.8967 51.1704 16.52 51.1704Z" fill="#FCCE41"/>
<path d="M64 7.99023H87.93" stroke="black" stroke-width="1.5" stroke-miterlimit="10" stroke-linecap="round"/>
<path d="M64 13.9302H87.93" stroke="black" stroke-width="1.5" stroke-miterlimit="10" stroke-linecap="round"/>
<path d="M52 19.8799H87.93" stroke="black" stroke-width="1.5" stroke-miterlimit="10" stroke-linecap="round"/>
<path d="M52 25.8198H87.93" stroke="black" stroke-width="1.5" stroke-miterlimit="10" stroke-linecap="round"/>
<path d="M52 31.77H87.93" stroke="black" stroke-width="1.5" stroke-miterlimit="10" stroke-linecap="round"/>
<path d="M35.4 31.8398C29.04 31.8398 23.88 26.4598 23.88 19.8798C23.9 13.2698 29.05 7.91985 35.4 7.91985C39.73 7.54985 43.89 9.73985 46.17 13.5898C48.45 17.4498 48.45 22.3098 46.17 26.1598C43.89 30.0198 39.73 32.2098 35.4 31.8398Z" fill="#AACCF4"/>
<path d="M34.99 25.9601C31.84 26.1001 29.45 27.2401 27.6 28.6501C29.65 30.6201 32.39 31.8301 35.4 31.8301C38.08 32.0601 40.69 31.3101 42.84 29.7901C41.04 27.9601 38.24 25.8101 34.99 25.9601Z" fill="#00008F"/>
<path fill-rule="evenodd" clip-rule="evenodd" d="M40.86 18.4497C40.64 18.8697 40.34 18.7697 40.34 18.2997C40.33 16.7897 40.37 16.5597 39.66 15.2397C39.27 14.5097 39.15 14.4597 39.47 14.1897C40.52 13.3097 42.65 14.9997 40.86 18.4497Z" fill="#01015B"/>
<path d="M36.75 20.7497C36.18 18.5597 34.55 18.1197 33.64 18.6897C33.21 22.8497 32.68 24.7097 31.22 27.0297C33.21 28.2297 36.5 27.8497 37.17 26.7697C37.18 26.4397 37.04 21.8797 36.75 20.7497Z" fill="#D28642"/>
<path d="M34.59 14.9397C35.98 12.9797 38.97 13.1897 40.14 15.4797C41.21 17.5697 40.32 22.1397 39.5 23.1197C38.08 24.8297 34.84 23.0897 34.35 21.8697C33.64 20.0997 33.42 16.5897 34.59 14.9397Z" fill="#D28642"/>
<path fill-rule="evenodd" clip-rule="evenodd" d="M35.39 15.53C35.5 15.87 34.9 20.48 34.78 20.43C34.34 20.26 33.74 19 32.93 19.09C32.67 19.12 32.32 19.31 32.29 18.77C32.09 15.34 31.96 15.52 32.54 15.18C33.8 14.42 35.2 14.92 35.39 15.53Z" fill="#01015B"/>
<path fill-rule="evenodd" clip-rule="evenodd" d="M31.69 13.5397C34.3 11.4497 38.68 10.5097 39.99 11.2397C41.94 12.3197 40.68 15.7097 39.97 15.9197C39.65 16.0197 39.34 15.7597 39.05 15.5797C37.7 14.6997 36.55 15.4697 35.56 15.7097C33.83 16.1197 29.47 15.3197 31.69 13.5397Z" fill="#01015B"/>
<path d="M32.19 18.59C32.16 19.15 32.35 19.71 32.71 20.13C33.73 21.32 34.63 19.61 34.36 18.58C34.04 17.35 32.26 17.08 32.19 18.59Z" fill="#D28642"/>
<path d="M52.0725 17.9883H54.3405L55.0245 16.0083H58.0005L58.6845 17.9883H60.9525L57.9045 9.58828H55.1205L52.0725 17.9883ZM55.6485 14.2083L56.5125 11.7363L57.3765 14.2083H55.6485Z" fill="black"/>
<path d="M84.49 56.85L79.62 51.98L69.23 62.36L74.11 67.23L84.49 56.85Z" fill="#FFE700"/>
<path d="M69.23 62.3604L68.8 65.2703L71.2 67.6703L74.1 67.2304H74.11L69.23 62.3604Z" fill="#FFEFEC"/>
<path d="M85.7 55.6301L88.05 53.2801C88.48 52.8501 88.47 52.1301 88.02 51.6801L84.77 48.4301C84.32 47.9801 83.61 47.9701 83.17 48.4001L80.82 50.7501L85.7 55.6301Z" fill="#FFC19D"/>
<path d="M68.37 68.09L71.2 67.67L68.8 65.27L68.37 68.09Z" fill="#1E1E1E"/>
<path d="M85.7046 55.6258L80.8327 50.7539L79.6165 51.9701L84.4884 56.842L85.7046 55.6258Z" fill="#EFEFEF"/>
<path d="M72.0773 65.2002L81.2413 56.0361L80.4281 55.223L71.2641 64.387L72.0773 65.2002Z" fill="#1E1E1E"/>
<path d="M60.69 53.9802C61.5 53.9002 62.32 53.9702 63.11 54.1602C63.03 53.5602 62.97 52.9602 62.9 52.3902C62.67 50.4902 58.27 50.6602 57.57 48.8802C57.19 47.9002 57.43 46.7902 57.24 45.7602C57.05 44.7502 56.47 44.0802 55.77 43.3902C55.24 42.8802 54.84 42.0602 54.69 41.3402C54.56 40.7702 54.58 40.1802 54.74 39.6202C55.09 38.4702 56.09 37.5402 57.26 37.2902C58.43 37.0402 59.72 37.4802 60.5 38.3902C60.9 38.8502 61.18 39.4402 61.7 39.7602C62.38 40.1802 63.25 40.0302 64.04 40.1602C65.24 40.3602 66.29 41.2802 66.65 42.4502C67.38 44.8202 65.39 47.3802 66.05 49.7602C66.35 50.8502 67.17 51.7102 68 52.4602C68.72 53.1102 69.48 53.7502 70.04 54.5402C71.27 52.6502 71.99 50.4102 71.99 47.9902C71.96 41.3502 66.61 35.9902 60.02 35.9902C53.46 35.9902 47.99 41.3802 47.99 47.9902C47.99 52.4502 50.42 56.3402 54.06 58.4102C55.51 56.0302 57.95 54.2602 60.69 53.9802Z" fill="#AACCF4"/>
<path d="M64.45 59.1303C63.7 58.1403 63.36 56.1403 63.11 54.1603C62.32 53.9703 61.5 53.9003 60.69 53.9803C57.95 54.2603 55.51 56.0303 54.06 58.4103C55.82 59.4103 57.85 59.9903 60.03 59.9903C61.6 59.9903 63.09 59.6803 64.45 59.1303Z" fill="#FF2D2D"/>
<path d="M68.01 52.46C67.18 51.7 66.36 50.85 66.06 49.76C65.39 47.37 67.39 44.81 66.66 42.45C66.3 41.28 65.25 40.36 64.05 40.16C63.26 40.03 62.39 40.18 61.71 39.76C61.19 39.44 60.91 38.85 60.51 38.39C59.73 37.48 58.44 37.04 57.27 37.29C56.1 37.54 55.1 38.47 54.75 39.62C54.58 40.18 54.57 40.77 54.7 41.34C54.86 42.05 55.25 42.87 55.78 43.39C56.49 44.08 57.07 44.75 57.25 45.76C57.44 46.79 57.2 47.9 57.58 48.88C58.27 50.67 62.68 50.49 62.91 52.39C62.98 52.96 63.05 53.56 63.12 54.16C64.94 54.6 66.62 55.7 67.68 57.22C68.6 56.45 69.4 55.55 70.06 54.54C69.49 53.75 68.73 53.12 68.01 52.46Z" fill="#01015B"/>
<path d="M63.11 54.1602C63.36 56.1502 63.7 58.1502 64.45 59.1302C65.63 58.6602 66.71 58.0202 67.67 57.2202C66.61 55.7002 64.94 54.6002 63.11 54.1602Z" fill="#01015B"/>
<path d="M56.42 49.7304C56.03 49.0904 55.88 48.3304 55.74 47.5904C55.55 46.5704 55.36 45.5404 55.45 44.5004C55.54 43.4704 55.93 42.4204 56.73 41.7604C57.69 40.9604 59.07 40.8704 60.28 41.1704C61.33 41.4304 62.37 42.0104 62.85 42.9804C63.12 43.5104 63.2 44.1004 63.28 44.6904C63.38 45.4504 63.49 46.2304 63.32 46.9804C63.13 47.8104 62.62 48.5404 62 49.1104C61.37 49.6804 60.63 50.1004 59.89 50.5004C59.46 50.7304 59.01 50.9504 58.53 51.0204C57.54 51.1504 56.89 50.5104 56.42 49.7304Z" fill="#0067E1"/>
<path fill-rule="evenodd" clip-rule="evenodd" d="M60.03 43.0302C60.55 43.9702 60.49 45.2202 61.24 45.9902C61.85 46.6102 62.93 46.6902 63.62 46.1602C64.15 45.7602 64.42 45.0702 64.4 44.4002C64.38 43.7302 64.09 43.0902 63.68 42.5702C63.27 42.0502 62.73 41.6402 62.17 41.2902C61.31 40.7502 60.35 40.3302 59.34 40.2002C58.7 40.1202 58.04 40.1702 57.42 40.3602C56.95 40.5102 56.06 40.8502 55.98 41.4302C55.9 42.0002 56.4 42.0602 56.79 41.9202C57.38 41.7002 57.91 41.6002 58.53 41.7902C59.15 41.9902 59.7 42.4402 60.03 43.0302Z" fill="#01015B"/>
<path d="M62.64 45.6501C62.82 45.5701 63.01 45.4901 63.22 45.4801C63.42 45.4701 63.63 45.5301 63.77 45.6701C63.96 45.8601 63.99 46.1701 63.94 46.4401C63.83 47.1201 63.29 47.6501 62.58 47.5701C62.04 47.5101 61.8 47.0501 61.85 46.5301C61.9 46.0901 62.27 45.8201 62.64 45.6501Z" fill="#0067E1"/>
<path d="M58.41 50.0103C58.74 51.3303 58.78 52.7203 58.52 54.0603C58.44 54.4703 58.34 54.9503 58.61 55.2703C58.87 55.5803 59.33 55.5803 59.73 55.5603C60.4 55.5203 61.08 55.4803 61.7 55.2403C62.32 54.9903 62.95 54.8103 63.11 54.1603C63.02 53.4203 62.94 52.6303 62.85 52.2103C62.54 51.1903 62.23 50.1703 61.92 49.1503C61.83 48.8503 61.73 48.5403 61.5 48.3203C61.12 47.9603 60.49 48.0103 60.05 48.3003C59.61 48.5803 59.32 49.0403 59.04 49.4803L58.41 50.0103Z" fill="#0067E1"/>
<path d="M11.13 3.99023L4 8.11023V16.3402L10.75 27.9902H11.51L18.26 16.3402V8.11023L11.13 3.99023Z" fill="#E0000F"/>
<path d="M13.17 11.05H15.87V9.49L11.13 6.75L6.39001 9.49V14.96L11.13 17.7L15.87 14.96V13.4H13.17V11.05Z" fill="white"/>
<path d="M13.17 13.4001V11.0501L11.13 9.87012L9.09003 11.0501V13.4001L11.13 14.5801L13.17 13.4001Z" fill="#000090"/>
</g>
<defs>
<clipPath id="clip0_2147_30548">
<rect width="92" height="72" fill="white"/>
</clipPath>
</defs>
</svg>
