<svg width="72" height="55" viewBox="0 0 72 55" fill="none" xmlns="http://www.w3.org/2000/svg">
<mask id="mask0_2310_29016" style="mask-type:alpha" maskUnits="userSpaceOnUse" x="59" y="12" width="13" height="31">
<path fill-rule="evenodd" clip-rule="evenodd" d="M69.0553 12.854C66.5376 12.854 65.6027 13.3557 64.0918 15.1478L59.5075 20.712L60.601 22.0384C61.573 23.16 62.2637 24.2433 62.6744 25.3098L70.9981 15.1478C72.5079 13.2117 72.437 12.854 69.9181 12.854H69.0553ZM60.601 33.2084L59.5075 34.5348L64.0918 40.099C65.6027 41.8911 66.5376 42.3928 69.0553 42.3928H69.9181C72.437 42.3928 72.5079 42.0351 70.9981 40.099L62.6744 29.9358C62.2638 31.0035 61.573 32.0857 60.601 33.2084Z" fill="white"/>
</mask>
<g mask="url(#mask0_2310_29016)">
<path fill-rule="evenodd" clip-rule="evenodd" d="M69.0553 12.854C66.5376 12.854 65.6027 13.3557 64.0918 15.1478L59.5075 20.712L60.601 22.0384C61.573 23.16 62.2637 24.2433 62.6744 25.3098L70.9981 15.1478C72.5079 13.2117 72.437 12.854 69.9181 12.854H69.0553ZM60.601 33.2084L59.5075 34.5348L64.0918 40.099C65.6027 41.8911 66.5376 42.3928 69.0553 42.3928H69.9181C72.437 42.3928 72.5079 42.0351 70.9981 40.099L62.6744 29.9358C62.2638 31.0035 61.573 32.0857 60.601 33.2084Z" fill="white"/>
</g>
<mask id="mask1_2310_29016" style="mask-type:alpha" maskUnits="userSpaceOnUse" x="44" y="12" width="18" height="31">
<path fill-rule="evenodd" clip-rule="evenodd" d="M46.7959 12.8545C44.2782 12.8545 44.2062 13.2122 45.717 15.1483L54.349 25.6883C54.997 26.4049 55.357 27.0507 55.357 27.6244C55.357 28.1261 54.997 28.7719 54.349 29.5605L45.717 40.1005C44.2062 42.0366 44.2782 42.3943 46.7959 42.3943H47.6599C50.1765 42.3943 51.1124 41.8926 52.6233 40.1005L59.2416 32.0692C62.0473 28.8439 62.0473 26.4049 59.2416 23.1785L52.6233 15.1483C51.1124 13.3562 50.1765 12.8545 47.6599 12.8545H46.7959Z" fill="white"/>
</mask>
<g mask="url(#mask1_2310_29016)">
<path fill-rule="evenodd" clip-rule="evenodd" d="M46.7959 12.8545C44.2782 12.8545 44.2062 13.2122 45.717 15.1483L54.349 25.6883C54.997 26.4049 55.357 27.0507 55.357 27.6244C55.357 28.1261 54.997 28.7719 54.349 29.5605L45.717 40.1005C44.2062 42.0366 44.2782 42.3943 46.7959 42.3943H47.6599C50.1765 42.3943 51.1124 41.8926 52.6233 40.1005L59.2416 32.0692C62.0473 28.8439 62.0473 26.4049 59.2416 23.1785L52.6233 15.1483C51.1124 13.3562 50.1765 12.8545 47.6599 12.8545H46.7959Z" fill="white"/>
</g>
<mask id="mask2_2310_29016" style="mask-type:alpha" maskUnits="userSpaceOnUse" x="0" y="12" width="28" height="43">
<path fill-rule="evenodd" clip-rule="evenodd" d="M0 24.8872V52.2513C0 53.3617 0.899987 54.2617 2.00922 54.2617H4.07469C5.18505 54.2617 6.08504 53.3617 6.08504 52.2513V39.1588C7.69601 41.7147 10.6198 43.0231 14.8554 43.0231C23.1477 43.0231 27.2651 38.6829 27.2651 30.0599V24.8872C27.2651 16.2654 22.8495 12.2222 13.6022 12.2222C5.0118 12.2222 0 16.3846 0 24.8872ZM6.08546 30.1808V25.0666C6.08546 20.0717 7.87531 17.9297 13.6622 17.9297C19.5684 17.9297 21.1197 20.0717 21.1197 25.0666V30.1808C21.1197 35.1746 19.4491 37.2558 13.6622 37.2558C7.75606 37.2558 6.08546 35.115 6.08546 30.1808Z" fill="white"/>
</mask>
<g mask="url(#mask2_2310_29016)">
<path fill-rule="evenodd" clip-rule="evenodd" d="M0 24.8872V52.2513C0 53.3617 0.899987 54.2617 2.00922 54.2617H4.07469C5.18505 54.2617 6.08504 53.3617 6.08504 52.2513V39.1588C7.69601 41.7147 10.6198 43.0231 14.8554 43.0231C23.1477 43.0231 27.2651 38.6829 27.2651 30.0599V24.8872C27.2651 16.2654 22.8495 12.2222 13.6022 12.2222C5.0118 12.2222 0 16.3846 0 24.8872ZM6.08546 30.1808V25.0666C6.08546 20.0717 7.87531 17.9297 13.6622 17.9297C19.5684 17.9297 21.1197 20.0717 21.1197 25.0666V30.1808C21.1197 35.1746 19.4491 37.2558 13.6622 37.2558C7.75606 37.2558 6.08546 35.115 6.08546 30.1808Z" fill="white"/>
</g>
<mask id="mask3_2310_29016" style="mask-type:alpha" maskUnits="userSpaceOnUse" x="32" y="0" width="8" height="43">
<path fill-rule="evenodd" clip-rule="evenodd" d="M33.4229 1.11486C31.9311 2.54246 31.9311 4.92068 33.4229 6.40678C34.9146 7.83326 37.3007 7.83326 38.7317 6.40678C40.2234 4.92068 40.2234 2.54246 38.7317 1.11486C38.0162 0.37237 37.0622 0 36.1003 0C35.1385 0 34.1687 0.37237 33.4229 1.11486ZM35.0151 12.8281C33.9037 12.8281 33.0037 13.727 33.0037 14.8385V40.3115C33.0037 41.4207 33.9037 42.3207 35.0151 42.3207H37.1391C38.2495 42.3207 39.1495 41.4207 39.1495 40.3115V14.8284C39.1495 13.7236 38.254 12.8281 37.1481 12.8281H35.0151Z" fill="white"/>
</mask>
<g mask="url(#mask3_2310_29016)">
<path fill-rule="evenodd" clip-rule="evenodd" d="M33.4229 1.11486C31.9311 2.54246 31.9311 4.92068 33.4229 6.40678C34.9146 7.83326 37.3007 7.83326 38.7317 6.40678C40.2234 4.92068 40.2234 2.54246 38.7317 1.11486C38.0162 0.37237 37.0622 0 36.1003 0C35.1385 0 34.1687 0.37237 33.4229 1.11486ZM35.0151 12.8281C33.9037 12.8281 33.0037 13.727 33.0037 14.8385V40.3115C33.0037 41.4207 33.9037 42.3207 35.0151 42.3207H37.1391C38.2495 42.3207 39.1495 41.4207 39.1495 40.3115V14.8284C39.1495 13.7236 38.254 12.8281 37.1481 12.8281H35.0151Z" fill="white"/>
</g>
</svg>
