<?xml version="1.0" encoding="UTF-8"?>
<svg width="707px" height="397px" viewBox="0 0 707 397" version="1.1" xmlns="http://www.w3.org/2000/svg" xmlns:xlink="http://www.w3.org/1999/xlink">
    <title>illustration-bas-de-page</title>
    <defs>
        <linearGradient x1="8.55505176e-06%" y1="49.9998326%" x2="99.9998546%" y2="49.9998326%" id="linearGradient-1">
            <stop stop-color="#E7F5EF" offset="0%"></stop>
            <stop stop-color="#ABB8DF" offset="80.78%"></stop>
            <stop stop-color="#ABB8DF" offset="100%"></stop>
        </linearGradient>
    </defs>
    <g id="illustration-bas-de-page" stroke="none" stroke-width="1" fill="none" fill-rule="evenodd">
        <rect id="Rectangle" fill="url(#linearGradient-1)" fill-rule="nonzero" x="-0.394871795" y="2.84217094e-13" width="707.334359" height="397.437477"></rect>
        <path d="M522.236205,191.808176 C523.57959,192.068267 525.292103,192.116657 525.951692,190.925076 C526.581026,189.793982 525.752,188.426991 524.935077,187.416869 C518.066872,178.888298 494.817846,158.056809 490.007077,159.121368 C485.523077,160.107295 484.119179,162.998541 486.715179,166.748693 C491.991897,174.36997 516.868718,190.77386 522.236205,191.808176" id="Path" fill="#0066E3" fill-rule="nonzero"></path>
        <path d="M525.122667,197.064438 C527.034872,199.090729 529.733744,200.566596 532.511282,200.360942 C534.744205,200.191581 536.783487,198.963708 538.387077,197.403161 C539.082974,196.725714 539.748615,195.68535 539.246359,194.850638 C538.798564,194.112705 537.757744,194.106657 536.928718,193.852614 C535.040718,193.271945 534.096718,191.233556 532.759385,189.787933 C531.276821,188.185046 529.122564,187.223313 526.938051,187.199119 C525.207385,187.180973 521.352718,188.009635 521.056205,190.168997 C520.777846,192.171094 523.845846,195.715593 525.122667,197.064438" id="Path" fill="#0066E3" fill-rule="nonzero"></path>
        <path d="M524.820103,316.573313 L536.42041,310.960182 C538.350769,316.313222 540.190359,321.702553 541.921026,327.122128 C542.501949,328.948815 543.016308,331.144468 541.806051,332.632432 C540.256923,334.537751 536.293333,334.676869 535.064923,332.553799 C532.111897,327.454802 528.584,322.065471 524.820103,316.573313" id="Path" fill="#0066E3" fill-rule="nonzero"></path>
        <path d="M541.321949,343.03003 C539.676,341.517872 537.999795,339.975471 536.904513,338.03386 C535.827385,336.128541 534.514256,334.392584 534.738154,332.215076 C535.785026,332.686869 537.963487,332.632432 538.828821,331.876353 C539.512615,331.277538 541.079897,326.474924 541.914974,326.118055 C542.514051,325.864012 549.63641,331.834012 552.879897,331.31383 C556.123385,330.793647 559.130872,329.348024 562.247282,328.295562 C563.330462,327.932644 564.462051,327.606018 565.605744,327.702796 C566.749436,327.799574 567.911282,328.398389 568.383282,329.438754 C568.431692,329.541581 568.437744,329.63231 568.468,329.729088 L554.156718,343.302219 C553.357949,343.132857 552.565231,342.872766 551.790667,342.618723 C549.013128,341.699331 546.23559,340.773891 543.452,339.84845 C545.097949,342.727599 547.17959,345.352705 549.594051,347.626991 L547.996513,349.139149 C545.769641,347.106809 543.548821,345.068419 541.321949,343.03003" id="Path" fill="#00005C" fill-rule="nonzero"></path>
        <path d="M587.214872,239.338328 L596.043692,230.356109 C598.591282,235.328085 601.066256,240.34845 603.450462,245.411155 C604.285538,247.189453 605.108513,249.348815 604.182667,251.072675 C602.996615,253.280426 599.244821,254.078845 597.750154,252.106991 C594.603487,247.975775 591.015077,243.687295 587.214872,239.338328" id="Path" fill="#0066E3" fill-rule="nonzero"></path>
        <path d="M601.647179,259.601246 C599.946769,258.149574 598.222154,256.66766 597.054256,254.76234 C595.910564,252.899362 594.912103,250.842827 595.057333,248.659271 C596.122359,249.100821 597.925641,249.32462 598.760718,248.538298 C599.426359,247.915289 601.217538,243.372766 602.040513,242.979605 C602.627487,242.701368 609.562256,248.108845 612.781538,247.479787 C616.006872,246.844681 618.959897,245.290182 622.033949,244.134894 C623.111077,243.729635 624.224513,243.366717 625.368205,243.421155 C626.511897,243.481641 627.691897,244.038116 628.206256,245.060334 C628.254667,245.157112 628.272821,245.253891 628.303077,245.34462 L614.475897,259.413739 C613.671077,259.27462 612.872308,259.044772 612.091692,258.814924 C609.283897,257.986261 606.470051,257.163647 603.662256,256.341033 C605.411077,259.159696 607.583487,261.712219 610.076615,263.895775 L608.533538,265.468419 C606.234051,263.52076 603.940615,261.561003 601.647179,259.601246" id="Path" fill="#00005C" fill-rule="nonzero"></path>
        <path d="M467.895692,224.755076 C458.231795,224.670395 452.023179,223.490912 446.915897,215.8031 C440.392615,205.974073 439.333641,191.542036 452.561744,190.338359 C478.788,187.955198 512.088205,175.755106 541.092,184.688936 C563.554359,191.608571 584.818564,218.869757 589.502256,224.73693 C592.473436,228.456839 595.390154,232.231185 598.258462,236.041824 L591.087692,246.397082 C571.166872,230.241185 543.385436,218.518936 535.724513,205.423647 C535.736615,205.429696 490.321744,224.954681 467.895692,224.755076 Z" id="Path" fill="#00005C" fill-rule="nonzero"></path>
        <path d="M515.404308,271.329544 C516.729538,275.575684 517.625128,280.807751 514.575282,283.33003 C512.72359,284.860334 509.885538,284.799848 507.422667,283.850213 C504.959795,282.900578 502.775282,281.176717 500.645231,279.477052 C491.423077,272.146109 428.253744,241.860608 430.008615,216.547082 C430.795282,205.193799 458.552513,200.427477 468.930462,209.004438 C482.672923,220.369818 498.593846,233.344134 507.222974,248.907264 C512.287897,258.046748 512.342359,261.488419 515.404308,271.329544" id="Path" fill="#00005C" fill-rule="nonzero"></path>
        <path d="M493.783077,266.442249 C491.695385,252.917508 507.114051,247.903191 514.309026,259.927872 C519.979077,269.40003 529.170974,290.164985 535.670051,306.453951 C537.322051,310.603313 538.871179,314.788967 540.384,318.992766 L528.783692,324.605897 C514.145641,303.223982 495.919179,280.251277 493.783077,266.442249" id="Path" fill="#00005C" fill-rule="nonzero"></path>
        <path d="M472.875897,225.166383 C468.428205,228.499179 443.055179,258.512492 424.641128,214.375623 C410.105949,179.529453 432.34441,179.323799 441.457641,183.34614 C449.977846,187.108389 460.071385,176.765228 468.706564,180.702888 C495.652923,192.993708 478.642769,220.980729 472.875897,225.166383" id="Path" fill="#00005C" fill-rule="nonzero"></path>
        <path d="M479.744103,129.579848 C480.72441,131.279514 483.132821,137.182979 484.064718,138.906839 C489.178051,148.378997 489.843692,154.391337 494.957026,163.863495 C495.441128,164.758693 495.937333,165.738571 495.658974,166.706353 C495.223282,168.242705 492.954051,169.010881 491.132615,168.678207 C489.311179,168.339483 487.870974,167.226535 486.563897,166.125684 C476.694256,157.833009 473.257128,151.342827 467.895692,140.479483 L479.744103,129.579848 Z" id="Path" fill="#0066E3" fill-rule="nonzero"></path>
        <path d="M436.150667,103.280395 C437.488,103.002158 437.028103,107.677751 438.196,108.385441 C439.297333,109.044742 439.612,110.478267 439.751179,111.754529 C440.664923,120.131884 429.185641,129.597994 422.051179,128.424559 L411.57641,115.583313 C411.57641,115.577264 419.225231,106.764407 436.150667,103.280395 Z" id="Path" fill="#FF8D7E" fill-rule="nonzero"></path>
        <path d="M428.877026,119.496778 C432.01159,108.893526 442.552923,105.820821 453.48759,107.478146 C464.422256,109.129422 477.232821,118.819331 479.738051,129.585897 L467.889641,140.485532 C471.89559,150.780304 461.656821,153.036444 460.549436,156.526505 C458.286256,163.675988 459.920103,170.789179 459.920103,170.789179 C465.166564,174.81152 470.491692,180.104073 477.317538,186.461185 C453.626769,180.521429 415.915179,208.466109 421.101128,204.092948 C419.219179,195.999878 410.021231,159.653647 418.063385,129.682675 C418.238872,129.017325 422.045128,128.418511 422.045128,128.418511 C422.045128,128.418511 426.692513,126.882158 428.877026,119.496778 Z" id="Path" fill="#FF8D7E" fill-rule="nonzero"></path>
        <path d="M401.845949,126.071641 C403.146974,124.849818 410.251179,116.780942 411.57641,115.583313 L422.051179,128.424559 C421.415795,128.926596 417.809231,131.60614 417.173846,132.108176 C410.523487,137.322097 407.733846,139.959301 401.083487,145.173222 C398.590359,147.132979 396.115385,149.963739 392.769026,149.643161 C390.366667,149.419362 388.055077,147.749939 387.498359,145.324438 C387.014256,143.219514 387.698051,140.933131 388.878051,139.052006 C390.052,137.170881 391.685846,135.62848 393.301538,134.110274 C398.59641,129.120152 403.897333,124.13003 409.198256,119.139909" id="Path" fill="#0066E3" fill-rule="nonzero"></path>
        <path d="M390.033846,190.265775 C389.803897,192.195289 389.725231,193.356626 387.788821,193.217508 C386.288103,193.108632 384.732923,192.546109 384.624,191.046049 C383.849436,180.64845 386.923487,143.098541 387.837231,140.842401 C389.350051,137.128541 398.372513,135.531702 399.976103,140.963374 C401.597846,146.479726 392.714564,169.385897 390.608718,186.896687" id="Path" fill="#0066E3" fill-rule="nonzero"></path>
        <path d="M395.129026,191.554134 C396.883897,194.04617 398.638769,196.538207 400.38759,199.036292 C400.399692,199.701641 399.425436,199.943587 398.856615,199.604863 C398.287795,199.26614 397.967077,198.624985 397.495077,198.15924 C397.023077,197.693495 396.163795,197.445502 395.734154,197.959635 C395.304513,198.46772 395.685744,199.235897 396.066974,199.780274 C397.827897,202.302553 399.582769,204.824833 401.337641,207.347112 C400.024513,209.379453 397.125949,209.929878 394.838564,209.119362 C392.551179,208.308845 390.80841,206.445866 389.410564,204.467964 C387.468103,201.715836 386.015795,198.612888 385.150462,195.358723 C384.648205,193.477599 384.363795,191.384772 385.259385,189.660912 C387.564923,185.275653 393.271282,188.910881 395.129026,191.554134" id="Path" fill="#0066E3" fill-rule="nonzero"></path>
        <path d="M489.819487,74.271155 C490.261231,70.5028571 488.518462,66.5470517 485.426256,64.3393009 C482.340103,62.1315502 478.03159,61.7504863 474.606564,63.383617 C472.857744,64.2183283 471.290462,65.5369301 469.372205,65.8091185 C466.854872,66.1659878 464.500923,64.6235866 462.038051,63.9945289 C458.298359,63.0327964 453.185026,63.7767781 451.539077,67.2668389 C445.651179,79.7693617 448.58,90.0278419 436.35641,93.4997568 C397.779487,104.459878 433.24,135.32 443.260923,127.765258 C452.900615,120.500851 443.787385,117.180152 447.484718,106.92772 C449.536103,101.242006 465.578051,101.653313 469.856308,97.3829787 C472.204205,95.0361094 472.906154,91.5279027 474.769949,88.7878723 C476.591385,86.1143769 479.126872,84.9106991 482.055692,83.8279939 C484.240205,83.0174772 486.436821,81.1544985 487.792308,79.303617 C488.881538,77.8277508 489.607692,76.0857447 489.819487,74.271155" id="Path" fill="#7D4E5B" fill-rule="nonzero"></path>
        <path d="M463.333026,100.770213 C461.505538,104.478024 460.519179,108.597143 460.470769,112.728359 C460.458667,114.00462 460.440513,115.492584 459.429949,116.278906 C458.461744,117.028936 457.082051,116.74465 455.902051,116.430122 C453.929333,115.897842 451.908205,115.347416 450.201744,114.222371 C448.489231,113.091277 447.11559,111.26459 447.061128,109.220152 C447.018769,107.532584 447.859897,105.959939 448.676821,104.478024 C450.244103,101.641216 451.811385,98.8044073 453.378667,95.9675988 C453.838564,95.1389362 454.334769,94.2679331 455.145641,93.7779939 C456.513231,92.9553799 458.370974,93.5118541 459.508615,94.6248024 C460.646256,95.7437994 461.233231,97.2862006 461.789949,98.7802128 L463.333026,100.770213 Z" id="Path" fill="#0066E3" fill-rule="nonzero"></path>
        <path d="M472.161846,101.332736 C474.11641,99.9717933 475.508205,97.9757447 476.85159,96.0159878 C478.703282,93.3182979 480.554974,90.5722188 481.607897,87.4753191 C482.660821,84.3784195 482.830256,80.8460182 481.347692,77.9305775 C479.562564,74.4102736 475.665538,72.3839818 471.780615,71.7004863 C468.404,71.1077204 464.652205,71.458541 462.001744,73.6420973 C460.561538,74.8276292 459.569128,76.4486626 458.600923,78.0394529 C457.336205,80.1020365 456.053333,82.231155 455.599487,84.6022188 C455.091179,87.2333739 455.66,89.9855015 456.761333,92.4291489 C457.862667,94.8727964 459.48441,97.0442553 461.166667,99.1249848 C462.140923,100.328663 463.157538,101.53234 464.470667,102.354954 C467.078769,104.000182 469.813949,102.971915 472.161846,101.332736" id="Path" fill="#0066E3" fill-rule="nonzero"></path>
        <path d="M470.116513,77.3862006 C467.417641,79.4487842 466.013744,83.1384498 462.861026,84.3965653 C460.301333,85.4248328 457.063897,84.2695441 455.726564,81.8561398 C454.709949,80.0173556 454.794667,77.6825836 455.696308,75.7833131 C456.597949,73.8840426 458.243897,72.4021277 460.107692,71.4282979 C461.971487,70.4484195 464.047077,69.946383 466.128718,69.6439514 C469.329846,69.1782067 472.652,69.1842553 475.756308,70.109696 C477.716923,70.6964134 479.586769,71.6762918 481.135897,73.0251368 C482.303795,74.0473556 484.482256,76.1764742 483.98,77.9426748 C483.483795,79.6907295 481.958872,79.2310334 481.020923,78.31769 C479.592821,76.9325532 478.158667,75.9829179 476.113333,75.7409726 C474.001436,75.4869301 471.804821,76.0917933 470.116513,77.3862006" id="Path" fill="#7D4E5B" fill-rule="nonzero"></path>
        <path d="M457.269641,81.3178116 C456.779487,80.9186018 456.240923,80.5435866 455.629744,80.356079 C455.024615,80.1625228 454.322667,80.1746201 453.778051,80.5012462 C453.039795,80.9427964 452.713026,81.8440426 452.64041,82.7029483 C452.458872,84.86231 453.687282,86.9006991 455.926256,87.2273252 C457.620615,87.4753191 458.740103,86.2655927 458.988205,84.6445593 C459.2,83.2594225 458.280205,82.1464742 457.269641,81.3178116" id="Path" fill="#0066E3" fill-rule="nonzero"></path>
        <path d="M596.999795,41.2214286 L583.112103,28.6886626 C583.112103,28.6886626 590.222359,18.8293921 594.234359,14.6316413 C594.234359,14.6316413 606.330872,23.1481155 609.592513,28.6523708 L596.999795,41.2214286 Z" id="Path" fill="#57FFE1"></path>
        <path d="M364.110154,56.5002736 L372.327795,55.8046809 C372.327795,55.8046809 370.942051,47.7116109 370.010154,46.4595441 C369.078256,45.2074772 361.792513,47.1551368 361.792513,47.1551368 L364.110154,56.5002736 Z" id="Path" fill="#00D1FF"></path>
        <path d="M336.824923,170.928298 L352.261744,169.615745 C352.261744,169.615745 349.659692,154.409483 347.910872,152.056565 C346.162051,149.703647 332.474051,153.369119 332.474051,153.369119 L336.824923,170.928298 Z" id="Path" fill="#00D1FF"></path>
        <path d="M499.677026,61.7323404 L507.894667,61.0367477 C507.894667,61.0367477 506.508923,52.9436778 505.577026,51.6916109 C504.645128,50.4395441 497.359385,52.3872036 497.359385,52.3872036 L499.677026,61.7323404 Z" id="Path" fill="#00D1FF"></path>
        <path d="M10.779079,392.918971 L18.05272,390.971312 C20.1101559,390.330157 19.4263611,388.612345 19.1722072,386.47113 L18.6760021,382.249184 C18.5791816,381.408424 17.7441046,380.857999 16.9332329,381.099944 L8.96369439,383.464959 C8.31015593,383.658516 7.90472003,384.299671 8.00154055,384.971069 L9.01815593,391.81812 C9.14523285,392.646783 9.98030978,393.173014 10.779079,392.918971 Z" id="Path" fill="#F92385"></path>
        <path d="M342.035077,137.303951 L347.898769,132.586018 C349.520513,131.16459 348.201333,129.870182 347.106051,128.019301 L344.945744,124.35383 C344.516103,123.621945 343.529744,123.458632 342.888308,124.009058 L336.552615,129.39234 C336.038256,129.833891 335.923282,130.583921 336.280308,131.158541 L339.977641,137.007568 C340.431487,137.70921 341.405744,137.854377 342.035077,137.303951 Z" id="Path" fill="#F92385"></path>
        <path d="M516.251487,103.770334 L509.782667,100.800456 C508.366667,100.147204 506.68441,100.594802 505.776718,101.871064 L502.424308,106.588997 C501.970462,107.230152 502.20041,108.12535 502.90841,108.464073 L511.011077,112.329149 C511.579897,112.601337 512.263692,112.41383 512.608615,111.887599 L516.777949,105.627264 C517.20759,104.974012 516.959487,104.090912 516.251487,103.770334 Z" id="Path" fill="#00D1FF"></path>
        <polygon id="Path" fill="#57FFE1" fill-rule="nonzero" points="249.184205 242.659027 257.353436 254.816778 244.948308 263.29696 236.779077 251.13921"></polygon>
        <polygon id="Path" fill="#57FFE1" fill-rule="nonzero" points="518.2 21.956535 526.369231 34.1142857 513.964103 42.5944681 505.794872 30.4367173"></polygon>
        <polygon id="Path" fill="#57FFE1" fill-rule="nonzero" points="82.308 300.641216 90.4832821 312.798967 78.0781538 321.279149 69.9028718 309.121398"></polygon>
        <path d="M369.768103,107.937842 C369.417128,107.962036 369.102462,108.185836 368.963282,108.524559 C368.352103,110.06696 367.529128,112.819088 367.093436,114.319149 C366.936103,114.869574 367.299179,115.432097 367.868,115.504681 L373.078154,116.188176 C373.138667,116.194225 373.205231,116.200274 373.265744,116.194225 C373.640923,116.17003 373.973744,115.915988 374.094769,115.540973 L375.698359,110.381489 C375.855692,109.867356 375.553128,109.329027 375.032718,109.195957 L370.058564,107.968085 C369.961744,107.937842 369.858872,107.931793 369.768103,107.937842" id="Path" fill="#E0000F" fill-rule="nonzero"></path>
        <path d="M34.526014,348.301041 C34.526014,348.301041 33.0319231,358.507476 30.4187762,362.50419 L18.1817483,361.264664 C16.3912587,361.08327 15.120979,359.438632 15.4113287,357.660971 C16.0525175,353.700535 17.4316783,347.22477 19.9117483,344.455489 L34.526014,348.301041 Z" id="Path" fill="#052E93"></path>
        <path d="M63.7303497,332.537904 C63.7303497,332.537904 72.1383916,339.956918 74.2313287,344.715487 L65.8293357,355.115408 C64.6013986,356.633071 62.3451399,356.814465 60.8994406,355.496336 C57.6693007,352.5638 52.5881818,347.454536 51.5417133,343.554565 L63.7303497,332.537904 Z" id="Path" fill="#00D0FF"></path>
        <path d="M579.287343,155.634781 C579.287343,155.634781 579.952727,147.453912 577.950524,142 L568,142.99162 L568.145175,153.25852 C568.157273,154.328744 569.010175,155.199435 570.07479,155.247807 L579.287343,155.634781 Z" id="Path" fill="#0067E2" fill-rule="nonzero"></path>
        <path d="M233.312692,305.401365 L221.650315,299.657222 C218.383881,297.879561 220.11993,295.200977 221.263182,291.657748 L223.519441,284.668033 C223.967063,283.277346 225.563986,282.630374 226.858462,283.307578 L239.567308,289.99497 C240.601678,290.539152 241.079545,291.766584 240.686364,292.867041 L236.657762,304.119514 C236.167797,305.492062 234.582972,306.096709 233.312692,305.401365" id="Path" fill="#00D0FF" fill-rule="nonzero"></path>
        <polygon id="Path" fill="#D48743" fill-rule="nonzero" points="321.911678 289.227068 298.859126 281.511778 308.343881 266.220265 326.067308 273.651372"></polygon>
        <path d="M700.545769,40.30011 L706.812483,13.7682172 C707.356888,11.4584672 706.062413,9.11848486 703.824301,8.34453721 C697.733007,6.25245998 685.883112,2.30411768 677.698881,0.302737441 C676.138252,-0.0781899164 674.547378,0.792501187 674.021119,2.31016415 C671.807203,8.7194181 666.375245,25.3895248 665.994161,35.7410746 C665.93972,37.2889699 667.028531,38.6433783 668.552867,38.9215157 L695.222692,43.7768279 C697.642273,44.2182199 699.983217,42.688464 700.545769,40.30011" id="Path" fill="#00D0FF" fill-rule="nonzero"></path>
        <path d="M122.005944,282.575956 L112.345769,276.142516 C110.101608,274.649039 109.242657,271.770921 110.289126,269.29187 L113.918497,260.730074 C114.58993,259.1459 116.525594,258.553346 117.971294,259.484502 L129.98451,267.230025 C131.145909,267.979787 131.575385,269.461171 131.000734,270.71279 L126.058741,281.427127 C125.344965,282.975023 123.421399,283.519205 122.005944,282.575956" id="Path" fill="#7672FF" fill-rule="nonzero"></path>
        <polygon id="Path" fill="#7672FF" fill-rule="nonzero" points="45.9222378 266.38352 60.3368881 263.620285 58.7278671 249.175278 41.9601748 250.850149"></polygon>
        <path d="M63.6698601,287.35871 L62.1273776,273.20998 C62.1273776,273.20998 76.3000699,272.877424 78.7377972,274.032299 C81.1694755,275.193221 80.2802797,288.18103 80.2802797,288.18103 L63.6698601,287.35871 Z" id="Path" fill="#C9E0FF" fill-rule="nonzero"></path>
        <path d="M37.0847203,324.115177 C37.0847203,324.115177 41.9904196,313.346421 41.9603141,307.862277 L29.3844056,301.453023 C27.5455245,300.51582 25.2953147,301.313954 24.4726573,303.206498 C22.6277273,307.420885 19.9298951,314.531529 20.6013287,318.739869 L37.0847203,324.115177 Z" id="Path" fill="#D48743" fill-rule="nonzero"></path>
        <path d="M338.207552,236.006075 L344.087133,248.963651 C344.087133,248.963651 330.725,253.704081 328.051364,253.365479 C325.377727,253.02083 322.171783,240.407902 322.171783,240.407902 L338.207552,236.006075 Z" id="Path" fill="#C9E0FF" fill-rule="nonzero"></path>
        <path d="M375.045664,228.012647 C375.045664,228.012647 373.74514,239.77907 375.493287,244.972984 L389.442168,247.137619 C391.480664,247.452035 393.367937,245.994837 393.561503,243.939038 C393.997028,239.355817 394.341818,231.761456 392.388007,227.976368 L375.045664,228.012647 Z" id="Path" fill="#D48743" fill-rule="nonzero"></path>
        <polygon id="Path" fill="#7672FF" fill-rule="nonzero" points="126.724126 324.8468 116.150559 325.687258 113.797517 313.038052 127.304825 311.641318"></polygon>
        <path d="M568.45014,81.823076 C567.663776,75.9156787 565.770455,65.4129673 561.651119,58 L541,63.3390295 L544.665664,84.9309595 C545.046748,87.1802449 547.121538,88.7402331 549.389895,88.4862815 L564.560664,86.7872246 C567.016538,86.5151336 568.776783,84.2718947 568.45014,81.823076" id="Path" fill="#7672FF" fill-rule="nonzero"></path>
        <path d="M391.250804,66.8561886 C387.464161,67.7933908 378.638741,70.1031409 371.029161,72.9873051 C370.05528,73.3561396 369.541119,74.4142711 369.855664,75.4058915 L376.461119,96.2057345 C376.79986,97.275959 377.973357,97.8382804 379.025874,97.4331671 L397.475175,90.2922908 C398.394615,89.9355493 398.902727,88.9499754 398.660769,87.9885873 L393.609895,68.2650152 C393.343741,67.225023 392.291224,66.5961906 391.250804,66.8561886" id="Path" fill="#C9E0FF" fill-rule="nonzero"></path>
        <path d="M596.842514,110.730453 L580.988213,118.209932 C579.639297,118.844811 578.084716,118.663417 577.631045,117.822958 C575.774017,114.358333 571.569996,106.189557 572.035765,103.952365 C572.501535,101.715173 584.623633,97.1319514 589.910416,95.2333611 C591.247234,94.7556903 592.614297,95.0338277 592.959087,95.8621936 L598.264017,108.553726 C598.566465,109.273255 597.967619,110.198364 596.842514,110.730453" id="Path" fill="#F92385" fill-rule="nonzero"></path>
        <path d="M468.568497,45.191701 C470.534406,42.5131165 473.958112,37.5610609 475.482448,33.6792297 C475.881678,32.6513305 475.579231,31.4843626 474.744476,30.7648331 L464.920979,22.3058272 C463.293811,20.9030471 460.81979,21.1630451 459.513217,22.8681485 C456.603671,26.6774221 452.121399,33.1955124 451.76451,37.6154791 L465.084301,45.8689052 C466.23965,46.5884346 467.757937,46.2921578 468.568497,45.191701" id="Path" fill="#0067E2" fill-rule="nonzero"></path>
        <path d="M646.556115,25.7996206 C643.573982,24.3303294 638.105731,21.821046 634.010591,20.9926802 C632.927829,20.7750074 631.832968,21.2768641 631.270416,22.2261592 L624.646815,33.3637496 C623.545906,35.2139682 624.229437,37.6023222 626.140906,38.5878962 C630.399367,40.7888098 637.597619,44.0720409 642.013353,43.6548347 L647.832444,29.1070375 C648.334507,27.8433261 647.784052,26.4042672 646.556115,25.7996206" id="Path" fill="#0067E2" fill-rule="nonzero"></path>
        <path d="M636.725242,129.559304 L620.622934,134.928566 L613.225067,118.663572 C612.620172,117.327303 613.279508,115.755222 614.664718,115.259412 L628.680137,110.210613 C630.718634,109.47899 632.93255,110.724562 633.355976,112.846872 L636.725242,129.559304 Z" id="Path" fill="#FFED33" fill-rule="nonzero"></path>
        <path d="M344.915839,88.0611449 C340.826748,87.6499852 333.89465,87.2388255 327.833601,88.3030035 C326.127797,88.5992803 324.905909,90.1048504 324.942203,91.8341396 L325.172063,102.941498 C325.208357,104.76753 326.635909,106.254961 328.456643,106.369844 L342.883392,107.294953 C344.722273,107.409836 346.331294,106.073567 346.555105,104.247534 L348.049196,91.9732084 C348.285105,90.0262463 346.875699,88.2546318 344.915839,88.0611449" id="Path" fill="#FFED33" fill-rule="nonzero"></path>
        <path d="M273.556364,308.781339 L286.283357,306.429264 C288.757378,305.975779 291.122517,307.632511 291.533846,310.111562 L294.10465,325.53005 C294.485734,327.815614 293.064231,330.016528 295.132972,329.472346 L284.220664,332.362557 C277.518427,334.140218 275.062552,332.719298 274.415315,330.324898 C273.429336,326.648646 271.874755,320.946829 270.041923,314.416646 C269.334196,311.87713 270.955315,309.265057 273.556364,308.781339" id="Path" fill="#F92385" fill-rule="nonzero"></path>
        <path d="M604.446084,60.4469347 L598.977832,71.0222037 C598.245909,72.4310303 596.425175,72.8482364 595.154895,71.8928948 L586.516993,65.3748045 C585.464476,64.5766709 585.186224,63.1134262 585.875804,61.9887835 L590.811748,53.9590767 C591.477133,52.8707128 592.844196,52.4414137 594.017692,52.9493168 L603.187902,56.9278915 C604.548916,57.5083522 605.129615,59.1288051 604.446084,60.4469347" id="Path" fill="#E0000F" fill-rule="nonzero"></path>
        <path d="M423.019895,59.8241487 C422.675105,61.6380885 420.787832,62.7083129 419.051783,62.085527 L408.387483,58.2520675 C405.852972,57.3390511 404.322587,54.7572102 404.746014,52.0967651 L406.167517,43.1903207 C406.463916,41.3461486 408.34514,40.2154595 410.111434,40.8261525 L423.177168,45.3065838 C424.592622,45.7903011 425.433427,47.2414529 425.149126,48.7107442 L423.019895,59.8241487 Z" id="Path" fill="#E0000F" fill-rule="nonzero"></path>
        <path d="M295.925385,236.513978 L289.882483,248.19575 C289.077972,249.755738 287.063671,250.209223 285.660315,249.157138 L276.11507,241.955797 C274.947622,241.07906 274.645175,239.458607 275.407343,238.213035 L280.863497,229.336823 C281.601469,228.133576 283.113706,227.661952 284.402133,228.218227 L294.534126,232.614007 C296.040315,233.273072 296.681503,235.062826 295.925385,236.513978" id="Path" fill="#FFED33" fill-rule="nonzero"></path>
        <path d="M515.610136,129.578174 L524.127059,120.720102 C525.996185,118.779186 528.978318,118.440584 531.234577,119.909875 L539.606325,125.369834 C540.743528,126.113549 540.931045,127.697723 540.011605,128.689344 L529.431989,140.020421 C528.687968,140.812508 527.478178,140.939484 526.582933,140.322744 L515.930731,132.885591 C514.835871,132.111644 514.678598,130.545609 515.610136,129.578174" id="Path" fill="#00D0FF" fill-rule="nonzero"></path>
        <path d="M341.092902,215.478323 C341.092902,215.478323 328.075559,215.968086 322.510524,213.640197 L321.246294,198.173337 C321.058776,195.911959 322.812972,193.95895 325.081329,193.904532 C330.144301,193.789649 338.51,194.013368 342.514406,196.456141 L341.092902,215.478323 Z" id="Path" fill="#052E93"></path>
        <path d="M566.513112,1.08289476 C562.067133,2.20149097 553.054196,4.60798444 545.196608,7.57679924 C544.077552,8.00005186 543.484755,9.22143799 543.847692,10.3581736 L550.797937,32.2463805 C551.306049,33.836601 553.048147,34.6770598 554.608776,34.0724132 L572.767727,27.0403733 C574.503776,26.3692155 575.45951,24.506904 574.99979,22.7111036 L569.991259,3.1568326 C569.598077,1.6270767 568.043497,0.701967405 566.513112,1.08289476" id="Path" fill="#C9E0FF" fill-rule="nonzero"></path>
        <path d="M669.206154,114.339086 C670.893811,111.424689 674.238881,105.438688 676.700804,99.7791959 C677.051643,98.975016 676.712902,98.0378137 675.926538,97.6447935 L660.822308,90.0988039 C659.721399,89.5485755 658.390629,90.0383392 657.906713,91.1690284 L652.311434,104.338231 C651.779126,105.595896 652.269091,107.053095 653.454685,107.730299 L666.332902,115.106987 C667.337028,115.693494 668.619406,115.348846 669.206154,114.339086" id="Path" fill="#C9E0FF" fill-rule="nonzero"></path>
        <path d="M405.471888,283.4406 C407.086958,282.26154 410.335245,279.818767 413.020979,277.339716 C413.402063,276.989021 413.444406,276.396468 413.111713,275.997401 L406.73007,268.288157 C406.264301,267.725835 405.423497,267.671417 404.891189,268.173274 L398.703112,273.977881 C398.110315,274.534156 398.031678,275.441126 398.509545,276.094144 L403.723741,283.180602 C404.13507,283.730831 404.915385,283.85176 405.471888,283.4406" id="Path" fill="#C9E0FF" fill-rule="nonzero"></path>
        <path d="M676.368112,58.5725302 L665.498147,63.2041232 C664.572657,63.5971435 664.191573,64.6976003 664.669441,65.5803843 C666.641399,69.196171 671.353531,77.6068052 673.186364,78.8947024 C675.013147,80.1825997 682.477552,75.8412371 685.659301,73.8761356 C686.463811,73.3803254 686.705769,72.3221939 686.203706,71.5240604 L678.473147,59.2255485 C678.031573,58.5241585 677.136329,58.2399746 676.368112,58.5725302" id="Path" fill="#F92385" fill-rule="nonzero"></path>
        <path d="M188.538357,318.842659 C189.004126,319.562188 189.481993,320.348229 189.427552,321.206827 C189.361014,322.240773 188.544406,323.038906 187.776189,323.740296 C186.034091,325.330517 184.285944,326.920737 182.543846,328.504912 C182.00549,328.994675 181.340105,329.520718 180.632378,329.34537 C179.997238,329.188162 179.646399,328.529097 179.368147,327.936544 C178.478951,326.037953 177.589755,324.133317 176.700559,322.234726 C175.920245,320.559855 175.115734,318.794287 175.236713,316.956161 C175.412133,314.295716 178.787448,309.561334 181.896608,310.202259 C184.775909,310.788766 187.141049,316.671978 188.538357,318.842659 Z" id="Path" fill="#D38742" fill-rule="nonzero"></path>
        <path d="M169.593042,352.249383 C168.105,351.100555 168.177587,348.742433 169.097028,347.109887 C170.022517,345.471295 171.565,344.298281 172.823182,342.907594 C176.422308,338.935065 177.601853,332.936971 175.781119,327.894218 C175.533112,327.198875 175.224615,326.467252 175.393986,325.753769 C175.623846,324.798428 176.64007,324.23006 177.613951,324.097038 C178.587832,323.964016 179.573811,324.151456 180.553741,324.115177 C182.313986,324.048666 184.01979,323.2203 185.193287,321.914264 C186.179266,320.819853 186.469615,318.854752 187.975804,318.322663 C189.306573,317.851038 190.800664,318.782194 191.913671,319.386841 C193.837238,320.426833 195.742657,321.515197 197.654126,322.585421 C198.077552,322.821233 198.513077,323.075185 198.894161,323.377508 L191.949965,330.863033 C191.139406,330.754197 189.445699,329.714205 188.719825,329.321184 C189.300524,329.907692 190.516364,331.479773 190.625245,332.296046 L171.540804,352.872169 C170.845175,352.866123 170.149545,352.684729 169.593042,352.249383 Z" id="Path" fill="#01015B"></path>
        <path d="M102.141189,246.321346 C100.084545,245.372051 98.3908392,243.787876 96.3765385,242.747884 C92.4628671,240.728365 87.7567832,240.952084 83.6495455,239.361863 C79.2277622,237.65676 75.7072727,233.768882 74.4490909,229.197754 C74.1768881,228.218227 74.0438112,227.057305 74.6970979,226.277311 C75.308042,225.545689 76.3787063,225.430806 77.3344406,225.448945 C84.6778671,225.606153 86.2626923,228.671712 93.5032867,229.887051 C95.438951,230.21356 103.683671,229.881005 107.651783,231.852153 C111.946538,233.980509 111.256958,235.84282 111.226713,237.578156 C111.19042,239.325585 110.252832,245.021356 108.619615,246.109719 C106.756538,247.349245 104.082902,247.216223 102.141189,246.321346 Z" id="Path" fill="#01015B"></path>
        <path d="M111.638042,230.975415 C111.904196,230.159142 112.176399,229.276358 111.910245,228.466132 C111.58965,227.486604 110.597622,226.91219 109.678182,226.428473 C107.591294,225.328016 105.504406,224.221513 103.423566,223.121056 C102.782378,222.782454 102.002063,222.437805 101.366923,222.7885 C100.792273,223.102916 100.616853,223.828492 100.495874,224.469418 C100.108741,226.531263 99.7216084,228.593107 99.3405245,230.654952 C99.0017832,232.468892 98.6690909,234.379575 99.2437413,236.133051 C100.078497,238.660473 104.530524,242.409282 107.37958,241.006502 C110.004825,239.712558 110.827483,233.424234 111.638042,230.975415 Z" id="Path" fill="#D38742" fill-rule="nonzero"></path>
        <path d="M115.51542,168.152633 C116.77965,164.821031 118.255594,161.350359 120.548147,158.7141 L139.112378,181.859972 C134.581713,182.797174 129.204196,189.218521 126.343042,196.516605 C115.97514,222.975941 112.297378,232.837727 110.119755,235.286545 C108.456294,237.154903 99.0138811,234.839107 98.4331818,232.23308 C96.8302098,225.007553 109.230559,184.732043 115.51542,168.152633 Z" id="Path" fill="#01015B" fill-rule="nonzero"></path>
        <path d="M239.113636,209.111394 C237.07514,214.631817 216.641783,229.342869 211.53042,232.263312 C204.023671,236.556303 196.522972,240.843248 189.016224,245.136238 C185.441294,247.179944 175.109685,250.033876 173.778916,253.933846 C171.964231,259.230551 186.282098,304.131607 186.233706,311.127368 C186.215559,313.449211 177.825664,320.402647 174.897972,318.268245 C171.97028,316.133842 156.811608,282.968976 150.792902,269.757448 C148.482203,264.690509 146.159406,259.575199 144.913322,254.145473 C143.667238,248.715746 143.564406,242.880907 145.633147,237.711178 C148.542692,230.443326 202.215035,197.27846 205.602448,196.927765 C210.393217,196.419862 241.261014,203.306787 239.113636,209.111394 Z" id="Path" fill="#01015B" fill-rule="nonzero"></path>
        <path d="M240.329476,170.734474 C243.88021,172.67539 246.517552,176.013039 248.217308,179.689291 C252.766119,189.526891 250.425175,202.109586 242.646224,209.655576 C234.867273,217.201566 212.292587,219.354107 198.482832,210.562546 C189.342867,204.745846 196.76493,198.203569 198.119895,187.452953 C198.797378,182.053459 201.49521,176.575361 206.34042,174.090263 C212.455909,170.958194 219.218636,173.576313 225.582133,172.088883 C231.141119,170.782846 234.123252,167.348453 240.329476,170.734474 Z" id="Path" fill="#01015B" fill-rule="nonzero"></path>
        <path d="M123.917413,155.902493 C137.333986,148.25976 205.348392,164.307081 217.63986,183.540889 C221.67451,189.8534 219.303322,197.762177 216.133671,203.990037 C211.149336,213.785312 201.011294,212.074162 192.361294,208.530933 C178.587832,202.889581 165.207552,196.292886 152.347483,188.807361 C145.627098,184.895298 132.319406,176.605593 128.278706,182.186481 L120.548147,158.720146 C121.50993,157.607597 122.616888,156.646209 123.917413,155.902493 Z" id="Path" fill="#01015B" fill-rule="nonzero"></path>
        <path d="M277.923706,151.234622 C276.562692,145.315131 274.191503,139.607267 273.628951,133.560801 C273.29021,129.908736 273.653147,126.087369 275.413392,122.87065 C276.738112,120.452063 280.385629,116.576278 283.561329,117.156739 C286.833811,117.761386 289.180804,123.511575 290.674895,126.099462 C295.066434,133.71801 298.369161,141.965389 300.425804,150.515092 C300.685909,151.609502 300.927867,152.709959 301.13958,153.822509 L278.661678,155.49738 C278.498357,154.052275 278.244301,152.625309 277.923706,151.234622 Z" id="Path" fill="#000090"></path>
        <path d="M240.232692,183.722283 C245.634406,179.888824 252.53021,179.114876 259.032832,177.857211 C265.535455,176.599546 272.467552,174.362354 276.133217,168.847977 C278.71007,164.978239 279.181888,160.183391 278.655629,155.491334 L301.133531,153.816463 C302.440105,160.606644 302.688112,167.687056 300.183846,174.072124 C296.330664,183.903677 286.482972,190.385489 276.236049,192.955237 C265.989126,195.524985 255.24014,194.787316 244.702867,194.037554 C241.545315,193.813835 237.625594,192.979423 236.887622,189.901772 C236.306923,187.483185 238.200245,185.161342 240.232692,183.722283 Z" id="Path" fill="#D38742" fill-rule="nonzero"></path>
        <path d="M284.202517,117.416737 C286.767273,120.173926 287.952867,123.946921 288.624301,127.653404 C291.672972,144.347697 285.823636,161.713147 276.145315,175.662344 C266.466993,189.611541 253.237937,200.652388 239.906049,211.161146 C237.311049,213.204852 234.359161,215.351347 231.068531,215.079256 C226.338252,214.692282 223.561783,209.73418 221.62007,205.40491 C218.91014,199.352398 216.20021,193.293839 213.49028,187.241327 C212.068776,184.060885 210.610979,180.656725 211.12514,177.216286 C211.923601,171.87121 217.022867,168.436817 221.462797,165.359166 C233.736119,156.851788 244.40042,146.040707 252.735874,133.657545 C255.597028,129.406879 258.210175,124.944587 261.688322,121.177639 C267.180769,115.258149 277.476084,110.179117 284.202517,117.416737 Z" id="Path" fill="#000090"></path>
        <path d="M281.450245,113.722347 C281.897867,114.713967 282.393881,115.71768 282.490664,116.806044 C282.587448,117.894408 282.188217,119.103701 281.232483,119.629744 C280.567098,119.992532 279.762587,119.968346 279.006469,119.938114 C274.778252,119.750673 270.556084,119.563233 266.327867,119.375792 C266.842028,114.41769 265.535455,109.290287 262.704545,105.184737 C261.960524,104.108466 261.077378,102.953591 261.222552,101.6536 C261.373776,100.287099 262.607762,99.3317575 263.781259,98.612228 C266.394406,97.0038681 269.213217,95.7341102 272.153007,94.8513262 C275.473881,93.8476128 277.179685,92.6262267 277.699895,96.133177 C278.619336,102.312665 278.800804,107.857275 281.450245,113.722347 Z" id="Path" fill="#D38742" fill-rule="nonzero"></path>
        <path d="M283.361713,82.0449112 C285.962762,85.5276756 286.809615,90.7155434 284.135979,94.1438896 C282.569301,96.1513164 280.119476,97.2215408 277.772483,98.2131613 C273.57451,99.9847758 269.37049,101.762437 265.172517,103.534051 C262.644056,104.604276 255.899476,104.368464 253.582727,102.887079 C248.622587,99.7247778 253.600874,79.6081854 262.014965,72.920794 C268.227238,67.9868778 279.181888,76.4458837 283.361713,82.0449112 Z" id="Path" fill="#D38742" fill-rule="nonzero"></path>
        <path d="M289.356224,96.5382902 C288.418636,98.7996685 287.444755,101.121511 285.732902,102.86894 C284.021049,104.616369 281.365559,105.6745 279.066958,104.815902 C276.139266,103.727538 275.038357,100.244774 274.306434,97.2094479 C273.423287,93.5211036 270.689161,95.9155042 269.806014,92.2271599 C269.430979,90.6611252 270.894825,82.9942064 270.120559,81.5793333 C268.251434,78.175173 264.380105,76.2403038 262.486783,72.8482364 C260.176084,68.7185001 261.760909,62.8715675 265.837902,60.4650741 C269.914895,58.0585806 275.794476,59.503686 278.298741,63.5185394 C280.125524,66.4510754 279.986399,70.351046 282.079336,73.1082345 C283.833531,75.4240309 286.059545,74.9886854 288.327902,76.306815 C295.465664,80.4486442 291.727413,90.8122869 289.356224,96.5382902 Z" id="Path" fill="#01015B"></path>
        <path d="M280.083182,92.8620389 C280.349336,90.2741514 278.014441,87.7830074 275.413392,87.7225428 C272.812343,87.6560316 270.247587,96.4596861 271.191224,97.4210742 C275.873112,97.8140945 279.290769,95.8369001 280.083182,92.8620389 Z" id="Path" fill="#D38742" fill-rule="nonzero"></path>
        <path d="M196.069301,103.183356 C199.982972,111.690734 206.909021,124.17064 214.367378,129.842225 C221.825734,135.507763 232.096853,138.150069 240.801294,134.691491 C244.848042,133.083131 248.253601,130.325942 251.520035,127.393406 L261.319336,149.57789 C257.441958,151.694153 253.413357,153.532279 249.18514,154.89878 C237.667937,158.629449 224.44493,158.641542 214.028636,152.474147 C207.271958,148.471387 202.118252,142.158876 198.38,135.259858 C194.635699,128.360841 190.346993,114.496294 188.018147,106.998676 C187.340664,104.821949 195.186154,101.26058 196.069301,103.183356 Z" id="Path" fill="#D38742" fill-rule="nonzero"></path>
        <path d="M255.367168,123.886456 C259.873636,119.799045 264.972902,115.844656 271.009755,115.070708 C284.752972,113.311187 287.850035,128.227818 280.119476,136.983101 C277.149441,140.344936 272.552238,142.618408 268.85028,145.049087 C266.400455,146.657447 263.896189,148.181156 261.325385,149.583936 L247.854371,128.941301 C249.142797,127.774333 254.08479,125.047377 255.367168,123.886456 Z" id="Path" fill="#000090"></path>
        <path d="M195.561189,94.2950513 L184.279895,95.5587627 C183.61451,95.6313203 182.858392,95.1717889 182.598287,94.524817 L173.022797,71.3668523 C172.762692,70.7198804 173.089336,70.1333732 173.75472,70.0608156 L185.036014,68.7971042 C185.701399,68.7245466 186.457517,69.184078 186.717622,69.8310499 L196.293112,92.9890146 C196.559266,93.6359865 196.226573,94.2224937 195.561189,94.2950513 Z" id="Path" fill="#3C79A6" fill-rule="nonzero"></path>
        <path d="M196.662098,94.174122 L185.380804,95.4378334 C184.71542,95.510391 183.959301,95.0508595 183.699196,94.4038877 L174.123706,71.2459229 C173.863601,70.5989511 174.190245,70.0124439 174.855629,69.9398863 L186.136923,68.6761749 C186.802308,68.6036173 187.558427,69.0631487 187.818531,69.7101206 L197.394021,92.8680853 C197.654126,93.5150572 197.327483,94.1015644 196.662098,94.174122 Z" id="Path" fill="#A2D1EB" fill-rule="nonzero"></path>
        <path d="M195.585385,92.9769217 L185.417098,94.1136573 C184.818252,94.1801684 184.13472,93.7629623 183.898811,93.1825016 L175.273007,72.3101009 C175.037098,71.7296402 175.333497,71.2035977 175.932343,71.1310401 L186.100629,69.9943045 C186.699476,69.9277933 187.383007,70.3449995 187.618916,70.9254602 L196.24472,91.7978608 C196.480629,92.384368 196.184231,92.9104106 195.585385,92.9769217 Z" id="Path" fill="#3C79A6" fill-rule="nonzero"></path>
        <path d="M193.347273,91.4834446 C192.73028,90.1169433 189.693706,86.5737142 187.909266,83.0909498 C185.271923,82.5044426 187.437448,89.633226 188.387133,90.3950807 C185.356608,90.1411292 179.428636,87.4444053 177.529266,82.262584 C177.063497,82.7765336 175.702483,85.2918634 175.738776,85.9811606 C175.89,88.5932339 177.819615,90.8122869 177.96479,93.4243602 C178.07972,95.3773687 177.293357,96.5020114 178.091818,98.2857188 C179.362098,101.151744 182.138566,103.020102 184.854545,104.598229 C186.263951,105.414502 187.727797,106.212636 189.336818,106.502866 C198.240874,108.123319 195.26479,95.7159708 193.347273,91.4834446 Z" id="Path" fill="#D38742" fill-rule="nonzero"></path>
        <polygon id="Path" fill="#D48743" fill-rule="nonzero" points="636.517622 61.1422783 631.896224 74.9403137 622.738112 69.2626821 627.184091 58.6511343"></polygon>
    </g>
</svg>