<svg width="69" height="69" viewBox="0 0 69 69" fill="none" xmlns="http://www.w3.org/2000/svg">
<g clip-path="url(#clip0_10_622)">
<path d="M19.27 0.00634766H17.37C16.5747 0.00634766 15.93 0.651058 15.93 1.44635V5.82635C15.93 6.62164 16.5747 7.26635 17.37 7.26635H19.27C20.0653 7.26635 20.71 6.62164 20.71 5.82635V1.44635C20.71 0.651058 20.0653 0.00634766 19.27 0.00634766Z" fill="#CF7C75"/>
<path d="M35.21 0.00634766H33.31C32.5147 0.00634766 31.87 0.651058 31.87 1.44635V5.82635C31.87 6.62164 32.5147 7.26635 33.31 7.26635H35.21C36.0053 7.26635 36.65 6.62164 36.65 5.82635V1.44635C36.65 0.651058 36.0053 0.00634766 35.21 0.00634766Z" fill="#CF7C75"/>
<path d="M51.15 0.00634766H49.25C48.4547 0.00634766 47.81 0.651058 47.81 1.44635V5.82635C47.81 6.62164 48.4547 7.26635 49.25 7.26635H51.15C51.9453 7.26635 52.59 6.62164 52.59 5.82635V1.44635C52.59 0.651058 51.9453 0.00634766 51.15 0.00634766Z" fill="#CF7C75"/>
<path d="M68.52 18.4263C68.52 10.2563 61.89 3.62634 53.72 3.62634H14.8C6.63 3.63634 0 10.2563 0 18.4263V28.4863H68.52V18.4263Z" fill="url(#paint0_linear_10_622)"/>
<path d="M0 28.4863V53.2063C0 61.3763 6.63 68.0063 14.8 68.0063H53.72C61.89 68.0063 68.52 61.3863 68.52 53.2063V28.4863H0Z" fill="url(#paint1_radial_10_622)"/>
<path d="M34.39 53.0864C29.62 53.0864 25.38 50.4964 23.04 46.1664C22.55 45.2564 22.89 44.1164 23.8 43.6264C24.71 43.1364 25.85 43.4764 26.34 44.3864C28.01 47.4864 31.02 49.3364 34.39 49.3364C37.56 49.3364 40.52 47.4764 42.31 44.3564C42.82 43.4564 43.97 43.1464 44.87 43.6664C45.77 44.1764 46.08 45.3264 45.56 46.2264C43.1 50.5264 38.92 53.0964 34.39 53.0964V53.0864Z" fill="#1E1E1E"/>
</g>
<defs>
<linearGradient id="paint0_linear_10_622" x1="0" y1="16.0663" x2="68.52" y2="16.0663" gradientUnits="userSpaceOnUse">
<stop stop-color="#CA634B"/>
<stop offset="1" stop-color="#CF7C75"/>
</linearGradient>
<radialGradient id="paint1_radial_10_622" cx="0" cy="0" r="1" gradientUnits="userSpaceOnUse" gradientTransform="translate(68.09 35.4563) scale(63.12)">
<stop stop-color="white"/>
<stop offset="0.45" stop-color="white"/>
<stop offset="0.46" stop-color="white"/>
<stop offset="0.62" stop-color="#FBFBFC"/>
<stop offset="0.77" stop-color="#EFEFF3"/>
<stop offset="0.93" stop-color="#DCDDE5"/>
<stop offset="1" stop-color="#D0D1DD"/>
</radialGradient>
<clipPath id="clip0_10_622">
<rect width="68.52" height="68" fill="white" transform="translate(0 0.00634766)"/>
</clipPath>
</defs>
</svg>
