<svg width="72" height="72" viewBox="0 0 72 72" fill="none" xmlns="http://www.w3.org/2000/svg">
<g clip-path="url(#clip0_1499_28525)">
<path d="M55.9629 4.32668H55.161V0H50.0325V4.32668H38.322V0H33.3439V4.32668H21.6334V0H16.6552V4.32668H15.8534C7.21671 4.32668 0 11.393 0 20.0464V56.4473C0 64.9504 7.21671 72 15.8701 72H56.1132C64.7666 72 71.9833 64.9503 71.9833 56.2803V20.1968C71.8162 11.3763 64.5995 4.32668 55.9462 4.32668H55.9629ZM15.7197 9.30487H16.5216V13.1471H21.4998V9.30487H33.2102V13.1471H38.1884V9.30487H49.8988V13.1471H54.877V9.30487H55.6789C61.7763 9.30487 66.5875 14.116 66.5875 20.0464V25.342H4.64408V20.0464C4.81114 14.2664 9.77262 9.30487 15.703 9.30487H15.7197ZM55.9629 67.0385H15.7197C9.62227 67.0385 4.81114 62.3944 4.81114 56.297V30.4872H66.7044V56.464C66.8715 62.2441 61.8933 67.0552 55.9629 67.0552V67.0385Z" fill="white"/>
<path d="M35.9165 51.1517C32.542 51.1517 29.5016 49.0636 28.2153 46.3406L23.5712 48.5791C25.8097 53.2232 30.6209 56.2803 35.9165 56.2803C41.2121 56.2803 46.0232 53.2399 48.2617 48.5791L43.768 46.3406C42.1643 49.381 39.1239 51.1517 35.9165 51.1517V51.1517Z" fill="white"/>
</g>
<defs>
<clipPath id="clip0_1499_28525">
<rect width="72" height="72" fill="white"/>
</clipPath>
</defs>
</svg>
