<?xml version="1.0" encoding="utf-8"?>
<!-- Generator: Adobe Illustrator 25.2.1, SVG Export Plug-In . SVG Version: 6.00 Build 0)  -->
<svg version="1.1" id="Calque_1" xmlns="http://www.w3.org/2000/svg" xmlns:xlink="http://www.w3.org/1999/xlink" x="0px" y="0px"
	 viewBox="0 0 20 19" style="enable-background:new 0 0 20 19;" xml:space="preserve">
<style type="text/css">
	.st0{enable-background:new    ;}
	.st1{fill:#F0F0F0;}
</style>
<g id="personas-hexagones-copy">
	<g class="st0">
		<path class="st1" d="M10.1,18.4c-2.5,0-4.7-0.9-6.4-2.7C1.9,14,1,11.8,1,9.3s0.9-4.7,2.7-6.4c1.8-1.8,3.9-2.7,6.4-2.7
			s4.7,0.9,6.4,2.7c1.8,1.8,2.7,3.9,2.7,6.4s-0.9,4.7-2.7,6.4C14.8,17.5,12.6,18.4,10.1,18.4z M10.1,17.3c2.2,0,4.1-0.8,5.6-2.3
			c1.6-1.5,2.3-3.4,2.3-5.6s-0.8-4.1-2.3-5.6c-1.6-1.6-3.4-2.3-5.6-2.3C7.9,1.4,6,2.2,4.5,3.7C2.9,5.3,2.2,7.1,2.2,9.3
			s0.8,4.1,2.3,5.6C6,16.5,7.9,17.3,10.1,17.3z M4.8,9.8h0.7c0.6,2.5,2.1,3.8,4.6,3.8s4.1-1.3,4.6-3.8h0.7c-0.2,1.6-0.7,2.9-1.7,3.8
			S11.6,15,10.1,15c-1.5,0-2.7-0.5-3.7-1.4S4.9,11.5,4.8,9.8z M7.2,7.9c-0.4,0-0.7-0.1-1-0.4s-0.4-0.6-0.4-1s0.1-0.7,0.4-1
			S6.8,5,7.2,5c0.4,0,0.8,0.1,1,0.4s0.4,0.6,0.4,1s-0.1,0.7-0.4,1S7.6,7.9,7.2,7.9z M13,7.9c-0.4,0-0.7-0.1-1-0.4s-0.4-0.6-0.4-1
			s0.1-0.7,0.4-1S12.6,5,13,5s0.7,0.1,1,0.4s0.4,0.6,0.4,1s-0.1,0.7-0.4,1S13.4,7.9,13,7.9z"/>
	</g>
</g>
</svg>
