<svg width="708" height="415" viewBox="0 0 708 415" fill="none" xmlns="http://www.w3.org/2000/svg">
<mask id="mask0_25_11208" style="mask-type:alpha" maskUnits="userSpaceOnUse" x="0" y="0" width="708" height="415">
<rect width="708" height="414.752" fill="#C4C4C4"/>
</mask>
<g mask="url(#mask0_25_11208)">
<path d="M707.796 0H0.000244141V414.723H707.796V0Z" fill="url(#paint0_linear_25_11208)"/>
<path d="M473.425 263.076H234.37C229.189 263.076 224.989 258.876 224.989 253.694V106.41C224.989 101.229 229.189 97.0288 234.37 97.0288H473.425C478.607 97.0288 482.807 101.229 482.807 106.41V253.7C482.807 258.882 478.607 263.076 473.425 263.076Z" fill="#FEF6E3"/>
<path d="M568.97 350.466C567.849 353.965 571.868 354.713 575.192 356.273C578.516 357.832 614.611 324.664 623.379 306.853C624.927 303.704 622.333 300.871 619.372 298.99C614.395 295.836 607.957 289.439 601.969 289.334C597.839 289.264 597.512 296.835 594.615 299.241C583.972 308.08 569.689 348.229 568.97 350.466Z" fill="#5F5FF1"/>
<path d="M520.964 340.804C517.973 350.869 512.067 377.261 512.067 377.261H615.802C615.802 377.261 612.519 349.607 608.611 343.1C604.697 336.598 520.964 340.804 520.964 340.804Z" fill="#CA6D58"/>
<path d="M538.559 208.755C522.6 224.93 504.123 239.68 482.2 245.674C477.474 246.965 471.708 247.566 468.337 244.009C466.369 241.929 465.761 238.833 466.164 236C466.568 233.167 467.864 230.538 469.296 228.061C480.564 208.551 478.595 212.803 493.766 198.719C500.566 192.404 541.451 172.806 551.405 175.037C561.774 177.368 554.261 188.718 550.838 194.04C547.38 199.426 543.046 204.21 538.559 208.755Z" fill="#6894CD"/>
<path d="M555.634 210.145C558.233 207.411 559.226 185.961 558.251 182.24C557.223 178.314 561.557 173.051 557.743 172.631C544.944 171.205 511.337 180.651 493.771 198.719L522.676 241.561C539.447 238.278 542.373 224.089 555.634 210.145Z" fill="#6894CD"/>
<path d="M452.437 161.245C450.497 158.471 450.305 158.319 446.917 158.366C444.054 158.401 442.22 159.534 441.344 162.256C440.462 164.978 457.332 234.294 469.109 244.628C475.038 249.827 478.216 244.313 483.134 239.242C489.981 232.186 459.505 171.357 452.437 161.245Z" fill="#F8BE7E"/>
<path d="M514.667 213.411C510.134 221.151 514.544 225.509 512.102 233.844C507.19 250.622 510.998 285.916 517.874 353.696C523.166 355.659 562.468 353.375 609.552 346.067C606.894 337.556 599.668 310.463 601.969 289.345C603.459 275.664 603.278 286.734 606.298 274.274C607.916 267.603 619.108 257.328 626.124 252.064C628.537 251.93 624.08 252.21 626.118 251.994C630.313 189.676 586.518 167.338 565.074 169.511C559.156 170.113 557.077 168.121 550.885 169.739C525.742 176.305 518.738 206.465 514.667 213.411Z" fill="#6894CD"/>
<path d="M626.077 249.74C626.259 229.242 622.578 215.274 611.497 198.03C609.499 194.928 606.567 191.563 602.91 192.066C600.918 192.34 599.235 193.795 598.201 195.518C597.167 197.247 596.683 199.233 596.227 201.196C593.622 212.552 589.731 233.985 590.794 253.18C591.46 265.167 601.216 285.753 601.841 289.334C600.713 296.653 602.536 309.271 606.339 307.671C609.4 306.386 621.392 310.259 622.806 307.571C627.842 298.055 626.019 255.856 626.077 249.74Z" fill="#5F5FF1"/>
<path d="M626.13 252.059L590.929 253.192C587.348 234.382 590.076 214.9 591.449 195.804C591.717 192.06 592.529 187.655 595.941 186.084C599.539 184.431 610.095 192.06 613.284 194.414C613.279 194.414 631.23 217.862 626.13 252.059Z" fill="#6894CD"/>
<path fill-rule="evenodd" clip-rule="evenodd" d="M520.801 134.397C521.864 136.559 523.476 136.127 523.587 133.743C523.949 126.12 523.78 124.905 527.77 118.362C529.966 114.764 530.597 114.495 528.973 113.081C523.581 108.402 511.992 116.528 520.801 134.397Z" fill="#CA6D58"/>
<path d="M541.159 153.716C544.594 142.757 554.145 133.977 558.841 137.056C562.673 157.174 561.926 158.558 565.08 169.511C563.339 181.124 543.764 180.12 540.434 174.5C540.417 172.812 539.383 159.382 541.159 153.716Z" fill="#F8BE7E"/>
<path d="M554.542 117.877C547.59 107.69 531.777 108.14 525.159 119.49C519.095 129.888 522.939 153.196 527.04 158.313C534.213 167.262 551.627 159.084 554.448 153.038C558.578 144.176 560.389 126.441 554.542 117.877Z" fill="#F8BE7E"/>
<path fill-rule="evenodd" clip-rule="evenodd" d="M550.225 120.67C549.606 122.37 551.843 145.835 552.503 145.625C554.851 144.872 558.263 138.609 562.527 139.199C563.888 139.386 565.705 140.432 565.979 137.692C567.72 120.343 568.334 121.283 565.366 119.437C558.829 115.372 551.329 117.632 550.225 120.67Z" fill="#CA6D58"/>
<path fill-rule="evenodd" clip-rule="evenodd" d="M570.11 111.358C556.738 100.253 533.792 94.6047 526.742 98.022C516.244 103.104 522.255 120.518 525.941 121.75C527.624 122.311 529.306 121.085 530.848 120.208C538.168 116.043 544.085 120.162 549.22 121.54C558.315 123.994 581.506 120.822 570.11 111.358Z" fill="#CA6D58"/>
<path d="M566.517 136.851C566.558 139.678 565.442 142.5 563.485 144.544C557.889 150.386 553.467 141.518 555.073 136.355C556.989 130.192 566.412 129.164 566.517 136.851Z" fill="#F8BE7E"/>
<path d="M442.938 155.147C437.669 152.063 431.039 147.857 427.791 145.911C426.932 145.397 426.12 144.656 425.238 144.299C424.362 143.943 423.345 144.124 423.118 145.099C422.826 146.35 423.924 147.827 424.882 148.861C429.543 153.897 433.183 159.131 446.899 159.493C448.844 159.546 448.791 155.865 450.725 155.2C450.731 155.2 443.376 154.75 442.938 155.147Z" fill="#F8BE7E"/>
<path d="M428.971 147.366C429.678 145.952 431.53 138.183 423.959 134.409C420.477 132.674 427.82 128.136 435.134 131.623C447.016 137.289 454.3 148.032 449.866 158.78C447.144 165.381 443.575 165.405 439.235 163.413C434.351 161.176 425.922 153.482 428.971 147.366Z" fill="#F8BE7E"/>
<path d="M199.899 435.537C196.587 422.937 182.661 351.289 182.702 336.919C182.742 322.549 182.959 322.94 192.574 313.144C204.87 300.62 225.544 294.626 231.379 313.506C251.889 379.896 233.815 490.518 228.523 515.561C227.057 522.495 225.479 529.405 223.809 536.304L205.139 537.858C204.87 499.701 192.095 456.713 199.899 435.537Z" fill="#FF9575"/>
<path d="M145.228 453.149C141.098 458.319 135.385 463.781 129.736 462.122C126.307 461.111 124.017 457.571 123.141 453.739C122.265 449.913 122.574 445.783 122.89 441.741C124.251 424.269 134.456 320.043 167.122 301.116C181.773 292.628 189.694 309.435 187.755 329.366C185.179 355.764 182.246 390.598 170.247 414.192C163.191 428.06 154.802 441.174 145.228 453.149Z" fill="#FF9575"/>
<path d="M135.18 414.723C126.92 414.618 114.413 390.043 152.366 301.204C156.385 291.799 169.885 295.94 180.032 294.661C193.783 292.926 220.561 293.061 227.168 305.538C247.788 344.472 202.347 362.056 191.744 361.758L182.696 352.767L172.759 360.852L171.124 382.898L135.18 414.723Z" fill="#FF9575"/>
<path d="M209.649 209.123C202.545 201.348 195.407 192.007 193.812 181.288C193.316 177.941 193.263 177.386 196.558 177.537C199.146 177.654 202.031 178.799 204.456 179.658C209.409 181.416 214.094 183.887 218.499 186.756C223.096 189.752 227.378 193.181 231.537 196.768L216.957 216.624C214.45 214.199 212.009 211.699 209.649 209.123Z" fill="#A9C1FA"/>
<path d="M230.164 197.457C232.501 199.216 234.785 201.032 237.063 202.849C249.576 212.838 253.986 220.689 266.499 230.684C267.685 231.625 268.929 232.676 269.116 234.166C269.414 236.526 266.756 238.897 264.063 239.499C261.376 240.095 258.759 239.406 256.323 238.664C237.986 233.056 229.504 226.163 215.847 214.41L230.164 197.457Z" fill="#F8BE7E"/>
<path d="M301.981 183.233C302.261 181.224 302.215 178.677 300.392 177.783C298.663 176.936 296.688 178.268 295.251 179.559C283.095 190.401 253.881 226.496 255.821 233.558C257.626 240.148 262.025 242.017 267.399 237.881C278.34 229.469 300.848 191.289 301.981 183.233Z" fill="#F8BE7E"/>
<path d="M295.462 170.609C296.799 166.684 299.533 163.021 303.43 161.59C306.555 160.439 310.077 160.848 313.208 161.97C314.57 162.455 316.118 163.459 315.942 164.896C315.79 166.176 314.388 166.83 313.425 167.683C311.228 169.634 311.211 172.975 310.293 175.756C309.283 178.84 306.952 181.469 304.014 182.859C301.683 183.957 295.958 185.208 294.223 182.468C292.611 179.915 294.574 173.215 295.462 170.609Z" fill="#F8BE7E"/>
<path d="M169.675 272.527C174.29 248.863 150.386 226.583 154.884 202.896C157.957 186.738 175.195 175.277 191.563 176.924C207.931 178.571 221.939 191.803 226.455 207.616C228.599 215.116 228.838 223.154 227.168 230.772C225.999 236.093 223.931 241.176 222.553 246.445C219.72 257.24 219.866 268.514 221.519 279.485C222.956 289.053 225.812 295.923 228.651 307.881C201.95 295.245 152.366 301.204 152.366 301.204C154.913 297.541 168.343 279.362 169.675 272.527Z" fill="#A9C1FA"/>
<path d="M146.898 205.583C150.018 197.925 155.024 190.78 162.157 186.598C163.909 185.564 166.117 184.729 167.905 185.692C169.587 186.592 170.165 188.695 170.469 190.582C172.45 202.96 169.616 215.496 166.392 227.676L142.395 221.735C143.464 216.226 144.784 210.776 146.898 205.583Z" fill="#A9C1FA"/>
<path d="M141.238 228.932C141.665 226.309 142.097 223.674 142.587 221.057L165.504 226.992C165.206 228.16 164.914 229.317 164.61 230.48C161.479 242.648 158.348 254.827 155.211 267.001C154.043 271.569 153.681 277.154 149.44 279.806C146.402 281.71 142.161 281.839 139.31 279.479C136.839 277.428 135.572 274.11 135.262 270.822C134.947 267.539 135.484 264.238 136.016 260.984C137.757 250.306 139.497 239.622 141.238 228.932Z" fill="#F8BE7E"/>
<path d="M204.929 305.749C207.435 307.186 208.983 307.974 207.663 310.544C206.64 312.531 204.964 314.336 202.843 313.611C188.158 308.617 138.533 282.54 135.981 279.975C131.775 275.746 134.842 262.457 143.218 263.432C151.712 264.425 177.906 289.924 200.653 303.009" fill="#F8BE7E"/>
<path d="M206.185 297.933C210.385 296.221 214.585 294.504 218.779 292.792C219.743 292.996 219.778 294.492 219.089 295.199C218.405 295.911 217.377 296.163 216.542 296.694C215.712 297.226 215.07 298.388 215.665 299.177C216.267 299.965 217.5 299.673 218.423 299.3C222.664 297.588 226.905 295.876 231.152 294.171C233.663 296.747 233.494 301.134 231.566 304.177C229.633 307.221 226.344 309.131 223.014 310.498C218.376 312.396 213.399 313.471 208.393 313.646C205.501 313.752 202.37 313.465 200.168 311.59C194.566 306.812 201.733 299.755 206.185 297.933Z" fill="#F8BE7E"/>
<path d="M218.668 112.065C217.085 106.86 212.523 102.672 207.201 101.544C201.88 100.417 196.009 102.386 192.451 106.498C190.64 108.595 189.332 111.23 186.978 112.69C183.876 114.6 179.904 113.929 176.311 114.513C170.855 115.395 166.053 119.554 164.412 124.841C161.082 135.537 176.007 156.94 163.138 169.803C159.528 173.413 157.735 177.76 155.305 182.24C139.643 211.162 172.964 218.691 183.496 204.111C195.442 187.579 179.728 184.6 181.51 169.733C182.544 161.129 202.592 161.941 205.758 153.873C207.493 149.445 206.401 144.433 207.271 139.766C208.124 135.209 210.765 132.172 213.983 129.07C216.39 126.751 218.195 123.041 218.914 119.834C219.486 117.276 219.428 114.577 218.668 112.065Z" fill="#6894CD"/>
<path d="M201.938 158.991C200.413 164.949 200.25 171.252 201.453 177.281C201.827 179.144 202.265 181.317 201.032 182.766C199.858 184.156 197.761 184.168 195.95 184.069C192.913 183.899 189.805 183.718 186.978 182.602C184.144 181.481 181.574 179.243 180.873 176.282C180.295 173.834 181.037 171.293 181.773 168.886C183.186 164.271 184.588 159.662 186.002 155.048C186.417 153.698 186.872 152.279 187.901 151.315C189.635 149.697 192.51 149.936 194.507 151.21C196.511 152.489 197.837 154.557 199.105 156.56L201.938 158.991Z" fill="#F8BE7E"/>
<path d="M211.039 157.735C212.821 154.831 213.498 151.408 214.141 148.061C215.017 143.458 215.876 138.785 215.484 134.117C215.087 129.444 213.282 124.706 209.66 121.733C205.291 118.14 199.023 117.708 193.526 119.046C188.753 120.208 184.028 122.825 181.808 127.207C180.599 129.59 180.225 132.289 179.862 134.929C179.389 138.364 178.928 141.892 179.693 145.275C180.54 149.019 182.859 152.308 185.71 154.884C188.561 157.454 191.931 159.382 195.337 161.152C197.305 162.174 199.332 163.167 201.529 163.494C205.893 164.16 208.895 161.234 211.039 157.735Z" fill="#F8BE7E"/>
<path d="M194.595 127.463C192.241 131.722 192.516 137.365 189.098 140.835C186.329 143.651 181.417 144.001 178.274 141.6C175.885 139.772 174.652 136.658 174.745 133.65C174.839 130.635 176.147 127.75 178.028 125.396C179.909 123.041 182.345 121.184 184.904 119.595C188.841 117.147 193.199 115.249 197.808 114.682C200.723 114.326 203.731 114.536 206.547 115.424C208.668 116.096 212.751 117.638 213.107 120.249C213.458 122.831 211.191 123.1 209.439 122.44C206.769 121.447 204.339 121.014 201.517 121.873C198.608 122.743 196.067 124.8 194.595 127.463Z" fill="#6894CD"/>
<path d="M182.707 139.287C181.878 138.907 181.002 138.586 180.09 138.545C179.179 138.498 178.215 138.761 177.578 139.415C176.714 140.291 176.585 141.664 176.79 142.873C177.31 145.929 179.757 148.318 182.976 147.967C185.412 147.704 186.528 145.625 186.288 143.282C186.084 141.279 184.407 140.069 182.707 139.287Z" fill="#F8BE7E"/>
<path d="M572.791 482.97C573.416 489.793 577.937 566.651 577.131 566.651C493.666 566.575 410.196 565.74 326.749 564.139C318.746 563.987 309.989 563.543 304.037 558.192C297.231 552.076 296.525 541.813 296.577 532.665C296.764 499.853 300.579 467.07 307.863 435.081C311.327 419.87 316.877 404.956 319.354 389.663C321.398 377.022 330.745 368.692 342.083 363.014C352.686 357.709 364.386 355.104 375.789 351.856C381.677 350.18 388.302 347.481 393.892 345.454C407.783 346.219 417.299 337.159 430.788 336.388C446.192 335.505 464.885 335.173 479.407 341.195C485.488 343.719 495.717 350.267 502.551 349.379C512.009 353.059 516.787 355.793 526.455 359.152C531.935 361.051 537.478 362.99 542.286 366.238C557.918 376.811 561.925 395.826 563.181 413.093C564.864 436.29 570.664 459.645 572.791 482.97Z" fill="#A9C1FA"/>
<path d="M472.812 324.342C474.471 331.118 477.123 337.118 481.504 340.015C483.584 341.394 486.119 341.838 488.444 342.743C493.316 344.636 497.393 348.573 502.552 349.385C490.746 362.307 474.004 372.453 458.991 381.414C457.636 382.221 456.181 383.044 454.604 382.998C453.319 382.957 452.133 382.337 451.005 381.724C431.144 371.005 412.042 358.878 393.898 345.46C402.567 343.269 418.304 340.371 421.108 330.254C422.218 326.241 420.086 294.486 419.046 294.416C435.911 295.561 452.781 296.706 469.646 297.851C470.107 304.078 470.51 314.955 472.812 324.342Z" fill="#F8BE7E"/>
<path d="M411.458 283.586C411.248 284.713 409.957 285.385 408.817 285.262C407.678 285.139 406.691 284.427 405.85 283.65C401.212 279.35 399.553 272.703 399.167 266.388C399.091 265.155 399.085 263.829 399.786 262.813C400.628 261.604 402.234 261.218 403.7 261.066C406.224 260.803 408.788 260.961 411.259 261.534" fill="#F8BE7E"/>
<path d="M481.37 257.637C484.004 256.913 486.82 256.843 489.49 257.438C490.12 257.579 490.769 257.771 491.242 258.21C492.124 259.022 492.136 260.388 492.077 261.586C491.908 265.307 491.733 269.063 490.757 272.656C489.782 276.248 487.918 279.718 484.945 281.956C483.216 283.258 481.189 284.094 479.191 284.911" fill="#F8BE7E"/>
<path d="M403.49 244.99C403.788 239.925 408.444 240.101 412.819 239.54C426.757 237.764 440.859 236.292 454.913 237.303C461.847 237.799 468.752 238.909 475.423 240.901C481.826 242.811 481.843 238.465 484.898 245.364C492.078 261.586 482.766 271.248 485.044 274.286C490.162 281.109 483.73 306.823 465.773 314.178C464.71 315.06 466.497 306.105 460.352 311.648C455.72 315.831 449.142 319.961 449.142 319.961C449.142 319.961 432.412 317.321 426.669 306.671C426.669 310.977 432.453 314.09 427.984 314.09C418.731 314.09 414.682 284.947 414.823 296.32C414.992 309.107 401.469 279.683 403.49 244.99Z" fill="#B09632"/>
<path d="M484.898 245.27C484.764 241.672 483.777 238.927 484.992 235.404C485.739 233.237 486.896 230.445 485.371 228.055C481.312 221.688 479.32 218.831 480.973 216.53C481.528 215.753 482.532 215.291 482.76 214.363C482.959 213.557 482.678 212.715 482.334 211.968C479.933 206.763 474.261 203.684 468.589 202.866C462.916 202.043 457.162 203.118 451.531 204.187C452.168 202.633 452.805 201.079 453.441 199.519C437.938 195.535 420.185 203.62 413.018 217.932C411.201 215.04 408.677 212.593 405.733 210.864C403.689 216.758 401.632 222.716 401.037 228.926C400.511 234.411 401.878 239.803 403.49 244.99C424.467 244.166 445.462 241.988 466.357 241.158C469.19 241.041 472.678 241.824 475.406 241.327C472.175 241.73 468.997 242.607 466.018 243.921C467.444 243.296 473.916 245.65 475.926 245.709C478.584 245.785 482.346 246.001 484.898 245.37C484.904 245.329 484.904 245.3 484.898 245.27Z" fill="#B09632"/>
<path d="M-60.0399 551.72C-59.6017 515.117 -56.0501 478.548 -49.4315 442.448C-43.6951 411.154 -33.3789 384.896 -1.60066 373.99C6.24459 371.297 14.1015 368.598 22.1512 366.595C50.2317 359.596 80.1348 361.267 107.906 369.399C129.514 375.725 151.017 386.836 162.881 405.973C174.184 424.21 170.82 444.013 177.31 463.162C184.162 483.391 183.916 505.893 184.016 527.191C184.156 555.751 183.443 584.322 181.697 612.835C181.504 615.972 181.282 619.179 179.985 622.082C176.953 628.87 168.921 632.439 161.374 634.858C103.928 653.229 40.8618 638.877 -17.8987 624.43" fill="#6894CD"/>
<path d="M51.149 314.575C52.3348 324.57 52.8547 334.635 51.9317 344.659C50.3954 361.29 40.3829 361.816 31.6848 364.124C38.7239 375.275 56.7102 383.95 69.8771 384.692C83.044 385.434 101.363 379.171 109.612 368.884C103.157 368.248 93.4011 362.383 92.151 356.021C90.9009 349.654 92.0576 335.348 93.553 329.033" fill="#F8BE7E"/>
<path d="M231.981 523.891C232.688 487.509 235.229 451.163 239.592 415.033C240.983 403.501 243.191 390.825 252.245 383.553C256.054 380.492 260.721 378.727 265.325 377.074C279.093 372.109 293.037 367.628 307.115 363.644C343.339 353.392 379.329 361.46 413.981 373.26C420.845 375.596 427.849 378.243 433.124 383.214C439.48 389.201 442.558 397.8 445.257 406.101C456.555 440.835 465.083 476.469 470.732 512.552" fill="#CA6D58"/>
<path d="M754.341 588.709C755.977 558.683 758.074 528.442 756.62 498.509C755.27 470.779 756.351 445.596 741.998 420.39C717.855 377.974 659.819 365.94 613.623 367.629C597.781 368.207 583.382 376.28 568.047 375.188C561.113 376.806 552.707 378.319 545.832 379.943C536.263 382.203 526.076 385.089 519.843 392.689C515.713 397.724 513.873 404.203 512.219 410.5C505.455 436.326 496.844 463.612 497.469 490.249C498.135 518.546 501.331 546.714 502.113 575.011" fill="#B09632"/>
<path d="M668.388 290.642C669.212 284.976 669.796 279.228 669.253 273.573C667.757 257.912 657.02 244.213 643.217 239.715C627.421 234.569 613.138 241.199 603.856 254.337C592.43 270.506 590.929 290.274 594.784 309.324C595.935 315.019 597.664 320.686 600.783 325.587C611.427 342.305 631.627 346.932 647.142 333.981C659.597 323.589 666.11 306.286 668.388 290.642Z" fill="#F8BE7E"/>
<path d="M604.791 324.71C604.826 323.565 605.994 324.821 606.041 325.96C606.298 332.415 609.266 338.076 608.898 344.431C608.366 353.568 605.819 360.367 598.085 365.181C589.042 370.812 578.667 374.294 568.047 375.181C568.964 375.106 577.925 387.116 579.415 388.506C583.89 392.683 588.843 396.34 594.142 399.406C603.868 405.032 617.444 410.786 628.958 409.951C633.666 409.606 638.584 407.567 643.229 406.592C649.14 405.359 654.859 403.39 660.245 400.651C670.982 395.189 679.727 387.77 685.954 377.43C678.161 374.469 669.352 372.494 660.66 370.695C653.323 369.176 644.753 367.295 641.616 360.49C640.068 357.131 640.144 353.264 640.53 349.584C641.313 342.136 643.246 334.81 646.237 327.941" fill="#F8BE7E"/>
<path d="M663.686 211.097C663.003 207.528 661.56 204.128 659.334 201.231C655.63 196.406 650.133 193.199 644.38 191.219C634.297 187.749 622.555 187.936 613.548 193.637C603.483 200.004 597.571 214.375 601.473 225.923C605.381 237.49 619.395 244.406 630.961 244.406C642.504 244.406 654.065 240.189 660.333 229.913C663.727 224.352 664.907 217.459 663.686 211.097Z" fill="#FF9575"/>
<path d="M593.552 301.449C589.79 301.566 586.437 298.657 584.976 295.187C583.516 291.717 583.598 287.803 583.989 284.065C584.176 282.26 584.456 280.396 585.455 278.877C586.758 276.885 589.159 275.787 591.531 275.629C593.908 275.466 596.268 276.138 598.459 277.072" fill="#F8BE7E"/>
<path d="M663.277 305.538C665.397 307.723 672.302 302.559 673.622 299.813C674.697 297.57 676.905 287.546 676.023 285.221C674.907 282.265 673.038 280.618 669.93 280.051" fill="#F8BE7E"/>
<path d="M590.485 261.867C578.153 322.759 612.549 328.94 628.519 328.94C644.49 328.94 627.982 272.306 628.555 271.003C632.1 262.982 611.649 253.776 612.852 244.891C612.975 243.986 613.074 242.987 612.572 242.227C612.04 241.415 610.995 241.123 610.031 241.001C605.182 240.387 590.672 260.938 590.485 261.867Z" fill="#FF9575"/>
<path d="M668.885 294.246C674.399 285.484 676.076 274.403 673.4 264.396C670.509 253.583 663.312 248.01 655.718 240.65C647.756 232.933 637.369 228.716 626.101 228.792C609.283 228.903 607.034 239.575 611.853 253.25C617.596 269.519 625.937 328.94 628.513 328.94C654.917 328.94 667.798 324.261 668.885 294.246Z" fill="#FF9575"/>
<path d="M270.36 400.604C274.157 407.357 284.351 417.901 305.375 403.303C335.64 382.285 328.023 406.049 351.36 408.876C361.15 410.062 363.09 412.007 383.074 393.624C399.232 378.757 409.478 382.466 413.987 373.254C424.648 351.477 395.633 353.632 405.663 340.494C414.279 329.209 401.475 323.846 396.842 320.154C379.551 306.391 391.912 306.742 388.372 300.935C383.833 293.481 375.696 291.577 373.803 286.553C371.975 281.681 375.164 277.37 375.164 270.991C375.164 262.959 365.082 257.719 356.395 254.232C345.425 249.827 347.528 239.114 318.366 239.114C305.597 239.114 292.605 255.873 282.447 261.995C269.069 270.057 282.441 289.386 271.137 295.649C247.864 308.541 269.391 323.951 269.391 332.456C269.391 365.082 242.128 345.501 260.342 378.973C272.23 400.844 261.469 384.803 270.36 400.604Z" fill="#6894CD"/>
<path d="M35.5401 305.737C31.1356 304.428 27.5488 300.672 26.4448 296.215C25.8256 293.727 25.9366 291.115 25.4108 288.603C24.4002 283.808 21.1874 279.841 18.6872 275.629C16.187 271.418 14.3352 266.183 16.298 261.697C17.5013 258.946 19.9373 256.96 21.754 254.57C25.1187 250.137 26.2403 244.464 27.9402 239.16C29.6343 233.856 32.3798 228.353 37.4386 226.028C44.2324 222.909 52.5859 226.665 59.5607 223.966C62.0376 223.008 64.1405 221.303 66.3603 219.842C70.5487 217.091 75.3972 215.14 80.4093 215.122C85.4214 215.105 90.5737 217.237 93.477 221.326C95.5741 224.282 96.4211 228.055 98.8979 230.702C102.012 234.026 106.924 234.802 110.879 237.057C115.809 239.867 119.209 245.206 119.665 250.861C120.12 256.498 117.848 262.17 118.8 267.749C119.939 274.449 125.623 280.571 123.9 287.149C122.615 292.05 117.556 295.175 115.961 299.983C115.354 301.817 115.284 303.803 114.629 305.626C113.397 309.049 109.939 311.555 106.299 311.66" fill="#CA6D58"/>
<path d="M52.7088 331.533C57.0958 332.801 52.3466 337.883 58.9067 340.675C70.3328 345.535 68.2299 337.275 73.3705 337.059C78.5169 336.843 77.2084 341.721 87.6882 339.507C90.3403 338.946 92.5601 333.665 94.149 331.562C96.4914 328.472 99.8971 329.337 102.304 326.813C109.612 319.137 104.22 318.991 107.935 311.444C111.645 303.914 106.364 296.717 106.556 290.233C106.778 282.797 108.922 272.907 107.386 265.821C105.412 256.726 95.9306 249.067 87.6765 245.954C76.8929 241.882 64.6431 242.975 53.8596 247.058C49.0286 248.886 44.2677 251.416 41.1074 255.499C38.1866 259.273 36.8839 264.057 36.218 268.783C35.6163 273.071 35.4819 277.417 35.7507 281.739C36.218 289.129 37.8303 293.61 35.5287 305.731C32.7948 320.177 37.6901 327.187 52.7088 331.533Z" fill="#CA6D58"/>
<path d="M36.1888 263.789C38.6014 267.06 43.666 266.452 47.4046 264.863C51.1432 263.275 55.0571 260.985 58.9885 261.989C63.504 263.146 66.3372 268.328 70.9637 268.882C75.9524 269.478 80.024 264.402 85.0361 264.122C90.9828 263.794 95.7671 270.244 101.702 269.759C105.271 269.467 108.262 266.517 109.308 263.093C110.359 259.67 109.723 255.914 108.315 252.62C103.992 242.502 93.115 236.654 82.3607 234.341C71.8283 232.08 60.7293 232.501 50.3955 235.545C44.4721 237.291 38.6773 239.972 34.3428 244.365C30.0084 248.758 27.3154 255.067 28.3318 261.154" fill="#CA6D58"/>
</g>
<defs>
<linearGradient id="paint0_linear_25_11208" x1="353.899" y1="25.7055" x2="353.899" y2="617.572" gradientUnits="userSpaceOnUse">
<stop stop-color="#FCC0B4"/>
<stop offset="0.00349646" stop-color="#FCC0B4"/>
<stop offset="0.3411" stop-color="#FBD8AB"/>
<stop offset="0.6725" stop-color="#CAD8FC"/>
</linearGradient>
</defs>
</svg>
