<svg width="708" height="415" fill="none" xmlns="http://www.w3.org/2000/svg"><mask id="a" style="mask-type:alpha" maskUnits="userSpaceOnUse" x="0" y="0" width="708" height="415"><path fill="#C4C4C4" d="M0 0h708v414.752H0z"/></mask><g mask="url(#a)"><path d="M707.796 0H0v414.723h707.796V0z" fill="url(#b)"/><path d="M473.425 263.076H234.37a9.381 9.381 0 0 1-9.381-9.382V106.41c0-5.181 4.2-9.381 9.381-9.381h239.055c5.182 0 9.382 4.2 9.382 9.381V253.7c0 5.182-4.2 9.376-9.382 9.376z" fill="#FEF6E3"/><path d="M568.97 350.466c-1.121 3.499 2.898 4.247 6.222 5.807 3.324 1.559 39.419-31.609 48.187-49.42 1.548-3.149-1.046-5.982-4.007-7.863-4.977-3.154-11.415-9.551-17.403-9.656-4.13-.07-4.457 7.501-7.354 9.907-10.643 8.839-24.926 48.988-25.645 51.225z" fill="#5F5FF1"/><path d="M520.964 340.804c-2.991 10.065-8.897 36.457-8.897 36.457h103.735s-3.283-27.654-7.191-34.161c-3.914-6.502-87.647-2.296-87.647-2.296z" fill="#CA6D58"/><path d="M538.559 208.755C522.6 224.93 504.123 239.68 482.2 245.674c-4.726 1.291-10.492 1.892-13.863-1.665-1.968-2.08-2.576-5.176-2.173-8.009.404-2.833 1.7-5.462 3.132-7.939 11.268-19.51 9.299-15.258 24.47-29.342 6.8-6.315 47.685-25.913 57.639-23.682 10.369 2.331 2.856 13.681-.567 19.003-3.458 5.386-7.792 10.17-12.279 14.715z" fill="#6894CD"/><path d="M555.634 210.145c2.599-2.734 3.592-24.184 2.617-27.905-1.028-3.926 3.306-9.189-.508-9.609-12.799-1.426-46.406 8.02-63.972 26.088l28.905 42.842c16.771-3.283 19.697-17.472 32.958-31.416z" fill="#6894CD"/><path d="M452.437 161.245c-1.94-2.774-2.132-2.926-5.52-2.879-2.863.035-4.697 1.168-5.573 3.89-.882 2.722 15.988 72.038 27.765 82.372 5.929 5.199 9.107-.315 14.025-5.386 6.847-7.056-23.629-67.885-30.697-77.997z" fill="#F8BE7E"/><path d="M514.667 213.411c-4.533 7.74-.123 12.098-2.565 20.433-4.912 16.778-1.104 52.072 5.772 119.852 5.292 1.963 44.594-.321 91.678-7.629-2.658-8.511-9.884-35.604-7.583-56.722 1.49-13.681 1.309-2.611 4.329-15.071 1.618-6.671 12.81-16.946 19.826-22.21 2.413-.134-2.044.146-.006-.07 4.195-62.318-39.6-84.656-61.044-82.483-5.918.602-7.997-1.39-14.189.228-25.143 6.566-32.147 36.726-36.218 43.672z" fill="#6894CD"/><path d="M626.077 249.74c.182-20.498-3.499-34.466-14.58-51.71-1.998-3.102-4.93-6.467-8.587-5.964-1.992.274-3.675 1.729-4.709 3.452-1.034 1.729-1.518 3.715-1.974 5.678-2.605 11.356-6.496 32.789-5.433 51.984.666 11.987 10.422 32.573 11.047 36.154-1.128 7.319.695 19.937 4.498 18.337 3.061-1.285 15.053 2.588 16.467-.1 5.036-9.516 3.213-51.715 3.271-57.831z" fill="#5F5FF1"/><path d="m626.13 252.059-35.201 1.133c-3.581-18.81-.853-38.292.52-57.388.268-3.744 1.08-8.149 4.492-9.72 3.598-1.653 14.154 5.976 17.343 8.33-.005 0 17.946 23.448 12.846 57.645z" fill="#6894CD"/><path fill-rule="evenodd" clip-rule="evenodd" d="M520.801 134.397c1.063 2.162 2.675 1.73 2.786-.654.362-7.623.193-8.838 4.183-15.381 2.196-3.598 2.827-3.867 1.203-5.281-5.392-4.679-16.981 3.447-8.172 21.316z" fill="#CA6D58"/><path d="M541.159 153.716c3.435-10.959 12.986-19.739 17.682-16.66 3.832 20.118 3.085 21.502 6.239 32.455-1.741 11.613-21.316 10.609-24.646 4.989-.017-1.688-1.051-15.118.725-20.784z" fill="#F8BE7E"/><path d="M554.542 117.877c-6.952-10.187-22.765-9.737-29.383 1.613-6.064 10.398-2.22 33.706 1.881 38.823 7.173 8.949 24.587.771 27.408-5.275 4.13-8.862 5.941-26.597.094-35.161z" fill="#F8BE7E"/><path fill-rule="evenodd" clip-rule="evenodd" d="M550.225 120.67c-.619 1.7 1.618 25.165 2.278 24.955 2.348-.753 5.76-7.016 10.024-6.426 1.361.187 3.178 1.233 3.452-1.507 1.741-17.349 2.355-16.409-.613-18.255-6.537-4.065-14.037-1.805-15.141 1.233z" fill="#CA6D58"/><path fill-rule="evenodd" clip-rule="evenodd" d="M570.11 111.358c-13.372-11.105-36.318-16.753-43.368-13.336-10.498 5.082-4.487 22.496-.801 23.728 1.683.561 3.365-.665 4.907-1.542 7.32-4.165 13.237-.046 18.372 1.332 9.095 2.454 32.286-.718 20.89-10.182z" fill="#CA6D58"/><path d="M566.517 136.851c.041 2.827-1.075 5.649-3.032 7.693-5.596 5.842-10.018-3.026-8.412-8.189 1.916-6.163 11.339-7.191 11.444.496zM442.938 155.147c-5.269-3.084-11.899-7.29-15.147-9.236-.859-.514-1.671-1.255-2.553-1.612-.876-.356-1.893-.175-2.12.8-.292 1.251.806 2.728 1.764 3.762 4.661 5.036 8.301 10.27 22.017 10.632 1.945.053 1.892-3.628 3.826-4.293.006 0-7.349-.45-7.787-.053z" fill="#F8BE7E"/><path d="M428.971 147.366c.707-1.414 2.559-9.183-5.012-12.957-3.482-1.735 3.861-6.273 11.175-2.786 11.882 5.666 19.166 16.409 14.732 27.157-2.722 6.601-6.291 6.625-10.631 4.633-4.884-2.237-13.313-9.931-10.264-16.047z" fill="#F8BE7E"/><path d="M199.899 435.537c-3.312-12.6-17.238-84.248-17.197-98.618.04-14.37.257-13.979 9.872-23.775 12.296-12.524 32.97-18.518 38.805.362 20.51 66.39 2.436 177.012-2.856 202.055a729.806 729.806 0 0 1-4.714 20.743l-18.67 1.554c-.269-38.157-13.044-81.145-5.24-102.321z" fill="#FF9575"/><path d="M145.228 453.149c-4.13 5.17-9.843 10.632-15.492 8.973-3.429-1.011-5.719-4.551-6.595-8.383-.876-3.826-.567-7.956-.251-11.998 1.361-17.472 11.566-121.698 44.232-140.625 14.651-8.488 22.572 8.319 20.633 28.25-2.576 26.398-5.509 61.232-17.508 84.826-7.056 13.868-15.445 26.982-25.019 38.957z" fill="#FF9575"/><path d="M135.18 414.723c-8.26-.105-20.767-24.68 17.186-113.519 4.019-9.405 17.519-5.264 27.666-6.543 13.751-1.735 40.529-1.6 47.136 10.877 20.62 38.934-24.821 56.518-35.424 56.22l-9.048-8.991-9.937 8.085-1.635 22.046-35.944 31.825z" fill="#FF9575"/><path d="M209.649 209.123c-7.104-7.775-14.242-17.116-15.837-27.835-.496-3.347-.549-3.902 2.746-3.751 2.588.117 5.473 1.262 7.898 2.121 4.953 1.758 9.638 4.229 14.043 7.098 4.597 2.996 8.879 6.425 13.038 10.012l-14.58 19.856a173.574 173.574 0 0 1-7.308-7.501z" fill="#A9C1FA"/><path d="M230.164 197.457c2.337 1.759 4.621 3.575 6.899 5.392 12.513 9.989 16.923 17.84 29.436 27.835 1.186.941 2.43 1.992 2.617 3.482.298 2.36-2.36 4.731-5.053 5.333-2.687.596-5.304-.093-7.74-.835-18.337-5.608-26.819-12.501-40.476-24.254l14.317-16.953z" fill="#F8BE7E"/><path d="M301.981 183.233c.28-2.009.234-4.556-1.589-5.45-1.729-.847-3.704.485-5.141 1.776-12.156 10.842-41.37 46.937-39.43 53.999 1.805 6.59 6.204 8.459 11.578 4.323 10.941-8.412 33.449-46.592 34.582-54.648z" fill="#F8BE7E"/><path d="M295.462 170.609c1.337-3.925 4.071-7.588 7.968-9.019 3.125-1.151 6.647-.742 9.778.38 1.362.485 2.91 1.489 2.734 2.926-.152 1.28-1.554 1.934-2.517 2.787-2.197 1.951-2.214 5.292-3.132 8.073-1.01 3.084-3.341 5.713-6.279 7.103-2.331 1.098-8.056 2.349-9.791-.391-1.612-2.553.351-9.253 1.239-11.859z" fill="#F8BE7E"/><path d="M169.675 272.527c4.615-23.664-19.289-45.944-14.791-69.631 3.073-16.158 20.311-27.619 36.679-25.972 16.368 1.647 30.376 14.879 34.892 30.692 2.144 7.5 2.383 15.538.713 23.156-1.169 5.321-3.237 10.404-4.615 15.673-2.833 10.795-2.687 22.069-1.034 33.04 1.437 9.568 4.293 16.438 7.132 28.396-26.701-12.636-76.285-6.677-76.285-6.677 2.547-3.663 15.977-21.842 17.309-28.677z" fill="#A9C1FA"/><path d="M146.898 205.583c3.12-7.658 8.126-14.803 15.259-18.985 1.752-1.034 3.96-1.869 5.748-.906 1.682.9 2.26 3.003 2.564 4.89 1.981 12.378-.853 24.914-4.077 37.094l-23.997-5.941c1.069-5.509 2.389-10.959 4.503-16.152z" fill="#A9C1FA"/><path d="M141.238 228.932c.427-2.623.859-5.258 1.349-7.875l22.917 5.935c-.298 1.168-.59 2.325-.894 3.488-3.131 12.168-6.262 24.347-9.399 36.521-1.168 4.568-1.53 10.153-5.771 12.805-3.038 1.904-7.279 2.033-10.13-.327-2.471-2.051-3.738-5.369-4.048-8.657-.315-3.283.222-6.584.754-9.838 1.741-10.678 3.481-21.362 5.222-32.052z" fill="#F8BE7E"/><path d="M204.929 305.749c2.506 1.437 4.054 2.225 2.734 4.795-1.023 1.987-2.699 3.792-4.82 3.067-14.685-4.994-64.31-31.071-66.862-33.636-4.206-4.229-1.139-17.518 7.237-16.543 8.494.993 34.688 26.492 57.435 39.577" fill="#F8BE7E"/><path d="M206.185 297.933c4.2-1.712 8.4-3.429 12.594-5.141.964.204.999 1.7.31 2.407-.684.712-1.712.964-2.547 1.495-.83.532-1.472 1.694-.877 2.483.602.788 1.835.496 2.758.123 4.241-1.712 8.482-3.424 12.729-5.129 2.511 2.576 2.342 6.963.414 10.006-1.933 3.044-5.222 4.954-8.552 6.321a42.65 42.65 0 0 1-14.621 3.148c-2.892.106-6.023-.181-8.225-2.056-5.602-4.778 1.565-11.835 6.017-13.657z" fill="#F8BE7E"/><path d="M218.668 112.065c-1.583-5.205-6.145-9.393-11.467-10.521-5.321-1.127-11.192.842-14.75 4.954-1.811 2.097-3.119 4.732-5.473 6.192-3.102 1.91-7.074 1.239-10.667 1.823-5.456.882-10.258 5.041-11.899 10.328-3.33 10.696 11.595 32.099-1.274 44.962-3.61 3.61-5.403 7.957-7.833 12.437-15.662 28.922 17.659 36.451 28.191 21.871 11.946-16.532-3.768-19.511-1.986-34.378 1.034-8.604 21.082-7.792 24.248-15.86 1.735-4.428.643-9.44 1.513-14.107.853-4.557 3.494-7.594 6.712-10.696 2.407-2.319 4.212-6.029 4.931-9.236.572-2.558.514-5.257-.246-7.769z" fill="#6894CD"/><path d="M201.938 158.991a41.402 41.402 0 0 0-.485 18.29c.374 1.863.812 4.036-.421 5.485-1.174 1.39-3.271 1.402-5.082 1.303-3.037-.17-6.145-.351-8.972-1.467-2.834-1.121-5.404-3.359-6.105-6.32-.578-2.448.164-4.989.9-7.396 1.413-4.615 2.815-9.224 4.229-13.838.415-1.35.87-2.769 1.899-3.733 1.734-1.618 4.609-1.379 6.606-.105 2.004 1.279 3.33 3.347 4.598 5.35l2.833 2.431z" fill="#F8BE7E"/><path d="M211.039 157.735c1.782-2.904 2.459-6.327 3.102-9.674.876-4.603 1.735-9.276 1.343-13.944-.397-4.673-2.202-9.411-5.824-12.384-4.369-3.593-10.637-4.025-16.134-2.687-4.773 1.162-9.498 3.779-11.718 8.161-1.209 2.383-1.583 5.082-1.946 7.722-.473 3.435-.934 6.963-.169 10.346.847 3.744 3.166 7.033 6.017 9.609 2.851 2.57 6.221 4.498 9.627 6.268 1.968 1.022 3.995 2.015 6.192 2.342 4.364.666 7.366-2.26 9.51-5.759z" fill="#F8BE7E"/><path d="M194.595 127.463c-2.354 4.259-2.079 9.902-5.497 13.372-2.769 2.816-7.681 3.166-10.824.765-2.389-1.828-3.622-4.942-3.529-7.95.094-3.015 1.402-5.9 3.283-8.254 1.881-2.355 4.317-4.212 6.876-5.801 3.937-2.448 8.295-4.346 12.904-4.913 2.915-.356 5.923-.146 8.739.742 2.121.672 6.204 2.214 6.56 4.825.351 2.582-1.916 2.851-3.668 2.191-2.67-.993-5.1-1.426-7.922-.567-2.909.87-5.45 2.927-6.922 5.59z" fill="#6894CD"/><path d="M182.707 139.287c-.829-.38-1.705-.701-2.617-.742-.911-.047-1.875.216-2.512.87-.864.876-.993 2.249-.788 3.458.52 3.056 2.967 5.445 6.186 5.094 2.436-.263 3.552-2.342 3.312-4.685-.204-2.003-1.881-3.213-3.581-3.995z" fill="#F8BE7E"/><path d="M572.791 482.97c.625 6.823 5.146 83.681 4.34 83.681-83.465-.076-166.935-.911-250.382-2.512-8.003-.152-16.76-.596-22.712-5.947-6.806-6.116-7.512-16.379-7.46-25.527.187-32.812 4.002-65.595 11.286-97.584 3.464-15.211 9.014-30.125 11.491-45.418 2.044-12.641 11.391-20.971 22.729-26.649 10.603-5.305 22.303-7.91 33.706-11.158 5.888-1.676 12.513-4.375 18.103-6.402 13.891.765 23.407-8.295 36.896-9.066 15.404-.883 34.097-1.215 48.619 4.807 6.081 2.524 16.31 9.072 23.144 8.184 9.458 3.68 14.236 6.414 23.904 9.773 5.48 1.899 11.023 3.838 15.831 7.086 15.632 10.573 19.639 29.588 20.895 46.855 1.683 23.197 7.483 46.552 9.61 69.877z" fill="#A9C1FA"/><path d="M472.812 324.342c1.659 6.776 4.311 12.776 8.692 15.673 2.08 1.379 4.615 1.823 6.94 2.728 4.872 1.893 8.949 5.83 14.108 6.642-11.806 12.922-28.548 23.068-43.561 32.029-1.355.807-2.81 1.63-4.387 1.584-1.285-.041-2.471-.661-3.599-1.274a477.467 477.467 0 0 1-57.107-36.264c8.669-2.191 24.406-5.089 27.21-15.206 1.11-4.013-1.022-35.768-2.062-35.838l50.6 3.435c.461 6.227.864 17.104 3.166 26.491zM411.458 283.586c-.21 1.127-1.501 1.799-2.641 1.676-1.139-.123-2.126-.835-2.967-1.612-4.638-4.3-6.297-10.947-6.683-17.262-.076-1.233-.082-2.559.619-3.575.842-1.209 2.448-1.595 3.914-1.747a22.981 22.981 0 0 1 7.559.468M481.37 257.637a16.914 16.914 0 0 1 8.12-.199c.63.141 1.279.333 1.752.772.882.812.894 2.178.835 3.376-.169 3.721-.344 7.477-1.32 11.07-.975 3.592-2.839 7.062-5.812 9.3-1.729 1.302-3.756 2.138-5.754 2.955" fill="#F8BE7E"/><path d="M403.49 244.99c.298-5.065 4.954-4.889 9.329-5.45 13.938-1.776 28.04-3.248 42.094-2.237 6.934.496 13.839 1.606 20.51 3.598 6.403 1.91 6.42-2.436 9.475 4.463 7.18 16.222-2.132 25.884.146 28.922 5.118 6.823-1.314 32.537-19.271 39.892-1.063.882.724-8.073-5.421-2.53-4.632 4.183-11.21 8.313-11.21 8.313s-16.73-2.64-22.473-13.29c0 4.306 5.784 7.419 1.315 7.419-9.253 0-13.302-29.143-13.161-17.77.169 12.787-13.354-16.637-11.333-51.33z" fill="#B09632"/><path d="M484.898 245.27c-.134-3.598-1.121-6.343.094-9.866.747-2.167 1.904-4.959.379-7.349-4.059-6.367-6.051-9.224-4.398-11.525.555-.777 1.559-1.239 1.787-2.167.199-.806-.082-1.648-.426-2.395-2.401-5.205-8.073-8.284-13.745-9.102-5.673-.823-11.427.252-17.058 1.321a2651.74 2651.74 0 0 0 1.91-4.668c-15.503-3.984-33.256 4.101-40.423 18.413a21.51 21.51 0 0 0-7.285-7.068c-2.044 5.894-4.101 11.852-4.696 18.062-.526 5.485.841 10.877 2.453 16.064 20.977-.824 41.972-3.002 62.867-3.832 2.833-.117 6.321.666 9.049.169a33.631 33.631 0 0 0-9.388 2.594c1.426-.625 7.898 1.729 9.908 1.788 2.658.076 6.42.292 8.972-.339a.278.278 0 0 0 0-.1z" fill="#B09632"/><path d="M-60.04 551.72a649.16 649.16 0 0 1 10.608-109.272c5.737-31.294 16.053-57.552 47.831-68.458 7.846-2.693 15.703-5.392 23.752-7.395 28.08-6.999 57.984-5.328 85.755 2.804 21.608 6.326 43.111 17.437 54.975 36.574 11.303 18.237 7.939 38.04 14.429 57.189 6.852 20.229 6.606 42.731 6.706 64.029.14 28.56-.573 57.131-2.319 85.644-.193 3.137-.415 6.344-1.712 9.247-3.032 6.788-11.064 10.357-18.611 12.776-57.446 18.371-120.512 4.019-179.273-10.428" fill="#6894CD"/><path d="M51.149 314.575c1.186 9.995 1.706 20.06.783 30.084-1.537 16.631-11.55 17.157-20.247 19.465 7.039 11.151 25.025 19.826 38.192 20.568 13.167.742 31.486-5.521 39.735-15.808-6.455-.636-16.21-6.501-17.461-12.863-1.25-6.367-.093-20.673 1.402-26.988" fill="#F8BE7E"/><path d="M231.981 523.891a1083.82 1083.82 0 0 1 7.611-108.858c1.391-11.532 3.599-24.208 12.653-31.48 3.809-3.061 8.476-4.826 13.08-6.479a624.468 624.468 0 0 1 41.79-13.43c36.224-10.252 72.214-2.184 106.866 9.616 6.864 2.336 13.868 4.983 19.143 9.954 6.356 5.987 9.434 14.586 12.133 22.887a688.71 688.71 0 0 1 25.475 106.451" fill="#CA6D58"/><path d="M754.341 588.709c1.636-30.026 3.733-60.267 2.279-90.2-1.35-27.73-.269-52.913-14.622-78.119-24.143-42.416-82.179-54.45-128.375-52.761-15.842.578-30.241 8.651-45.576 7.559-6.934 1.618-15.34 3.131-22.215 4.755-9.569 2.26-19.756 5.146-25.989 12.746-4.13 5.035-5.97 11.514-7.624 17.811-6.764 25.826-15.375 53.112-14.75 79.749.666 28.297 3.862 56.465 4.644 84.762" fill="#B09632"/><path d="M668.388 290.642c.824-5.666 1.408-11.414.865-17.069-1.496-15.661-12.233-29.36-26.036-33.858-15.796-5.146-30.079 1.484-39.361 14.622-11.426 16.169-12.927 35.937-9.072 54.987 1.151 5.695 2.88 11.362 5.999 16.263 10.644 16.718 30.844 21.345 46.359 8.394 12.455-10.392 18.968-27.695 21.246-43.339z" fill="#F8BE7E"/><path d="M604.791 324.71c.035-1.145 1.203.111 1.25 1.25.257 6.455 3.225 12.116 2.857 18.471-.532 9.137-3.079 15.936-10.813 20.75-9.043 5.631-19.418 9.113-30.038 10 .917-.075 9.878 11.935 11.368 13.325a81.156 81.156 0 0 0 14.727 10.9c9.726 5.626 23.302 11.38 34.816 10.545 4.708-.345 9.626-2.384 14.271-3.359 5.911-1.233 11.63-3.202 17.016-5.941 10.737-5.462 19.482-12.881 25.709-23.221-7.793-2.961-16.602-4.936-25.294-6.735-7.337-1.519-15.907-3.4-19.044-10.205-1.548-3.359-1.472-7.226-1.086-10.906a73.587 73.587 0 0 1 5.707-21.643" fill="#F8BE7E"/><path d="M663.686 211.097c-.683-3.569-2.126-6.969-4.352-9.866-3.704-4.825-9.201-8.032-14.954-10.012-10.083-3.47-21.825-3.283-30.832 2.418-10.065 6.367-15.977 20.738-12.075 32.286 3.908 11.567 17.922 18.483 29.488 18.483 11.543 0 23.104-4.217 29.372-14.493 3.394-5.561 4.574-12.454 3.353-18.816z" fill="#FF9575"/><path d="M593.552 301.449c-3.762.117-7.115-2.792-8.576-6.262-1.46-3.47-1.378-7.384-.987-11.122.187-1.805.467-3.669 1.466-5.188 1.303-1.992 3.704-3.09 6.076-3.248 2.377-.163 4.737.509 6.928 1.443M663.277 305.538c2.12 2.185 9.025-2.979 10.345-5.725 1.075-2.243 3.283-12.267 2.401-14.592-1.116-2.956-2.985-4.603-6.093-5.17" fill="#F8BE7E"/><path d="M590.485 261.867c-12.332 60.892 22.064 67.073 38.034 67.073 15.971 0-.537-56.634.036-57.937 3.545-8.021-16.906-17.227-15.703-26.112.123-.905.222-1.904-.28-2.664-.532-.812-1.577-1.104-2.541-1.226-4.849-.614-19.359 19.937-19.546 20.866z" fill="#FF9575"/><path d="M668.885 294.246c5.514-8.762 7.191-19.843 4.515-29.85-2.891-10.813-10.088-16.386-17.682-23.746-7.962-7.717-18.349-11.934-29.617-11.858-16.818.111-19.067 10.783-14.248 24.458 5.743 16.269 14.084 75.69 16.66 75.69 26.404 0 39.285-4.679 40.372-34.694z" fill="#FF9575"/><path d="M270.36 400.604c3.797 6.753 13.991 17.297 35.015 2.699 30.265-21.018 22.648 2.746 45.985 5.573 9.79 1.186 11.73 3.131 31.714-15.252 16.158-14.867 26.404-11.158 30.913-20.37 10.661-21.777-18.354-19.622-8.324-32.76 8.616-11.285-4.188-16.648-8.821-20.34-17.291-13.763-4.93-13.412-8.47-19.219-4.539-7.454-12.676-9.358-14.569-14.382-1.828-4.872 1.361-9.183 1.361-15.562 0-8.032-10.082-13.272-18.769-16.759-10.97-4.405-8.867-15.118-38.029-15.118-12.769 0-25.761 16.759-35.919 22.881-13.378 8.062-.006 27.391-11.31 33.654-23.273 12.892-1.746 28.302-1.746 36.807 0 32.626-27.263 13.045-9.049 46.517 11.888 21.871 1.127 5.83 10.018 21.631z" fill="#6894CD"/><path d="M35.54 305.737c-4.404-1.309-7.991-5.065-9.095-9.522-.62-2.488-.508-5.1-1.034-7.612-1.01-4.795-4.224-8.762-6.724-12.974-2.5-4.211-4.352-9.446-2.389-13.932 1.203-2.751 3.64-4.737 5.456-7.127 3.365-4.433 4.486-10.106 6.186-15.41 1.694-5.304 4.44-10.807 9.499-13.132 6.793-3.119 15.147.637 22.122-2.062 2.477-.958 4.58-2.663 6.8-4.124 4.188-2.751 9.036-4.702 14.048-4.72 5.012-.017 10.165 2.115 13.068 6.204 2.097 2.956 2.944 6.729 5.42 9.376 3.115 3.324 8.027 4.1 11.982 6.355 4.93 2.81 8.33 8.149 8.786 13.804.455 5.637-1.817 11.309-.865 16.888 1.139 6.7 6.823 12.822 5.1 19.4-1.285 4.901-6.344 8.026-7.939 12.834-.607 1.834-.677 3.82-1.332 5.643-1.232 3.423-4.69 5.929-8.33 6.034" fill="#CA6D58"/><path d="M52.709 331.533c4.387 1.268-.362 6.35 6.198 9.142 11.426 4.86 9.323-3.4 14.464-3.616 5.146-.216 3.837 4.662 14.317 2.448 2.652-.561 4.872-5.842 6.461-7.945 2.342-3.09 5.748-2.225 8.155-4.749 7.308-7.676 1.916-7.822 5.631-15.369 3.71-7.53-1.571-14.727-1.379-21.211.222-7.436 2.366-17.326.83-24.412-1.974-9.095-11.455-16.754-19.71-19.867-10.783-4.072-23.033-2.979-33.816 1.104-4.831 1.828-9.592 4.358-12.753 8.441-2.92 3.774-4.223 8.558-4.889 13.284-.602 4.288-.736 8.634-.467 12.956.467 7.39 2.08 11.871-.222 23.992-2.734 14.446 2.161 21.456 17.18 25.802z" fill="#CA6D58"/><path d="M36.189 263.789c2.412 3.271 7.477 2.663 11.216 1.074 3.738-1.588 7.652-3.878 11.584-2.874 4.515 1.157 7.348 6.339 11.975 6.893 4.988.596 9.06-4.48 14.072-4.76 5.947-.328 10.731 6.122 16.666 5.637 3.569-.292 6.56-3.242 7.606-6.666 1.051-3.423.415-7.179-.993-10.473-4.323-10.118-15.2-15.966-25.954-18.279a65.243 65.243 0 0 0-31.966 1.204c-5.923 1.746-11.718 4.427-16.052 8.82-4.335 4.393-7.028 10.702-6.011 16.789" fill="#CA6D58"/></g><defs><linearGradient id="b" x1="353.899" y1="25.706" x2="353.899" y2="617.572" gradientUnits="userSpaceOnUse"><stop stop-color="#FCC0B4"/><stop offset=".003" stop-color="#FCC0B4"/><stop offset=".341" stop-color="#FBD8AB"/><stop offset=".672" stop-color="#CAD8FC"/></linearGradient></defs></svg>