<svg width="282" height="120" viewBox="0 0 282 120" fill="none" xmlns="http://www.w3.org/2000/svg">
<g clip-path="url(#clip0_76_10022)">
<path fill-rule="evenodd" clip-rule="evenodd" d="M56.3999 98.0734L141 119.85V44.8067L85.6966 27.5734L56.3999 98.0734Z" fill="#7070F3"/>
<path fill-rule="evenodd" clip-rule="evenodd" d="M56.4 41.36L0 112.173L56.4 98.0734L85.6967 27.5734L56.4 41.36Z" fill="#CACAFB"/>
<path fill-rule="evenodd" clip-rule="evenodd" d="M141 44.8067V119.85L225.6 97.1334L196.303 27.5734L141 44.8067Z" fill="#CACAFB"/>
<path fill-rule="evenodd" clip-rule="evenodd" d="M225.6 97.1334L282 112.173L225.6 41.36L196.303 27.5734L225.6 97.1334Z" fill="#7070F3"/>
<path fill-rule="evenodd" clip-rule="evenodd" d="M79.4301 42.6133L65.8001 48.2533L63.2935 52.1699L76.1401 50.4466L79.4301 42.6133Z" fill="#FFEB86"/>
<path fill-rule="evenodd" clip-rule="evenodd" d="M134.733 46.53L132.853 50.29L116.873 49.9767L94.3133 40.42L92.7467 40.89L96.1933 48.2534L79.43 42.6134L76.14 50.4467L84.7567 60.0034L92.59 63.45L92.2767 68.15L96.6633 71.91L97.4467 75.9834L90.71 69.8734L79.43 82.25L71.5967 83.5034L90.24 94.47L112.957 101.05L141 112.173V48.0967L134.733 46.53Z" fill="#CAAA2A"/>
<path fill-rule="evenodd" clip-rule="evenodd" d="M212.127 65.1733L212.91 64.86L211.5 63.45" fill="#5A8F2B"/>
<path fill-rule="evenodd" clip-rule="evenodd" d="M226.383 78.8033L227.48 76.14L214.79 71.2833L218.237 79.7433L226.383 78.8033Z" fill="#CAAA2A"/>
<path fill-rule="evenodd" clip-rule="evenodd" d="M214.79 71.2833H214.477H212.283L213.537 69.0899L206.487 67.9933L212.127 65.1733L211.5 63.4499L209.307 60.6299L202.413 58.4366L193.17 64.3899L193.64 60.1599L205.703 49.6633L203.04 41.3599L201.943 40.7333L187.687 42.4566L178.6 44.8066L162.62 47.4699L143.663 46.6866L141 48.0966V112.173L155.257 107.787V101.363L167.32 91.8066L189.567 89.6133L214.477 83.5033L217.923 79.8999L218.237 79.7433L214.79 71.2833Z" fill="#FFEB86"/>
<path fill-rule="evenodd" clip-rule="evenodd" d="M210.873 50.1333L210.09 44.4933L201.943 40.7333L205.703 49.6633L210.873 50.1333Z" fill="#CAAA2A"/>
<path fill-rule="evenodd" clip-rule="evenodd" d="M81.9367 67.0533L76.4534 70.1867V76.61L81.78 85.54H82.25L87.42 76.61V70.1867L81.9367 67.0533Z" fill="#E1000F"/>
<path fill-rule="evenodd" clip-rule="evenodd" d="M83.5032 72.5367H85.6966V71.2834L81.9366 69.2467L78.3333 71.2834V75.5134L81.9366 77.55L85.6966 75.5134V74.26H83.5032V72.5367Z" fill="white"/>
<path fill-rule="evenodd" clip-rule="evenodd" d="M83.5034 74.26V72.5367L81.9368 71.5967L80.3701 72.5367V74.26L81.9368 75.2L83.5034 74.26Z" fill="#000091"/>
<path fill-rule="evenodd" clip-rule="evenodd" d="M113.27 46.0601L107.787 49.1934V55.4601L112.957 64.39H113.583L118.753 55.4601V49.1934L113.27 46.0601Z" fill="#E1000F"/>
<path fill-rule="evenodd" clip-rule="evenodd" d="M114.837 51.3867H117.03V50.1333L113.27 48.0967L109.667 50.1333V54.3633L113.27 56.5567L117.03 54.3633V53.2667H114.837V51.3867Z" fill="white"/>
<path fill-rule="evenodd" clip-rule="evenodd" d="M114.837 53.2667V51.3867L113.27 50.4467L111.703 51.3867V53.2667L113.27 54.05L114.837 53.2667Z" fill="#000091"/>
<path fill-rule="evenodd" clip-rule="evenodd" d="M122.513 76.4534L117.03 79.5867V85.8534L122.2 94.94H122.827L127.997 85.8534V79.5867L122.513 76.4534Z" fill="#E1000F"/>
<path fill-rule="evenodd" clip-rule="evenodd" d="M124.08 81.78H126.117V80.6833L122.513 78.49L118.91 80.6833V84.9133L122.513 86.95L126.117 84.9133V83.66H124.08V81.78Z" fill="white"/>
<path fill-rule="evenodd" clip-rule="evenodd" d="M124.08 83.66V81.78L122.513 80.9967L120.947 81.78V83.66L122.513 84.6L124.08 83.66Z" fill="#000091"/>
<path fill-rule="evenodd" clip-rule="evenodd" d="M67.2099 31.49L61.7266 34.6233V41.0467L66.8966 49.9767H67.5232L72.6932 41.0467V34.6233L67.2099 31.49Z" fill="#E1000F"/>
<path fill-rule="evenodd" clip-rule="evenodd" d="M68.7767 36.9734H70.8134V35.72L67.21 33.6833L63.6067 35.72V39.95L67.21 41.9867L70.8134 39.95V38.6967H68.7767V36.9734Z" fill="white"/>
<path fill-rule="evenodd" clip-rule="evenodd" d="M68.7766 38.6967V36.9733L67.21 36.0333L65.6433 36.9733V38.6967L67.21 39.6367L68.7766 38.6967Z" fill="#000091"/>
<path fill-rule="evenodd" clip-rule="evenodd" d="M177.973 64.39L172.49 67.68V73.9467L177.66 82.8767H178.13L183.457 73.9467V67.68L177.973 64.39Z" fill="#E1000F"/>
<path fill-rule="evenodd" clip-rule="evenodd" d="M179.54 69.8734H181.577V68.62L177.973 66.5834L174.213 68.62V72.85L177.973 75.0434L181.577 72.85V71.7534H179.54V69.8734Z" fill="white"/>
<path fill-rule="evenodd" clip-rule="evenodd" d="M179.54 71.7533V69.8733L177.973 68.9333L176.407 69.8733V71.7533L177.973 72.5367L179.54 71.7533Z" fill="#000091"/>
<path fill-rule="evenodd" clip-rule="evenodd" d="M187.06 36.5033L181.577 39.6366V45.9033L186.903 54.99H187.373L192.543 45.9033V39.6366L187.06 36.5033Z" fill="#E1000F"/>
<path fill-rule="evenodd" clip-rule="evenodd" d="M188.627 41.83H190.82V40.7334L187.06 38.54L183.457 40.7334V44.9634L187.06 47L190.82 44.9634V43.71H188.627V41.83Z" fill="white"/>
<path fill-rule="evenodd" clip-rule="evenodd" d="M188.627 43.71V41.83L187.06 41.0466L185.493 41.83V43.71L187.06 44.65L188.627 43.71Z" fill="#000091"/>
<path fill-rule="evenodd" clip-rule="evenodd" d="M141 0L119.067 12.69V37.9133L141 73.6333L162.933 37.9133V12.69L141 0Z" fill="#E1000F"/>
<path fill-rule="evenodd" clip-rule="evenodd" d="M147.267 21.62H155.57V16.92L141 8.45996L126.43 16.92V33.6833L141 42.1433L155.57 33.6833V28.8266H147.267V21.62Z" fill="white"/>
<path fill-rule="evenodd" clip-rule="evenodd" d="M147.267 28.8267V21.6201L141 18.0167L134.733 21.6201V28.8267L141 32.5867L147.267 28.8267Z" fill="#000091"/>
<path fill-rule="evenodd" clip-rule="evenodd" d="M248.787 85.3833L247.063 82.25H249.257L252.86 88.0467L258.5 93.6867L258.187 96.6633L261.007 99.3267V103.4L247.533 94.94L240.327 85.8533L242.207 84.2867L248.787 85.3833Z" fill="#CAAA2A"/>
<path fill-rule="evenodd" clip-rule="evenodd" d="M249.1 74.4166L243.617 77.7066V83.9733L248.787 92.9033H249.413L254.583 83.9733V77.7066L249.1 74.4166Z" fill="#E1000F"/>
<path fill-rule="evenodd" clip-rule="evenodd" d="M250.667 79.9H252.703V78.6467L249.1 76.61L245.34 78.6467V82.8767L249.1 85.07L252.703 82.8767V81.78H250.667V79.9Z" fill="white"/>
<path fill-rule="evenodd" clip-rule="evenodd" d="M250.667 81.78V79.9L249.1 78.96L247.533 79.9V81.78L249.1 82.5633L250.667 81.78Z" fill="#000091"/>
</g>
<defs>
<clipPath id="clip0_76_10022">
<rect width="282" height="119.85" fill="white"/>
</clipPath>
</defs>
</svg>

