<svg width="526" height="208" viewBox="0 0 526 208" fill="none" xmlns="http://www.w3.org/2000/svg">
<path d="M375.39 46.332C403.081 50.7758 422.608 43.7482 423.257 40.6301L431.678 50.3903C431.083 55.0167 409.54 58.4527 402.432 57.9454C395.323 57.4381 382.675 56.5927 376.08 53.8939C374.105 53.0823 371.765 51.7295 371.94 49.5989C372.083 47.9147 373.733 46.0614 375.39 46.332Z" fill="#D38742"/>
<path fill-rule="evenodd" clip-rule="evenodd" d="M261.027 151.685L251.227 173.66C251.227 173.66 273.865 181.533 278.376 180.924C282.888 180.316 288.177 158.949 288.177 158.949L261.027 151.685Z" fill="#CE0500"/>
<path d="M198.077 100.057L163.994 182.237L262.603 207.608L262.61 120.125L198.077 100.057Z" fill="#4F7E26"/>
<path d="M163.987 116.114L98.25 198.673L163.994 182.237L198.077 100.057L163.987 116.114Z" fill="#7AC340"/>
<path d="M262.617 120.125L262.61 207.608L361.22 181.195L327.144 100.057L262.617 120.125Z" fill="#7AC340"/>
<path d="M361.227 116.114L327.144 100.057L361.22 181.195L426.971 198.673L361.227 116.114Z" fill="#4F7E26"/>
<path d="M190.799 117.589L174.918 124.17L172.043 128.776L186.971 126.835L190.799 117.589Z" fill="#FFEB86"/>
<path d="M255.326 122.12L253.175 126.564L234.399 126.246L208.135 115.113L206.282 115.688L210.293 124.156L190.813 117.582L186.971 126.834L196.995 137.9L206.126 141.992L205.815 147.471L210.908 151.874L211.835 156.582L203.962 149.365L190.806 163.866L181.621 165.273L203.36 178.043L229.901 185.733L262.604 198.673H262.611V124.027L255.326 122.12Z" fill="#CAAA2A"/>
<path d="M345.602 144.008L346.461 143.534L344.703 141.857" fill="#5A8F2B"/>
<path d="M362.059 159.835L363.445 156.629L348.599 151.13L352.725 160.964L362.059 159.835Z" fill="#CAAA2A"/>
<path d="M348.598 151.13L348.24 151.002H345.778L347.083 148.445L339.021 147.288L345.602 144.008L344.702 141.857L342.24 138.583L334.266 136.087L323.478 142.932L323.924 138.056L337.972 125.854L334.848 116.256L333.596 115.411L316.978 117.521L306.345 120.125L287.833 123.257L265.762 122.431L262.617 124.028H262.61V198.673L279.188 193.627V186.099L293.23 174.999L319.135 172.483L348.24 165.361L352.305 161.012L352.724 160.965L348.598 151.13Z" fill="#FFEB86"/>
<path d="M344.053 126.476L343.12 119.881L333.597 115.411L337.973 125.854L344.053 126.476Z" fill="#CAAA2A"/>
<path d="M388.289 167.471L386.239 163.866H388.857L392.956 170.576L399.523 177.083L399.246 180.573L402.425 183.792V188.459L386.733 178.564L378.468 168.107L380.517 166.267L388.289 167.471Z" fill="#CAAA2A"/>
<path d="M379.428 31.8303L355.721 36.8693L348.227 59.9203L357.594 99.015L388.153 72.8933L395.647 49.8423L379.428 31.8303Z" fill="#E1000F"/>
<path d="M378.718 53.4407L386.28 55.896L387.7 51.5334L376.919 39.5547L361.152 42.9028L356.174 58.2295L366.956 70.2082L382.722 66.8601L384.136 62.4907L376.574 60.0287L378.718 53.4407Z" fill="white"/>
<path d="M376.574 60.0288L378.718 53.4409L374.078 48.2869L367.3 49.7275L365.156 56.3222L369.796 61.4695L376.574 60.0288Z" fill="#000091"/>
<path d="M91.4936 141.248C90.4452 135.276 82.1528 118.062 82.7278 111.393C83.3027 104.73 84.0534 96.0253 88.8963 91.8521C95.0852 86.5154 103.865 82.6601 105.84 91.6424C112.793 123.229 102.877 163.927 99.4546 175.337C98.5077 178.496 97.5066 181.641 96.465 184.78H87.7465C89.0925 167.072 85.2506 156.331 91.4936 141.248Z" fill="#1B1B35"/>
<path d="M87.7468 184.78H96.4653C95.2411 188.453 93.9627 192.112 92.6168 195.744C92.1433 197.016 91.4737 198.47 90.175 198.849C88.5111 199.336 86.2926 197.868 86.5429 196.177C87.0637 192.626 87.4425 188.771 87.7468 184.78Z" fill="#794E43"/>
<path d="M68.6454 141.417C72.7239 139.273 73.0418 137.812 76.4575 131.427C82.2744 120.564 84.148 115.897 85.6022 103.635C86.7047 94.375 80.2791 82.8698 73.3733 86.6778C68.598 89.3089 74.0564 82.8766 68.8348 86.1367C57.3701 93.3063 57.2687 129.249 56.6938 134.843C55.9092 142.56 60.7182 145.374 68.6454 141.417Z" fill="#1B1B35"/>
<path d="M65.4528 126.855C74.9086 126.266 77.4518 137.318 68.6521 141.417C58.0262 146.368 46.4534 149.933 35.2187 153.206C32.2494 154.072 29.2666 154.884 26.2702 155.662L23.1318 147.308C38.7968 138.57 55.7874 127.457 65.4528 126.855Z" fill="#1B1B35"/>
<path d="M23.9299 146.632L27.0683 154.985C23.2535 155.98 19.4252 156.906 15.5766 157.758C14.2779 158.042 12.7358 158.259 11.7821 157.332C10.5646 156.142 10.7202 153.403 12.2623 152.686C15.9621 150.968 19.9054 148.878 23.9299 146.632Z" fill="#794E43"/>
<path d="M4.64672 156.338C5.7898 155.297 6.95993 154.241 8.37357 153.606C9.75338 152.983 11.0317 152.185 12.5198 152.476C12.1275 153.166 12.0328 154.674 12.4995 155.317C12.8715 155.824 16.0775 157.211 16.2804 157.806C16.4225 158.239 11.8502 162.764 12.0057 165.036C12.1613 167.309 12.9662 169.474 13.4938 171.685C13.6764 172.456 13.8252 173.254 13.6899 174.039C13.5546 174.817 13.0676 175.581 12.3169 175.845C12.2425 175.872 12.1816 175.872 12.1072 175.886L3.64568 165.165C3.81477 164.624 4.03798 164.096 4.26795 163.575C5.0796 161.715 5.89126 159.862 6.70291 158.002C4.6129 158.956 2.67169 160.227 0.94693 161.743L0 160.545C1.55567 159.145 3.09781 157.738 4.64672 156.338Z" fill="#1B1B35"/>
<path d="M88.0034 112.306C84.1548 112.259 53.3119 115.384 68.8484 86.1369C71.0804 81.9298 77.8307 81.6728 82.5518 81.0776C88.9503 80.2727 99.1907 81.5105 102.268 87.3206C111.866 105.448 92.9342 112.448 88.0034 112.306Z" fill="#1B1B35"/>
<path d="M103.864 50.5321C101.93 46.0275 100.225 40.8261 101.166 35.875C101.456 34.3261 101.524 34.0759 102.945 34.644C104.067 35.0904 105.156 36.0374 106.09 36.7881C107.997 38.3168 109.681 40.1227 111.176 42.0571C112.738 44.0795 114.098 46.2439 115.376 48.4557L105.927 54.9489C105.197 53.5014 104.507 52.0269 103.864 50.5321Z" fill="#F99090"/>
<path d="M115.323 48.2123C116.182 49.2674 118.407 54.7055 119.232 55.781C123.771 61.6925 119.584 59.0546 124.123 64.9662C124.555 65.5208 117.467 66.1093 116.52 65.3991C108.749 59.589 111.826 61.1108 106.963 54.2726L115.323 48.2123Z" fill="#794E43"/>
<path d="M146.564 63.6405C147.403 63.2009 148.35 62.4907 148.194 61.5573C148.046 60.6712 147.004 60.2925 146.125 60.0963C138.725 58.4459 117.149 57.2014 115.005 59.8528C113.002 62.3216 113.489 64.4928 116.513 65.4059C122.668 67.2524 143.216 65.3991 146.564 63.6405Z" fill="#794E43"/>
<path d="M150.393 65.4532C152.307 65.7237 154.404 65.3585 155.817 64.0463C156.954 62.9911 157.529 61.4422 157.718 59.9068C157.806 59.2372 157.711 58.385 157.082 58.155C156.521 57.9521 155.953 58.3918 155.398 58.615C154.126 59.1155 152.733 58.4188 151.387 58.2159C149.892 57.9859 148.309 58.3985 147.119 59.3252C146.172 60.0624 144.447 62.1727 145.218 63.4714C145.929 64.6821 149.128 65.2773 150.393 65.4532Z" fill="#5F5FF1"/>
<path d="M80.4147 59.1696C68.2872 79.1633 70.1743 84.5405 68.8486 86.1435C68.8486 86.1435 86.0489 99.9755 105.84 91.6493C104.074 82.0109 108.194 59.7039 108.944 57.2825C110.02 53.8126 109.485 48.6316 108.789 45.0671C107.321 37.5525 101.349 30.8631 93.8205 29.4495C86.2924 28.0359 82.7753 27.6368 80.7123 35.0093C80.7123 35.0093 92.5354 39.1758 80.4147 59.1696Z" fill="#F99090"/>
<path d="M84.7368 201.75C84.6286 200.208 84.5204 198.632 84.8991 197.131C85.2644 195.663 85.7987 194.168 86.9418 193.181C87.2394 193.918 88.0037 194.919 88.7951 194.953C89.4241 194.98 92.5422 193.661 93.1306 193.877C93.5568 194.033 94.2467 200.08 96.1202 201.365C98.0006 202.65 100.199 203.353 102.262 204.307C102.985 204.638 103.702 205.017 104.23 205.612C104.758 206.208 105.055 207.06 104.798 207.811C104.771 207.885 104.737 207.932 104.703 208H91.0406C90.7227 207.533 90.4454 207.026 90.1816 206.532C89.228 204.74 88.2743 202.954 87.3138 201.169C86.7659 203.401 86.563 205.707 86.6915 208H85.1629C85.0276 205.917 84.8788 203.827 84.7368 201.75Z" fill="#1B1B35"/>
<path d="M79.332 48.0024C77.871 44.4447 77.2014 40.4338 78.2024 36.7204C78.4459 35.8073 78.9059 34.8063 79.8122 34.5425C80.6644 34.2922 81.5437 34.7995 82.2607 35.3271C86.9548 38.7902 90.1067 43.8765 93.0084 48.9764L83.1062 54.8338C81.6655 52.6559 80.3263 50.4171 79.332 48.0024Z" fill="#F99090"/>
<path d="M85.075 57.6005C84.3648 56.5927 83.6478 55.5781 82.9512 54.55L92.4949 49.0443C92.779 49.5245 93.0563 50.0115 93.3336 50.4918C96.2623 55.5511 99.1978 60.6171 102.133 65.6832C103.236 67.5838 104.94 69.5521 104.399 71.818C104.014 73.4413 102.647 74.8684 100.929 75.0172C99.4413 75.1458 97.933 74.4558 96.7628 73.4616C95.5859 72.4741 94.6863 71.2025 93.8003 69.9512C90.8919 65.832 87.9834 61.7196 85.075 57.6005Z" fill="#794E43"/>
<path d="M121.113 7.28462C121.18 4.75497 119.78 2.23208 117.589 0.95372C115.404 -0.324635 112.523 -0.317871 110.345 0.974012C109.236 1.6301 108.275 2.60408 107.017 2.90169C105.367 3.28723 103.71 2.40793 102.039 2.13738C99.4957 1.72479 96.7699 2.86111 95.2683 4.95112C92.2246 9.18525 95.6741 20.8325 88.1055 24.627C85.9816 25.6889 84.5477 27.346 82.8162 28.9693C71.6492 39.4464 85.2647 47.6644 92.0555 42.7674C99.7595 37.2211 93.2595 33.5957 96.2288 27.2919C97.9468 23.6462 106.686 26.9469 109.269 23.8491C110.683 22.1514 110.94 19.7706 112.009 17.8361C113.057 15.949 114.667 14.9953 116.547 14.0958C117.947 13.4261 119.293 12.0531 120.085 10.7409C120.707 9.70606 121.079 8.5021 121.113 7.28462Z" fill="#1B1B35"/>
<path d="M106.827 25.5536C105.278 27.9615 104.284 30.7212 103.926 33.5619C103.817 34.4412 103.689 35.4626 102.931 35.9225C102.208 36.3622 101.281 36.0645 100.496 35.7534C99.1773 35.2326 97.8313 34.6983 96.7491 33.7852C95.6602 32.872 94.8553 31.5058 94.977 30.0989C95.0785 28.9355 95.7819 27.921 96.4583 26.9605C97.7569 25.1275 99.0556 23.3013 100.361 21.4683C100.747 20.934 101.152 20.3726 101.748 20.0953C102.749 19.6353 103.986 20.1629 104.683 21.0151C105.38 21.8741 105.664 22.9834 105.928 24.0521L106.827 25.5536Z" fill="#794E43"/>
<path d="M111.035 26.338C112.245 25.3167 113.05 23.9031 113.821 22.5233C114.883 20.6159 115.952 18.6814 116.459 16.5644C116.967 14.4405 116.865 12.0867 115.709 10.2402C114.308 8.00819 111.603 6.89892 108.979 6.68248C106.699 6.4931 104.23 6.9598 102.607 8.56282C101.721 9.43534 101.16 10.5784 100.612 11.6877C99.9016 13.1351 99.1778 14.6232 99.0155 16.2329C98.8396 18.0118 99.3808 19.8042 100.26 21.3599C101.139 22.9156 102.35 24.2616 103.595 25.5399C104.312 26.2772 105.062 27.0144 105.982 27.4879C107.822 28.4145 109.574 27.569 111.035 26.338Z" fill="#794E43"/>
<path d="M108.221 10.5515C106.557 12.0868 105.846 14.6233 103.831 15.6514C102.194 16.4901 99.9755 15.9219 98.9406 14.4001C98.1493 13.2435 98.0681 11.6878 98.5483 10.3688C99.0286 9.0499 100.036 7.9677 101.213 7.20339C102.39 6.43908 103.736 5.97915 105.102 5.64772C107.199 5.1472 109.404 4.94429 111.521 5.37041C112.86 5.64096 114.159 6.1753 115.275 6.98019C116.114 7.58893 117.69 8.86728 117.467 10.078C117.243 11.2684 116.202 11.0587 115.525 10.5109C114.491 9.67894 113.483 9.13107 112.11 9.09725C110.683 9.05667 109.262 9.59101 108.221 10.5515Z" fill="#1B1B35"/>
<path d="M101.234 14.0281C100.923 13.7373 100.584 13.4667 100.185 13.3179C99.7862 13.1624 99.3263 13.1421 98.9475 13.3314C98.4402 13.5885 98.1764 14.1769 98.0953 14.7451C97.8788 16.1722 98.6026 17.5859 100.077 17.9038C101.193 18.1473 101.991 17.3897 102.228 16.321C102.431 15.4012 101.863 14.6233 101.234 14.0281Z" fill="#794E43"/>
<path d="M149.824 39.0608L126.739 71.3781L143.182 107.537L197.759 144.434L205.808 79.0483L189.358 42.8959L149.824 39.0608Z" fill="#E1000F"/>
<path d="M172.875 65.974L184.738 60.5765L181.62 53.7247L155.336 51.1748L139.982 72.6633L150.919 96.7086L177.21 99.2585L192.557 77.7632L189.439 70.9115L177.576 76.309L172.875 65.974Z" fill="white"/>
<path d="M177.576 76.3091L172.875 65.974L161.566 64.8783L154.972 74.1176L159.673 84.4527L170.975 85.5552L177.576 76.3091Z" fill="#000091"/>
<path d="M132.841 75.3824C134.167 75.6124 134.965 75.7139 134.796 77.0463C134.66 78.0812 134.214 79.1363 133.172 79.1499C125.955 79.2919 100.104 75.7342 98.5823 75.0172C96.0729 73.8335 95.3086 67.5297 99.1302 66.6301C103.006 65.717 118.508 72.731 130.534 74.8549" fill="#794E43"/>
<path d="M136.081 73.1774C138.191 73.0692 140.294 72.961 142.405 72.8595C142.797 73.0962 142.581 73.7591 142.175 73.9688C141.762 74.1784 141.275 74.1311 140.829 74.2325C140.382 74.3408 139.922 74.7534 140.065 75.1862C140.207 75.6191 140.795 75.6868 141.255 75.6665C143.379 75.565 145.509 75.4703 147.633 75.3689C148.343 76.8907 147.593 78.7913 146.274 79.8262C144.955 80.8678 143.216 81.1992 141.546 81.2872C139.219 81.4089 136.865 81.1113 134.64 80.4214C133.355 80.0223 132.022 79.4136 131.346 78.257C129.608 75.2877 133.842 73.2924 136.081 73.1774Z" fill="#794E43"/>
<path d="M516.226 174.019C516.74 174.289 517.288 174.587 517.538 175.108C517.842 175.737 517.632 176.481 517.416 177.144C516.922 178.659 516.435 180.174 515.942 181.689C515.793 182.155 515.576 182.69 515.103 182.818C514.677 182.94 514.251 182.67 513.892 182.413C512.735 181.594 511.579 180.776 510.422 179.964C509.401 179.247 508.346 178.476 507.798 177.353C507.013 175.737 507.406 171.834 509.442 171.164C511.329 170.556 514.683 173.214 516.226 174.019Z" fill="#D38742"/>
<path fill-rule="evenodd" clip-rule="evenodd" d="M512.289 199.877C511.099 199.444 510.659 197.915 510.916 196.671C511.173 195.426 511.924 194.358 512.451 193.201C513.953 189.907 513.479 185.808 511.274 182.94C510.97 182.548 510.625 182.135 510.584 181.642C510.537 180.979 511.071 180.404 511.673 180.12C512.269 179.836 512.945 179.755 513.567 179.525C514.683 179.126 515.61 178.239 516.097 177.157C516.503 176.251 516.293 174.925 517.152 174.276C517.91 173.701 519.06 173.992 519.905 174.154C521.359 174.431 522.8 174.743 524.247 175.033C524.565 175.101 524.903 175.169 525.208 175.29L522.279 181.527C521.731 181.628 520.433 181.303 519.885 181.195C520.378 181.452 521.481 182.217 521.718 182.717L513.669 199.857C513.222 200.012 512.742 200.039 512.289 199.877Z" fill="#01015B"/>
<path fill-rule="evenodd" clip-rule="evenodd" d="M416.805 185.281C415.289 185.483 413.747 185.199 412.232 185.341C409.277 185.612 406.679 187.445 403.764 188.04C400.632 188.676 397.217 187.743 394.843 185.598C394.335 185.139 393.835 184.53 393.923 183.847C394.004 183.211 394.572 182.751 395.12 182.42C399.347 179.843 401.363 181.013 405.922 179.071C407.139 178.551 411.711 175.372 414.681 175.054C417.9 174.709 418.184 176.014 418.793 177.015C419.409 178.023 420.944 181.601 420.41 182.819C419.801 184.192 418.232 185.084 416.805 185.281Z" fill="#01015B"/>
<path d="M416.629 173.106C416.487 172.544 416.318 171.942 415.872 171.577C415.33 171.137 414.559 171.171 413.863 171.225C412.273 171.354 410.691 171.482 409.101 171.618C408.614 171.658 408.046 171.746 407.809 172.172C407.593 172.558 407.755 173.038 407.924 173.444C408.452 174.756 408.986 176.068 409.514 177.38C409.98 178.537 410.481 179.741 411.448 180.532C412.841 181.668 416.731 182.183 417.847 180.35C418.875 178.665 417.055 174.79 416.629 173.106Z" fill="#D38742"/>
<path d="M396.013 135.959C395.519 133.605 395.1 131.096 395.445 128.762L412.198 133.362C412.307 139.99 411.441 142.966 412.469 148.154C416.182 166.971 417.677 173.917 417.325 176.095C417.062 177.759 410.846 179.869 409.574 178.598C406.043 175.081 398.461 147.674 396.013 135.959Z" fill="#01015B"/>
<path d="M452.098 92.3528C455.669 94.0911 464.354 92.3055 466.633 95.5588C470.171 100.611 471.382 122.952 472.937 128.397C479.383 150.947 479.769 158.131 476.042 158.604C472.315 159.078 464.165 152.578 460.83 150.839C456.143 148.398 438.462 110.196 438.449 107.896C438.428 104.649 448.344 90.5198 452.098 92.3528Z" fill="#01015B"/>
<path d="M395.337 129.425C395.553 119.009 420.606 89.5255 431.827 87.5842C436.805 86.7185 452.592 88.68 455.108 92.6706C459.058 98.9474 454.553 104.23 449.514 108.011C441.479 114.031 433.031 119.496 424.238 124.352C419.646 126.889 410.237 131.725 412.07 135.999L395.796 132.354C395.492 131.407 395.316 130.433 395.337 129.425Z" fill="#01015B"/>
<path fill-rule="evenodd" clip-rule="evenodd" d="M434.411 32.3038C436.548 31.0593 444.036 37.2752 446.281 38.3101C447.972 39.0879 450.752 41.3673 450.508 43.525C450.258 45.757 446.491 47.6035 444.82 48.7263C439.896 52.0338 431.468 55.8283 430.731 56.0244L431.144 53.3595L429.142 54.4485L419.632 42.8012C425.104 39.0609 428.749 35.5978 434.411 32.3038Z" fill="#6A6AF4"/>
<path fill-rule="evenodd" clip-rule="evenodd" d="M442.183 25.1815C475.399 30.0717 468.683 94.6726 466.634 95.5519C454.797 100.652 436.954 93.374 431.827 87.5774C433.396 81.2262 436.379 57.0457 434.939 47.0759C434.445 43.6534 433.728 40.2377 433.762 36.7814C433.822 31.3433 435.581 24.2143 442.183 25.1815Z" fill="#6A6AF4"/>
<path d="M440.262 24.1129C440.938 24.4037 441.669 24.654 442.176 25.1816C444.895 27.9953 440.417 34.7794 436.427 34.7794C434.438 32.0671 430.292 29.0978 427.018 28.3267C426.159 28.1238 425.192 27.9479 424.678 27.231C424.137 26.4802 424.319 25.4386 424.576 24.5525C425.151 22.564 425.99 20.6498 427.059 18.8777C428.263 16.8756 428.567 15.489 430.414 17.0109C433.681 19.6894 436.285 22.3813 440.262 24.1129Z" fill="#D38742"/>
<path d="M426.869 7.39968C429.743 7.96784 432.523 10.1796 432.74 13.1016C432.868 14.8128 432.124 16.4632 431.401 18.0188C430.102 20.8055 428.81 23.5989 427.511 26.3856C426.734 28.063 423.25 30.9985 421.424 31.3097C417.508 31.9725 410.886 19.6557 412.063 12.4996C412.929 7.22383 422.242 6.49334 426.869 7.39968Z" fill="#D38742"/>
<path fill-rule="evenodd" clip-rule="evenodd" d="M436.433 11.938C436.988 13.4937 437.556 15.0967 437.488 16.7471C437.42 18.3975 436.575 20.129 435.04 20.7377C433.085 21.5156 430.954 20.2778 429.216 19.0874C427.106 17.6399 426.822 20.0749 424.711 18.6342C423.812 18.0187 421.072 13.5208 420.044 13.1623C417.569 12.3033 414.755 13.0879 412.273 12.2492C409.249 11.2278 407.389 7.58893 408.343 4.53846C409.29 1.48799 412.888 -0.453211 415.959 0.42608C418.198 1.06864 419.895 3.07748 422.195 3.51037C424.123 3.87561 425.036 2.65137 426.767 2.27936C432.199 1.12275 435.019 8.00152 436.433 11.938Z" fill="#01015B"/>
<path d="M430.129 14.2987C429.088 12.885 426.795 12.6956 425.462 13.8455C424.137 14.9886 426.835 20.5552 427.742 20.6093C430.265 18.6816 431.076 16.1452 430.129 14.2987Z" fill="#D38742"/>
<path d="M392.787 64.1206C398.631 66.5217 407.789 69.5045 414.079 68.8755C420.369 68.2465 426.653 64.8308 429.365 59.1221C430.623 56.464 432.064 53.0483 432.328 50.0992L446.342 57.0456C445.402 59.8729 444.259 62.6325 442.798 65.2501C438.828 72.3859 432.301 78.4733 424.326 80.2116C419.152 81.3412 413.7 80.5904 408.682 78.8994C403.663 77.2085 395.167 72.3318 390.568 69.7007C389.229 68.9364 391.468 63.5727 392.787 64.1206Z" fill="#D38742"/>
<path fill-rule="evenodd" clip-rule="evenodd" d="M431.59 50.5053C431.935 46.4132 432.638 42.1182 435.256 38.9595C441.228 31.7696 449.622 37.715 449.832 45.5948C449.913 48.6182 448.689 51.8581 447.979 54.7597C447.505 56.6807 446.971 58.5813 446.349 60.4616L430.731 56.0381C430.832 54.868 431.489 51.6619 431.59 50.5053Z" fill="#6A6AF4"/>
<path d="M386.063 59.5889C385.13 59.1966 382.005 58.8449 379.516 57.9453C377.94 58.8652 382.289 61.3948 383.114 61.334C381.498 62.5988 377.331 63.9921 374.017 62.308C374.024 62.7747 374.504 64.6415 374.842 64.9661C376.114 66.1836 378.089 66.4 379.367 67.6175C380.321 68.5306 380.449 69.4437 381.667 69.9646C383.615 70.7965 385.84 70.4448 387.91 69.9713C388.985 69.7278 390.074 69.4437 391.001 68.8553C396.128 65.5546 388.958 60.7996 386.063 59.5889Z" fill="#D38742"/>
<path d="M240.297 136.804L233.905 140.491V147.87L239.952 158.307H240.635L246.682 147.87V140.491L240.297 136.804Z" fill="#E1000F"/>
<path d="M242.124 143.128H244.545V141.728L240.297 139.28L236.043 141.728V146.632L240.297 149.087L244.545 146.632V145.239H242.124V143.128Z" fill="white"/>
<path d="M242.123 145.239V143.128L240.297 142.073L238.464 143.128V145.239L240.297 146.294L242.123 145.239Z" fill="#000091"/>
<path d="M299.677 130.859L293.292 134.545V141.924L299.338 152.354H300.021L306.068 141.924V134.545L299.677 130.859Z" fill="#E1000F"/>
<path d="M301.509 137.176H303.924V135.783L299.676 133.328L295.429 135.783V140.687L299.676 143.142L303.924 140.687V139.287H301.509V137.176Z" fill="white"/>
<path d="M301.509 139.287V137.176L299.676 136.121L297.85 137.176V139.287L299.676 140.342L301.509 139.287Z" fill="#000091"/>
<path d="M282.652 106.841L276.267 110.527V117.906L282.313 128.336H282.997L289.043 117.906V110.527L282.652 106.841Z" fill="#E1000F"/>
<path d="M284.478 113.158H286.9V111.765L282.652 109.31L278.404 111.765V116.669L282.652 119.117L286.9 116.669V115.269H284.478V113.158Z" fill="white"/>
<path d="M284.478 115.268V113.158L282.651 112.103L280.825 113.158V115.268L282.651 116.324L284.478 115.268Z" fill="#000091"/>
<path d="M269.002 165.05L262.61 168.743V176.115L268.657 186.552H269.34L275.387 176.115V168.743L269.002 165.05Z" fill="#E1000F"/>
<path d="M270.829 171.374H273.25V169.974L269.003 167.525L264.755 169.974V174.884L269.003 177.333L273.25 174.884V173.484H270.829V171.374Z" fill="white"/>
<path d="M270.829 173.484V171.374L269.003 170.319L267.177 171.374V173.484L269.003 174.54L270.829 173.484Z" fill="#000091"/>
<path d="M390.446 156.406L384.055 160.092V167.471L390.102 177.908H390.785L396.831 167.471V160.092L390.446 156.406Z" fill="#E1000F"/>
<path d="M392.273 162.73H394.694V161.33L390.446 158.875L386.199 161.33V166.234L390.446 168.689L394.694 166.234V164.834H392.273V162.73Z" fill="white"/>
<path d="M392.273 164.833V162.73L390.446 161.675L388.62 162.73V164.833L390.446 165.889L392.273 164.833Z" fill="#000091"/>
<path d="M354.93 40.1566C352.59 37.654 351.548 38.2627 349.945 42.0775C348.342 45.8923 351.426 49.6935 352.637 49.0915C353.848 48.4896 354.788 44.9724 354.788 44.9724C354.788 44.9724 358.941 46.4875 357.953 44.3434C356.966 42.1992 354.93 40.1566 354.93 40.1566Z" fill="#D38742"/>
<path d="M355.011 39.1217C355.511 37.5863 355.545 37.4714 355.545 37.4714C355.545 37.4714 353.482 37.1332 351.981 38.9053C350.479 40.6774 354.74 39.9604 354.74 39.9604L355.011 39.1217Z" fill="#D38742"/>
<path d="M476.13 140.294C477.286 143.893 508.129 165.862 510.922 169.663C511.849 170.921 510.124 178.07 507.676 178.097C505.234 178.124 483.651 166.301 475.061 161.587C471.767 159.774 463.684 153.267 460.823 150.832C457.962 148.397 458.679 145.645 457.712 142.012C456.359 136.906 475.277 137.65 476.13 140.294Z" fill="#01015B"/>
</svg>
