<svg width="199" height="96" viewBox="0 0 199 96" fill="none" xmlns="http://www.w3.org/2000/svg">
<path d="M1.70378 26.3513L0.145811 28.5031C-0.274974 29.137 0.29495 29.4565 0.840905 29.9865L1.91684 31.0332C2.12989 31.2409 2.48143 31.2063 2.64921 30.9613L4.30572 28.5377C4.44155 28.3407 4.40959 28.0717 4.23382 27.9119L2.43083 26.2634C2.20979 26.0636 1.86623 26.1062 1.70378 26.3513Z" fill="#03299B"/>
<path d="M186 10.6646L180.74 7L179 11.4209L183.36 14L186 10.6646Z" fill="#FA8D8E"/>
<path d="M193.717 17.6693L192.136 20.0582C191.768 20.6121 191.848 21.3498 192.322 21.8132L193.965 23.4165C194.269 23.7121 194.767 23.6642 195.006 23.3126L196.999 20.3991C197.19 20.1168 197.148 19.7386 196.895 19.5096L194.745 17.5415C194.439 17.2592 193.949 17.3204 193.717 17.6693Z" fill="#57FFE0"/>
<path d="M181 20.5281L184.491 24C184.491 24 187.76 20.3575 187.99 19.4692C188.22 18.5809 184.499 16 184.499 16L181 20.5281Z" fill="#C8DFFF"/>
<path d="M7.76717 18.5446C6.9541 18.8942 5.34276 19.5555 3.87925 19.985C3.68337 20.042 3.48011 19.9318 3.41358 19.7342L2.02029 15.584C1.95007 15.3712 2.06833 15.1393 2.27899 15.0785L6.0043 14.0144C6.18908 13.9611 6.38496 14.06 6.45887 14.2424L7.97043 18.0315C8.05174 18.233 7.95934 18.461 7.76717 18.5446Z" fill="#00CFFF"/>
<path d="M12.8812 35.2809L13.0144 32.8095C13.025 32.5991 12.8546 32.426 12.6442 32.434C11.784 32.4713 9.76529 32.5778 9.35516 32.8042C8.94503 33.0279 9.0702 34.8335 9.14477 35.6112C9.16341 35.8082 9.33918 35.9521 9.53626 35.9308L12.5616 35.6165C12.7348 35.5979 12.8706 35.454 12.8812 35.2809Z" fill="#D47A65"/>
<path d="M192.271 34.9486L195.24 33.9742C195.819 33.7826 196.136 33.1367 195.944 32.529L194.756 28.7792C194.579 28.2208 194.032 27.8978 193.485 28.0292L190.839 28.6697C190.261 28.812 189.896 29.4197 190.026 30.0273C190.23 30.9634 190.542 32.425 190.886 34.1001C191.026 34.7571 191.667 35.1457 192.271 34.9486Z" fill="#FA8D8E"/>
<path d="M184.191 30.1543L181.28 28.1303C180.892 27.8613 180.354 28.0051 180.154 28.4339L178.788 31.3527C178.62 31.7096 178.753 32.133 179.091 32.3328L181.509 33.7603C181.837 33.9547 182.255 33.8774 182.495 33.5792L184.354 31.2569C184.628 30.9133 184.556 30.4073 184.191 30.1543Z" fill="#FFE552"/>
<path d="M15 26.1838C15 26.1838 12.6086 27.1702 10.667 26.9742L9 22.6434L13.8093 22L15 26.1838Z" fill="#00CFFF"/>
<path d="M106.671 6.27611C105.462 5.87397 102.99 5.09099 100.703 4.60895C100.378 4.53971 100.056 4.73412 99.9677 5.04838L98.2926 11.1178C98.17 11.5599 98.4523 12.01 98.9077 12.1032L104.215 13.1791C104.722 13.283 105.228 12.9954 105.39 12.5133L107.169 7.26949C107.313 6.85935 107.089 6.4146 106.671 6.27611Z" fill="#B6CFFB"/>
<path d="M70.297 35.0465L72.5181 36.5406C73.136 36.9933 72.7072 37.494 72.377 38.1838L71.7245 39.5473C71.594 39.819 71.2504 39.9069 71.0054 39.7338L68.5979 38.0187C68.4008 37.8775 68.3369 37.6165 68.4488 37.4008L69.5806 35.2143C69.7164 34.9507 70.0573 34.8708 70.297 35.0465Z" fill="#03299B"/>
<path d="M61 12.6225L64.7673 7L68 10.7988L64.7174 15L61 12.6225Z" fill="#FA8D8E"/>
<path d="M91.1511 8.36683L93.0846 11.2324C93.532 11.8982 93.4361 12.7824 92.8555 13.339L90.8475 15.2618C90.4773 15.616 89.8701 15.5575 89.5772 15.1367L87.1457 11.6426C86.9113 11.3043 86.9646 10.8516 87.2708 10.5746L89.8941 8.21503C90.2722 7.87414 90.8688 7.94871 91.1511 8.36683Z" fill="#57FFE0"/>
<path d="M81.5554 10.9348L79.6486 15.1374C79.6486 15.1374 75.5686 12.9242 75.0679 12.2025C74.5699 11.4835 76.9747 8 76.9747 8L81.5554 10.9348Z" fill="#C8DFFF"/>
<path d="M115.071 11.6025C115.071 11.6025 112.716 12.2364 111.851 12.9634L112.485 15.7997C112.578 16.2152 112.999 16.4655 113.409 16.351C114.32 16.09 115.803 15.5867 116.384 14.9262L115.071 11.6025Z" fill="#D47A65"/>
<path d="M67.3765 26.2159C68.1755 26.2505 70.0477 26.3118 71.7149 26.1893C71.9279 26.1733 72.0904 25.9975 72.0877 25.7898L72.0025 21.3849C71.9972 21.1585 71.8001 20.9827 71.5711 21.0014L67.5257 21.3236C67.3233 21.3396 67.1662 21.502 67.1582 21.7018L67.001 25.8084C66.9851 26.0241 67.1555 26.2052 67.3765 26.2159Z" fill="#00CFFF"/>
<path d="M49.52 42.6558L48.0448 39.0316C47.9172 38.7239 48.0727 38.3699 48.3757 38.2646C49.6157 37.8474 52.5263 36.8992 53.224 37.0087C53.9218 37.1183 54.6833 39.8871 54.9824 41.0966C55.0581 41.4042 54.8827 41.7118 54.5956 41.7919L50.15 42.9845C49.8869 43.0478 49.6237 42.9129 49.52 42.6558Z" fill="#D47A65"/>
<path d="M96.3324 18.5455C97.0994 19.2326 98.439 20.3431 99.8292 21.0302C100.218 21.2246 100.695 21.1048 100.948 20.7559L102.578 18.5082C102.847 18.1407 102.783 17.6293 102.431 17.3364L99.6508 15.0141C99.2966 14.7184 98.7692 14.7451 98.447 15.0753L96.2925 17.2991C95.9463 17.656 95.9649 18.2152 96.3324 18.5455Z" fill="#E1000F"/>
<path d="M83.8493 24.8277L80.3883 24.9983C79.7146 25.0336 79.1444 24.5042 79.1272 23.8276L79.0005 19.6214C78.9832 18.9978 79.4381 18.4624 80.0543 18.386L83.0546 18.0095C83.7111 17.9271 84.3157 18.3918 84.4021 19.0566C84.5346 20.0743 84.7419 21.651 84.9895 23.457C85.0816 24.1571 84.5576 24.7924 83.8493 24.8277Z" fill="#FA8D8E"/>
<path d="M139.354 38.9472L135.887 37.9697C135.21 37.7796 134.842 37.1279 135.065 36.5251L136.455 32.7781C136.66 32.2241 137.3 31.8983 137.934 32.0286L141.021 32.6694C141.698 32.8106 142.12 33.4189 141.969 34.0271C141.734 34.9666 141.365 36.4219 140.967 38.0946C140.81 38.7571 140.067 39.1481 139.354 38.9472Z" fill="#FA8D8E"/>
<path d="M88.8968 35.1505L91.829 33.1105C92.2205 32.8388 92.7611 32.9853 92.9635 33.4167L94.3404 36.3569C94.5081 36.7164 94.3776 37.1425 94.0341 37.3449L91.5973 38.7831C91.267 38.9775 90.8462 38.9003 90.6066 38.602L88.7317 36.261C88.4574 35.9148 88.5319 35.4061 88.8968 35.1505Z" fill="#FFE552"/>
<path d="M116.914 22.1674C116.914 22.1674 114.189 21.2992 112.075 21.704L110.663 26.6842L116.011 26.9372L116.914 22.1674Z" fill="#60E0EB"/>
<path d="M119.271 41.132C120.482 40.9749 122.943 40.6153 125.116 40.0747C125.425 39.9975 125.62 39.6912 125.561 39.3796L124.4 33.3661C124.315 32.9294 123.878 32.6524 123.449 32.7642L118.424 34.0612C117.944 34.1864 117.633 34.6471 117.699 35.1398L118.418 40.4769C118.469 40.8923 118.85 41.1879 119.271 41.132Z" fill="#FFE552"/>
<path d="M128.57 22.0475C128.77 23.2539 129.215 25.7014 129.833 27.8533C129.921 28.1596 130.232 28.3433 130.544 28.2714L136.515 26.8999C136.949 26.8013 137.21 26.3539 137.082 25.9278L135.609 20.9503C135.468 20.4762 134.994 20.1806 134.507 20.2632L129.199 21.1687C128.781 21.2379 128.501 21.6321 128.57 22.0475Z" fill="#7672FF"/>
<path d="M59.3626 36.9954C59.3626 36.9954 62.0916 37.0994 63.9428 36.3133L64 32L59 32.965L59.3626 36.9954Z" fill="#00CFFF"/>
<path d="M127.646 12.5586L123.968 16.3403C123.968 16.3403 120.525 12.3721 120.283 11.4054C120.04 10.4387 123.96 7.62366 123.96 7.62366L127.646 12.5586Z" fill="#B6CFFB"/>
<path d="M131.59 11.9966L131.327 6.42254C131.303 5.93784 131.654 5.51706 132.136 5.44781C133.449 5.26139 135.998 4.92583 137.729 4.84061C138.059 4.82463 138.35 5.06165 138.398 5.38656C138.603 6.76077 139.071 10.3188 138.757 12.4147C138.709 12.729 138.438 12.958 138.118 12.9554L132.533 12.9021C132.03 12.8941 131.614 12.4973 131.59 11.9966Z" fill="#60E0EB"/>
<path d="M144.227 20.9317L150.081 17.7758C150.081 17.7758 148.459 13.7704 147.428 11.9807C147.428 11.9807 142.534 13.9009 140.944 15.5254L144.227 20.9317Z" fill="#E1000F"/>
<path d="M14.1551 15.5866C14.7112 14.6893 15.7048 13.2258 16.8169 12.2019C17.131 11.9129 17.5738 11.937 17.8672 12.2562L19.7413 14.2978C20.0502 14.6351 20.0863 15.1891 19.8289 15.5746L17.7746 18.6401C17.512 19.0316 17.0383 19.1159 16.6882 18.8328L14.3508 16.9297C13.9749 16.6165 13.8874 16.0142 14.1551 15.5866Z" fill="#DF000F"/>
<path d="M48.9728 30.9373C50.8956 30.101 55.0183 23.2913 55.3405 22.0902C56.3738 19.9862 53.8704 21.1421 53.2739 22.0129C52.2832 23.459 48.5068 25.2807 47.4015 27.3553C46.9435 28.5164 47.05 31.7735 48.9728 30.9373Z" fill="#F8BE7E"/>
<path d="M43.9713 18.9183C45.721 18.9902 49.4016 27.1662 49.7584 29.2329C50.1153 31.2995 47.5293 31.462 46.7197 30.8361C44.1231 29.2569 42.6903 24.6122 40.107 21.8558C39.4226 21.1261 41.159 19.0595 41.159 19.0595L43.9713 18.9183Z" fill="#F8BE7E"/>
<path fill-rule="evenodd" clip-rule="evenodd" d="M94.556 73.98L90.6971 82.6327C90.6971 82.6327 99.6108 85.7327 101.387 85.493C103.164 85.2533 105.246 76.8402 105.246 76.8402L94.556 73.98Z" fill="#CE0500"/>
<path d="M69.7697 53.6517L56.3472 86.0096L95.1766 95.9965L95.1792 61.5508L69.7697 53.6517Z" fill="#4F7E26"/>
<path d="M56.3472 59.9715L30.4636 92.4811L56.3472 86.0096L69.7697 53.6517L56.3472 59.9715Z" fill="#7AC340"/>
<path d="M95.1819 61.5507L95.1793 95.9965L134.006 85.5967L120.589 53.649L95.1819 61.5507Z" fill="#7AC340"/>
<path d="M134.009 59.9715L120.589 53.649L134.006 85.5967L159.895 92.4811L134.009 59.9715Z" fill="#4F7E26"/>
<path d="M66.9041 60.552L60.6509 63.146L59.519 64.9569L65.3967 64.1926L66.9041 60.552Z" fill="#FFEA85"/>
<path d="M92.311 62.3391L91.4641 64.0862L84.071 63.9637L73.7299 59.5774L73.0001 59.8038L74.5794 63.1407L66.9068 60.5521L65.3967 64.1927L69.3436 68.5497L72.9389 70.1609L72.8164 72.3181L74.8218 74.0519L75.1866 75.9054L72.0867 73.0665L66.9068 78.7737L63.2901 79.3303L71.8496 84.3558L82.3 87.3865L95.1766 92.4812L95.1792 92.4785V63.0875L92.311 62.3391Z" fill="#C9A92A"/>
<path d="M127.857 70.9572L128.195 70.7681L127.502 70.1077" fill="#5A8E2B"/>
<path d="M134.336 77.1863L134.882 75.9267L129.036 73.7615L130.661 77.6311L134.336 77.1863Z" fill="#C9A92A"/>
<path d="M129.036 73.7616L128.895 73.7083H127.926L128.44 72.7016L125.265 72.2489L127.857 70.9572L127.5 70.1077L126.533 68.8214L123.393 67.8386L119.145 70.5338L119.321 68.611L124.853 63.8092L123.62 60.0275L123.127 59.6946L116.586 60.5255L112.399 61.5508L105.11 62.7839L96.4176 62.459L95.1819 63.0875H95.1793V92.4785L101.707 90.4944V87.5276L107.233 83.16L117.436 82.1666L128.895 79.3623L130.496 77.6525L130.661 77.6312L129.036 73.7616Z" fill="#FFEA85"/>
<path d="M127.247 64.0542L126.879 61.455L123.127 59.6946L124.853 63.8092L127.247 64.0542Z" fill="#C9A92A"/>
<path d="M68.0972 71.796L65.5805 73.2475V76.153L67.9614 80.2623H68.2304L70.6113 76.153V73.2475L68.0972 71.796Z" fill="#E0000F"/>
<path d="M68.8163 74.286H69.7697V73.7347L68.0972 72.7679L66.4247 73.7347V75.6655L68.0972 76.6322L69.7697 75.6655V75.1169H68.8163V74.286Z" fill="white"/>
<path d="M68.8163 75.117V74.2861L68.0972 73.8706L67.3782 74.2861V75.117L68.0972 75.5324L68.8163 75.117Z" fill="#000090"/>
<path d="M82.4732 62.1179L79.9565 63.572V66.4749L82.34 70.5842H82.6063L84.9872 66.4749V63.572L82.4732 62.1179Z" fill="#E0000F"/>
<path d="M83.1922 64.608H84.1457V64.0567L82.4732 63.0927L80.8007 64.0567V65.9875L82.4732 66.9543L84.1457 65.9875V65.4389H83.1922V64.608Z" fill="white"/>
<path d="M83.1922 65.4389V64.608L82.4732 64.1925L81.7541 64.608V65.4389L82.4732 65.8543L83.1922 65.4389Z" fill="#000090"/>
<path d="M86.7076 76.0865L84.1936 77.5407V80.4435L86.5745 84.5528H86.8434L89.2243 80.4435V77.5407L86.7076 76.0865Z" fill="#E0000F"/>
<path d="M87.4267 78.5766H88.3801V78.0254L86.7076 77.0613L85.0351 78.0254V79.9588L86.7076 80.9229L88.3801 79.9588V79.4076H87.4267V78.5766Z" fill="white"/>
<path d="M87.4267 79.4076V78.5767L86.7076 78.1613L85.9886 78.5767V79.4076L86.7076 79.8231L87.4267 79.4076Z" fill="#000090"/>
<path d="M61.3007 55.4628L58.784 56.9142V59.8198L61.1649 63.9291H61.4339L63.8148 59.8198V56.9142L61.3007 55.4628Z" fill="#E0000F"/>
<path d="M62.0198 57.953H62.9732V57.4017L61.3007 56.4349L59.6282 57.4017V59.3325L61.3007 60.2992L62.9732 59.3325V58.7839H62.0198V57.953Z" fill="white"/>
<path d="M62.0198 58.7838V57.9529L61.3007 57.5375L60.5817 57.9529V58.7838L61.3007 59.1993L62.0198 58.7838Z" fill="#000090"/>
<path d="M112.117 70.5896L109.6 72.0437V74.9466L111.981 79.0559H112.25L114.631 74.9466V72.0437L112.117 70.5896Z" fill="#E0000F"/>
<path d="M112.836 73.0797H113.79V72.5284L112.117 71.5643L110.445 72.5284V74.4619L112.117 75.426L113.79 74.4619V73.9106H112.836V73.0797Z" fill="white"/>
<path d="M112.836 73.9107V73.0798L112.117 72.6643L111.398 73.0798V73.9107L112.117 74.3261L112.836 73.9107Z" fill="#000090"/>
<path d="M116.352 57.7557L113.838 59.2072V62.1127L116.218 66.222H116.487L118.868 62.1127V59.2072L116.352 57.7557Z" fill="#E0000F"/>
<path d="M117.071 60.2459H118.024V59.6946L116.352 58.7279L114.679 59.6946V61.6255L116.352 62.5922L118.024 61.6255V61.0742H117.071V60.2459Z" fill="white"/>
<path d="M117.071 61.0742V60.2459L116.352 59.8304L115.633 60.2459V61.0742L116.352 61.4896L117.071 61.0742Z" fill="#000090"/>
<path d="M95.1766 25.2382L80.4411 33.7471V50.7622L95.1766 74.8348L109.915 50.7622V33.7471L95.1766 25.2382Z" fill="#E0000F"/>
<path d="M99.3924 39.8219H104.977V36.5968L95.1766 30.9402L85.3787 36.5968V47.9127L95.1766 53.5694L104.977 47.9127V44.6876H99.3924V39.8219Z" fill="white"/>
<path d="M99.3924 44.6876V39.822L95.1766 37.3878L90.9634 39.822V44.6876L95.1766 47.1218L99.3924 44.6876Z" fill="#000090"/>
<path d="M144.664 80.1932L143.857 78.7737H144.885L146.499 81.4182L149.088 83.9776L148.976 85.3518L150.228 86.6221V88.4571L144.052 84.5608L140.797 80.4435L141.604 79.7191L144.664 80.1932Z" fill="#C9A92A"/>
<path d="M146.797 76.3901L144.281 77.8416V80.7471L146.661 84.8564H146.93L149.311 80.7471V77.8416L146.797 76.3901Z" fill="#E0000F"/>
<path d="M147.516 78.8801H148.47V78.3288L146.797 77.3621L145.125 78.3288V80.2596L146.797 81.2264L148.47 80.2596V79.7083H147.516V78.8801Z" fill="white"/>
<path d="M147.516 79.7084V78.8802L146.797 78.4647L146.078 78.8802V79.7084L146.797 80.1239L147.516 79.7084Z" fill="#000090"/>
<path d="M28.1546 41.441C26.5248 40.8924 26.0108 41.2759 26.072 41.3717C26.9162 42.6873 23.2357 41.7552 27.2225 42.8072C28.5914 43.1667 29.6913 42.8471 29.6913 42.8471C29.6913 42.8471 29.9629 42.0508 28.1546 41.441Z" fill="#F8BE7E"/>
<path d="M22.6951 87.0615L22.0799 87.7806L21.7789 90.4704L24.5487 90.4198L25.0307 88.0922L25.4195 86.2306L22.6951 87.0615Z" fill="#F8BE7E"/>
<path d="M24.9295 90.497C25.4595 92.5424 25.3343 93.5118 25.3343 93.5118C25.3343 93.5118 24.759 94.2468 23.281 94.1856L22.996 93.3919L22.6977 94.3613C20.7243 95.7968 17.2169 96.1297 16.0397 95.9592C15.4858 95.6823 15.5151 95.3946 16.1596 94.6756C20.0159 93.6289 19.707 91.7727 21.3129 91.1522C23.6538 90.2494 24.9295 90.497 24.9295 90.497Z" fill="#01015B"/>
<path fill-rule="evenodd" clip-rule="evenodd" d="M30.184 67.9424C29.6753 68.9944 28.9855 70.1822 27.9922 70.4724C27.305 70.6722 25.3822 69.3619 24.9987 68.8372C24.6152 68.3126 26.8177 43.4969 27.6912 41.9709C28.863 39.9256 37.3932 43.1241 37.055 46.6848C36.6236 51.2362 34.5782 54.9274 33.0096 59.4335C32.0722 62.1366 31.4463 65.3325 30.184 67.9424Z" fill="#01015B"/>
<path fill-rule="evenodd" clip-rule="evenodd" d="M25.2943 65.0183C26.6153 62.9384 29.7738 61.5269 31.0735 65.1595C33.0575 70.6989 26.5886 80.9975 25.5926 87.6661L22.1651 87.6448C22.0745 86.995 24.5619 66.1715 25.2943 65.0183Z" fill="#01015B"/>
<path d="M44.9061 87.0055L45.271 91.7407L42.9167 91.7833L41.8115 86.385L44.9061 87.0055Z" fill="#F8BE7E"/>
<path d="M17.7042 32.6845C17.7415 33.1931 18.2395 34.4688 18.7162 34.6419C18.9772 34.7351 19.2755 34.6659 19.5152 34.5221C19.7549 34.3782 19.9466 34.1652 20.1304 33.9521C22.2796 31.486 22.9827 28.0265 24.767 25.2861C25.3156 24.4445 25.8696 23.5896 26.1865 22.6389C26.5034 21.6881 26.5673 20.6149 26.1359 19.72C25.9122 19.2513 25.4088 18.6281 24.8416 18.5775C24.3835 18.5376 23.8429 19.0249 23.494 19.262C22.2556 20.1062 21.8854 20.2766 20.948 21.4484C20.4154 22.1169 17.4965 29.8588 17.7042 32.6845Z" fill="#F8BE7E"/>
<path d="M31.7339 17.2511C32.0935 16.6625 32.445 15.9168 32.1015 15.3176C31.7419 14.6865 33.7819 13.7969 33.0549 13.8555C24.2717 14.5506 22.2796 18.6227 20.9453 21.451L25.574 25.0596C28.1227 22.6308 29.8963 20.2525 31.7339 17.2511Z" fill="#6A6AF4"/>
<path d="M26.4768 41.3664C26.4315 41.8964 25.1931 42.4716 24.6605 42.4929C24.1279 42.5142 18.924 35.4994 18.0718 33.8349C17.8134 33.3289 17.5551 32.727 17.8028 32.2157C18.0238 31.7576 18.5698 31.5659 19.0705 31.4806C19.912 31.3368 20.9374 31.3235 21.7443 31.6458C22.3009 31.8668 22.3835 32.4261 22.6365 32.9081C23.5633 34.6845 26.5061 41.0255 26.4768 41.3664Z" fill="#F8BE7E"/>
<path fill-rule="evenodd" clip-rule="evenodd" d="M19.5418 93.3679C19.5072 92.766 19.6537 92.6462 19.9973 92.2547C20.4393 91.7487 20.6497 90.9524 21.1584 89.461C21.3901 88.7792 22.7537 88.5662 23.4594 89.7193C23.6884 90.0922 23.8988 90.3345 24.1465 90.3212C24.3542 90.3106 24.5806 89.9431 24.7857 90.1801C24.9668 90.3878 25.0227 90.9444 25.076 91.3386C25.1665 92.0204 24.9215 92.2707 25.0067 92.9551C25.0254 93.1069 25.044 93.2641 25.052 93.4212L23.0626 92.6702L19.6803 93.9592C19.6058 93.7994 19.5552 93.597 19.5418 93.3679Z" fill="#01015B"/>
<path fill-rule="evenodd" clip-rule="evenodd" d="M50.2405 93.9006C48.0407 93.6503 47.2817 93.0377 46.3416 91.85C45.9234 91.3226 46.1045 91.4958 45.5399 90.0257C45.2816 89.3519 44.5785 89.3173 43.9154 90.4944C43.6997 90.8779 43.5559 91.059 43.3082 91.0537C43.1004 91.051 42.5944 90.4837 42.4 90.7261C42.3414 90.798 42.2988 90.9125 42.2669 91.0457C42.2669 91.0483 42.2669 91.051 42.2642 91.0537C42.2536 91.0989 42.2429 91.1495 42.2349 91.2001C41.8195 93.1549 42.2802 94.0178 42.2802 94.0178C42.2802 94.0178 42.3255 94.7156 43.8009 94.601L44.3095 93.9219L44.8528 94.9552C46.8236 95.9273 51.146 95.5651 52.3178 95.3521C52.2885 94.0018 51.0341 93.9912 50.2405 93.9006Z" fill="#01015B"/>
<path d="M42.0059 41.2359C42.4293 42.0908 43.9607 62.5042 44.0645 64.3658C43.9633 66.6615 44.9061 87.0056 44.9061 87.0056L41.3215 87.4291C40.3201 78.3343 36.4372 70.8746 38.2748 64.6747C34.8579 57.2817 32.2373 50.171 32.2373 50.171C32.2373 50.171 28.6659 42.9031 29.4729 41.7206C30.2798 40.5382 34.3652 40.5355 34.3652 40.5355L42.0059 41.2359Z" fill="#01015B"/>
<path d="M25.7817 18.8384C25.06 19.9463 24.7031 22.5722 25.1186 23.7813C26.4022 27.5151 26.9855 28.0744 27.5794 30.7535C28.1733 33.4327 29.4623 37.7844 28.1227 40.2239C27.9416 40.5541 27.7472 40.7831 27.6459 41.132C27.4622 41.7685 27.2784 42.2612 27.5501 42.3757C27.8057 42.4849 41.1776 44.8392 41.7582 42.2079C41.8754 41.6806 42.0405 41.2945 41.8674 40.8231C40.7089 37.6645 40.3015 32.8282 41.2416 29.6057C42.1763 26.4072 42.3095 25.2461 41.6996 21.9304C40.3228 20.3112 38.5118 13.7544 33.0522 13.8529C29.2252 13.9248 26.4289 17.845 25.7817 18.8384Z" fill="#6A6AF4"/>
<path d="M32.7087 17.4269C32.2852 16.7904 31.8671 15.9782 32.224 15.3017C32.5968 14.588 34.1814 14.026 34.9857 14.0793C39.862 14.4015 43.9687 17.0328 46.8129 20.8731L40.368 26.2288C37.4492 23.6402 34.8632 20.676 32.7087 17.4269Z" fill="#6A6AF4"/>
<path fill-rule="evenodd" clip-rule="evenodd" d="M39.2149 6.41996C39.0657 6.8221 38.7728 6.77417 38.7089 6.35605C38.5065 5.0138 38.5118 4.79541 37.6862 3.70883C37.2308 3.11227 37.1136 3.07499 37.3773 2.79535C38.2455 1.87123 40.4453 3.09629 39.2149 6.41996Z" fill="#01015B"/>
<path d="M32.9378 4.11358C33.9817 2.18276 36.7887 1.97237 38.1683 3.86057C39.4306 5.58899 39.1776 9.78618 38.5464 10.7662C37.4412 12.4813 34.2081 11.3521 33.5982 10.3348C32.7061 8.84341 32.0616 5.73546 32.9378 4.11358Z" fill="#F8BE7E"/>
<path fill-rule="evenodd" clip-rule="evenodd" d="M33.7553 4.52907C33.8965 4.81936 33.9284 9.01389 33.8086 8.98726C33.3798 8.89671 32.6608 7.85008 31.9151 8.03384C31.678 8.09243 31.3744 8.31081 31.2759 7.82877C30.6501 4.79007 30.5595 4.96584 31.0495 4.585C32.1335 3.74876 33.5023 4.01241 33.7553 4.52907Z" fill="#01015B"/>
<path fill-rule="evenodd" clip-rule="evenodd" d="M30.0641 3.24543C32.2293 1.03498 36.1868 -0.384501 37.4971 0.0922112C39.4492 0.800621 38.7035 3.99379 38.0724 4.27875C37.7847 4.40925 37.4652 4.22283 37.1749 4.09499C35.8033 3.49045 34.8313 4.32935 33.9471 4.66758C32.3811 5.26414 28.2185 5.12831 30.0641 3.24543Z" fill="#01015B"/>
<path d="M31.1667 7.69029C31.212 8.19097 31.4597 8.67034 31.8432 8.99792C32.9404 9.93003 33.5609 8.27885 33.1828 7.39467C32.73 6.33738 31.0442 6.32939 31.1667 7.69029Z" fill="#D28642"/>
<path fill-rule="evenodd" clip-rule="evenodd" d="M39.2148 6.41996C39.0657 6.8221 38.7728 6.77417 38.7088 6.35605C38.5064 5.0138 38.5118 4.79541 37.6862 3.70883C37.2308 3.11227 37.1136 3.07499 37.3772 2.79535C38.2454 1.87123 40.4452 3.09629 39.2148 6.41996Z" fill="#01015B"/>
<path d="M35.6808 9.01658C34.8738 7.13903 33.3052 6.95527 32.5302 7.58645C32.6581 11.3575 32.9617 11.7277 31.8964 13.9968C33.3239 16.3457 36.1069 16.0421 36.834 14.3403C36.802 14.042 36.0989 9.98865 35.6808 9.01658Z" fill="#F8BE7E"/>
<path d="M32.9377 4.11358C33.9817 2.18276 36.7887 1.97237 38.1682 3.86057C39.4306 5.58899 39.1776 9.78618 38.5464 10.7662C37.4412 12.4813 34.2081 11.3521 33.5982 10.3348C32.706 8.84341 32.0615 5.73546 32.9377 4.11358Z" fill="#F8BE7E"/>
<path fill-rule="evenodd" clip-rule="evenodd" d="M33.7553 4.52907C33.8965 4.81936 33.9284 9.01389 33.8086 8.98726C33.3798 8.89671 32.6607 7.85008 31.915 8.03384C31.678 8.09243 31.3744 8.31081 31.2759 7.82877C30.65 4.79007 30.5595 4.96584 31.0495 4.585C32.1334 3.74876 33.5023 4.01241 33.7553 4.52907Z" fill="#01015B"/>
<path fill-rule="evenodd" clip-rule="evenodd" d="M30.0641 3.24543C32.2293 1.03498 36.1868 -0.384501 37.4971 0.0922112C39.4492 0.800621 38.7035 3.99379 38.0724 4.27875C37.7847 4.40925 37.4652 4.22283 37.1749 4.09499C35.8033 3.49045 34.8313 4.32935 33.9471 4.66758C32.3811 5.26414 28.2185 5.12831 30.0641 3.24543Z" fill="#01015B"/>
<path d="M31.1667 7.69029C31.212 8.19097 31.4596 8.67034 31.8431 8.99792C32.9404 9.93003 33.5609 8.27885 33.1827 7.39467C32.73 6.33738 31.0442 6.32939 31.1667 7.69029Z" fill="#F8BE7E"/>
<path d="M27.606 46.0164C24.8283 45.2733 24.5593 42.3065 24.5593 42.3065L26.57 41.4197C26.57 41.4197 26.7351 42.2692 28.3197 42.7087C29.8564 43.1348 30.8231 46.8792 27.606 46.0164Z" fill="#F8BE7E"/>
<path d="M163.844 30.1331C162.843 30.956 156.8 37.7631 152.808 41.6461C150.936 43.465 152.47 43.8272 154.718 42.4424C156.965 41.0602 160.129 38.8923 162.497 36.0027C167.232 30.2263 166.465 29.8854 164.992 28.1543C163.517 26.4259 163.844 30.1331 163.844 30.1331Z" fill="#794E43"/>
<path d="M159.096 12.817C161.317 16.0847 153.359 17.2192 156.923 23.4804C159.344 27.7335 163.594 19.5229 163.594 19.5229L164.353 16.5215L164.516 14.303L164.023 11.5839L163.466 4.92593C165.424 5.1017 168.231 4.25747 168.231 4.25747C162.111 -2.86125 155.173 7.04583 159.096 12.817Z" fill="#161616"/>
<path d="M186.753 56.7224C185.733 57.508 183.451 55.231 184.692 54.0725C185.93 52.914 190.873 50.5438 191.741 50.4799C192.61 50.4159 193.709 51.3667 186.753 56.7224Z" fill="#794E43"/>
<path d="M162.505 84.0229C164.273 84.441 164.332 88.0923 164.185 90.1988C164.079 91.7222 163.314 92.0844 162.899 92.1696C162.747 92.2016 162.601 92.111 162.547 91.9645C162.055 90.577 159.629 83.3438 162.505 84.0229Z" fill="#794E43"/>
<path d="M168.91 39.1879C177.198 41.5102 177.184 51.7129 176.191 64.0541C176.026 65.5215 169.754 68.2753 168.907 65.9716C166.88 60.4615 166.928 59.9927 164.635 55.0925C162.747 51.0577 161.336 47.6914 160.334 45.1508C158.965 41.67 161.245 39.5847 161.245 39.5847L168.91 39.1879Z" fill="#1B1B35"/>
<path d="M169.365 62.4429C174.297 58.7464 177.451 57.4708 186.985 52.2855C186.985 52.2855 188.46 52.3974 188.775 56.1365C186.466 57.6359 180.71 63.146 174.124 67.4791C169.221 70.7068 167.674 63.708 169.365 62.4429Z" fill="#1B1B35"/>
<path d="M170.726 39.3929C170.726 39.3929 161.005 42.8817 158.595 42.3118C155.735 49.7528 157.037 59.9821 157.173 65.21C158.739 71.7401 164.191 67.9131 163.621 67.9397C163.543 67.9424 164.252 65.202 164.265 65.1247C165.28 59.6492 165.432 54.8927 166.508 50.9459C167.879 45.9231 172.937 47.7314 170.726 39.3929Z" fill="#1B1B35"/>
<path d="M157.173 65.21C157.61 73.0664 160.673 82.9496 160.67 86.4969C160.67 86.5715 162.966 86.686 164.215 85.4823C164.281 85.4183 164.31 85.3198 164.302 85.2266C163.514 76.5712 164.856 71.4765 164.02 66.2087C164.007 66.1315 160.537 64.0622 157.173 65.21Z" fill="#1B1B35"/>
<path fill-rule="evenodd" clip-rule="evenodd" d="M190.871 49.0498C190.388 49.3534 189.957 49.7316 189.584 50.163C189.206 50.5998 188.817 51.0073 188.769 51.5852C189.097 51.5053 189.723 51.6384 189.933 51.9021C190.098 52.1125 190.295 53.5799 190.516 53.729C190.676 53.8356 193.049 52.4907 193.957 52.8129C194.865 53.1351 195.656 53.7131 196.498 54.1844C196.791 54.3496 197.102 54.5014 197.435 54.536C197.795 54.5706 198.194 54.4401 198.37 54.1152C198.37 54.1099 198.37 54.1072 198.37 54.1019L194.964 49.42C194.724 49.4253 194.482 49.4573 194.245 49.4919C193.393 49.6091 192.543 49.7289 191.691 49.8461C192.319 49.1031 193.06 48.4559 193.877 47.9286L193.496 47.4066L190.871 49.0498Z" fill="#1B1B35"/>
<path fill-rule="evenodd" clip-rule="evenodd" d="M165.221 93.0058C165.283 92.127 165.195 91.2348 164.872 90.4172C164.84 90.3346 164.803 90.2521 164.758 90.1749C164.651 89.9858 164.388 89.9565 164.241 90.1163C164.047 90.3293 163.77 90.5157 163.551 90.5237C163.296 90.5344 162.047 89.8553 161.804 89.9432C161.631 90.0071 161.333 92.6063 160.569 93.1257C159.804 93.6477 158.909 93.9326 158.071 94.3214C157.778 94.4573 157.485 94.6091 157.269 94.8514C157.037 95.1098 156.915 95.4932 157.067 95.8155C157.069 95.8182 157.075 95.8208 157.077 95.8208L162.46 95.8262C162.566 95.8262 162.67 95.7729 162.726 95.6823C162.816 95.5359 162.902 95.3814 162.982 95.2296C163.232 94.7635 163.48 94.2975 163.73 93.8341C163.871 93.5678 164.276 93.6343 164.318 93.9326C164.393 94.4519 164.425 94.9792 164.412 95.5039C164.406 95.6823 164.547 95.8315 164.726 95.8315C164.891 95.8315 165.03 95.7036 165.04 95.5385C165.104 94.689 165.163 93.8474 165.221 93.0058Z" fill="#1B1B35"/>
<path d="M157.237 23.9518C156.904 27.3687 160.84 36.4422 160.864 36.3756C160.888 36.309 160.976 29.7629 160.976 29.7629L160.353 24.6096L157.237 23.9518Z" fill="#794E43"/>
<path d="M165.096 19.2273C165.466 19.1554 168.705 17.3684 168.705 17.3684C166.494 16.6254 163.788 16.7798 160.862 17.4696C160.529 17.5468 159.266 18.431 158.88 18.5508L165.096 19.2273Z" fill="#794E43"/>
<path d="M158.718 24.8573C157.977 24.8626 156.83 24.5537 156.843 24.0051C157.375 19.2699 158.718 17.8238 160.862 17.4696C160.862 17.4696 161.16 18.4843 163.802 18.4843C167.232 18.4843 167.775 16.7399 169.309 17.6693C170.843 18.5988 169.909 20.5403 170.849 25.3127C171.789 30.0851 165.711 33.7524 173.048 41.5236C170.814 42.1974 161.322 44.6049 158.451 43.0309C159.461 37.2651 159.874 37.8617 159.876 33.3502C159.879 30.1943 158.238 27.6244 158.718 24.8573Z" fill="#F99090"/>
<path d="M169.344 24.5669C169.344 24.9185 167.187 34.3595 168.915 35.6698C171.488 37.6219 174.204 26.4844 173.4 25.057C172.596 23.6321 169.344 24.5669 169.344 24.5669Z" fill="#794E43"/>
<path d="M167.842 17.3684C174.785 17.0941 174.1 26.4046 174.1 26.4046C174.1 26.4046 170.942 26.9026 168.705 26.7002C166.468 26.5005 166.934 21.0995 166.934 21.0995L167.842 17.3684Z" fill="#F99090"/>
<path d="M169.842 32.6764C168.79 32.245 160.832 31.7123 156.177 30.3035C153.996 29.643 154.473 31.5685 156.478 32.7723C158.483 33.976 161.36 35.1319 164.569 35.6645C170.99 36.7298 170.931 35.9015 171.648 33.7523C172.361 31.6058 169.842 32.6764 169.842 32.6764Z" fill="#794E43"/>
<path d="M165.738 12.0712C163.666 14.7504 160.955 14.4361 160.353 11.1977C159.836 8.41464 160.238 4.50241 163.488 4.95249C166.83 5.41322 166.209 7.77548 166.579 7.58106C166.95 7.38665 167.978 9.61575 165.738 12.0712Z" fill="#794E43"/>
<path d="M166.747 10.5852L167.04 16.7984L162.571 17.3977L163.389 12.6492L166.747 10.5852Z" fill="#794E43"/>
<path d="M163.964 1.67947C167.658 1.28798 172.066 2.1988 171.184 11.1498C170.955 13.4748 171.653 14.4761 172.897 15.4349C177.227 18.7719 174.204 23.2221 171.994 24.3007C165.432 27.4938 160.827 22.0023 164.404 15.8397C164.992 14.8277 165.213 13.283 166.417 11.0832C166.319 7.71694 163.639 8.68101 162.872 5.4985C161.892 5.24549 160.47 6.40931 160.204 8.32415C159.208 4.34267 160.683 2.02835 163.964 1.67947Z" fill="#161616"/>
<path d="M165.557 10.0365C165.482 9.06176 166.795 7.47183 167.264 8.42526C167.733 9.38134 166.947 11.2269 166.01 11.147C165.072 11.0671 165.557 10.0365 165.557 10.0365Z" fill="#794E43"/>
<path d="M153.61 29.7096C152.422 29.7336 151.232 29.7576 150.044 29.7816C149.828 29.9067 149.966 30.2023 150.204 30.2849C150.441 30.3675 150.715 30.3275 150.968 30.3595C151.221 30.3941 151.493 30.5672 151.423 30.7749C151.354 30.9827 151.026 31.0306 150.765 31.0386C149.567 31.0679 149.245 31.1424 148.046 31.1717C147.687 31.8988 148.249 32.9241 149.016 33.3582C149.783 33.7923 150.56 33.6325 151.506 33.6166C152.819 33.5926 153.828 32.6525 155.064 32.2557C155.778 32.0266 156.055 32.4581 156.406 31.8961C157.304 30.4607 154.869 29.683 153.61 29.7096Z" fill="#794E43"/>
<path d="M153.066 44.7326C152.206 45.5529 151.343 46.3732 150.483 47.1934C150.243 47.2574 150.132 46.9484 150.241 46.7221C150.35 46.4983 150.574 46.3332 150.731 46.1308C150.888 45.9284 150.957 45.6142 150.763 45.5156C150.568 45.4171 150.299 45.6142 150.11 45.7926C149.239 46.6155 148.877 47.1135 148.006 47.9365C147.239 47.6728 147.673 46.5276 147.911 45.6781C148.15 44.8285 148.691 44.2586 149.373 43.6061C150.323 42.698 151.149 42.4902 152.307 41.9017C152.976 41.5634 152.869 41.0601 153.514 41.2119C155.162 41.5981 153.98 43.8644 153.066 44.7326Z" fill="#794E43"/>
<path d="M55.5456 18.6334C56.2433 17.1873 56.8346 17.0941 56.8585 17.2006C56.8825 17.3045 57.7187 17.7545 57.0636 18.905C56.4111 20.0529 55.479 20.5775 55.479 20.5775C55.479 20.5775 54.7706 20.2393 55.5456 18.6334Z" fill="#F8BE7E"/>
<path d="M54.7146 21.1847C55.1115 21.238 55.2366 21.9411 55.5429 21.8266C58.27 20.8039 58.531 21.0596 59.4445 20.3245C61.0584 19.0275 61.5883 17.4136 60.3739 17.0701C58.3579 16.4975 56.0169 19.0142 56.0169 19.0142C56.0169 19.0142 53.4257 21.9571 54.7146 21.1847Z" fill="#F8BE7E"/>
</svg>
