<svg width="243" height="96" viewBox="0 0 243 96" fill="none" xmlns="http://www.w3.org/2000/svg">
<path d="M173.257 21.3841C186.037 23.4351 195.05 20.1916 195.35 18.7524L199.236 23.2571C198.962 25.3924 189.019 26.9782 185.738 26.7441C182.457 26.51 176.619 26.1198 173.575 24.8742C172.664 24.4996 171.584 23.8752 171.665 22.8919C171.731 22.1146 172.492 21.2592 173.257 21.3841Z" fill="#D38742"/>
<path fill-rule="evenodd" clip-rule="evenodd" d="M120.475 70.0083L115.951 80.1509C115.951 80.1509 126.4 83.7846 128.482 83.5036C130.564 83.2227 133.005 73.3611 133.005 73.3611L120.475 70.0083Z" fill="#CE0500"/>
<path d="M91.4199 46.1799L75.6895 84.1091L121.201 95.8188L121.205 55.4422L91.4199 46.1799Z" fill="#4F7E26"/>
<path d="M75.686 53.591L45.3457 91.695L75.6891 84.1091L91.4196 46.1799L75.686 53.591Z" fill="#7AC340"/>
<path d="M121.208 55.4422L121.205 95.8188L166.717 83.6284L150.99 46.1799L121.208 55.4422Z" fill="#7AC340"/>
<path d="M166.72 53.591L150.989 46.1799L166.717 83.6284L197.063 91.695L166.72 53.591Z" fill="#4F7E26"/>
<path d="M88.0609 54.2716L80.731 57.3091L79.4043 59.435L86.294 58.539L88.0609 54.2716Z" fill="#FFEB86"/>
<path d="M117.843 56.363L116.85 58.414L108.184 58.2673L96.0624 53.1289L95.2071 53.3943L97.0583 57.3027L88.0676 54.2683L86.2945 58.5389L90.9209 63.6461L95.1353 65.5347L94.9917 68.0633L97.3424 70.0956L97.77 72.2683L94.1363 68.9374L88.0645 75.6305L83.8252 76.2798L93.8585 82.1736L106.108 85.7231L121.202 91.695H121.205V57.2434L117.843 56.363Z" fill="#CAAA2A"/>
<path d="M159.509 66.4651L159.905 66.2466L159.094 65.4724" fill="#5A8F2B"/>
<path d="M167.104 73.7699L167.744 72.2902L160.892 69.7522L162.796 74.2912L167.104 73.7699Z" fill="#CAAA2A"/>
<path d="M160.892 69.7523L160.726 69.693H159.59L160.193 68.513L156.471 67.9791L159.509 66.4651L159.094 65.4724L157.957 63.9615L154.277 62.8095L149.298 65.9687L149.504 63.718L155.988 58.0863L154.545 53.6566L153.968 53.2664L146.298 54.2403L141.39 55.4422L132.846 56.8876L122.66 56.5067L121.208 57.2435H121.205V91.6951L128.856 89.3662V85.8917L135.337 80.7689L147.294 79.6077L160.726 76.3205L162.603 74.3132L162.796 74.2913L160.892 69.7523Z" fill="#FFEB86"/>
<path d="M158.794 58.3735L158.363 55.3298L153.968 53.2664L155.988 58.0863L158.794 58.3735Z" fill="#CAAA2A"/>
<path d="M179.21 77.2945L178.264 75.6306H179.472L181.364 78.7274L184.395 81.7305L184.267 83.3413L185.734 84.8273V86.9813L178.492 82.4142L174.677 77.5879L175.623 76.7388L179.21 77.2945Z" fill="#CAAA2A"/>
<path d="M175.121 14.6909L164.179 17.0166L160.72 27.6555L165.044 45.6992L179.148 33.643L182.607 23.0041L175.121 14.6909Z" fill="#E1000F"/>
<path d="M174.793 24.6651L178.283 25.7982L178.939 23.7847L173.963 18.2561L166.686 19.8014L164.388 26.8752L169.364 32.4039L176.641 30.8586L177.293 28.8419L173.803 27.7056L174.793 24.6651Z" fill="white"/>
<path d="M173.803 27.7056L174.793 24.665L172.651 22.2863L169.523 22.9512L168.534 25.9949L170.675 28.3705L173.803 27.7056Z" fill="#000091"/>
<path d="M42.2279 65.1913C41.744 62.4348 37.9168 54.49 38.1821 51.412C38.4475 48.337 38.794 44.3193 41.0291 42.3932C43.8855 39.9302 47.9376 38.1508 48.8491 42.2965C52.0583 56.875 47.4818 75.6586 45.9022 80.9249C45.4651 82.3828 45.0031 83.8344 44.5224 85.2829H40.4984C41.1197 77.1102 39.3465 72.1528 42.2279 65.1913Z" fill="#1B1B35"/>
<path d="M40.4982 85.283H44.5222C43.9571 86.9781 43.3671 88.6669 42.7459 90.3433C42.5274 90.9302 42.2183 91.6014 41.6189 91.7762C40.851 92.001 39.8271 91.3235 39.9426 90.5431C40.1829 88.9042 40.3578 87.1248 40.4982 85.283Z" fill="#794E43"/>
<path d="M31.6826 65.2694C33.565 64.2798 33.7117 63.6055 35.2882 60.6586C37.9729 55.6451 38.8376 53.4911 39.5088 47.8313C40.0176 43.5577 37.052 38.2476 33.8647 40.0051C31.6607 41.2195 34.18 38.2507 31.77 39.7554C26.4786 43.0644 26.4318 59.6534 26.1664 62.2351C25.8043 65.797 28.0239 67.0956 31.6826 65.2694Z" fill="#1B1B35"/>
<path d="M30.2095 58.5483C34.5737 58.2767 35.7475 63.3776 31.6861 65.2694C26.7819 67.5545 21.4405 69.1997 16.2553 70.7106C14.8849 71.1102 13.5082 71.4848 12.1252 71.8438L10.6768 67.9884C17.9067 63.9551 25.7486 58.8261 30.2095 58.5483Z" fill="#1B1B35"/>
<path d="M11.0443 67.6763L12.4927 71.5316C10.7321 71.9905 8.96517 72.4182 7.1889 72.8115C6.58952 72.9427 5.87776 73.0426 5.4376 72.6149C4.87568 72.0654 4.94748 70.8011 5.65924 70.4702C7.36684 69.6773 9.18682 68.7127 11.0443 67.6763Z" fill="#794E43"/>
<path d="M2.14464 72.1561C2.67222 71.6753 3.21228 71.1883 3.86472 70.8949C4.50156 70.6077 5.09157 70.2393 5.77835 70.3736C5.59729 70.692 5.55359 71.3881 5.76899 71.6847C5.94068 71.9188 7.42039 72.5588 7.51405 72.8335C7.5796 73.0333 5.4693 75.1217 5.5411 76.1706C5.6129 77.2196 5.98439 78.2185 6.22789 79.2393C6.31217 79.5952 6.38085 79.9636 6.31842 80.3257C6.25598 80.6847 6.03122 81.0375 5.6847 81.1592C5.65036 81.1717 5.62227 81.1717 5.58793 81.1779L1.68262 76.23C1.76067 75.9802 1.86368 75.7367 1.96982 75.4964C2.34443 74.6379 2.71904 73.7825 3.09365 72.924C2.12903 73.3642 1.23309 73.9511 0.437045 74.6504L0 74.0978C0.718002 73.4516 1.42976 72.8023 2.14464 72.1561Z" fill="#1B1B35"/>
<path d="M40.617 51.8335C38.8407 51.8117 24.6055 53.2539 31.7762 39.7555C32.8063 37.8138 35.9218 37.6951 38.1008 37.4204C41.054 37.0489 45.7803 37.6202 47.2007 40.3018C51.6305 48.6681 42.8927 51.8991 40.617 51.8335Z" fill="#1B1B35"/>
<path d="M47.9368 23.3225C47.044 21.2434 46.2573 18.8428 46.6912 16.5577C46.8255 15.8428 46.8567 15.7273 47.5122 15.9895C48.0305 16.1956 48.5331 16.6326 48.9639 16.9791C49.8442 17.6846 50.6215 18.5181 51.3114 19.411C52.0325 20.3444 52.66 21.3433 53.25 22.3641L48.8889 25.361C48.5518 24.693 48.2334 24.0124 47.9368 23.3225Z" fill="#F99090"/>
<path d="M53.2257 22.2518C53.6221 22.7388 54.6492 25.2487 55.03 25.7451C57.1247 28.4735 55.1924 27.256 57.2871 29.9844C57.4868 30.2404 54.2153 30.512 53.7782 30.1842C50.1913 27.5026 51.6117 28.205 49.3672 25.0489L53.2257 22.2518Z" fill="#794E43"/>
<path d="M67.6445 29.3726C68.0316 29.1697 68.4687 28.8419 68.3969 28.4111C68.3282 28.0022 67.8475 27.8274 67.4416 27.7368C64.0264 26.9751 54.0681 26.4007 53.0785 27.6245C52.1544 28.7639 52.3792 29.766 53.7746 30.1874C56.6154 31.0397 66.0993 30.1843 67.6445 29.3726Z" fill="#794E43"/>
<path d="M69.4128 30.2091C70.2962 30.3339 71.264 30.1654 71.9164 29.5598C72.4409 29.0728 72.7062 28.3579 72.7936 27.6492C72.8342 27.3402 72.7905 26.9468 72.5002 26.8407C72.2411 26.7471 71.9789 26.95 71.7229 27.053C71.136 27.284 70.4929 26.9625 69.8717 26.8688C69.1818 26.7627 68.4513 26.9531 67.9019 27.3808C67.4648 27.721 66.6688 28.695 67.0246 29.2944C67.3524 29.8532 68.829 30.1279 69.4128 30.2091Z" fill="#5F5FF1"/>
<path d="M37.1146 27.309C31.5173 36.5369 32.3882 39.0187 31.7764 39.7585C31.7764 39.7585 39.715 46.1425 48.8492 42.2996C48.0344 37.8511 49.9356 27.5556 50.2821 26.438C50.7784 24.8366 50.5318 22.4453 50.2103 20.8002C49.5329 17.3319 46.7764 14.2445 43.3019 13.5921C39.8274 12.9396 38.204 12.7554 37.2519 16.1581C37.2519 16.1581 42.7087 18.0811 37.1146 27.309Z" fill="#F99090"/>
<path d="M39.1096 93.1155C39.0596 92.4038 39.0097 91.6764 39.1845 90.9834C39.3531 90.306 39.5997 89.6161 40.1273 89.1603C40.2646 89.5005 40.6174 89.9626 40.9826 89.9782C41.273 89.9907 42.7121 89.3819 42.9837 89.4818C43.1803 89.5536 43.4988 92.3445 44.3635 92.9376C45.2313 93.5307 46.2459 93.8554 47.198 94.2956C47.5321 94.4485 47.863 94.6233 48.1065 94.898C48.35 95.1728 48.4873 95.5661 48.3687 95.9126C48.3562 95.947 48.3406 95.9688 48.325 96H42.0191C41.8723 95.7846 41.7443 95.5505 41.6226 95.3226C41.1824 94.4953 40.7423 93.6712 40.299 92.8471C40.0461 93.8772 39.9525 94.9418 40.0118 96H39.3063C39.2438 95.0385 39.1751 94.0739 39.1096 93.1155Z" fill="#1B1B35"/>
<path d="M36.6145 22.155C35.9402 20.513 35.6311 18.6618 36.0931 16.9479C36.2055 16.5265 36.4178 16.0645 36.8361 15.9427C37.2294 15.8272 37.6353 16.0614 37.9662 16.3048C40.1327 17.9032 41.5874 20.2507 42.9266 22.6045L38.3564 25.308C37.6915 24.3028 37.0734 23.2695 36.6145 22.155Z" fill="#F99090"/>
<path d="M39.2654 26.5849C38.9376 26.1197 38.6067 25.6515 38.2852 25.177L42.6899 22.6359C42.8211 22.8575 42.949 23.0823 43.077 23.3039C44.4288 25.639 45.7836 27.9772 47.1384 30.3154C47.6473 31.1926 48.434 32.101 48.1842 33.1468C48.0063 33.896 47.3757 34.5547 46.5828 34.6234C45.896 34.6827 45.1998 34.3643 44.6598 33.9054C44.1166 33.4496 43.7014 32.8627 43.2924 32.2852C41.9501 30.384 40.6077 28.486 39.2654 26.5849Z" fill="#794E43"/>
<path d="M55.8976 3.36213C55.9288 2.1946 55.2826 1.03019 54.2712 0.440179C53.2628 -0.149832 51.933 -0.14671 50.9278 0.449544C50.4158 0.752353 49.9725 1.20188 49.3919 1.33924C48.6302 1.51718 47.8653 1.11135 47.0943 0.986484C45.9205 0.796058 44.6624 1.32051 43.9694 2.28513C42.5646 4.23934 44.1567 9.61499 40.6635 11.3663C39.6832 11.8564 39.0214 12.6212 38.2223 13.3705C33.0683 18.206 39.3523 21.999 42.4866 19.7388C46.0422 17.179 43.0422 15.5057 44.4127 12.5963C45.2056 10.9136 49.2389 12.4371 50.4314 11.0073C51.0838 10.2237 51.2025 9.12488 51.6957 8.23206C52.1796 7.36109 52.9226 6.92093 53.7904 6.50573C54.4366 6.19668 55.0578 5.56296 55.4231 4.95735C55.7103 4.47972 55.882 3.92405 55.8976 3.36213Z" fill="#1B1B35"/>
<path d="M49.305 11.794C48.5901 12.9053 48.1312 14.179 47.9658 15.4901C47.9158 15.8959 47.8565 16.3673 47.5069 16.5796C47.1728 16.7825 46.7452 16.6452 46.383 16.5016C45.7743 16.2612 45.1531 16.0146 44.6536 15.5931C44.151 15.1717 43.7795 14.5411 43.8357 13.8918C43.8825 13.3548 44.2072 12.8866 44.5194 12.4433C45.1187 11.5973 45.7181 10.7544 46.3206 9.90844C46.4985 9.66182 46.6859 9.40271 46.9606 9.27472C47.4226 9.06244 47.9939 9.30594 48.3154 9.69928C48.6369 10.0957 48.7681 10.6077 48.8898 11.1009L49.305 11.794Z" fill="#794E43"/>
<path d="M51.2462 12.156C51.805 11.6846 52.1765 11.0322 52.5324 10.3954C53.0225 9.51502 53.5157 8.6222 53.7498 7.64509C53.984 6.66487 53.9372 5.5785 53.4033 4.72626C52.7571 3.69609 51.5084 3.18412 50.2972 3.08422C49.2452 2.99681 48.1057 3.21221 47.3565 3.95207C46.9476 4.35477 46.6885 4.88235 46.4356 5.39432C46.1078 6.06237 45.7738 6.74915 45.6989 7.49213C45.6177 8.31315 45.8674 9.14041 46.2733 9.85841C46.6791 10.5764 47.2379 11.1976 47.8123 11.7877C48.1432 12.1279 48.4897 12.4682 48.9143 12.6867C49.7634 13.1144 50.5719 12.7242 51.2462 12.156Z" fill="#794E43"/>
<path d="M49.948 4.86993C49.1801 5.57856 48.8523 6.74922 47.922 7.22372C47.1665 7.61082 46.1426 7.34859 45.665 6.6462C45.2997 6.11238 45.2623 5.39438 45.4839 4.78564C45.7056 4.1769 46.1707 3.67742 46.7139 3.32466C47.2571 2.9719 47.8783 2.75962 48.5089 2.60666C49.4766 2.37565 50.4943 2.282 51.4714 2.47867C52.0895 2.60354 52.6889 2.85016 53.204 3.22164C53.5911 3.5026 54.3185 4.09261 54.2154 4.6514C54.1124 5.20083 53.6317 5.10406 53.3195 4.85119C52.8419 4.46722 52.3767 4.21436 51.743 4.19875C51.0843 4.18002 50.4288 4.42664 49.948 4.86993Z" fill="#1B1B35"/>
<path d="M46.7227 6.47446C46.5791 6.34022 46.423 6.21535 46.2388 6.14668C46.0547 6.07488 45.8424 6.06551 45.6676 6.15292C45.4334 6.27154 45.3117 6.54314 45.2742 6.80536C45.1743 7.46405 45.5083 8.1165 46.1889 8.26322C46.704 8.3756 47.0723 8.02597 47.1816 7.53273C47.2753 7.10817 47.013 6.74917 46.7227 6.47446Z" fill="#794E43"/>
<path d="M69.1496 18.0281L58.4951 32.9438L66.0841 49.6326L91.2735 66.6618L94.9883 36.4838L87.3963 19.7981L69.1496 18.0281Z" fill="#E1000F"/>
<path d="M79.7885 30.4495L85.264 27.9584L83.8249 24.796L71.6938 23.6191L64.6074 33.5369L69.6553 44.6347L81.7895 45.8116L88.8728 35.8907L87.4336 32.7284L81.9581 35.2195L79.7885 30.4495Z" fill="white"/>
<path d="M81.9583 35.2196L79.7887 30.4496L74.5691 29.9438L71.5254 34.2082L73.695 38.9782L78.9114 39.487L81.9583 35.2196Z" fill="#000091"/>
<path d="M61.3106 34.7919C61.9224 34.898 62.2908 34.9449 62.2127 35.5598C62.1503 36.0375 61.9443 36.5245 61.4635 36.5307C58.1326 36.5963 46.2013 34.9542 45.4989 34.6233C44.3408 34.077 43.988 31.1675 45.7518 30.7523C47.5405 30.3309 54.6956 33.5682 60.246 34.5484" fill="#794E43"/>
<path d="M62.8064 33.7742C63.7804 33.7242 64.7512 33.6743 65.7252 33.6274C65.9063 33.7367 65.8064 34.0426 65.6191 34.1394C65.4286 34.2362 65.2039 34.2143 64.9978 34.2612C64.7918 34.3111 64.5795 34.5015 64.6451 34.7013C64.7106 34.9011 64.9822 34.9323 65.1945 34.923C66.1747 34.8761 67.1581 34.8324 68.1383 34.7856C68.4661 35.488 68.1196 36.3652 67.5108 36.8428C66.9021 37.3236 66.0998 37.4766 65.3287 37.5171C64.2549 37.5733 63.1685 37.436 62.1414 37.1176C61.5483 36.9334 60.9333 36.6524 60.6212 36.1186C59.8189 34.7481 61.7731 33.8272 62.8064 33.7742Z" fill="#794E43"/>
<path d="M238.258 80.3163C238.495 80.4412 238.748 80.5786 238.863 80.8189C239.004 81.1092 238.907 81.4526 238.807 81.7586C238.579 82.4578 238.355 83.1571 238.127 83.8564C238.058 84.0718 237.958 84.3184 237.74 84.3777C237.543 84.4339 237.346 84.309 237.181 84.1904C236.647 83.8127 236.113 83.4349 235.579 83.0603C235.108 82.7294 234.621 82.3735 234.368 81.8553C234.006 81.1092 234.187 79.308 235.127 78.9989C235.998 78.718 237.546 79.9448 238.258 80.3163Z" fill="#D38742"/>
<path fill-rule="evenodd" clip-rule="evenodd" d="M236.441 92.2508C235.892 92.051 235.689 91.3455 235.808 90.7711C235.926 90.1967 236.273 89.7035 236.516 89.1697C237.209 87.6494 236.991 85.7576 235.973 84.434C235.833 84.2529 235.673 84.0625 235.655 83.8346C235.633 83.5287 235.879 83.2633 236.157 83.1322C236.432 83.0011 236.744 82.9636 237.031 82.8575C237.546 82.6733 237.974 82.2644 238.199 81.7649C238.386 81.3466 238.289 80.7347 238.686 80.435C239.036 80.1697 239.566 80.3039 239.956 80.3788C240.628 80.5068 241.293 80.6504 241.961 80.7846C242.107 80.8159 242.263 80.8471 242.404 80.9033L241.052 83.7815C240.799 83.8283 240.2 83.6785 239.947 83.6286C240.175 83.7472 240.684 84.0999 240.793 84.3309L237.078 92.2415C236.872 92.3133 236.651 92.3257 236.441 92.2508Z" fill="#01015B"/>
<path fill-rule="evenodd" clip-rule="evenodd" d="M192.371 85.5141C191.672 85.6078 190.96 85.4767 190.261 85.5422C188.897 85.6671 187.698 86.5131 186.352 86.7878C184.907 87.0812 183.331 86.6504 182.235 85.6608C182.001 85.4486 181.77 85.1676 181.81 84.8523C181.848 84.5589 182.11 84.3466 182.363 84.1936C184.314 83.0042 185.244 83.5443 187.348 82.6484C187.91 82.408 190.021 80.9408 191.391 80.794C192.877 80.6348 193.008 81.2373 193.289 81.6993C193.573 82.1645 194.282 83.8159 194.035 84.3778C193.754 85.0115 193.03 85.4236 192.371 85.5141Z" fill="#01015B"/>
<path d="M192.291 79.8948C192.225 79.6357 192.147 79.3579 191.941 79.1893C191.691 78.9864 191.335 79.002 191.014 79.027C190.28 79.0863 189.55 79.1456 188.816 79.2081C188.591 79.2268 188.329 79.2674 188.22 79.464C188.12 79.642 188.195 79.8636 188.273 80.0509C188.516 80.6566 188.763 81.2622 189.007 81.8678C189.222 82.4016 189.453 82.9573 189.899 83.3225C190.542 83.847 192.337 84.0842 192.853 83.2382C193.327 82.4609 192.487 80.6722 192.291 79.8948Z" fill="#D38742"/>
<path d="M182.775 62.7504C182.547 61.664 182.354 60.5058 182.513 59.4288L190.245 61.5516C190.295 64.6109 189.896 65.9845 190.37 68.3789C192.084 77.0636 192.774 80.2696 192.612 81.2748C192.49 82.0428 189.621 83.0167 189.034 82.4299C187.405 80.8066 183.905 68.1572 182.775 62.7504Z" fill="#01015B"/>
<path d="M208.661 42.6245C210.309 43.4268 214.317 42.6026 215.369 44.1042C217.002 46.4361 217.561 56.7472 218.279 59.2603C221.254 69.6682 221.432 72.9835 219.712 73.202C217.991 73.4205 214.23 70.4205 212.691 69.6182C210.527 68.4913 202.367 50.8596 202.361 49.7982C202.351 48.2998 206.928 41.7785 208.661 42.6245Z" fill="#01015B"/>
<path d="M182.463 59.7346C182.563 54.9271 194.125 41.3194 199.304 40.4235C201.602 40.0239 208.888 40.9292 210.05 42.771C211.873 45.668 209.794 48.1061 207.468 49.8511C203.759 52.6295 199.86 55.1519 195.802 57.3933C193.682 58.5639 189.34 60.796 190.186 62.7689L182.675 61.0863C182.534 60.6492 182.453 60.1997 182.463 59.7346Z" fill="#01015B"/>
<path fill-rule="evenodd" clip-rule="evenodd" d="M200.497 14.9094C201.484 14.335 204.94 17.2039 205.976 17.6815C206.756 18.0405 208.039 19.0926 207.927 20.0884C207.812 21.1186 206.073 21.9708 205.302 22.489C203.029 24.0155 199.139 25.7668 198.799 25.8574L198.989 24.6274L198.065 25.13L193.676 19.7544C196.202 18.028 197.884 16.4297 200.497 14.9094Z" fill="#6A6AF4"/>
<path fill-rule="evenodd" clip-rule="evenodd" d="M204.084 11.6223C219.415 13.8793 216.315 43.6951 215.369 44.101C209.906 46.4548 201.671 43.0958 199.305 40.4204C200.029 37.4891 201.406 26.3289 200.741 21.7274C200.513 20.1478 200.182 18.5713 200.198 16.9761C200.226 14.4662 201.037 11.1759 204.084 11.6223Z" fill="#6A6AF4"/>
<path d="M203.198 11.129C203.51 11.2633 203.847 11.3788 204.081 11.6223C205.336 12.9209 203.269 16.052 201.428 16.052C200.51 14.8002 198.596 13.4298 197.085 13.0739C196.689 12.9802 196.242 12.8991 196.005 12.5682C195.755 12.2216 195.84 11.7409 195.958 11.3319C196.224 10.4141 196.611 9.53069 197.104 8.7128C197.66 7.78876 197.8 7.1488 198.652 7.85119C200.16 9.0874 201.362 10.3299 203.198 11.129Z" fill="#D38742"/>
<path d="M197.016 3.41523C198.343 3.67746 199.626 4.69827 199.726 6.04686C199.785 6.83666 199.442 7.59837 199.108 8.31637C198.509 9.60253 197.912 10.8918 197.313 12.178C196.954 12.9522 195.346 14.307 194.503 14.4506C192.696 14.7565 189.64 9.07183 190.183 5.76903C190.582 3.33406 194.881 2.99692 197.016 3.41523Z" fill="#D38742"/>
<path fill-rule="evenodd" clip-rule="evenodd" d="M201.431 5.50984C201.687 6.22784 201.949 6.96769 201.918 7.7294C201.886 8.49111 201.496 9.29027 200.788 9.57123C199.885 9.93023 198.902 9.35895 198.1 8.80952C197.126 8.14147 196.995 9.2653 196.021 8.60037C195.605 8.31629 194.341 6.24033 193.867 6.07487C192.724 5.67841 191.425 6.04053 190.28 5.65344C188.884 5.18205 188.026 3.50255 188.466 2.09465C188.903 0.686739 190.564 -0.209203 191.981 0.196624C193.014 0.49319 193.798 1.42035 194.859 1.62014C195.749 1.78872 196.17 1.22368 196.97 1.05198C199.476 0.518164 200.778 3.69298 201.431 5.50984Z" fill="#01015B"/>
<path d="M198.521 6.5994C198.04 5.94696 196.982 5.85955 196.367 6.39025C195.755 6.91782 197.001 9.48702 197.419 9.51199C198.584 8.62229 198.958 7.45164 198.521 6.5994Z" fill="#D38742"/>
<path d="M181.287 29.5942C183.984 30.7024 188.211 32.0791 191.114 31.7888C194.017 31.4985 196.917 29.922 198.169 27.2872C198.75 26.0604 199.414 24.4839 199.536 23.1228L206.005 26.3288C205.571 27.6337 205.043 28.9074 204.369 30.1155C202.536 33.409 199.524 36.2185 195.843 37.0208C193.455 37.5422 190.939 37.1956 188.623 36.4152C186.306 35.6348 182.385 33.384 180.263 32.1696C179.644 31.8169 180.678 29.3413 181.287 29.5942Z" fill="#D38742"/>
<path fill-rule="evenodd" clip-rule="evenodd" d="M199.195 23.3102C199.355 21.4216 199.679 19.4393 200.887 17.9814C203.644 14.663 207.518 17.407 207.615 21.0438C207.652 22.4393 207.087 23.9346 206.759 25.2738C206.541 26.1604 206.294 27.0376 206.007 27.9054L198.799 25.8638C198.846 25.3237 199.148 23.844 199.195 23.3102Z" fill="#6A6AF4"/>
<path d="M178.183 27.5025C177.753 27.3214 176.31 27.1591 175.162 26.7439C174.434 27.1685 176.441 28.336 176.822 28.3079C176.076 28.8917 174.153 29.5347 172.624 28.7574C172.627 28.9728 172.848 29.8344 173.004 29.9843C173.591 30.5462 174.503 30.6461 175.093 31.208C175.533 31.6294 175.592 32.0509 176.154 32.2912C177.053 32.6752 178.08 32.5129 179.036 32.2944C179.532 32.182 180.035 32.0509 180.462 31.7793C182.829 30.2559 179.519 28.0613 178.183 27.5025Z" fill="#D38742"/>
<path d="M110.906 63.1405L107.956 64.8419V68.2477L110.747 73.0645H111.062L113.853 68.2477V64.8419L110.906 63.1405Z" fill="#E1000F"/>
<path d="M111.75 66.0592H112.867V65.413L110.907 64.283L108.943 65.413V67.6763L110.907 68.8095L112.867 67.6763V67.0332H111.75V66.0592Z" fill="white"/>
<path d="M111.749 67.0332V66.0593L110.907 65.5723L110.061 66.0593V67.0332L110.907 67.5202L111.749 67.0332Z" fill="#000091"/>
<path d="M138.312 60.3965L135.365 62.0978V65.5037L138.156 70.3174H138.471L141.262 65.5037V62.0978L138.312 60.3965Z" fill="#E1000F"/>
<path d="M139.158 63.3122H140.272V62.6691L138.312 61.5359L136.352 62.6691V64.9324L138.312 66.0655L140.272 64.9324V64.2861H139.158V63.3122Z" fill="white"/>
<path d="M139.159 64.2862V63.3122L138.313 62.8252L137.47 63.3122V64.2862L138.313 64.7732L139.159 64.2862Z" fill="#000091"/>
<path d="M130.455 49.3112L127.508 51.0125V54.4183L130.299 59.2321H130.614L133.405 54.4183V51.0125L130.455 49.3112Z" fill="#E1000F"/>
<path d="M131.297 52.2268H132.415V51.5838L130.455 50.4506L128.494 51.5838V53.847L130.455 54.9771L132.415 53.847V53.2008H131.297V52.2268Z" fill="white"/>
<path d="M131.297 53.2008V52.2269L130.454 51.7399L129.611 52.2269V53.2008L130.454 53.6878L131.297 53.2008Z" fill="#000091"/>
<path d="M124.155 76.1768L121.205 77.8812V81.2839L123.996 86.1008H124.311L127.102 81.2839V77.8812L124.155 76.1768Z" fill="#E1000F"/>
<path d="M124.998 79.0956H126.115V78.4494L124.155 77.3193L122.194 78.4494V80.7158L124.155 81.8459L126.115 80.7158V80.0696H124.998V79.0956Z" fill="white"/>
<path d="M124.998 80.0697V79.0958L124.155 78.6088L123.312 79.0958V80.0697L124.155 80.5567L124.998 80.0697Z" fill="#000091"/>
<path d="M180.206 72.1873L177.256 73.8886V77.2944L180.047 82.1113H180.362L183.153 77.2944V73.8886L180.206 72.1873Z" fill="#E1000F"/>
<path d="M181.048 75.1062H182.166V74.46L180.206 73.3268L178.245 74.46V76.7232L180.206 77.8564L182.166 76.7232V76.077H181.048V75.1062Z" fill="white"/>
<path d="M181.049 76.0769V75.106L180.206 74.619L179.363 75.106V76.0769L180.206 76.5639L181.049 76.0769Z" fill="#000091"/>
<path d="M163.813 18.5338C162.733 17.3788 162.253 17.6597 161.513 19.4204C160.773 21.1811 162.196 22.9355 162.755 22.6576C163.314 22.3798 163.748 20.7565 163.748 20.7565C163.748 20.7565 165.665 21.4558 165.209 20.4662C164.753 19.4766 163.813 18.5338 163.813 18.5338Z" fill="#D38742"/>
<path d="M163.851 18.0561C164.082 17.3475 164.098 17.2944 164.098 17.2944C164.098 17.2944 163.146 17.1383 162.453 17.9562C161.76 18.7741 163.726 18.4432 163.726 18.4432L163.851 18.0561Z" fill="#D38742"/>
<path d="M219.752 64.7512C220.286 66.412 234.521 76.5514 235.81 78.3059C236.238 78.8865 235.442 82.1862 234.312 82.1987C233.185 82.2112 223.224 76.7544 219.259 74.5785C217.739 73.7419 214.008 70.7388 212.688 69.6149C211.367 68.4911 211.698 67.2205 211.252 65.5442C210.627 63.1872 219.359 63.5306 219.752 64.7512Z" fill="#01015B"/>
</svg>
