<svg width="452" height="272" viewBox="0 0 452 272" fill="none" xmlns="http://www.w3.org/2000/svg">
<path fill-rule="evenodd" clip-rule="evenodd" d="M223.565 209.61L212.631 234.126C212.631 234.126 237.886 242.909 242.919 242.23C247.952 241.551 253.853 217.714 253.853 217.714L223.565 209.61Z" fill="#CE0500"/>
<path d="M153.344 152.013L115.314 243.694L225.323 271.99L225.33 174.394L153.344 152.013Z" fill="#4F7E26"/>
<path d="M115.314 169.919L41.9693 262.03L115.314 243.694L153.344 152.013L115.314 169.919Z" fill="#7AC340"/>
<path d="M225.338 174.394L225.33 271.99L335.347 242.524L297.324 152.006L225.338 174.394Z" fill="#7AC340"/>
<path d="M335.347 169.919L297.324 152.006L335.347 242.524L408.691 262.03L335.347 169.919Z" fill="#4F7E26"/>
<path d="M145.218 171.564L127.508 178.914L124.293 184.045L140.954 181.879L145.218 171.564Z" fill="#FFEB86"/>
<path d="M217.211 176.628L214.811 181.578L193.857 181.23L164.564 168.803L162.497 169.444L166.971 178.899L145.232 171.564L140.954 181.879L152.129 194.224L162.316 198.789L161.976 204.901L167.658 209.814L168.692 215.065L159.909 207.022L145.225 223.192L134.978 224.769L159.23 239.008L188.839 247.595L225.323 262.03L225.338 262.022V178.748L217.211 176.628Z" fill="#CAAA2A"/>
<path d="M317.924 201.045L318.875 200.51L316.913 198.638" fill="#5A8F2B"/>
<path d="M336.282 218.695L337.829 215.126L321.259 208.991L325.862 219.955L336.282 218.695Z" fill="#CAAA2A"/>
<path d="M321.258 208.991L320.859 208.84H318.112L319.568 205.988L310.574 204.705L317.923 201.046L316.912 198.638L314.173 194.994L305.277 192.209L293.241 199.846L293.732 194.398L309.404 180.793L305.918 170.078L304.522 169.135L285.982 171.489L274.128 174.394L253.475 177.888L228.846 176.967L225.337 178.748V262.022L243.824 256.401V247.995L259.489 235.62L288.397 232.805L320.859 224.86L325.401 220.015L325.861 219.955L321.258 208.991Z" fill="#FFEB86"/>
<path d="M316.188 181.487L315.154 174.122L304.523 169.135L309.405 180.793L316.188 181.487Z" fill="#CAAA2A"/>
<path d="M148.598 203.422L141.475 207.535V215.767L148.221 227.41H148.983L155.729 215.767V207.535L148.598 203.422Z" fill="#E1000F"/>
<path d="M150.643 210.478H153.337V208.916L148.598 206.177L143.859 208.916V214.386L148.598 217.125L153.337 214.386V212.832H150.643V210.478Z" fill="white"/>
<path d="M150.643 212.832V210.478L148.598 209.301L146.561 210.478V212.832L148.598 214.009L150.643 212.832Z" fill="#000091"/>
<path d="M189.338 176.001L182.207 180.121V188.346L188.953 199.989H189.715L196.461 188.346V180.121L189.338 176.001Z" fill="#E1000F"/>
<path d="M191.375 183.057H194.076V181.495L189.337 178.763L184.591 181.495V186.965L189.337 189.704L194.076 186.965V185.411H191.375V183.057Z" fill="white"/>
<path d="M191.375 185.411V183.057L189.338 181.88L187.293 183.057V185.411L189.338 186.588L191.375 185.411Z" fill="#000091"/>
<path d="M201.335 215.579L194.204 219.699V227.923L200.95 239.566H201.712L208.458 227.923V219.699L201.335 215.579Z" fill="#E1000F"/>
<path d="M203.372 222.634H206.073V221.072L201.335 218.34L196.596 221.072V226.55L201.335 229.282L206.073 226.55V224.988H203.372V222.634Z" fill="white"/>
<path d="M203.373 224.988V222.634L201.335 221.457L199.298 222.634V224.988L201.335 226.165L203.373 224.988Z" fill="#000091"/>
<path d="M129.341 157.144L122.218 161.257V169.489L128.964 181.132H129.726L136.472 169.489V161.257L129.341 157.144Z" fill="#E1000F"/>
<path d="M131.379 164.2H134.08V162.638L129.341 159.899L124.603 162.638V168.108L129.341 170.848L134.08 168.108V166.554H131.379V164.2Z" fill="white"/>
<path d="M131.379 166.554V164.2L129.342 163.022L127.304 164.2V166.554L129.342 167.731L131.379 166.554Z" fill="#000091"/>
<path d="M273.321 200.004L266.198 204.124V212.349L272.944 223.992H273.706L280.452 212.349V204.124L273.321 200.004Z" fill="#E1000F"/>
<path d="M275.358 207.059H278.06V205.497L273.321 202.766L268.582 205.497V210.975L273.321 213.707L278.06 210.975V209.413H275.358V207.059Z" fill="white"/>
<path d="M275.359 209.413V207.059L273.321 205.882L271.284 207.059V209.413L273.321 210.591L275.359 209.413Z" fill="#000091"/>
<path d="M285.327 163.641L278.196 167.754V175.986L284.949 187.629H285.704L292.45 175.986V167.754L285.327 163.641Z" fill="#E1000F"/>
<path d="M287.364 170.696H290.065V169.134L285.327 166.395L280.588 169.134V174.605L285.327 177.344L290.065 174.605V173.043H287.364V170.696Z" fill="white"/>
<path d="M287.364 173.043V170.696L285.327 169.519L283.289 170.696V173.043L285.327 174.22L287.364 173.043Z" fill="#000091"/>
<path d="M225.33 116.201L196.853 132.644V165.52L225.33 212.032L253.808 165.52V132.644L225.33 116.201Z" fill="#E1000F"/>
<path d="M233.472 144.377H244.263V138.152L225.331 127.218L206.398 138.152V160.012L225.331 170.946L244.263 160.012V153.779H233.472V144.377Z" fill="white"/>
<path d="M233.472 153.779V144.377L225.331 139.676L217.189 144.377V153.779L225.331 158.48L233.472 153.779Z" fill="#000091"/>
<path d="M365.537 227.214L363.251 223.192H366.171L370.744 230.685L378.078 237.936L377.761 241.83L381.308 245.429V250.628L363.809 239.589L354.581 227.923L356.867 225.871L365.537 227.214Z" fill="#CAAA2A"/>
<path d="M371.582 216.439L364.459 220.551V228.784L371.204 240.427H371.967L378.712 228.784V220.551L371.582 216.439Z" fill="#E1000F"/>
<path d="M373.619 223.494H376.32V221.932L371.582 219.193L366.843 221.932V227.403L371.582 230.142L376.32 227.403V225.841H373.619V223.494Z" fill="white"/>
<path d="M373.619 225.841V223.494L371.582 222.317L369.545 223.494V225.841L371.582 227.018L373.619 225.841Z" fill="#000091"/>
<path d="M405.65 40.9194C413.52 48.7217 380.953 49.0009 402.435 67.6237C412.811 76.6107 419.722 57.9652 419.722 57.9652L421.85 49.5442L422.303 43.3265L420.922 35.6978L419.36 17.0221C424.846 17.5126 425.842 15.7846 425.842 15.7846C408.54 -7.76559 393.063 28.4539 405.65 40.9194Z" fill="#1B1B35"/>
<path d="M434.127 241.355C433.908 237.831 442.585 236.141 443.317 240.743C444.049 245.339 441.846 260.211 440.654 262.279C439.469 264.354 435.613 265.395 434.127 241.355Z" fill="#794E43"/>
<path d="M403.047 229.463C408.027 229.742 409.936 239.574 410.547 245.339C410.985 249.489 409.113 250.84 408.027 251.277C407.627 251.436 407.182 251.27 406.97 250.9C404.978 247.376 394.95 229.01 403.047 229.463Z" fill="#794E43"/>
<path d="M437.726 110.565C460.56 126.735 448.079 202.509 447.385 244.297C447.385 244.297 443.001 247.821 433.372 244.177C431.652 231.115 432.859 175.571 416.372 151.772C399.885 127.973 407.294 99.661 407.294 99.661L437.726 110.565Z" fill="#1B1B35"/>
<path d="M438.722 113.847C438.722 113.847 408.751 117.99 402.616 115.077C386.898 141.789 383.971 160.781 383.042 180.174C384.929 204.645 396.73 226.097 398.405 235.688C398.443 235.892 406.193 237.114 409.007 233.296C409.166 233.085 409.211 232.805 409.143 232.549C402.903 209.527 408.049 203.279 403.288 189.448C403.22 189.244 403.22 189.018 403.303 188.821C409.166 174.718 415.436 163.694 420.59 153.726C427.14 141.049 439.869 137.488 438.722 113.847Z" fill="#1B1B35"/>
<path fill-rule="evenodd" clip-rule="evenodd" d="M445.77 263.931C445.83 262.136 445.891 260.302 445.393 258.574C444.91 256.884 444.653 255.148 443.28 254.047C442.963 254.914 441.695 256.129 440.775 256.205C440.043 256.257 436.406 254.446 435.727 254.726C435.236 254.922 434.648 262.385 432.52 263.954C430.392 265.524 427.864 266.429 425.502 267.621C424.68 268.036 423.857 268.504 423.261 269.213C422.673 269.923 422.363 270.926 422.688 271.787C422.718 271.87 422.771 271.93 422.808 271.998L438.685 271.447C439.039 270.896 439.334 270.292 439.628 269.704C440.669 267.584 441.703 265.471 442.744 263.35C443.469 265.923 443.801 268.602 443.74 271.266L445.513 271.205C445.596 268.783 445.679 266.354 445.77 263.931Z" fill="#1B1B35"/>
<path fill-rule="evenodd" clip-rule="evenodd" d="M413.671 253.971C413.694 251.738 413.294 249.519 412.509 247.429C412.351 247.006 412.162 246.606 411.921 246.244C411.596 245.754 410.894 245.754 410.525 246.207C410.019 246.818 409.295 247.376 408.706 247.429C408.004 247.497 404.473 245.844 403.831 246.124C403.371 246.327 402.971 253.488 400.964 255.035C398.957 256.582 396.55 257.51 394.316 258.71C393.539 259.125 392.754 259.593 392.204 260.287C391.653 260.981 391.381 261.954 391.713 262.769C391.743 262.845 391.796 262.905 391.834 262.973L406.571 262.12C406.865 262.105 407.137 261.939 407.272 261.683C407.499 261.268 407.702 260.83 407.899 260.4C408.51 259.087 409.113 257.774 409.725 256.454C410.072 255.699 411.189 255.827 411.355 256.642C411.641 258.046 411.807 259.479 411.86 260.913C411.875 261.404 412.283 261.788 412.773 261.758C413.226 261.736 413.581 261.358 413.588 260.906C413.611 258.604 413.641 256.288 413.671 253.971Z" fill="#1B1B35"/>
<path d="M399.115 72.5736C396.972 80.474 405.144 111.049 405.144 111.049C405.144 111.049 408.736 107.873 408.796 107.684C408.857 107.503 412.516 86.6766 412.516 86.6766L410.449 72.2567C410.449 72.2567 401.228 73.9017 400.919 73.7809C400.609 73.6602 399.115 72.5736 399.115 72.5736Z" fill="#794E43"/>
<path d="M434.052 51.9135C427.148 49.5894 418.515 50.3968 409.234 52.9095C408.163 53.1963 407.581 54.8865 406.495 55.2261C394.459 58.9385 422.899 57.3238 423.933 57.1276C424.967 56.9314 434.052 51.9135 434.052 51.9135Z" fill="#794E43"/>
<path d="M403.039 77.3878C400.964 77.4029 395.908 72.9736 395.953 71.4418C398.949 53.8678 409.234 52.9171 409.234 52.9171C409.234 52.9171 412.893 55.0525 420.303 55.0525C429.924 55.0525 431.448 50.1553 435.749 52.7662C440.05 55.377 437.432 60.8174 440.065 74.196C442.706 87.5821 438.971 112.355 445.808 121.349C439.862 128.963 407.966 132.264 399.5 120.5C406.811 106.5 406.804 107.971 406.811 95.3165C406.811 86.4653 401.688 85.1449 403.039 77.3878Z" fill="#F99090"/>
<path d="M435.402 74.2639C435.568 75.2373 434.052 102.357 439.447 105.164C447.483 109.344 449.739 77.2747 446.842 73.7131C443.944 70.1515 435.402 74.2639 435.402 74.2639Z" fill="#794E43"/>
<path d="M434.052 51.9135C446.178 54.9921 449.188 77.2595 449.188 77.2595C449.188 77.2595 440.458 81.6964 434.187 81.1305C427.909 80.5646 429.087 62.3869 429.087 62.3869L434.052 51.9135Z" fill="#F99090"/>
<path d="M440.005 96.1164C436.678 94.8562 411.686 92.8717 396.995 88.6914C390.105 86.7295 391.735 92.0643 398.096 95.5127C404.457 98.9611 413.557 102.327 423.661 104.002C443.869 107.352 443.635 105.073 445.732 99.2026C447.83 93.332 440.005 96.1164 440.005 96.1164Z" fill="#794E43"/>
<path d="M425.729 37.0558C419.918 44.5638 412.312 43.6885 410.622 34.6034C409.173 26.8012 410.298 15.8297 419.413 17.0898C428.785 18.3877 427.042 25.0053 428.083 24.462C429.132 23.9187 432.014 30.1666 425.729 37.0558Z" fill="#794E43"/>
<path d="M428.558 32.8906L429.381 50.3137L416.848 51.9964L419.149 38.6782L428.558 32.8906Z" fill="#794E43"/>
<path d="M419.881 10.661C430.4 5.64311 439.953 10.08 437.485 35.1846C436.844 41.7117 442.933 43.168 445.816 46.4956C449.189 50.3892 450.139 60.5684 443.243 60.5684C439.062 60.5684 439.04 65.9032 434.059 66.2881C423.827 67.0728 428.996 61.4739 423.254 58.3273C419.964 56.5239 423.028 51.4683 425.918 46.4579C427.555 43.6132 424.265 40.4591 427.646 34.2867C427.366 24.847 419.858 27.5483 417.708 18.6217C414.961 17.9125 412.177 18.8028 410.909 22.9605C408.578 21.3759 411.52 14.6452 419.881 10.661Z" fill="#1B1B35"/>
<path d="M425.223 31.3514C425.02 28.6123 428.694 24.1528 430.007 26.8391C431.32 29.5178 429.117 34.6942 426.491 34.4753C423.865 34.2565 425.223 31.3514 425.223 31.3514Z" fill="#794E43"/>
<path d="M391.199 87.2198C387.947 87.0236 384.688 86.835 381.435 86.6388C380.817 86.9331 381.133 87.7782 381.76 88.0499C382.386 88.3215 383.148 88.2762 383.835 88.4271C384.522 88.5781 385.223 89.1138 384.989 89.6646C384.755 90.2155 383.842 90.2758 383.133 90.2381C379.851 90.057 379.881 86.6614 376.598 86.4803C375.452 88.3894 376.727 93.0149 378.726 94.3732C380.726 95.7314 382.009 97.2858 384.597 97.4443C388.196 97.6631 391.154 95.3164 394.625 94.5015C396.625 94.0261 397.289 95.2711 398.375 93.8148C401.13 90.0797 394.648 87.4236 391.199 87.2198Z" fill="#794E43"/>
<path d="M75.0868 114.685C70.3179 115.696 69.6236 117.378 69.9104 117.522C70.1971 117.665 70.9291 120.457 74.7849 119.355C78.6408 118.261 80.8592 115.892 80.8592 115.892C80.8592 115.892 80.3763 113.56 75.0868 114.685Z" fill="#F8BE7E"/>
<path d="M35.4339 117.416C30.816 115.862 29.3596 116.948 29.5332 117.22C31.9252 120.948 21.497 118.307 32.7929 121.287C36.6714 122.306 39.7878 121.4 39.7878 121.4C39.7878 121.4 40.5575 119.144 35.4339 117.416Z" fill="#F8BE7E"/>
<path d="M19.9576 246.674L18.2221 248.712L17.3618 256.333L25.2169 256.19L26.5827 249.595L27.6768 244.32L19.9576 246.674Z" fill="#F8BE7E"/>
<path d="M26.2961 256.408C27.7977 262.203 27.4431 264.95 27.4431 264.95C27.4431 264.95 25.8132 267.033 21.6253 266.859L20.8179 264.61L19.9728 267.357C14.3814 271.424 4.4437 272.367 1.10849 271.884C-0.461016 271.1 -0.378013 270.285 1.44805 268.247C12.3743 265.282 11.499 260.023 16.049 258.264C22.6742 255.706 26.2961 256.408 26.2961 256.408Z" fill="#01015B"/>
<path fill-rule="evenodd" clip-rule="evenodd" d="M41.1839 192.504C39.7426 195.484 37.7883 198.85 34.9737 199.672C33.0269 200.238 27.5789 196.525 26.4924 195.039C25.4058 193.552 31.6461 123.241 34.1211 118.918C37.4412 113.123 61.6101 122.185 60.6518 132.274C59.4294 145.169 53.6343 155.628 49.1899 168.395C46.5338 176.054 44.753 185.109 41.1839 192.504Z" fill="#01015B"/>
<path fill-rule="evenodd" clip-rule="evenodd" d="M27.3299 184.218C31.0725 178.325 40.0218 174.326 43.7041 184.618C49.3256 200.313 30.9971 229.493 28.175 248.387L18.4636 248.327C18.1995 246.486 25.2548 187.486 27.3299 184.218Z" fill="#01015B"/>
<path d="M82.8966 246.516L83.9228 259.932L77.2599 260.053L74.1209 244.758L82.8966 246.516Z" fill="#F8BE7E"/>
<path d="M5.81704 92.6058C5.92268 94.047 7.33373 97.6614 8.68441 98.1519C9.42389 98.416 10.269 98.2198 10.9481 97.8123C11.6272 97.4048 12.1705 96.8012 12.6912 96.1975C18.7806 89.2102 20.7727 79.4083 25.8283 71.6437C27.3827 69.2593 28.9522 66.8371 29.8502 64.1433C30.7481 61.4495 30.9292 58.4085 29.7068 55.8732C29.073 54.5451 27.6468 52.7794 26.0396 52.6361C24.7417 52.5229 23.2099 53.9038 22.2214 54.5753C18.7127 56.9673 17.6638 57.4502 15.0077 60.7704C13.4986 62.6643 5.22847 84.5997 5.81704 92.6058Z" fill="#F8BE7E"/>
<path d="M45.5755 48.8783C46.5942 47.2107 47.5902 45.0979 46.6168 43.4002C45.5982 41.6118 51.3782 39.0915 49.3182 39.2576C24.4324 41.227 18.7882 52.7644 15.0078 60.778L28.1223 71.0024C35.3435 64.1207 40.3614 57.3824 45.5755 48.8783Z" fill="#6A6AF4"/>
<path d="M30.6724 117.205C30.5441 118.707 27.0354 120.336 25.5262 120.397C24.0171 120.457 9.27274 100.582 6.86565 95.8657C6.13372 94.432 5.40178 92.7267 6.10354 91.2779C6.72983 89.98 8.2767 89.4367 9.6953 89.1953C12.0797 88.7878 14.9848 88.7501 17.2712 89.6631C18.8483 90.2894 19.0822 91.874 19.799 93.2398C22.4249 98.2728 30.7554 116.239 30.6724 117.205Z" fill="#F8BE7E"/>
<path fill-rule="evenodd" clip-rule="evenodd" d="M11.0315 264.543C10.9334 262.837 11.3484 262.498 12.3218 261.388C13.5744 259.955 14.1705 257.699 15.6117 253.473C16.2682 251.541 20.1316 250.938 22.1312 254.205C22.7801 255.261 23.3763 255.948 24.078 255.91C24.6666 255.88 25.308 254.839 25.889 255.51C26.4021 256.099 26.5605 257.676 26.7115 258.793C26.968 260.724 26.2738 261.434 26.5153 263.373C26.5681 263.803 26.6209 264.248 26.6436 264.693L21.0069 262.566L11.4238 266.218C11.2125 265.765 11.0692 265.191 11.0315 264.543Z" fill="#01015B"/>
<path fill-rule="evenodd" clip-rule="evenodd" d="M98.0029 266.052C91.7701 265.342 89.6196 263.607 86.956 260.242C85.7713 258.748 86.2844 259.238 84.6847 255.073C83.9528 253.164 81.9607 253.066 80.0818 256.401C79.4706 257.487 79.0631 258 78.3614 257.985C77.7728 257.978 76.3391 256.371 75.7883 257.057C75.6223 257.261 75.5015 257.585 75.411 257.963C75.411 257.97 75.411 257.978 75.4035 257.985C75.3733 258.114 75.3431 258.257 75.3204 258.4C74.1433 263.939 75.4487 266.384 75.4487 266.384C75.4487 266.384 75.577 268.361 79.7573 268.036L81.1986 266.112L82.7379 269.04C88.3217 271.794 100.568 270.768 103.889 270.164C103.813 266.339 100.259 266.308 98.0029 266.052Z" fill="#01015B"/>
<path d="M74.6794 116.835C75.8792 119.257 80.218 177.095 80.5122 182.37C80.2255 188.874 82.8967 246.516 82.8967 246.516L72.7401 247.716C69.903 221.947 58.9013 200.811 64.1078 183.245C54.4267 162.298 47.0017 142.151 47.0017 142.151C47.0017 142.151 36.8829 121.559 39.1692 118.208C41.448 114.858 53.0307 114.851 53.0307 114.851L74.6794 116.835Z" fill="#01015B"/>
<path d="M28.7105 53.3756C26.6656 56.5147 25.6545 63.9547 26.8316 67.3805C30.4687 77.9596 32.1212 79.5442 33.8039 87.1352C35.4866 94.7262 39.1387 107.056 35.3432 113.968C34.8301 114.903 34.2793 115.552 33.9925 116.541C33.4719 118.344 32.9512 119.74 33.7209 120.065C34.4453 120.374 72.3323 127.045 73.9773 119.589C74.3093 118.095 74.7771 117.001 74.2867 115.666C71.0043 106.716 69.8498 93.0133 72.5134 83.883C75.162 74.8206 78.4066 63.6227 76.6787 54.2283C72.7775 49.6405 64.7791 38.9633 49.3103 39.25C38.4671 39.4538 30.5441 50.5611 28.7105 53.3756Z" fill="#6A6AF4"/>
<path d="M86.5939 58.3634C91.7703 59.5556 99.6555 85.8449 99.565 92.2059C99.4744 98.567 85.2885 117.884 81.5307 118.563C76.8448 123.921 77.8559 117.394 79.599 114.7C82.4966 110.233 83.1757 97.5257 87.6956 92.0022C80.829 85.8373 79.5764 74.6395 73.4191 64.9659C71.7892 62.4003 78.1276 57.2089 78.1276 57.2089L86.5939 58.3634Z" fill="#F8BE7E"/>
<path d="M85.2511 113.289C84.3381 121.747 82.6026 124.087 79.3051 126.614C74.3174 130.44 69.1787 130.832 69.0354 127.007C68.8015 120.646 77.9091 115.56 77.9091 115.56C77.9091 115.56 88.4656 110.044 85.2511 113.289Z" fill="#F8BE7E"/>
<path d="M48.3297 49.3765C47.13 47.573 45.9453 45.2716 46.9564 43.355C48.0128 41.3327 52.5025 39.7406 54.7813 39.8915C68.5975 40.8045 80.233 48.2597 88.2919 59.1406L70.0312 74.3151C61.7611 66.9806 54.4418 58.5823 48.3297 49.3765Z" fill="#6A6AF4"/>
<path fill-rule="evenodd" clip-rule="evenodd" d="M66.7642 18.1898C66.3416 19.3292 65.5116 19.1934 65.3305 18.0087C64.757 14.2056 64.7721 13.5869 62.433 10.5082C61.1426 8.81799 60.8106 8.71235 61.5577 7.92005C64.0251 5.30168 70.2579 8.77271 66.7642 18.1898Z" fill="#01015B"/>
<path d="M48.9862 11.6553C51.9441 6.18463 59.8973 5.58852 63.806 10.9384C67.3826 15.8356 66.6658 27.7277 64.8775 30.5045C61.746 35.3639 52.5855 32.1646 50.8575 29.2821C48.3222 25.0565 46.4961 16.2506 48.9862 11.6553Z" fill="#F8BE7E"/>
<path fill-rule="evenodd" clip-rule="evenodd" d="M51.295 12.8324C51.6949 13.6549 51.7855 25.5394 51.4459 25.4639C50.231 25.2074 48.1937 22.2419 46.0809 22.7626C45.4093 22.9286 44.5491 23.5473 44.2699 22.1815C42.4967 13.5719 42.2401 14.0699 43.6285 12.9909C46.7072 10.6215 50.5857 11.3685 51.295 12.8324Z" fill="#01015B"/>
<path fill-rule="evenodd" clip-rule="evenodd" d="M40.8369 9.1954C46.9716 2.93245 58.1845 -1.08942 61.897 0.261265C67.428 2.26843 65.3152 11.3157 63.5269 12.1231C62.712 12.4929 61.8065 11.9647 60.984 11.6025C57.098 9.88961 54.3438 12.2665 51.8386 13.2248C47.4092 14.9151 35.6153 14.5302 40.8369 9.1954Z" fill="#01015B"/>
<path d="M43.961 21.7892C44.0893 23.2078 44.7911 24.566 45.8777 25.4942C48.9865 28.1352 50.7447 23.4568 49.6732 20.9516C48.3979 17.956 43.6139 17.9333 43.961 21.7892Z" fill="#D38742"/>
<path fill-rule="evenodd" clip-rule="evenodd" d="M66.764 18.1898C66.3415 19.3292 65.5114 19.1934 65.3303 18.0087C64.7569 14.2056 64.7719 13.5869 62.4328 10.5082C61.1424 8.81799 60.8104 8.71235 61.5575 7.92005C64.0249 5.30168 70.2577 8.77271 66.764 18.1898Z" fill="#01015B"/>
<path d="M56.7508 25.5469C54.4644 20.2272 50.02 19.7065 47.8242 21.4949C48.1864 32.1796 49.0466 33.2285 46.0283 39.6574C50.0728 46.3127 57.9581 45.4525 60.0181 40.6308C59.9351 39.7857 57.9355 28.3011 56.7508 25.5469Z" fill="#F8BE7E"/>
<path d="M48.986 11.6553C51.9439 6.18463 59.8971 5.58852 63.8058 10.9384C67.3824 15.8356 66.6656 27.7277 64.8773 30.5045C61.7458 35.3639 52.5853 32.1646 50.8573 29.2821C48.3219 25.0565 46.4959 16.2506 48.986 11.6553Z" fill="#F8BE7E"/>
<path fill-rule="evenodd" clip-rule="evenodd" d="M51.2953 12.8324C51.6953 13.6549 51.7858 25.5394 51.4462 25.4639C50.2314 25.2074 48.194 22.2419 46.0812 22.7626C45.4097 22.9286 44.5495 23.5473 44.2703 22.1815C42.497 13.5719 42.2405 14.0699 43.6289 12.9909C46.7075 10.6215 50.586 11.3685 51.2953 12.8324Z" fill="#01015B"/>
<path fill-rule="evenodd" clip-rule="evenodd" d="M40.8372 9.1954C46.9719 2.93245 58.1848 -1.08942 61.8973 0.261265C67.4284 2.26843 65.3156 11.3157 63.5272 12.1231C62.7123 12.4929 61.8068 11.9647 60.9843 11.6025C57.0983 9.88961 54.3441 12.2665 51.8389 13.2248C47.4096 14.9151 35.6156 14.5302 40.8372 9.1954Z" fill="#01015B"/>
<path d="M43.9603 21.7892C44.0886 23.2078 44.7904 24.566 45.877 25.4942C48.9858 28.1352 50.7439 23.4568 49.6725 20.9516C48.3972 17.956 43.6132 17.9333 43.9603 21.7892Z" fill="#F8BE7E"/>
<path d="M33.8797 130.38C26.0095 128.275 25.2474 119.869 25.2474 119.869L30.9444 117.356C30.9444 117.356 31.4123 119.763 35.902 121.008C40.2483 122.215 42.9949 132.825 33.8797 130.38Z" fill="#F8BE7E"/>
</svg>
